<svg xmlns="http://www.w3.org/2000/svg" width="136" height="52" viewBox="0 0 136 52" role="img" aria-labelledby="title">
  <title id="title">cht.me</title>
  <rect x="1" y="1" width="134" height="50" rx="25" fill="#ffffff" stroke="#000000" stroke-width="2"/>
  <!-- cht-logo.svg mark -->
  <svg x="17" y="15.5" width="13" height="21" viewBox="350 230 320 590" aria-hidden="true">
    <g fill="#000000">
      <path d="M601.257 727.417C594.199 727.417 587.892 731.829 585.473 738.46L569.38 782.566C565.381 793.527 573.497 805.128 585.165 805.128H627.104C634.162 805.128 640.469 800.716 642.888 794.085L658.981 749.979C662.98 739.018 654.864 727.417 643.196 727.417H601.257Z" transform="translate(-15 0)"/>
      <g transform="matrix(1 0 -0.167078 1 85.544 0)">
        <path d="M532.778 237H488.79Q478.79 237 476.872 246.814L390.259 690.172C388.506 701.568 386.765 712.963 386.765 723.457C386.765 776.938 421.827 805 476.222 805H497.975Q505.975 805 507.479 797.142L515.879 753.254Q517.383 745.395 509.383 745.395H493.753C465.605 745.395 452.543 732.247 452.543 710.297C452.543 703.247 453.42 697.173 455.136 689.284L540.876 246.81Q542.778 237 532.778 237Z"/>
      </g>
      <path d="M383.436 388.906C376.377 388.906 370.071 393.318 367.652 399.949L351.559 444.055C347.56 455.016 355.676 466.617 367.343 466.617H563.87C570.929 466.617 577.235 462.205 579.654 455.573L595.747 411.468C599.746 400.506 591.631 388.906 579.963 388.906H383.436Z" transform="translate(14.075 0)"/>
    </g>
  </svg>
  <g fill="#000000" transform="translate(40.00 34.905) scale(0.026000 -0.026000)" data-source-style="gt-eesti-display:font-style:Italic">
    <path d="M273.0 -15C327.0 -15 377.0 -2 430.0 28L390.0 110C350.0 89 311.0 78 275.0 78C193.0 78 137.0 135 137.0 220C137.0 316 204.0 384 298.0 384C347.0 384 393.0 368 434.0 338L491.0 417C434.0 458 373.0 477 304.0 477C143.0 477 33.0 371 33.0 216C33.0 77 128.0 -15 273.0 -15Z" />
    <path d="M602.0 0 645.0 221C668.0 343 733.0 383 798.0 383C857.0 383 885.0 346 885.0 294C885.0 285 884.0 275 882.0 264L831.0 0H929.0L978.0 257C983.0 281 985.0 304 985.0 324C985.0 430 924.0 477 838.0 477C769.0 477 718.0 445 680.0 391H678.0L738.0 700H640.0L504.0 0Z" />
    <path d="M1357.0 379 1373.0 462H1269.0L1305.0 647H1207.0L1171.0 462H1089.0L1073.0 379H1155.0L1107.0 136C1104.0 122 1103.0 110 1103.0 98C1103.0 30 1147.0 -1 1215.0 -1H1251.0L1269.0 89H1245.0C1217.0 89 1204.0 99 1204.0 122C1204.0 126 1205.0 131 1206.0 137L1253.0 379Z" />
    <path d="M1477.0 0 1500.0 119H1381.0L1358.0 0Z" />
    <path d="M1690.0 0 1736.0 239C1755.0 339 1795.0 384 1861.0 384C1909.0 384 1939.0 361 1939.0 300C1939.0 284 1937.0 267 1933.0 247L1885.0 0H1983.0L2030.0 240C2049.0 338 2087.0 384 2154.0 384C2202.0 384 2233.0 360 2233.0 299C2233.0 288 2232.0 272 2228.0 254L2178.0 0H2276.0L2324.0 240C2333.0 284 2336.0 304 2336.0 328C2336.0 439 2270.0 477 2198.0 477C2132.0 477 2083.0 445 2047.0 381H2045.0C2031.0 445 1984.0 477 1916.0 477C1857.0 477 1805.0 453 1768.0 390H1766.0L1780.0 462H1682.0L1592.0 0Z" />
    <path d="M2878.0 214C2883.0 245 2885.0 263 2885.0 281C2885.0 404 2808.0 477 2678.0 477C2521.0 477 2408.0 363 2408.0 204C2408.0 69 2494.0 -14 2634.0 -14C2717.0 -14 2787.0 15 2857.0 79L2800.0 152C2745.0 101 2695.0 79 2634.0 79C2547.0 79 2503.0 124 2503.0 213V214ZM2673.0 394C2747.0 394 2789.0 357 2789.0 292V287H2515.0C2539.0 353 2596.0 394 2673.0 394Z" />
  </g>
</svg>
