<svg xmlns="http://www.w3.org/2000/svg" width="149" height="52" viewBox="0 0 149 52" role="img" aria-labelledby="title">
  <title id="title">cht.me</title>
  <rect x="1" y="1" width="147" height="50" rx="25.0" fill="#ffffff" stroke="#000000" stroke-width="2"/>
  <svg x="10" y="8" width="39" height="36" viewBox="186 193 843 774" shape-rendering="crispEdges" aria-hidden="true">
      <!-- Outer silhouette -->
      <path fill="#000000" d="
        M395 193H878V247H825V357H878V527H931V582H984V752H1029V866
        H984V922H931V967H399V922H291V866H238V809H186V414H238V357
        H291V303H344V247H395Z
      "/>
      <!-- Light skin blocks -->
      <g fill="#F2E6DA">
        <path d="
          M395 303H558V357H395Z
          M665 303H772V357H665Z
          M344 357H505V414H344Z
          M558 357H612V414H558Z
          M719 357H772V414H719Z
          M344 414H558V527H344Z
          M395 527H558V582H395Z
          M825 527H931V582H825Z
          M452 582H719V639H452Z
          M772 582H984V639H772Z
          M665 639H772V695H665Z
        "/>
      </g>
      <!-- Peach shadow blocks -->
      <g fill="#E9BD9B">
        <path d="
          M612 357H665V386H612Z
          M558 414H586V552H558Z
          M238 527H291V582H238Z
          M238 582H344V695H238Z
          M344 527H395V582H344Z
          M395 582H452V639H395Z
          M452 639H558V695H452Z
          M719 582H772V639H719Z
          M772 639H984V695H772Z
        "/>
      </g>
      <!-- Eye whites -->
      <g fill="#FFFFFF">
        <path d="M613 414H718V470H744V552H613Z"/>
        <path d="M773 414H851V470H825V527H773Z"/>
      </g>
      <!-- Left pupil -->
      <rect x="665" y="470" width="53" height="57" fill="#000000"/>
      <!-- Clothing cut-outs -->
      <g fill="#FFFFFF">
        <rect x="559" y="695" width="27" height="87"/>
        <rect x="613" y="695" width="52" height="87"/>
        <rect x="693" y="752" width="51" height="57"/>
        <rect x="773" y="752" width="52" height="57"/>
        <rect x="856" y="752" width="22" height="57"/>
        <rect x="613" y="809" width="52" height="57"/>
        <rect x="693" y="837" width="51" height="29"/>
        <rect x="773" y="837" width="52" height="29"/>
      </g>
  </svg>
  <path d="M278 -15C343 -15 395 1 445 30L383 151C355 133 326 123 285 123C225 123 172 162 172 231C172 300 225 339 285 339C326 339 355 329 383 311L445 432C395 461 343 477 278 477C130 477 21 380 21 231C21 82 130 -15 278 -15ZM498 700V0H649V232C649 314 687 344 738 344C793 344 822 313 822 244V0H973V286C973 418 901 477 799 477C733 477 683 450 651 401H649V700ZM1360 462H1265V647H1114V462H1024V336H1114V156C1114 45 1175 0 1269 0H1332V140H1315C1276 140 1265 154 1265 197V336H1360ZM1417 161V0H1577V161ZM1816 0V229C1816 316 1852 344 1898 344C1951 344 1973 309 1973 251V0H2118V229C2118 316 2154 344 2200 344C2253 344 2275 309 2275 251V0H2426V301C2426 413 2357 477 2261 477C2193 477 2138 444 2106 387H2104C2080 443 2030 477 1959 477C1891 477 1841 445 1815 394H1813V462H1665V0ZM2732 476C2590 476 2488 385 2488 229C2488 82 2591 -15 2746 -15C2825 -15 2888 9 2937 39L2882 153C2853 134 2804 111 2748 111C2686 111 2640 137 2630 195H2961V229C2961 396 2871 476 2732 476ZM2727 369C2776 369 2813 338 2815 284H2631C2638 344 2676 369 2727 369Z" fill="#000000" transform="translate(57.000 34.905) scale(0.026000 -0.026000)"/>
</svg>
