<svg xmlns="http://www.w3.org/2000/svg" width="136" height="52" viewBox="0 0 136 52" role="img" aria-labelledby="title">
  <title id="title">cht.me</title>
  <rect x="1" y="1" width="134" height="50" rx="25" fill="#ffffff" stroke="#000000" stroke-width="2"/>
  <!-- t. logo — two sizes smaller than v9 (20×32 → 15×24) -->
  <svg x="16" y="14" width="15" height="24" viewBox="350 230 320 590" aria-hidden="true">
    <g fill="#000000">
      <path d="M601.257 727.417C594.199 727.417 587.892 731.829 585.473 738.46L569.38 782.566C565.381 793.527 573.497 805.128 585.165 805.128H627.104C634.162 805.128 640.469 800.716 642.888 794.085L658.981 749.979C662.98 739.018 654.864 727.417 643.196 727.417H601.257Z"/>
      <path d="M532.778 237H488.79Q478.79 237 476.872 246.814L390.259 690.172C388.506 701.568 386.765 712.963 386.765 723.457C386.765 776.938 421.827 805 476.222 805H497.975Q505.975 805 507.479 797.142L515.879 753.254Q517.383 745.395 509.383 745.395H493.753C465.605 745.395 452.543 732.247 452.543 710.297C452.543 703.247 453.42 697.173 455.136 689.284L540.876 246.81Q542.778 237 532.778 237Z"/>
      <path d="M383.436 388.906C376.377 388.906 370.071 393.318 367.652 399.949L351.559 444.055C347.56 455.016 355.676 466.617 367.343 466.617H563.87C570.929 466.617 577.235 462.205 579.654 455.573L595.747 411.468C599.746 400.506 591.631 388.906 579.963 388.906H383.436Z"/>
    </g>
  </svg>
  <path d="M278 -15C343 -15 395 1 445 30L383 151C355 133 326 123 285 123C225 123 172 162 172 231C172 300 225 339 285 339C326 339 355 329 383 311L445 432C395 461 343 477 278 477C130 477 21 380 21 231C21 82 130 -15 278 -15ZM498 700V0H649V232C649 314 687 344 738 344C793 344 822 313 822 244V0H973V286C973 418 901 477 799 477C733 477 683 450 651 401H649V700ZM1360 462H1265V647H1114V462H1024V336H1114V156C1114 45 1175 0 1269 0H1332V140H1315C1276 140 1265 154 1265 197V336H1360ZM1417 161V0H1577V161ZM1816 0V229C1816 316 1852 344 1898 344C1951 344 1973 309 1973 251V0H2118V229C2118 316 2154 344 2200 344C2253 344 2275 309 2275 251V0H2426V301C2426 413 2357 477 2261 477C2193 477 2138 444 2106 387H2104C2080 443 2030 477 1959 477C1891 477 1841 445 1815 394H1813V462H1665V0ZM2732 476C2590 476 2488 385 2488 229C2488 82 2591 -15 2746 -15C2825 -15 2888 9 2937 39L2882 153C2853 134 2804 111 2748 111C2686 111 2640 137 2630 195H2961V229C2961 396 2871 476 2732 476ZM2727 369C2776 369 2813 338 2815 284H2631C2638 344 2676 369 2727 369Z" fill="#000000" transform="translate(42 34.905) scale(0.026 -0.026)"/>
</svg>
