<svg xmlns="http://www.w3.org/2000/svg" width="1024" height="1024" viewBox="0 0 1024 1024" role="img" aria-labelledby="title desc">
  <title id="title">T Dot Logo — reference-matched period spacing from main stem</title>
  <desc id="desc">A lowercase t retaining the matched stem and original crossbar angle, with only the period shifted 15 pixels left so its distance from the extrapolated main stem matches the reference f, excluding the terminal tail.</desc>
  <g fill="#000000">
    <path d="M601.257 727.417C594.199 727.417 587.892 731.829 585.473 738.46L569.38 782.566C565.381 793.527 573.497 805.128 585.165 805.128H627.104C634.162 805.128 640.469 800.716 642.888 794.085L658.981 749.979C662.98 739.018 654.864 727.417 643.196 727.417H601.257Z" transform="translate(-15 0)"/>
    <g transform="matrix(1 0 -0.167078 1 85.544 0)">
      <path d="M532.778 237H488.79Q478.79 237 476.872 246.814L390.259 690.172C388.506 701.568 386.765 712.963 386.765 723.457C386.765 776.938 421.827 805 476.222 805H497.975Q505.975 805 507.479 797.142L515.879 753.254Q517.383 745.395 509.383 745.395H493.753C465.605 745.395 452.543 732.247 452.543 710.297C452.543 703.247 453.42 697.173 455.136 689.284L540.876 246.81Q542.778 237 532.778 237Z"/>
    </g>
    <path d="M383.436 388.906C376.377 388.906 370.071 393.318 367.652 399.949L351.559 444.055C347.56 455.016 355.676 466.617 367.343 466.617H563.87C570.929 466.617 577.235 462.205 579.654 455.573L595.747 411.468C599.746 400.506 591.631 388.906 579.963 388.906H383.436Z" transform="translate(14.075 0)"/>
  </g>
</svg>
