<svg xmlns="http://www.w3.org/2000/svg" width="122" height="52" viewBox="0 0 122 52" role="img" aria-labelledby="title">
  <title id="title">cht.me</title>
  <rect width="122" height="52" rx="26" fill="#000"/>
  <path d="M278 -15C343 -15 395 1 445 30L383 151C355 133 326 123 285 123C225 123 172 162 172 231C172 300 225 339 285 339C326 339 355 329 383 311L445 432C395 461 343 477 278 477C130 477 21 380 21 231C21 82 130 -15 278 -15ZM498 700V0H649V232C649 314 687 344 738 344C793 344 822 313 822 244V0H973V286C973 418 901 477 799 477C733 477 683 450 651 401H649V700ZM1360 462H1265V647H1114V462H1024V336H1114V156C1114 45 1175 0 1269 0H1332V140H1315C1276 140 1265 154 1265 197V336H1360ZM1417 161V0H1577V161ZM1816 0V229C1816 316 1852 344 1898 344C1951 344 1973 309 1973 251V0H2118V229C2118 316 2154 344 2200 344C2253 344 2275 309 2275 251V0H2426V301C2426 413 2357 477 2261 477C2193 477 2138 444 2106 387H2104C2080 443 2030 477 1959 477C1891 477 1841 445 1815 394H1813V462H1665V0ZM2732 476C2590 476 2488 385 2488 229C2488 82 2591 -15 2746 -15C2825 -15 2888 9 2937 39L2882 153C2853 134 2804 111 2748 111C2686 111 2640 137 2630 195H2961V229C2961 396 2871 476 2732 476ZM2727 369C2776 369 2813 338 2815 284H2631C2638 344 2676 369 2727 369Z" fill="#fff" transform="translate(22.234 34.905) scale(0.026000 -0.026000)"/>
</svg>
