<svg xmlns="http://www.w3.org/2000/svg" width="136" height="52" viewBox="0 0 136 52" role="img" aria-labelledby="title">
  <title id="title">cht.me</title>
  <rect x="1" y="1" width="134" height="50" rx="25" fill="#ffffff" stroke="#000000" stroke-width="2"/>
  <!-- cht-logo.svg mark -->
  <svg x="17" y="15.5" width="13" height="21" viewBox="350 230 320 590" aria-hidden="true">
    <g fill="#000000">
      <path d="M601.257 727.417C594.199 727.417 587.892 731.829 585.473 738.46L569.38 782.566C565.381 793.527 573.497 805.128 585.165 805.128H627.104C634.162 805.128 640.469 800.716 642.888 794.085L658.981 749.979C662.98 739.018 654.864 727.417 643.196 727.417H601.257Z" transform="translate(-15 0)"/>
      <g transform="matrix(1 0 -0.167078 1 85.544 0)">
        <path d="M532.778 237H488.79Q478.79 237 476.872 246.814L390.259 690.172C388.506 701.568 386.765 712.963 386.765 723.457C386.765 776.938 421.827 805 476.222 805H497.975Q505.975 805 507.479 797.142L515.879 753.254Q517.383 745.395 509.383 745.395H493.753C465.605 745.395 452.543 732.247 452.543 710.297C452.543 703.247 453.42 697.173 455.136 689.284L540.876 246.81Q542.778 237 532.778 237Z"/>
      </g>
      <path d="M383.436 388.906C376.377 388.906 370.071 393.318 367.652 399.949L351.559 444.055C347.56 455.016 355.676 466.617 367.343 466.617H563.87C570.929 466.617 577.235 462.205 579.654 455.573L595.747 411.468C599.746 400.506 591.631 388.906 579.963 388.906H383.436Z" transform="translate(14.075 0)"/>
    </g>
  </svg>
  <g fill="#000000" transform="translate(40.00 34.905) scale(0.026000 -0.026000)" data-source-style="gt-eesti-display:font-style:Italic">
    <path d="M268.0 -15C324.0 -15 370.0 -6 423.0 21L375.0 148C344.0 132 312.0 123 284.0 123C223.0 123 180.0 164 180.0 227C180.0 288 220.0 340 301.0 340C352.0 340 389.0 318 418.0 299L493.0 423C436.0 459 372.0 477 305.0 477C117.0 477 25.0 361 25.0 219C25.0 64 135.0 -15 268.0 -15Z" />
    <path d="M622.0 0 666.0 231C680.0 303 713.0 345 774.0 345C813.0 345 845.0 327 845.0 271C845.0 258 844.0 241 840.0 223L795.0 0H946.0L995.0 247C1001.0 277 1004.0 304 1004.0 327C1004.0 439 934.0 477 857.0 477C792.0 477 741.0 450 701.0 401H699.0L758.0 700H607.0L471.0 0Z" />
    <path d="M1396.0 336 1420.0 462H1323.0L1359.0 647H1209.0L1173.0 462H1088.0L1064.0 336H1149.0L1114.0 158C1111.0 141 1109.0 125 1109.0 111C1109.0 36 1158.0 0 1238.0 0H1301.0L1329.0 140H1312.0C1281.0 140 1269.0 148 1269.0 172C1269.0 179 1270.0 187 1272.0 197L1299.0 336Z" />
    <path d="M1542.0 0 1574.0 161H1414.0L1382.0 0Z" />
    <path d="M1781.0 0 1824.0 229C1842.0 321 1884.0 345 1927.0 345C1966.0 345 1990.0 325 1990.0 277C1990.0 264 1988.0 250 1985.0 233L1938.0 0H2083.0L2127.0 229C2143.0 315 2179.0 345 2228.0 345C2268.0 345 2291.0 324 2291.0 276C2291.0 263 2289.0 252 2285.0 230L2240.0 0H2391.0L2442.0 257C2448.0 286 2451.0 309 2451.0 332C2451.0 434 2390.0 477 2311.0 477C2234.0 477 2182.0 439 2145.0 382H2143.0C2131.0 440 2082.0 477 2010.0 477C1937.0 477 1890.0 444 1856.0 394H1854.0L1868.0 462H1720.0L1630.0 0Z" />
    <path d="M2993.0 290C2993.0 409 2906.0 476 2775.0 476C2583.0 476 2501.0 335 2501.0 207C2501.0 69 2597.0 -15 2741.0 -15C2817.0 -15 2882.0 5 2940.0 35L2893.0 153C2859.0 133 2810.0 112 2751.0 112C2686.0 112 2655.0 141 2648.0 195H2979.0C2989.0 231 2993.0 262 2993.0 290ZM2656.0 284C2674.0 336 2714.0 369 2768.0 369C2815.0 369 2845.0 344 2845.0 302C2845.0 295 2845.0 290 2844.0 284Z" />
  </g>
</svg>
