<svg xmlns="http://www.w3.org/2000/svg" width="200" height="32" viewBox="0 0 200 32" role="img" aria-label="Made by CHT © 2026">
  <title>Made by CHT © 2026</title>
  <desc>Footer line matching cht.me: Made by CHT © year, GT Eesti Display Regular, gray-400.</desc>
  <style>
    .f { fill: #9CA3AF; color: #9CA3AF; }
    @media (prefers-color-scheme: dark) {
      .f { fill: #9CA3AF; color: #9CA3AF; }
    }
  </style>
  <g class="f" transform="translate(4.00 21.60) scale(0.020000 -0.020000)">
    <path d="M600.0 700 431.0 270H429.0L260.0 700H175.0L5.0 0H116.0L232.0 500H234.0L391.0 107H469.0L626.0 500H628.0L744.0 0H855.0L685.0 700Z" />
    <path d="M1115.0 -15C1191.0 -15 1242.0 18 1271.0 68H1273.0V0H1371.0V462H1273.0V394H1271.0C1242.0 444 1191.0 477 1115.0 477C993.0 477 890.0 385 890.0 231C890.0 77 993.0 -15 1115.0 -15ZM1136.0 81C1050.0 81 994.0 143 994.0 231C994.0 319 1050.0 381 1136.0 381C1222.0 381 1278.0 319 1278.0 231C1278.0 143 1222.0 81 1136.0 81Z" />
    <path d="M1686.0 -15C1762.0 -15 1813.0 18 1842.0 68H1844.0V0H1942.0V700H1844.0V394H1842.0C1813.0 444 1762.0 477 1686.0 477C1564.0 477 1461.0 385 1461.0 231C1461.0 77 1564.0 -15 1686.0 -15ZM1707.0 81C1621.0 81 1565.0 143 1565.0 231C1565.0 319 1621.0 381 1707.0 381C1793.0 381 1849.0 319 1849.0 231C1849.0 143 1793.0 81 1707.0 81Z" />
    <path d="M2273.0 477C2125.0 477 2037.0 370 2037.0 230C2037.0 84 2131.0 -15 2278.0 -15C2392.0 -15 2453.0 48 2487.0 95L2418.0 160C2395.0 129 2352.0 79 2276.0 79C2197.0 79 2140.0 133 2136.0 215H2494.0V231C2494.0 380 2414.0 477 2273.0 477ZM2267.0 387C2337.0 387 2384.0 350 2388.0 286H2141.0C2153.0 353 2201.0 387 2267.0 387Z" />
    <path d="M3135.0 -15C3257.0 -15 3360.0 77 3360.0 231C3360.0 385 3257.0 477 3135.0 477C3059.0 477 3008.0 444 2979.0 394H2977.0V700H2879.0V0H2977.0V68H2979.0C3008.0 18 3059.0 -15 3135.0 -15ZM3114.0 81C3028.0 81 2972.0 143 2972.0 231C2972.0 319 3028.0 381 3114.0 381C3200.0 381 3256.0 319 3256.0 231C3256.0 143 3200.0 81 3114.0 81Z" />
    <path d="M3639.0 159 3512.0 462H3395.0L3589.0 42L3478.0 -200H3582.0L3870.0 462H3762.0Z" />
    <path d="M4575.0 -15C4680.0 -15 4758.0 16 4822.0 62L4758.0 153C4717.0 123 4654.0 91 4571.0 91C4424.0 91 4314.0 192 4314.0 350C4314.0 508 4424.0 609 4571.0 609C4654.0 609 4717.0 577 4758.0 547L4822.0 638C4758.0 684 4680.0 715 4575.0 715C4353.0 715 4200.0 568 4200.0 350C4200.0 132 4353.0 -15 4575.0 -15Z" />
    <path d="M5391.0 419H5021.0V700H4917.0V0H5021.0V319H5391.0V0H5495.0V700H5391.0Z" />
    <path d="M5575.0 700V602H5772.0V0H5876.0V602H6073.0V700Z" />
    <path d="M7871.0 0V94H7592.0L7764.0 285C7842.0 372 7872.0 432 7872.0 502C7872.0 619 7795.0 690 7668.0 690C7537.0 690 7454.0 612 7451.0 487H7549.0C7551.0 556 7595.0 598 7664.0 598C7729.0 598 7770.0 559 7770.0 497C7770.0 451 7747.0 409 7682.0 336L7449.0 72V0Z" />
    <path d="M8200.0 690C8047.0 690 7962.0 564 7962.0 338C7962.0 112 8047.0 -15 8200.0 -15C8353.0 -15 8438.0 112 8438.0 338C8438.0 564 8353.0 690 8200.0 690ZM8200.0 598C8285.0 598 8336.0 501 8336.0 338C8336.0 175 8285.0 77 8200.0 77C8115.0 77 8064.0 175 8064.0 338C8064.0 501 8115.0 598 8200.0 598Z" />
    <path d="M8935.0 0V94H8656.0L8828.0 285C8906.0 372 8936.0 432 8936.0 502C8936.0 619 8859.0 690 8732.0 690C8601.0 690 8518.0 612 8515.0 487H8613.0C8615.0 556 8659.0 598 8728.0 598C8793.0 598 8834.0 559 8834.0 497C8834.0 451 8811.0 409 8746.0 336L8513.0 72V0Z" />
    <path d="M9250.0 -15C9390.0 -15 9487.0 81 9487.0 219C9487.0 355 9400.0 449 9274.0 449C9222.0 449 9181.0 430 9142.0 388L9139.0 390L9387.0 680H9265.0L9147.0 540C9048.0 425 9011.0 339 9011.0 228C9011.0 81 9105.0 -15 9250.0 -15ZM9249.0 77C9165.0 77 9112.0 132 9112.0 218C9112.0 304 9165.0 360 9248.0 360C9332.0 360 9385.0 305 9385.0 219C9385.0 133 9332.0 77 9249.0 77Z" />
    <!-- copyright mark -->
    <circle cx="6769.0" cy="320.0" r="302.4" fill="none" stroke="currentColor" stroke-width="70.0"/>

    <g transform="translate(6769.0 320.0) scale(0.550) translate(-341.0 -280.0)"><path d="M410 -15C515 -15 593 16 657 62L593 153C552 123 489 91 406 91C259 91 149 192 149 350C149 508 259 609 406 609C489 609 552 577 593 547L657 638C593 684 515 715 410 715C188 715 35 568 35 350C35 132 188 -15 410 -15Z"/></g>
  </g>
</svg>
