<svg xmlns="http://www.w3.org/2000/svg" width="40.0" height="40.0" viewBox="0 0 40.0 40.0" shape-rendering="crispEdges" role="img" aria-label="Pixel wave">
    <rect x="15.0" y="0.0" width="2.5" height="2.5" fill="#000000"/>
    <rect x="17.5" y="0.0" width="2.5" height="2.5" fill="#000000"/>
    <rect x="12.5" y="2.5" width="2.5" height="2.5" fill="#000000"/>
    <rect x="15.0" y="2.5" width="2.5" height="2.5" fill="#F2E6DA"/>
    <rect x="17.5" y="2.5" width="2.5" height="2.5" fill="#F2E6DA"/>
    <rect x="20.0" y="2.5" width="2.5" height="2.5" fill="#000000"/>
    <rect x="10.0" y="5.0" width="2.5" height="2.5" fill="#000000"/>
    <rect x="12.5" y="5.0" width="2.5" height="2.5" fill="#F2E6DA"/>
    <rect x="15.0" y="5.0" width="2.5" height="2.5" fill="#F2E6DA"/>
    <rect x="17.5" y="5.0" width="2.5" height="2.5" fill="#F2E6DA"/>
    <rect x="20.0" y="5.0" width="2.5" height="2.5" fill="#000000"/>
    <rect x="22.5" y="5.0" width="2.5" height="2.5" fill="#000000"/>
    <rect x="7.5" y="7.5" width="2.5" height="2.5" fill="#000000"/>
    <rect x="10.0" y="7.5" width="2.5" height="2.5" fill="#F2E6DA"/>
    <rect x="12.5" y="7.5" width="2.5" height="2.5" fill="#F2E6DA"/>
    <rect x="15.0" y="7.5" width="2.5" height="2.5" fill="#F2E6DA"/>
    <rect x="17.5" y="7.5" width="2.5" height="2.5" fill="#F2E6DA"/>
    <rect x="20.0" y="7.5" width="2.5" height="2.5" fill="#F2E6DA"/>
    <rect x="22.5" y="7.5" width="2.5" height="2.5" fill="#000000"/>
    <rect x="5.0" y="10.0" width="2.5" height="2.5" fill="#000000"/>
    <rect x="7.5" y="10.0" width="2.5" height="2.5" fill="#000000"/>
    <rect x="10.0" y="10.0" width="2.5" height="2.5" fill="#F2E6DA"/>
    <rect x="12.5" y="10.0" width="2.5" height="2.5" fill="#F2E6DA"/>
    <rect x="15.0" y="10.0" width="2.5" height="2.5" fill="#F2E6DA"/>
    <rect x="17.5" y="10.0" width="2.5" height="2.5" fill="#F2E6DA"/>
    <rect x="20.0" y="10.0" width="2.5" height="2.5" fill="#F2E6DA"/>
    <rect x="22.5" y="10.0" width="2.5" height="2.5" fill="#000000"/>
    <rect x="2.5" y="12.5" width="2.5" height="2.5" fill="#000000"/>
    <rect x="5.0" y="12.5" width="2.5" height="2.5" fill="#F2E6DA"/>
    <rect x="7.5" y="12.5" width="2.5" height="2.5" fill="#F2E6DA"/>
    <rect x="10.0" y="12.5" width="2.5" height="2.5" fill="#F2E6DA"/>
    <rect x="12.5" y="12.5" width="2.5" height="2.5" fill="#F2E6DA"/>
    <rect x="15.0" y="12.5" width="2.5" height="2.5" fill="#F2E6DA"/>
    <rect x="17.5" y="12.5" width="2.5" height="2.5" fill="#F2E6DA"/>
    <rect x="20.0" y="12.5" width="2.5" height="2.5" fill="#F2E6DA"/>
    <rect x="22.5" y="12.5" width="2.5" height="2.5" fill="#000000"/>
    <rect x="0.0" y="15.0" width="2.5" height="2.5" fill="#000000"/>
    <rect x="2.5" y="15.0" width="2.5" height="2.5" fill="#000000"/>
    <rect x="5.0" y="15.0" width="2.5" height="2.5" fill="#F2E6DA"/>
    <rect x="7.5" y="15.0" width="2.5" height="2.5" fill="#F2E6DA"/>
    <rect x="10.0" y="15.0" width="2.5" height="2.5" fill="#E9BD9B"/>
    <rect x="12.5" y="15.0" width="2.5" height="2.5" fill="#E9BD9B"/>
    <rect x="15.0" y="15.0" width="2.5" height="2.5" fill="#F2E6DA"/>
    <rect x="17.5" y="15.0" width="2.5" height="2.5" fill="#F2E6DA"/>
    <rect x="20.0" y="15.0" width="2.5" height="2.5" fill="#F2E6DA"/>
    <rect x="22.5" y="15.0" width="2.5" height="2.5" fill="#000000"/>
    <rect x="25.0" y="15.0" width="2.5" height="2.5" fill="#000000"/>
    <rect x="0.0" y="17.5" width="2.5" height="2.5" fill="#000000"/>
    <rect x="2.5" y="17.5" width="2.5" height="2.5" fill="#F2E6DA"/>
    <rect x="5.0" y="17.5" width="2.5" height="2.5" fill="#F2E6DA"/>
    <rect x="7.5" y="17.5" width="2.5" height="2.5" fill="#F2E6DA"/>
    <rect x="10.0" y="17.5" width="2.5" height="2.5" fill="#F2E6DA"/>
    <rect x="12.5" y="17.5" width="2.5" height="2.5" fill="#F2E6DA"/>
    <rect x="15.0" y="17.5" width="2.5" height="2.5" fill="#F2E6DA"/>
    <rect x="17.5" y="17.5" width="2.5" height="2.5" fill="#F2E6DA"/>
    <rect x="20.0" y="17.5" width="2.5" height="2.5" fill="#F2E6DA"/>
    <rect x="22.5" y="17.5" width="2.5" height="2.5" fill="#F2E6DA"/>
    <rect x="25.0" y="17.5" width="2.5" height="2.5" fill="#F2E6DA"/>
    <rect x="27.5" y="17.5" width="2.5" height="2.5" fill="#000000"/>
    <rect x="0.0" y="20.0" width="2.5" height="2.5" fill="#000000"/>
    <rect x="2.5" y="20.0" width="2.5" height="2.5" fill="#F2E6DA"/>
    <rect x="5.0" y="20.0" width="2.5" height="2.5" fill="#F2E6DA"/>
    <rect x="7.5" y="20.0" width="2.5" height="2.5" fill="#F2E6DA"/>
    <rect x="10.0" y="20.0" width="2.5" height="2.5" fill="#F2E6DA"/>
    <rect x="12.5" y="20.0" width="2.5" height="2.5" fill="#F2E6DA"/>
    <rect x="15.0" y="20.0" width="2.5" height="2.5" fill="#F2E6DA"/>
    <rect x="17.5" y="20.0" width="2.5" height="2.5" fill="#F2E6DA"/>
    <rect x="20.0" y="20.0" width="2.5" height="2.5" fill="#F2E6DA"/>
    <rect x="22.5" y="20.0" width="2.5" height="2.5" fill="#F2E6DA"/>
    <rect x="25.0" y="20.0" width="2.5" height="2.5" fill="#F2E6DA"/>
    <rect x="27.5" y="20.0" width="2.5" height="2.5" fill="#000000"/>
    <rect x="2.5" y="22.5" width="2.5" height="2.5" fill="#000000"/>
    <rect x="5.0" y="22.5" width="2.5" height="2.5" fill="#F2E6DA"/>
    <rect x="7.5" y="22.5" width="2.5" height="2.5" fill="#F2E6DA"/>
    <rect x="10.0" y="22.5" width="2.5" height="2.5" fill="#F2E6DA"/>
    <rect x="12.5" y="22.5" width="2.5" height="2.5" fill="#F2E6DA"/>
    <rect x="15.0" y="22.5" width="2.5" height="2.5" fill="#F2E6DA"/>
    <rect x="17.5" y="22.5" width="2.5" height="2.5" fill="#F2E6DA"/>
    <rect x="20.0" y="22.5" width="2.5" height="2.5" fill="#F2E6DA"/>
    <rect x="22.5" y="22.5" width="2.5" height="2.5" fill="#F2E6DA"/>
    <rect x="25.0" y="22.5" width="2.5" height="2.5" fill="#F2E6DA"/>
    <rect x="27.5" y="22.5" width="2.5" height="2.5" fill="#000000"/>
    <rect x="5.0" y="25.0" width="2.5" height="2.5" fill="#000000"/>
    <rect x="7.5" y="25.0" width="2.5" height="2.5" fill="#F2E6DA"/>
    <rect x="10.0" y="25.0" width="2.5" height="2.5" fill="#F2E6DA"/>
    <rect x="12.5" y="25.0" width="2.5" height="2.5" fill="#F2E6DA"/>
    <rect x="15.0" y="25.0" width="2.5" height="2.5" fill="#F2E6DA"/>
    <rect x="17.5" y="25.0" width="2.5" height="2.5" fill="#F2E6DA"/>
    <rect x="20.0" y="25.0" width="2.5" height="2.5" fill="#F2E6DA"/>
    <rect x="22.5" y="25.0" width="2.5" height="2.5" fill="#F2E6DA"/>
    <rect x="25.0" y="25.0" width="2.5" height="2.5" fill="#F2E6DA"/>
    <rect x="27.5" y="25.0" width="2.5" height="2.5" fill="#000000"/>
    <rect x="7.5" y="27.5" width="2.5" height="2.5" fill="#000000"/>
    <rect x="10.0" y="27.5" width="2.5" height="2.5" fill="#F2E6DA"/>
    <rect x="12.5" y="27.5" width="2.5" height="2.5" fill="#F2E6DA"/>
    <rect x="15.0" y="27.5" width="2.5" height="2.5" fill="#F2E6DA"/>
    <rect x="17.5" y="27.5" width="2.5" height="2.5" fill="#F2E6DA"/>
    <rect x="20.0" y="27.5" width="2.5" height="2.5" fill="#F2E6DA"/>
    <rect x="22.5" y="27.5" width="2.5" height="2.5" fill="#F2E6DA"/>
    <rect x="25.0" y="27.5" width="2.5" height="2.5" fill="#F2E6DA"/>
    <rect x="27.5" y="27.5" width="2.5" height="2.5" fill="#000000"/>
    <rect x="10.0" y="30.0" width="2.5" height="2.5" fill="#000000"/>
    <rect x="12.5" y="30.0" width="2.5" height="2.5" fill="#F2E6DA"/>
    <rect x="15.0" y="30.0" width="2.5" height="2.5" fill="#F2E6DA"/>
    <rect x="17.5" y="30.0" width="2.5" height="2.5" fill="#F2E6DA"/>
    <rect x="20.0" y="30.0" width="2.5" height="2.5" fill="#F2E6DA"/>
    <rect x="22.5" y="30.0" width="2.5" height="2.5" fill="#F2E6DA"/>
    <rect x="25.0" y="30.0" width="2.5" height="2.5" fill="#F2E6DA"/>
    <rect x="27.5" y="30.0" width="2.5" height="2.5" fill="#000000"/>
    <rect x="12.5" y="32.5" width="2.5" height="2.5" fill="#000000"/>
    <rect x="15.0" y="32.5" width="2.5" height="2.5" fill="#F2E6DA"/>
    <rect x="17.5" y="32.5" width="2.5" height="2.5" fill="#F2E6DA"/>
    <rect x="20.0" y="32.5" width="2.5" height="2.5" fill="#F2E6DA"/>
    <rect x="22.5" y="32.5" width="2.5" height="2.5" fill="#F2E6DA"/>
    <rect x="25.0" y="32.5" width="2.5" height="2.5" fill="#F2E6DA"/>
    <rect x="27.5" y="32.5" width="2.5" height="2.5" fill="#000000"/>
    <rect x="15.0" y="35.0" width="2.5" height="2.5" fill="#000000"/>
    <rect x="17.5" y="35.0" width="2.5" height="2.5" fill="#F2E6DA"/>
    <rect x="20.0" y="35.0" width="2.5" height="2.5" fill="#F2E6DA"/>
    <rect x="22.5" y="35.0" width="2.5" height="2.5" fill="#F2E6DA"/>
    <rect x="25.0" y="35.0" width="2.5" height="2.5" fill="#F2E6DA"/>
    <rect x="27.5" y="35.0" width="2.5" height="2.5" fill="#000000"/>
    <rect x="17.5" y="37.5" width="2.5" height="2.5" fill="#000000"/>
    <rect x="20.0" y="37.5" width="2.5" height="2.5" fill="#000000"/>
    <rect x="22.5" y="37.5" width="2.5" height="2.5" fill="#000000"/>
    <rect x="25.0" y="37.5" width="2.5" height="2.5" fill="#000000"/>
</svg>
