<svg xmlns="http://www.w3.org/2000/svg" width="506" height="28" viewBox="0 0 506 28" role="img" aria-labelledby="title">
  <title id="title">Product manager · Interest-driven developer</title>
  <style>
    .sub { fill: #57606a; }
    @media (prefers-color-scheme: dark) { .sub { fill: #8b949e; } }
  </style>
  <g class="sub" transform="translate(2.00 21.28) scale(0.026000 -0.026000)">
    <path d="M66.0 700V0H194.0V259H310.0C467.0 259 546.0 354 546.0 482C546.0 606 467.0 700 310.0 700ZM194.0 377V582H296.0C365.0 582 409.0 549 409.0 481C409.0 412 365.0 377 296.0 377Z" />
    <path d="M887.0 476C811.0 476 758.0 436 734.0 364H732.0V462H611.0V0H733.0V189C733.0 302 780.0 344 878.0 344H892.0V476Z" />
    <path d="M1184.0 477C1037.0 477 928.0 376 928.0 231C928.0 86 1037.0 -15 1184.0 -15C1331.0 -15 1440.0 86 1440.0 231C1440.0 376 1331.0 477 1184.0 477ZM1184.0 361C1259.0 361 1313.0 310 1313.0 231C1313.0 152 1259.0 101 1184.0 101C1109.0 101 1054.0 152 1054.0 231C1054.0 310 1109.0 361 1184.0 361Z" />
    <path d="M1713.0 -15C1788.0 -15 1838.0 17 1867.0 65H1869.0V0H1991.0V700H1869.0V397H1867.0C1838.0 445 1788.0 477 1713.0 477C1592.0 477 1491.0 389 1491.0 231C1491.0 73 1592.0 -15 1713.0 -15ZM1744.0 101C1670.0 101 1619.0 153 1619.0 231C1619.0 309 1670.0 361 1744.0 361C1818.0 361 1869.0 309 1869.0 231C1869.0 153 1818.0 101 1744.0 101Z" />
    <path d="M2268.0 -15C2340.0 -15 2384.0 21 2412.0 71H2414.0V0H2535.0V462H2412.0V240C2412.0 138 2371.0 98 2310.0 98C2257.0 98 2223.0 129 2223.0 201V462H2097.0V179C2097.0 42 2174.0 -15 2268.0 -15Z" />
    <path d="M2870.0 -15C2933.0 -15 2984.0 1 3032.0 31L2979.0 132C2949.0 113 2914.0 100 2872.0 100C2796.0 100 2741.0 153 2741.0 231C2741.0 309 2796.0 362 2872.0 362C2914.0 362 2949.0 349 2979.0 330L3032.0 431C2984.0 461 2933.0 477 2870.0 477C2721.0 477 2615.0 379 2615.0 231C2615.0 83 2721.0 -15 2870.0 -15Z" />
    <path d="M3362.0 462H3267.0V647H3144.0V462H3059.0V359H3144.0V136C3144.0 43 3196.0 -1 3283.0 -1H3337.0V113H3316.0C3280.0 113 3267.0 128 3267.0 165V359H3362.0Z" />
    <path d="M3833.0 0V234C3833.0 329 3874.0 363 3927.0 363C3983.0 363 4010.0 328 4010.0 267V0H4131.0V235C4131.0 329 4171.0 363 4224.0 363C4280.0 363 4308.0 328 4308.0 267V0H4431.0V293C4431.0 418 4360.0 477 4270.0 477C4207.0 477 4150.0 447 4119.0 385H4117.0C4092.0 446 4043.0 477 3975.0 477C3912.0 477 3860.0 449 3834.0 392H3832.0V462H3711.0V0Z" />
    <path d="M4727.0 -15C4802.0 -15 4852.0 17 4881.0 65H4883.0V0H5005.0V462H4883.0V397H4881.0C4852.0 445 4802.0 477 4727.0 477C4606.0 477 4505.0 389 4505.0 231C4505.0 73 4606.0 -15 4727.0 -15ZM4758.0 101C4684.0 101 4633.0 153 4633.0 231C4633.0 309 4684.0 361 4758.0 361C4832.0 361 4883.0 309 4883.0 231C4883.0 153 4832.0 101 4758.0 101Z" />
    <path d="M5385.0 477C5317.0 477 5265.0 445 5234.0 392H5232.0V462H5111.0V0H5233.0V226C5233.0 326 5278.0 363 5341.0 363C5401.0 363 5436.0 331 5436.0 256V0H5559.0V285C5559.0 421 5485.0 477 5385.0 477Z" />
    <path d="M5856.0 -15C5931.0 -15 5981.0 17 6010.0 65H6012.0V0H6134.0V462H6012.0V397H6010.0C5981.0 445 5931.0 477 5856.0 477C5735.0 477 5634.0 389 5634.0 231C5634.0 73 5735.0 -15 5856.0 -15ZM5887.0 101C5813.0 101 5762.0 153 5762.0 231C5762.0 309 5813.0 361 5887.0 361C5961.0 361 6012.0 309 6012.0 231C6012.0 153 5961.0 101 5887.0 101Z" />
    <path d="M6480.0 -215C6618.0 -215 6710.0 -164 6712.0 0V462H6590.0V397H6588.0C6559.0 445 6509.0 477 6434.0 477C6313.0 477 6212.0 389 6212.0 231C6212.0 75 6312.0 -12 6433.0 -12C6511.0 -12 6559.0 22 6588.0 65H6590.0V22C6590.0 -70 6557.0 -99 6475.0 -99C6436.0 -99 6381.0 -92 6314.0 -76L6292.0 -193C6359.0 -206 6428.0 -215 6480.0 -215ZM6465.0 101C6391.0 101 6340.0 153 6340.0 231C6340.0 309 6391.0 361 6465.0 361C6539.0 361 6590.0 309 6590.0 231C6590.0 153 6539.0 101 6465.0 101Z" />
    <path d="M7030.0 477C6885.0 477 6790.0 377 6790.0 230C6790.0 83 6888.0 -15 7039.0 -15C7136.0 -15 7198.0 30 7239.0 68L7177.0 157C7151.0 131 7105.0 94 7039.0 94C6968.0 94 6916.0 135 6909.0 206H7254.0V230C7254.0 388 7170.0 477 7030.0 477ZM7024.0 378C7084.0 378 7126.0 344 7130.0 285H6912.0C6922.0 349 6965.0 378 7024.0 378Z" />
    <path d="M7608.0 476C7532.0 476 7479.0 436 7455.0 364H7453.0V462H7332.0V0H7454.0V189C7454.0 302 7501.0 344 7599.0 344H7613.0V476Z" />
    <path d="M7980.0 280.0h120.0v120.0h-120.0z" />
    <path d="M8306.0 700V0H8435.0V700Z" />
    <path d="M8829.0 477C8761.0 477 8709.0 445 8678.0 392H8676.0V462H8555.0V0H8677.0V226C8677.0 326 8722.0 363 8785.0 363C8845.0 363 8880.0 331 8880.0 256V0H9003.0V285C9003.0 421 8929.0 477 8829.0 477Z" />
    <path d="M9368.0 462H9273.0V647H9150.0V462H9065.0V359H9150.0V136C9150.0 43 9202.0 -1 9289.0 -1H9343.0V113H9322.0C9286.0 113 9273.0 128 9273.0 165V359H9368.0Z" />
    <path d="M9652.0 477C9507.0 477 9412.0 377 9412.0 230C9412.0 83 9510.0 -15 9661.0 -15C9758.0 -15 9820.0 30 9861.0 68L9799.0 157C9773.0 131 9727.0 94 9661.0 94C9590.0 94 9538.0 135 9531.0 206H9876.0V230C9876.0 388 9792.0 477 9652.0 477ZM9646.0 378C9706.0 378 9748.0 344 9752.0 285H9534.0C9544.0 349 9587.0 378 9646.0 378Z" />
    <path d="M10230.0 476C10154.0 476 10101.0 436 10077.0 364H10075.0V462H9954.0V0H10076.0V189C10076.0 302 10123.0 344 10221.0 344H10235.0V476Z" />
    <path d="M10511.0 477C10366.0 477 10271.0 377 10271.0 230C10271.0 83 10369.0 -15 10520.0 -15C10617.0 -15 10679.0 30 10720.0 68L10658.0 157C10632.0 131 10586.0 94 10520.0 94C10449.0 94 10397.0 135 10390.0 206H10735.0V230C10735.0 388 10651.0 477 10511.0 477ZM10505.0 378C10565.0 378 10607.0 344 10611.0 285H10393.0C10403.0 349 10446.0 378 10505.0 378Z" />
    <path d="M10970.0 -15C11085.0 -15 11161.0 31 11161.0 133C11161.0 202 11124.0 241 11059.0 268L10976.0 304C10944.0 318 10932.0 328 10932.0 346C10932.0 363 10943.0 374 10979.0 374C11021.0 374 11067.0 360 11109.0 342L11150.0 445C11096.0 465 11039.0 477 10986.0 477C10870.0 477 10807.0 427 10807.0 337C10807.0 277 10838.0 231 10911.0 199L10994.0 163C11021.0 150 11034.0 141 11034.0 123C11034.0 100 11015.0 90 10977.0 90C10921.0 90 10868.0 111 10822.0 138L10772.0 34C10833.0 0 10906.0 -15 10970.0 -15Z" />
    <path d="M11493.0 462H11398.0V647H11275.0V462H11190.0V359H11275.0V136C11275.0 43 11327.0 -1 11414.0 -1H11468.0V113H11447.0C11411.0 113 11398.0 128 11398.0 165V359H11493.0Z" />
    <path d="M11554.0 322V208H11826.0V322Z" />
    <path d="M12117.0 -15C12192.0 -15 12242.0 17 12271.0 65H12273.0V0H12395.0V700H12273.0V397H12271.0C12242.0 445 12192.0 477 12117.0 477C11996.0 477 11895.0 389 11895.0 231C11895.0 73 11996.0 -15 12117.0 -15ZM12148.0 101C12074.0 101 12023.0 153 12023.0 231C12023.0 309 12074.0 361 12148.0 361C12222.0 361 12273.0 309 12273.0 231C12273.0 153 12222.0 101 12148.0 101Z" />
    <path d="M12782.0 476C12706.0 476 12653.0 436 12629.0 364H12627.0V462H12506.0V0H12628.0V189C12628.0 302 12675.0 344 12773.0 344H12787.0V476Z" />
    <path d="M12845.0 694V559H12985.0V694ZM12976.0 0V462H12853.0V0Z" />
    <path d="M13286.0 142 13177.0 462H13038.0L13226.0 0H13346.0L13535.0 462H13395.0Z" />
    <path d="M13806.0 477C13661.0 477 13566.0 377 13566.0 230C13566.0 83 13664.0 -15 13815.0 -15C13912.0 -15 13974.0 30 14015.0 68L13953.0 157C13927.0 131 13881.0 94 13815.0 94C13744.0 94 13692.0 135 13685.0 206H14030.0V230C14030.0 388 13946.0 477 13806.0 477ZM13800.0 378C13860.0 378 13902.0 344 13906.0 285H13688.0C13698.0 349 13741.0 378 13800.0 378Z" />
    <path d="M14382.0 477C14314.0 477 14262.0 445 14231.0 392H14229.0V462H14108.0V0H14230.0V226C14230.0 326 14275.0 363 14338.0 363C14398.0 363 14433.0 331 14433.0 256V0H14556.0V285C14556.0 421 14482.0 477 14382.0 477Z" />
    <path d="M15130.0 -15C15205.0 -15 15255.0 17 15284.0 65H15286.0V0H15408.0V700H15286.0V397H15284.0C15255.0 445 15205.0 477 15130.0 477C15009.0 477 14908.0 389 14908.0 231C14908.0 73 15009.0 -15 15130.0 -15ZM15161.0 101C15087.0 101 15036.0 153 15036.0 231C15036.0 309 15087.0 361 15161.0 361C15235.0 361 15286.0 309 15286.0 231C15286.0 153 15235.0 101 15161.0 101Z" />
    <path d="M15731.0 477C15586.0 477 15491.0 377 15491.0 230C15491.0 83 15589.0 -15 15740.0 -15C15837.0 -15 15899.0 30 15940.0 68L15878.0 157C15852.0 131 15806.0 94 15740.0 94C15669.0 94 15617.0 135 15610.0 206H15955.0V230C15955.0 388 15871.0 477 15731.0 477ZM15725.0 378C15785.0 378 15827.0 344 15831.0 285H15613.0C15623.0 349 15666.0 378 15725.0 378Z" />
    <path d="M16232.0 142 16123.0 462H15984.0L16172.0 0H16292.0L16481.0 462H16341.0Z" />
    <path d="M16752.0 477C16607.0 477 16512.0 377 16512.0 230C16512.0 83 16610.0 -15 16761.0 -15C16858.0 -15 16920.0 30 16961.0 68L16899.0 157C16873.0 131 16827.0 94 16761.0 94C16690.0 94 16638.0 135 16631.0 206H16976.0V230C16976.0 388 16892.0 477 16752.0 477ZM16746.0 378C16806.0 378 16848.0 344 16852.0 285H16634.0C16644.0 349 16687.0 378 16746.0 378Z" />
    <path d="M17056.0 700V0H17179.0V700Z" />
    <path d="M17518.0 477C17371.0 477 17262.0 376 17262.0 231C17262.0 86 17371.0 -15 17518.0 -15C17665.0 -15 17774.0 86 17774.0 231C17774.0 376 17665.0 477 17518.0 477ZM17518.0 361C17593.0 361 17647.0 310 17647.0 231C17647.0 152 17593.0 101 17518.0 101C17443.0 101 17388.0 152 17388.0 231C17388.0 310 17443.0 361 17518.0 361Z" />
    <path d="M17975.0 -200V65H17977.0C18006.0 17 18056.0 -15 18131.0 -15C18252.0 -15 18353.0 73 18353.0 231C18353.0 389 18252.0 477 18131.0 477C18056.0 477 18006.0 445 17977.0 397H17975.0V462H17853.0V-200ZM18100.0 101C18026.0 101 17975.0 153 17975.0 231C17975.0 309 18026.0 361 18100.0 361C18174.0 361 18225.0 309 18225.0 231C18225.0 153 18174.0 101 18100.0 101Z" />
    <path d="M18645.0 477C18500.0 477 18405.0 377 18405.0 230C18405.0 83 18503.0 -15 18654.0 -15C18751.0 -15 18813.0 30 18854.0 68L18792.0 157C18766.0 131 18720.0 94 18654.0 94C18583.0 94 18531.0 135 18524.0 206H18869.0V230C18869.0 388 18785.0 477 18645.0 477ZM18639.0 378C18699.0 378 18741.0 344 18745.0 285H18527.0C18537.0 349 18580.0 378 18639.0 378Z" />
    <path d="M19223.0 476C19147.0 476 19094.0 436 19070.0 364H19068.0V462H18947.0V0H19069.0V189C19069.0 302 19116.0 344 19214.0 344H19228.0V476Z" />
  </g>
</svg>
