<svg xmlns="http://www.w3.org/2000/svg" width="820" height="44" viewBox="0 0 820 44" role="img" aria-labelledby="title">
  <title id="title">Build from real problems. Agent   Code   Data Make ideas tangible, testable, and reusable.</title>
  <desc>GT Eesti Text Light Italic typing intro.</desc>
  <defs>
    <style>
    svg { color: #000000; }
    @media (prefers-color-scheme: dark) {
      svg { color: #EDEDED; }
    }
    .clip-rect {
      animation-duration: 9s;
      animation-timing-function: steps(24, end);
      animation-iteration-count: infinite;
    }
    .clip-rect-0 { animation-name: type0; }
    .clip-rect-1 { animation-name: type1; }
    .clip-rect-2 { animation-name: type2; }
    .line-wrap {
      opacity: 0;
      animation-duration: 9s;
      animation-timing-function: linear;
      animation-iteration-count: infinite;
    }
    .line-wrap-0 { animation-name: show0; }
    .line-wrap-1 { animation-name: show1; }
    .line-wrap-2 { animation-name: show2; }
    @keyframes show0 {
      0%, 32.5%, 100% { opacity: 0; }
      1%, 30% { opacity: 0.5; }
    }
    @keyframes show1 {
      0%, 33%, 65.5%, 100% { opacity: 0; }
      34%, 63% { opacity: 0.5; }
    }
    @keyframes show2 {
      0%, 66%, 98.5%, 100% { opacity: 0; }
      67%, 96% { opacity: 0.5; }
    }
    @keyframes type0 {
      0% { width: 0; }
      15% { width: 309.0px; }
      30% { width: 309.0px; }
      32.5%, 100% { width: 0; }
    }
    @keyframes type1 {
      0%, 33% { width: 0; }
      48% { width: 250.8px; }
      63% { width: 250.8px; }
      65.5%, 100% { width: 0; }
    }
    @keyframes type2 {
      0%, 66% { width: 0; }
      81% { width: 536.0px; }
      96% { width: 536.0px; }
      98.5%, 100% { width: 0; }
    }
    </style>
    <clipPath id="clip0">
      <rect class="clip-rect clip-rect-0" x="255.50" y="0" width="0" height="44" />
    </clipPath>
    <clipPath id="clip1">
      <rect class="clip-rect clip-rect-1" x="284.62" y="0" width="0" height="44" />
    </clipPath>
    <clipPath id="clip2">
      <rect class="clip-rect clip-rect-2" x="141.98" y="0" width="0" height="44" />
    </clipPath>
  </defs>
  <g class="line-wrap line-wrap-0" clip-path="url(#clip0)">
    <g fill="currentColor" transform="translate(255.50 29.92) scale(0.028000 -0.028000)">
      <path d="M305.0 0C465.0 0 567.0 81 567.0 209C567.0 286 530.0 339 465.0 356C441.0 362 428.0 364 403.0 364L404.0 368C425.0 369 446.0 374 468.0 381C545.0 408 587.0 468 587.0 545C587.0 640 517.0 700 407.0 700H170.0L34.0 0ZM186.0 398C190.0 405 193.0 415 194.0 423L229.0 604C231.0 618 232.0 625 231.0 629L233.0 630C239.0 628 246.0 627 258.0 627H376.0C460.0 627 504.0 593 504.0 527C504.0 448 443.0 400 343.0 400H214.0C199.0 400 194.0 399 188.0 397ZM123.0 71C126.0 76 129.0 87 131.0 96L171.0 306C174.0 319 174.0 326 173.0 331L176.0 332C181.0 330 185.0 329 200.0 329H332.0C432.0 329 485.0 288 485.0 210C485.0 123 420.0 73 306.0 73H150.0C135.0 73 130.0 72 124.0 70Z" />
      <path d="M1061.0 462 1020.0 248C996.0 123 934.0 54 847.0 54C781.0 54 746.0 92 748.0 159C748.0 176 750.0 191 754.0 210L804.0 462H730.0L680.0 207C675.0 183 672.0 159 672.0 139C670.0 42 725.0 -15 820.0 -15C900.0 -15 955.0 26 1000.0 119L1004.0 117C993.0 92 982.0 53 971.0 0H1043.0L1133.0 462Z" />
      <path d="M1363.0 569 1389.0 700H1307.0L1281.0 569ZM1267.0 462 1177.0 0H1250.0L1340.0 462Z" />
      <path d="M1463.0 0 1602.0 715H1529.0L1390.0 0Z" />
      <path d="M1820.0 -15C1905.0 -15 1976.0 29 2012.0 104L2014.0 103C2006.0 79 1998.0 50 1988.0 0H2059.0L2198.0 715H2126.0L2076.0 462C2065.0 402 2061.0 374 2061.0 346L2058.0 345C2036.0 430 1970.0 477 1872.0 477C1723.0 477 1614.0 361 1614.0 205C1614.0 74 1697.0 -15 1820.0 -15ZM1841.0 54C1748.0 54 1690.0 112 1690.0 205C1690.0 325 1770.0 408 1884.0 408C1981.0 408 2040.0 352 2040.0 259C2040.0 142 1954.0 54 1841.0 54Z" />
      <path d="M2847.0 709C2745.0 709 2682.0 652 2661.0 541L2651.0 486C2649.0 475 2648.0 464 2650.0 457L2648.0 456C2641.0 461 2632.0 462 2613.0 462H2554.0L2541.0 394H2600.0C2619.0 394 2628.0 395 2637.0 400L2638.0 399C2634.0 388 2629.0 373 2626.0 357L2557.0 0H2630.0L2699.0 357C2701.0 367 2704.0 386 2702.0 399L2705.0 400C2711.0 395 2720.0 394 2739.0 394H2811.0L2824.0 462H2752.0C2732.0 462 2723.0 460 2715.0 456L2714.0 457C2719.0 466 2721.0 477 2724.0 487L2732.0 529C2747.0 606 2785.0 641 2852.0 641H2860.0L2873.0 709Z" />
      <path d="M2907.0 0 2944.0 191C2968.0 319 3035.0 395 3124.0 395C3137.0 395 3145.0 394 3163.0 392L3179.0 475C3169.0 476 3162.0 476 3152.0 476C3060.0 476 3004.0 431 2964.0 321L2959.0 322C2972.0 357 2988.0 418 2997.0 462H2924.0L2834.0 0Z" />
      <path d="M3407.0 -15C3565.0 -15 3684.0 103 3684.0 260C3684.0 393 3597.0 477 3457.0 477C3299.0 477 3181.0 359 3181.0 202C3181.0 69 3268.0 -15 3407.0 -15ZM3414.0 56C3316.0 56 3256.0 113 3256.0 204C3256.0 319 3340.0 406 3451.0 406C3549.0 406 3609.0 349 3609.0 258C3609.0 143 3525.0 56 3414.0 56Z" />
      <path d="M3815.0 0 3859.0 227C3882.0 346 3935.0 408 4015.0 408C4073.0 408 4104.0 375 4104.0 312C4104.0 295 4102.0 277 4098.0 258L4047.0 0H4118.0L4164.0 237C4186.0 351 4237.0 408 4316.0 408C4375.0 408 4407.0 375 4407.0 313C4407.0 301 4406.0 289 4401.0 262L4350.0 0H4423.0L4475.0 261C4480.0 285 4483.0 309 4483.0 333C4483.0 425 4434.0 477 4347.0 477C4270.0 477 4211.0 434 4180.0 354H4176.0C4170.0 433 4125.0 477 4047.0 477C3971.0 477 3916.0 436 3877.0 348L3874.0 350C3885.0 377 3897.0 419 3905.0 462H3832.0L3742.0 0Z" />
      <path d="M4936.0 0 4973.0 191C4997.0 319 5064.0 395 5153.0 395C5166.0 395 5174.0 394 5192.0 392L5208.0 475C5198.0 476 5191.0 476 5181.0 476C5089.0 476 5033.0 431 4993.0 321L4988.0 322C5001.0 357 5017.0 418 5026.0 462H4953.0L4863.0 0Z" />
      <path d="M5433.0 -15C5518.0 -15 5583.0 13 5654.0 80L5609.0 133C5550.0 77 5499.0 54 5434.0 54C5339.0 54 5283.0 106 5283.0 193C5283.0 199 5284.0 207 5284.0 216L5283.0 224L5285.0 225C5294.0 221 5307.0 219 5334.0 219H5679.0C5686.0 250 5688.0 268 5688.0 289C5688.0 405 5610.0 477 5483.0 477C5325.0 477 5210.0 361 5210.0 201C5210.0 65 5294.0 -15 5433.0 -15ZM5292.0 269C5312.0 355 5387.0 413 5478.0 413C5566.0 413 5616.0 367 5616.0 287C5616.0 281 5616.0 275 5617.0 270L5615.0 269C5604.0 274 5594.0 276 5568.0 276H5337.0C5316.0 276 5303.0 274 5293.0 268Z" />
      <path d="M5908.0 -14C5979.0 -14 6034.0 17 6072.0 79L6076.0 77C6063.0 51 6057.0 36 6051.0 0H6123.0L6178.0 283C6182.0 305 6184.0 324 6184.0 339C6184.0 431 6126.0 476 6013.0 476C5967.0 476 5894.0 468 5840.0 456L5854.0 389C5910.0 402 5968.0 410 6006.0 410C6079.0 410 6114.0 382 6114.0 326C6114.0 312 6112.0 299 6106.0 268C6101.0 238 6100.0 219 6102.0 206L6099.0 205C6075.0 269 6017.0 312 5928.0 312C5812.0 312 5738.0 244 5738.0 142C5738.0 49 5807.0 -14 5908.0 -14ZM5930.0 47C5859.0 47 5815.0 84 5815.0 142C5815.0 207 5864.0 249 5941.0 249C6017.0 249 6075.0 208 6075.0 153C6075.0 94 6010.0 47 5930.0 47Z" />
      <path d="M6329.0 0 6468.0 715H6395.0L6256.0 0Z" />
      <path d="M6811.0 -200 6850.0 0C6860.0 50 6865.0 87 6864.0 115L6868.0 116C6891.0 32 6958.0 -15 7056.0 -15C7204.0 -15 7313.0 101 7313.0 257C7313.0 388 7230.0 477 7107.0 477C7024.0 477 6952.0 434 6916.0 361L6913.0 363C6922.0 385 6929.0 408 6940.0 462H6867.0L6738.0 -200ZM7044.0 53C6947.0 53 6887.0 111 6887.0 203C6887.0 320 6974.0 409 7086.0 409C7180.0 409 7238.0 350 7238.0 257C7238.0 140 7155.0 53 7044.0 53Z" />
      <path d="M7445.0 0 7482.0 191C7506.0 319 7573.0 395 7662.0 395C7675.0 395 7683.0 394 7701.0 392L7717.0 475C7707.0 476 7700.0 476 7690.0 476C7598.0 476 7542.0 431 7502.0 321L7497.0 322C7510.0 357 7526.0 418 7535.0 462H7462.0L7372.0 0Z" />
      <path d="M7945.0 -15C8103.0 -15 8222.0 103 8222.0 260C8222.0 393 8135.0 477 7995.0 477C7837.0 477 7719.0 359 7719.0 202C7719.0 69 7806.0 -15 7945.0 -15ZM7952.0 56C7854.0 56 7794.0 113 7794.0 204C7794.0 319 7878.0 406 7989.0 406C8087.0 406 8147.0 349 8147.0 258C8147.0 143 8063.0 56 7952.0 56Z" />
      <path d="M8558.0 -15C8707.0 -15 8817.0 101 8817.0 257C8817.0 388 8734.0 477 8612.0 477C8528.0 477 8456.0 434 8420.0 361L8417.0 362C8427.0 387 8436.0 418 8446.0 467L8494.0 715H8421.0L8282.0 0H8353.0C8365.0 55 8369.0 85 8369.0 115L8372.0 116C8396.0 31 8461.0 -15 8558.0 -15ZM8546.0 54C8450.0 54 8392.0 111 8392.0 203C8392.0 320 8478.0 408 8590.0 408C8684.0 408 8741.0 350 8741.0 257C8741.0 140 8658.0 54 8546.0 54Z" />
      <path d="M8951.0 0 9090.0 715H9017.0L8878.0 0Z" />
      <path d="M9324.0 -15C9409.0 -15 9474.0 13 9545.0 80L9500.0 133C9441.0 77 9390.0 54 9325.0 54C9230.0 54 9174.0 106 9174.0 193C9174.0 199 9175.0 207 9175.0 216L9174.0 224L9176.0 225C9185.0 221 9198.0 219 9225.0 219H9570.0C9577.0 250 9579.0 268 9579.0 289C9579.0 405 9501.0 477 9374.0 477C9216.0 477 9101.0 361 9101.0 201C9101.0 65 9185.0 -15 9324.0 -15ZM9183.0 269C9203.0 355 9278.0 413 9369.0 413C9457.0 413 9507.0 367 9507.0 287C9507.0 281 9507.0 275 9508.0 270L9506.0 269C9495.0 274 9485.0 276 9459.0 276H9228.0C9207.0 276 9194.0 274 9184.0 268Z" />
      <path d="M9706.0 0 9750.0 227C9773.0 346 9826.0 408 9906.0 408C9964.0 408 9995.0 375 9995.0 312C9995.0 295 9993.0 277 9989.0 258L9938.0 0H10009.0L10055.0 237C10077.0 351 10128.0 408 10207.0 408C10266.0 408 10298.0 375 10298.0 313C10298.0 301 10297.0 289 10292.0 262L10241.0 0H10314.0L10366.0 261C10371.0 285 10374.0 309 10374.0 333C10374.0 425 10325.0 477 10238.0 477C10161.0 477 10102.0 434 10071.0 354H10067.0C10061.0 433 10016.0 477 9938.0 477C9862.0 477 9807.0 436 9768.0 348L9765.0 350C9776.0 377 9788.0 419 9796.0 462H9723.0L9633.0 0Z" />
      <path d="M10412.0 64C10468.0 11 10535.0 -15 10610.0 -15C10710.0 -15 10766.0 31 10766.0 113C10766.0 164 10744.0 200 10687.0 240L10632.0 278C10588.0 309 10576.0 324 10576.0 351C10576.0 387 10603.0 409 10648.0 409C10683.0 409 10722.0 394 10766.0 365L10804.0 425C10752.0 460 10699.0 477 10644.0 477C10556.0 477 10501.0 429 10501.0 353C10501.0 304 10526.0 265 10582.0 226L10642.0 184C10678.0 158 10691.0 139 10691.0 114C10691.0 76 10661.0 53 10610.0 53C10557.0 53 10508.0 75 10456.0 121Z" />
      <path d="M10934.0 0 10954.0 105H10855.0L10834.0 0Z" />
    </g>
  </g>
  <g class="line-wrap line-wrap-1" clip-path="url(#clip1)">
    <g fill="currentColor" transform="translate(284.62 29.92) scale(0.028000 -0.028000)">
      <path d="M61.0 0 191.0 207H490.0L542.0 0H622.0L437.0 715H429.0L-33.0 0ZM226.0 272C236.0 283 248.0 298 268.0 330L369.0 496C390.0 530 404.0 559 410.0 579H414.0C412.0 560 416.0 531 423.0 496L460.0 330C467.0 298 473.0 283 479.0 272V271C467.0 272 449.0 273 422.0 273H282.0C257.0 273 238.0 272 226.0 271Z" />
      <path d="M901.0 -215C1049.0 -215 1131.0 -146 1159.0 1L1249.0 462H1177.0C1165.0 406 1161.0 378 1162.0 347L1159.0 346C1136.0 431 1070.0 477 973.0 477C824.0 477 714.0 361 714.0 205C714.0 74 797.0 -15 919.0 -15C1005.0 -15 1076.0 29 1112.0 104L1115.0 103C1103.0 74 1101.0 65 1088.0 5C1066.0 -99 1009.0 -145 904.0 -145C837.0 -145 783.0 -126 722.0 -83L675.0 -144C735.0 -191 813.0 -215 901.0 -215ZM941.0 54C849.0 54 790.0 113 790.0 205C790.0 322 873.0 408 985.0 408C1081.0 408 1140.0 352 1140.0 258C1140.0 142 1054.0 54 941.0 54Z" />
      <path d="M1525.0 -15C1610.0 -15 1675.0 13 1746.0 80L1701.0 133C1642.0 77 1591.0 54 1526.0 54C1431.0 54 1375.0 106 1375.0 193C1375.0 199 1376.0 207 1376.0 216L1375.0 224L1377.0 225C1386.0 221 1399.0 219 1426.0 219H1771.0C1778.0 250 1780.0 268 1780.0 289C1780.0 405 1702.0 477 1575.0 477C1417.0 477 1302.0 361 1302.0 201C1302.0 65 1386.0 -15 1525.0 -15ZM1384.0 269C1404.0 355 1479.0 413 1570.0 413C1658.0 413 1708.0 367 1708.0 287C1708.0 281 1708.0 275 1709.0 270L1707.0 269C1696.0 274 1686.0 276 1660.0 276H1429.0C1408.0 276 1395.0 274 1385.0 268Z" />
      <path d="M1907.0 0 1948.0 214C1973.0 342 2035.0 410 2128.0 410C2196.0 410 2233.0 372 2233.0 304C2233.0 284 2231.0 267 2227.0 250L2178.0 0H2251.0L2300.0 248C2307.0 282 2309.0 304 2309.0 325C2309.0 424 2257.0 477 2160.0 477C2071.0 477 2010.0 433 1967.0 336L1963.0 337C1976.0 366 1987.0 405 1993.0 443L1997.0 462H1924.0L1834.0 0Z" />
      <path d="M2635.0 709 2557.0 656 2527.0 499C2524.0 484 2522.0 471 2523.0 457L2521.0 456C2514.0 461 2505.0 462 2486.0 462H2430.0L2417.0 394H2473.0C2492.0 394 2501.0 395 2510.0 400L2512.0 399C2505.0 386 2503.0 373 2500.0 357L2430.0 0H2503.0L2572.0 357C2575.0 373 2577.0 386 2576.0 399L2578.0 400C2585.0 395 2593.0 394 2612.0 394H2671.0L2684.0 462H2625.0C2607.0 462 2598.0 461 2589.0 456L2587.0 457C2594.0 471 2596.0 484 2599.0 499L2641.0 709Z" />
      <path d="M3978.0 -15C4068.0 -15 4145.0 9 4224.0 61L4182.0 126C4112.0 82 4053.0 63 3986.0 63C3831.0 63 3737.0 156 3737.0 311C3737.0 497 3876.0 637 4062.0 637C4133.0 637 4200.0 614 4261.0 570L4309.0 635C4242.0 689 4162.0 715 4071.0 715C3828.0 715 3653.0 544 3653.0 307C3653.0 110 3780.0 -15 3978.0 -15Z" />
      <path d="M4550.0 -15C4708.0 -15 4827.0 103 4827.0 260C4827.0 393 4740.0 477 4600.0 477C4442.0 477 4324.0 359 4324.0 202C4324.0 69 4411.0 -15 4550.0 -15ZM4557.0 56C4459.0 56 4399.0 113 4399.0 204C4399.0 319 4483.0 406 4594.0 406C4692.0 406 4752.0 349 4752.0 258C4752.0 143 4668.0 56 4557.0 56Z" />
      <path d="M5102.0 -15C5187.0 -15 5258.0 29 5294.0 104L5296.0 103C5288.0 79 5280.0 50 5270.0 0H5341.0L5480.0 715H5408.0L5358.0 462C5347.0 402 5343.0 374 5343.0 346L5340.0 345C5318.0 430 5252.0 477 5154.0 477C5005.0 477 4896.0 361 4896.0 205C4896.0 74 4979.0 -15 5102.0 -15ZM5123.0 54C5030.0 54 4972.0 112 4972.0 205C4972.0 325 5052.0 408 5166.0 408C5263.0 408 5322.0 352 5322.0 259C5322.0 142 5236.0 54 5123.0 54Z" />
      <path d="M5715.0 -15C5800.0 -15 5865.0 13 5936.0 80L5891.0 133C5832.0 77 5781.0 54 5716.0 54C5621.0 54 5565.0 106 5565.0 193C5565.0 199 5566.0 207 5566.0 216L5565.0 224L5567.0 225C5576.0 221 5589.0 219 5616.0 219H5961.0C5968.0 250 5970.0 268 5970.0 289C5970.0 405 5892.0 477 5765.0 477C5607.0 477 5492.0 361 5492.0 201C5492.0 65 5576.0 -15 5715.0 -15ZM5574.0 269C5594.0 355 5669.0 413 5760.0 413C5848.0 413 5898.0 367 5898.0 287C5898.0 281 5898.0 275 5899.0 270L5897.0 269C5886.0 274 5876.0 276 5850.0 276H5619.0C5598.0 276 5585.0 274 5575.0 268Z" />
      <path d="M7173.0 0C7434.0 0 7608.0 158 7608.0 397C7608.0 582 7490.0 700 7304.0 700H7094.0L6958.0 0ZM7047.0 71C7050.0 77 7052.0 84 7055.0 96L7153.0 604C7155.0 616 7156.0 623 7155.0 629L7157.0 630C7163.0 628 7170.0 627 7182.0 627H7297.0C7438.0 627 7525.0 540 7525.0 396C7525.0 207 7386.0 73 7190.0 73H7074.0C7058.0 73 7054.0 72 7048.0 70Z" />
      <path d="M7813.0 -14C7884.0 -14 7939.0 17 7977.0 79L7981.0 77C7968.0 51 7962.0 36 7956.0 0H8028.0L8083.0 283C8087.0 305 8089.0 324 8089.0 339C8089.0 431 8031.0 476 7918.0 476C7872.0 476 7799.0 468 7745.0 456L7759.0 389C7815.0 402 7873.0 410 7911.0 410C7984.0 410 8019.0 382 8019.0 326C8019.0 312 8017.0 299 8011.0 268C8006.0 238 8005.0 219 8007.0 206L8004.0 205C7980.0 269 7922.0 312 7833.0 312C7717.0 312 7643.0 244 7643.0 142C7643.0 49 7712.0 -14 7813.0 -14ZM7835.0 47C7764.0 47 7720.0 84 7720.0 142C7720.0 207 7769.0 249 7846.0 249C7922.0 249 7980.0 208 7980.0 153C7980.0 94 7915.0 47 7835.0 47Z" />
      <path d="M8412.0 709 8334.0 656 8304.0 499C8301.0 484 8299.0 471 8300.0 457L8298.0 456C8291.0 461 8282.0 462 8263.0 462H8207.0L8194.0 394H8250.0C8269.0 394 8278.0 395 8287.0 400L8289.0 399C8282.0 386 8280.0 373 8277.0 357L8207.0 0H8280.0L8349.0 357C8352.0 373 8354.0 386 8353.0 399L8355.0 400C8362.0 395 8370.0 394 8389.0 394H8448.0L8461.0 462H8402.0C8384.0 462 8375.0 461 8366.0 456L8364.0 457C8371.0 471 8373.0 484 8376.0 499L8418.0 709Z" />
      <path d="M8634.0 -14C8705.0 -14 8760.0 17 8798.0 79L8802.0 77C8789.0 51 8783.0 36 8777.0 0H8849.0L8904.0 283C8908.0 305 8910.0 324 8910.0 339C8910.0 431 8852.0 476 8739.0 476C8693.0 476 8620.0 468 8566.0 456L8580.0 389C8636.0 402 8694.0 410 8732.0 410C8805.0 410 8840.0 382 8840.0 326C8840.0 312 8838.0 299 8832.0 268C8827.0 238 8826.0 219 8828.0 206L8825.0 205C8801.0 269 8743.0 312 8654.0 312C8538.0 312 8464.0 244 8464.0 142C8464.0 49 8533.0 -14 8634.0 -14ZM8656.0 47C8585.0 47 8541.0 84 8541.0 142C8541.0 207 8590.0 249 8667.0 249C8743.0 249 8801.0 208 8801.0 153C8801.0 94 8736.0 47 8656.0 47Z" />
    </g>
  </g>
  <g class="line-wrap line-wrap-2" clip-path="url(#clip2)">
    <g fill="currentColor" transform="translate(141.98 29.92) scale(0.028000 -0.028000)">
      <path d="M396.0 -10 647.0 413C681.0 471 689.0 496 701.0 525H704.0C699.0 497 696.0 460 701.0 412L738.0 0H813.0L746.0 712H736.0L456.0 231C440.0 202 428.0 176 418.0 143H414.0C415.0 176 415.0 201 409.0 231L314.0 712H304.0L-33.0 0H54.0L247.0 412C269.0 458 280.0 499 286.0 525H289.0C289.0 496 288.0 471 300.0 413L387.0 -10Z" />
      <path d="M1060.0 -14C1131.0 -14 1186.0 17 1224.0 79L1228.0 77C1215.0 51 1209.0 36 1203.0 0H1275.0L1330.0 283C1334.0 305 1336.0 324 1336.0 339C1336.0 431 1278.0 476 1165.0 476C1119.0 476 1046.0 468 992.0 456L1006.0 389C1062.0 402 1120.0 410 1158.0 410C1231.0 410 1266.0 382 1266.0 326C1266.0 312 1264.0 299 1258.0 268C1253.0 238 1252.0 219 1254.0 206L1251.0 205C1227.0 269 1169.0 312 1080.0 312C964.0 312 890.0 244 890.0 142C890.0 49 959.0 -14 1060.0 -14ZM1082.0 47C1011.0 47 967.0 84 967.0 142C967.0 207 1016.0 249 1093.0 249C1169.0 249 1227.0 208 1227.0 153C1227.0 94 1162.0 47 1082.0 47Z" />
      <path d="M1547.0 715 1408.0 0H1481.0L1507.0 136C1516.0 184 1520.0 212 1519.0 237L1522.0 239L1701.0 0H1793.0L1634.0 204C1614.0 229 1603.0 237 1594.0 242V244C1605.0 250 1618.0 257 1650.0 284L1858.0 462H1755.0L1526.0 258L1523.0 259C1534.0 285 1542.0 315 1551.0 361L1620.0 715Z" />
      <path d="M2099.0 -15C2184.0 -15 2249.0 13 2320.0 80L2275.0 133C2216.0 77 2165.0 54 2100.0 54C2005.0 54 1949.0 106 1949.0 193C1949.0 199 1950.0 207 1950.0 216L1949.0 224L1951.0 225C1960.0 221 1973.0 219 2000.0 219H2345.0C2352.0 250 2354.0 268 2354.0 289C2354.0 405 2276.0 477 2149.0 477C1991.0 477 1876.0 361 1876.0 201C1876.0 65 1960.0 -15 2099.0 -15ZM1958.0 269C1978.0 355 2053.0 413 2144.0 413C2232.0 413 2282.0 367 2282.0 287C2282.0 281 2282.0 275 2283.0 270L2281.0 269C2270.0 274 2260.0 276 2234.0 276H2003.0C1982.0 276 1969.0 274 1959.0 268Z" />
      <path d="M2902.0 569 2928.0 700H2846.0L2820.0 569ZM2806.0 462 2716.0 0H2789.0L2879.0 462Z" />
      <path d="M3144.0 -15C3229.0 -15 3300.0 29 3336.0 104L3338.0 103C3330.0 79 3322.0 50 3312.0 0H3383.0L3522.0 715H3450.0L3400.0 462C3389.0 402 3385.0 374 3385.0 346L3382.0 345C3360.0 430 3294.0 477 3196.0 477C3047.0 477 2938.0 361 2938.0 205C2938.0 74 3021.0 -15 3144.0 -15ZM3165.0 54C3072.0 54 3014.0 112 3014.0 205C3014.0 325 3094.0 408 3208.0 408C3305.0 408 3364.0 352 3364.0 259C3364.0 142 3278.0 54 3165.0 54Z" />
      <path d="M3757.0 -15C3842.0 -15 3907.0 13 3978.0 80L3933.0 133C3874.0 77 3823.0 54 3758.0 54C3663.0 54 3607.0 106 3607.0 193C3607.0 199 3608.0 207 3608.0 216L3607.0 224L3609.0 225C3618.0 221 3631.0 219 3658.0 219H4003.0C4010.0 250 4012.0 268 4012.0 289C4012.0 405 3934.0 477 3807.0 477C3649.0 477 3534.0 361 3534.0 201C3534.0 65 3618.0 -15 3757.0 -15ZM3616.0 269C3636.0 355 3711.0 413 3802.0 413C3890.0 413 3940.0 367 3940.0 287C3940.0 281 3940.0 275 3941.0 270L3939.0 269C3928.0 274 3918.0 276 3892.0 276H3661.0C3640.0 276 3627.0 274 3617.0 268Z" />
      <path d="M4232.0 -14C4303.0 -14 4358.0 17 4396.0 79L4400.0 77C4387.0 51 4381.0 36 4375.0 0H4447.0L4502.0 283C4506.0 305 4508.0 324 4508.0 339C4508.0 431 4450.0 476 4337.0 476C4291.0 476 4218.0 468 4164.0 456L4178.0 389C4234.0 402 4292.0 410 4330.0 410C4403.0 410 4438.0 382 4438.0 326C4438.0 312 4436.0 299 4430.0 268C4425.0 238 4424.0 219 4426.0 206L4423.0 205C4399.0 269 4341.0 312 4252.0 312C4136.0 312 4062.0 244 4062.0 142C4062.0 49 4131.0 -14 4232.0 -14ZM4254.0 47C4183.0 47 4139.0 84 4139.0 142C4139.0 207 4188.0 249 4265.0 249C4341.0 249 4399.0 208 4399.0 153C4399.0 94 4334.0 47 4254.0 47Z" />
      <path d="M4544.0 64C4600.0 11 4667.0 -15 4742.0 -15C4842.0 -15 4898.0 31 4898.0 113C4898.0 164 4876.0 200 4819.0 240L4764.0 278C4720.0 309 4708.0 324 4708.0 351C4708.0 387 4735.0 409 4780.0 409C4815.0 409 4854.0 394 4898.0 365L4936.0 425C4884.0 460 4831.0 477 4776.0 477C4688.0 477 4633.0 429 4633.0 353C4633.0 304 4658.0 265 4714.0 226L4774.0 184C4810.0 158 4823.0 139 4823.0 114C4823.0 76 4793.0 53 4742.0 53C4689.0 53 4640.0 75 4588.0 121Z" />
      <path d="M5539.0 709 5461.0 656 5431.0 499C5428.0 484 5426.0 471 5427.0 457L5425.0 456C5418.0 461 5409.0 462 5390.0 462H5334.0L5321.0 394H5377.0C5396.0 394 5405.0 395 5414.0 400L5416.0 399C5409.0 386 5407.0 373 5404.0 357L5334.0 0H5407.0L5476.0 357C5479.0 373 5481.0 386 5480.0 399L5482.0 400C5489.0 395 5497.0 394 5516.0 394H5575.0L5588.0 462H5529.0C5511.0 462 5502.0 461 5493.0 456L5491.0 457C5498.0 471 5500.0 484 5503.0 499L5545.0 709Z" />
      <path d="M5761.0 -14C5832.0 -14 5887.0 17 5925.0 79L5929.0 77C5916.0 51 5910.0 36 5904.0 0H5976.0L6031.0 283C6035.0 305 6037.0 324 6037.0 339C6037.0 431 5979.0 476 5866.0 476C5820.0 476 5747.0 468 5693.0 456L5707.0 389C5763.0 402 5821.0 410 5859.0 410C5932.0 410 5967.0 382 5967.0 326C5967.0 312 5965.0 299 5959.0 268C5954.0 238 5953.0 219 5955.0 206L5952.0 205C5928.0 269 5870.0 312 5781.0 312C5665.0 312 5591.0 244 5591.0 142C5591.0 49 5660.0 -14 5761.0 -14ZM5783.0 47C5712.0 47 5668.0 84 5668.0 142C5668.0 207 5717.0 249 5794.0 249C5870.0 249 5928.0 208 5928.0 153C5928.0 94 5863.0 47 5783.0 47Z" />
      <path d="M6180.0 0 6221.0 214C6246.0 342 6308.0 410 6401.0 410C6469.0 410 6506.0 372 6506.0 304C6506.0 284 6504.0 267 6500.0 250L6451.0 0H6524.0L6573.0 248C6580.0 282 6582.0 304 6582.0 325C6582.0 424 6530.0 477 6433.0 477C6344.0 477 6283.0 433 6240.0 336L6236.0 337C6249.0 366 6260.0 405 6266.0 443L6270.0 462H6197.0L6107.0 0Z" />
      <path d="M6853.0 -215C7001.0 -215 7083.0 -146 7111.0 1L7201.0 462H7129.0C7117.0 406 7113.0 378 7114.0 347L7111.0 346C7088.0 431 7022.0 477 6925.0 477C6776.0 477 6666.0 361 6666.0 205C6666.0 74 6749.0 -15 6871.0 -15C6957.0 -15 7028.0 29 7064.0 104L7067.0 103C7055.0 74 7053.0 65 7040.0 5C7018.0 -99 6961.0 -145 6856.0 -145C6789.0 -145 6735.0 -126 6674.0 -83L6627.0 -144C6687.0 -191 6765.0 -215 6853.0 -215ZM6893.0 54C6801.0 54 6742.0 113 6742.0 205C6742.0 322 6825.0 408 6937.0 408C7033.0 408 7092.0 352 7092.0 258C7092.0 142 7006.0 54 6893.0 54Z" />
      <path d="M7430.0 569 7456.0 700H7374.0L7348.0 569ZM7334.0 462 7244.0 0H7317.0L7407.0 462Z" />
      <path d="M7733.0 -15C7882.0 -15 7992.0 101 7992.0 257C7992.0 388 7909.0 477 7787.0 477C7703.0 477 7631.0 434 7595.0 361L7592.0 362C7602.0 387 7611.0 418 7621.0 467L7669.0 715H7596.0L7457.0 0H7528.0C7540.0 55 7544.0 85 7544.0 115L7547.0 116C7571.0 31 7636.0 -15 7733.0 -15ZM7721.0 54C7625.0 54 7567.0 111 7567.0 203C7567.0 320 7653.0 408 7765.0 408C7859.0 408 7916.0 350 7916.0 257C7916.0 140 7833.0 54 7721.0 54Z" />
      <path d="M8126.0 0 8265.0 715H8192.0L8053.0 0Z" />
      <path d="M8499.0 -15C8584.0 -15 8649.0 13 8720.0 80L8675.0 133C8616.0 77 8565.0 54 8500.0 54C8405.0 54 8349.0 106 8349.0 193C8349.0 199 8350.0 207 8350.0 216L8349.0 224L8351.0 225C8360.0 221 8373.0 219 8400.0 219H8745.0C8752.0 250 8754.0 268 8754.0 289C8754.0 405 8676.0 477 8549.0 477C8391.0 477 8276.0 361 8276.0 201C8276.0 65 8360.0 -15 8499.0 -15ZM8358.0 269C8378.0 355 8453.0 413 8544.0 413C8632.0 413 8682.0 367 8682.0 287C8682.0 281 8682.0 275 8683.0 270L8681.0 269C8670.0 274 8660.0 276 8634.0 276H8403.0C8382.0 276 8369.0 274 8359.0 268Z" />
      <path d="M8800.0 -167 8938.0 96H8848.0L8758.0 -167Z" />
      <path d="M9604.0 709 9526.0 656 9496.0 499C9493.0 484 9491.0 471 9492.0 457L9490.0 456C9483.0 461 9474.0 462 9455.0 462H9399.0L9386.0 394H9442.0C9461.0 394 9470.0 395 9479.0 400L9481.0 399C9474.0 386 9472.0 373 9469.0 357L9399.0 0H9472.0L9541.0 357C9544.0 373 9546.0 386 9545.0 399L9547.0 400C9554.0 395 9562.0 394 9581.0 394H9640.0L9653.0 462H9594.0C9576.0 462 9567.0 461 9558.0 456L9556.0 457C9563.0 471 9565.0 484 9568.0 499L9610.0 709Z" />
      <path d="M9893.0 -15C9978.0 -15 10043.0 13 10114.0 80L10069.0 133C10010.0 77 9959.0 54 9894.0 54C9799.0 54 9743.0 106 9743.0 193C9743.0 199 9744.0 207 9744.0 216L9743.0 224L9745.0 225C9754.0 221 9767.0 219 9794.0 219H10139.0C10146.0 250 10148.0 268 10148.0 289C10148.0 405 10070.0 477 9943.0 477C9785.0 477 9670.0 361 9670.0 201C9670.0 65 9754.0 -15 9893.0 -15ZM9752.0 269C9772.0 355 9847.0 413 9938.0 413C10026.0 413 10076.0 367 10076.0 287C10076.0 281 10076.0 275 10077.0 270L10075.0 269C10064.0 274 10054.0 276 10028.0 276H9797.0C9776.0 276 9763.0 274 9753.0 268Z" />
      <path d="M10168.0 64C10224.0 11 10291.0 -15 10366.0 -15C10466.0 -15 10522.0 31 10522.0 113C10522.0 164 10500.0 200 10443.0 240L10388.0 278C10344.0 309 10332.0 324 10332.0 351C10332.0 387 10359.0 409 10404.0 409C10439.0 409 10478.0 394 10522.0 365L10560.0 425C10508.0 460 10455.0 477 10400.0 477C10312.0 477 10257.0 429 10257.0 353C10257.0 304 10282.0 265 10338.0 226L10398.0 184C10434.0 158 10447.0 139 10447.0 114C10447.0 76 10417.0 53 10366.0 53C10313.0 53 10264.0 75 10212.0 121Z" />
      <path d="M10855.0 709 10777.0 656 10747.0 499C10744.0 484 10742.0 471 10743.0 457L10741.0 456C10734.0 461 10725.0 462 10706.0 462H10650.0L10637.0 394H10693.0C10712.0 394 10721.0 395 10730.0 400L10732.0 399C10725.0 386 10723.0 373 10720.0 357L10650.0 0H10723.0L10792.0 357C10795.0 373 10797.0 386 10796.0 399L10798.0 400C10805.0 395 10813.0 394 10832.0 394H10891.0L10904.0 462H10845.0C10827.0 462 10818.0 461 10809.0 456L10807.0 457C10814.0 471 10816.0 484 10819.0 499L10861.0 709Z" />
      <path d="M11077.0 -14C11148.0 -14 11203.0 17 11241.0 79L11245.0 77C11232.0 51 11226.0 36 11220.0 0H11292.0L11347.0 283C11351.0 305 11353.0 324 11353.0 339C11353.0 431 11295.0 476 11182.0 476C11136.0 476 11063.0 468 11009.0 456L11023.0 389C11079.0 402 11137.0 410 11175.0 410C11248.0 410 11283.0 382 11283.0 326C11283.0 312 11281.0 299 11275.0 268C11270.0 238 11269.0 219 11271.0 206L11268.0 205C11244.0 269 11186.0 312 11097.0 312C10981.0 312 10907.0 244 10907.0 142C10907.0 49 10976.0 -14 11077.0 -14ZM11099.0 47C11028.0 47 10984.0 84 10984.0 142C10984.0 207 11033.0 249 11110.0 249C11186.0 249 11244.0 208 11244.0 153C11244.0 94 11179.0 47 11099.0 47Z" />
      <path d="M11701.0 -15C11850.0 -15 11960.0 101 11960.0 257C11960.0 388 11877.0 477 11755.0 477C11671.0 477 11599.0 434 11563.0 361L11560.0 362C11570.0 387 11579.0 418 11589.0 467L11637.0 715H11564.0L11425.0 0H11496.0C11508.0 55 11512.0 85 11512.0 115L11515.0 116C11539.0 31 11604.0 -15 11701.0 -15ZM11689.0 54C11593.0 54 11535.0 111 11535.0 203C11535.0 320 11621.0 408 11733.0 408C11827.0 408 11884.0 350 11884.0 257C11884.0 140 11801.0 54 11689.0 54Z" />
      <path d="M12094.0 0 12233.0 715H12160.0L12021.0 0Z" />
      <path d="M12467.0 -15C12552.0 -15 12617.0 13 12688.0 80L12643.0 133C12584.0 77 12533.0 54 12468.0 54C12373.0 54 12317.0 106 12317.0 193C12317.0 199 12318.0 207 12318.0 216L12317.0 224L12319.0 225C12328.0 221 12341.0 219 12368.0 219H12713.0C12720.0 250 12722.0 268 12722.0 289C12722.0 405 12644.0 477 12517.0 477C12359.0 477 12244.0 361 12244.0 201C12244.0 65 12328.0 -15 12467.0 -15ZM12326.0 269C12346.0 355 12421.0 413 12512.0 413C12600.0 413 12650.0 367 12650.0 287C12650.0 281 12650.0 275 12651.0 270L12649.0 269C12638.0 274 12628.0 276 12602.0 276H12371.0C12350.0 276 12337.0 274 12327.0 268Z" />
      <path d="M12768.0 -167 12906.0 96H12816.0L12726.0 -167Z" />
      <path d="M13485.0 -14C13556.0 -14 13611.0 17 13649.0 79L13653.0 77C13640.0 51 13634.0 36 13628.0 0H13700.0L13755.0 283C13759.0 305 13761.0 324 13761.0 339C13761.0 431 13703.0 476 13590.0 476C13544.0 476 13471.0 468 13417.0 456L13431.0 389C13487.0 402 13545.0 410 13583.0 410C13656.0 410 13691.0 382 13691.0 326C13691.0 312 13689.0 299 13683.0 268C13678.0 238 13677.0 219 13679.0 206L13676.0 205C13652.0 269 13594.0 312 13505.0 312C13389.0 312 13315.0 244 13315.0 142C13315.0 49 13384.0 -14 13485.0 -14ZM13507.0 47C13436.0 47 13392.0 84 13392.0 142C13392.0 207 13441.0 249 13518.0 249C13594.0 249 13652.0 208 13652.0 153C13652.0 94 13587.0 47 13507.0 47Z" />
      <path d="M13904.0 0 13945.0 214C13970.0 342 14032.0 410 14125.0 410C14193.0 410 14230.0 372 14230.0 304C14230.0 284 14228.0 267 14224.0 250L14175.0 0H14248.0L14297.0 248C14304.0 282 14306.0 304 14306.0 325C14306.0 424 14254.0 477 14157.0 477C14068.0 477 14007.0 433 13964.0 336L13960.0 337C13973.0 366 13984.0 405 13990.0 443L13994.0 462H13921.0L13831.0 0Z" />
      <path d="M14596.0 -15C14681.0 -15 14752.0 29 14788.0 104L14790.0 103C14782.0 79 14774.0 50 14764.0 0H14835.0L14974.0 715H14902.0L14852.0 462C14841.0 402 14837.0 374 14837.0 346L14834.0 345C14812.0 430 14746.0 477 14648.0 477C14499.0 477 14390.0 361 14390.0 205C14390.0 74 14473.0 -15 14596.0 -15ZM14617.0 54C14524.0 54 14466.0 112 14466.0 205C14466.0 325 14546.0 408 14660.0 408C14757.0 408 14816.0 352 14816.0 259C14816.0 142 14730.0 54 14617.0 54Z" />
      <path d="M15357.0 0 15394.0 191C15418.0 319 15485.0 395 15574.0 395C15587.0 395 15595.0 394 15613.0 392L15629.0 475C15619.0 476 15612.0 476 15602.0 476C15510.0 476 15454.0 431 15414.0 321L15409.0 322C15422.0 357 15438.0 418 15447.0 462H15374.0L15284.0 0Z" />
      <path d="M15854.0 -15C15939.0 -15 16004.0 13 16075.0 80L16030.0 133C15971.0 77 15920.0 54 15855.0 54C15760.0 54 15704.0 106 15704.0 193C15704.0 199 15705.0 207 15705.0 216L15704.0 224L15706.0 225C15715.0 221 15728.0 219 15755.0 219H16100.0C16107.0 250 16109.0 268 16109.0 289C16109.0 405 16031.0 477 15904.0 477C15746.0 477 15631.0 361 15631.0 201C15631.0 65 15715.0 -15 15854.0 -15ZM15713.0 269C15733.0 355 15808.0 413 15899.0 413C15987.0 413 16037.0 367 16037.0 287C16037.0 281 16037.0 275 16038.0 270L16036.0 269C16025.0 274 16015.0 276 15989.0 276H15758.0C15737.0 276 15724.0 274 15714.0 268Z" />
      <path d="M16573.0 462 16532.0 248C16508.0 123 16446.0 54 16359.0 54C16293.0 54 16258.0 92 16260.0 159C16260.0 176 16262.0 191 16266.0 210L16316.0 462H16242.0L16192.0 207C16187.0 183 16184.0 159 16184.0 139C16182.0 42 16237.0 -15 16332.0 -15C16412.0 -15 16467.0 26 16512.0 119L16516.0 117C16505.0 92 16494.0 53 16483.0 0H16555.0L16645.0 462Z" />
      <path d="M16655.0 64C16711.0 11 16778.0 -15 16853.0 -15C16953.0 -15 17009.0 31 17009.0 113C17009.0 164 16987.0 200 16930.0 240L16875.0 278C16831.0 309 16819.0 324 16819.0 351C16819.0 387 16846.0 409 16891.0 409C16926.0 409 16965.0 394 17009.0 365L17047.0 425C16995.0 460 16942.0 477 16887.0 477C16799.0 477 16744.0 429 16744.0 353C16744.0 304 16769.0 265 16825.0 226L16885.0 184C16921.0 158 16934.0 139 16934.0 114C16934.0 76 16904.0 53 16853.0 53C16800.0 53 16751.0 75 16699.0 121Z" />
      <path d="M17255.0 -14C17326.0 -14 17381.0 17 17419.0 79L17423.0 77C17410.0 51 17404.0 36 17398.0 0H17470.0L17525.0 283C17529.0 305 17531.0 324 17531.0 339C17531.0 431 17473.0 476 17360.0 476C17314.0 476 17241.0 468 17187.0 456L17201.0 389C17257.0 402 17315.0 410 17353.0 410C17426.0 410 17461.0 382 17461.0 326C17461.0 312 17459.0 299 17453.0 268C17448.0 238 17447.0 219 17449.0 206L17446.0 205C17422.0 269 17364.0 312 17275.0 312C17159.0 312 17085.0 244 17085.0 142C17085.0 49 17154.0 -14 17255.0 -14ZM17277.0 47C17206.0 47 17162.0 84 17162.0 142C17162.0 207 17211.0 249 17288.0 249C17364.0 249 17422.0 208 17422.0 153C17422.0 94 17357.0 47 17277.0 47Z" />
      <path d="M17879.0 -15C18028.0 -15 18138.0 101 18138.0 257C18138.0 388 18055.0 477 17933.0 477C17849.0 477 17777.0 434 17741.0 361L17738.0 362C17748.0 387 17757.0 418 17767.0 467L17815.0 715H17742.0L17603.0 0H17674.0C17686.0 55 17690.0 85 17690.0 115L17693.0 116C17717.0 31 17782.0 -15 17879.0 -15ZM17867.0 54C17771.0 54 17713.0 111 17713.0 203C17713.0 320 17799.0 408 17911.0 408C18005.0 408 18062.0 350 18062.0 257C18062.0 140 17979.0 54 17867.0 54Z" />
      <path d="M18272.0 0 18411.0 715H18338.0L18199.0 0Z" />
      <path d="M18645.0 -15C18730.0 -15 18795.0 13 18866.0 80L18821.0 133C18762.0 77 18711.0 54 18646.0 54C18551.0 54 18495.0 106 18495.0 193C18495.0 199 18496.0 207 18496.0 216L18495.0 224L18497.0 225C18506.0 221 18519.0 219 18546.0 219H18891.0C18898.0 250 18900.0 268 18900.0 289C18900.0 405 18822.0 477 18695.0 477C18537.0 477 18422.0 361 18422.0 201C18422.0 65 18506.0 -15 18645.0 -15ZM18504.0 269C18524.0 355 18599.0 413 18690.0 413C18778.0 413 18828.0 367 18828.0 287C18828.0 281 18828.0 275 18829.0 270L18827.0 269C18816.0 274 18806.0 276 18780.0 276H18549.0C18528.0 276 18515.0 274 18505.0 268Z" />
      <path d="M19042.0 0 19062.0 105H18963.0L18942.0 0Z" />
    </g>
  </g>
</svg>
