<svg xmlns="http://www.w3.org/2000/svg" width="820" height="44" viewBox="0 0 820 44" role="img" aria-labelledby="title">
  <title id="title">Build from real problems. Agent Code Data Make ideas tangible, testable, and reusable.</title>
  <desc>GT Eesti Display Regular Italic typing intro.</desc>
  <defs>
    <style>
    svg { color: #000000; }
    @media (prefers-color-scheme: dark) {
      svg { color: #EDEDED; }
    }
    .clip-rect {
      animation-duration: 9s;
      animation-timing-function: steps(24, end);
      animation-iteration-count: infinite;
    }
    .clip-rect-0 { animation-name: type0; }
    .clip-rect-1 { animation-name: type1; }
    .clip-rect-2 { animation-name: type2; }
    .line-wrap {
      opacity: 0;
      animation-duration: 9s;
      animation-timing-function: linear;
      animation-iteration-count: infinite;
    }
    .line-wrap-0 { animation-name: show0; }
    .line-wrap-1 { animation-name: show1; }
    .line-wrap-2 { animation-name: show2; }
    @keyframes show0 {
      0%, 32.5%, 100% { opacity: 0; }
      1%, 30% { opacity: 1; }
    }
    @keyframes show1 {
      0%, 33%, 65.5%, 100% { opacity: 0; }
      34%, 63% { opacity: 1; }
    }
    @keyframes show2 {
      0%, 66%, 98.5%, 100% { opacity: 0; }
      67%, 96% { opacity: 1; }
    }
    @keyframes type0 {
      0% { width: 0; }
      15% { width: 309.0px; }
      30% { width: 309.0px; }
      32.5%, 100% { width: 0; }
    }
    @keyframes type1 {
      0%, 33% { width: 0; }
      48% { width: 218.7px; }
      63% { width: 218.7px; }
      65.5%, 100% { width: 0; }
    }
    @keyframes type2 {
      0%, 66% { width: 0; }
      81% { width: 548.3px; }
      96% { width: 548.3px; }
      98.5%, 100% { width: 0; }
    }
    </style>
    <clipPath id="clip0">
      <rect class="clip-rect clip-rect-0" x="255.52" y="0" width="0" height="44" />
    </clipPath>
    <clipPath id="clip1">
      <rect class="clip-rect clip-rect-1" x="300.66" y="0" width="0" height="44" />
    </clipPath>
    <clipPath id="clip2">
      <rect class="clip-rect clip-rect-2" x="135.84" y="0" width="0" height="44" />
    </clipPath>
  </defs>
  <g class="line-wrap line-wrap-0" clip-path="url(#clip0)">
    <g fill="currentColor" transform="translate(255.52 29.92) scale(0.028000 -0.028000)">
      <path d="M460.0 372C547.0 393 595.0 460 595.0 536C595.0 637 529.0 700 412.0 700H162.0L25.0 0H321.0C474.0 0 578.0 80 578.0 219C578.0 294 543.0 351 460.0 370ZM385.0 602C459.0 602 486.0 564 486.0 515C486.0 446 427.0 408 360.0 408H209.0L247.0 602ZM147.0 98 190.0 313H354.0C441.0 313 470.0 271 470.0 214C470.0 156 431.0 98 326.0 98Z" />
      <path d="M805.0 -15C869.0 -15 918.0 13 956.0 70H958.0L945.0 0H1043.0L1132.0 462H1034.0L991.0 241C970.0 131 926.0 80 852.0 80C796.0 80 766.0 108 766.0 161C766.0 173 768.0 191 771.0 209L821.0 462H721.0L669.0 199C663.0 166 661.0 146 661.0 128C661.0 38 714.0 -15 805.0 -15Z" />
      <path d="M1289.0 690 1266.0 570H1386.0L1409.0 690ZM1266.0 0 1356.0 462H1258.0L1168.0 0Z" />
      <path d="M1494.0 0 1630.0 700H1532.0L1396.0 0Z" />
      <path d="M2061.0 380H2058.0C2030.0 442 1968.0 477 1887.0 477C1743.0 477 1636.0 364 1636.0 211C1636.0 78 1721.0 -15 1842.0 -15C1904.0 -15 1953.0 10 1997.0 64H2000.0L1987.0 0H2085.0L2220.0 700H2122.0ZM1876.0 78C1792.0 78 1740.0 130 1740.0 212C1740.0 311 1810.0 384 1904.0 384C1987.0 384 2040.0 330 2040.0 246C2040.0 149 1971.0 78 1876.0 78Z" />
      <path d="M2843.0 710C2736.0 710 2665.0 650 2642.0 526L2630.0 462H2555.0L2539.0 379H2613.0L2540.0 0H2638.0L2712.0 379H2801.0L2817.0 462H2728.0L2741.0 529C2754.0 595 2793.0 617 2839.0 617H2846.0L2864.0 710Z" />
      <path d="M2910.0 0 2950.0 205C2972.0 315 3025.0 361 3120.0 361H3142.0L3165.0 476H3151.0C3073.0 476 3019.0 442 2982.0 364H2980.0L3000.0 462H2902.0L2812.0 0Z" />
      <path d="M3391.0 -15C3550.0 -15 3668.0 101 3668.0 259C3668.0 392 3579.0 477 3439.0 477C3280.0 477 3162.0 361 3162.0 203C3162.0 70 3251.0 -15 3391.0 -15ZM3400.0 81C3316.0 81 3266.0 129 3266.0 209C3266.0 309 3334.0 381 3430.0 381C3514.0 381 3564.0 333 3564.0 253C3564.0 153 3496.0 81 3400.0 81Z" />
      <path d="M3811.0 0 3857.0 239C3876.0 339 3916.0 384 3982.0 384C4030.0 384 4060.0 361 4060.0 300C4060.0 284 4058.0 267 4054.0 247L4006.0 0H4104.0L4151.0 240C4170.0 338 4208.0 384 4275.0 384C4323.0 384 4354.0 360 4354.0 299C4354.0 288 4353.0 272 4349.0 254L4299.0 0H4397.0L4445.0 240C4454.0 284 4457.0 304 4457.0 328C4457.0 439 4391.0 477 4319.0 477C4253.0 477 4204.0 445 4168.0 381H4166.0C4152.0 445 4105.0 477 4037.0 477C3978.0 477 3926.0 453 3889.0 390H3887.0L3901.0 462H3803.0L3713.0 0Z" />
      <path d="M4901.0 0 4941.0 205C4963.0 315 5016.0 361 5111.0 361H5133.0L5156.0 476H5142.0C5064.0 476 5010.0 442 4973.0 364H4971.0L4991.0 462H4893.0L4803.0 0Z" />
      <path d="M5624.0 214C5629.0 245 5631.0 263 5631.0 281C5631.0 404 5554.0 477 5424.0 477C5267.0 477 5154.0 363 5154.0 204C5154.0 69 5240.0 -14 5380.0 -14C5463.0 -14 5533.0 15 5603.0 79L5546.0 152C5491.0 101 5441.0 79 5380.0 79C5293.0 79 5249.0 124 5249.0 213V214ZM5419.0 394C5493.0 394 5535.0 357 5535.0 292V287H5261.0C5285.0 353 5342.0 394 5419.0 394Z" />
      <path d="M5901.0 -15C5963.0 -15 6012.0 10 6056.0 64H6059.0L6046.0 0H6144.0L6233.0 462H6135.0L6120.0 380H6117.0C6089.0 442 6027.0 477 5946.0 477C5802.0 477 5695.0 364 5695.0 211C5695.0 78 5780.0 -15 5901.0 -15ZM5935.0 78C5851.0 78 5799.0 130 5799.0 212C5799.0 311 5869.0 384 5963.0 384C6046.0 384 6099.0 330 6099.0 246C6099.0 149 6030.0 78 5935.0 78Z" />
      <path d="M6367.0 0 6503.0 700H6405.0L6269.0 0Z" />
      <path d="M6842.0 -201 6896.0 80H6899.0C6929.0 19 6989.0 -15 7068.0 -15C7213.0 -15 7321.0 100 7321.0 255C7321.0 387 7238.0 477 7116.0 477C7056.0 477 7004.0 453 6962.0 406H6959.0L6970.0 462H6872.0L6744.0 -201ZM7048.0 78C6967.0 78 6917.0 127 6917.0 208C6917.0 308 6990.0 384 7086.0 384C7167.0 384 7217.0 335 7217.0 254C7217.0 154 7144.0 78 7048.0 78Z" />
      <path d="M7465.0 0 7505.0 205C7527.0 315 7580.0 361 7675.0 361H7697.0L7720.0 476H7706.0C7628.0 476 7574.0 442 7537.0 364H7535.0L7555.0 462H7457.0L7367.0 0Z" />
      <path d="M7946.0 -15C8105.0 -15 8223.0 101 8223.0 259C8223.0 392 8134.0 477 7994.0 477C7835.0 477 7717.0 361 7717.0 203C7717.0 70 7806.0 -15 7946.0 -15ZM7955.0 81C7871.0 81 7821.0 129 7821.0 209C7821.0 309 7889.0 381 7985.0 381C8069.0 381 8119.0 333 8119.0 253C8119.0 153 8051.0 81 7955.0 81Z" />
      <path d="M8559.0 -15C8708.0 -15 8812.0 105 8812.0 255C8812.0 392 8724.0 477 8607.0 477C8543.0 477 8492.0 450 8453.0 406H8450.0L8507.0 700H8409.0L8274.0 0H8372.0L8387.0 80H8390.0C8419.0 21 8477.0 -15 8559.0 -15ZM8539.0 78C8456.0 78 8408.0 129 8408.0 208C8408.0 296 8469.0 384 8577.0 384C8660.0 384 8708.0 333 8708.0 254C8708.0 166 8647.0 78 8539.0 78Z" />
      <path d="M8961.0 0 9097.0 700H8999.0L8863.0 0Z" />
      <path d="M9572.0 214C9577.0 245 9579.0 263 9579.0 281C9579.0 404 9502.0 477 9372.0 477C9215.0 477 9102.0 363 9102.0 204C9102.0 69 9188.0 -14 9328.0 -14C9411.0 -14 9481.0 15 9551.0 79L9494.0 152C9439.0 101 9389.0 79 9328.0 79C9241.0 79 9197.0 124 9197.0 213V214ZM9367.0 394C9441.0 394 9483.0 357 9483.0 292V287H9209.0C9233.0 353 9290.0 394 9367.0 394Z" />
      <path d="M9724.0 0 9770.0 239C9789.0 339 9829.0 384 9895.0 384C9943.0 384 9973.0 361 9973.0 300C9973.0 284 9971.0 267 9967.0 247L9919.0 0H10017.0L10064.0 240C10083.0 338 10121.0 384 10188.0 384C10236.0 384 10267.0 360 10267.0 299C10267.0 288 10266.0 272 10262.0 254L10212.0 0H10310.0L10358.0 240C10367.0 284 10370.0 304 10370.0 328C10370.0 439 10304.0 477 10232.0 477C10166.0 477 10117.0 445 10081.0 381H10079.0C10065.0 445 10018.0 477 9950.0 477C9891.0 477 9839.0 453 9802.0 390H9800.0L9814.0 462H9716.0L9626.0 0Z" />
      <path d="M10393.0 61C10445.0 13 10520.0 -15 10597.0 -15C10700.0 -15 10760.0 34 10760.0 119C10760.0 172 10737.0 211 10683.0 247L10626.0 285C10592.0 307 10579.0 324 10579.0 344C10579.0 372 10599.0 388 10634.0 388C10667.0 388 10703.0 374 10746.0 346L10794.0 424C10741.0 459 10684.0 477 10629.0 477C10536.0 477 10477.0 426 10477.0 347C10477.0 296 10502.0 253 10553.0 218L10618.0 174C10644.0 156 10657.0 138 10657.0 119C10657.0 91 10632.0 74 10592.0 74C10547.0 74 10496.0 96 10448.0 136Z" />
      <path d="M10934.0 0 10957.0 119H10838.0L10815.0 0Z" />
    </g>
  </g>
  <g class="line-wrap line-wrap-1" clip-path="url(#clip1)">
    <g fill="currentColor" transform="translate(300.66 29.92) scale(0.028000 -0.028000)">
      <path d="M630.0 0 482.0 700H374.0L-40.0 0H81.0L181.0 175H492.0L526.0 0ZM412.0 579 473.0 270H235.0Z" />
      <path d="M1137.0 380H1134.0C1106.0 442 1044.0 477 963.0 477C819.0 477 712.0 364 712.0 211C712.0 78 797.0 -15 918.0 -15C980.0 -15 1029.0 10 1073.0 64H1076.0L1063.0 0C1045.0 -87 1009.0 -121 934.0 -121C880.0 -121 813.0 -105 753.0 -79L716.0 -170C787.0 -200 859.0 -215 932.0 -215C1067.0 -215 1132.0 -153 1161.0 0L1250.0 462H1152.0ZM952.0 78C868.0 78 816.0 130 816.0 212C816.0 311 886.0 384 980.0 384C1063.0 384 1116.0 330 1116.0 246C1116.0 149 1047.0 78 952.0 78Z" />
      <path d="M1767.0 214C1772.0 245 1774.0 263 1774.0 281C1774.0 404 1697.0 477 1567.0 477C1410.0 477 1297.0 363 1297.0 204C1297.0 69 1383.0 -14 1523.0 -14C1606.0 -14 1676.0 15 1746.0 79L1689.0 152C1634.0 101 1584.0 79 1523.0 79C1436.0 79 1392.0 124 1392.0 213V214ZM1562.0 394C1636.0 394 1678.0 357 1678.0 292V287H1404.0C1428.0 353 1485.0 394 1562.0 394Z" />
      <path d="M1919.0 0 1962.0 221C1984.0 334 2029.0 384 2109.0 384C2170.0 384 2200.0 356 2200.0 297C2200.0 280 2198.0 259 2195.0 244L2148.0 0H2246.0L2296.0 256C2301.0 283 2303.0 308 2303.0 328C2303.0 422 2250.0 477 2160.0 477C2090.0 477 2039.0 450 1997.0 392H1995.0L2009.0 462H1911.0L1821.0 0Z" />
      <path d="M2674.0 379 2690.0 462H2586.0L2622.0 647H2524.0L2488.0 462H2406.0L2390.0 379H2472.0L2424.0 136C2421.0 122 2420.0 110 2420.0 98C2420.0 30 2464.0 -1 2532.0 -1H2568.0L2586.0 89H2562.0C2534.0 89 2521.0 99 2521.0 122C2521.0 126 2522.0 131 2523.0 137L2570.0 379Z" />
      <path d="M3345.0 -15C3443.0 -15 3518.0 15 3581.0 58L3525.0 146C3476.0 114 3425.0 90 3352.0 90C3215.0 90 3127.0 174 3127.0 318C3127.0 473 3231.0 610 3416.0 610C3504.0 610 3559.0 577 3601.0 549L3666.0 637C3603.0 685 3528.0 715 3422.0 715C3168.0 715 3015.0 534 3015.0 318C3015.0 117 3144.0 -15 3345.0 -15Z" />
      <path d="M3899.0 -15C4058.0 -15 4176.0 101 4176.0 259C4176.0 392 4087.0 477 3947.0 477C3788.0 477 3670.0 361 3670.0 203C3670.0 70 3759.0 -15 3899.0 -15ZM3908.0 81C3824.0 81 3774.0 129 3774.0 209C3774.0 309 3842.0 381 3938.0 381C4022.0 381 4072.0 333 4072.0 253C4072.0 153 4004.0 81 3908.0 81Z" />
      <path d="M4663.0 380H4660.0C4632.0 442 4570.0 477 4489.0 477C4345.0 477 4238.0 364 4238.0 211C4238.0 78 4323.0 -15 4444.0 -15C4506.0 -15 4555.0 10 4599.0 64H4602.0L4589.0 0H4687.0L4822.0 700H4724.0ZM4478.0 78C4394.0 78 4342.0 130 4342.0 212C4342.0 311 4412.0 384 4506.0 384C4589.0 384 4642.0 330 4642.0 246C4642.0 149 4573.0 78 4478.0 78Z" />
      <path d="M5298.0 214C5303.0 245 5305.0 263 5305.0 281C5305.0 404 5228.0 477 5098.0 477C4941.0 477 4828.0 363 4828.0 204C4828.0 69 4914.0 -14 5054.0 -14C5137.0 -14 5207.0 15 5277.0 79L5220.0 152C5165.0 101 5115.0 79 5054.0 79C4967.0 79 4923.0 124 4923.0 213V214ZM5093.0 394C5167.0 394 5209.0 357 5209.0 292V287H4935.0C4959.0 353 5016.0 394 5093.0 394Z" />
      <path d="M5863.0 0C6140.0 0 6307.0 160 6307.0 392C6307.0 583 6181.0 700 5999.0 700H5789.0L5652.0 0ZM5874.0 602H5991.0C6109.0 602 6195.0 529 6195.0 393C6195.0 212 6065.0 98 5895.0 98H5775.0Z" />
      <path d="M6557.0 -15C6619.0 -15 6668.0 10 6712.0 64H6715.0L6702.0 0H6800.0L6889.0 462H6791.0L6776.0 380H6773.0C6745.0 442 6683.0 477 6602.0 477C6458.0 477 6351.0 364 6351.0 211C6351.0 78 6436.0 -15 6557.0 -15ZM6591.0 78C6507.0 78 6455.0 130 6455.0 212C6455.0 311 6525.0 384 6619.0 384C6702.0 384 6755.0 330 6755.0 246C6755.0 149 6686.0 78 6591.0 78Z" />
      <path d="M7233.0 379 7249.0 462H7145.0L7181.0 647H7083.0L7047.0 462H6965.0L6949.0 379H7031.0L6983.0 136C6980.0 122 6979.0 110 6979.0 98C6979.0 30 7023.0 -1 7091.0 -1H7127.0L7145.0 89H7121.0C7093.0 89 7080.0 99 7080.0 122C7080.0 126 7081.0 131 7082.0 137L7129.0 379Z" />
      <path d="M7462.0 -15C7524.0 -15 7573.0 10 7617.0 64H7620.0L7607.0 0H7705.0L7794.0 462H7696.0L7681.0 380H7678.0C7650.0 442 7588.0 477 7507.0 477C7363.0 477 7256.0 364 7256.0 211C7256.0 78 7341.0 -15 7462.0 -15ZM7496.0 78C7412.0 78 7360.0 130 7360.0 212C7360.0 311 7430.0 384 7524.0 384C7607.0 384 7660.0 330 7660.0 246C7660.0 149 7591.0 78 7496.0 78Z" />
    </g>
  </g>
  <g class="line-wrap line-wrap-2" clip-path="url(#clip2)">
    <g fill="currentColor" transform="translate(135.84 29.92) scale(0.028000 -0.028000)">
      <path d="M80.0 0 272.0 505H274.0L368.0 109H454.0L688.0 509H690.0L727.0 0H831.0L776.0 700H686.0L431.0 254H429.0L332.0 700H242.0L-40.0 0Z" />
      <path d="M1119.0 -15C1181.0 -15 1230.0 10 1274.0 64H1277.0L1264.0 0H1362.0L1451.0 462H1353.0L1338.0 380H1335.0C1307.0 442 1245.0 477 1164.0 477C1020.0 477 913.0 364 913.0 211C913.0 78 998.0 -15 1119.0 -15ZM1153.0 78C1069.0 78 1017.0 130 1017.0 212C1017.0 311 1087.0 384 1181.0 384C1264.0 384 1317.0 330 1317.0 246C1317.0 149 1248.0 78 1153.0 78Z" />
      <path d="M1828.0 462 1637.0 267 1721.0 700H1623.0L1487.0 0H1585.0L1629.0 225L1781.0 0H1901.0L1731.0 241L1959.0 462Z" />
      <path d="M2452.0 214C2457.0 245 2459.0 263 2459.0 281C2459.0 404 2382.0 477 2252.0 477C2095.0 477 1982.0 363 1982.0 204C1982.0 69 2068.0 -14 2208.0 -14C2291.0 -14 2361.0 15 2431.0 79L2374.0 152C2319.0 101 2269.0 79 2208.0 79C2121.0 79 2077.0 124 2077.0 213V214ZM2247.0 394C2321.0 394 2363.0 357 2363.0 292V287H2089.0C2113.0 353 2170.0 394 2247.0 394Z" />
      <path d="M2922.0 690 2899.0 570H3019.0L3042.0 690ZM2899.0 0 2989.0 462H2891.0L2801.0 0Z" />
      <path d="M3466.0 380H3463.0C3435.0 442 3373.0 477 3292.0 477C3148.0 477 3041.0 364 3041.0 211C3041.0 78 3126.0 -15 3247.0 -15C3309.0 -15 3358.0 10 3402.0 64H3405.0L3392.0 0H3490.0L3625.0 700H3527.0ZM3281.0 78C3197.0 78 3145.0 130 3145.0 212C3145.0 311 3215.0 384 3309.0 384C3392.0 384 3445.0 330 3445.0 246C3445.0 149 3376.0 78 3281.0 78Z" />
      <path d="M4101.0 214C4106.0 245 4108.0 263 4108.0 281C4108.0 404 4031.0 477 3901.0 477C3744.0 477 3631.0 363 3631.0 204C3631.0 69 3717.0 -14 3857.0 -14C3940.0 -14 4010.0 15 4080.0 79L4023.0 152C3968.0 101 3918.0 79 3857.0 79C3770.0 79 3726.0 124 3726.0 213V214ZM3896.0 394C3970.0 394 4012.0 357 4012.0 292V287H3738.0C3762.0 353 3819.0 394 3896.0 394Z" />
      <path d="M4378.0 -15C4440.0 -15 4489.0 10 4533.0 64H4536.0L4523.0 0H4621.0L4710.0 462H4612.0L4597.0 380H4594.0C4566.0 442 4504.0 477 4423.0 477C4279.0 477 4172.0 364 4172.0 211C4172.0 78 4257.0 -15 4378.0 -15ZM4412.0 78C4328.0 78 4276.0 130 4276.0 212C4276.0 311 4346.0 384 4440.0 384C4523.0 384 4576.0 330 4576.0 246C4576.0 149 4507.0 78 4412.0 78Z" />
      <path d="M4708.0 61C4760.0 13 4835.0 -15 4912.0 -15C5015.0 -15 5075.0 34 5075.0 119C5075.0 172 5052.0 211 4998.0 247L4941.0 285C4907.0 307 4894.0 324 4894.0 344C4894.0 372 4914.0 388 4949.0 388C4982.0 388 5018.0 374 5061.0 346L5109.0 424C5056.0 459 4999.0 477 4944.0 477C4851.0 477 4792.0 426 4792.0 347C4792.0 296 4817.0 253 4868.0 218L4933.0 174C4959.0 156 4972.0 138 4972.0 119C4972.0 91 4947.0 74 4907.0 74C4862.0 74 4811.0 96 4763.0 136Z" />
      <path d="M5738.0 379 5754.0 462H5650.0L5686.0 647H5588.0L5552.0 462H5470.0L5454.0 379H5536.0L5488.0 136C5485.0 122 5484.0 110 5484.0 98C5484.0 30 5528.0 -1 5596.0 -1H5632.0L5650.0 89H5626.0C5598.0 89 5585.0 99 5585.0 122C5585.0 126 5586.0 131 5587.0 137L5634.0 379Z" />
      <path d="M5967.0 -15C6029.0 -15 6078.0 10 6122.0 64H6125.0L6112.0 0H6210.0L6299.0 462H6201.0L6186.0 380H6183.0C6155.0 442 6093.0 477 6012.0 477C5868.0 477 5761.0 364 5761.0 211C5761.0 78 5846.0 -15 5967.0 -15ZM6001.0 78C5917.0 78 5865.0 130 5865.0 212C5865.0 311 5935.0 384 6029.0 384C6112.0 384 6165.0 330 6165.0 246C6165.0 149 6096.0 78 6001.0 78Z" />
      <path d="M6428.0 0 6471.0 221C6493.0 334 6538.0 384 6618.0 384C6679.0 384 6709.0 356 6709.0 297C6709.0 280 6707.0 259 6704.0 244L6657.0 0H6755.0L6805.0 256C6810.0 283 6812.0 308 6812.0 328C6812.0 422 6759.0 477 6669.0 477C6599.0 477 6548.0 450 6506.0 392H6504.0L6518.0 462H6420.0L6330.0 0Z" />
      <path d="M7312.0 380H7309.0C7281.0 442 7219.0 477 7138.0 477C6994.0 477 6887.0 364 6887.0 211C6887.0 78 6972.0 -15 7093.0 -15C7155.0 -15 7204.0 10 7248.0 64H7251.0L7238.0 0C7220.0 -87 7184.0 -121 7109.0 -121C7055.0 -121 6988.0 -105 6928.0 -79L6891.0 -170C6962.0 -200 7034.0 -215 7107.0 -215C7242.0 -215 7307.0 -153 7336.0 0L7425.0 462H7327.0ZM7127.0 78C7043.0 78 6991.0 130 6991.0 212C6991.0 311 7061.0 384 7155.0 384C7238.0 384 7291.0 330 7291.0 246C7291.0 149 7222.0 78 7127.0 78Z" />
      <path d="M7582.0 690 7559.0 570H7679.0L7702.0 690ZM7559.0 0 7649.0 462H7551.0L7461.0 0Z" />
      <path d="M7975.0 -15C8124.0 -15 8228.0 105 8228.0 255C8228.0 392 8140.0 477 8023.0 477C7959.0 477 7908.0 450 7869.0 406H7866.0L7923.0 700H7825.0L7690.0 0H7788.0L7803.0 80H7806.0C7835.0 21 7893.0 -15 7975.0 -15ZM7955.0 78C7872.0 78 7824.0 129 7824.0 208C7824.0 296 7885.0 384 7993.0 384C8076.0 384 8124.0 333 8124.0 254C8124.0 166 8063.0 78 7955.0 78Z" />
      <path d="M8377.0 0 8513.0 700H8415.0L8279.0 0Z" />
      <path d="M8988.0 214C8993.0 245 8995.0 263 8995.0 281C8995.0 404 8918.0 477 8788.0 477C8631.0 477 8518.0 363 8518.0 204C8518.0 69 8604.0 -14 8744.0 -14C8827.0 -14 8897.0 15 8967.0 79L8910.0 152C8855.0 101 8805.0 79 8744.0 79C8657.0 79 8613.0 124 8613.0 213V214ZM8783.0 394C8857.0 394 8899.0 357 8899.0 292V287H8625.0C8649.0 353 8706.0 394 8783.0 394Z" />
      <path d="M9052.0 -143 9171.0 0 9194.0 119H9075.0L9052.0 0H9101.0L9009.0 -143Z" />
      <path d="M9889.0 379 9905.0 462H9801.0L9837.0 647H9739.0L9703.0 462H9621.0L9605.0 379H9687.0L9639.0 136C9636.0 122 9635.0 110 9635.0 98C9635.0 30 9679.0 -1 9747.0 -1H9783.0L9801.0 89H9777.0C9749.0 89 9736.0 99 9736.0 122C9736.0 126 9737.0 131 9738.0 137L9785.0 379Z" />
      <path d="M10381.0 214C10386.0 245 10388.0 263 10388.0 281C10388.0 404 10311.0 477 10181.0 477C10024.0 477 9911.0 363 9911.0 204C9911.0 69 9997.0 -14 10137.0 -14C10220.0 -14 10290.0 15 10360.0 79L10303.0 152C10248.0 101 10198.0 79 10137.0 79C10050.0 79 10006.0 124 10006.0 213V214ZM10176.0 394C10250.0 394 10292.0 357 10292.0 292V287H10018.0C10042.0 353 10099.0 394 10176.0 394Z" />
      <path d="M10402.0 61C10454.0 13 10529.0 -15 10606.0 -15C10709.0 -15 10769.0 34 10769.0 119C10769.0 172 10746.0 211 10692.0 247L10635.0 285C10601.0 307 10588.0 324 10588.0 344C10588.0 372 10608.0 388 10643.0 388C10676.0 388 10712.0 374 10755.0 346L10803.0 424C10750.0 459 10693.0 477 10638.0 477C10545.0 477 10486.0 426 10486.0 347C10486.0 296 10511.0 253 10562.0 218L10627.0 174C10653.0 156 10666.0 138 10666.0 119C10666.0 91 10641.0 74 10601.0 74C10556.0 74 10505.0 96 10457.0 136Z" />
      <path d="M11142.0 379 11158.0 462H11054.0L11090.0 647H10992.0L10956.0 462H10874.0L10858.0 379H10940.0L10892.0 136C10889.0 122 10888.0 110 10888.0 98C10888.0 30 10932.0 -1 11000.0 -1H11036.0L11054.0 89H11030.0C11002.0 89 10989.0 99 10989.0 122C10989.0 126 10990.0 131 10991.0 137L11038.0 379Z" />
      <path d="M11371.0 -15C11433.0 -15 11482.0 10 11526.0 64H11529.0L11516.0 0H11614.0L11703.0 462H11605.0L11590.0 380H11587.0C11559.0 442 11497.0 477 11416.0 477C11272.0 477 11165.0 364 11165.0 211C11165.0 78 11250.0 -15 11371.0 -15ZM11405.0 78C11321.0 78 11269.0 130 11269.0 212C11269.0 311 11339.0 384 11433.0 384C11516.0 384 11569.0 330 11569.0 246C11569.0 149 11500.0 78 11405.0 78Z" />
      <path d="M12025.0 -15C12174.0 -15 12278.0 105 12278.0 255C12278.0 392 12190.0 477 12073.0 477C12009.0 477 11958.0 450 11919.0 406H11916.0L11973.0 700H11875.0L11740.0 0H11838.0L11853.0 80H11856.0C11885.0 21 11943.0 -15 12025.0 -15ZM12005.0 78C11922.0 78 11874.0 129 11874.0 208C11874.0 296 11935.0 384 12043.0 384C12126.0 384 12174.0 333 12174.0 254C12174.0 166 12113.0 78 12005.0 78Z" />
      <path d="M12427.0 0 12563.0 700H12465.0L12329.0 0Z" />
      <path d="M13038.0 214C13043.0 245 13045.0 263 13045.0 281C13045.0 404 12968.0 477 12838.0 477C12681.0 477 12568.0 363 12568.0 204C12568.0 69 12654.0 -14 12794.0 -14C12877.0 -14 12947.0 15 13017.0 79L12960.0 152C12905.0 101 12855.0 79 12794.0 79C12707.0 79 12663.0 124 12663.0 213V214ZM12833.0 394C12907.0 394 12949.0 357 12949.0 292V287H12675.0C12699.0 353 12756.0 394 12833.0 394Z" />
      <path d="M13102.0 -143 13221.0 0 13244.0 119H13125.0L13102.0 0H13151.0L13059.0 -143Z" />
      <path d="M13849.0 -15C13911.0 -15 13960.0 10 14004.0 64H14007.0L13994.0 0H14092.0L14181.0 462H14083.0L14068.0 380H14065.0C14037.0 442 13975.0 477 13894.0 477C13750.0 477 13643.0 364 13643.0 211C13643.0 78 13728.0 -15 13849.0 -15ZM13883.0 78C13799.0 78 13747.0 130 13747.0 212C13747.0 311 13817.0 384 13911.0 384C13994.0 384 14047.0 330 14047.0 246C14047.0 149 13978.0 78 13883.0 78Z" />
      <path d="M14310.0 0 14353.0 221C14375.0 334 14420.0 384 14500.0 384C14561.0 384 14591.0 356 14591.0 297C14591.0 280 14589.0 259 14586.0 244L14539.0 0H14637.0L14687.0 256C14692.0 283 14694.0 308 14694.0 328C14694.0 422 14641.0 477 14551.0 477C14481.0 477 14430.0 450 14388.0 392H14386.0L14400.0 462H14302.0L14212.0 0Z" />
      <path d="M15194.0 380H15191.0C15163.0 442 15101.0 477 15020.0 477C14876.0 477 14769.0 364 14769.0 211C14769.0 78 14854.0 -15 14975.0 -15C15037.0 -15 15086.0 10 15130.0 64H15133.0L15120.0 0H15218.0L15353.0 700H15255.0ZM15009.0 78C14925.0 78 14873.0 130 14873.0 212C14873.0 311 14943.0 384 15037.0 384C15120.0 384 15173.0 330 15173.0 246C15173.0 149 15104.0 78 15009.0 78Z" />
      <path d="M15731.0 0 15771.0 205C15793.0 315 15846.0 361 15941.0 361H15963.0L15986.0 476H15972.0C15894.0 476 15840.0 442 15803.0 364H15801.0L15821.0 462H15723.0L15633.0 0Z" />
      <path d="M16454.0 214C16459.0 245 16461.0 263 16461.0 281C16461.0 404 16384.0 477 16254.0 477C16097.0 477 15984.0 363 15984.0 204C15984.0 69 16070.0 -14 16210.0 -14C16293.0 -14 16363.0 15 16433.0 79L16376.0 152C16321.0 101 16271.0 79 16210.0 79C16123.0 79 16079.0 124 16079.0 213V214ZM16249.0 394C16323.0 394 16365.0 357 16365.0 292V287H16091.0C16115.0 353 16172.0 394 16249.0 394Z" />
      <path d="M16673.0 -15C16737.0 -15 16786.0 13 16824.0 70H16826.0L16813.0 0H16911.0L17000.0 462H16902.0L16859.0 241C16838.0 131 16794.0 80 16720.0 80C16664.0 80 16634.0 108 16634.0 161C16634.0 173 16636.0 191 16639.0 209L16689.0 462H16589.0L16537.0 199C16531.0 166 16529.0 146 16529.0 128C16529.0 38 16582.0 -15 16673.0 -15Z" />
      <path d="M16998.0 61C17050.0 13 17125.0 -15 17202.0 -15C17305.0 -15 17365.0 34 17365.0 119C17365.0 172 17342.0 211 17288.0 247L17231.0 285C17197.0 307 17184.0 324 17184.0 344C17184.0 372 17204.0 388 17239.0 388C17272.0 388 17308.0 374 17351.0 346L17399.0 424C17346.0 459 17289.0 477 17234.0 477C17141.0 477 17082.0 426 17082.0 347C17082.0 296 17107.0 253 17158.0 218L17223.0 174C17249.0 156 17262.0 138 17262.0 119C17262.0 91 17237.0 74 17197.0 74C17152.0 74 17101.0 96 17053.0 136Z" />
      <path d="M17648.0 -15C17710.0 -15 17759.0 10 17803.0 64H17806.0L17793.0 0H17891.0L17980.0 462H17882.0L17867.0 380H17864.0C17836.0 442 17774.0 477 17693.0 477C17549.0 477 17442.0 364 17442.0 211C17442.0 78 17527.0 -15 17648.0 -15ZM17682.0 78C17598.0 78 17546.0 130 17546.0 212C17546.0 311 17616.0 384 17710.0 384C17793.0 384 17846.0 330 17846.0 246C17846.0 149 17777.0 78 17682.0 78Z" />
      <path d="M18302.0 -15C18451.0 -15 18555.0 105 18555.0 255C18555.0 392 18467.0 477 18350.0 477C18286.0 477 18235.0 450 18196.0 406H18193.0L18250.0 700H18152.0L18017.0 0H18115.0L18130.0 80H18133.0C18162.0 21 18220.0 -15 18302.0 -15ZM18282.0 78C18199.0 78 18151.0 129 18151.0 208C18151.0 296 18212.0 384 18320.0 384C18403.0 384 18451.0 333 18451.0 254C18451.0 166 18390.0 78 18282.0 78Z" />
      <path d="M18704.0 0 18840.0 700H18742.0L18606.0 0Z" />
      <path d="M19315.0 214C19320.0 245 19322.0 263 19322.0 281C19322.0 404 19245.0 477 19115.0 477C18958.0 477 18845.0 363 18845.0 204C18845.0 69 18931.0 -14 19071.0 -14C19154.0 -14 19224.0 15 19294.0 79L19237.0 152C19182.0 101 19132.0 79 19071.0 79C18984.0 79 18940.0 124 18940.0 213V214ZM19110.0 394C19184.0 394 19226.0 357 19226.0 292V287H18952.0C18976.0 353 19033.0 394 19110.0 394Z" />
      <path d="M19483.0 0 19506.0 119H19387.0L19364.0 0Z" />
    </g>
  </g>
</svg>
