<svg xmlns="http://www.w3.org/2000/svg" width="820" height="56" viewBox="0 0 820 56" role="img" aria-labelledby="title">
  <title id="title">Build from real problems. Agent - Code - Data. Make ideas tangible, testable, and reusable.</title>
  <desc>Animated introduction lines in GT Eesti Display UltraBold (cht-me brand font).</desc>
  <defs>
    <style>

    svg { color: #000000; }
    @media (prefers-color-scheme: dark) {
      svg { color: #EDEDED; }
    }
    .clip-rect {
      animation-duration: 9s;
      animation-timing-function: steps(24, end);
      animation-iteration-count: infinite;
    }
    .clip-rect-0 { animation-name: type0; }
    .clip-rect-1 { animation-name: type1; }
    .clip-rect-2 { animation-name: type2; }
    .line-wrap {
      opacity: 0;
      animation-duration: 9s;
      animation-timing-function: linear;
      animation-iteration-count: infinite;
    }
    .line-wrap-0 { animation-name: show0; }
    .line-wrap-1 { animation-name: show1; }
    .line-wrap-2 { animation-name: show2; }
    @keyframes show0 {
      0%, 32.5%, 100% { opacity: 0; }
      1%, 30% { opacity: 1; }
    }
    @keyframes show1 {
      0%, 33%, 65.5%, 100% { opacity: 0; }
      34%, 63% { opacity: 1; }
    }
    @keyframes show2 {
      0%, 66%, 98.5%, 100% { opacity: 0; }
      67%, 96% { opacity: 1; }
    }
    @keyframes type0 {
      0% { width: 0; }
      15% { width: 307.5px; }
      30% { width: 307.5px; }
      32.5%, 100% { width: 0; }
    }
    @keyframes type1 {
      0%, 33% { width: 0; }
      48% { width: 250.8px; }
      63% { width: 250.8px; }
      65.5%, 100% { width: 0; }
    }
    @keyframes type2 {
      0%, 66% { width: 0; }
      81% { width: 536.1px; }
      96% { width: 536.1px; }
      98.5%, 100% { width: 0; }
    }

    </style>
    <clipPath id="clip0">
      <rect class="clip-rect clip-rect-0" x="259.26" y="0" width="0" height="56" />
    </clipPath>
    <clipPath id="clip1">
      <rect class="clip-rect clip-rect-1" x="287.58" y="0" width="0" height="56" />
    </clipPath>
    <clipPath id="clip2">
      <rect class="clip-rect clip-rect-2" x="144.96" y="0" width="0" height="56" />
    </clipPath>
  </defs>
  <g class="line-wrap line-wrap-0" clip-path="url(#clip0)">
    <g fill="currentColor" transform="translate(259.26 38.08) scale(0.026000 -0.026000)">
      <path d="M471.0 370C544.0 395 588.0 442 588.0 525C588.0 652 495.0 700 363.0 700H55.0V0H364.0C503.0 0 616.0 52 616.0 199C616.0 314 546.0 355 471.0 368ZM331.0 543C375.0 543 406.0 526 406.0 485C406.0 442 375.0 423 331.0 423H245.0V543ZM245.0 157V291H333.0C390.0 291 423.0 274 423.0 225C423.0 176 390.0 157 333.0 157Z" />
      <path d="M857.0 -15C921.0 -15 966.0 14 1006.0 71H1008.0V0H1187.0V462H1002.0V244C1002.0 171 975.0 143 933.0 143C898.0 143 871.0 165 871.0 220V462H681.0V165C681.0 45 757.0 -15 857.0 -15Z" />
      <path d="M1265.0 700V527H1454.0V700ZM1267.0 462V0H1452.0V462Z" />
      <path d="M1532.0 700V0H1717.0V700Z" />
      <path d="M1991.0 477C1874.0 477 1772.0 399 1772.0 231C1772.0 63 1874.0 -15 1991.0 -15C2064.0 -15 2111.0 15 2139.0 59H2141.0V0H2326.0V700H2141.0V403H2139.0C2111.0 447 2064.0 477 1991.0 477ZM2051.0 146C2000.0 146 1961.0 176 1961.0 231C1961.0 286 2000.0 316 2051.0 316C2102.0 316 2141.0 286 2141.0 231C2141.0 176 2102.0 146 2051.0 146Z" />
      <path d="M3004.0 539V710H2962.0C2794.0 710 2713.0 644 2713.0 465V462H2626.0V310H2713.0V0H2898.0V310H3001.0V462H2898.0V464C2898.0 525 2922.0 539 2985.0 539Z" />
      <path d="M3375.0 476C3311.0 476 3259.0 454 3230.0 376H3228.0V462H3049.0V0H3234.0V169C3234.0 272 3278.0 302 3366.0 302H3377.0V476Z" />
      <path d="M3662.0 -15C3818.0 -15 3927.0 81 3927.0 231C3927.0 381 3818.0 477 3662.0 477C3506.0 477 3397.0 381 3397.0 231C3397.0 81 3506.0 -15 3662.0 -15ZM3662.0 146C3611.0 146 3572.0 178 3572.0 231C3572.0 284 3611.0 316 3662.0 316C3713.0 316 3752.0 284 3752.0 231C3752.0 178 3713.0 146 3662.0 146Z" />
      <path d="M4162.0 0V228C4162.0 291 4189.0 320 4236.0 320C4281.0 320 4297.0 286 4297.0 235V0H4473.0V228C4473.0 291 4500.0 320 4547.0 320C4592.0 320 4608.0 286 4608.0 235V0H4793.0V297C4793.0 412 4734.0 477 4626.0 477C4549.0 477 4498.0 444 4464.0 378H4462.0C4442.0 430 4396.0 477 4309.0 477C4244.0 477 4189.0 449 4158.0 389H4156.0V462H3977.0V0Z" />
      <path d="M5439.0 476C5375.0 476 5323.0 454 5294.0 376H5292.0V462H5113.0V0H5298.0V169C5298.0 272 5342.0 302 5430.0 302H5441.0V476Z" />
      <path d="M5712.0 476C5567.0 476 5461.0 394 5461.0 230C5461.0 72 5565.0 -15 5741.0 -15C5792.0 -15 5851.0 -7 5913.0 18L5864.0 153C5827.0 138 5788.0 127 5747.0 127C5685.0 127 5647.0 143 5632.0 188H5950.0V220C5950.0 394 5855.0 476 5712.0 476ZM5703.0 357C5741.0 357 5775.0 334 5775.0 283H5628.0C5631.0 333 5665.0 357 5703.0 357Z" />
      <path d="M6194.0 -15C6267.0 -15 6314.0 15 6342.0 59H6344.0V0H6529.0V462H6344.0V403H6342.0C6314.0 447 6267.0 477 6194.0 477C6077.0 477 5975.0 399 5975.0 231C5975.0 63 6077.0 -15 6194.0 -15ZM6250.0 146C6202.0 146 6165.0 178 6165.0 231C6165.0 284 6202.0 316 6250.0 316C6298.0 316 6335.0 284 6335.0 231C6335.0 178 6298.0 146 6250.0 146Z" />
      <path d="M6604.0 700V0H6789.0V700Z" />
      <path d="M7299.0 -200V59H7301.0C7329.0 15 7376.0 -15 7449.0 -15C7566.0 -15 7668.0 63 7668.0 231C7668.0 399 7566.0 477 7449.0 477C7376.0 477 7329.0 447 7301.0 403H7299.0V462H7114.0V-200ZM7389.0 146C7338.0 146 7299.0 176 7299.0 231C7299.0 286 7338.0 316 7389.0 316C7440.0 316 7479.0 286 7479.0 231C7479.0 176 7440.0 146 7389.0 146Z" />
      <path d="M8044.0 476C7980.0 476 7928.0 454 7899.0 376H7897.0V462H7718.0V0H7903.0V169C7903.0 272 7947.0 302 8035.0 302H8046.0V476Z" />
      <path d="M8331.0 -15C8487.0 -15 8596.0 81 8596.0 231C8596.0 381 8487.0 477 8331.0 477C8175.0 477 8066.0 381 8066.0 231C8066.0 81 8175.0 -15 8331.0 -15ZM8331.0 146C8280.0 146 8241.0 178 8241.0 231C8241.0 284 8280.0 316 8331.0 316C8382.0 316 8421.0 284 8421.0 231C8421.0 178 8382.0 146 8331.0 146Z" />
      <path d="M8986.0 477C8913.0 477 8866.0 447 8838.0 403H8836.0V700H8651.0V0H8836.0V59H8838.0C8866.0 15 8913.0 -15 8986.0 -15C9103.0 -15 9205.0 63 9205.0 231C9205.0 399 9103.0 477 8986.0 477ZM8926.0 146C8875.0 146 8836.0 176 8836.0 231C8836.0 286 8875.0 316 8926.0 316C8977.0 316 9016.0 286 9016.0 231C9016.0 176 8977.0 146 8926.0 146Z" />
      <path d="M9260.0 700V0H9445.0V700Z" />
      <path d="M9751.0 476C9606.0 476 9500.0 394 9500.0 230C9500.0 72 9604.0 -15 9780.0 -15C9831.0 -15 9890.0 -7 9952.0 18L9903.0 153C9866.0 138 9827.0 127 9786.0 127C9724.0 127 9686.0 143 9671.0 188H9989.0V220C9989.0 394 9894.0 476 9751.0 476ZM9742.0 357C9780.0 357 9814.0 334 9814.0 283H9667.0C9670.0 333 9704.0 357 9742.0 357Z" />
      <path d="M10219.0 0V228C10219.0 291 10246.0 320 10293.0 320C10338.0 320 10354.0 286 10354.0 235V0H10530.0V228C10530.0 291 10557.0 320 10604.0 320C10649.0 320 10665.0 286 10665.0 235V0H10850.0V297C10850.0 412 10791.0 477 10683.0 477C10606.0 477 10555.0 444 10521.0 378H10519.0C10499.0 430 10453.0 477 10366.0 477C10301.0 477 10246.0 449 10215.0 389H10213.0V462H10034.0V0Z" />
      <path d="M11116.0 -15C11245.0 -15 11329.0 32 11329.0 145C11329.0 233 11278.0 268 11201.0 293L11118.0 320C11099.0 326 11095.0 331 11095.0 338C11095.0 347 11103.0 351 11123.0 351C11160.0 351 11219.0 338 11272.0 317L11312.0 454C11246.0 469 11190.0 477 11137.0 477C10990.0 477 10925.0 416 10925.0 322C10925.0 241 10973.0 200 11052.0 174L11122.0 151C11143.0 144 11153.0 140 11153.0 129C11153.0 119 11146.0 113 11116.0 114C11060.0 116 11004.0 136 10949.0 166L10890.0 34C10968.0 -5 11057.0 -15 11116.0 -15Z" />
      <path d="M11374.0 188V0H11560.0V188Z" />
    </g>
  </g>
  <g class="line-wrap line-wrap-1" clip-path="url(#clip1)">
    <g fill="currentColor" transform="translate(287.58 38.08) scale(0.026000 -0.026000)">
      <path d="M745.0 0 474.0 700H271.0L0.0 0H210.0L253.0 131H492.0L535.0 0ZM373.0 500 444.0 281H301.0Z" />
      <path d="M1042.0 -215C1235.0 -215 1314.0 -118 1314.0 15V462H1129.0V403H1127.0C1099.0 447 1052.0 477 979.0 477C862.0 477 760.0 398 760.0 234C760.0 71 862.0 0 982.0 0C1051.0 0 1099.0 30 1127.0 62H1129.0V44C1129.0 -33 1084.0 -52 1015.0 -52C980.0 -52 934.0 -47 864.0 -29L833.0 -191C901.0 -205 980.0 -215 1042.0 -215ZM1035.0 146C987.0 146 950.0 178 950.0 231C950.0 284 987.0 316 1035.0 316C1083.0 316 1120.0 284 1120.0 231C1120.0 178 1083.0 146 1035.0 146Z" />
      <path d="M1615.0 476C1470.0 476 1364.0 394 1364.0 230C1364.0 72 1468.0 -15 1644.0 -15C1695.0 -15 1754.0 -7 1816.0 18L1767.0 153C1730.0 138 1691.0 127 1650.0 127C1588.0 127 1550.0 143 1535.0 188H1853.0V220C1853.0 394 1758.0 476 1615.0 476ZM1606.0 357C1644.0 357 1678.0 334 1678.0 283H1531.0C1534.0 333 1568.0 357 1606.0 357Z" />
      <path d="M2238.0 477C2169.0 477 2119.0 448 2079.0 393H2077.0V462H1898.0V0H2083.0V224C2083.0 292 2112.0 320 2157.0 320C2202.0 320 2222.0 293 2222.0 239V0H2407.0V290C2407.0 417 2338.0 477 2238.0 477Z" />
      <path d="M2823.0 462H2725.0V647H2540.0V462H2447.0V310H2540.0V181C2540.0 46 2614.0 0 2715.0 0H2790.0V172H2774.0C2735.0 172 2725.0 186 2725.0 235V310H2823.0Z" />
      <path d="M3113.0 346V186H3394.0V346Z" />
      <path d="M4079.0 -15C4190.0 -15 4276.0 19 4338.0 62L4238.0 225C4190.0 192 4146.0 172 4085.0 172C3982.0 172 3894.0 234 3894.0 350C3894.0 466 3982.0 528 4085.0 528C4146.0 528 4190.0 508 4238.0 475L4338.0 638C4276.0 681 4190.0 715 4079.0 715C3862.0 715 3694.0 582 3694.0 350C3694.0 118 3862.0 -15 4079.0 -15Z" />
      <path d="M4623.0 -15C4779.0 -15 4888.0 81 4888.0 231C4888.0 381 4779.0 477 4623.0 477C4467.0 477 4358.0 381 4358.0 231C4358.0 81 4467.0 -15 4623.0 -15ZM4623.0 146C4572.0 146 4533.0 178 4533.0 231C4533.0 284 4572.0 316 4623.0 316C4674.0 316 4713.0 284 4713.0 231C4713.0 178 4674.0 146 4623.0 146Z" />
      <path d="M5137.0 477C5020.0 477 4918.0 399 4918.0 231C4918.0 63 5020.0 -15 5137.0 -15C5210.0 -15 5257.0 15 5285.0 59H5287.0V0H5472.0V700H5287.0V403H5285.0C5257.0 447 5210.0 477 5137.0 477ZM5197.0 146C5146.0 146 5107.0 176 5107.0 231C5107.0 286 5146.0 316 5197.0 316C5248.0 316 5287.0 286 5287.0 231C5287.0 176 5248.0 146 5197.0 146Z" />
      <path d="M5778.0 476C5633.0 476 5527.0 394 5527.0 230C5527.0 72 5631.0 -15 5807.0 -15C5858.0 -15 5917.0 -7 5979.0 18L5930.0 153C5893.0 138 5854.0 127 5813.0 127C5751.0 127 5713.0 143 5698.0 188H6016.0V220C6016.0 394 5921.0 476 5778.0 476ZM5769.0 357C5807.0 357 5841.0 334 5841.0 283H5694.0C5697.0 333 5731.0 357 5769.0 357Z" />
      <path d="M6311.0 346V186H6592.0V346Z" />
      <path d="M6932.0 700V0H7171.0C7406.0 0 7552.0 132 7552.0 350C7552.0 568 7408.0 700 7171.0 700ZM7172.0 530C7280.0 530 7352.0 470 7352.0 350C7352.0 230 7280.0 170 7172.0 170H7122.0V530Z" />
      <path d="M7801.0 -15C7874.0 -15 7921.0 15 7949.0 59H7951.0V0H8136.0V462H7951.0V403H7949.0C7921.0 447 7874.0 477 7801.0 477C7684.0 477 7582.0 399 7582.0 231C7582.0 63 7684.0 -15 7801.0 -15ZM7857.0 146C7809.0 146 7772.0 178 7772.0 231C7772.0 284 7809.0 316 7857.0 316C7905.0 316 7942.0 284 7942.0 231C7942.0 178 7905.0 146 7857.0 146Z" />
      <path d="M8552.0 462H8454.0V647H8269.0V462H8176.0V310H8269.0V181C8269.0 46 8343.0 0 8444.0 0H8519.0V172H8503.0C8464.0 172 8454.0 186 8454.0 235V310H8552.0Z" />
      <path d="M8791.0 -15C8864.0 -15 8911.0 15 8939.0 59H8941.0V0H9126.0V462H8941.0V403H8939.0C8911.0 447 8864.0 477 8791.0 477C8674.0 477 8572.0 399 8572.0 231C8572.0 63 8674.0 -15 8791.0 -15ZM8847.0 146C8799.0 146 8762.0 178 8762.0 231C8762.0 284 8799.0 316 8847.0 316C8895.0 316 8932.0 284 8932.0 231C8932.0 178 8895.0 146 8847.0 146Z" />
      <path d="M9196.0 188V0H9382.0V188Z" />
    </g>
  </g>
  <g class="line-wrap line-wrap-2" clip-path="url(#clip2)">
    <g fill="currentColor" transform="translate(144.96 38.08) scale(0.026000 -0.026000)">
      <path d="M601.0 700 470.0 395H469.0L338.0 700H197.0L0.0 0H193.0L291.0 349H293.0L407.0 95H532.0L646.0 349H648.0L746.0 0H939.0L742.0 700Z" />
      <path d="M1173.0 -15C1246.0 -15 1293.0 15 1321.0 59H1323.0V0H1508.0V462H1323.0V403H1321.0C1293.0 447 1246.0 477 1173.0 477C1056.0 477 954.0 399 954.0 231C954.0 63 1056.0 -15 1173.0 -15ZM1229.0 146C1181.0 146 1144.0 178 1144.0 231C1144.0 284 1181.0 316 1229.0 316C1277.0 316 1314.0 284 1314.0 231C1314.0 178 1277.0 146 1229.0 146Z" />
      <path d="M1937.0 252 2109.0 462H1886.0L1768.0 291V700H1583.0V0H1768.0V202L1909.0 0H2146.0Z" />
      <path d="M2412.0 476C2267.0 476 2161.0 394 2161.0 230C2161.0 72 2265.0 -15 2441.0 -15C2492.0 -15 2551.0 -7 2613.0 18L2564.0 153C2527.0 138 2488.0 127 2447.0 127C2385.0 127 2347.0 143 2332.0 188H2650.0V220C2650.0 394 2555.0 476 2412.0 476ZM2403.0 357C2441.0 357 2475.0 334 2475.0 283H2328.0C2331.0 333 2365.0 357 2403.0 357Z" />
      <path d="M2948.0 700V527H3137.0V700ZM2950.0 462V0H3135.0V462Z" />
      <path d="M3409.0 477C3292.0 477 3190.0 399 3190.0 231C3190.0 63 3292.0 -15 3409.0 -15C3482.0 -15 3529.0 15 3557.0 59H3559.0V0H3744.0V700H3559.0V403H3557.0C3529.0 447 3482.0 477 3409.0 477ZM3469.0 146C3418.0 146 3379.0 176 3379.0 231C3379.0 286 3418.0 316 3469.0 316C3520.0 316 3559.0 286 3559.0 231C3559.0 176 3520.0 146 3469.0 146Z" />
      <path d="M4050.0 476C3905.0 476 3799.0 394 3799.0 230C3799.0 72 3903.0 -15 4079.0 -15C4130.0 -15 4189.0 -7 4251.0 18L4202.0 153C4165.0 138 4126.0 127 4085.0 127C4023.0 127 3985.0 143 3970.0 188H4288.0V220C4288.0 394 4193.0 476 4050.0 476ZM4041.0 357C4079.0 357 4113.0 334 4113.0 283H3966.0C3969.0 333 4003.0 357 4041.0 357Z" />
      <path d="M4532.0 -15C4605.0 -15 4652.0 15 4680.0 59H4682.0V0H4867.0V462H4682.0V403H4680.0C4652.0 447 4605.0 477 4532.0 477C4415.0 477 4313.0 399 4313.0 231C4313.0 63 4415.0 -15 4532.0 -15ZM4588.0 146C4540.0 146 4503.0 178 4503.0 231C4503.0 284 4540.0 316 4588.0 316C4636.0 316 4673.0 284 4673.0 231C4673.0 178 4636.0 146 4588.0 146Z" />
      <path d="M5133.0 -15C5262.0 -15 5346.0 32 5346.0 145C5346.0 233 5295.0 268 5218.0 293L5135.0 320C5116.0 326 5112.0 331 5112.0 338C5112.0 347 5120.0 351 5140.0 351C5177.0 351 5236.0 338 5289.0 317L5329.0 454C5263.0 469 5207.0 477 5154.0 477C5007.0 477 4942.0 416 4942.0 322C4942.0 241 4990.0 200 5069.0 174L5139.0 151C5160.0 144 5170.0 140 5170.0 129C5170.0 119 5163.0 113 5133.0 114C5077.0 116 5021.0 136 4966.0 166L4907.0 34C4985.0 -5 5074.0 -15 5133.0 -15Z" />
      <path d="M5987.0 462H5889.0V647H5704.0V462H5611.0V310H5704.0V181C5704.0 46 5778.0 0 5879.0 0H5954.0V172H5938.0C5899.0 172 5889.0 186 5889.0 235V310H5987.0Z" />
      <path d="M6226.0 -15C6299.0 -15 6346.0 15 6374.0 59H6376.0V0H6561.0V462H6376.0V403H6374.0C6346.0 447 6299.0 477 6226.0 477C6109.0 477 6007.0 399 6007.0 231C6007.0 63 6109.0 -15 6226.0 -15ZM6282.0 146C6234.0 146 6197.0 178 6197.0 231C6197.0 284 6234.0 316 6282.0 316C6330.0 316 6367.0 284 6367.0 231C6367.0 178 6330.0 146 6282.0 146Z" />
      <path d="M6971.0 477C6902.0 477 6852.0 448 6812.0 393H6810.0V462H6631.0V0H6816.0V224C6816.0 292 6845.0 320 6890.0 320C6935.0 320 6955.0 293 6955.0 239V0H7140.0V290C7140.0 417 7071.0 477 6971.0 477Z" />
      <path d="M7472.0 -215C7665.0 -215 7744.0 -118 7744.0 15V462H7559.0V403H7557.0C7529.0 447 7482.0 477 7409.0 477C7292.0 477 7190.0 398 7190.0 234C7190.0 71 7292.0 0 7412.0 0C7481.0 0 7529.0 30 7557.0 62H7559.0V44C7559.0 -33 7514.0 -52 7445.0 -52C7410.0 -52 7364.0 -47 7294.0 -29L7263.0 -191C7331.0 -205 7410.0 -215 7472.0 -215ZM7465.0 146C7417.0 146 7380.0 178 7380.0 231C7380.0 284 7417.0 316 7465.0 316C7513.0 316 7550.0 284 7550.0 231C7550.0 178 7513.0 146 7465.0 146Z" />
      <path d="M7817.0 700V527H8006.0V700ZM7819.0 462V0H8004.0V462Z" />
      <path d="M8419.0 477C8346.0 477 8299.0 447 8271.0 403H8269.0V700H8084.0V0H8269.0V59H8271.0C8299.0 15 8346.0 -15 8419.0 -15C8536.0 -15 8638.0 63 8638.0 231C8638.0 399 8536.0 477 8419.0 477ZM8359.0 146C8308.0 146 8269.0 176 8269.0 231C8269.0 286 8308.0 316 8359.0 316C8410.0 316 8449.0 286 8449.0 231C8449.0 176 8410.0 146 8359.0 146Z" />
      <path d="M8693.0 700V0H8878.0V700Z" />
      <path d="M9184.0 476C9039.0 476 8933.0 394 8933.0 230C8933.0 72 9037.0 -15 9213.0 -15C9264.0 -15 9323.0 -7 9385.0 18L9336.0 153C9299.0 138 9260.0 127 9219.0 127C9157.0 127 9119.0 143 9104.0 188H9422.0V220C9422.0 394 9327.0 476 9184.0 476ZM9175.0 357C9213.0 357 9247.0 334 9247.0 283H9100.0C9103.0 333 9137.0 357 9175.0 357Z" />
      <path d="M9467.0 188V0H9530.0L9467.0 -177H9540.0L9653.0 0V188Z" />
      <path d="M10319.0 462H10221.0V647H10036.0V462H9943.0V310H10036.0V181C10036.0 46 10110.0 0 10211.0 0H10286.0V172H10270.0C10231.0 172 10221.0 186 10221.0 235V310H10319.0Z" />
      <path d="M10590.0 476C10445.0 476 10339.0 394 10339.0 230C10339.0 72 10443.0 -15 10619.0 -15C10670.0 -15 10729.0 -7 10791.0 18L10742.0 153C10705.0 138 10666.0 127 10625.0 127C10563.0 127 10525.0 143 10510.0 188H10828.0V220C10828.0 394 10733.0 476 10590.0 476ZM10581.0 357C10619.0 357 10653.0 334 10653.0 283H10506.0C10509.0 333 10543.0 357 10581.0 357Z" />
      <path d="M11069.0 -15C11198.0 -15 11282.0 32 11282.0 145C11282.0 233 11231.0 268 11154.0 293L11071.0 320C11052.0 326 11048.0 331 11048.0 338C11048.0 347 11056.0 351 11076.0 351C11113.0 351 11172.0 338 11225.0 317L11265.0 454C11199.0 469 11143.0 477 11090.0 477C10943.0 477 10878.0 416 10878.0 322C10878.0 241 10926.0 200 11005.0 174L11075.0 151C11096.0 144 11106.0 140 11106.0 129C11106.0 119 11099.0 113 11069.0 114C11013.0 116 10957.0 136 10902.0 166L10843.0 34C10921.0 -5 11010.0 -15 11069.0 -15Z" />
      <path d="M11673.0 462H11575.0V647H11390.0V462H11297.0V310H11390.0V181C11390.0 46 11464.0 0 11565.0 0H11640.0V172H11624.0C11585.0 172 11575.0 186 11575.0 235V310H11673.0Z" />
      <path d="M11912.0 -15C11985.0 -15 12032.0 15 12060.0 59H12062.0V0H12247.0V462H12062.0V403H12060.0C12032.0 447 11985.0 477 11912.0 477C11795.0 477 11693.0 399 11693.0 231C11693.0 63 11795.0 -15 11912.0 -15ZM11968.0 146C11920.0 146 11883.0 178 11883.0 231C11883.0 284 11920.0 316 11968.0 316C12016.0 316 12053.0 284 12053.0 231C12053.0 178 12016.0 146 11968.0 146Z" />
      <path d="M12657.0 477C12584.0 477 12537.0 447 12509.0 403H12507.0V700H12322.0V0H12507.0V59H12509.0C12537.0 15 12584.0 -15 12657.0 -15C12774.0 -15 12876.0 63 12876.0 231C12876.0 399 12774.0 477 12657.0 477ZM12597.0 146C12546.0 146 12507.0 176 12507.0 231C12507.0 286 12546.0 316 12597.0 316C12648.0 316 12687.0 286 12687.0 231C12687.0 176 12648.0 146 12597.0 146Z" />
      <path d="M12931.0 700V0H13116.0V700Z" />
      <path d="M13422.0 476C13277.0 476 13171.0 394 13171.0 230C13171.0 72 13275.0 -15 13451.0 -15C13502.0 -15 13561.0 -7 13623.0 18L13574.0 153C13537.0 138 13498.0 127 13457.0 127C13395.0 127 13357.0 143 13342.0 188H13660.0V220C13660.0 394 13565.0 476 13422.0 476ZM13413.0 357C13451.0 357 13485.0 334 13485.0 283H13338.0C13341.0 333 13375.0 357 13413.0 357Z" />
      <path d="M13705.0 188V0H13768.0L13705.0 -177H13778.0L13891.0 0V188Z" />
      <path d="M14410.0 -15C14483.0 -15 14530.0 15 14558.0 59H14560.0V0H14745.0V462H14560.0V403H14558.0C14530.0 447 14483.0 477 14410.0 477C14293.0 477 14191.0 399 14191.0 231C14191.0 63 14293.0 -15 14410.0 -15ZM14466.0 146C14418.0 146 14381.0 178 14381.0 231C14381.0 284 14418.0 316 14466.0 316C14514.0 316 14551.0 284 14551.0 231C14551.0 178 14514.0 146 14466.0 146Z" />
      <path d="M15155.0 477C15086.0 477 15036.0 448 14996.0 393H14994.0V462H14815.0V0H15000.0V224C15000.0 292 15029.0 320 15074.0 320C15119.0 320 15139.0 293 15139.0 239V0H15324.0V290C15324.0 417 15255.0 477 15155.0 477Z" />
      <path d="M15593.0 477C15476.0 477 15374.0 399 15374.0 231C15374.0 63 15476.0 -15 15593.0 -15C15666.0 -15 15713.0 15 15741.0 59H15743.0V0H15928.0V700H15743.0V403H15741.0C15713.0 447 15666.0 477 15593.0 477ZM15653.0 146C15602.0 146 15563.0 176 15563.0 231C15563.0 286 15602.0 316 15653.0 316C15704.0 316 15743.0 286 15743.0 231C15743.0 176 15704.0 146 15653.0 146Z" />
      <path d="M16579.0 476C16515.0 476 16463.0 454 16434.0 376H16432.0V462H16253.0V0H16438.0V169C16438.0 272 16482.0 302 16570.0 302H16581.0V476Z" />
      <path d="M16852.0 476C16707.0 476 16601.0 394 16601.0 230C16601.0 72 16705.0 -15 16881.0 -15C16932.0 -15 16991.0 -7 17053.0 18L17004.0 153C16967.0 138 16928.0 127 16887.0 127C16825.0 127 16787.0 143 16772.0 188H17090.0V220C17090.0 394 16995.0 476 16852.0 476ZM16843.0 357C16881.0 357 16915.0 334 16915.0 283H16768.0C16771.0 333 16805.0 357 16843.0 357Z" />
      <path d="M17316.0 -15C17380.0 -15 17425.0 14 17465.0 71H17467.0V0H17646.0V462H17461.0V244C17461.0 171 17434.0 143 17392.0 143C17357.0 143 17330.0 165 17330.0 220V462H17140.0V165C17140.0 45 17216.0 -15 17316.0 -15Z" />
      <path d="M17917.0 -15C18046.0 -15 18130.0 32 18130.0 145C18130.0 233 18079.0 268 18002.0 293L17919.0 320C17900.0 326 17896.0 331 17896.0 338C17896.0 347 17904.0 351 17924.0 351C17961.0 351 18020.0 338 18073.0 317L18113.0 454C18047.0 469 17991.0 477 17938.0 477C17791.0 477 17726.0 416 17726.0 322C17726.0 241 17774.0 200 17853.0 174L17923.0 151C17944.0 144 17954.0 140 17954.0 129C17954.0 119 17947.0 113 17917.0 114C17861.0 116 17805.0 136 17750.0 166L17691.0 34C17769.0 -5 17858.0 -15 17917.0 -15Z" />
      <path d="M18374.0 -15C18447.0 -15 18494.0 15 18522.0 59H18524.0V0H18709.0V462H18524.0V403H18522.0C18494.0 447 18447.0 477 18374.0 477C18257.0 477 18155.0 399 18155.0 231C18155.0 63 18257.0 -15 18374.0 -15ZM18430.0 146C18382.0 146 18345.0 178 18345.0 231C18345.0 284 18382.0 316 18430.0 316C18478.0 316 18515.0 284 18515.0 231C18515.0 178 18478.0 146 18430.0 146Z" />
      <path d="M19119.0 477C19046.0 477 18999.0 447 18971.0 403H18969.0V700H18784.0V0H18969.0V59H18971.0C18999.0 15 19046.0 -15 19119.0 -15C19236.0 -15 19338.0 63 19338.0 231C19338.0 399 19236.0 477 19119.0 477ZM19059.0 146C19008.0 146 18969.0 176 18969.0 231C18969.0 286 19008.0 316 19059.0 316C19110.0 316 19149.0 286 19149.0 231C19149.0 176 19110.0 146 19059.0 146Z" />
      <path d="M19393.0 700V0H19578.0V700Z" />
      <path d="M19884.0 476C19739.0 476 19633.0 394 19633.0 230C19633.0 72 19737.0 -15 19913.0 -15C19964.0 -15 20023.0 -7 20085.0 18L20036.0 153C19999.0 138 19960.0 127 19919.0 127C19857.0 127 19819.0 143 19804.0 188H20122.0V220C20122.0 394 20027.0 476 19884.0 476ZM19875.0 357C19913.0 357 19947.0 334 19947.0 283H19800.0C19803.0 333 19837.0 357 19875.0 357Z" />
      <path d="M20167.0 188V0H20353.0V188Z" />
    </g>
  </g>
</svg>
