<svg xmlns="http://www.w3.org/2000/svg" width="820" height="44" viewBox="0 0 820 44" role="img" aria-labelledby="title">
  <title id="title">Build from real problems. Agent   Code   Data Make ideas tangible, testable, and reusable.</title>
  <desc>GT Eesti Display Medium Italic typing intro.</desc>
  <defs>
    <style>
    svg { color: #000000; }
    @media (prefers-color-scheme: dark) {
      svg { color: #EDEDED; }
    }
    .clip-rect {
      animation-duration: 9s;
      animation-timing-function: steps(24, end);
      animation-iteration-count: infinite;
    }
    .clip-rect-0 { animation-name: type0; }
    .clip-rect-1 { animation-name: type1; }
    .clip-rect-2 { animation-name: type2; }
    .line-wrap {
      opacity: 0;
      animation-duration: 9s;
      animation-timing-function: linear;
      animation-iteration-count: infinite;
    }
    .line-wrap-0 { animation-name: show0; }
    .line-wrap-1 { animation-name: show1; }
    .line-wrap-2 { animation-name: show2; }
    @keyframes show0 {
      0%, 32.5%, 100% { opacity: 0; }
      1%, 30% { opacity: 1; }
    }
    @keyframes show1 {
      0%, 33%, 65.5%, 100% { opacity: 0; }
      34%, 63% { opacity: 1; }
    }
    @keyframes show2 {
      0%, 66%, 98.5%, 100% { opacity: 0; }
      67%, 96% { opacity: 1; }
    }
    @keyframes type0 {
      0% { width: 0; }
      15% { width: 313.2px; }
      30% { width: 313.2px; }
      32.5%, 100% { width: 0; }
    }
    @keyframes type1 {
      0%, 33% { width: 0; }
      48% { width: 250.8px; }
      63% { width: 250.8px; }
      65.5%, 100% { width: 0; }
    }
    @keyframes type2 {
      0%, 66% { width: 0; }
      81% { width: 553.0px; }
      96% { width: 553.0px; }
      98.5%, 100% { width: 0; }
    }
    </style>
    <clipPath id="clip0">
      <rect class="clip-rect clip-rect-0" x="253.40" y="0" width="0" height="44" />
    </clipPath>
    <clipPath id="clip1">
      <rect class="clip-rect clip-rect-1" x="284.62" y="0" width="0" height="44" />
    </clipPath>
    <clipPath id="clip2">
      <rect class="clip-rect clip-rect-2" x="133.51" y="0" width="0" height="44" />
    </clipPath>
  </defs>
  <g class="line-wrap line-wrap-0" clip-path="url(#clip0)">
    <g fill="currentColor" transform="translate(253.40 29.92) scale(0.028000 -0.028000)">
      <path d="M471.0 372C562.0 396 610.0 459 610.0 539C610.0 640 540.0 700 425.0 700H157.0L21.0 0H319.0C468.0 0 587.0 71 587.0 218C587.0 304 546.0 353 471.0 370ZM386.0 582C447.0 582 475.0 550 475.0 505C475.0 448 424.0 414 365.0 414H229.0L262.0 582ZM171.0 118 207.0 304H348.0C423.0 304 455.0 270 455.0 217C455.0 162 412.0 118 324.0 118Z" />
      <path d="M808.0 -15C875.0 -15 921.0 13 959.0 72H961.0L948.0 0H1069.0L1159.0 462H1035.0L992.0 240C973.0 142 931.0 98 868.0 98C823.0 98 793.0 120 793.0 172C793.0 185 795.0 201 798.0 218L846.0 462H720.0L668.0 202C663.0 172 660.0 151 660.0 131C660.0 33 721.0 -15 808.0 -15Z" />
      <path d="M1305.0 694 1279.0 559H1419.0L1445.0 694ZM1302.0 0 1392.0 462H1269.0L1179.0 0Z" />
      <path d="M1538.0 0 1674.0 700H1551.0L1415.0 0Z" />
      <path d="M2085.0 381H2082.0C2054.0 442 1994.0 477 1915.0 477C1771.0 477 1667.0 364 1667.0 207C1667.0 73 1748.0 -15 1868.0 -15C1928.0 -15 1980.0 11 2021.0 63H2023.0L2011.0 0H2133.0L2269.0 700H2146.0ZM1918.0 99C1844.0 99 1797.0 145 1797.0 216C1797.0 301 1857.0 363 1938.0 363C2011.0 363 2059.0 316 2059.0 244C2059.0 160 1999.0 99 1918.0 99Z" />
      <path d="M2893.0 710C2762.0 710 2689.0 647 2666.0 524L2654.0 462H2576.0L2556.0 359H2634.0L2564.0 0H2687.0L2757.0 359H2850.0L2870.0 462H2777.0L2786.0 508C2799.0 575 2832.0 595 2887.0 595H2896.0L2918.0 710Z" />
      <path d="M2976.0 0 3013.0 189C3035.0 298 3087.0 340 3180.0 340C3191.0 340 3198.0 340 3204.0 339L3231.0 475C3225.0 476 3222.0 476 3213.0 476C3144.0 476 3082.0 448 3048.0 366H3046.0L3065.0 462H2944.0L2854.0 0Z" />
      <path d="M3457.0 -15C3622.0 -15 3735.0 102 3735.0 257C3735.0 398 3638.0 477 3500.0 477C3335.0 477 3222.0 360 3222.0 205C3222.0 64 3319.0 -15 3457.0 -15ZM3466.0 101C3397.0 101 3348.0 139 3348.0 213C3348.0 294 3403.0 361 3491.0 361C3560.0 361 3609.0 323 3609.0 249C3609.0 168 3554.0 101 3466.0 101Z" />
      <path d="M3892.0 0 3937.0 234C3955.0 330 3997.0 366 4051.0 366C4095.0 366 4123.0 344 4123.0 289C4123.0 275 4121.0 259 4117.0 241L4069.0 0H4190.0L4235.0 235C4253.0 327 4290.0 366 4348.0 366C4392.0 366 4420.0 343 4420.0 288C4420.0 276 4419.0 263 4414.0 243L4367.0 0H4490.0L4539.0 248C4547.0 285 4550.0 306 4550.0 330C4550.0 436 4486.0 477 4411.0 477C4340.0 477 4289.0 442 4253.0 381H4251.0C4238.0 443 4189.0 477 4120.0 477C4054.0 477 4004.0 449 3969.0 392H3967.0L3981.0 462H3860.0L3770.0 0Z" />
      <path d="M4993.0 0 5030.0 189C5052.0 298 5104.0 340 5197.0 340C5208.0 340 5215.0 340 5221.0 339L5248.0 475C5242.0 476 5239.0 476 5230.0 476C5161.0 476 5099.0 448 5065.0 366H5063.0L5082.0 462H4961.0L4871.0 0Z" />
      <path d="M5724.0 285C5724.0 407 5642.0 477 5511.0 477C5338.0 477 5240.0 350 5240.0 205C5240.0 69 5330.0 -14 5473.0 -14C5552.0 -14 5620.0 10 5684.0 58L5632.0 152C5587.0 116 5537.0 94 5477.0 94C5400.0 94 5362.0 132 5358.0 205H5714.0C5721.0 239 5724.0 263 5724.0 285ZM5369.0 286C5391.0 345 5440.0 382 5506.0 382C5567.0 382 5604.0 351 5604.0 297C5604.0 293 5603.0 289 5603.0 286Z" />
      <path d="M5974.0 -15C6034.0 -15 6086.0 11 6127.0 63H6129.0L6117.0 0H6239.0L6329.0 462H6206.0L6191.0 381H6188.0C6160.0 442 6100.0 477 6021.0 477C5877.0 477 5773.0 364 5773.0 207C5773.0 73 5854.0 -15 5974.0 -15ZM6024.0 99C5950.0 99 5903.0 145 5903.0 216C5903.0 301 5963.0 363 6044.0 363C6117.0 363 6165.0 316 6165.0 244C6165.0 160 6105.0 99 6024.0 99Z" />
      <path d="M6470.0 0 6606.0 700H6483.0L6347.0 0Z" />
      <path d="M6942.0 -201 6996.0 80H6999.0C7027.0 20 7083.0 -15 7163.0 -15C7312.0 -15 7414.0 103 7414.0 258C7414.0 402 7324.0 477 7217.0 477C7153.0 477 7100.0 449 7062.0 403H7059.0L7071.0 462H6948.0L6819.0 -201ZM7140.0 99C7071.0 99 7023.0 140 7023.0 214C7023.0 296 7082.0 363 7167.0 363C7236.0 363 7284.0 322 7284.0 248C7284.0 166 7225.0 99 7140.0 99Z" />
      <path d="M7572.0 0 7609.0 189C7631.0 298 7683.0 340 7776.0 340C7787.0 340 7794.0 340 7800.0 339L7827.0 475C7821.0 476 7818.0 476 7809.0 476C7740.0 476 7678.0 448 7644.0 366H7642.0L7661.0 462H7540.0L7450.0 0Z" />
      <path d="M8053.0 -15C8218.0 -15 8331.0 102 8331.0 257C8331.0 398 8234.0 477 8096.0 477C7931.0 477 7818.0 360 7818.0 205C7818.0 64 7915.0 -15 8053.0 -15ZM8062.0 101C7993.0 101 7944.0 139 7944.0 213C7944.0 294 7999.0 361 8087.0 361C8156.0 361 8205.0 323 8205.0 249C8205.0 168 8150.0 101 8062.0 101Z" />
      <path d="M8673.0 -15C8825.0 -15 8925.0 105 8925.0 258C8925.0 409 8832.0 477 8727.0 477C8662.0 477 8609.0 447 8572.0 403H8570.0L8628.0 700H8505.0L8369.0 0H8492.0L8507.0 80H8509.0C8537.0 21 8592.0 -15 8673.0 -15ZM8651.0 99C8581.0 99 8533.0 141 8533.0 214C8533.0 290 8585.0 363 8677.0 363C8747.0 363 8795.0 321 8795.0 248C8795.0 172 8742.0 99 8651.0 99Z" />
      <path d="M9085.0 0 9221.0 700H9098.0L8962.0 0Z" />
      <path d="M9698.0 285C9698.0 407 9616.0 477 9485.0 477C9312.0 477 9214.0 350 9214.0 205C9214.0 69 9304.0 -14 9447.0 -14C9526.0 -14 9594.0 10 9658.0 58L9606.0 152C9561.0 116 9511.0 94 9451.0 94C9374.0 94 9336.0 132 9332.0 205H9688.0C9695.0 239 9698.0 263 9698.0 285ZM9343.0 286C9365.0 345 9414.0 382 9480.0 382C9541.0 382 9578.0 351 9578.0 297C9578.0 293 9577.0 289 9577.0 286Z" />
      <path d="M9851.0 0 9896.0 234C9914.0 330 9956.0 366 10010.0 366C10054.0 366 10082.0 344 10082.0 289C10082.0 275 10080.0 259 10076.0 241L10028.0 0H10149.0L10194.0 235C10212.0 327 10249.0 366 10307.0 366C10351.0 366 10379.0 343 10379.0 288C10379.0 276 10378.0 263 10373.0 243L10326.0 0H10449.0L10498.0 248C10506.0 285 10509.0 306 10509.0 330C10509.0 436 10445.0 477 10370.0 477C10299.0 477 10248.0 442 10212.0 381H10210.0C10197.0 443 10148.0 477 10079.0 477C10013.0 477 9963.0 449 9928.0 392H9926.0L9940.0 462H9819.0L9729.0 0Z" />
      <path d="M10524.0 61C10584.0 12 10655.0 -15 10737.0 -15C10847.0 -15 10912.0 36 10912.0 129C10912.0 190 10885.0 226 10829.0 259L10770.0 295C10741.0 313 10730.0 325 10730.0 341C10730.0 362 10745.0 373 10775.0 373C10810.0 373 10854.0 359 10899.0 331L10951.0 425C10891.0 459 10830.0 477 10768.0 477C10666.0 477 10605.0 422 10605.0 338C10605.0 281 10633.0 240 10687.0 206L10751.0 166C10775.0 151 10785.0 139 10785.0 123C10785.0 103 10767.0 90 10736.0 90C10692.0 90 10640.0 113 10587.0 152Z" />
      <path d="M11093.0 0 11120.0 139H10981.0L10955.0 0Z" />
    </g>
  </g>
  <g class="line-wrap line-wrap-1" clip-path="url(#clip1)">
    <g fill="currentColor" transform="translate(284.62 29.92) scale(0.028000 -0.028000)">
      <path d="M649.0 0 505.0 700H371.0L-42.0 0H107.0L196.0 160H487.0L516.0 0ZM416.0 553 467.0 273H260.0Z" />
      <path d="M1142.0 381H1139.0C1111.0 442 1051.0 477 972.0 477C828.0 477 724.0 364 724.0 207C724.0 73 805.0 -15 925.0 -15C985.0 -15 1037.0 11 1078.0 63H1080.0L1069.0 6C1053.0 -71 1017.0 -102 940.0 -102C887.0 -102 827.0 -89 769.0 -65L727.0 -175C797.0 -202 868.0 -215 940.0 -215C1090.0 -215 1161.0 -153 1193.0 12L1280.0 462H1157.0ZM975.0 99C901.0 99 854.0 145 854.0 216C854.0 301 914.0 363 995.0 363C1068.0 363 1116.0 316 1116.0 244C1116.0 160 1056.0 99 975.0 99Z" />
      <path d="M1798.0 285C1798.0 407 1716.0 477 1585.0 477C1412.0 477 1314.0 350 1314.0 205C1314.0 69 1404.0 -14 1547.0 -14C1626.0 -14 1694.0 10 1758.0 58L1706.0 152C1661.0 116 1611.0 94 1551.0 94C1474.0 94 1436.0 132 1432.0 205H1788.0C1795.0 239 1798.0 263 1798.0 285ZM1443.0 286C1465.0 345 1514.0 382 1580.0 382C1641.0 382 1678.0 351 1678.0 297C1678.0 293 1677.0 289 1677.0 286Z" />
      <path d="M1951.0 0 1995.0 226C2015.0 329 2057.0 369 2123.0 369C2177.0 369 2205.0 344 2205.0 288C2205.0 271 2203.0 252 2200.0 235L2154.0 0H2277.0L2326.0 247C2332.0 278 2334.0 308 2334.0 328C2334.0 425 2279.0 477 2189.0 477C2120.0 477 2069.0 448 2028.0 392H2026.0L2040.0 462H1919.0L1829.0 0Z" />
      <path d="M2715.0 359 2735.0 462H2635.0L2671.0 647H2548.0L2512.0 462H2429.0L2409.0 359H2492.0L2450.0 146C2447.0 131 2446.0 117 2446.0 104C2446.0 33 2492.0 -1 2566.0 -1H2614.0L2637.0 113H2617.0C2587.0 113 2575.0 122 2575.0 146C2575.0 151 2576.0 158 2577.0 165L2615.0 359Z" />
      <path d="M3931.0 -15C4023.0 -15 4101.0 12 4172.0 56L4111.0 167C4057.0 135 4001.0 114 3937.0 114C3812.0 114 3731.0 194 3731.0 323C3731.0 469 3831.0 586 3999.0 586C4077.0 586 4132.0 559 4179.0 528L4257.0 639C4190.0 687 4106.0 715 4003.0 715C3753.0 715 3591.0 543 3591.0 322C3591.0 119 3726.0 -15 3931.0 -15Z" />
      <path d="M4486.0 -15C4651.0 -15 4764.0 102 4764.0 257C4764.0 398 4667.0 477 4529.0 477C4364.0 477 4251.0 360 4251.0 205C4251.0 64 4348.0 -15 4486.0 -15ZM4495.0 101C4426.0 101 4377.0 139 4377.0 213C4377.0 294 4432.0 361 4520.0 361C4589.0 361 4638.0 323 4638.0 249C4638.0 168 4583.0 101 4495.0 101Z" />
      <path d="M5235.0 381H5232.0C5204.0 442 5144.0 477 5065.0 477C4921.0 477 4817.0 364 4817.0 207C4817.0 73 4898.0 -15 5018.0 -15C5078.0 -15 5130.0 11 5171.0 63H5173.0L5161.0 0H5283.0L5419.0 700H5296.0ZM5068.0 99C4994.0 99 4947.0 145 4947.0 216C4947.0 301 5007.0 363 5088.0 363C5161.0 363 5209.0 316 5209.0 244C5209.0 160 5149.0 99 5068.0 99Z" />
      <path d="M5896.0 285C5896.0 407 5814.0 477 5683.0 477C5510.0 477 5412.0 350 5412.0 205C5412.0 69 5502.0 -14 5645.0 -14C5724.0 -14 5792.0 10 5856.0 58L5804.0 152C5759.0 116 5709.0 94 5649.0 94C5572.0 94 5534.0 132 5530.0 205H5886.0C5893.0 239 5896.0 263 5896.0 285ZM5541.0 286C5563.0 345 5612.0 382 5678.0 382C5739.0 382 5776.0 351 5776.0 297C5776.0 293 5775.0 289 5775.0 286Z" />
      <path d="M6999.0 0C7265.0 0 7435.0 159 7435.0 389C7435.0 579 7306.0 700 7118.0 700H6906.0L6770.0 0ZM7011.0 582H7107.0C7222.0 582 7298.0 512 7298.0 387C7298.0 224 7180.0 118 7018.0 118H6921.0Z" />
      <path d="M7669.0 -15C7729.0 -15 7781.0 11 7822.0 63H7824.0L7812.0 0H7934.0L8024.0 462H7901.0L7886.0 381H7883.0C7855.0 442 7795.0 477 7716.0 477C7572.0 477 7468.0 364 7468.0 207C7468.0 73 7549.0 -15 7669.0 -15ZM7719.0 99C7645.0 99 7598.0 145 7598.0 216C7598.0 301 7658.0 363 7739.0 363C7812.0 363 7860.0 316 7860.0 244C7860.0 160 7800.0 99 7719.0 99Z" />
      <path d="M8375.0 359 8395.0 462H8295.0L8331.0 647H8208.0L8172.0 462H8089.0L8069.0 359H8152.0L8110.0 146C8107.0 131 8106.0 117 8106.0 104C8106.0 33 8152.0 -1 8226.0 -1H8274.0L8297.0 113H8277.0C8247.0 113 8235.0 122 8235.0 146C8235.0 151 8236.0 158 8237.0 165L8275.0 359Z" />
      <path d="M8594.0 -15C8654.0 -15 8706.0 11 8747.0 63H8749.0L8737.0 0H8859.0L8949.0 462H8826.0L8811.0 381H8808.0C8780.0 442 8720.0 477 8641.0 477C8497.0 477 8393.0 364 8393.0 207C8393.0 73 8474.0 -15 8594.0 -15ZM8644.0 99C8570.0 99 8523.0 145 8523.0 216C8523.0 301 8583.0 363 8664.0 363C8737.0 363 8785.0 316 8785.0 244C8785.0 160 8725.0 99 8644.0 99Z" />
    </g>
  </g>
  <g class="line-wrap line-wrap-2" clip-path="url(#clip2)">
    <g fill="currentColor" transform="translate(133.51 29.92) scale(0.028000 -0.028000)">
      <path d="M101.0 0 284.0 457H286.0L371.0 105H467.0L680.0 460H682.0L710.0 0H837.0L787.0 700H684.0L447.0 294H445.0L357.0 700H254.0L-42.0 0Z" />
      <path d="M1113.0 -15C1173.0 -15 1225.0 11 1266.0 63H1268.0L1256.0 0H1378.0L1468.0 462H1345.0L1330.0 381H1327.0C1299.0 442 1239.0 477 1160.0 477C1016.0 477 912.0 364 912.0 207C912.0 73 993.0 -15 1113.0 -15ZM1163.0 99C1089.0 99 1042.0 145 1042.0 216C1042.0 301 1102.0 363 1183.0 363C1256.0 363 1304.0 316 1304.0 244C1304.0 160 1244.0 99 1163.0 99Z" />
      <path d="M1844.0 462 1662.0 272 1745.0 700H1622.0L1486.0 0H1609.0L1652.0 220L1788.0 0H1939.0L1776.0 241L2006.0 462Z" />
      <path d="M2500.0 285C2500.0 407 2418.0 477 2287.0 477C2114.0 477 2016.0 350 2016.0 205C2016.0 69 2106.0 -14 2249.0 -14C2328.0 -14 2396.0 10 2460.0 58L2408.0 152C2363.0 116 2313.0 94 2253.0 94C2176.0 94 2138.0 132 2134.0 205H2490.0C2497.0 239 2500.0 263 2500.0 285ZM2145.0 286C2167.0 345 2216.0 382 2282.0 382C2343.0 382 2380.0 351 2380.0 297C2380.0 293 2379.0 289 2379.0 286Z" />
      <path d="M2936.0 694 2910.0 559H3050.0L3076.0 694ZM2933.0 0 3023.0 462H2900.0L2810.0 0Z" />
      <path d="M3480.0 381H3477.0C3449.0 442 3389.0 477 3310.0 477C3166.0 477 3062.0 364 3062.0 207C3062.0 73 3143.0 -15 3263.0 -15C3323.0 -15 3375.0 11 3416.0 63H3418.0L3406.0 0H3528.0L3664.0 700H3541.0ZM3313.0 99C3239.0 99 3192.0 145 3192.0 216C3192.0 301 3252.0 363 3333.0 363C3406.0 363 3454.0 316 3454.0 244C3454.0 160 3394.0 99 3313.0 99Z" />
      <path d="M4141.0 285C4141.0 407 4059.0 477 3928.0 477C3755.0 477 3657.0 350 3657.0 205C3657.0 69 3747.0 -14 3890.0 -14C3969.0 -14 4037.0 10 4101.0 58L4049.0 152C4004.0 116 3954.0 94 3894.0 94C3817.0 94 3779.0 132 3775.0 205H4131.0C4138.0 239 4141.0 263 4141.0 285ZM3786.0 286C3808.0 345 3857.0 382 3923.0 382C3984.0 382 4021.0 351 4021.0 297C4021.0 293 4020.0 289 4020.0 286Z" />
      <path d="M4391.0 -15C4451.0 -15 4503.0 11 4544.0 63H4546.0L4534.0 0H4656.0L4746.0 462H4623.0L4608.0 381H4605.0C4577.0 442 4517.0 477 4438.0 477C4294.0 477 4190.0 364 4190.0 207C4190.0 73 4271.0 -15 4391.0 -15ZM4441.0 99C4367.0 99 4320.0 145 4320.0 216C4320.0 301 4380.0 363 4461.0 363C4534.0 363 4582.0 316 4582.0 244C4582.0 160 4522.0 99 4441.0 99Z" />
      <path d="M4733.0 61C4793.0 12 4864.0 -15 4946.0 -15C5056.0 -15 5121.0 36 5121.0 129C5121.0 190 5094.0 226 5038.0 259L4979.0 295C4950.0 313 4939.0 325 4939.0 341C4939.0 362 4954.0 373 4984.0 373C5019.0 373 5063.0 359 5108.0 331L5160.0 425C5100.0 459 5039.0 477 4977.0 477C4875.0 477 4814.0 422 4814.0 338C4814.0 281 4842.0 240 4896.0 206L4960.0 166C4984.0 151 4994.0 139 4994.0 123C4994.0 103 4976.0 90 4945.0 90C4901.0 90 4849.0 113 4796.0 152Z" />
      <path d="M5781.0 359 5801.0 462H5701.0L5737.0 647H5614.0L5578.0 462H5495.0L5475.0 359H5558.0L5516.0 146C5513.0 131 5512.0 117 5512.0 104C5512.0 33 5558.0 -1 5632.0 -1H5680.0L5703.0 113H5683.0C5653.0 113 5641.0 122 5641.0 146C5641.0 151 5642.0 158 5643.0 165L5681.0 359Z" />
      <path d="M6000.0 -15C6060.0 -15 6112.0 11 6153.0 63H6155.0L6143.0 0H6265.0L6355.0 462H6232.0L6217.0 381H6214.0C6186.0 442 6126.0 477 6047.0 477C5903.0 477 5799.0 364 5799.0 207C5799.0 73 5880.0 -15 6000.0 -15ZM6050.0 99C5976.0 99 5929.0 145 5929.0 216C5929.0 301 5989.0 363 6070.0 363C6143.0 363 6191.0 316 6191.0 244C6191.0 160 6131.0 99 6050.0 99Z" />
      <path d="M6493.0 0 6537.0 226C6557.0 329 6599.0 369 6665.0 369C6719.0 369 6747.0 344 6747.0 288C6747.0 271 6745.0 252 6742.0 235L6696.0 0H6819.0L6868.0 247C6874.0 278 6876.0 308 6876.0 328C6876.0 425 6821.0 477 6731.0 477C6662.0 477 6611.0 448 6570.0 392H6568.0L6582.0 462H6461.0L6371.0 0Z" />
      <path d="M7358.0 381H7355.0C7327.0 442 7267.0 477 7188.0 477C7044.0 477 6940.0 364 6940.0 207C6940.0 73 7021.0 -15 7141.0 -15C7201.0 -15 7253.0 11 7294.0 63H7296.0L7285.0 6C7269.0 -71 7233.0 -102 7156.0 -102C7103.0 -102 7043.0 -89 6985.0 -65L6943.0 -175C7013.0 -202 7084.0 -215 7156.0 -215C7306.0 -215 7377.0 -153 7409.0 12L7496.0 462H7373.0ZM7191.0 99C7117.0 99 7070.0 145 7070.0 216C7070.0 301 7130.0 363 7211.0 363C7284.0 363 7332.0 316 7332.0 244C7332.0 160 7272.0 99 7191.0 99Z" />
      <path d="M7640.0 694 7614.0 559H7754.0L7780.0 694ZM7637.0 0 7727.0 462H7604.0L7514.0 0Z" />
      <path d="M8055.0 -15C8207.0 -15 8307.0 105 8307.0 258C8307.0 409 8214.0 477 8109.0 477C8044.0 477 7991.0 447 7954.0 403H7952.0L8010.0 700H7887.0L7751.0 0H7874.0L7889.0 80H7891.0C7919.0 21 7974.0 -15 8055.0 -15ZM8033.0 99C7963.0 99 7915.0 141 7915.0 214C7915.0 290 7967.0 363 8059.0 363C8129.0 363 8177.0 321 8177.0 248C8177.0 172 8124.0 99 8033.0 99Z" />
      <path d="M8467.0 0 8603.0 700H8480.0L8344.0 0Z" />
      <path d="M9080.0 285C9080.0 407 8998.0 477 8867.0 477C8694.0 477 8596.0 350 8596.0 205C8596.0 69 8686.0 -14 8829.0 -14C8908.0 -14 8976.0 10 9040.0 58L8988.0 152C8943.0 116 8893.0 94 8833.0 94C8756.0 94 8718.0 132 8714.0 205H9070.0C9077.0 239 9080.0 263 9080.0 285ZM8725.0 286C8747.0 345 8796.0 382 8862.0 382C8923.0 382 8960.0 351 8960.0 297C8960.0 293 8959.0 289 8959.0 286Z" />
      <path d="M9130.0 -153 9258.0 0 9284.0 139H9147.0L9120.0 0H9174.0L9076.0 -153Z" />
      <path d="M9972.0 359 9992.0 462H9892.0L9928.0 647H9805.0L9769.0 462H9686.0L9666.0 359H9749.0L9707.0 146C9704.0 131 9703.0 117 9703.0 104C9703.0 33 9749.0 -1 9823.0 -1H9871.0L9894.0 113H9874.0C9844.0 113 9832.0 122 9832.0 146C9832.0 151 9833.0 158 9834.0 165L9872.0 359Z" />
      <path d="M10474.0 285C10474.0 407 10392.0 477 10261.0 477C10088.0 477 9990.0 350 9990.0 205C9990.0 69 10080.0 -14 10223.0 -14C10302.0 -14 10370.0 10 10434.0 58L10382.0 152C10337.0 116 10287.0 94 10227.0 94C10150.0 94 10112.0 132 10108.0 205H10464.0C10471.0 239 10474.0 263 10474.0 285ZM10119.0 286C10141.0 345 10190.0 382 10256.0 382C10317.0 382 10354.0 351 10354.0 297C10354.0 293 10353.0 289 10353.0 286Z" />
      <path d="M10476.0 61C10536.0 12 10607.0 -15 10689.0 -15C10799.0 -15 10864.0 36 10864.0 129C10864.0 190 10837.0 226 10781.0 259L10722.0 295C10693.0 313 10682.0 325 10682.0 341C10682.0 362 10697.0 373 10727.0 373C10762.0 373 10806.0 359 10851.0 331L10903.0 425C10843.0 459 10782.0 477 10720.0 477C10618.0 477 10557.0 422 10557.0 338C10557.0 281 10585.0 240 10639.0 206L10703.0 166C10727.0 151 10737.0 139 10737.0 123C10737.0 103 10719.0 90 10688.0 90C10644.0 90 10592.0 113 10539.0 152Z" />
      <path d="M11247.0 359 11267.0 462H11167.0L11203.0 647H11080.0L11044.0 462H10961.0L10941.0 359H11024.0L10982.0 146C10979.0 131 10978.0 117 10978.0 104C10978.0 33 11024.0 -1 11098.0 -1H11146.0L11169.0 113H11149.0C11119.0 113 11107.0 122 11107.0 146C11107.0 151 11108.0 158 11109.0 165L11147.0 359Z" />
      <path d="M11466.0 -15C11526.0 -15 11578.0 11 11619.0 63H11621.0L11609.0 0H11731.0L11821.0 462H11698.0L11683.0 381H11680.0C11652.0 442 11592.0 477 11513.0 477C11369.0 477 11265.0 364 11265.0 207C11265.0 73 11346.0 -15 11466.0 -15ZM11516.0 99C11442.0 99 11395.0 145 11395.0 216C11395.0 301 11455.0 363 11536.0 363C11609.0 363 11657.0 316 11657.0 244C11657.0 160 11597.0 99 11516.0 99Z" />
      <path d="M12144.0 -15C12296.0 -15 12396.0 105 12396.0 258C12396.0 409 12303.0 477 12198.0 477C12133.0 477 12080.0 447 12043.0 403H12041.0L12099.0 700H11976.0L11840.0 0H11963.0L11978.0 80H11980.0C12008.0 21 12063.0 -15 12144.0 -15ZM12122.0 99C12052.0 99 12004.0 141 12004.0 214C12004.0 290 12056.0 363 12148.0 363C12218.0 363 12266.0 321 12266.0 248C12266.0 172 12213.0 99 12122.0 99Z" />
      <path d="M12556.0 0 12692.0 700H12569.0L12433.0 0Z" />
      <path d="M13169.0 285C13169.0 407 13087.0 477 12956.0 477C12783.0 477 12685.0 350 12685.0 205C12685.0 69 12775.0 -14 12918.0 -14C12997.0 -14 13065.0 10 13129.0 58L13077.0 152C13032.0 116 12982.0 94 12922.0 94C12845.0 94 12807.0 132 12803.0 205H13159.0C13166.0 239 13169.0 263 13169.0 285ZM12814.0 286C12836.0 345 12885.0 382 12951.0 382C13012.0 382 13049.0 351 13049.0 297C13049.0 293 13048.0 289 13048.0 286Z" />
      <path d="M13219.0 -153 13347.0 0 13373.0 139H13236.0L13209.0 0H13263.0L13165.0 -153Z" />
      <path d="M13945.0 -15C14005.0 -15 14057.0 11 14098.0 63H14100.0L14088.0 0H14210.0L14300.0 462H14177.0L14162.0 381H14159.0C14131.0 442 14071.0 477 13992.0 477C13848.0 477 13744.0 364 13744.0 207C13744.0 73 13825.0 -15 13945.0 -15ZM13995.0 99C13921.0 99 13874.0 145 13874.0 216C13874.0 301 13934.0 363 14015.0 363C14088.0 363 14136.0 316 14136.0 244C14136.0 160 14076.0 99 13995.0 99Z" />
      <path d="M14438.0 0 14482.0 226C14502.0 329 14544.0 369 14610.0 369C14664.0 369 14692.0 344 14692.0 288C14692.0 271 14690.0 252 14687.0 235L14641.0 0H14764.0L14813.0 247C14819.0 278 14821.0 308 14821.0 328C14821.0 425 14766.0 477 14676.0 477C14607.0 477 14556.0 448 14515.0 392H14513.0L14527.0 462H14406.0L14316.0 0Z" />
      <path d="M15303.0 381H15300.0C15272.0 442 15212.0 477 15133.0 477C14989.0 477 14885.0 364 14885.0 207C14885.0 73 14966.0 -15 15086.0 -15C15146.0 -15 15198.0 11 15239.0 63H15241.0L15229.0 0H15351.0L15487.0 700H15364.0ZM15136.0 99C15062.0 99 15015.0 145 15015.0 216C15015.0 301 15075.0 363 15156.0 363C15229.0 363 15277.0 316 15277.0 244C15277.0 160 15217.0 99 15136.0 99Z" />
      <path d="M15861.0 0 15898.0 189C15920.0 298 15972.0 340 16065.0 340C16076.0 340 16083.0 340 16089.0 339L16116.0 475C16110.0 476 16107.0 476 16098.0 476C16029.0 476 15967.0 448 15933.0 366H15931.0L15950.0 462H15829.0L15739.0 0Z" />
      <path d="M16592.0 285C16592.0 407 16510.0 477 16379.0 477C16206.0 477 16108.0 350 16108.0 205C16108.0 69 16198.0 -14 16341.0 -14C16420.0 -14 16488.0 10 16552.0 58L16500.0 152C16455.0 116 16405.0 94 16345.0 94C16268.0 94 16230.0 132 16226.0 205H16582.0C16589.0 239 16592.0 263 16592.0 285ZM16237.0 286C16259.0 345 16308.0 382 16374.0 382C16435.0 382 16472.0 351 16472.0 297C16472.0 293 16471.0 289 16471.0 286Z" />
      <path d="M16794.0 -15C16861.0 -15 16907.0 13 16945.0 72H16947.0L16934.0 0H17055.0L17145.0 462H17021.0L16978.0 240C16959.0 142 16917.0 98 16854.0 98C16809.0 98 16779.0 120 16779.0 172C16779.0 185 16781.0 201 16784.0 218L16832.0 462H16706.0L16654.0 202C16649.0 172 16646.0 151 16646.0 131C16646.0 33 16707.0 -15 16794.0 -15Z" />
      <path d="M17134.0 61C17194.0 12 17265.0 -15 17347.0 -15C17457.0 -15 17522.0 36 17522.0 129C17522.0 190 17495.0 226 17439.0 259L17380.0 295C17351.0 313 17340.0 325 17340.0 341C17340.0 362 17355.0 373 17385.0 373C17420.0 373 17464.0 359 17509.0 331L17561.0 425C17501.0 459 17440.0 477 17378.0 477C17276.0 477 17215.0 422 17215.0 338C17215.0 281 17243.0 240 17297.0 206L17361.0 166C17385.0 151 17395.0 139 17395.0 123C17395.0 103 17377.0 90 17346.0 90C17302.0 90 17250.0 113 17197.0 152Z" />
      <path d="M17789.0 -15C17849.0 -15 17901.0 11 17942.0 63H17944.0L17932.0 0H18054.0L18144.0 462H18021.0L18006.0 381H18003.0C17975.0 442 17915.0 477 17836.0 477C17692.0 477 17588.0 364 17588.0 207C17588.0 73 17669.0 -15 17789.0 -15ZM17839.0 99C17765.0 99 17718.0 145 17718.0 216C17718.0 301 17778.0 363 17859.0 363C17932.0 363 17980.0 316 17980.0 244C17980.0 160 17920.0 99 17839.0 99Z" />
      <path d="M18467.0 -15C18619.0 -15 18719.0 105 18719.0 258C18719.0 409 18626.0 477 18521.0 477C18456.0 477 18403.0 447 18366.0 403H18364.0L18422.0 700H18299.0L18163.0 0H18286.0L18301.0 80H18303.0C18331.0 21 18386.0 -15 18467.0 -15ZM18445.0 99C18375.0 99 18327.0 141 18327.0 214C18327.0 290 18379.0 363 18471.0 363C18541.0 363 18589.0 321 18589.0 248C18589.0 172 18536.0 99 18445.0 99Z" />
      <path d="M18879.0 0 19015.0 700H18892.0L18756.0 0Z" />
      <path d="M19492.0 285C19492.0 407 19410.0 477 19279.0 477C19106.0 477 19008.0 350 19008.0 205C19008.0 69 19098.0 -14 19241.0 -14C19320.0 -14 19388.0 10 19452.0 58L19400.0 152C19355.0 116 19305.0 94 19245.0 94C19168.0 94 19130.0 132 19126.0 205H19482.0C19489.0 239 19492.0 263 19492.0 285ZM19137.0 286C19159.0 345 19208.0 382 19274.0 382C19335.0 382 19372.0 351 19372.0 297C19372.0 293 19371.0 289 19371.0 286Z" />
      <path d="M19656.0 0 19683.0 139H19544.0L19518.0 0Z" />
    </g>
  </g>
</svg>
