<svg xmlns="http://www.w3.org/2000/svg" width="820" height="44" viewBox="0 0 820 44" role="img" aria-labelledby="title">
  <title id="title">Build from real problems. Agent · Code · Data. Make ideas tangible, testable, and reusable.</title>
  <desc>Smaller Georgia Bold Italic typing intro.</desc>
  <defs>
    <style>

    svg { color: #000000; }
    @media (prefers-color-scheme: dark) {
      svg { color: #EDEDED; }
    }
    .clip-rect {
      animation-duration: 9s;
      animation-timing-function: steps(24, end);
      animation-iteration-count: infinite;
    }
    .clip-rect-0 { animation-name: type0; }
    .clip-rect-1 { animation-name: type1; }
    .clip-rect-2 { animation-name: type2; }
    .line-wrap {
      opacity: 0;
      animation-duration: 9s;
      animation-timing-function: linear;
      animation-iteration-count: infinite;
    }
    .line-wrap-0 { animation-name: show0; }
    .line-wrap-1 { animation-name: show1; }
    .line-wrap-2 { animation-name: show2; }
    @keyframes show0 {
      0%, 32.5%, 100% { opacity: 0; }
      1%, 30% { opacity: 1; }
    }
    @keyframes show1 {
      0%, 33%, 65.5%, 100% { opacity: 0; }
      34%, 63% { opacity: 1; }
    }
    @keyframes show2 {
      0%, 66%, 98.5%, 100% { opacity: 0; }
      67%, 96% { opacity: 1; }
    }
    @keyframes type0 {
      0% { width: 0; }
      15% { width: 285.2px; }
      30% { width: 285.2px; }
      32.5%, 100% { width: 0; }
    }
    @keyframes type1 {
      0%, 33% { width: 0; }
      48% { width: 218.3px; }
      63% { width: 218.3px; }
      65.5%, 100% { width: 0; }
    }
    @keyframes type2 {
      0%, 66% { width: 0; }
      81% { width: 478.8px; }
      96% { width: 478.8px; }
      98.5%, 100% { width: 0; }
    }

    </style>
    <clipPath id="clip0">
      <rect class="clip-rect clip-rect-0" x="271.41" y="0" width="0" height="44" />
    </clipPath>
    <clipPath id="clip1">
      <rect class="clip-rect clip-rect-1" x="304.84" y="0" width="0" height="44" />
    </clipPath>
    <clipPath id="clip2">
      <rect class="clip-rect clip-rect-2" x="174.62" y="0" width="0" height="44" />
    </clipPath>
  </defs>
  <g class="line-wrap line-wrap-0" clip-path="url(#clip0)">
    <g fill="currentColor" transform="translate(271.41 29.92) scale(0.010035 -0.010035)">
      <path d="M1131.0 1142Q1131.0 1241 1068.5 1287.0Q1006.0 1333 904.0 1333Q884.0 1333 857.0 1331.5Q830.0 1330 815.0 1329L691.0 795H758.0Q930.0 795 1030.5 890.5Q1131.0 986 1131.0 1142ZM1053.0 469Q1053.0 584 979.0 645.5Q905.0 707 760.0 707Q740.0 707 710.5 705.5Q681.0 704 670.0 703L548.0 175Q549.0 138 603.0 112.0Q657.0 86 723.0 86Q856.0 86 954.5 193.0Q1053.0 300 1053.0 469ZM1026.0 1419Q1283.0 1419 1403.5 1355.5Q1524.0 1292 1524.0 1161Q1524.0 1074 1485.5 1008.0Q1447.0 942 1384.0 897Q1321.0 851 1238.5 820.0Q1156.0 789 1068.0 771L1064.0 752Q1133.0 745 1204.5 722.5Q1276.0 700 1327.0 665Q1382.0 628 1414.0 575.0Q1446.0 522 1446.0 446Q1446.0 227 1262.5 113.5Q1079.0 0 721.0 0H-55.0L-38.0 73Q-13.0 74 36.5 80.5Q86.0 87 110.0 95Q149.0 108 169.5 134.0Q190.0 160 198.0 195L427.0 1187Q432.0 1208 434.0 1222.0Q436.0 1236 436.0 1243Q436.0 1285 393.5 1308.5Q351.0 1332 255.0 1346L272.0 1419Z" />
      <path d="M2358.0 159H2351.0Q2246.0 63 2151.0 17.0Q2056.0 -29 1931.0 -29Q1820.0 -29 1759.5 32.0Q1699.0 93 1699.0 180Q1699.0 211 1702.5 243.0Q1706.0 275 1721.0 333L1796.0 614Q1803.0 642 1812.5 690.5Q1822.0 739 1822.0 762Q1822.0 817 1799.5 839.5Q1777.0 862 1712.0 862Q1680.0 862 1646.5 852.0Q1613.0 842 1589.0 833L1611.0 923Q1692.0 956 1766.0 979.5Q1840.0 1003 1906.0 1003Q2025.0 1003 2089.5 943.5Q2154.0 884 2154.0 796Q2154.0 778 2150.0 730.0Q2146.0 682 2134.0 641L2061.0 375Q2051.0 340 2045.0 299.5Q2039.0 259 2039.0 241Q2039.0 194 2061.0 166.5Q2083.0 139 2137.0 139Q2176.0 139 2240.5 171.5Q2305.0 204 2368.0 264L2533.0 986L2852.0 1000L2864.0 986L2722.0 371Q2715.0 342 2705.5 294.0Q2696.0 246 2696.0 223Q2696.0 165 2721.5 144.0Q2747.0 123 2811.0 123Q2841.0 123 2879.0 133.5Q2917.0 144 2934.0 152L2912.0 62Q2813.0 23 2754.0 2.5Q2695.0 -18 2617.0 -18Q2507.0 -18 2441.0 31.5Q2375.0 81 2358.0 159Z" />
      <path d="M3671.0 143 3649.0 53Q3550.0 14 3491.0 -6.5Q3432.0 -27 3354.0 -27Q3234.0 -27 3167.5 31.5Q3101.0 90 3101.0 180Q3101.0 215 3106.0 251.5Q3111.0 288 3122.0 334L3204.0 626Q3215.0 668 3222.5 705.5Q3230.0 743 3230.0 774Q3230.0 830 3207.0 852.0Q3184.0 874 3119.0 874Q3087.0 874 3053.5 864.0Q3020.0 854 2996.0 845L3018.0 935Q3099.0 968 3173.0 991.5Q3247.0 1015 3313.0 1015Q3432.0 1015 3496.5 957.5Q3561.0 900 3561.0 808Q3561.0 789 3556.5 741.0Q3552.0 693 3540.0 653L3458.0 362Q3448.0 327 3440.0 282.0Q3432.0 237 3432.0 214Q3432.0 156 3458.0 135.0Q3484.0 114 3548.0 114Q3578.0 114 3616.0 124.5Q3654.0 135 3671.0 143ZM3692.0 1364Q3692.0 1288 3634.5 1234.5Q3577.0 1181 3496.0 1181Q3415.0 1181 3357.0 1234.5Q3299.0 1288 3299.0 1364Q3299.0 1440 3357.0 1494.0Q3415.0 1548 3496.0 1548Q3577.0 1548 3634.5 1494.0Q3692.0 1440 3692.0 1364Z" />
      <path d="M4453.0 1532 4184.0 362Q4177.0 333 4167.5 285.0Q4158.0 237 4158.0 214Q4158.0 156 4187.0 135.0Q4216.0 114 4283.0 114Q4308.0 114 4351.0 124.5Q4394.0 135 4412.0 143L4390.0 53Q4291.0 14 4228.0 -6.5Q4165.0 -27 4085.0 -27Q3965.0 -27 3896.0 31.5Q3827.0 90 3827.0 180Q3827.0 217 3833.5 257.0Q3840.0 297 3848.0 334L4064.0 1273Q4068.0 1290 4070.0 1305.0Q4072.0 1320 4072.0 1330Q4072.0 1366 4060.0 1387.0Q4048.0 1408 4024.0 1421Q4000.0 1434 3969.0 1439.0Q3938.0 1444 3897.0 1448L3915.0 1522L4442.0 1548Z" />
      <path d="M5199.0 125H5191.0Q5156.0 95 5124.0 70.0Q5092.0 45 5042.0 20Q4995.0 -4 4950.5 -17.5Q4906.0 -31 4848.0 -31Q4674.0 -31 4586.0 71.5Q4498.0 174 4498.0 352Q4498.0 489 4546.0 609.0Q4594.0 729 4676.0 820Q4757.0 910 4868.0 962.5Q4979.0 1015 5101.0 1015Q5193.0 1015 5255.0 995.5Q5317.0 976 5358.0 944L5432.0 1269Q5435.0 1283 5437.5 1299.5Q5440.0 1316 5440.0 1326Q5440.0 1359 5423.0 1382.0Q5406.0 1405 5376.0 1418Q5348.0 1431 5312.0 1437.0Q5276.0 1443 5233.0 1448L5251.0 1522L5812.0 1548L5823.0 1532L5554.0 369Q5547.0 340 5537.5 292.5Q5528.0 245 5528.0 221Q5528.0 164 5553.5 142.5Q5579.0 121 5643.0 121Q5671.0 121 5710.5 132.0Q5750.0 143 5766.0 150L5744.0 60Q5645.0 21 5586.0 0.5Q5527.0 -20 5449.0 -20Q5346.0 -20 5284.5 20.5Q5223.0 61 5199.0 125ZM5317.0 765Q5317.0 790 5310.5 816.5Q5304.0 843 5285.0 867Q5266.0 892 5238.0 906.5Q5210.0 921 5162.0 921Q5098.0 921 5042.5 873.5Q4987.0 826 4944.0 744Q4904.0 668 4880.0 563.5Q4856.0 459 4856.0 348Q4856.0 299 4863.5 257.0Q4871.0 215 4888.0 186Q4906.0 155 4936.5 138.0Q4967.0 121 5013.0 121Q5060.0 121 5106.5 148.5Q5153.0 176 5190.0 216Z" />
      <path d="M6930.0 868Q6880.0 621 6843.5 439.5Q6807.0 258 6756.0 60Q6731.0 -37 6673.5 -130.5Q6616.0 -224 6538.0 -292Q6456.0 -364 6360.5 -404.0Q6265.0 -444 6164.0 -444Q6073.0 -444 6016.5 -426.0Q5960.0 -408 5928.0 -380Q5897.0 -352 5886.0 -318.0Q5875.0 -284 5875.0 -251Q5875.0 -193 5916.5 -148.5Q5958.0 -104 6028.0 -104Q6082.0 -104 6121.5 -132.5Q6161.0 -161 6189.0 -201Q6217.0 -240 6238.5 -288.0Q6260.0 -336 6272.0 -363Q6314.0 -317 6351.0 -224.5Q6388.0 -132 6420.0 22L6599.0 868H6405.0L6429.0 971H6621.0L6638.0 1048Q6659.0 1142 6714.5 1232.5Q6770.0 1323 6849.0 1394Q6925.0 1464 7024.5 1508.0Q7124.0 1552 7224.0 1552Q7311.0 1552 7368.5 1535.5Q7426.0 1519 7459.0 1490Q7489.0 1463 7499.5 1429.5Q7510.0 1396 7510.0 1363Q7510.0 1341 7501.5 1314.0Q7493.0 1287 7475.0 1265Q7453.0 1240 7428.5 1226.0Q7404.0 1212 7357.0 1212Q7303.0 1212 7264.0 1240.5Q7225.0 1269 7198.0 1308Q7169.0 1349 7149.0 1396.0Q7129.0 1443 7116.0 1471Q7075.0 1424 7042.0 1334.0Q7009.0 1244 6974.0 1086L6949.0 971H7202.0L7178.0 868Z" />
      <path d="M8196.0 807Q8196.0 762 8183.0 720.0Q8170.0 678 8144.0 648Q8115.0 614 8083.0 597.5Q8051.0 581 7993.0 581Q7918.0 581 7875.0 618.0Q7832.0 655 7832.0 701Q7832.0 744 7844.5 775.0Q7857.0 806 7884.0 869Q7817.0 841 7769.0 800.5Q7721.0 760 7677.0 708L7519.0 0H7188.0L7326.0 615Q7332.0 643 7341.5 688.0Q7351.0 733 7351.0 763Q7351.0 821 7328.5 842.0Q7306.0 863 7242.0 863Q7210.0 863 7176.5 853.0Q7143.0 843 7119.0 834L7141.0 924Q7222.0 957 7296.0 980.5Q7370.0 1004 7436.0 1004Q7554.0 1004 7612.5 957.5Q7671.0 911 7690.0 827H7697.0Q7796.0 932 7865.0 973.5Q7934.0 1015 8013.0 1015Q8098.0 1015 8147.0 961.5Q8196.0 908 8196.0 807Z" />
      <path d="M9418.0 599Q9418.0 473 9370.0 358.0Q9322.0 243 9234.0 158Q9139.0 67 9011.5 17.5Q8884.0 -32 8725.0 -32Q8512.0 -32 8381.0 81.5Q8250.0 195 8250.0 391Q8250.0 524 8299.5 638.0Q8349.0 752 8438.0 837Q8526.0 920 8654.0 968.5Q8782.0 1017 8931.0 1017Q9157.0 1017 9287.5 906.5Q9418.0 796 9418.0 599ZM9066.0 712Q9066.0 829 9026.5 884.0Q8987.0 939 8912.0 939Q8835.0 939 8771.0 877.5Q8707.0 816 8667.0 697Q8632.0 598 8617.0 482.5Q8602.0 367 8602.0 276Q8602.0 155 8642.0 100.5Q8682.0 46 8758.0 46Q8840.0 46 8900.0 113.0Q8960.0 180 8995.0 278Q9030.0 374 9048.0 490.5Q9066.0 607 9066.0 712Z" />
      <path d="M11508.0 153 11486.0 63Q11387.0 24 11328.0 3.5Q11269.0 -17 11191.0 -17Q11072.0 -17 11006.0 42.5Q10940.0 102 10940.0 190Q10940.0 214 10942.5 251.5Q10945.0 289 10959.0 345L11031.0 611Q11042.0 654 11047.5 688.5Q11053.0 723 11053.0 745Q11053.0 793 11029.0 820.0Q11005.0 847 10951.0 847Q10913.0 847 10854.5 813.0Q10796.0 779 10736.0 722L10571.0 0H10240.0L10380.0 610Q10391.0 660 10396.5 691.0Q10402.0 722 10402.0 745Q10402.0 793 10378.0 820.0Q10354.0 847 10299.0 847Q10268.0 847 10213.0 822.0Q10158.0 797 10075.0 722L9910.0 0H9579.0L9721.0 615Q9727.0 643 9736.5 689.0Q9746.0 735 9746.0 763Q9746.0 820 9724.0 841.5Q9702.0 863 9637.0 863Q9605.0 863 9571.5 853.0Q9538.0 843 9514.0 834L9536.0 924Q9617.0 957 9691.0 980.5Q9765.0 1004 9831.0 1004Q9953.0 1004 10007.0 954.5Q10061.0 905 10083.0 827H10090.0Q10190.0 919 10283.0 967.0Q10376.0 1015 10497.0 1015Q10600.0 1015 10666.0 960.0Q10732.0 905 10739.0 824H10746.0Q10853.0 916 10945.0 965.5Q11037.0 1015 11155.0 1015Q11266.0 1015 11329.0 954.0Q11392.0 893 11392.0 806Q11392.0 783 11388.5 741.5Q11385.0 700 11372.0 653L11296.0 372Q11286.0 337 11278.0 292.0Q11270.0 247 11270.0 224Q11270.0 166 11295.5 145.0Q11321.0 124 11385.0 124Q11415.0 124 11453.0 134.5Q11491.0 145 11508.0 153Z" />
      <path d="M13163.0 807Q13163.0 762 13150.0 720.0Q13137.0 678 13111.0 648Q13082.0 614 13050.0 597.5Q13018.0 581 12960.0 581Q12885.0 581 12842.0 618.0Q12799.0 655 12799.0 701Q12799.0 744 12811.5 775.0Q12824.0 806 12851.0 869Q12784.0 841 12736.0 800.5Q12688.0 760 12644.0 708L12486.0 0H12155.0L12293.0 615Q12299.0 643 12308.5 688.0Q12318.0 733 12318.0 763Q12318.0 821 12295.5 842.0Q12273.0 863 12209.0 863Q12177.0 863 12143.5 853.0Q12110.0 843 12086.0 834L12108.0 924Q12189.0 957 12263.0 980.5Q12337.0 1004 12403.0 1004Q12521.0 1004 12579.5 957.5Q12638.0 911 12657.0 827H12664.0Q12763.0 932 12832.0 973.5Q12901.0 1015 12980.0 1015Q13065.0 1015 13114.0 961.5Q13163.0 908 13163.0 807Z" />
      <path d="M13696.0 -33Q13576.0 -33 13485.5 -0.5Q13395.0 32 13336.0 90Q13278.0 148 13249.0 225.0Q13220.0 302 13220.0 395Q13220.0 513 13264.0 624.0Q13308.0 735 13395.0 824Q13477.0 909 13603.0 962.0Q13729.0 1015 13881.0 1015Q14060.0 1015 14153.5 958.0Q14247.0 901 14247.0 787Q14247.0 678 14166.0 599.5Q14085.0 521 13946.0 483Q13836.0 450 13758.5 436.0Q13681.0 422 13569.0 410Q13571.0 366 13581.0 311.0Q13591.0 256 13611.0 217Q13635.0 172 13679.0 145.5Q13723.0 119 13791.0 119Q13909.0 119 13991.5 164.5Q14074.0 210 14149.0 309L14222.0 248Q14132.0 120 13991.5 43.5Q13851.0 -33 13696.0 -33ZM13922.0 759Q13922.0 844 13891.0 889.5Q13860.0 935 13805.0 935Q13728.0 935 13659.5 809.5Q13591.0 684 13572.0 492Q13631.0 499 13689.0 510.0Q13747.0 521 13781.0 536Q13856.0 569 13889.0 621.0Q13922.0 673 13922.0 759Z" />
      <path d="M15051.0 125H15043.0Q15008.0 95 14976.5 70.0Q14945.0 45 14897.0 20Q14855.0 -2 14808.5 -16.5Q14762.0 -31 14706.0 -31Q14532.0 -31 14444.0 71.5Q14356.0 174 14356.0 352Q14356.0 489 14405.0 609.0Q14454.0 729 14536.0 820Q14619.0 910 14730.0 962.5Q14841.0 1015 14964.0 1015Q15054.0 1015 15121.5 994.0Q15189.0 973 15232.0 937L15539.0 1000L15553.0 984L15406.0 369Q15398.0 338 15389.0 291.5Q15380.0 245 15380.0 221Q15380.0 164 15406.0 142.5Q15432.0 121 15496.0 121Q15524.0 121 15563.5 132.0Q15603.0 143 15619.0 150L15597.0 60Q15498.0 21 15438.5 0.5Q15379.0 -20 15301.0 -20Q15198.0 -20 15136.5 20.5Q15075.0 61 15051.0 125ZM15170.0 759Q15170.0 781 15164.0 811.0Q15158.0 841 15143.0 862Q15125.0 888 15096.0 901.5Q15067.0 915 15024.0 915Q14958.0 915 14902.5 867.5Q14847.0 820 14804.0 741Q14762.0 663 14738.0 559.5Q14714.0 456 14714.0 348Q14714.0 299 14721.5 257.0Q14729.0 215 14746.0 186Q14764.0 155 14794.5 138.0Q14825.0 121 14871.0 121Q14918.0 121 14961.5 148.5Q15005.0 176 15042.0 216Z" />
      <path d="M16389.0 1532 16120.0 362Q16113.0 333 16103.5 285.0Q16094.0 237 16094.0 214Q16094.0 156 16123.0 135.0Q16152.0 114 16219.0 114Q16244.0 114 16287.0 124.5Q16330.0 135 16348.0 143L16326.0 53Q16227.0 14 16164.0 -6.5Q16101.0 -27 16021.0 -27Q15901.0 -27 15832.0 31.5Q15763.0 90 15763.0 180Q15763.0 217 15769.5 257.0Q15776.0 297 15784.0 334L16000.0 1273Q16004.0 1290 16006.0 1305.0Q16008.0 1320 16008.0 1330Q16008.0 1366 15996.0 1387.0Q15984.0 1408 15960.0 1421Q15936.0 1434 15905.0 1439.0Q15874.0 1444 15833.0 1448L15851.0 1522L16378.0 1548Z" />
      <path d="M18181.0 632Q18181.0 498 18133.5 376.5Q18086.0 255 18004.0 166Q17919.0 74 17813.0 24.0Q17707.0 -26 17579.0 -26Q17483.0 -26 17424.5 -7.5Q17366.0 11 17323.0 45L17262.0 -221Q17259.0 -233 17256.0 -249.5Q17253.0 -266 17253.0 -273Q17253.0 -296 17263.0 -315.0Q17273.0 -334 17293.0 -343Q17315.0 -353 17364.0 -362.5Q17413.0 -372 17445.0 -374L17429.0 -444H16707.0L16723.0 -374Q16749.0 -372 16788.0 -366.5Q16827.0 -361 16847.0 -355Q16881.0 -344 16899.0 -320.5Q16917.0 -297 16925.0 -257L17123.0 615Q17129.0 644 17138.5 689.0Q17148.0 734 17148.0 763Q17148.0 816 17126.0 839.5Q17104.0 863 17039.0 863Q17009.0 863 16974.0 853.0Q16939.0 843 16916.0 834L16938.0 924Q17019.0 957 17093.0 980.5Q17167.0 1004 17233.0 1004Q17288.0 1004 17330.0 993.5Q17372.0 983 17404.0 960Q17431.0 941 17448.5 914.0Q17466.0 887 17478.0 859H17486.0Q17578.0 939 17665.0 977.0Q17752.0 1015 17832.0 1015Q18006.0 1015 18093.5 912.5Q18181.0 810 18181.0 632ZM17736.0 238Q17779.0 325 17801.0 421.0Q17823.0 517 17823.0 636Q17823.0 685 17816.0 726.5Q17809.0 768 17791.0 798Q17773.0 829 17742.5 846.0Q17712.0 863 17666.0 863Q17613.0 863 17562.0 830.0Q17511.0 797 17487.0 768L17363.0 219Q17363.0 150 17403.0 104.5Q17443.0 59 17518.0 59Q17580.0 59 17637.5 107.0Q17695.0 155 17736.0 238Z" />
      <path d="M19352.0 807Q19352.0 762 19339.0 720.0Q19326.0 678 19300.0 648Q19271.0 614 19239.0 597.5Q19207.0 581 19149.0 581Q19074.0 581 19031.0 618.0Q18988.0 655 18988.0 701Q18988.0 744 19000.5 775.0Q19013.0 806 19040.0 869Q18973.0 841 18925.0 800.5Q18877.0 760 18833.0 708L18675.0 0H18344.0L18482.0 615Q18488.0 643 18497.5 688.0Q18507.0 733 18507.0 763Q18507.0 821 18484.5 842.0Q18462.0 863 18398.0 863Q18366.0 863 18332.5 853.0Q18299.0 843 18275.0 834L18297.0 924Q18378.0 957 18452.0 980.5Q18526.0 1004 18592.0 1004Q18710.0 1004 18768.5 957.5Q18827.0 911 18846.0 827H18853.0Q18952.0 932 19021.0 973.5Q19090.0 1015 19169.0 1015Q19254.0 1015 19303.0 961.5Q19352.0 908 19352.0 807Z" />
      <path d="M20574.0 599Q20574.0 473 20526.0 358.0Q20478.0 243 20390.0 158Q20295.0 67 20167.5 17.5Q20040.0 -32 19881.0 -32Q19668.0 -32 19537.0 81.5Q19406.0 195 19406.0 391Q19406.0 524 19455.5 638.0Q19505.0 752 19594.0 837Q19682.0 920 19810.0 968.5Q19938.0 1017 20087.0 1017Q20313.0 1017 20443.5 906.5Q20574.0 796 20574.0 599ZM20222.0 712Q20222.0 829 20182.5 884.0Q20143.0 939 20068.0 939Q19991.0 939 19927.0 877.5Q19863.0 816 19823.0 697Q19788.0 598 19773.0 482.5Q19758.0 367 19758.0 276Q19758.0 155 19798.0 100.5Q19838.0 46 19914.0 46Q19996.0 46 20056.0 113.0Q20116.0 180 20151.0 278Q20186.0 374 20204.0 490.5Q20222.0 607 20222.0 712Z" />
      <path d="M21905.0 632Q21905.0 496 21859.0 373.5Q21813.0 251 21727.0 163Q21636.0 70 21511.0 19.0Q21386.0 -32 21233.0 -32Q21196.0 -32 21124.0 -24.0Q21052.0 -16 20995.0 4Q20923.0 29 20859.5 75.0Q20796.0 121 20748.0 195L20999.0 1273Q21003.0 1290 21005.0 1305.0Q21007.0 1320 21007.0 1330Q21007.0 1363 20994.5 1385.0Q20982.0 1407 20959.0 1420Q20936.0 1432 20904.5 1438.0Q20873.0 1444 20832.0 1448L20850.0 1522L21377.0 1548L21388.0 1532L21237.0 884H21244.0Q21267.0 903 21294.0 922.5Q21321.0 942 21366.0 966Q21400.0 984 21455.5 999.5Q21511.0 1015 21556.0 1015Q21730.0 1015 21817.5 912.5Q21905.0 810 21905.0 632ZM21547.0 636Q21547.0 685 21540.0 726.5Q21533.0 768 21515.0 798Q21497.0 829 21466.5 846.0Q21436.0 863 21390.0 863Q21339.0 863 21293.0 834.5Q21247.0 806 21211.0 768L21085.0 210Q21085.0 186 21092.0 161.0Q21099.0 136 21119.0 109Q21139.0 81 21163.0 66.0Q21187.0 51 21232.0 51Q21300.0 51 21359.5 101.5Q21419.0 152 21459.0 234Q21503.0 322 21525.0 419.5Q21547.0 517 21547.0 636Z" />
      <path d="M22716.0 1532 22447.0 362Q22440.0 333 22430.5 285.0Q22421.0 237 22421.0 214Q22421.0 156 22450.0 135.0Q22479.0 114 22546.0 114Q22571.0 114 22614.0 124.5Q22657.0 135 22675.0 143L22653.0 53Q22554.0 14 22491.0 -6.5Q22428.0 -27 22348.0 -27Q22228.0 -27 22159.0 31.5Q22090.0 90 22090.0 180Q22090.0 217 22096.5 257.0Q22103.0 297 22111.0 334L22327.0 1273Q22331.0 1290 22333.0 1305.0Q22335.0 1320 22335.0 1330Q22335.0 1366 22323.0 1387.0Q22311.0 1408 22287.0 1421Q22263.0 1434 22232.0 1439.0Q22201.0 1444 22160.0 1448L22178.0 1522L22705.0 1548Z" />
      <path d="M23242.0 -33Q23122.0 -33 23031.5 -0.5Q22941.0 32 22882.0 90Q22824.0 148 22795.0 225.0Q22766.0 302 22766.0 395Q22766.0 513 22810.0 624.0Q22854.0 735 22941.0 824Q23023.0 909 23149.0 962.0Q23275.0 1015 23427.0 1015Q23606.0 1015 23699.5 958.0Q23793.0 901 23793.0 787Q23793.0 678 23712.0 599.5Q23631.0 521 23492.0 483Q23382.0 450 23304.5 436.0Q23227.0 422 23115.0 410Q23117.0 366 23127.0 311.0Q23137.0 256 23157.0 217Q23181.0 172 23225.0 145.5Q23269.0 119 23337.0 119Q23455.0 119 23537.5 164.5Q23620.0 210 23695.0 309L23768.0 248Q23678.0 120 23537.5 43.5Q23397.0 -33 23242.0 -33ZM23468.0 759Q23468.0 844 23437.0 889.5Q23406.0 935 23351.0 935Q23274.0 935 23205.5 809.5Q23137.0 684 23118.0 492Q23177.0 499 23235.0 510.0Q23293.0 521 23327.0 536Q23402.0 569 23435.0 621.0Q23468.0 673 23468.0 759Z" />
      <path d="M25860.0 153 25838.0 63Q25739.0 24 25680.0 3.5Q25621.0 -17 25543.0 -17Q25424.0 -17 25358.0 42.5Q25292.0 102 25292.0 190Q25292.0 214 25294.5 251.5Q25297.0 289 25311.0 345L25383.0 611Q25394.0 654 25399.5 688.5Q25405.0 723 25405.0 745Q25405.0 793 25381.0 820.0Q25357.0 847 25303.0 847Q25265.0 847 25206.5 813.0Q25148.0 779 25088.0 722L24923.0 0H24592.0L24732.0 610Q24743.0 660 24748.5 691.0Q24754.0 722 24754.0 745Q24754.0 793 24730.0 820.0Q24706.0 847 24651.0 847Q24620.0 847 24565.0 822.0Q24510.0 797 24427.0 722L24262.0 0H23931.0L24073.0 615Q24079.0 643 24088.5 689.0Q24098.0 735 24098.0 763Q24098.0 820 24076.0 841.5Q24054.0 863 23989.0 863Q23957.0 863 23923.5 853.0Q23890.0 843 23866.0 834L23888.0 924Q23969.0 957 24043.0 980.5Q24117.0 1004 24183.0 1004Q24305.0 1004 24359.0 954.5Q24413.0 905 24435.0 827H24442.0Q24542.0 919 24635.0 967.0Q24728.0 1015 24849.0 1015Q24952.0 1015 25018.0 960.0Q25084.0 905 25091.0 824H25098.0Q25205.0 916 25297.0 965.5Q25389.0 1015 25507.0 1015Q25618.0 1015 25681.0 954.0Q25744.0 893 25744.0 806Q25744.0 783 25740.5 741.5Q25737.0 700 25724.0 653L25648.0 372Q25638.0 337 25630.0 292.0Q25622.0 247 25622.0 224Q25622.0 166 25647.5 145.0Q25673.0 124 25737.0 124Q25767.0 124 25805.0 134.5Q25843.0 145 25860.0 153Z" />
      <path d="M26324.0 -33Q26198.0 -33 26115.5 -12.5Q26033.0 8 25985.0 40Q25936.0 72 25918.0 108.5Q25900.0 145 25900.0 177Q25900.0 235 25943.5 278.5Q25987.0 322 26059.0 322Q26119.0 322 26159.5 291.0Q26200.0 260 26227.0 213Q26252.0 170 26269.0 118.0Q26286.0 66 26293.0 41Q26406.0 41 26464.0 89.5Q26522.0 138 26522.0 222Q26522.0 259 26504.5 284.0Q26487.0 309 26458.0 328Q26429.0 346 26384.0 363.0Q26339.0 380 26295.0 395Q26174.0 436 26103.5 508.5Q26033.0 581 26033.0 689Q26033.0 753 26062.5 809.5Q26092.0 866 26155.0 914Q26217.0 960 26312.0 987.5Q26407.0 1015 26534.0 1015Q26610.0 1015 26675.0 1006.0Q26740.0 997 26796.0 973Q26849.0 949 26878.5 910.5Q26908.0 872 26908.0 817Q26908.0 762 26866.5 722.5Q26825.0 683 26758.0 683Q26700.0 683 26661.5 713.0Q26623.0 743 26599.0 784Q26575.0 826 26561.0 870.5Q26547.0 915 26538.0 945Q26468.0 941 26410.5 894.5Q26353.0 848 26353.0 779Q26353.0 737 26366.5 713.0Q26380.0 689 26403.0 673Q26429.0 655 26468.5 639.5Q26508.0 624 26567.0 604Q26703.0 556 26772.0 489.0Q26841.0 422 26841.0 312Q26841.0 240 26807.5 174.0Q26774.0 108 26712.0 64Q26643.0 16 26553.0 -8.5Q26463.0 -33 26324.0 -33Z" />
      <path d="M27452.0 166Q27452.0 87 27393.5 29.0Q27335.0 -29 27255.0 -29Q27174.0 -29 27115.5 28.5Q27057.0 86 27057.0 166Q27057.0 246 27115.5 304.5Q27174.0 363 27255.0 363Q27335.0 363 27393.5 304.0Q27452.0 245 27452.0 166Z" />
    </g>
  </g>
  <g class="line-wrap line-wrap-1" clip-path="url(#clip1)">
    <g fill="currentColor" transform="translate(304.84 29.92) scale(0.010035 -0.010035)">
      <path d="M892.0 571 805.0 1088 481.0 571ZM732.0 0 749.0 73Q852.0 81 909.5 98.5Q967.0 116 967.0 137Q967.0 155 965.0 168.0Q963.0 181 960.0 198L910.0 477H421.0Q397.0 440 360.5 379.5Q324.0 319 299.0 276Q261.0 208 254.5 183.0Q248.0 158 248.0 151Q248.0 121 295.0 101.5Q342.0 82 439.0 73L422.0 0H-174.0L-157.0 73Q-128.0 75 -84.0 83.0Q-40.0 91 -10.0 107Q32.0 129 69.0 164.0Q106.0 199 138.0 249Q341.0 561 511.0 825.5Q681.0 1090 905.0 1439H1103.0Q1180.0 991 1230.5 698.0Q1281.0 405 1319.0 208Q1324.0 178 1338.5 153.5Q1353.0 129 1385.0 107Q1409.0 91 1443.5 83.0Q1478.0 75 1508.0 73L1491.0 0Z" />
      <path d="M2303.0 105H2295.0Q2270.0 85 2237.0 62.0Q2204.0 39 2166.0 22Q2120.0 0 2080.0 -11.5Q2040.0 -23 1979.0 -23Q1805.0 -23 1711.5 79.0Q1618.0 181 1618.0 359Q1618.0 494 1666.0 612.5Q1714.0 731 1796.0 822Q1877.0 911 1987.5 963.0Q2098.0 1015 2221.0 1015Q2311.0 1015 2380.0 996.0Q2449.0 977 2499.0 937L2804.0 1000L2818.0 984L2648.0 171Q2608.0 -11 2537.0 -129.5Q2466.0 -248 2372.0 -318Q2276.0 -389 2171.5 -416.5Q2067.0 -444 1952.0 -444Q1829.0 -444 1751.5 -425.5Q1674.0 -407 1633.0 -378Q1593.0 -350 1578.5 -315.5Q1564.0 -281 1564.0 -248Q1564.0 -191 1604.5 -145.5Q1645.0 -100 1717.0 -100Q1771.0 -100 1813.5 -129.0Q1856.0 -158 1888.0 -199Q1917.0 -236 1942.0 -284.5Q1967.0 -333 1980.0 -363Q2026.0 -355 2071.5 -337.0Q2117.0 -319 2159.0 -269Q2199.0 -221 2235.5 -136.0Q2272.0 -51 2303.0 105ZM2437.0 760Q2437.0 785 2430.5 811.5Q2424.0 838 2405.0 862Q2386.0 887 2358.0 901.5Q2330.0 916 2282.0 916Q2217.0 916 2162.0 869.5Q2107.0 823 2065.0 745Q2024.0 668 2000.0 565.5Q1976.0 463 1976.0 354Q1976.0 306 1984.5 265.5Q1993.0 225 2014.0 193Q2035.0 161 2068.5 145.0Q2102.0 129 2144.0 129Q2193.0 129 2244.5 159.0Q2296.0 189 2327.0 223Z" />
      <path d="M3429.0 -33Q3309.0 -33 3218.5 -0.5Q3128.0 32 3069.0 90Q3011.0 148 2982.0 225.0Q2953.0 302 2953.0 395Q2953.0 513 2997.0 624.0Q3041.0 735 3128.0 824Q3210.0 909 3336.0 962.0Q3462.0 1015 3614.0 1015Q3793.0 1015 3886.5 958.0Q3980.0 901 3980.0 787Q3980.0 678 3899.0 599.5Q3818.0 521 3679.0 483Q3569.0 450 3491.5 436.0Q3414.0 422 3302.0 410Q3304.0 366 3314.0 311.0Q3324.0 256 3344.0 217Q3368.0 172 3412.0 145.5Q3456.0 119 3524.0 119Q3642.0 119 3724.5 164.5Q3807.0 210 3882.0 309L3955.0 248Q3865.0 120 3724.5 43.5Q3584.0 -33 3429.0 -33ZM3655.0 759Q3655.0 844 3624.0 889.5Q3593.0 935 3538.0 935Q3461.0 935 3392.5 809.5Q3324.0 684 3305.0 492Q3364.0 499 3422.0 510.0Q3480.0 521 3514.0 536Q3589.0 569 3622.0 621.0Q3655.0 673 3655.0 759Z" />
      <path d="M5408.0 153 5386.0 63Q5287.0 24 5228.0 3.5Q5169.0 -17 5091.0 -17Q4972.0 -17 4906.0 42.5Q4840.0 102 4840.0 190Q4840.0 214 4842.5 251.5Q4845.0 289 4859.0 345L4931.0 611Q4942.0 654 4947.5 688.5Q4953.0 723 4953.0 745Q4953.0 793 4930.0 820.0Q4907.0 847 4852.0 847Q4818.0 847 4755.0 820.5Q4692.0 794 4614.0 722L4449.0 0H4118.0L4260.0 615Q4266.0 643 4275.5 688.0Q4285.0 733 4285.0 763Q4285.0 820 4261.5 841.5Q4238.0 863 4176.0 863Q4144.0 863 4110.5 853.0Q4077.0 843 4053.0 834L4075.0 924Q4156.0 957 4230.0 980.5Q4304.0 1004 4370.0 1004Q4488.0 1004 4546.5 957.5Q4605.0 911 4624.0 827H4631.0Q4729.0 916 4833.5 965.5Q4938.0 1015 5056.0 1015Q5167.0 1015 5229.5 954.0Q5292.0 893 5292.0 806Q5292.0 783 5288.5 741.5Q5285.0 700 5272.0 653L5196.0 372Q5186.0 337 5178.0 292.0Q5170.0 247 5170.0 224Q5170.0 166 5195.5 145.0Q5221.0 124 5285.0 124Q5315.0 124 5353.0 134.5Q5391.0 145 5408.0 153Z" />
      <path d="M5845.0 -26Q5725.0 -26 5653.0 32.5Q5581.0 91 5581.0 181Q5581.0 218 5586.0 251.0Q5591.0 284 5602.0 336L5726.0 868H5543.0L5567.0 971H5754.0L5826.0 1274H6150.0L6080.0 971H6351.0L6327.0 868H6057.0L5935.0 336Q5928.0 308 5921.5 268.0Q5915.0 228 5915.0 216Q5915.0 159 5946.5 137.0Q5978.0 115 6043.0 115Q6074.0 115 6128.5 127.0Q6183.0 139 6205.0 147L6183.0 57Q6095.0 18 6006.5 -4.0Q5918.0 -26 5845.0 -26Z" />
      <path d="M7375.0 546Q7375.0 467 7316.5 409.0Q7258.0 351 7178.0 351Q7097.0 351 7038.5 408.5Q6980.0 466 6980.0 546Q6980.0 626 7038.5 684.5Q7097.0 743 7178.0 743Q7258.0 743 7316.5 684.0Q7375.0 625 7375.0 546Z" />
      <path d="M8744.0 -38Q8607.0 -38 8490.0 2.5Q8373.0 43 8288.0 119Q8204.0 195 8157.0 304.5Q8110.0 414 8110.0 552Q8110.0 735 8177.5 897.0Q8245.0 1059 8368.0 1186Q8486.0 1308 8656.5 1382.5Q8827.0 1457 9019.0 1457Q9135.0 1457 9254.0 1429.0Q9373.0 1401 9432.0 1364L9507.0 1419H9594.0L9483.0 901H9395.0Q9375.0 1128 9274.5 1246.5Q9174.0 1365 9016.0 1365Q8900.0 1365 8802.0 1296.0Q8704.0 1227 8628.0 1084Q8566.0 966 8533.5 810.5Q8501.0 655 8501.0 519Q8501.0 319 8598.0 208.0Q8695.0 97 8858.0 97Q9001.0 97 9123.0 177.0Q9245.0 257 9358.0 408L9435.0 356Q9386.0 280 9318.0 206.5Q9250.0 133 9163.0 79Q9072.0 22 8975.5 -8.0Q8879.0 -38 8744.0 -38Z" />
      <path d="M10723.0 599Q10723.0 473 10675.0 358.0Q10627.0 243 10539.0 158Q10444.0 67 10316.5 17.5Q10189.0 -32 10030.0 -32Q9817.0 -32 9686.0 81.5Q9555.0 195 9555.0 391Q9555.0 524 9604.5 638.0Q9654.0 752 9743.0 837Q9831.0 920 9959.0 968.5Q10087.0 1017 10236.0 1017Q10462.0 1017 10592.5 906.5Q10723.0 796 10723.0 599ZM10371.0 712Q10371.0 829 10331.5 884.0Q10292.0 939 10217.0 939Q10140.0 939 10076.0 877.5Q10012.0 816 9972.0 697Q9937.0 598 9922.0 482.5Q9907.0 367 9907.0 276Q9907.0 155 9947.0 100.5Q9987.0 46 10063.0 46Q10145.0 46 10205.0 113.0Q10265.0 180 10300.0 278Q10335.0 374 10353.0 490.5Q10371.0 607 10371.0 712Z" />
      <path d="M11556.0 125H11548.0Q11513.0 95 11481.0 70.0Q11449.0 45 11399.0 20Q11352.0 -4 11307.5 -17.5Q11263.0 -31 11205.0 -31Q11031.0 -31 10943.0 71.5Q10855.0 174 10855.0 352Q10855.0 489 10903.0 609.0Q10951.0 729 11033.0 820Q11114.0 910 11225.0 962.5Q11336.0 1015 11458.0 1015Q11550.0 1015 11612.0 995.5Q11674.0 976 11715.0 944L11789.0 1269Q11792.0 1283 11794.5 1299.5Q11797.0 1316 11797.0 1326Q11797.0 1359 11780.0 1382.0Q11763.0 1405 11733.0 1418Q11705.0 1431 11669.0 1437.0Q11633.0 1443 11590.0 1448L11608.0 1522L12169.0 1548L12180.0 1532L11911.0 369Q11904.0 340 11894.5 292.5Q11885.0 245 11885.0 221Q11885.0 164 11910.5 142.5Q11936.0 121 12000.0 121Q12028.0 121 12067.5 132.0Q12107.0 143 12123.0 150L12101.0 60Q12002.0 21 11943.0 0.5Q11884.0 -20 11806.0 -20Q11703.0 -20 11641.5 20.5Q11580.0 61 11556.0 125ZM11674.0 765Q11674.0 790 11667.5 816.5Q11661.0 843 11642.0 867Q11623.0 892 11595.0 906.5Q11567.0 921 11519.0 921Q11455.0 921 11399.5 873.5Q11344.0 826 11301.0 744Q11261.0 668 11237.0 563.5Q11213.0 459 11213.0 348Q11213.0 299 11220.5 257.0Q11228.0 215 11245.0 186Q11263.0 155 11293.5 138.0Q11324.0 121 11370.0 121Q11417.0 121 11463.5 148.5Q11510.0 176 11547.0 216Z" />
      <path d="M12693.0 -33Q12573.0 -33 12482.5 -0.5Q12392.0 32 12333.0 90Q12275.0 148 12246.0 225.0Q12217.0 302 12217.0 395Q12217.0 513 12261.0 624.0Q12305.0 735 12392.0 824Q12474.0 909 12600.0 962.0Q12726.0 1015 12878.0 1015Q13057.0 1015 13150.5 958.0Q13244.0 901 13244.0 787Q13244.0 678 13163.0 599.5Q13082.0 521 12943.0 483Q12833.0 450 12755.5 436.0Q12678.0 422 12566.0 410Q12568.0 366 12578.0 311.0Q12588.0 256 12608.0 217Q12632.0 172 12676.0 145.5Q12720.0 119 12788.0 119Q12906.0 119 12988.5 164.5Q13071.0 210 13146.0 309L13219.0 248Q13129.0 120 12988.5 43.5Q12848.0 -33 12693.0 -33ZM12919.0 759Q12919.0 844 12888.0 889.5Q12857.0 935 12802.0 935Q12725.0 935 12656.5 809.5Q12588.0 684 12569.0 492Q12628.0 499 12686.0 510.0Q12744.0 521 12778.0 536Q12853.0 569 12886.0 621.0Q12919.0 673 12919.0 759Z" />
      <path d="M14372.0 546Q14372.0 467 14313.5 409.0Q14255.0 351 14175.0 351Q14094.0 351 14035.5 408.5Q13977.0 466 13977.0 546Q13977.0 626 14035.5 684.5Q14094.0 743 14175.0 743Q14255.0 743 14313.5 684.0Q14372.0 625 14372.0 546Z" />
      <path d="M16468.0 1304Q16579.0 1235 16642.0 1123.5Q16705.0 1012 16705.0 860Q16705.0 670 16630.0 509.0Q16555.0 348 16418.0 235Q16282.0 121 16102.0 60.5Q15922.0 0 15705.0 0H14965.0L14982.0 73Q15007.0 74 15056.5 79.5Q15106.0 85 15130.0 93Q15169.0 106 15189.5 133.0Q15210.0 160 15218.0 195L15447.0 1187Q15452.0 1208 15454.0 1222.0Q15456.0 1236 15456.0 1243Q15456.0 1285 15413.5 1308.5Q15371.0 1332 15275.0 1346L15292.0 1419H16019.0Q16131.0 1419 16249.5 1392.5Q16368.0 1366 16468.0 1304ZM16172.0 349Q16243.0 470 16277.0 612.5Q16311.0 755 16311.0 910Q16311.0 1104 16223.0 1218.5Q16135.0 1333 15958.0 1333Q15923.0 1333 15888.5 1331.5Q15854.0 1330 15834.0 1329L15589.0 264Q15585.0 249 15582.0 227.5Q15579.0 206 15579.0 197Q15579.0 134 15625.5 110.0Q15672.0 86 15756.0 86Q15892.0 86 15997.5 158.0Q16103.0 230 16172.0 349Z" />
      <path d="M17488.0 125H17480.0Q17445.0 95 17413.5 70.0Q17382.0 45 17334.0 20Q17292.0 -2 17245.5 -16.5Q17199.0 -31 17143.0 -31Q16969.0 -31 16881.0 71.5Q16793.0 174 16793.0 352Q16793.0 489 16842.0 609.0Q16891.0 729 16973.0 820Q17056.0 910 17167.0 962.5Q17278.0 1015 17401.0 1015Q17491.0 1015 17558.5 994.0Q17626.0 973 17669.0 937L17976.0 1000L17990.0 984L17843.0 369Q17835.0 338 17826.0 291.5Q17817.0 245 17817.0 221Q17817.0 164 17843.0 142.5Q17869.0 121 17933.0 121Q17961.0 121 18000.5 132.0Q18040.0 143 18056.0 150L18034.0 60Q17935.0 21 17875.5 0.5Q17816.0 -20 17738.0 -20Q17635.0 -20 17573.5 20.5Q17512.0 61 17488.0 125ZM17607.0 759Q17607.0 781 17601.0 811.0Q17595.0 841 17580.0 862Q17562.0 888 17533.0 901.5Q17504.0 915 17461.0 915Q17395.0 915 17339.5 867.5Q17284.0 820 17241.0 741Q17199.0 663 17175.0 559.5Q17151.0 456 17151.0 348Q17151.0 299 17158.5 257.0Q17166.0 215 17183.0 186Q17201.0 155 17231.5 138.0Q17262.0 121 17308.0 121Q17355.0 121 17398.5 148.5Q17442.0 176 17479.0 216Z" />
      <path d="M18488.0 -26Q18368.0 -26 18296.0 32.5Q18224.0 91 18224.0 181Q18224.0 218 18229.0 251.0Q18234.0 284 18245.0 336L18369.0 868H18186.0L18210.0 971H18397.0L18469.0 1274H18793.0L18723.0 971H18994.0L18970.0 868H18700.0L18578.0 336Q18571.0 308 18564.5 268.0Q18558.0 228 18558.0 216Q18558.0 159 18589.5 137.0Q18621.0 115 18686.0 115Q18717.0 115 18771.5 127.0Q18826.0 139 18848.0 147L18826.0 57Q18738.0 18 18649.5 -4.0Q18561.0 -26 18488.0 -26Z" />
      <path d="M19694.0 125H19686.0Q19651.0 95 19619.5 70.0Q19588.0 45 19540.0 20Q19498.0 -2 19451.5 -16.5Q19405.0 -31 19349.0 -31Q19175.0 -31 19087.0 71.5Q18999.0 174 18999.0 352Q18999.0 489 19048.0 609.0Q19097.0 729 19179.0 820Q19262.0 910 19373.0 962.5Q19484.0 1015 19607.0 1015Q19697.0 1015 19764.5 994.0Q19832.0 973 19875.0 937L20182.0 1000L20196.0 984L20049.0 369Q20041.0 338 20032.0 291.5Q20023.0 245 20023.0 221Q20023.0 164 20049.0 142.5Q20075.0 121 20139.0 121Q20167.0 121 20206.5 132.0Q20246.0 143 20262.0 150L20240.0 60Q20141.0 21 20081.5 0.5Q20022.0 -20 19944.0 -20Q19841.0 -20 19779.5 20.5Q19718.0 61 19694.0 125ZM19813.0 759Q19813.0 781 19807.0 811.0Q19801.0 841 19786.0 862Q19768.0 888 19739.0 901.5Q19710.0 915 19667.0 915Q19601.0 915 19545.5 867.5Q19490.0 820 19447.0 741Q19405.0 663 19381.0 559.5Q19357.0 456 19357.0 348Q19357.0 299 19364.5 257.0Q19372.0 215 19389.0 186Q19407.0 155 19437.5 138.0Q19468.0 121 19514.0 121Q19561.0 121 19604.5 148.5Q19648.0 176 19685.0 216Z" />
      <path d="M20790.0 166Q20790.0 87 20731.5 29.0Q20673.0 -29 20593.0 -29Q20512.0 -29 20453.5 28.5Q20395.0 86 20395.0 166Q20395.0 246 20453.5 304.5Q20512.0 363 20593.0 363Q20673.0 363 20731.5 304.0Q20790.0 245 20790.0 166Z" />
    </g>
  </g>
  <g class="line-wrap line-wrap-2" clip-path="url(#clip2)">
    <g fill="currentColor" transform="translate(174.62 29.92) scale(0.010035 -0.010035)">
      <path d="M2246.0 1419 2229.0 1346Q2198.0 1344 2152.0 1336.0Q2106.0 1328 2082.0 1321Q2041.0 1308 2021.5 1280.0Q2002.0 1252 1994.0 1219L1771.0 226Q1768.0 211 1765.0 196.0Q1762.0 181 1762.0 171Q1762.0 126 1799.0 105.0Q1836.0 84 1944.0 73L1927.0 0H1160.0L1177.0 73Q1217.0 78 1259.0 84.0Q1301.0 90 1323.0 98Q1364.0 113 1386.0 138.5Q1408.0 164 1417.0 205L1657.0 1270H1647.0L876.0 23H750.0Q748.0 62 736.0 148.5Q724.0 235 714.0 311L578.0 1286H568.0L368.0 417Q356.0 367 349.0 319.5Q342.0 272 342.0 235Q342.0 195 350.5 172.5Q359.0 150 374.0 135Q395.0 114 452.5 95.5Q510.0 77 538.0 73L521.0 0H-89.0L-72.0 73Q-46.0 76 13.0 86.5Q72.0 97 114.0 123Q159.0 151 188.5 215.5Q218.0 280 247.0 407L409.0 1108Q417.0 1144 419.5 1163.0Q422.0 1182 422.0 1200Q422.0 1231 413.5 1254.0Q405.0 1277 388.0 1294Q357.0 1324 315.0 1333.5Q273.0 1343 233.0 1346L250.0 1419H899.0L1035.0 482L1500.0 1243Q1531.0 1295 1556.0 1350.0Q1581.0 1405 1585.0 1419Z" />
      <path d="M2876.0 125H2868.0Q2833.0 95 2801.5 70.0Q2770.0 45 2722.0 20Q2680.0 -2 2633.5 -16.5Q2587.0 -31 2531.0 -31Q2357.0 -31 2269.0 71.5Q2181.0 174 2181.0 352Q2181.0 489 2230.0 609.0Q2279.0 729 2361.0 820Q2444.0 910 2555.0 962.5Q2666.0 1015 2789.0 1015Q2879.0 1015 2946.5 994.0Q3014.0 973 3057.0 937L3364.0 1000L3378.0 984L3231.0 369Q3223.0 338 3214.0 291.5Q3205.0 245 3205.0 221Q3205.0 164 3231.0 142.5Q3257.0 121 3321.0 121Q3349.0 121 3388.5 132.0Q3428.0 143 3444.0 150L3422.0 60Q3323.0 21 3263.5 0.5Q3204.0 -20 3126.0 -20Q3023.0 -20 2961.5 20.5Q2900.0 61 2876.0 125ZM2995.0 759Q2995.0 781 2989.0 811.0Q2983.0 841 2968.0 862Q2950.0 888 2921.0 901.5Q2892.0 915 2849.0 915Q2783.0 915 2727.5 867.5Q2672.0 820 2629.0 741Q2587.0 663 2563.0 559.5Q2539.0 456 2539.0 348Q2539.0 299 2546.5 257.0Q2554.0 215 2571.0 186Q2589.0 155 2619.5 138.0Q2650.0 121 2696.0 121Q2743.0 121 2786.5 148.5Q2830.0 176 2867.0 216Z" />
      <path d="M4765.0 858Q4765.0 787 4713.5 732.0Q4662.0 677 4586.0 677Q4523.0 677 4469.0 705.5Q4415.0 734 4374.0 765Q4354.0 752 4335.0 739.5Q4316.0 727 4256.0 675Q4302.0 559 4357.0 420.0Q4412.0 281 4440.0 228Q4473.0 165 4502.5 139.0Q4532.0 113 4606.0 113Q4632.0 113 4671.0 123.0Q4710.0 133 4735.0 143L4713.0 53Q4614.0 11 4540.0 -8.0Q4466.0 -27 4408.0 -27Q4380.0 -27 4337.5 -23.0Q4295.0 -19 4264.0 -5Q4225.0 13 4192.5 45.0Q4160.0 77 4129.0 147Q4085.0 246 4066.5 298.5Q4048.0 351 4015.0 441L3949.0 379L3863.0 0H3532.0L3826.0 1273Q3830.0 1290 3832.0 1305.0Q3834.0 1320 3834.0 1330Q3834.0 1366 3822.0 1387.0Q3810.0 1408 3786.0 1421Q3762.0 1434 3731.0 1439.0Q3700.0 1444 3659.0 1448L3677.0 1522L4204.0 1548L4215.0 1532L3975.0 492H3983.0Q4103.0 627 4172.5 698.5Q4242.0 770 4323.0 849Q4421.0 944 4479.5 979.5Q4538.0 1015 4609.0 1015Q4681.0 1015 4723.0 975.0Q4765.0 935 4765.0 858Z" />
      <path d="M5327.0 -33Q5207.0 -33 5116.5 -0.5Q5026.0 32 4967.0 90Q4909.0 148 4880.0 225.0Q4851.0 302 4851.0 395Q4851.0 513 4895.0 624.0Q4939.0 735 5026.0 824Q5108.0 909 5234.0 962.0Q5360.0 1015 5512.0 1015Q5691.0 1015 5784.5 958.0Q5878.0 901 5878.0 787Q5878.0 678 5797.0 599.5Q5716.0 521 5577.0 483Q5467.0 450 5389.5 436.0Q5312.0 422 5200.0 410Q5202.0 366 5212.0 311.0Q5222.0 256 5242.0 217Q5266.0 172 5310.0 145.5Q5354.0 119 5422.0 119Q5540.0 119 5622.5 164.5Q5705.0 210 5780.0 309L5853.0 248Q5763.0 120 5622.5 43.5Q5482.0 -33 5327.0 -33ZM5553.0 759Q5553.0 844 5522.0 889.5Q5491.0 935 5436.0 935Q5359.0 935 5290.5 809.5Q5222.0 684 5203.0 492Q5262.0 499 5320.0 510.0Q5378.0 521 5412.0 536Q5487.0 569 5520.0 621.0Q5553.0 673 5553.0 759Z" />
      <path d="M7155.0 143 7133.0 53Q7034.0 14 6975.0 -6.5Q6916.0 -27 6838.0 -27Q6718.0 -27 6651.5 31.5Q6585.0 90 6585.0 180Q6585.0 215 6590.0 251.5Q6595.0 288 6606.0 334L6688.0 626Q6699.0 668 6706.5 705.5Q6714.0 743 6714.0 774Q6714.0 830 6691.0 852.0Q6668.0 874 6603.0 874Q6571.0 874 6537.5 864.0Q6504.0 854 6480.0 845L6502.0 935Q6583.0 968 6657.0 991.5Q6731.0 1015 6797.0 1015Q6916.0 1015 6980.5 957.5Q7045.0 900 7045.0 808Q7045.0 789 7040.5 741.0Q7036.0 693 7024.0 653L6942.0 362Q6932.0 327 6924.0 282.0Q6916.0 237 6916.0 214Q6916.0 156 6942.0 135.0Q6968.0 114 7032.0 114Q7062.0 114 7100.0 124.5Q7138.0 135 7155.0 143ZM7176.0 1364Q7176.0 1288 7118.5 1234.5Q7061.0 1181 6980.0 1181Q6899.0 1181 6841.0 1234.5Q6783.0 1288 6783.0 1364Q6783.0 1440 6841.0 1494.0Q6899.0 1548 6980.0 1548Q7061.0 1548 7118.5 1494.0Q7176.0 1440 7176.0 1364Z" />
      <path d="M7957.0 125H7949.0Q7914.0 95 7882.0 70.0Q7850.0 45 7800.0 20Q7753.0 -4 7708.5 -17.5Q7664.0 -31 7606.0 -31Q7432.0 -31 7344.0 71.5Q7256.0 174 7256.0 352Q7256.0 489 7304.0 609.0Q7352.0 729 7434.0 820Q7515.0 910 7626.0 962.5Q7737.0 1015 7859.0 1015Q7951.0 1015 8013.0 995.5Q8075.0 976 8116.0 944L8190.0 1269Q8193.0 1283 8195.5 1299.5Q8198.0 1316 8198.0 1326Q8198.0 1359 8181.0 1382.0Q8164.0 1405 8134.0 1418Q8106.0 1431 8070.0 1437.0Q8034.0 1443 7991.0 1448L8009.0 1522L8570.0 1548L8581.0 1532L8312.0 369Q8305.0 340 8295.5 292.5Q8286.0 245 8286.0 221Q8286.0 164 8311.5 142.5Q8337.0 121 8401.0 121Q8429.0 121 8468.5 132.0Q8508.0 143 8524.0 150L8502.0 60Q8403.0 21 8344.0 0.5Q8285.0 -20 8207.0 -20Q8104.0 -20 8042.5 20.5Q7981.0 61 7957.0 125ZM8075.0 765Q8075.0 790 8068.5 816.5Q8062.0 843 8043.0 867Q8024.0 892 7996.0 906.5Q7968.0 921 7920.0 921Q7856.0 921 7800.5 873.5Q7745.0 826 7702.0 744Q7662.0 668 7638.0 563.5Q7614.0 459 7614.0 348Q7614.0 299 7621.5 257.0Q7629.0 215 7646.0 186Q7664.0 155 7694.5 138.0Q7725.0 121 7771.0 121Q7818.0 121 7864.5 148.5Q7911.0 176 7948.0 216Z" />
      <path d="M9094.0 -33Q8974.0 -33 8883.5 -0.5Q8793.0 32 8734.0 90Q8676.0 148 8647.0 225.0Q8618.0 302 8618.0 395Q8618.0 513 8662.0 624.0Q8706.0 735 8793.0 824Q8875.0 909 9001.0 962.0Q9127.0 1015 9279.0 1015Q9458.0 1015 9551.5 958.0Q9645.0 901 9645.0 787Q9645.0 678 9564.0 599.5Q9483.0 521 9344.0 483Q9234.0 450 9156.5 436.0Q9079.0 422 8967.0 410Q8969.0 366 8979.0 311.0Q8989.0 256 9009.0 217Q9033.0 172 9077.0 145.5Q9121.0 119 9189.0 119Q9307.0 119 9389.5 164.5Q9472.0 210 9547.0 309L9620.0 248Q9530.0 120 9389.5 43.5Q9249.0 -33 9094.0 -33ZM9320.0 759Q9320.0 844 9289.0 889.5Q9258.0 935 9203.0 935Q9126.0 935 9057.5 809.5Q8989.0 684 8970.0 492Q9029.0 499 9087.0 510.0Q9145.0 521 9179.0 536Q9254.0 569 9287.0 621.0Q9320.0 673 9320.0 759Z" />
      <path d="M10449.0 125H10441.0Q10406.0 95 10374.5 70.0Q10343.0 45 10295.0 20Q10253.0 -2 10206.5 -16.5Q10160.0 -31 10104.0 -31Q9930.0 -31 9842.0 71.5Q9754.0 174 9754.0 352Q9754.0 489 9803.0 609.0Q9852.0 729 9934.0 820Q10017.0 910 10128.0 962.5Q10239.0 1015 10362.0 1015Q10452.0 1015 10519.5 994.0Q10587.0 973 10630.0 937L10937.0 1000L10951.0 984L10804.0 369Q10796.0 338 10787.0 291.5Q10778.0 245 10778.0 221Q10778.0 164 10804.0 142.5Q10830.0 121 10894.0 121Q10922.0 121 10961.5 132.0Q11001.0 143 11017.0 150L10995.0 60Q10896.0 21 10836.5 0.5Q10777.0 -20 10699.0 -20Q10596.0 -20 10534.5 20.5Q10473.0 61 10449.0 125ZM10568.0 759Q10568.0 781 10562.0 811.0Q10556.0 841 10541.0 862Q10523.0 888 10494.0 901.5Q10465.0 915 10422.0 915Q10356.0 915 10300.5 867.5Q10245.0 820 10202.0 741Q10160.0 663 10136.0 559.5Q10112.0 456 10112.0 348Q10112.0 299 10119.5 257.0Q10127.0 215 10144.0 186Q10162.0 155 10192.5 138.0Q10223.0 121 10269.0 121Q10316.0 121 10359.5 148.5Q10403.0 176 10440.0 216Z" />
      <path d="M11476.0 -33Q11350.0 -33 11267.5 -12.5Q11185.0 8 11137.0 40Q11088.0 72 11070.0 108.5Q11052.0 145 11052.0 177Q11052.0 235 11095.5 278.5Q11139.0 322 11211.0 322Q11271.0 322 11311.5 291.0Q11352.0 260 11379.0 213Q11404.0 170 11421.0 118.0Q11438.0 66 11445.0 41Q11558.0 41 11616.0 89.5Q11674.0 138 11674.0 222Q11674.0 259 11656.5 284.0Q11639.0 309 11610.0 328Q11581.0 346 11536.0 363.0Q11491.0 380 11447.0 395Q11326.0 436 11255.5 508.5Q11185.0 581 11185.0 689Q11185.0 753 11214.5 809.5Q11244.0 866 11307.0 914Q11369.0 960 11464.0 987.5Q11559.0 1015 11686.0 1015Q11762.0 1015 11827.0 1006.0Q11892.0 997 11948.0 973Q12001.0 949 12030.5 910.5Q12060.0 872 12060.0 817Q12060.0 762 12018.5 722.5Q11977.0 683 11910.0 683Q11852.0 683 11813.5 713.0Q11775.0 743 11751.0 784Q11727.0 826 11713.0 870.5Q11699.0 915 11690.0 945Q11620.0 941 11562.5 894.5Q11505.0 848 11505.0 779Q11505.0 737 11518.5 713.0Q11532.0 689 11555.0 673Q11581.0 655 11620.5 639.5Q11660.0 624 11719.0 604Q11855.0 556 11924.0 489.0Q11993.0 422 11993.0 312Q11993.0 240 11959.5 174.0Q11926.0 108 11864.0 64Q11795.0 16 11705.0 -8.5Q11615.0 -33 11476.0 -33Z" />
      <path d="M13028.0 -26Q12908.0 -26 12836.0 32.5Q12764.0 91 12764.0 181Q12764.0 218 12769.0 251.0Q12774.0 284 12785.0 336L12909.0 868H12726.0L12750.0 971H12937.0L13009.0 1274H13333.0L13263.0 971H13534.0L13510.0 868H13240.0L13118.0 336Q13111.0 308 13104.5 268.0Q13098.0 228 13098.0 216Q13098.0 159 13129.5 137.0Q13161.0 115 13226.0 115Q13257.0 115 13311.5 127.0Q13366.0 139 13388.0 147L13366.0 57Q13278.0 18 13189.5 -4.0Q13101.0 -26 13028.0 -26Z" />
      <path d="M14234.0 125H14226.0Q14191.0 95 14159.5 70.0Q14128.0 45 14080.0 20Q14038.0 -2 13991.5 -16.5Q13945.0 -31 13889.0 -31Q13715.0 -31 13627.0 71.5Q13539.0 174 13539.0 352Q13539.0 489 13588.0 609.0Q13637.0 729 13719.0 820Q13802.0 910 13913.0 962.5Q14024.0 1015 14147.0 1015Q14237.0 1015 14304.5 994.0Q14372.0 973 14415.0 937L14722.0 1000L14736.0 984L14589.0 369Q14581.0 338 14572.0 291.5Q14563.0 245 14563.0 221Q14563.0 164 14589.0 142.5Q14615.0 121 14679.0 121Q14707.0 121 14746.5 132.0Q14786.0 143 14802.0 150L14780.0 60Q14681.0 21 14621.5 0.5Q14562.0 -20 14484.0 -20Q14381.0 -20 14319.5 20.5Q14258.0 61 14234.0 125ZM14353.0 759Q14353.0 781 14347.0 811.0Q14341.0 841 14326.0 862Q14308.0 888 14279.0 901.5Q14250.0 915 14207.0 915Q14141.0 915 14085.5 867.5Q14030.0 820 13987.0 741Q13945.0 663 13921.0 559.5Q13897.0 456 13897.0 348Q13897.0 299 13904.5 257.0Q13912.0 215 13929.0 186Q13947.0 155 13977.5 138.0Q14008.0 121 14054.0 121Q14101.0 121 14144.5 148.5Q14188.0 176 14225.0 216Z" />
      <path d="M16210.0 153 16188.0 63Q16089.0 24 16030.0 3.5Q15971.0 -17 15893.0 -17Q15774.0 -17 15708.0 42.5Q15642.0 102 15642.0 190Q15642.0 214 15644.5 251.5Q15647.0 289 15661.0 345L15733.0 611Q15744.0 654 15749.5 688.5Q15755.0 723 15755.0 745Q15755.0 793 15732.0 820.0Q15709.0 847 15654.0 847Q15620.0 847 15557.0 820.5Q15494.0 794 15416.0 722L15251.0 0H14920.0L15062.0 615Q15068.0 643 15077.5 688.0Q15087.0 733 15087.0 763Q15087.0 820 15063.5 841.5Q15040.0 863 14978.0 863Q14946.0 863 14912.5 853.0Q14879.0 843 14855.0 834L14877.0 924Q14958.0 957 15032.0 980.5Q15106.0 1004 15172.0 1004Q15290.0 1004 15348.5 957.5Q15407.0 911 15426.0 827H15433.0Q15531.0 916 15635.5 965.5Q15740.0 1015 15858.0 1015Q15969.0 1015 16031.5 954.0Q16094.0 893 16094.0 806Q16094.0 783 16090.5 741.5Q16087.0 700 16074.0 653L15998.0 372Q15988.0 337 15980.0 292.0Q15972.0 247 15972.0 224Q15972.0 166 15997.5 145.0Q16023.0 124 16087.0 124Q16117.0 124 16155.0 134.5Q16193.0 145 16210.0 153Z" />
      <path d="M16989.0 105H16981.0Q16956.0 85 16923.0 62.0Q16890.0 39 16852.0 22Q16806.0 0 16766.0 -11.5Q16726.0 -23 16665.0 -23Q16491.0 -23 16397.5 79.0Q16304.0 181 16304.0 359Q16304.0 494 16352.0 612.5Q16400.0 731 16482.0 822Q16563.0 911 16673.5 963.0Q16784.0 1015 16907.0 1015Q16997.0 1015 17066.0 996.0Q17135.0 977 17185.0 937L17490.0 1000L17504.0 984L17334.0 171Q17294.0 -11 17223.0 -129.5Q17152.0 -248 17058.0 -318Q16962.0 -389 16857.5 -416.5Q16753.0 -444 16638.0 -444Q16515.0 -444 16437.5 -425.5Q16360.0 -407 16319.0 -378Q16279.0 -350 16264.5 -315.5Q16250.0 -281 16250.0 -248Q16250.0 -191 16290.5 -145.5Q16331.0 -100 16403.0 -100Q16457.0 -100 16499.5 -129.0Q16542.0 -158 16574.0 -199Q16603.0 -236 16628.0 -284.5Q16653.0 -333 16666.0 -363Q16712.0 -355 16757.5 -337.0Q16803.0 -319 16845.0 -269Q16885.0 -221 16921.5 -136.0Q16958.0 -51 16989.0 105ZM17123.0 760Q17123.0 785 17116.5 811.5Q17110.0 838 17091.0 862Q17072.0 887 17044.0 901.5Q17016.0 916 16968.0 916Q16903.0 916 16848.0 869.5Q16793.0 823 16751.0 745Q16710.0 668 16686.0 565.5Q16662.0 463 16662.0 354Q16662.0 306 16670.5 265.5Q16679.0 225 16700.0 193Q16721.0 161 16754.5 145.0Q16788.0 129 16830.0 129Q16879.0 129 16930.5 159.0Q16982.0 189 17013.0 223Z" />
      <path d="M18282.0 143 18260.0 53Q18161.0 14 18102.0 -6.5Q18043.0 -27 17965.0 -27Q17845.0 -27 17778.5 31.5Q17712.0 90 17712.0 180Q17712.0 215 17717.0 251.5Q17722.0 288 17733.0 334L17815.0 626Q17826.0 668 17833.5 705.5Q17841.0 743 17841.0 774Q17841.0 830 17818.0 852.0Q17795.0 874 17730.0 874Q17698.0 874 17664.5 864.0Q17631.0 854 17607.0 845L17629.0 935Q17710.0 968 17784.0 991.5Q17858.0 1015 17924.0 1015Q18043.0 1015 18107.5 957.5Q18172.0 900 18172.0 808Q18172.0 789 18167.5 741.0Q18163.0 693 18151.0 653L18069.0 362Q18059.0 327 18051.0 282.0Q18043.0 237 18043.0 214Q18043.0 156 18069.0 135.0Q18095.0 114 18159.0 114Q18189.0 114 18227.0 124.5Q18265.0 135 18282.0 143ZM18303.0 1364Q18303.0 1288 18245.5 1234.5Q18188.0 1181 18107.0 1181Q18026.0 1181 17968.0 1234.5Q17910.0 1288 17910.0 1364Q17910.0 1440 17968.0 1494.0Q18026.0 1548 18107.0 1548Q18188.0 1548 18245.5 1494.0Q18303.0 1440 18303.0 1364Z" />
      <path d="M19582.0 632Q19582.0 496 19536.0 373.5Q19490.0 251 19404.0 163Q19313.0 70 19188.0 19.0Q19063.0 -32 18910.0 -32Q18873.0 -32 18801.0 -24.0Q18729.0 -16 18672.0 4Q18600.0 29 18536.5 75.0Q18473.0 121 18425.0 195L18676.0 1273Q18680.0 1290 18682.0 1305.0Q18684.0 1320 18684.0 1330Q18684.0 1363 18671.5 1385.0Q18659.0 1407 18636.0 1420Q18613.0 1432 18581.5 1438.0Q18550.0 1444 18509.0 1448L18527.0 1522L19054.0 1548L19065.0 1532L18914.0 884H18921.0Q18944.0 903 18971.0 922.5Q18998.0 942 19043.0 966Q19077.0 984 19132.5 999.5Q19188.0 1015 19233.0 1015Q19407.0 1015 19494.5 912.5Q19582.0 810 19582.0 632ZM19224.0 636Q19224.0 685 19217.0 726.5Q19210.0 768 19192.0 798Q19174.0 829 19143.5 846.0Q19113.0 863 19067.0 863Q19016.0 863 18970.0 834.5Q18924.0 806 18888.0 768L18762.0 210Q18762.0 186 18769.0 161.0Q18776.0 136 18796.0 109Q18816.0 81 18840.0 66.0Q18864.0 51 18909.0 51Q18977.0 51 19036.5 101.5Q19096.0 152 19136.0 234Q19180.0 322 19202.0 419.5Q19224.0 517 19224.0 636Z" />
      <path d="M20393.0 1532 20124.0 362Q20117.0 333 20107.5 285.0Q20098.0 237 20098.0 214Q20098.0 156 20127.0 135.0Q20156.0 114 20223.0 114Q20248.0 114 20291.0 124.5Q20334.0 135 20352.0 143L20330.0 53Q20231.0 14 20168.0 -6.5Q20105.0 -27 20025.0 -27Q19905.0 -27 19836.0 31.5Q19767.0 90 19767.0 180Q19767.0 217 19773.5 257.0Q19780.0 297 19788.0 334L20004.0 1273Q20008.0 1290 20010.0 1305.0Q20012.0 1320 20012.0 1330Q20012.0 1366 20000.0 1387.0Q19988.0 1408 19964.0 1421Q19940.0 1434 19909.0 1439.0Q19878.0 1444 19837.0 1448L19855.0 1522L20382.0 1548Z" />
      <path d="M20919.0 -33Q20799.0 -33 20708.5 -0.5Q20618.0 32 20559.0 90Q20501.0 148 20472.0 225.0Q20443.0 302 20443.0 395Q20443.0 513 20487.0 624.0Q20531.0 735 20618.0 824Q20700.0 909 20826.0 962.0Q20952.0 1015 21104.0 1015Q21283.0 1015 21376.5 958.0Q21470.0 901 21470.0 787Q21470.0 678 21389.0 599.5Q21308.0 521 21169.0 483Q21059.0 450 20981.5 436.0Q20904.0 422 20792.0 410Q20794.0 366 20804.0 311.0Q20814.0 256 20834.0 217Q20858.0 172 20902.0 145.5Q20946.0 119 21014.0 119Q21132.0 119 21214.5 164.5Q21297.0 210 21372.0 309L21445.0 248Q21355.0 120 21214.5 43.5Q21074.0 -33 20919.0 -33ZM21145.0 759Q21145.0 844 21114.0 889.5Q21083.0 935 21028.0 935Q20951.0 935 20882.5 809.5Q20814.0 684 20795.0 492Q20854.0 499 20912.0 510.0Q20970.0 521 21004.0 536Q21079.0 569 21112.0 621.0Q21145.0 673 21145.0 759Z" />
      <path d="M22025.0 132Q22025.0 -23 21898.0 -167.5Q21771.0 -312 21589.0 -389L21557.0 -318Q21618.0 -288 21661.0 -263.0Q21704.0 -238 21751.0 -192Q21791.0 -154 21821.5 -107.5Q21852.0 -61 21868.0 0H21809.0Q21716.0 0 21672.0 37.0Q21628.0 74 21628.0 139Q21628.0 217 21690.5 278.5Q21753.0 340 21835.0 340Q21933.0 340 21979.0 282.0Q22025.0 224 22025.0 132Z" />
      <path d="M23114.0 -26Q22994.0 -26 22922.0 32.5Q22850.0 91 22850.0 181Q22850.0 218 22855.0 251.0Q22860.0 284 22871.0 336L22995.0 868H22812.0L22836.0 971H23023.0L23095.0 1274H23419.0L23349.0 971H23620.0L23596.0 868H23326.0L23204.0 336Q23197.0 308 23190.5 268.0Q23184.0 228 23184.0 216Q23184.0 159 23215.5 137.0Q23247.0 115 23312.0 115Q23343.0 115 23397.5 127.0Q23452.0 139 23474.0 147L23452.0 57Q23364.0 18 23275.5 -4.0Q23187.0 -26 23114.0 -26Z" />
      <path d="M24106.0 -33Q23986.0 -33 23895.5 -0.5Q23805.0 32 23746.0 90Q23688.0 148 23659.0 225.0Q23630.0 302 23630.0 395Q23630.0 513 23674.0 624.0Q23718.0 735 23805.0 824Q23887.0 909 24013.0 962.0Q24139.0 1015 24291.0 1015Q24470.0 1015 24563.5 958.0Q24657.0 901 24657.0 787Q24657.0 678 24576.0 599.5Q24495.0 521 24356.0 483Q24246.0 450 24168.5 436.0Q24091.0 422 23979.0 410Q23981.0 366 23991.0 311.0Q24001.0 256 24021.0 217Q24045.0 172 24089.0 145.5Q24133.0 119 24201.0 119Q24319.0 119 24401.5 164.5Q24484.0 210 24559.0 309L24632.0 248Q24542.0 120 24401.5 43.5Q24261.0 -33 24106.0 -33ZM24332.0 759Q24332.0 844 24301.0 889.5Q24270.0 935 24215.0 935Q24138.0 935 24069.5 809.5Q24001.0 684 23982.0 492Q24041.0 499 24099.0 510.0Q24157.0 521 24191.0 536Q24266.0 569 24299.0 621.0Q24332.0 673 24332.0 759Z" />
      <path d="M25136.0 -33Q25010.0 -33 24927.5 -12.5Q24845.0 8 24797.0 40Q24748.0 72 24730.0 108.5Q24712.0 145 24712.0 177Q24712.0 235 24755.5 278.5Q24799.0 322 24871.0 322Q24931.0 322 24971.5 291.0Q25012.0 260 25039.0 213Q25064.0 170 25081.0 118.0Q25098.0 66 25105.0 41Q25218.0 41 25276.0 89.5Q25334.0 138 25334.0 222Q25334.0 259 25316.5 284.0Q25299.0 309 25270.0 328Q25241.0 346 25196.0 363.0Q25151.0 380 25107.0 395Q24986.0 436 24915.5 508.5Q24845.0 581 24845.0 689Q24845.0 753 24874.5 809.5Q24904.0 866 24967.0 914Q25029.0 960 25124.0 987.5Q25219.0 1015 25346.0 1015Q25422.0 1015 25487.0 1006.0Q25552.0 997 25608.0 973Q25661.0 949 25690.5 910.5Q25720.0 872 25720.0 817Q25720.0 762 25678.5 722.5Q25637.0 683 25570.0 683Q25512.0 683 25473.5 713.0Q25435.0 743 25411.0 784Q25387.0 826 25373.0 870.5Q25359.0 915 25350.0 945Q25280.0 941 25222.5 894.5Q25165.0 848 25165.0 779Q25165.0 737 25178.5 713.0Q25192.0 689 25215.0 673Q25241.0 655 25280.5 639.5Q25320.0 624 25379.0 604Q25515.0 556 25584.0 489.0Q25653.0 422 25653.0 312Q25653.0 240 25619.5 174.0Q25586.0 108 25524.0 64Q25455.0 16 25365.0 -8.5Q25275.0 -33 25136.0 -33Z" />
      <path d="M26168.0 -26Q26048.0 -26 25976.0 32.5Q25904.0 91 25904.0 181Q25904.0 218 25909.0 251.0Q25914.0 284 25925.0 336L26049.0 868H25866.0L25890.0 971H26077.0L26149.0 1274H26473.0L26403.0 971H26674.0L26650.0 868H26380.0L26258.0 336Q26251.0 308 26244.5 268.0Q26238.0 228 26238.0 216Q26238.0 159 26269.5 137.0Q26301.0 115 26366.0 115Q26397.0 115 26451.5 127.0Q26506.0 139 26528.0 147L26506.0 57Q26418.0 18 26329.5 -4.0Q26241.0 -26 26168.0 -26Z" />
      <path d="M27374.0 125H27366.0Q27331.0 95 27299.5 70.0Q27268.0 45 27220.0 20Q27178.0 -2 27131.5 -16.5Q27085.0 -31 27029.0 -31Q26855.0 -31 26767.0 71.5Q26679.0 174 26679.0 352Q26679.0 489 26728.0 609.0Q26777.0 729 26859.0 820Q26942.0 910 27053.0 962.5Q27164.0 1015 27287.0 1015Q27377.0 1015 27444.5 994.0Q27512.0 973 27555.0 937L27862.0 1000L27876.0 984L27729.0 369Q27721.0 338 27712.0 291.5Q27703.0 245 27703.0 221Q27703.0 164 27729.0 142.5Q27755.0 121 27819.0 121Q27847.0 121 27886.5 132.0Q27926.0 143 27942.0 150L27920.0 60Q27821.0 21 27761.5 0.5Q27702.0 -20 27624.0 -20Q27521.0 -20 27459.5 20.5Q27398.0 61 27374.0 125ZM27493.0 759Q27493.0 781 27487.0 811.0Q27481.0 841 27466.0 862Q27448.0 888 27419.0 901.5Q27390.0 915 27347.0 915Q27281.0 915 27225.5 867.5Q27170.0 820 27127.0 741Q27085.0 663 27061.0 559.5Q27037.0 456 27037.0 348Q27037.0 299 27044.5 257.0Q27052.0 215 27069.0 186Q27087.0 155 27117.5 138.0Q27148.0 121 27194.0 121Q27241.0 121 27284.5 148.5Q27328.0 176 27365.0 216Z" />
      <path d="M29230.0 632Q29230.0 496 29184.0 373.5Q29138.0 251 29052.0 163Q28961.0 70 28836.0 19.0Q28711.0 -32 28558.0 -32Q28521.0 -32 28449.0 -24.0Q28377.0 -16 28320.0 4Q28248.0 29 28184.5 75.0Q28121.0 121 28073.0 195L28324.0 1273Q28328.0 1290 28330.0 1305.0Q28332.0 1320 28332.0 1330Q28332.0 1363 28319.5 1385.0Q28307.0 1407 28284.0 1420Q28261.0 1432 28229.5 1438.0Q28198.0 1444 28157.0 1448L28175.0 1522L28702.0 1548L28713.0 1532L28562.0 884H28569.0Q28592.0 903 28619.0 922.5Q28646.0 942 28691.0 966Q28725.0 984 28780.5 999.5Q28836.0 1015 28881.0 1015Q29055.0 1015 29142.5 912.5Q29230.0 810 29230.0 632ZM28872.0 636Q28872.0 685 28865.0 726.5Q28858.0 768 28840.0 798Q28822.0 829 28791.5 846.0Q28761.0 863 28715.0 863Q28664.0 863 28618.0 834.5Q28572.0 806 28536.0 768L28410.0 210Q28410.0 186 28417.0 161.0Q28424.0 136 28444.0 109Q28464.0 81 28488.0 66.0Q28512.0 51 28557.0 51Q28625.0 51 28684.5 101.5Q28744.0 152 28784.0 234Q28828.0 322 28850.0 419.5Q28872.0 517 28872.0 636Z" />
      <path d="M30041.0 1532 29772.0 362Q29765.0 333 29755.5 285.0Q29746.0 237 29746.0 214Q29746.0 156 29775.0 135.0Q29804.0 114 29871.0 114Q29896.0 114 29939.0 124.5Q29982.0 135 30000.0 143L29978.0 53Q29879.0 14 29816.0 -6.5Q29753.0 -27 29673.0 -27Q29553.0 -27 29484.0 31.5Q29415.0 90 29415.0 180Q29415.0 217 29421.5 257.0Q29428.0 297 29436.0 334L29652.0 1273Q29656.0 1290 29658.0 1305.0Q29660.0 1320 29660.0 1330Q29660.0 1366 29648.0 1387.0Q29636.0 1408 29612.0 1421Q29588.0 1434 29557.0 1439.0Q29526.0 1444 29485.0 1448L29503.0 1522L30030.0 1548Z" />
      <path d="M30567.0 -33Q30447.0 -33 30356.5 -0.5Q30266.0 32 30207.0 90Q30149.0 148 30120.0 225.0Q30091.0 302 30091.0 395Q30091.0 513 30135.0 624.0Q30179.0 735 30266.0 824Q30348.0 909 30474.0 962.0Q30600.0 1015 30752.0 1015Q30931.0 1015 31024.5 958.0Q31118.0 901 31118.0 787Q31118.0 678 31037.0 599.5Q30956.0 521 30817.0 483Q30707.0 450 30629.5 436.0Q30552.0 422 30440.0 410Q30442.0 366 30452.0 311.0Q30462.0 256 30482.0 217Q30506.0 172 30550.0 145.5Q30594.0 119 30662.0 119Q30780.0 119 30862.5 164.5Q30945.0 210 31020.0 309L31093.0 248Q31003.0 120 30862.5 43.5Q30722.0 -33 30567.0 -33ZM30793.0 759Q30793.0 844 30762.0 889.5Q30731.0 935 30676.0 935Q30599.0 935 30530.5 809.5Q30462.0 684 30443.0 492Q30502.0 499 30560.0 510.0Q30618.0 521 30652.0 536Q30727.0 569 30760.0 621.0Q30793.0 673 30793.0 759Z" />
      <path d="M31673.0 132Q31673.0 -23 31546.0 -167.5Q31419.0 -312 31237.0 -389L31205.0 -318Q31266.0 -288 31309.0 -263.0Q31352.0 -238 31399.0 -192Q31439.0 -154 31469.5 -107.5Q31500.0 -61 31516.0 0H31457.0Q31364.0 0 31320.0 37.0Q31276.0 74 31276.0 139Q31276.0 217 31338.5 278.5Q31401.0 340 31483.0 340Q31581.0 340 31627.0 282.0Q31673.0 224 31673.0 132Z" />
      <path d="M33114.0 125H33106.0Q33071.0 95 33039.5 70.0Q33008.0 45 32960.0 20Q32918.0 -2 32871.5 -16.5Q32825.0 -31 32769.0 -31Q32595.0 -31 32507.0 71.5Q32419.0 174 32419.0 352Q32419.0 489 32468.0 609.0Q32517.0 729 32599.0 820Q32682.0 910 32793.0 962.5Q32904.0 1015 33027.0 1015Q33117.0 1015 33184.5 994.0Q33252.0 973 33295.0 937L33602.0 1000L33616.0 984L33469.0 369Q33461.0 338 33452.0 291.5Q33443.0 245 33443.0 221Q33443.0 164 33469.0 142.5Q33495.0 121 33559.0 121Q33587.0 121 33626.5 132.0Q33666.0 143 33682.0 150L33660.0 60Q33561.0 21 33501.5 0.5Q33442.0 -20 33364.0 -20Q33261.0 -20 33199.5 20.5Q33138.0 61 33114.0 125ZM33233.0 759Q33233.0 781 33227.0 811.0Q33221.0 841 33206.0 862Q33188.0 888 33159.0 901.5Q33130.0 915 33087.0 915Q33021.0 915 32965.5 867.5Q32910.0 820 32867.0 741Q32825.0 663 32801.0 559.5Q32777.0 456 32777.0 348Q32777.0 299 32784.5 257.0Q32792.0 215 32809.0 186Q32827.0 155 32857.5 138.0Q32888.0 121 32934.0 121Q32981.0 121 33024.5 148.5Q33068.0 176 33105.0 216Z" />
      <path d="M35090.0 153 35068.0 63Q34969.0 24 34910.0 3.5Q34851.0 -17 34773.0 -17Q34654.0 -17 34588.0 42.5Q34522.0 102 34522.0 190Q34522.0 214 34524.5 251.5Q34527.0 289 34541.0 345L34613.0 611Q34624.0 654 34629.5 688.5Q34635.0 723 34635.0 745Q34635.0 793 34612.0 820.0Q34589.0 847 34534.0 847Q34500.0 847 34437.0 820.5Q34374.0 794 34296.0 722L34131.0 0H33800.0L33942.0 615Q33948.0 643 33957.5 688.0Q33967.0 733 33967.0 763Q33967.0 820 33943.5 841.5Q33920.0 863 33858.0 863Q33826.0 863 33792.5 853.0Q33759.0 843 33735.0 834L33757.0 924Q33838.0 957 33912.0 980.5Q33986.0 1004 34052.0 1004Q34170.0 1004 34228.5 957.5Q34287.0 911 34306.0 827H34313.0Q34411.0 916 34515.5 965.5Q34620.0 1015 34738.0 1015Q34849.0 1015 34911.5 954.0Q34974.0 893 34974.0 806Q34974.0 783 34970.5 741.5Q34967.0 700 34954.0 653L34878.0 372Q34868.0 337 34860.0 292.0Q34852.0 247 34852.0 224Q34852.0 166 34877.5 145.0Q34903.0 124 34967.0 124Q34997.0 124 35035.0 134.5Q35073.0 145 35090.0 153Z" />
      <path d="M35885.0 125H35877.0Q35842.0 95 35810.0 70.0Q35778.0 45 35728.0 20Q35681.0 -4 35636.5 -17.5Q35592.0 -31 35534.0 -31Q35360.0 -31 35272.0 71.5Q35184.0 174 35184.0 352Q35184.0 489 35232.0 609.0Q35280.0 729 35362.0 820Q35443.0 910 35554.0 962.5Q35665.0 1015 35787.0 1015Q35879.0 1015 35941.0 995.5Q36003.0 976 36044.0 944L36118.0 1269Q36121.0 1283 36123.5 1299.5Q36126.0 1316 36126.0 1326Q36126.0 1359 36109.0 1382.0Q36092.0 1405 36062.0 1418Q36034.0 1431 35998.0 1437.0Q35962.0 1443 35919.0 1448L35937.0 1522L36498.0 1548L36509.0 1532L36240.0 369Q36233.0 340 36223.5 292.5Q36214.0 245 36214.0 221Q36214.0 164 36239.5 142.5Q36265.0 121 36329.0 121Q36357.0 121 36396.5 132.0Q36436.0 143 36452.0 150L36430.0 60Q36331.0 21 36272.0 0.5Q36213.0 -20 36135.0 -20Q36032.0 -20 35970.5 20.5Q35909.0 61 35885.0 125ZM36003.0 765Q36003.0 790 35996.5 816.5Q35990.0 843 35971.0 867Q35952.0 892 35924.0 906.5Q35896.0 921 35848.0 921Q35784.0 921 35728.5 873.5Q35673.0 826 35630.0 744Q35590.0 668 35566.0 563.5Q35542.0 459 35542.0 348Q35542.0 299 35549.5 257.0Q35557.0 215 35574.0 186Q35592.0 155 35622.5 138.0Q35653.0 121 35699.0 121Q35746.0 121 35792.5 148.5Q35839.0 176 35876.0 216Z" />
      <path d="M38102.0 807Q38102.0 762 38089.0 720.0Q38076.0 678 38050.0 648Q38021.0 614 37989.0 597.5Q37957.0 581 37899.0 581Q37824.0 581 37781.0 618.0Q37738.0 655 37738.0 701Q37738.0 744 37750.5 775.0Q37763.0 806 37790.0 869Q37723.0 841 37675.0 800.5Q37627.0 760 37583.0 708L37425.0 0H37094.0L37232.0 615Q37238.0 643 37247.5 688.0Q37257.0 733 37257.0 763Q37257.0 821 37234.5 842.0Q37212.0 863 37148.0 863Q37116.0 863 37082.5 853.0Q37049.0 843 37025.0 834L37047.0 924Q37128.0 957 37202.0 980.5Q37276.0 1004 37342.0 1004Q37460.0 1004 37518.5 957.5Q37577.0 911 37596.0 827H37603.0Q37702.0 932 37771.0 973.5Q37840.0 1015 37919.0 1015Q38004.0 1015 38053.0 961.5Q38102.0 908 38102.0 807Z" />
      <path d="M38635.0 -33Q38515.0 -33 38424.5 -0.5Q38334.0 32 38275.0 90Q38217.0 148 38188.0 225.0Q38159.0 302 38159.0 395Q38159.0 513 38203.0 624.0Q38247.0 735 38334.0 824Q38416.0 909 38542.0 962.0Q38668.0 1015 38820.0 1015Q38999.0 1015 39092.5 958.0Q39186.0 901 39186.0 787Q39186.0 678 39105.0 599.5Q39024.0 521 38885.0 483Q38775.0 450 38697.5 436.0Q38620.0 422 38508.0 410Q38510.0 366 38520.0 311.0Q38530.0 256 38550.0 217Q38574.0 172 38618.0 145.5Q38662.0 119 38730.0 119Q38848.0 119 38930.5 164.5Q39013.0 210 39088.0 309L39161.0 248Q39071.0 120 38930.5 43.5Q38790.0 -33 38635.0 -33ZM38861.0 759Q38861.0 844 38830.0 889.5Q38799.0 935 38744.0 935Q38667.0 935 38598.5 809.5Q38530.0 684 38511.0 492Q38570.0 499 38628.0 510.0Q38686.0 521 38720.0 536Q38795.0 569 38828.0 621.0Q38861.0 673 38861.0 759Z" />
      <path d="M40033.0 159H40026.0Q39921.0 63 39826.0 17.0Q39731.0 -29 39606.0 -29Q39495.0 -29 39434.5 32.0Q39374.0 93 39374.0 180Q39374.0 211 39377.5 243.0Q39381.0 275 39396.0 333L39471.0 614Q39478.0 642 39487.5 690.5Q39497.0 739 39497.0 762Q39497.0 817 39474.5 839.5Q39452.0 862 39387.0 862Q39355.0 862 39321.5 852.0Q39288.0 842 39264.0 833L39286.0 923Q39367.0 956 39441.0 979.5Q39515.0 1003 39581.0 1003Q39700.0 1003 39764.5 943.5Q39829.0 884 39829.0 796Q39829.0 778 39825.0 730.0Q39821.0 682 39809.0 641L39736.0 375Q39726.0 340 39720.0 299.5Q39714.0 259 39714.0 241Q39714.0 194 39736.0 166.5Q39758.0 139 39812.0 139Q39851.0 139 39915.5 171.5Q39980.0 204 40043.0 264L40208.0 986L40527.0 1000L40539.0 986L40397.0 371Q40390.0 342 40380.5 294.0Q40371.0 246 40371.0 223Q40371.0 165 40396.5 144.0Q40422.0 123 40486.0 123Q40516.0 123 40554.0 133.5Q40592.0 144 40609.0 152L40587.0 62Q40488.0 23 40429.0 2.5Q40370.0 -18 40292.0 -18Q40182.0 -18 40116.0 31.5Q40050.0 81 40033.0 159Z" />
      <path d="M41068.0 -33Q40942.0 -33 40859.5 -12.5Q40777.0 8 40729.0 40Q40680.0 72 40662.0 108.5Q40644.0 145 40644.0 177Q40644.0 235 40687.5 278.5Q40731.0 322 40803.0 322Q40863.0 322 40903.5 291.0Q40944.0 260 40971.0 213Q40996.0 170 41013.0 118.0Q41030.0 66 41037.0 41Q41150.0 41 41208.0 89.5Q41266.0 138 41266.0 222Q41266.0 259 41248.5 284.0Q41231.0 309 41202.0 328Q41173.0 346 41128.0 363.0Q41083.0 380 41039.0 395Q40918.0 436 40847.5 508.5Q40777.0 581 40777.0 689Q40777.0 753 40806.5 809.5Q40836.0 866 40899.0 914Q40961.0 960 41056.0 987.5Q41151.0 1015 41278.0 1015Q41354.0 1015 41419.0 1006.0Q41484.0 997 41540.0 973Q41593.0 949 41622.5 910.5Q41652.0 872 41652.0 817Q41652.0 762 41610.5 722.5Q41569.0 683 41502.0 683Q41444.0 683 41405.5 713.0Q41367.0 743 41343.0 784Q41319.0 826 41305.0 870.5Q41291.0 915 41282.0 945Q41212.0 941 41154.5 894.5Q41097.0 848 41097.0 779Q41097.0 737 41110.5 713.0Q41124.0 689 41147.0 673Q41173.0 655 41212.5 639.5Q41252.0 624 41311.0 604Q41447.0 556 41516.0 489.0Q41585.0 422 41585.0 312Q41585.0 240 41551.5 174.0Q41518.0 108 41456.0 64Q41387.0 16 41297.0 -8.5Q41207.0 -33 41068.0 -33Z" />
      <path d="M42452.0 125H42444.0Q42409.0 95 42377.5 70.0Q42346.0 45 42298.0 20Q42256.0 -2 42209.5 -16.5Q42163.0 -31 42107.0 -31Q41933.0 -31 41845.0 71.5Q41757.0 174 41757.0 352Q41757.0 489 41806.0 609.0Q41855.0 729 41937.0 820Q42020.0 910 42131.0 962.5Q42242.0 1015 42365.0 1015Q42455.0 1015 42522.5 994.0Q42590.0 973 42633.0 937L42940.0 1000L42954.0 984L42807.0 369Q42799.0 338 42790.0 291.5Q42781.0 245 42781.0 221Q42781.0 164 42807.0 142.5Q42833.0 121 42897.0 121Q42925.0 121 42964.5 132.0Q43004.0 143 43020.0 150L42998.0 60Q42899.0 21 42839.5 0.5Q42780.0 -20 42702.0 -20Q42599.0 -20 42537.5 20.5Q42476.0 61 42452.0 125ZM42571.0 759Q42571.0 781 42565.0 811.0Q42559.0 841 42544.0 862Q42526.0 888 42497.0 901.5Q42468.0 915 42425.0 915Q42359.0 915 42303.5 867.5Q42248.0 820 42205.0 741Q42163.0 663 42139.0 559.5Q42115.0 456 42115.0 348Q42115.0 299 42122.5 257.0Q42130.0 215 42147.0 186Q42165.0 155 42195.5 138.0Q42226.0 121 42272.0 121Q42319.0 121 42362.5 148.5Q42406.0 176 42443.0 216Z" />
      <path d="M44308.0 632Q44308.0 496 44262.0 373.5Q44216.0 251 44130.0 163Q44039.0 70 43914.0 19.0Q43789.0 -32 43636.0 -32Q43599.0 -32 43527.0 -24.0Q43455.0 -16 43398.0 4Q43326.0 29 43262.5 75.0Q43199.0 121 43151.0 195L43402.0 1273Q43406.0 1290 43408.0 1305.0Q43410.0 1320 43410.0 1330Q43410.0 1363 43397.5 1385.0Q43385.0 1407 43362.0 1420Q43339.0 1432 43307.5 1438.0Q43276.0 1444 43235.0 1448L43253.0 1522L43780.0 1548L43791.0 1532L43640.0 884H43647.0Q43670.0 903 43697.0 922.5Q43724.0 942 43769.0 966Q43803.0 984 43858.5 999.5Q43914.0 1015 43959.0 1015Q44133.0 1015 44220.5 912.5Q44308.0 810 44308.0 632ZM43950.0 636Q43950.0 685 43943.0 726.5Q43936.0 768 43918.0 798Q43900.0 829 43869.5 846.0Q43839.0 863 43793.0 863Q43742.0 863 43696.0 834.5Q43650.0 806 43614.0 768L43488.0 210Q43488.0 186 43495.0 161.0Q43502.0 136 43522.0 109Q43542.0 81 43566.0 66.0Q43590.0 51 43635.0 51Q43703.0 51 43762.5 101.5Q43822.0 152 43862.0 234Q43906.0 322 43928.0 419.5Q43950.0 517 43950.0 636Z" />
      <path d="M45119.0 1532 44850.0 362Q44843.0 333 44833.5 285.0Q44824.0 237 44824.0 214Q44824.0 156 44853.0 135.0Q44882.0 114 44949.0 114Q44974.0 114 45017.0 124.5Q45060.0 135 45078.0 143L45056.0 53Q44957.0 14 44894.0 -6.5Q44831.0 -27 44751.0 -27Q44631.0 -27 44562.0 31.5Q44493.0 90 44493.0 180Q44493.0 217 44499.5 257.0Q44506.0 297 44514.0 334L44730.0 1273Q44734.0 1290 44736.0 1305.0Q44738.0 1320 44738.0 1330Q44738.0 1366 44726.0 1387.0Q44714.0 1408 44690.0 1421Q44666.0 1434 44635.0 1439.0Q44604.0 1444 44563.0 1448L44581.0 1522L45108.0 1548Z" />
      <path d="M45645.0 -33Q45525.0 -33 45434.5 -0.5Q45344.0 32 45285.0 90Q45227.0 148 45198.0 225.0Q45169.0 302 45169.0 395Q45169.0 513 45213.0 624.0Q45257.0 735 45344.0 824Q45426.0 909 45552.0 962.0Q45678.0 1015 45830.0 1015Q46009.0 1015 46102.5 958.0Q46196.0 901 46196.0 787Q46196.0 678 46115.0 599.5Q46034.0 521 45895.0 483Q45785.0 450 45707.5 436.0Q45630.0 422 45518.0 410Q45520.0 366 45530.0 311.0Q45540.0 256 45560.0 217Q45584.0 172 45628.0 145.5Q45672.0 119 45740.0 119Q45858.0 119 45940.5 164.5Q46023.0 210 46098.0 309L46171.0 248Q46081.0 120 45940.5 43.5Q45800.0 -33 45645.0 -33ZM45871.0 759Q45871.0 844 45840.0 889.5Q45809.0 935 45754.0 935Q45677.0 935 45608.5 809.5Q45540.0 684 45521.0 492Q45580.0 499 45638.0 510.0Q45696.0 521 45730.0 536Q45805.0 569 45838.0 621.0Q45871.0 673 45871.0 759Z" />
      <path d="M46744.0 166Q46744.0 87 46685.5 29.0Q46627.0 -29 46547.0 -29Q46466.0 -29 46407.5 28.5Q46349.0 86 46349.0 166Q46349.0 246 46407.5 304.5Q46466.0 363 46547.0 363Q46627.0 363 46685.5 304.0Q46744.0 245 46744.0 166Z" />
    </g>
  </g>
</svg>
