<svg xmlns="http://www.w3.org/2000/svg" width="820" height="56" viewBox="0 0 820 56" role="img" aria-labelledby="title">
  <title id="title">Build from real problems. Agent · Code · Data. Make ideas tangible, testable, and reusable.</title>
  <desc>Animated introduction lines in Georgia, slower typing cycle.</desc>
  <defs>
    <style>

    svg { color: #000000; }
    @media (prefers-color-scheme: dark) {
      svg { color: #EDEDED; }
    }
    .clip-rect {
      animation-duration: 18s;
      animation-timing-function: steps(28, end);
      animation-iteration-count: infinite;
    }
    .clip-rect-0 { animation-name: type0; }
    .clip-rect-1 { animation-name: type1; }
    .clip-rect-2 { animation-name: type2; }
    .line-wrap {
      opacity: 0;
      animation-duration: 18s;
      animation-timing-function: linear;
      animation-iteration-count: infinite;
    }
    .line-wrap-0 { animation-name: show0; }
    .line-wrap-1 { animation-name: show1; }
    .line-wrap-2 { animation-name: show2; }
    /* each line occupies ~33% of cycle; slower type-in and longer hold */
    @keyframes show0 {
      0%, 31%, 100% { opacity: 0; }
      1%, 29% { opacity: 1; }
    }
    @keyframes show1 {
      0%, 33%, 64%, 100% { opacity: 0; }
      34%, 62% { opacity: 1; }
    }
    @keyframes show2 {
      0%, 66%, 97%, 100% { opacity: 0; }
      67%, 95% { opacity: 1; }
    }
    @keyframes type0 {
      0% { width: 0; }
      14% { width: 309.9px; }
      28% { width: 309.9px; }
      31%, 100% { width: 0; }
    }
    @keyframes type1 {
      0%, 33% { width: 0; }
      47% { width: 239.3px; }
      61% { width: 239.3px; }
      64%, 100% { width: 0; }
    }
    @keyframes type2 {
      0%, 66% { width: 0; }
      80% { width: 518.1px; }
      94% { width: 518.1px; }
      97%, 100% { width: 0; }
    }

    </style>
    <clipPath id="clip0">
      <rect class="clip-rect clip-rect-0" x="258.03" y="0" width="0" height="56" />
    </clipPath>
    <clipPath id="clip1">
      <rect class="clip-rect clip-rect-1" x="293.33" y="0" width="0" height="56" />
    </clipPath>
    <clipPath id="clip2">
      <rect class="clip-rect clip-rect-2" x="153.97" y="0" width="0" height="56" />
    </clipPath>
  </defs>
  <g class="line-wrap line-wrap-0" clip-path="url(#clip0)">
    <g fill="currentColor" transform="translate(258.03 38.08) scale(0.013046 -0.013046)">
      <path d="M1104.0 661Q1166.0 619 1207.0 551.0Q1248.0 483 1248.0 386Q1248.0 287 1205.0 214.0Q1162.0 141 1093.0 94Q1026.0 48 941.5 24.0Q857.0 0 767.0 0H95.0V71Q119.0 73 165.0 79.5Q211.0 86 231.0 95Q262.0 109 275.0 132.5Q288.0 156 288.0 193V1213Q288.0 1247 276.5 1273.0Q265.0 1299 231.0 1315Q201.0 1330 164.0 1338.0Q127.0 1346 102.0 1348V1419H757.0Q833.0 1419 902.5 1404.0Q972.0 1389 1035.0 1351Q1094.0 1316 1132.0 1256.0Q1170.0 1196 1170.0 1110Q1170.0 1035 1143.0 976.5Q1116.0 918 1067.0 876Q1021.0 836 961.5 808.5Q902.0 781 833.0 766V757Q894.0 750 969.5 726.5Q1045.0 703 1104.0 661ZM863.0 875Q900.0 918 914.5 969.0Q929.0 1020 929.0 1090Q929.0 1207 865.0 1273.5Q801.0 1340 663.0 1340Q631.0 1340 582.5 1338.5Q534.0 1337 501.0 1336V791H628.0Q710.0 791 768.5 812.0Q827.0 833 863.0 875ZM1001.0 422Q1001.0 548 916.5 629.0Q832.0 710 675.0 710Q611.0 710 567.0 708.5Q523.0 707 501.0 706V206Q501.0 143 552.0 111.0Q603.0 79 694.0 79Q843.0 79 922.0 166.0Q1001.0 253 1001.0 422Z" />
      <path d="M2468.0 18 2147.0 -4 2132.0 10V135H2126.0Q2102.0 110 2072.0 81.5Q2042.0 53 2003.0 30Q1958.0 3 1916.0 -11.0Q1874.0 -25 1797.0 -25Q1666.0 -25 1597.5 60.5Q1529.0 146 1529.0 309V781Q1529.0 817 1515.5 841.5Q1502.0 866 1476.0 884Q1458.0 896 1431.0 901.5Q1404.0 907 1374.0 909V974L1703.0 998L1718.0 984V299Q1718.0 192 1766.0 138.0Q1814.0 84 1881.0 84Q1936.0 84 1979.0 101.0Q2022.0 118 2051.0 141Q2078.0 162 2098.5 185.5Q2119.0 209 2130.0 229V788Q2130.0 821 2116.0 846.5Q2102.0 872 2077.0 890Q2059.0 902 2023.5 904.5Q1988.0 907 1944.0 909V974L2302.0 998L2317.0 984V201Q2317.0 167 2331.0 143.0Q2345.0 119 2370.0 102Q2388.0 91 2413.0 87.5Q2438.0 84 2468.0 83Z" />
      <path d="M3068.0 0H2591.0V66Q2614.0 68 2638.5 70.0Q2663.0 72 2681.0 78Q2709.0 87 2722.5 109.5Q2736.0 132 2736.0 168V777Q2736.0 809 2721.5 835.5Q2707.0 862 2681.0 880Q2662.0 892 2626.0 900.5Q2590.0 909 2560.0 911V976L2908.0 998L2922.0 984V180Q2922.0 145 2935.5 122.0Q2949.0 99 2978.0 88Q3000.0 79 3021.0 73.5Q3042.0 68 3068.0 66ZM2942.0 1387Q2942.0 1330 2904.5 1287.5Q2867.0 1245 2812.0 1245Q2761.0 1245 2723.5 1285.5Q2686.0 1326 2686.0 1378Q2686.0 1433 2723.5 1474.0Q2761.0 1515 2812.0 1515Q2869.0 1515 2905.5 1476.5Q2942.0 1438 2942.0 1387Z" />
      <path d="M3651.0 0H3170.0V66Q3193.0 68 3219.0 70.5Q3245.0 73 3262.0 78Q3290.0 87 3304.0 109.5Q3318.0 132 3318.0 168V1310Q3318.0 1346 3302.5 1377.5Q3287.0 1409 3262.0 1427Q3244.0 1439 3196.0 1449.0Q3148.0 1459 3119.0 1461V1525L3490.0 1548L3504.0 1533V180Q3504.0 145 3517.0 122.5Q3530.0 100 3559.0 88Q3581.0 78 3602.5 73.0Q3624.0 68 3651.0 66Z" />
      <path d="M4855.0 18 4511.0 -4 4496.0 10V102L4488.0 104Q4436.0 46 4359.5 9.0Q4283.0 -28 4202.0 -28Q4118.0 -28 4039.5 9.5Q3961.0 47 3903.0 115Q3844.0 184 3809.5 281.0Q3775.0 378 3775.0 495Q3775.0 602 3812.0 698.0Q3849.0 794 3914.0 866Q3975.0 933 4063.5 973.0Q4152.0 1013 4244.0 1013Q4313.0 1013 4379.5 995.5Q4446.0 978 4494.0 951V1294Q4494.0 1336 4480.0 1370.5Q4466.0 1405 4441.0 1423Q4413.0 1442 4365.5 1450.5Q4318.0 1459 4263.0 1463V1525L4666.0 1548L4681.0 1533V203Q4681.0 168 4694.5 143.5Q4708.0 119 4734.0 102Q4753.0 90 4789.0 87.0Q4825.0 84 4855.0 83ZM4494.0 191V768Q4486.0 794 4468.0 824.0Q4450.0 854 4423.0 879Q4394.0 904 4355.0 920.5Q4316.0 937 4264.0 937Q4204.0 937 4153.5 906.0Q4103.0 875 4064.0 817Q4027.0 761 4005.5 674.5Q3984.0 588 3984.0 483Q3984.0 399 4000.0 330.5Q4016.0 262 4054.0 203Q4089.0 147 4143.5 113.0Q4198.0 79 4273.0 79Q4353.0 79 4405.5 114.0Q4458.0 149 4494.0 191Z" />
      <path d="M6179.0 1429Q6179.0 1384 6155.0 1353.0Q6131.0 1322 6082.0 1322Q6051.0 1322 6027.5 1335.0Q6004.0 1348 5984.0 1370Q5964.0 1392 5947.0 1420.0Q5930.0 1448 5918.0 1465Q5851.0 1462 5814.5 1371.5Q5778.0 1281 5778.0 1083V982H6032.0V886H5778.0V178Q5778.0 143 5791.5 121.0Q5805.0 99 5834.0 88Q5858.0 79 5898.0 73.5Q5938.0 68 5967.0 66V0H5447.0V66Q5470.0 68 5494.5 70.0Q5519.0 72 5537.0 78Q5565.0 87 5578.5 109.5Q5592.0 132 5592.0 168V886H5397.0V982H5592.0V1045Q5592.0 1270 5708.5 1409.5Q5825.0 1549 6000.0 1549Q6089.0 1549 6134.0 1514.0Q6179.0 1479 6179.0 1429Z" />
      <path d="M6866.0 859Q6866.0 808 6841.0 768.5Q6816.0 729 6764.0 729Q6708.0 729 6678.5 758.0Q6649.0 787 6649.0 822Q6649.0 844 6652.5 862.0Q6656.0 880 6659.0 898Q6612.0 898 6549.0 860.0Q6486.0 822 6442.0 752V178Q6442.0 143 6455.5 121.0Q6469.0 99 6498.0 88Q6523.0 78 6562.5 73.0Q6602.0 68 6631.0 66V0H6111.0V66Q6134.0 68 6158.5 70.0Q6183.0 72 6201.0 78Q6229.0 87 6242.5 109.5Q6256.0 132 6256.0 168V777Q6256.0 808 6241.5 838.0Q6227.0 868 6201.0 886Q6182.0 898 6156.0 903.5Q6130.0 909 6100.0 911V976L6428.0 998L6442.0 984V845H6447.0Q6509.0 926 6585.0 968.0Q6661.0 1010 6724.0 1010Q6787.0 1010 6826.5 969.0Q6866.0 928 6866.0 859Z" />
      <path d="M7911.0 503Q7911.0 399 7878.0 298.5Q7845.0 198 7784.0 128Q7715.0 48 7624.0 9.0Q7533.0 -30 7420.0 -30Q7326.0 -30 7241.0 5.5Q7156.0 41 7090.0 109Q7025.0 176 6986.5 272.5Q6948.0 369 6948.0 489Q6948.0 720 7082.5 867.0Q7217.0 1014 7435.0 1014Q7642.0 1014 7776.5 874.5Q7911.0 735 7911.0 503ZM7704.0 501Q7704.0 576 7689.0 659.5Q7674.0 743 7644.0 801Q7612.0 863 7560.0 900.5Q7508.0 938 7433.0 938Q7356.0 938 7301.5 900.0Q7247.0 862 7213.0 796Q7181.0 735 7168.0 657.0Q7155.0 579 7155.0 506Q7155.0 410 7170.5 328.5Q7186.0 247 7220.0 183Q7254.0 119 7305.5 82.5Q7357.0 46 7433.0 46Q7558.0 46 7631.0 167.0Q7704.0 288 7704.0 501Z" />
      <path d="M9743.0 0H9262.0V66Q9285.0 68 9308.5 70.0Q9332.0 72 9350.0 78Q9378.0 87 9391.5 109.5Q9405.0 132 9405.0 168V677Q9405.0 781 9357.5 837.5Q9310.0 894 9239.0 894Q9190.0 894 9147.0 879.0Q9104.0 864 9068.0 837Q9039.0 815 9019.5 789.5Q9000.0 764 8990.0 747V178Q8990.0 143 9002.0 120.5Q9014.0 98 9043.0 86Q9066.0 77 9084.5 72.5Q9103.0 68 9133.0 66V0H8662.0V66Q8685.0 68 8706.5 70.0Q8728.0 72 8746.0 78Q8774.0 87 8787.5 109.5Q8801.0 132 8801.0 168V677Q8801.0 781 8753.5 837.5Q8706.0 894 8635.0 894Q8586.0 894 8543.0 878.5Q8500.0 863 8464.0 836Q8435.0 814 8415.0 786.5Q8395.0 759 8385.0 745V180Q8385.0 146 8399.0 123.0Q8413.0 100 8441.0 88Q8462.0 78 8484.0 73.0Q8506.0 68 8533.0 66V0H8054.0V66Q8077.0 68 8101.5 70.0Q8126.0 72 8144.0 78Q8172.0 87 8185.5 109.5Q8199.0 132 8199.0 168V781Q8199.0 813 8184.5 838.5Q8170.0 864 8144.0 882Q8125.0 894 8097.0 901.5Q8069.0 909 8039.0 911V976L8369.0 998L8383.0 984V843H8390.0Q8415.0 868 8451.0 902.0Q8487.0 936 8518.0 957Q8553.0 981 8605.5 997.0Q8658.0 1013 8719.0 1013Q8815.0 1013 8884.0 961.5Q8953.0 910 8983.0 837Q9019.0 872 9046.5 898.5Q9074.0 925 9119.0 955Q9157.0 981 9208.5 997.0Q9260.0 1013 9323.0 1013Q9448.0 1013 9521.0 931.0Q9594.0 849 9594.0 679V178Q9594.0 143 9606.0 120.5Q9618.0 98 9647.0 86Q9670.0 77 9692.5 72.5Q9715.0 68 9743.0 66Z" />
      <path d="M11107.0 859Q11107.0 808 11082.0 768.5Q11057.0 729 11005.0 729Q10949.0 729 10919.5 758.0Q10890.0 787 10890.0 822Q10890.0 844 10893.5 862.0Q10897.0 880 10900.0 898Q10853.0 898 10790.0 860.0Q10727.0 822 10683.0 752V178Q10683.0 143 10696.5 121.0Q10710.0 99 10739.0 88Q10764.0 78 10803.5 73.0Q10843.0 68 10872.0 66V0H10352.0V66Q10375.0 68 10399.5 70.0Q10424.0 72 10442.0 78Q10470.0 87 10483.5 109.5Q10497.0 132 10497.0 168V777Q10497.0 808 10482.5 838.0Q10468.0 868 10442.0 886Q10423.0 898 10397.0 903.5Q10371.0 909 10341.0 911V976L10669.0 998L10683.0 984V845H10688.0Q10750.0 926 10826.0 968.0Q10902.0 1010 10965.0 1010Q11028.0 1010 11067.5 969.0Q11107.0 928 11107.0 859Z" />
      <path d="M12067.0 232Q12005.0 114 11901.0 44.0Q11797.0 -26 11662.0 -26Q11543.0 -26 11453.5 16.0Q11364.0 58 11306.0 130Q11248.0 202 11219.5 298.0Q11191.0 394 11191.0 501Q11191.0 597 11221.5 689.5Q11252.0 782 11311.0 856Q11368.0 927 11452.5 970.5Q11537.0 1014 11642.0 1014Q11750.0 1014 11827.0 980.0Q11904.0 946 11952.0 887Q11998.0 831 12020.5 755.0Q12043.0 679 12043.0 590V524H11390.0Q11390.0 427 11408.5 348.0Q11427.0 269 11467.0 209Q11506.0 151 11569.0 117.5Q11632.0 84 11719.0 84Q11808.0 84 11872.5 125.5Q11937.0 167 11997.0 275ZM11846.0 608Q11846.0 664 11836.5 728.0Q11827.0 792 11806.0 835Q11783.0 881 11743.0 910.0Q11703.0 939 11640.0 939Q11535.0 939 11465.5 851.5Q11396.0 764 11390.0 608Z" />
      <path d="M13115.0 18Q13068.0 1 13032.5 -9.5Q12997.0 -20 12952.0 -20Q12874.0 -20 12827.5 16.5Q12781.0 53 12768.0 123H12762.0Q12697.0 51 12622.5 13.0Q12548.0 -25 12443.0 -25Q12332.0 -25 12260.5 43.0Q12189.0 111 12189.0 221Q12189.0 278 12205.0 323.0Q12221.0 368 12253.0 404Q12278.0 434 12319.0 457.5Q12360.0 481 12396.0 495Q12441.0 512 12578.5 558.0Q12716.0 604 12764.0 630V729Q12764.0 742 12758.5 779.0Q12753.0 816 12735.0 849Q12715.0 886 12678.5 913.5Q12642.0 941 12575.0 941Q12529.0 941 12489.5 925.5Q12450.0 910 12434.0 893Q12434.0 873 12443.5 834.0Q12453.0 795 12453.0 762Q12453.0 727 12421.5 698.0Q12390.0 669 12334.0 669Q12284.0 669 12260.5 704.5Q12237.0 740 12237.0 784Q12237.0 830 12269.5 872.0Q12302.0 914 12354.0 947Q12399.0 975 12463.0 994.5Q12527.0 1014 12588.0 1014Q12672.0 1014 12734.5 1002.5Q12797.0 991 12848.0 953Q12899.0 916 12925.5 852.5Q12952.0 789 12952.0 689Q12952.0 546 12949.0 435.5Q12946.0 325 12946.0 194Q12946.0 155 12959.5 132.0Q12973.0 109 13001.0 93Q13016.0 84 13048.5 83.0Q13081.0 82 13115.0 82ZM12766.0 546Q12681.0 521 12617.0 497.0Q12553.0 473 12498.0 437Q12448.0 403 12419.0 356.5Q12390.0 310 12390.0 246Q12390.0 163 12433.5 124.0Q12477.0 85 12544.0 85Q12615.0 85 12669.0 119.5Q12723.0 154 12760.0 201Z" />
      <path d="M13675.0 0H13194.0V66Q13217.0 68 13243.0 70.5Q13269.0 73 13286.0 78Q13314.0 87 13328.0 109.5Q13342.0 132 13342.0 168V1310Q13342.0 1346 13326.5 1377.5Q13311.0 1409 13286.0 1427Q13268.0 1439 13220.0 1449.0Q13172.0 1459 13143.0 1461V1525L13514.0 1548L13528.0 1533V180Q13528.0 145 13541.0 122.5Q13554.0 100 13583.0 88Q13605.0 78 13626.5 73.0Q13648.0 68 13675.0 66Z" />
      <path d="M15194.0 869Q15253.0 799 15285.5 706.5Q15318.0 614 15318.0 495Q15318.0 378 15279.0 281.5Q15240.0 185 15176.0 117Q15109.0 48 15027.0 11.0Q14945.0 -26 14853.0 -26Q14764.0 -26 14707.0 -6.0Q14650.0 14 14614.0 41H14606.0V-255Q14606.0 -291 14620.0 -315.0Q14634.0 -339 14663.0 -350Q14687.0 -359 14731.5 -367.5Q14776.0 -376 14805.0 -377V-444H14254.0V-377Q14285.0 -375 14314.0 -372.0Q14343.0 -369 14366.0 -362Q14396.0 -352 14408.0 -327.0Q14420.0 -302 14420.0 -268V781Q14420.0 811 14405.0 839.0Q14390.0 867 14366.0 884Q14348.0 896 14316.0 902.5Q14284.0 909 14254.0 911V976L14590.0 998L14604.0 986V875L14612.0 873Q14664.0 933 14741.0 973.0Q14818.0 1013 14894.0 1013Q14986.0 1013 15062.5 974.0Q15139.0 935 15194.0 869ZM15031.0 160Q15071.0 222 15090.0 304.0Q15109.0 386 15109.0 487Q15109.0 561 15093.0 638.0Q15077.0 715 15043.0 772Q15009.0 830 14954.0 866.0Q14899.0 902 14822.0 902Q14748.0 902 14696.0 869.5Q14644.0 837 14606.0 792V209Q14615.0 182 14635.5 153.0Q14656.0 124 14681.0 103Q14712.0 78 14748.0 62.5Q14784.0 47 14836.0 47Q14892.0 47 14944.0 76.5Q14996.0 106 15031.0 160Z" />
      <path d="M16218.0 859Q16218.0 808 16193.0 768.5Q16168.0 729 16116.0 729Q16060.0 729 16030.5 758.0Q16001.0 787 16001.0 822Q16001.0 844 16004.5 862.0Q16008.0 880 16011.0 898Q15964.0 898 15901.0 860.0Q15838.0 822 15794.0 752V178Q15794.0 143 15807.5 121.0Q15821.0 99 15850.0 88Q15875.0 78 15914.5 73.0Q15954.0 68 15983.0 66V0H15463.0V66Q15486.0 68 15510.5 70.0Q15535.0 72 15553.0 78Q15581.0 87 15594.5 109.5Q15608.0 132 15608.0 168V777Q15608.0 808 15593.5 838.0Q15579.0 868 15553.0 886Q15534.0 898 15508.0 903.5Q15482.0 909 15452.0 911V976L15780.0 998L15794.0 984V845H15799.0Q15861.0 926 15937.0 968.0Q16013.0 1010 16076.0 1010Q16139.0 1010 16178.5 969.0Q16218.0 928 16218.0 859Z" />
      <path d="M17263.0 503Q17263.0 399 17230.0 298.5Q17197.0 198 17136.0 128Q17067.0 48 16976.0 9.0Q16885.0 -30 16772.0 -30Q16678.0 -30 16593.0 5.5Q16508.0 41 16442.0 109Q16377.0 176 16338.5 272.5Q16300.0 369 16300.0 489Q16300.0 720 16434.5 867.0Q16569.0 1014 16787.0 1014Q16994.0 1014 17128.5 874.5Q17263.0 735 17263.0 503ZM17056.0 501Q17056.0 576 17041.0 659.5Q17026.0 743 16996.0 801Q16964.0 863 16912.0 900.5Q16860.0 938 16785.0 938Q16708.0 938 16653.5 900.0Q16599.0 862 16565.0 796Q16533.0 735 16520.0 657.0Q16507.0 579 16507.0 506Q16507.0 410 16522.5 328.5Q16538.0 247 16572.0 183Q16606.0 119 16657.5 82.5Q16709.0 46 16785.0 46Q16910.0 46 16983.0 167.0Q17056.0 288 17056.0 501Z" />
      <path d="M18407.0 494Q18407.0 272 18267.0 121.0Q18127.0 -30 17942.0 -30Q17861.0 -30 17782.5 -5.0Q17704.0 20 17635.0 62L17561.0 -53L17499.0 -39Q17504.0 35 17506.0 139.0Q17508.0 243 17508.0 340V1316Q17508.0 1350 17492.5 1384.0Q17477.0 1418 17453.0 1433Q17434.0 1446 17389.5 1452.5Q17345.0 1459 17318.0 1461V1525L17680.0 1548L17694.0 1533V883L17701.0 881Q17763.0 947 17836.5 980.0Q17910.0 1013 17981.0 1013Q18163.0 1013 18285.0 869.0Q18407.0 725 18407.0 494ZM18198.0 487Q18198.0 561 18182.0 638.0Q18166.0 715 18132.0 772Q18098.0 830 18043.0 866.0Q17988.0 902 17911.0 902Q17841.0 902 17788.5 874.5Q17736.0 847 17694.0 800V226Q17700.0 202 17717.5 170.0Q17735.0 138 17765.0 109Q17795.0 81 17833.0 63.5Q17871.0 46 17926.0 46Q18048.0 46 18123.0 164.0Q18198.0 282 18198.0 487Z" />
      <path d="M19015.0 0H18534.0V66Q18557.0 68 18583.0 70.5Q18609.0 73 18626.0 78Q18654.0 87 18668.0 109.5Q18682.0 132 18682.0 168V1310Q18682.0 1346 18666.5 1377.5Q18651.0 1409 18626.0 1427Q18608.0 1439 18560.0 1449.0Q18512.0 1459 18483.0 1461V1525L18854.0 1548L18868.0 1533V180Q18868.0 145 18881.0 122.5Q18894.0 100 18923.0 88Q18945.0 78 18966.5 73.0Q18988.0 68 19015.0 66Z" />
      <path d="M20015.0 232Q19953.0 114 19849.0 44.0Q19745.0 -26 19610.0 -26Q19491.0 -26 19401.5 16.0Q19312.0 58 19254.0 130Q19196.0 202 19167.5 298.0Q19139.0 394 19139.0 501Q19139.0 597 19169.5 689.5Q19200.0 782 19259.0 856Q19316.0 927 19400.5 970.5Q19485.0 1014 19590.0 1014Q19698.0 1014 19775.0 980.0Q19852.0 946 19900.0 887Q19946.0 831 19968.5 755.0Q19991.0 679 19991.0 590V524H19338.0Q19338.0 427 19356.5 348.0Q19375.0 269 19415.0 209Q19454.0 151 19517.0 117.5Q19580.0 84 19667.0 84Q19756.0 84 19820.5 125.5Q19885.0 167 19945.0 275ZM19794.0 608Q19794.0 664 19784.5 728.0Q19775.0 792 19754.0 835Q19731.0 881 19691.0 910.0Q19651.0 939 19588.0 939Q19483.0 939 19413.5 851.5Q19344.0 764 19338.0 608Z" />
      <path d="M21818.0 0H21337.0V66Q21360.0 68 21383.5 70.0Q21407.0 72 21425.0 78Q21453.0 87 21466.5 109.5Q21480.0 132 21480.0 168V677Q21480.0 781 21432.5 837.5Q21385.0 894 21314.0 894Q21265.0 894 21222.0 879.0Q21179.0 864 21143.0 837Q21114.0 815 21094.5 789.5Q21075.0 764 21065.0 747V178Q21065.0 143 21077.0 120.5Q21089.0 98 21118.0 86Q21141.0 77 21159.5 72.5Q21178.0 68 21208.0 66V0H20737.0V66Q20760.0 68 20781.5 70.0Q20803.0 72 20821.0 78Q20849.0 87 20862.5 109.5Q20876.0 132 20876.0 168V677Q20876.0 781 20828.5 837.5Q20781.0 894 20710.0 894Q20661.0 894 20618.0 878.5Q20575.0 863 20539.0 836Q20510.0 814 20490.0 786.5Q20470.0 759 20460.0 745V180Q20460.0 146 20474.0 123.0Q20488.0 100 20516.0 88Q20537.0 78 20559.0 73.0Q20581.0 68 20608.0 66V0H20129.0V66Q20152.0 68 20176.5 70.0Q20201.0 72 20219.0 78Q20247.0 87 20260.5 109.5Q20274.0 132 20274.0 168V781Q20274.0 813 20259.5 838.5Q20245.0 864 20219.0 882Q20200.0 894 20172.0 901.5Q20144.0 909 20114.0 911V976L20444.0 998L20458.0 984V843H20465.0Q20490.0 868 20526.0 902.0Q20562.0 936 20593.0 957Q20628.0 981 20680.5 997.0Q20733.0 1013 20794.0 1013Q20890.0 1013 20959.0 961.5Q21028.0 910 21058.0 837Q21094.0 872 21121.5 898.5Q21149.0 925 21194.0 955Q21232.0 981 21283.5 997.0Q21335.0 1013 21398.0 1013Q21523.0 1013 21596.0 931.0Q21669.0 849 21669.0 679V178Q21669.0 143 21681.0 120.5Q21693.0 98 21722.0 86Q21745.0 77 21767.5 72.5Q21790.0 68 21818.0 66Z" />
      <path d="M22584.0 483Q22625.0 447 22647.0 400.0Q22669.0 353 22669.0 285Q22669.0 148 22566.5 61.0Q22464.0 -26 22301.0 -26Q22215.0 -26 22142.5 5.0Q22070.0 36 22039.0 62L22019.0 -3H21944.0L21934.0 340H22003.0Q22011.0 301 22037.0 249.0Q22063.0 197 22100.0 155Q22139.0 111 22193.5 81.0Q22248.0 51 22316.0 51Q22412.0 51 22464.0 94.5Q22516.0 138 22516.0 219Q22516.0 261 22499.5 291.5Q22483.0 322 22451.0 345Q22418.0 368 22370.0 386.5Q22322.0 405 22263.0 423Q22216.0 437 22158.5 461.5Q22101.0 486 22060.0 519Q22016.0 554 21988.0 605.0Q21960.0 656 21960.0 725Q21960.0 846 22050.0 930.0Q22140.0 1014 22291.0 1014Q22349.0 1014 22409.5 999.0Q22470.0 984 22508.0 963L22531.0 1015H22603.0L22618.0 698H22549.0Q22528.0 804 22458.5 870.5Q22389.0 937 22289.0 937Q22207.0 937 22160.0 896.0Q22113.0 855 22113.0 797Q22113.0 752 22128.5 722.0Q22144.0 692 22175.0 671Q22205.0 651 22250.5 633.5Q22296.0 616 22363.0 594Q22429.0 573 22487.5 545.0Q22546.0 517 22584.0 483Z" />
      <path d="M23161.0 115Q23161.0 59 23120.5 19.5Q23080.0 -20 23024.0 -20Q22968.0 -20 22927.5 19.5Q22887.0 59 22887.0 115Q22887.0 171 22927.5 211.5Q22968.0 252 23024.0 252Q23080.0 252 23120.5 211.5Q23161.0 171 23161.0 115Z" />
    </g>
  </g>
  <g class="line-wrap line-wrap-1" clip-path="url(#clip1)">
    <g fill="currentColor" transform="translate(293.33 38.08) scale(0.013046 -0.013046)">
      <path d="M1421.0 0H830.0V71Q908.0 76 959.5 91.0Q1011.0 106 1011.0 128Q1011.0 137 1009.0 150.0Q1007.0 163 1003.0 173L885.0 491H388.0Q360.0 421 342.5 369.0Q325.0 317 311.0 273Q298.0 230 293.0 203.0Q288.0 176 288.0 159Q288.0 119 351.0 97.0Q414.0 75 493.0 71V0H-41.0V71Q-15.0 73 24.0 82.5Q63.0 92 88.0 108Q128.0 135 150.0 164.5Q172.0 194 193.0 246Q300.0 513 429.0 846.0Q558.0 1179 659.0 1439H739.0L1212.0 215Q1227.0 176 1246.0 152.0Q1265.0 128 1299.0 105Q1322.0 91 1359.0 81.5Q1396.0 72 1421.0 71ZM849.0 580 634.0 1130 423.0 580Z" />
      <path d="M2291.0 102Q2331.0 64 2354.0 16.0Q2377.0 -32 2377.0 -103Q2377.0 -174 2346.0 -236.5Q2315.0 -299 2252.0 -345Q2185.0 -392 2092.0 -418.0Q1999.0 -444 1862.0 -444Q1638.0 -444 1527.0 -378.5Q1416.0 -313 1416.0 -187Q1416.0 -85 1496.0 -26.0Q1576.0 33 1700.0 38V52Q1670.0 61 1638.0 74.5Q1606.0 88 1583.0 106Q1557.0 127 1541.0 155.5Q1525.0 184 1525.0 226Q1525.0 279 1562.5 323.5Q1600.0 368 1676.0 400V415Q1580.0 460 1527.0 530.5Q1474.0 601 1474.0 694Q1474.0 834 1578.5 924.0Q1683.0 1014 1846.0 1014Q1891.0 1014 1935.5 1005.0Q1980.0 996 2026.0 982H2370.0V886H2138.0V880Q2175.0 837 2193.0 785.0Q2211.0 733 2211.0 683Q2211.0 553 2105.5 463.0Q2000.0 373 1860.0 373H1739.0Q1716.0 365 1691.0 344.0Q1666.0 323 1666.0 287Q1666.0 250 1687.0 230.5Q1708.0 211 1738.0 204Q1767.0 196 1805.5 194.0Q1844.0 192 1885.0 191Q1929.0 190 2005.5 185.0Q2082.0 180 2114.0 179Q2160.0 177 2206.5 157.0Q2253.0 137 2291.0 102ZM2021.0 687Q2021.0 804 1973.5 873.5Q1926.0 943 1840.0 943Q1793.0 943 1759.5 923.5Q1726.0 904 1705.0 868Q1685.0 835 1676.5 788.5Q1668.0 742 1668.0 693Q1668.0 582 1716.5 512.0Q1765.0 442 1842.0 442Q1928.0 442 1974.5 511.5Q2021.0 581 2021.0 687ZM2213.0 -140Q2213.0 -84 2187.0 -48.0Q2161.0 -12 2108.0 1Q2080.0 5 1993.0 10.0Q1906.0 15 1791.0 15Q1683.0 -6 1637.5 -55.5Q1592.0 -105 1592.0 -183Q1592.0 -218 1607.0 -250.0Q1622.0 -282 1659.0 -309Q1694.0 -335 1753.0 -351.5Q1812.0 -368 1897.0 -368Q2044.0 -368 2128.5 -311.5Q2213.0 -255 2213.0 -140Z" />
      <path d="M3365.0 232Q3303.0 114 3199.0 44.0Q3095.0 -26 2960.0 -26Q2841.0 -26 2751.5 16.0Q2662.0 58 2604.0 130Q2546.0 202 2517.5 298.0Q2489.0 394 2489.0 501Q2489.0 597 2519.5 689.5Q2550.0 782 2609.0 856Q2666.0 927 2750.5 970.5Q2835.0 1014 2940.0 1014Q3048.0 1014 3125.0 980.0Q3202.0 946 3250.0 887Q3296.0 831 3318.5 755.0Q3341.0 679 3341.0 590V524H2688.0Q2688.0 427 2706.5 348.0Q2725.0 269 2765.0 209Q2804.0 151 2867.0 117.5Q2930.0 84 3017.0 84Q3106.0 84 3170.5 125.5Q3235.0 167 3295.0 275ZM3144.0 608Q3144.0 664 3134.5 728.0Q3125.0 792 3104.0 835Q3081.0 881 3041.0 910.0Q3001.0 939 2938.0 939Q2833.0 939 2763.5 851.5Q2694.0 764 2688.0 608Z" />
      <path d="M4568.0 0H4085.0V66Q4108.0 68 4135.5 70.0Q4163.0 72 4181.0 78Q4209.0 87 4222.5 109.5Q4236.0 132 4236.0 168V675Q4236.0 780 4186.5 837.0Q4137.0 894 4066.0 894Q4013.0 894 3969.0 877.5Q3925.0 861 3891.0 837Q3858.0 814 3838.5 787.5Q3819.0 761 3810.0 745V178Q3810.0 144 3824.0 122.0Q3838.0 100 3866.0 88Q3887.0 78 3911.5 73.0Q3936.0 68 3962.0 66V0H3479.0V66Q3502.0 68 3526.5 70.0Q3551.0 72 3569.0 78Q3597.0 87 3610.5 109.5Q3624.0 132 3624.0 168V777Q3624.0 811 3609.5 839.5Q3595.0 868 3569.0 886Q3550.0 898 3524.0 903.5Q3498.0 909 3468.0 911V976L3796.0 998L3810.0 984V845H3815.0Q3839.0 869 3875.0 902.5Q3911.0 936 3943.0 957Q3980.0 981 4031.0 997.0Q4082.0 1013 4146.0 1013Q4288.0 1013 4356.5 924.5Q4425.0 836 4425.0 689V176Q4425.0 141 4437.0 119.5Q4449.0 98 4478.0 86Q4502.0 76 4519.5 72.0Q4537.0 68 4568.0 66Z" />
      <path d="M5298.0 43Q5233.0 16 5175.0 -2.5Q5117.0 -21 5033.0 -21Q4909.0 -21 4858.5 41.5Q4808.0 104 4808.0 218V886H4630.0V982H4812.0V1289H4994.0V982H5277.0V886H4996.0V335Q4996.0 273 5000.5 231.5Q5005.0 190 5022.0 159Q5038.0 130 5070.0 115.0Q5102.0 100 5156.0 100Q5181.0 100 5229.5 104.5Q5278.0 109 5298.0 116Z" />
      <path d="M6243.0 559Q6243.0 503 6202.5 463.5Q6162.0 424 6106.0 424Q6050.0 424 6009.5 463.5Q5969.0 503 5969.0 559Q5969.0 615 6009.5 655.5Q6050.0 696 6106.0 696Q6162.0 696 6202.5 655.5Q6243.0 615 6243.0 559Z" />
      <path d="M7607.0 -33Q7480.0 -33 7363.5 17.0Q7247.0 67 7157.0 161Q7068.0 255 7015.0 390.5Q6962.0 526 6962.0 696Q6962.0 866 7014.0 1004.5Q7066.0 1143 7158.0 1243Q7249.0 1342 7373.0 1396.0Q7497.0 1450 7638.0 1450Q7743.0 1450 7828.0 1424.0Q7913.0 1398 7990.0 1351L8031.0 1419H8111.0L8120.0 913H8038.0Q8022.0 987 7990.0 1073.5Q7958.0 1160 7915.0 1220Q7867.0 1288 7801.0 1326.5Q7735.0 1365 7650.0 1365Q7553.0 1365 7469.5 1322.0Q7386.0 1279 7325.0 1195Q7267.0 1114 7234.0 989.0Q7201.0 864 7201.0 710Q7201.0 574 7235.5 460.5Q7270.0 347 7334.0 261Q7398.0 176 7485.5 128.0Q7573.0 80 7681.0 80Q7762.0 80 7830.0 105.5Q7898.0 131 7948.0 173Q7998.0 217 8036.0 273.0Q8074.0 329 8098.0 395L8173.0 359Q8087.0 148 7945.0 57.5Q7803.0 -33 7607.0 -33Z" />
      <path d="M9232.0 503Q9232.0 399 9199.0 298.5Q9166.0 198 9105.0 128Q9036.0 48 8945.0 9.0Q8854.0 -30 8741.0 -30Q8647.0 -30 8562.0 5.5Q8477.0 41 8411.0 109Q8346.0 176 8307.5 272.5Q8269.0 369 8269.0 489Q8269.0 720 8403.5 867.0Q8538.0 1014 8756.0 1014Q8963.0 1014 9097.5 874.5Q9232.0 735 9232.0 503ZM9025.0 501Q9025.0 576 9010.0 659.5Q8995.0 743 8965.0 801Q8933.0 863 8881.0 900.5Q8829.0 938 8754.0 938Q8677.0 938 8622.5 900.0Q8568.0 862 8534.0 796Q8502.0 735 8489.0 657.0Q8476.0 579 8476.0 506Q8476.0 410 8491.5 328.5Q8507.0 247 8541.0 183Q8575.0 119 8626.5 82.5Q8678.0 46 8754.0 46Q8879.0 46 8952.0 167.0Q9025.0 288 9025.0 501Z" />
      <path d="M10455.0 18 10111.0 -4 10096.0 10V102L10088.0 104Q10036.0 46 9959.5 9.0Q9883.0 -28 9802.0 -28Q9718.0 -28 9639.5 9.5Q9561.0 47 9503.0 115Q9444.0 184 9409.5 281.0Q9375.0 378 9375.0 495Q9375.0 602 9412.0 698.0Q9449.0 794 9514.0 866Q9575.0 933 9663.5 973.0Q9752.0 1013 9844.0 1013Q9913.0 1013 9979.5 995.5Q10046.0 978 10094.0 951V1294Q10094.0 1336 10080.0 1370.5Q10066.0 1405 10041.0 1423Q10013.0 1442 9965.5 1450.5Q9918.0 1459 9863.0 1463V1525L10266.0 1548L10281.0 1533V203Q10281.0 168 10294.5 143.5Q10308.0 119 10334.0 102Q10353.0 90 10389.0 87.0Q10425.0 84 10455.0 83ZM10094.0 191V768Q10086.0 794 10068.0 824.0Q10050.0 854 10023.0 879Q9994.0 904 9955.0 920.5Q9916.0 937 9864.0 937Q9804.0 937 9753.5 906.0Q9703.0 875 9664.0 817Q9627.0 761 9605.5 674.5Q9584.0 588 9584.0 483Q9584.0 399 9600.0 330.5Q9616.0 262 9654.0 203Q9689.0 147 9743.5 113.0Q9798.0 79 9873.0 79Q9953.0 79 10005.5 114.0Q10058.0 149 10094.0 191Z" />
      <path d="M11427.0 232Q11365.0 114 11261.0 44.0Q11157.0 -26 11022.0 -26Q10903.0 -26 10813.5 16.0Q10724.0 58 10666.0 130Q10608.0 202 10579.5 298.0Q10551.0 394 10551.0 501Q10551.0 597 10581.5 689.5Q10612.0 782 10671.0 856Q10728.0 927 10812.5 970.5Q10897.0 1014 11002.0 1014Q11110.0 1014 11187.0 980.0Q11264.0 946 11312.0 887Q11358.0 831 11380.5 755.0Q11403.0 679 11403.0 590V524H10750.0Q10750.0 427 10768.5 348.0Q10787.0 269 10827.0 209Q10866.0 151 10929.0 117.5Q10992.0 84 11079.0 84Q11168.0 84 11232.5 125.5Q11297.0 167 11357.0 275ZM11206.0 608Q11206.0 664 11196.5 728.0Q11187.0 792 11166.0 835Q11143.0 881 11103.0 910.0Q11063.0 939 11000.0 939Q10895.0 939 10825.5 851.5Q10756.0 764 10750.0 608Z" />
      <path d="M12388.0 559Q12388.0 503 12347.5 463.5Q12307.0 424 12251.0 424Q12195.0 424 12154.5 463.5Q12114.0 503 12114.0 559Q12114.0 615 12154.5 655.5Q12195.0 696 12251.0 696Q12307.0 696 12347.5 655.5Q12388.0 615 12388.0 559Z" />
      <path d="M14486.0 701Q14486.0 520 14418.0 387.0Q14350.0 254 14241.0 169Q14131.0 84 13994.0 42.0Q13857.0 0 13711.0 0H13123.0V71Q13152.0 71 13198.5 76.5Q13245.0 82 13260.0 89Q13290.0 102 13303.5 127.5Q13317.0 153 13317.0 189V1213Q13317.0 1247 13305.5 1274.0Q13294.0 1301 13260.0 1317Q13229.0 1332 13193.0 1339.0Q13157.0 1346 13131.0 1348V1419H13751.0Q13879.0 1419 14003.0 1379.5Q14127.0 1340 14219.0 1273Q14344.0 1184 14415.0 1040.0Q14486.0 896 14486.0 701ZM14241.0 702Q14241.0 845 14203.0 960.5Q14165.0 1076 14092.0 1162Q14023.0 1244 13922.5 1291.0Q13822.0 1338 13699.0 1338Q13658.0 1338 13606.5 1336.5Q13555.0 1335 13530.0 1334V243Q13530.0 152 13583.0 117.0Q13636.0 82 13746.0 82Q13873.0 82 13968.0 127.0Q14063.0 172 14122.0 252Q14184.0 336 14212.5 446.5Q14241.0 557 14241.0 702Z" />
      <path d="M15569.0 18Q15522.0 1 15486.5 -9.5Q15451.0 -20 15406.0 -20Q15328.0 -20 15281.5 16.5Q15235.0 53 15222.0 123H15216.0Q15151.0 51 15076.5 13.0Q15002.0 -25 14897.0 -25Q14786.0 -25 14714.5 43.0Q14643.0 111 14643.0 221Q14643.0 278 14659.0 323.0Q14675.0 368 14707.0 404Q14732.0 434 14773.0 457.5Q14814.0 481 14850.0 495Q14895.0 512 15032.5 558.0Q15170.0 604 15218.0 630V729Q15218.0 742 15212.5 779.0Q15207.0 816 15189.0 849Q15169.0 886 15132.5 913.5Q15096.0 941 15029.0 941Q14983.0 941 14943.5 925.5Q14904.0 910 14888.0 893Q14888.0 873 14897.5 834.0Q14907.0 795 14907.0 762Q14907.0 727 14875.5 698.0Q14844.0 669 14788.0 669Q14738.0 669 14714.5 704.5Q14691.0 740 14691.0 784Q14691.0 830 14723.5 872.0Q14756.0 914 14808.0 947Q14853.0 975 14917.0 994.5Q14981.0 1014 15042.0 1014Q15126.0 1014 15188.5 1002.5Q15251.0 991 15302.0 953Q15353.0 916 15379.5 852.5Q15406.0 789 15406.0 689Q15406.0 546 15403.0 435.5Q15400.0 325 15400.0 194Q15400.0 155 15413.5 132.0Q15427.0 109 15455.0 93Q15470.0 84 15502.5 83.0Q15535.0 82 15569.0 82ZM15220.0 546Q15135.0 521 15071.0 497.0Q15007.0 473 14952.0 437Q14902.0 403 14873.0 356.5Q14844.0 310 14844.0 246Q14844.0 163 14887.5 124.0Q14931.0 85 14998.0 85Q15069.0 85 15123.0 119.5Q15177.0 154 15214.0 201Z" />
      <path d="M16276.0 43Q16211.0 16 16153.0 -2.5Q16095.0 -21 16011.0 -21Q15887.0 -21 15836.5 41.5Q15786.0 104 15786.0 218V886H15608.0V982H15790.0V1289H15972.0V982H16255.0V886H15974.0V335Q15974.0 273 15978.5 231.5Q15983.0 190 16000.0 159Q16016.0 130 16048.0 115.0Q16080.0 100 16134.0 100Q16159.0 100 16207.5 104.5Q16256.0 109 16276.0 116Z" />
      <path d="M17308.0 18Q17261.0 1 17225.5 -9.5Q17190.0 -20 17145.0 -20Q17067.0 -20 17020.5 16.5Q16974.0 53 16961.0 123H16955.0Q16890.0 51 16815.5 13.0Q16741.0 -25 16636.0 -25Q16525.0 -25 16453.5 43.0Q16382.0 111 16382.0 221Q16382.0 278 16398.0 323.0Q16414.0 368 16446.0 404Q16471.0 434 16512.0 457.5Q16553.0 481 16589.0 495Q16634.0 512 16771.5 558.0Q16909.0 604 16957.0 630V729Q16957.0 742 16951.5 779.0Q16946.0 816 16928.0 849Q16908.0 886 16871.5 913.5Q16835.0 941 16768.0 941Q16722.0 941 16682.5 925.5Q16643.0 910 16627.0 893Q16627.0 873 16636.5 834.0Q16646.0 795 16646.0 762Q16646.0 727 16614.5 698.0Q16583.0 669 16527.0 669Q16477.0 669 16453.5 704.5Q16430.0 740 16430.0 784Q16430.0 830 16462.5 872.0Q16495.0 914 16547.0 947Q16592.0 975 16656.0 994.5Q16720.0 1014 16781.0 1014Q16865.0 1014 16927.5 1002.5Q16990.0 991 17041.0 953Q17092.0 916 17118.5 852.5Q17145.0 789 17145.0 689Q17145.0 546 17142.0 435.5Q17139.0 325 17139.0 194Q17139.0 155 17152.5 132.0Q17166.0 109 17194.0 93Q17209.0 84 17241.5 83.0Q17274.0 82 17308.0 82ZM16959.0 546Q16874.0 521 16810.0 497.0Q16746.0 473 16691.0 437Q16641.0 403 16612.0 356.5Q16583.0 310 16583.0 246Q16583.0 163 16626.5 124.0Q16670.0 85 16737.0 85Q16808.0 85 16862.0 119.5Q16916.0 154 16953.0 201Z" />
      <path d="M17749.0 115Q17749.0 59 17708.5 19.5Q17668.0 -20 17612.0 -20Q17556.0 -20 17515.5 19.5Q17475.0 59 17475.0 115Q17475.0 171 17515.5 211.5Q17556.0 252 17612.0 252Q17668.0 252 17708.5 211.5Q17749.0 171 17749.0 115Z" />
    </g>
  </g>
  <g class="line-wrap line-wrap-2" clip-path="url(#clip2)">
    <g fill="currentColor" transform="translate(153.97 38.08) scale(0.013046 -0.013046)">
      <path d="M1806.0 0H1179.0V71Q1213.0 72 1266.5 78.0Q1320.0 84 1340.0 95Q1371.0 114 1385.5 138.5Q1400.0 163 1400.0 200V1232H1385.0L901.0 23H851.0L390.0 1257H377.0V410Q377.0 287 392.5 223.0Q408.0 159 440.0 131Q462.0 110 531.0 91.0Q600.0 72 621.0 71V0H48.0V71Q93.0 75 142.5 86.0Q192.0 97 219.0 119Q254.0 147 267.0 205.0Q280.0 263 280.0 399V1125Q280.0 1188 265.0 1228.0Q250.0 1268 222.0 1293Q191.0 1320 146.0 1333.0Q101.0 1346 57.0 1348V1419H541.0L947.0 355L1294.0 1245Q1313.0 1294 1326.5 1347.5Q1340.0 1401 1341.0 1419H1804.0V1348Q1776.0 1347 1732.5 1339.0Q1689.0 1331 1669.0 1324Q1635.0 1312 1623.0 1284.0Q1611.0 1256 1611.0 1223V200Q1611.0 165 1623.0 141.0Q1635.0 117 1669.0 99Q1687.0 89 1733.0 80.5Q1779.0 72 1806.0 71Z" />
      <path d="M2905.0 18Q2858.0 1 2822.5 -9.5Q2787.0 -20 2742.0 -20Q2664.0 -20 2617.5 16.5Q2571.0 53 2558.0 123H2552.0Q2487.0 51 2412.5 13.0Q2338.0 -25 2233.0 -25Q2122.0 -25 2050.5 43.0Q1979.0 111 1979.0 221Q1979.0 278 1995.0 323.0Q2011.0 368 2043.0 404Q2068.0 434 2109.0 457.5Q2150.0 481 2186.0 495Q2231.0 512 2368.5 558.0Q2506.0 604 2554.0 630V729Q2554.0 742 2548.5 779.0Q2543.0 816 2525.0 849Q2505.0 886 2468.5 913.5Q2432.0 941 2365.0 941Q2319.0 941 2279.5 925.5Q2240.0 910 2224.0 893Q2224.0 873 2233.5 834.0Q2243.0 795 2243.0 762Q2243.0 727 2211.5 698.0Q2180.0 669 2124.0 669Q2074.0 669 2050.5 704.5Q2027.0 740 2027.0 784Q2027.0 830 2059.5 872.0Q2092.0 914 2144.0 947Q2189.0 975 2253.0 994.5Q2317.0 1014 2378.0 1014Q2462.0 1014 2524.5 1002.5Q2587.0 991 2638.0 953Q2689.0 916 2715.5 852.5Q2742.0 789 2742.0 689Q2742.0 546 2739.0 435.5Q2736.0 325 2736.0 194Q2736.0 155 2749.5 132.0Q2763.0 109 2791.0 93Q2806.0 84 2838.5 83.0Q2871.0 82 2905.0 82ZM2556.0 546Q2471.0 521 2407.0 497.0Q2343.0 473 2288.0 437Q2238.0 403 2209.0 356.5Q2180.0 310 2180.0 246Q2180.0 163 2223.5 124.0Q2267.0 85 2334.0 85Q2405.0 85 2459.0 119.5Q2513.0 154 2550.0 201Z" />
      <path d="M4048.0 0H3750.0Q3672.0 113 3583.0 242.0Q3494.0 371 3398.0 493L3316.0 416V182Q3316.0 146 3329.0 122.5Q3342.0 99 3371.0 88Q3395.0 78 3417.0 73.0Q3439.0 68 3468.0 66V0H2984.0V66Q3007.0 68 3032.0 70.5Q3057.0 73 3074.0 78Q3102.0 87 3116.0 109.5Q3130.0 132 3130.0 168V1314Q3130.0 1351 3114.5 1383.5Q3099.0 1416 3074.0 1433Q3053.0 1449 3008.5 1454.0Q2964.0 1459 2937.0 1461V1525L3302.0 1548L3316.0 1533V490Q3394.0 568 3484.5 657.5Q3575.0 747 3637.0 817Q3645.0 826 3654.5 840.5Q3664.0 855 3664.0 864Q3664.0 891 3620.5 904.0Q3577.0 917 3537.0 922V986H3971.0V924Q3887.0 899 3822.5 861.5Q3758.0 824 3724.0 794Q3700.0 774 3656.0 729.0Q3612.0 684 3533.0 611Q3615.0 510 3717.5 369.0Q3820.0 228 3867.0 165Q3911.0 106 3946.0 88.0Q3981.0 70 4048.0 66Z" />
      <path d="M4976.0 232Q4914.0 114 4810.0 44.0Q4706.0 -26 4571.0 -26Q4452.0 -26 4362.5 16.0Q4273.0 58 4215.0 130Q4157.0 202 4128.5 298.0Q4100.0 394 4100.0 501Q4100.0 597 4130.5 689.5Q4161.0 782 4220.0 856Q4277.0 927 4361.5 970.5Q4446.0 1014 4551.0 1014Q4659.0 1014 4736.0 980.0Q4813.0 946 4861.0 887Q4907.0 831 4929.5 755.0Q4952.0 679 4952.0 590V524H4299.0Q4299.0 427 4317.5 348.0Q4336.0 269 4376.0 209Q4415.0 151 4478.0 117.5Q4541.0 84 4628.0 84Q4717.0 84 4781.5 125.5Q4846.0 167 4906.0 275ZM4755.0 608Q4755.0 664 4745.5 728.0Q4736.0 792 4715.0 835Q4692.0 881 4652.0 910.0Q4612.0 939 4549.0 939Q4444.0 939 4374.5 851.5Q4305.0 764 4299.0 608Z" />
      <path d="M6063.0 0H5586.0V66Q5609.0 68 5633.5 70.0Q5658.0 72 5676.0 78Q5704.0 87 5717.5 109.5Q5731.0 132 5731.0 168V777Q5731.0 809 5716.5 835.5Q5702.0 862 5676.0 880Q5657.0 892 5621.0 900.5Q5585.0 909 5555.0 911V976L5903.0 998L5917.0 984V180Q5917.0 145 5930.5 122.0Q5944.0 99 5973.0 88Q5995.0 79 6016.0 73.5Q6037.0 68 6063.0 66ZM5937.0 1387Q5937.0 1330 5899.5 1287.5Q5862.0 1245 5807.0 1245Q5756.0 1245 5718.5 1285.5Q5681.0 1326 5681.0 1378Q5681.0 1433 5718.5 1474.0Q5756.0 1515 5807.0 1515Q5864.0 1515 5900.5 1476.5Q5937.0 1438 5937.0 1387Z" />
      <path d="M7264.0 18 6920.0 -4 6905.0 10V102L6897.0 104Q6845.0 46 6768.5 9.0Q6692.0 -28 6611.0 -28Q6527.0 -28 6448.5 9.5Q6370.0 47 6312.0 115Q6253.0 184 6218.5 281.0Q6184.0 378 6184.0 495Q6184.0 602 6221.0 698.0Q6258.0 794 6323.0 866Q6384.0 933 6472.5 973.0Q6561.0 1013 6653.0 1013Q6722.0 1013 6788.5 995.5Q6855.0 978 6903.0 951V1294Q6903.0 1336 6889.0 1370.5Q6875.0 1405 6850.0 1423Q6822.0 1442 6774.5 1450.5Q6727.0 1459 6672.0 1463V1525L7075.0 1548L7090.0 1533V203Q7090.0 168 7103.5 143.5Q7117.0 119 7143.0 102Q7162.0 90 7198.0 87.0Q7234.0 84 7264.0 83ZM6903.0 191V768Q6895.0 794 6877.0 824.0Q6859.0 854 6832.0 879Q6803.0 904 6764.0 920.5Q6725.0 937 6673.0 937Q6613.0 937 6562.5 906.0Q6512.0 875 6473.0 817Q6436.0 761 6414.5 674.5Q6393.0 588 6393.0 483Q6393.0 399 6409.0 330.5Q6425.0 262 6463.0 203Q6498.0 147 6552.5 113.0Q6607.0 79 6682.0 79Q6762.0 79 6814.5 114.0Q6867.0 149 6903.0 191Z" />
      <path d="M8236.0 232Q8174.0 114 8070.0 44.0Q7966.0 -26 7831.0 -26Q7712.0 -26 7622.5 16.0Q7533.0 58 7475.0 130Q7417.0 202 7388.5 298.0Q7360.0 394 7360.0 501Q7360.0 597 7390.5 689.5Q7421.0 782 7480.0 856Q7537.0 927 7621.5 970.5Q7706.0 1014 7811.0 1014Q7919.0 1014 7996.0 980.0Q8073.0 946 8121.0 887Q8167.0 831 8189.5 755.0Q8212.0 679 8212.0 590V524H7559.0Q7559.0 427 7577.5 348.0Q7596.0 269 7636.0 209Q7675.0 151 7738.0 117.5Q7801.0 84 7888.0 84Q7977.0 84 8041.5 125.5Q8106.0 167 8166.0 275ZM8015.0 608Q8015.0 664 8005.5 728.0Q7996.0 792 7975.0 835Q7952.0 881 7912.0 910.0Q7872.0 939 7809.0 939Q7704.0 939 7634.5 851.5Q7565.0 764 7559.0 608Z" />
      <path d="M9284.0 18Q9237.0 1 9201.5 -9.5Q9166.0 -20 9121.0 -20Q9043.0 -20 8996.5 16.5Q8950.0 53 8937.0 123H8931.0Q8866.0 51 8791.5 13.0Q8717.0 -25 8612.0 -25Q8501.0 -25 8429.5 43.0Q8358.0 111 8358.0 221Q8358.0 278 8374.0 323.0Q8390.0 368 8422.0 404Q8447.0 434 8488.0 457.5Q8529.0 481 8565.0 495Q8610.0 512 8747.5 558.0Q8885.0 604 8933.0 630V729Q8933.0 742 8927.5 779.0Q8922.0 816 8904.0 849Q8884.0 886 8847.5 913.5Q8811.0 941 8744.0 941Q8698.0 941 8658.5 925.5Q8619.0 910 8603.0 893Q8603.0 873 8612.5 834.0Q8622.0 795 8622.0 762Q8622.0 727 8590.5 698.0Q8559.0 669 8503.0 669Q8453.0 669 8429.5 704.5Q8406.0 740 8406.0 784Q8406.0 830 8438.5 872.0Q8471.0 914 8523.0 947Q8568.0 975 8632.0 994.5Q8696.0 1014 8757.0 1014Q8841.0 1014 8903.5 1002.5Q8966.0 991 9017.0 953Q9068.0 916 9094.5 852.5Q9121.0 789 9121.0 689Q9121.0 546 9118.0 435.5Q9115.0 325 9115.0 194Q9115.0 155 9128.5 132.0Q9142.0 109 9170.0 93Q9185.0 84 9217.5 83.0Q9250.0 82 9284.0 82ZM8935.0 546Q8850.0 521 8786.0 497.0Q8722.0 473 8667.0 437Q8617.0 403 8588.0 356.5Q8559.0 310 8559.0 246Q8559.0 163 8602.5 124.0Q8646.0 85 8713.0 85Q8784.0 85 8838.0 119.5Q8892.0 154 8929.0 201Z" />
      <path d="M10033.0 483Q10074.0 447 10096.0 400.0Q10118.0 353 10118.0 285Q10118.0 148 10015.5 61.0Q9913.0 -26 9750.0 -26Q9664.0 -26 9591.5 5.0Q9519.0 36 9488.0 62L9468.0 -3H9393.0L9383.0 340H9452.0Q9460.0 301 9486.0 249.0Q9512.0 197 9549.0 155Q9588.0 111 9642.5 81.0Q9697.0 51 9765.0 51Q9861.0 51 9913.0 94.5Q9965.0 138 9965.0 219Q9965.0 261 9948.5 291.5Q9932.0 322 9900.0 345Q9867.0 368 9819.0 386.5Q9771.0 405 9712.0 423Q9665.0 437 9607.5 461.5Q9550.0 486 9509.0 519Q9465.0 554 9437.0 605.0Q9409.0 656 9409.0 725Q9409.0 846 9499.0 930.0Q9589.0 1014 9740.0 1014Q9798.0 1014 9858.5 999.0Q9919.0 984 9957.0 963L9980.0 1015H10052.0L10067.0 698H9998.0Q9977.0 804 9907.5 870.5Q9838.0 937 9738.0 937Q9656.0 937 9609.0 896.0Q9562.0 855 9562.0 797Q9562.0 752 9577.5 722.0Q9593.0 692 9624.0 671Q9654.0 651 9699.5 633.5Q9745.0 616 9812.0 594Q9878.0 573 9936.5 545.0Q9995.0 517 10033.0 483Z" />
      <path d="M11370.0 43Q11305.0 16 11247.0 -2.5Q11189.0 -21 11105.0 -21Q10981.0 -21 10930.5 41.5Q10880.0 104 10880.0 218V886H10702.0V982H10884.0V1289H11066.0V982H11349.0V886H11068.0V335Q11068.0 273 11072.5 231.5Q11077.0 190 11094.0 159Q11110.0 130 11142.0 115.0Q11174.0 100 11228.0 100Q11253.0 100 11301.5 104.5Q11350.0 109 11370.0 116Z" />
      <path d="M12402.0 18Q12355.0 1 12319.5 -9.5Q12284.0 -20 12239.0 -20Q12161.0 -20 12114.5 16.5Q12068.0 53 12055.0 123H12049.0Q11984.0 51 11909.5 13.0Q11835.0 -25 11730.0 -25Q11619.0 -25 11547.5 43.0Q11476.0 111 11476.0 221Q11476.0 278 11492.0 323.0Q11508.0 368 11540.0 404Q11565.0 434 11606.0 457.5Q11647.0 481 11683.0 495Q11728.0 512 11865.5 558.0Q12003.0 604 12051.0 630V729Q12051.0 742 12045.5 779.0Q12040.0 816 12022.0 849Q12002.0 886 11965.5 913.5Q11929.0 941 11862.0 941Q11816.0 941 11776.5 925.5Q11737.0 910 11721.0 893Q11721.0 873 11730.5 834.0Q11740.0 795 11740.0 762Q11740.0 727 11708.5 698.0Q11677.0 669 11621.0 669Q11571.0 669 11547.5 704.5Q11524.0 740 11524.0 784Q11524.0 830 11556.5 872.0Q11589.0 914 11641.0 947Q11686.0 975 11750.0 994.5Q11814.0 1014 11875.0 1014Q11959.0 1014 12021.5 1002.5Q12084.0 991 12135.0 953Q12186.0 916 12212.5 852.5Q12239.0 789 12239.0 689Q12239.0 546 12236.0 435.5Q12233.0 325 12233.0 194Q12233.0 155 12246.5 132.0Q12260.0 109 12288.0 93Q12303.0 84 12335.5 83.0Q12368.0 82 12402.0 82ZM12053.0 546Q11968.0 521 11904.0 497.0Q11840.0 473 11785.0 437Q11735.0 403 11706.0 356.5Q11677.0 310 11677.0 246Q11677.0 163 11720.5 124.0Q11764.0 85 11831.0 85Q11902.0 85 11956.0 119.5Q12010.0 154 12047.0 201Z" />
      <path d="M13589.0 0H13106.0V66Q13129.0 68 13156.5 70.0Q13184.0 72 13202.0 78Q13230.0 87 13243.5 109.5Q13257.0 132 13257.0 168V675Q13257.0 780 13207.5 837.0Q13158.0 894 13087.0 894Q13034.0 894 12990.0 877.5Q12946.0 861 12912.0 837Q12879.0 814 12859.5 787.5Q12840.0 761 12831.0 745V178Q12831.0 144 12845.0 122.0Q12859.0 100 12887.0 88Q12908.0 78 12932.5 73.0Q12957.0 68 12983.0 66V0H12500.0V66Q12523.0 68 12547.5 70.0Q12572.0 72 12590.0 78Q12618.0 87 12631.5 109.5Q12645.0 132 12645.0 168V777Q12645.0 811 12630.5 839.5Q12616.0 868 12590.0 886Q12571.0 898 12545.0 903.5Q12519.0 909 12489.0 911V976L12817.0 998L12831.0 984V845H12836.0Q12860.0 869 12896.0 902.5Q12932.0 936 12964.0 957Q13001.0 981 13052.0 997.0Q13103.0 1013 13167.0 1013Q13309.0 1013 13377.5 924.5Q13446.0 836 13446.0 689V176Q13446.0 141 13458.0 119.5Q13470.0 98 13499.0 86Q13523.0 76 13540.5 72.0Q13558.0 68 13589.0 66Z" />
      <path d="M14555.0 102Q14595.0 64 14618.0 16.0Q14641.0 -32 14641.0 -103Q14641.0 -174 14610.0 -236.5Q14579.0 -299 14516.0 -345Q14449.0 -392 14356.0 -418.0Q14263.0 -444 14126.0 -444Q13902.0 -444 13791.0 -378.5Q13680.0 -313 13680.0 -187Q13680.0 -85 13760.0 -26.0Q13840.0 33 13964.0 38V52Q13934.0 61 13902.0 74.5Q13870.0 88 13847.0 106Q13821.0 127 13805.0 155.5Q13789.0 184 13789.0 226Q13789.0 279 13826.5 323.5Q13864.0 368 13940.0 400V415Q13844.0 460 13791.0 530.5Q13738.0 601 13738.0 694Q13738.0 834 13842.5 924.0Q13947.0 1014 14110.0 1014Q14155.0 1014 14199.5 1005.0Q14244.0 996 14290.0 982H14634.0V886H14402.0V880Q14439.0 837 14457.0 785.0Q14475.0 733 14475.0 683Q14475.0 553 14369.5 463.0Q14264.0 373 14124.0 373H14003.0Q13980.0 365 13955.0 344.0Q13930.0 323 13930.0 287Q13930.0 250 13951.0 230.5Q13972.0 211 14002.0 204Q14031.0 196 14069.5 194.0Q14108.0 192 14149.0 191Q14193.0 190 14269.5 185.0Q14346.0 180 14378.0 179Q14424.0 177 14470.5 157.0Q14517.0 137 14555.0 102ZM14285.0 687Q14285.0 804 14237.5 873.5Q14190.0 943 14104.0 943Q14057.0 943 14023.5 923.5Q13990.0 904 13969.0 868Q13949.0 835 13940.5 788.5Q13932.0 742 13932.0 693Q13932.0 582 13980.5 512.0Q14029.0 442 14106.0 442Q14192.0 442 14238.5 511.5Q14285.0 581 14285.0 687ZM14477.0 -140Q14477.0 -84 14451.0 -48.0Q14425.0 -12 14372.0 1Q14344.0 5 14257.0 10.0Q14170.0 15 14055.0 15Q13947.0 -6 13901.5 -55.5Q13856.0 -105 13856.0 -183Q13856.0 -218 13871.0 -250.0Q13886.0 -282 13923.0 -309Q13958.0 -335 14017.0 -351.5Q14076.0 -368 14161.0 -368Q14308.0 -368 14392.5 -311.5Q14477.0 -255 14477.0 -140Z" />
      <path d="M15232.0 0H14755.0V66Q14778.0 68 14802.5 70.0Q14827.0 72 14845.0 78Q14873.0 87 14886.5 109.5Q14900.0 132 14900.0 168V777Q14900.0 809 14885.5 835.5Q14871.0 862 14845.0 880Q14826.0 892 14790.0 900.5Q14754.0 909 14724.0 911V976L15072.0 998L15086.0 984V180Q15086.0 145 15099.5 122.0Q15113.0 99 15142.0 88Q15164.0 79 15185.0 73.5Q15206.0 68 15232.0 66ZM15106.0 1387Q15106.0 1330 15068.5 1287.5Q15031.0 1245 14976.0 1245Q14925.0 1245 14887.5 1285.5Q14850.0 1326 14850.0 1378Q14850.0 1433 14887.5 1474.0Q14925.0 1515 14976.0 1515Q15033.0 1515 15069.5 1476.5Q15106.0 1438 15106.0 1387Z" />
      <path d="M16354.0 494Q16354.0 272 16214.0 121.0Q16074.0 -30 15889.0 -30Q15808.0 -30 15729.5 -5.0Q15651.0 20 15582.0 62L15508.0 -53L15446.0 -39Q15451.0 35 15453.0 139.0Q15455.0 243 15455.0 340V1316Q15455.0 1350 15439.5 1384.0Q15424.0 1418 15400.0 1433Q15381.0 1446 15336.5 1452.5Q15292.0 1459 15265.0 1461V1525L15627.0 1548L15641.0 1533V883L15648.0 881Q15710.0 947 15783.5 980.0Q15857.0 1013 15928.0 1013Q16110.0 1013 16232.0 869.0Q16354.0 725 16354.0 494ZM16145.0 487Q16145.0 561 16129.0 638.0Q16113.0 715 16079.0 772Q16045.0 830 15990.0 866.0Q15935.0 902 15858.0 902Q15788.0 902 15735.5 874.5Q15683.0 847 15641.0 800V226Q15647.0 202 15664.5 170.0Q15682.0 138 15712.0 109Q15742.0 81 15780.0 63.5Q15818.0 46 15873.0 46Q15995.0 46 16070.0 164.0Q16145.0 282 16145.0 487Z" />
      <path d="M16962.0 0H16481.0V66Q16504.0 68 16530.0 70.5Q16556.0 73 16573.0 78Q16601.0 87 16615.0 109.5Q16629.0 132 16629.0 168V1310Q16629.0 1346 16613.5 1377.5Q16598.0 1409 16573.0 1427Q16555.0 1439 16507.0 1449.0Q16459.0 1459 16430.0 1461V1525L16801.0 1548L16815.0 1533V180Q16815.0 145 16828.0 122.5Q16841.0 100 16870.0 88Q16892.0 78 16913.5 73.0Q16935.0 68 16962.0 66Z" />
      <path d="M17962.0 232Q17900.0 114 17796.0 44.0Q17692.0 -26 17557.0 -26Q17438.0 -26 17348.5 16.0Q17259.0 58 17201.0 130Q17143.0 202 17114.5 298.0Q17086.0 394 17086.0 501Q17086.0 597 17116.5 689.5Q17147.0 782 17206.0 856Q17263.0 927 17347.5 970.5Q17432.0 1014 17537.0 1014Q17645.0 1014 17722.0 980.0Q17799.0 946 17847.0 887Q17893.0 831 17915.5 755.0Q17938.0 679 17938.0 590V524H17285.0Q17285.0 427 17303.5 348.0Q17322.0 269 17362.0 209Q17401.0 151 17464.0 117.5Q17527.0 84 17614.0 84Q17703.0 84 17767.5 125.5Q17832.0 167 17892.0 275ZM17741.0 608Q17741.0 664 17731.5 728.0Q17722.0 792 17701.0 835Q17678.0 881 17638.0 910.0Q17598.0 939 17535.0 939Q17430.0 939 17360.5 851.5Q17291.0 764 17285.0 608Z" />
      <path d="M18433.0 35Q18433.0 -37 18400.5 -101.0Q18368.0 -165 18326.0 -211Q18283.0 -259 18235.0 -296.0Q18187.0 -333 18147.0 -354L18101.0 -287Q18149.0 -257 18187.0 -227.0Q18225.0 -197 18249.0 -167Q18279.0 -132 18300.0 -91.0Q18321.0 -50 18327.0 2H18276.0Q18209.0 2 18171.5 37.0Q18134.0 72 18134.0 131Q18134.0 173 18168.0 212.5Q18202.0 252 18261.0 252Q18347.0 252 18390.0 194.5Q18433.0 137 18433.0 35Z" />
      <path d="M19731.0 43Q19666.0 16 19608.0 -2.5Q19550.0 -21 19466.0 -21Q19342.0 -21 19291.5 41.5Q19241.0 104 19241.0 218V886H19063.0V982H19245.0V1289H19427.0V982H19710.0V886H19429.0V335Q19429.0 273 19433.5 231.5Q19438.0 190 19455.0 159Q19471.0 130 19503.0 115.0Q19535.0 100 19589.0 100Q19614.0 100 19662.5 104.5Q19711.0 109 19731.0 116Z" />
      <path d="M20705.0 232Q20643.0 114 20539.0 44.0Q20435.0 -26 20300.0 -26Q20181.0 -26 20091.5 16.0Q20002.0 58 19944.0 130Q19886.0 202 19857.5 298.0Q19829.0 394 19829.0 501Q19829.0 597 19859.5 689.5Q19890.0 782 19949.0 856Q20006.0 927 20090.5 970.5Q20175.0 1014 20280.0 1014Q20388.0 1014 20465.0 980.0Q20542.0 946 20590.0 887Q20636.0 831 20658.5 755.0Q20681.0 679 20681.0 590V524H20028.0Q20028.0 427 20046.5 348.0Q20065.0 269 20105.0 209Q20144.0 151 20207.0 117.5Q20270.0 84 20357.0 84Q20446.0 84 20510.5 125.5Q20575.0 167 20635.0 275ZM20484.0 608Q20484.0 664 20474.5 728.0Q20465.0 792 20444.0 835Q20421.0 881 20381.0 910.0Q20341.0 939 20278.0 939Q20173.0 939 20103.5 851.5Q20034.0 764 20028.0 608Z" />
      <path d="M21470.0 483Q21511.0 447 21533.0 400.0Q21555.0 353 21555.0 285Q21555.0 148 21452.5 61.0Q21350.0 -26 21187.0 -26Q21101.0 -26 21028.5 5.0Q20956.0 36 20925.0 62L20905.0 -3H20830.0L20820.0 340H20889.0Q20897.0 301 20923.0 249.0Q20949.0 197 20986.0 155Q21025.0 111 21079.5 81.0Q21134.0 51 21202.0 51Q21298.0 51 21350.0 94.5Q21402.0 138 21402.0 219Q21402.0 261 21385.5 291.5Q21369.0 322 21337.0 345Q21304.0 368 21256.0 386.5Q21208.0 405 21149.0 423Q21102.0 437 21044.5 461.5Q20987.0 486 20946.0 519Q20902.0 554 20874.0 605.0Q20846.0 656 20846.0 725Q20846.0 846 20936.0 930.0Q21026.0 1014 21177.0 1014Q21235.0 1014 21295.5 999.0Q21356.0 984 21394.0 963L21417.0 1015H21489.0L21504.0 698H21435.0Q21414.0 804 21344.5 870.5Q21275.0 937 21175.0 937Q21093.0 937 21046.0 896.0Q20999.0 855 20999.0 797Q20999.0 752 21014.5 722.0Q21030.0 692 21061.0 671Q21091.0 651 21136.5 633.5Q21182.0 616 21249.0 594Q21315.0 573 21373.5 545.0Q21432.0 517 21470.0 483Z" />
      <path d="M22313.0 43Q22248.0 16 22190.0 -2.5Q22132.0 -21 22048.0 -21Q21924.0 -21 21873.5 41.5Q21823.0 104 21823.0 218V886H21645.0V982H21827.0V1289H22009.0V982H22292.0V886H22011.0V335Q22011.0 273 22015.5 231.5Q22020.0 190 22037.0 159Q22053.0 130 22085.0 115.0Q22117.0 100 22171.0 100Q22196.0 100 22244.5 104.5Q22293.0 109 22313.0 116Z" />
      <path d="M23345.0 18Q23298.0 1 23262.5 -9.5Q23227.0 -20 23182.0 -20Q23104.0 -20 23057.5 16.5Q23011.0 53 22998.0 123H22992.0Q22927.0 51 22852.5 13.0Q22778.0 -25 22673.0 -25Q22562.0 -25 22490.5 43.0Q22419.0 111 22419.0 221Q22419.0 278 22435.0 323.0Q22451.0 368 22483.0 404Q22508.0 434 22549.0 457.5Q22590.0 481 22626.0 495Q22671.0 512 22808.5 558.0Q22946.0 604 22994.0 630V729Q22994.0 742 22988.5 779.0Q22983.0 816 22965.0 849Q22945.0 886 22908.5 913.5Q22872.0 941 22805.0 941Q22759.0 941 22719.5 925.5Q22680.0 910 22664.0 893Q22664.0 873 22673.5 834.0Q22683.0 795 22683.0 762Q22683.0 727 22651.5 698.0Q22620.0 669 22564.0 669Q22514.0 669 22490.5 704.5Q22467.0 740 22467.0 784Q22467.0 830 22499.5 872.0Q22532.0 914 22584.0 947Q22629.0 975 22693.0 994.5Q22757.0 1014 22818.0 1014Q22902.0 1014 22964.5 1002.5Q23027.0 991 23078.0 953Q23129.0 916 23155.5 852.5Q23182.0 789 23182.0 689Q23182.0 546 23179.0 435.5Q23176.0 325 23176.0 194Q23176.0 155 23189.5 132.0Q23203.0 109 23231.0 93Q23246.0 84 23278.5 83.0Q23311.0 82 23345.0 82ZM22996.0 546Q22911.0 521 22847.0 497.0Q22783.0 473 22728.0 437Q22678.0 403 22649.0 356.5Q22620.0 310 22620.0 246Q22620.0 163 22663.5 124.0Q22707.0 85 22774.0 85Q22845.0 85 22899.0 119.5Q22953.0 154 22990.0 201Z" />
      <path d="M24444.0 494Q24444.0 272 24304.0 121.0Q24164.0 -30 23979.0 -30Q23898.0 -30 23819.5 -5.0Q23741.0 20 23672.0 62L23598.0 -53L23536.0 -39Q23541.0 35 23543.0 139.0Q23545.0 243 23545.0 340V1316Q23545.0 1350 23529.5 1384.0Q23514.0 1418 23490.0 1433Q23471.0 1446 23426.5 1452.5Q23382.0 1459 23355.0 1461V1525L23717.0 1548L23731.0 1533V883L23738.0 881Q23800.0 947 23873.5 980.0Q23947.0 1013 24018.0 1013Q24200.0 1013 24322.0 869.0Q24444.0 725 24444.0 494ZM24235.0 487Q24235.0 561 24219.0 638.0Q24203.0 715 24169.0 772Q24135.0 830 24080.0 866.0Q24025.0 902 23948.0 902Q23878.0 902 23825.5 874.5Q23773.0 847 23731.0 800V226Q23737.0 202 23754.5 170.0Q23772.0 138 23802.0 109Q23832.0 81 23870.0 63.5Q23908.0 46 23963.0 46Q24085.0 46 24160.0 164.0Q24235.0 282 24235.0 487Z" />
      <path d="M25052.0 0H24571.0V66Q24594.0 68 24620.0 70.5Q24646.0 73 24663.0 78Q24691.0 87 24705.0 109.5Q24719.0 132 24719.0 168V1310Q24719.0 1346 24703.5 1377.5Q24688.0 1409 24663.0 1427Q24645.0 1439 24597.0 1449.0Q24549.0 1459 24520.0 1461V1525L24891.0 1548L24905.0 1533V180Q24905.0 145 24918.0 122.5Q24931.0 100 24960.0 88Q24982.0 78 25003.5 73.0Q25025.0 68 25052.0 66Z" />
      <path d="M26052.0 232Q25990.0 114 25886.0 44.0Q25782.0 -26 25647.0 -26Q25528.0 -26 25438.5 16.0Q25349.0 58 25291.0 130Q25233.0 202 25204.5 298.0Q25176.0 394 25176.0 501Q25176.0 597 25206.5 689.5Q25237.0 782 25296.0 856Q25353.0 927 25437.5 970.5Q25522.0 1014 25627.0 1014Q25735.0 1014 25812.0 980.0Q25889.0 946 25937.0 887Q25983.0 831 26005.5 755.0Q26028.0 679 26028.0 590V524H25375.0Q25375.0 427 25393.5 348.0Q25412.0 269 25452.0 209Q25491.0 151 25554.0 117.5Q25617.0 84 25704.0 84Q25793.0 84 25857.5 125.5Q25922.0 167 25982.0 275ZM25831.0 608Q25831.0 664 25821.5 728.0Q25812.0 792 25791.0 835Q25768.0 881 25728.0 910.0Q25688.0 939 25625.0 939Q25520.0 939 25450.5 851.5Q25381.0 764 25375.0 608Z" />
      <path d="M26523.0 35Q26523.0 -37 26490.5 -101.0Q26458.0 -165 26416.0 -211Q26373.0 -259 26325.0 -296.0Q26277.0 -333 26237.0 -354L26191.0 -287Q26239.0 -257 26277.0 -227.0Q26315.0 -197 26339.0 -167Q26369.0 -132 26390.0 -91.0Q26411.0 -50 26417.0 2H26366.0Q26299.0 2 26261.5 37.0Q26224.0 72 26224.0 131Q26224.0 173 26258.0 212.5Q26292.0 252 26351.0 252Q26437.0 252 26480.0 194.5Q26523.0 137 26523.0 35Z" />
      <path d="M28146.0 18Q28099.0 1 28063.5 -9.5Q28028.0 -20 27983.0 -20Q27905.0 -20 27858.5 16.5Q27812.0 53 27799.0 123H27793.0Q27728.0 51 27653.5 13.0Q27579.0 -25 27474.0 -25Q27363.0 -25 27291.5 43.0Q27220.0 111 27220.0 221Q27220.0 278 27236.0 323.0Q27252.0 368 27284.0 404Q27309.0 434 27350.0 457.5Q27391.0 481 27427.0 495Q27472.0 512 27609.5 558.0Q27747.0 604 27795.0 630V729Q27795.0 742 27789.5 779.0Q27784.0 816 27766.0 849Q27746.0 886 27709.5 913.5Q27673.0 941 27606.0 941Q27560.0 941 27520.5 925.5Q27481.0 910 27465.0 893Q27465.0 873 27474.5 834.0Q27484.0 795 27484.0 762Q27484.0 727 27452.5 698.0Q27421.0 669 27365.0 669Q27315.0 669 27291.5 704.5Q27268.0 740 27268.0 784Q27268.0 830 27300.5 872.0Q27333.0 914 27385.0 947Q27430.0 975 27494.0 994.5Q27558.0 1014 27619.0 1014Q27703.0 1014 27765.5 1002.5Q27828.0 991 27879.0 953Q27930.0 916 27956.5 852.5Q27983.0 789 27983.0 689Q27983.0 546 27980.0 435.5Q27977.0 325 27977.0 194Q27977.0 155 27990.5 132.0Q28004.0 109 28032.0 93Q28047.0 84 28079.5 83.0Q28112.0 82 28146.0 82ZM27797.0 546Q27712.0 521 27648.0 497.0Q27584.0 473 27529.0 437Q27479.0 403 27450.0 356.5Q27421.0 310 27421.0 246Q27421.0 163 27464.5 124.0Q27508.0 85 27575.0 85Q27646.0 85 27700.0 119.5Q27754.0 154 27791.0 201Z" />
      <path d="M29333.0 0H28850.0V66Q28873.0 68 28900.5 70.0Q28928.0 72 28946.0 78Q28974.0 87 28987.5 109.5Q29001.0 132 29001.0 168V675Q29001.0 780 28951.5 837.0Q28902.0 894 28831.0 894Q28778.0 894 28734.0 877.5Q28690.0 861 28656.0 837Q28623.0 814 28603.5 787.5Q28584.0 761 28575.0 745V178Q28575.0 144 28589.0 122.0Q28603.0 100 28631.0 88Q28652.0 78 28676.5 73.0Q28701.0 68 28727.0 66V0H28244.0V66Q28267.0 68 28291.5 70.0Q28316.0 72 28334.0 78Q28362.0 87 28375.5 109.5Q28389.0 132 28389.0 168V777Q28389.0 811 28374.5 839.5Q28360.0 868 28334.0 886Q28315.0 898 28289.0 903.5Q28263.0 909 28233.0 911V976L28561.0 998L28575.0 984V845H28580.0Q28604.0 869 28640.0 902.5Q28676.0 936 28708.0 957Q28745.0 981 28796.0 997.0Q28847.0 1013 28911.0 1013Q29053.0 1013 29121.5 924.5Q29190.0 836 29190.0 689V176Q29190.0 141 29202.0 119.5Q29214.0 98 29243.0 86Q29267.0 76 29284.5 72.0Q29302.0 68 29333.0 66Z" />
      <path d="M30534.0 18 30190.0 -4 30175.0 10V102L30167.0 104Q30115.0 46 30038.5 9.0Q29962.0 -28 29881.0 -28Q29797.0 -28 29718.5 9.5Q29640.0 47 29582.0 115Q29523.0 184 29488.5 281.0Q29454.0 378 29454.0 495Q29454.0 602 29491.0 698.0Q29528.0 794 29593.0 866Q29654.0 933 29742.5 973.0Q29831.0 1013 29923.0 1013Q29992.0 1013 30058.5 995.5Q30125.0 978 30173.0 951V1294Q30173.0 1336 30159.0 1370.5Q30145.0 1405 30120.0 1423Q30092.0 1442 30044.5 1450.5Q29997.0 1459 29942.0 1463V1525L30345.0 1548L30360.0 1533V203Q30360.0 168 30373.5 143.5Q30387.0 119 30413.0 102Q30432.0 90 30468.0 87.0Q30504.0 84 30534.0 83ZM30173.0 191V768Q30165.0 794 30147.0 824.0Q30129.0 854 30102.0 879Q30073.0 904 30034.0 920.5Q29995.0 937 29943.0 937Q29883.0 937 29832.5 906.0Q29782.0 875 29743.0 817Q29706.0 761 29684.5 674.5Q29663.0 588 29663.0 483Q29663.0 399 29679.0 330.5Q29695.0 262 29733.0 203Q29768.0 147 29822.5 113.0Q29877.0 79 29952.0 79Q30032.0 79 30084.5 114.0Q30137.0 149 30173.0 191Z" />
      <path d="M31879.0 859Q31879.0 808 31854.0 768.5Q31829.0 729 31777.0 729Q31721.0 729 31691.5 758.0Q31662.0 787 31662.0 822Q31662.0 844 31665.5 862.0Q31669.0 880 31672.0 898Q31625.0 898 31562.0 860.0Q31499.0 822 31455.0 752V178Q31455.0 143 31468.5 121.0Q31482.0 99 31511.0 88Q31536.0 78 31575.5 73.0Q31615.0 68 31644.0 66V0H31124.0V66Q31147.0 68 31171.5 70.0Q31196.0 72 31214.0 78Q31242.0 87 31255.5 109.5Q31269.0 132 31269.0 168V777Q31269.0 808 31254.5 838.0Q31240.0 868 31214.0 886Q31195.0 898 31169.0 903.5Q31143.0 909 31113.0 911V976L31441.0 998L31455.0 984V845H31460.0Q31522.0 926 31598.0 968.0Q31674.0 1010 31737.0 1010Q31800.0 1010 31839.5 969.0Q31879.0 928 31879.0 859Z" />
      <path d="M32839.0 232Q32777.0 114 32673.0 44.0Q32569.0 -26 32434.0 -26Q32315.0 -26 32225.5 16.0Q32136.0 58 32078.0 130Q32020.0 202 31991.5 298.0Q31963.0 394 31963.0 501Q31963.0 597 31993.5 689.5Q32024.0 782 32083.0 856Q32140.0 927 32224.5 970.5Q32309.0 1014 32414.0 1014Q32522.0 1014 32599.0 980.0Q32676.0 946 32724.0 887Q32770.0 831 32792.5 755.0Q32815.0 679 32815.0 590V524H32162.0Q32162.0 427 32180.5 348.0Q32199.0 269 32239.0 209Q32278.0 151 32341.0 117.5Q32404.0 84 32491.0 84Q32580.0 84 32644.5 125.5Q32709.0 167 32769.0 275ZM32618.0 608Q32618.0 664 32608.5 728.0Q32599.0 792 32578.0 835Q32555.0 881 32515.0 910.0Q32475.0 939 32412.0 939Q32307.0 939 32237.5 851.5Q32168.0 764 32162.0 608Z" />
      <path d="M34010.0 18 33689.0 -4 33674.0 10V135H33668.0Q33644.0 110 33614.0 81.5Q33584.0 53 33545.0 30Q33500.0 3 33458.0 -11.0Q33416.0 -25 33339.0 -25Q33208.0 -25 33139.5 60.5Q33071.0 146 33071.0 309V781Q33071.0 817 33057.5 841.5Q33044.0 866 33018.0 884Q33000.0 896 32973.0 901.5Q32946.0 907 32916.0 909V974L33245.0 998L33260.0 984V299Q33260.0 192 33308.0 138.0Q33356.0 84 33423.0 84Q33478.0 84 33521.0 101.0Q33564.0 118 33593.0 141Q33620.0 162 33640.5 185.5Q33661.0 209 33672.0 229V788Q33672.0 821 33658.0 846.5Q33644.0 872 33619.0 890Q33601.0 902 33565.5 904.5Q33530.0 907 33486.0 909V974L33844.0 998L33859.0 984V201Q33859.0 167 33873.0 143.0Q33887.0 119 33912.0 102Q33930.0 91 33955.0 87.5Q33980.0 84 34010.0 83Z" />
      <path d="M34782.0 483Q34823.0 447 34845.0 400.0Q34867.0 353 34867.0 285Q34867.0 148 34764.5 61.0Q34662.0 -26 34499.0 -26Q34413.0 -26 34340.5 5.0Q34268.0 36 34237.0 62L34217.0 -3H34142.0L34132.0 340H34201.0Q34209.0 301 34235.0 249.0Q34261.0 197 34298.0 155Q34337.0 111 34391.5 81.0Q34446.0 51 34514.0 51Q34610.0 51 34662.0 94.5Q34714.0 138 34714.0 219Q34714.0 261 34697.5 291.5Q34681.0 322 34649.0 345Q34616.0 368 34568.0 386.5Q34520.0 405 34461.0 423Q34414.0 437 34356.5 461.5Q34299.0 486 34258.0 519Q34214.0 554 34186.0 605.0Q34158.0 656 34158.0 725Q34158.0 846 34248.0 930.0Q34338.0 1014 34489.0 1014Q34547.0 1014 34607.5 999.0Q34668.0 984 34706.0 963L34729.0 1015H34801.0L34816.0 698H34747.0Q34726.0 804 34656.5 870.5Q34587.0 937 34487.0 937Q34405.0 937 34358.0 896.0Q34311.0 855 34311.0 797Q34311.0 752 34326.5 722.0Q34342.0 692 34373.0 671Q34403.0 651 34448.5 633.5Q34494.0 616 34561.0 594Q34627.0 573 34685.5 545.0Q34744.0 517 34782.0 483Z" />
      <path d="M35950.0 18Q35903.0 1 35867.5 -9.5Q35832.0 -20 35787.0 -20Q35709.0 -20 35662.5 16.5Q35616.0 53 35603.0 123H35597.0Q35532.0 51 35457.5 13.0Q35383.0 -25 35278.0 -25Q35167.0 -25 35095.5 43.0Q35024.0 111 35024.0 221Q35024.0 278 35040.0 323.0Q35056.0 368 35088.0 404Q35113.0 434 35154.0 457.5Q35195.0 481 35231.0 495Q35276.0 512 35413.5 558.0Q35551.0 604 35599.0 630V729Q35599.0 742 35593.5 779.0Q35588.0 816 35570.0 849Q35550.0 886 35513.5 913.5Q35477.0 941 35410.0 941Q35364.0 941 35324.5 925.5Q35285.0 910 35269.0 893Q35269.0 873 35278.5 834.0Q35288.0 795 35288.0 762Q35288.0 727 35256.5 698.0Q35225.0 669 35169.0 669Q35119.0 669 35095.5 704.5Q35072.0 740 35072.0 784Q35072.0 830 35104.5 872.0Q35137.0 914 35189.0 947Q35234.0 975 35298.0 994.5Q35362.0 1014 35423.0 1014Q35507.0 1014 35569.5 1002.5Q35632.0 991 35683.0 953Q35734.0 916 35760.5 852.5Q35787.0 789 35787.0 689Q35787.0 546 35784.0 435.5Q35781.0 325 35781.0 194Q35781.0 155 35794.5 132.0Q35808.0 109 35836.0 93Q35851.0 84 35883.5 83.0Q35916.0 82 35950.0 82ZM35601.0 546Q35516.0 521 35452.0 497.0Q35388.0 473 35333.0 437Q35283.0 403 35254.0 356.5Q35225.0 310 35225.0 246Q35225.0 163 35268.5 124.0Q35312.0 85 35379.0 85Q35450.0 85 35504.0 119.5Q35558.0 154 35595.0 201Z" />
      <path d="M37049.0 494Q37049.0 272 36909.0 121.0Q36769.0 -30 36584.0 -30Q36503.0 -30 36424.5 -5.0Q36346.0 20 36277.0 62L36203.0 -53L36141.0 -39Q36146.0 35 36148.0 139.0Q36150.0 243 36150.0 340V1316Q36150.0 1350 36134.5 1384.0Q36119.0 1418 36095.0 1433Q36076.0 1446 36031.5 1452.5Q35987.0 1459 35960.0 1461V1525L36322.0 1548L36336.0 1533V883L36343.0 881Q36405.0 947 36478.5 980.0Q36552.0 1013 36623.0 1013Q36805.0 1013 36927.0 869.0Q37049.0 725 37049.0 494ZM36840.0 487Q36840.0 561 36824.0 638.0Q36808.0 715 36774.0 772Q36740.0 830 36685.0 866.0Q36630.0 902 36553.0 902Q36483.0 902 36430.5 874.5Q36378.0 847 36336.0 800V226Q36342.0 202 36359.5 170.0Q36377.0 138 36407.0 109Q36437.0 81 36475.0 63.5Q36513.0 46 36568.0 46Q36690.0 46 36765.0 164.0Q36840.0 282 36840.0 487Z" />
      <path d="M37657.0 0H37176.0V66Q37199.0 68 37225.0 70.5Q37251.0 73 37268.0 78Q37296.0 87 37310.0 109.5Q37324.0 132 37324.0 168V1310Q37324.0 1346 37308.5 1377.5Q37293.0 1409 37268.0 1427Q37250.0 1439 37202.0 1449.0Q37154.0 1459 37125.0 1461V1525L37496.0 1548L37510.0 1533V180Q37510.0 145 37523.0 122.5Q37536.0 100 37565.0 88Q37587.0 78 37608.5 73.0Q37630.0 68 37657.0 66Z" />
      <path d="M38657.0 232Q38595.0 114 38491.0 44.0Q38387.0 -26 38252.0 -26Q38133.0 -26 38043.5 16.0Q37954.0 58 37896.0 130Q37838.0 202 37809.5 298.0Q37781.0 394 37781.0 501Q37781.0 597 37811.5 689.5Q37842.0 782 37901.0 856Q37958.0 927 38042.5 970.5Q38127.0 1014 38232.0 1014Q38340.0 1014 38417.0 980.0Q38494.0 946 38542.0 887Q38588.0 831 38610.5 755.0Q38633.0 679 38633.0 590V524H37980.0Q37980.0 427 37998.5 348.0Q38017.0 269 38057.0 209Q38096.0 151 38159.0 117.5Q38222.0 84 38309.0 84Q38398.0 84 38462.5 125.5Q38527.0 167 38587.0 275ZM38436.0 608Q38436.0 664 38426.5 728.0Q38417.0 792 38396.0 835Q38373.0 881 38333.0 910.0Q38293.0 939 38230.0 939Q38125.0 939 38055.5 851.5Q37986.0 764 37980.0 608Z" />
      <path d="M39114.0 115Q39114.0 59 39073.5 19.5Q39033.0 -20 38977.0 -20Q38921.0 -20 38880.5 19.5Q38840.0 59 38840.0 115Q38840.0 171 38880.5 211.5Q38921.0 252 38977.0 252Q39033.0 252 39073.5 211.5Q39114.0 171 39114.0 115Z" />
    </g>
  </g>
</svg>
