<svg xmlns="http://www.w3.org/2000/svg" width="820" height="56" viewBox="0 0 820 56" role="img" aria-labelledby="title">
  <title id="title">Build from real problems. Agent - Code - Data. Make ideas tangible, testable, and reusable.</title>
  <desc>Animated introduction lines in GT Eesti Display Medium (cht-me brand font).</desc>
  <defs>
    <style>

    svg { color: #000000; }
    @media (prefers-color-scheme: dark) {
      svg { color: #EDEDED; }
    }
    .clip-rect {
      animation-duration: 9s;
      animation-timing-function: steps(24, end);
      animation-iteration-count: infinite;
    }
    .clip-rect-0 { animation-name: type0; }
    .clip-rect-1 { animation-name: type1; }
    .clip-rect-2 { animation-name: type2; }
    .line-wrap {
      opacity: 0;
      animation-duration: 9s;
      animation-timing-function: linear;
      animation-iteration-count: infinite;
    }
    .line-wrap-0 { animation-name: show0; }
    .line-wrap-1 { animation-name: show1; }
    .line-wrap-2 { animation-name: show2; }
    @keyframes show0 {
      0%, 32.5%, 100% { opacity: 0; }
      1%, 30% { opacity: 1; }
    }
    @keyframes show1 {
      0%, 33%, 65.5%, 100% { opacity: 0; }
      34%, 63% { opacity: 1; }
    }
    @keyframes show2 {
      0%, 66%, 98.5%, 100% { opacity: 0; }
      67%, 96% { opacity: 1; }
    }
    @keyframes type0 {
      0% { width: 0; }
      15% { width: 293.9px; }
      30% { width: 293.9px; }
      32.5%, 100% { width: 0; }
    }
    @keyframes type1 {
      0%, 33% { width: 0; }
      48% { width: 246.2px; }
      63% { width: 246.2px; }
      65.5%, 100% { width: 0; }
    }
    @keyframes type2 {
      0%, 66% { width: 0; }
      81% { width: 512.1px; }
      96% { width: 512.1px; }
      98.5%, 100% { width: 0; }
    }

    </style>
    <clipPath id="clip0">
      <rect class="clip-rect clip-rect-0" x="266.05" y="0" width="0" height="56" />
    </clipPath>
    <clipPath id="clip1">
      <rect class="clip-rect clip-rect-1" x="289.88" y="0" width="0" height="56" />
    </clipPath>
    <clipPath id="clip2">
      <rect class="clip-rect clip-rect-2" x="156.96" y="0" width="0" height="56" />
    </clipPath>
  </defs>
  <g class="line-wrap line-wrap-0" clip-path="url(#clip0)">
    <g fill="currentColor" transform="translate(266.05 38.08) scale(0.026000 -0.026000)">
      <path d="M446.0 373C516.0 395 553.0 449 553.0 524C553.0 640 466.0 700 343.0 700H66.0V0H362.0C483.0 0 588.0 61 588.0 198C588.0 304 529.0 358 446.0 371ZM323.0 582C380.0 582 419.0 554 419.0 499C419.0 445 383.0 414 318.0 414H194.0V582ZM194.0 118V304H335.0C412.0 304 452.0 269 452.0 211C452.0 153 410.0 118 340.0 118Z" />
      <path d="M841.0 -15C913.0 -15 957.0 21 985.0 71H987.0V0H1108.0V462H985.0V240C985.0 138 944.0 98 883.0 98C830.0 98 796.0 129 796.0 201V462H670.0V179C670.0 42 747.0 -15 841.0 -15Z" />
      <path d="M1210.0 694V559H1350.0V694ZM1341.0 0V462H1218.0V0Z" />
      <path d="M1454.0 700V0H1577.0V700Z" />
      <path d="M1882.0 -15C1957.0 -15 2007.0 17 2036.0 65H2038.0V0H2160.0V700H2038.0V397H2036.0C2007.0 445 1957.0 477 1882.0 477C1761.0 477 1660.0 389 1660.0 231C1660.0 73 1761.0 -15 1882.0 -15ZM1913.0 101C1839.0 101 1788.0 153 1788.0 231C1788.0 309 1839.0 361 1913.0 361C1987.0 361 2038.0 309 2038.0 231C2038.0 153 1987.0 101 1913.0 101Z" />
      <path d="M2810.0 596V710H2785.0C2655.0 710 2587.0 641 2587.0 508V462H2510.0V359H2587.0V0H2709.0V359H2804.0V462H2709.0V508C2709.0 575 2740.0 596 2796.0 596Z" />
      <path d="M3150.0 476C3074.0 476 3021.0 436 2997.0 364H2995.0V462H2874.0V0H2996.0V189C2996.0 302 3043.0 344 3141.0 344H3155.0V476Z" />
      <path d="M3447.0 477C3300.0 477 3191.0 376 3191.0 231C3191.0 86 3300.0 -15 3447.0 -15C3594.0 -15 3703.0 86 3703.0 231C3703.0 376 3594.0 477 3447.0 477ZM3447.0 361C3522.0 361 3576.0 310 3576.0 231C3576.0 152 3522.0 101 3447.0 101C3372.0 101 3317.0 152 3317.0 231C3317.0 310 3372.0 361 3447.0 361Z" />
      <path d="M3904.0 0V234C3904.0 329 3945.0 363 3998.0 363C4054.0 363 4081.0 328 4081.0 267V0H4202.0V235C4202.0 329 4242.0 363 4295.0 363C4351.0 363 4379.0 328 4379.0 267V0H4502.0V293C4502.0 418 4431.0 477 4341.0 477C4278.0 477 4221.0 447 4190.0 385H4188.0C4163.0 446 4114.0 477 4046.0 477C3983.0 477 3931.0 449 3905.0 392H3903.0V462H3782.0V0Z" />
      <path d="M5157.0 476C5081.0 476 5028.0 436 5004.0 364H5002.0V462H4881.0V0H5003.0V189C5003.0 302 5050.0 344 5148.0 344H5162.0V476Z" />
      <path d="M5438.0 477C5293.0 477 5198.0 377 5198.0 230C5198.0 83 5296.0 -15 5447.0 -15C5544.0 -15 5606.0 30 5647.0 68L5585.0 157C5559.0 131 5513.0 94 5447.0 94C5376.0 94 5324.0 135 5317.0 206H5662.0V230C5662.0 388 5578.0 477 5438.0 477ZM5432.0 378C5492.0 378 5534.0 344 5538.0 285H5320.0C5330.0 349 5373.0 378 5432.0 378Z" />
      <path d="M5934.0 -15C6009.0 -15 6059.0 17 6088.0 65H6090.0V0H6212.0V462H6090.0V397H6088.0C6059.0 445 6009.0 477 5934.0 477C5813.0 477 5712.0 389 5712.0 231C5712.0 73 5813.0 -15 5934.0 -15ZM5965.0 101C5891.0 101 5840.0 153 5840.0 231C5840.0 309 5891.0 361 5965.0 361C6039.0 361 6090.0 309 6090.0 231C6090.0 153 6039.0 101 5965.0 101Z" />
      <path d="M6320.0 700V0H6443.0V700Z" />
      <path d="M6953.0 -200V65H6955.0C6984.0 17 7034.0 -15 7109.0 -15C7230.0 -15 7331.0 73 7331.0 231C7331.0 389 7230.0 477 7109.0 477C7034.0 477 6984.0 445 6955.0 397H6953.0V462H6831.0V-200ZM7078.0 101C7004.0 101 6953.0 153 6953.0 231C6953.0 309 7004.0 361 7078.0 361C7152.0 361 7203.0 309 7203.0 231C7203.0 153 7152.0 101 7078.0 101Z" />
      <path d="M7687.0 476C7611.0 476 7558.0 436 7534.0 364H7532.0V462H7411.0V0H7533.0V189C7533.0 302 7580.0 344 7678.0 344H7692.0V476Z" />
      <path d="M7984.0 477C7837.0 477 7728.0 376 7728.0 231C7728.0 86 7837.0 -15 7984.0 -15C8131.0 -15 8240.0 86 8240.0 231C8240.0 376 8131.0 477 7984.0 477ZM7984.0 361C8059.0 361 8113.0 310 8113.0 231C8113.0 152 8059.0 101 7984.0 101C7909.0 101 7854.0 152 7854.0 231C7854.0 310 7909.0 361 7984.0 361Z" />
      <path d="M8600.0 -15C8721.0 -15 8822.0 73 8822.0 231C8822.0 389 8721.0 477 8600.0 477C8525.0 477 8475.0 445 8446.0 397H8444.0V700H8321.0V0H8444.0V65H8446.0C8475.0 17 8525.0 -15 8600.0 -15ZM8569.0 101C8495.0 101 8444.0 153 8444.0 231C8444.0 309 8495.0 361 8569.0 361C8643.0 361 8694.0 309 8694.0 231C8694.0 153 8643.0 101 8569.0 101Z" />
      <path d="M8904.0 700V0H9027.0V700Z" />
      <path d="M9350.0 477C9205.0 477 9110.0 377 9110.0 230C9110.0 83 9208.0 -15 9359.0 -15C9456.0 -15 9518.0 30 9559.0 68L9497.0 157C9471.0 131 9425.0 94 9359.0 94C9288.0 94 9236.0 135 9229.0 206H9574.0V230C9574.0 388 9490.0 477 9350.0 477ZM9344.0 378C9404.0 378 9446.0 344 9450.0 285H9232.0C9242.0 349 9285.0 378 9344.0 378Z" />
      <path d="M9774.0 0V234C9774.0 329 9815.0 363 9868.0 363C9924.0 363 9951.0 328 9951.0 267V0H10072.0V235C10072.0 329 10112.0 363 10165.0 363C10221.0 363 10249.0 328 10249.0 267V0H10372.0V293C10372.0 418 10301.0 477 10211.0 477C10148.0 477 10091.0 447 10060.0 385H10058.0C10033.0 446 9984.0 477 9916.0 477C9853.0 477 9801.0 449 9775.0 392H9773.0V462H9652.0V0Z" />
      <path d="M10631.0 -15C10746.0 -15 10822.0 31 10822.0 133C10822.0 202 10785.0 241 10720.0 268L10637.0 304C10605.0 318 10593.0 328 10593.0 346C10593.0 363 10604.0 374 10640.0 374C10682.0 374 10728.0 360 10770.0 342L10811.0 445C10757.0 465 10700.0 477 10647.0 477C10531.0 477 10468.0 427 10468.0 337C10468.0 277 10499.0 231 10572.0 199L10655.0 163C10682.0 150 10695.0 141 10695.0 123C10695.0 100 10676.0 90 10638.0 90C10582.0 90 10529.0 111 10483.0 138L10433.0 34C10494.0 0 10567.0 -15 10631.0 -15Z" />
      <path d="M10887.0 139V0H11025.0V139Z" />
    </g>
  </g>
  <g class="line-wrap line-wrap-1" clip-path="url(#clip1)">
    <g fill="currentColor" transform="translate(289.88 38.08) scale(0.026000 -0.026000)">
      <path d="M693.0 0 412.0 700H284.0L3.0 0H145.0L204.0 159H492.0L551.0 0ZM348.0 550 450.0 275H246.0Z" />
      <path d="M990.0 -215C1128.0 -215 1220.0 -164 1222.0 0V462H1100.0V397H1098.0C1069.0 445 1019.0 477 944.0 477C823.0 477 722.0 389 722.0 231C722.0 75 822.0 -12 943.0 -12C1021.0 -12 1069.0 22 1098.0 65H1100.0V22C1100.0 -70 1067.0 -99 985.0 -99C946.0 -99 891.0 -92 824.0 -76L802.0 -193C869.0 -206 938.0 -215 990.0 -215ZM975.0 101C901.0 101 850.0 153 850.0 231C850.0 309 901.0 361 975.0 361C1049.0 361 1100.0 309 1100.0 231C1100.0 153 1049.0 101 975.0 101Z" />
      <path d="M1540.0 477C1395.0 477 1300.0 377 1300.0 230C1300.0 83 1398.0 -15 1549.0 -15C1646.0 -15 1708.0 30 1749.0 68L1687.0 157C1661.0 131 1615.0 94 1549.0 94C1478.0 94 1426.0 135 1419.0 206H1764.0V230C1764.0 388 1680.0 477 1540.0 477ZM1534.0 378C1594.0 378 1636.0 344 1640.0 285H1422.0C1432.0 349 1475.0 378 1534.0 378Z" />
      <path d="M2116.0 477C2048.0 477 1996.0 445 1965.0 392H1963.0V462H1842.0V0H1964.0V226C1964.0 326 2009.0 363 2072.0 363C2132.0 363 2167.0 331 2167.0 256V0H2290.0V285C2290.0 421 2216.0 477 2116.0 477Z" />
      <path d="M2655.0 462H2560.0V647H2437.0V462H2352.0V359H2437.0V136C2437.0 43 2489.0 -1 2576.0 -1H2630.0V113H2609.0C2573.0 113 2560.0 128 2560.0 165V359H2655.0Z" />
      <path d="M2993.0 322V208H3265.0V322Z" />
      <path d="M3992.0 -15C4100.0 -15 4179.0 18 4242.0 62L4168.0 174C4125.0 144 4066.0 116 3991.0 116C3855.0 116 3754.0 207 3754.0 350C3754.0 493 3855.0 584 3991.0 584C4066.0 584 4125.0 556 4168.0 526L4242.0 638C4179.0 682 4100.0 715 3992.0 715C3771.0 715 3614.0 571 3614.0 350C3614.0 129 3771.0 -15 3992.0 -15Z" />
      <path d="M4542.0 477C4395.0 477 4286.0 376 4286.0 231C4286.0 86 4395.0 -15 4542.0 -15C4689.0 -15 4798.0 86 4798.0 231C4798.0 376 4689.0 477 4542.0 477ZM4542.0 361C4617.0 361 4671.0 310 4671.0 231C4671.0 152 4617.0 101 4542.0 101C4467.0 101 4412.0 152 4412.0 231C4412.0 310 4467.0 361 4542.0 361Z" />
      <path d="M5071.0 -15C5146.0 -15 5196.0 17 5225.0 65H5227.0V0H5349.0V700H5227.0V397H5225.0C5196.0 445 5146.0 477 5071.0 477C4950.0 477 4849.0 389 4849.0 231C4849.0 73 4950.0 -15 5071.0 -15ZM5102.0 101C5028.0 101 4977.0 153 4977.0 231C4977.0 309 5028.0 361 5102.0 361C5176.0 361 5227.0 309 5227.0 231C5227.0 153 5176.0 101 5102.0 101Z" />
      <path d="M5672.0 477C5527.0 477 5432.0 377 5432.0 230C5432.0 83 5530.0 -15 5681.0 -15C5778.0 -15 5840.0 30 5881.0 68L5819.0 157C5793.0 131 5747.0 94 5681.0 94C5610.0 94 5558.0 135 5551.0 206H5896.0V230C5896.0 388 5812.0 477 5672.0 477ZM5666.0 378C5726.0 378 5768.0 344 5772.0 285H5554.0C5564.0 349 5607.0 378 5666.0 378Z" />
      <path d="M6240.0 322V208H6512.0V322Z" />
      <path d="M6898.0 700V0H7122.0C7333.0 0 7486.0 132 7486.0 350C7486.0 568 7333.0 700 7122.0 700ZM7128.0 582C7254.0 582 7348.0 501 7348.0 350C7348.0 199 7254.0 118 7128.0 118H7026.0V582Z" />
      <path d="M7763.0 -15C7838.0 -15 7888.0 17 7917.0 65H7919.0V0H8041.0V462H7919.0V397H7917.0C7888.0 445 7838.0 477 7763.0 477C7642.0 477 7541.0 389 7541.0 231C7541.0 73 7642.0 -15 7763.0 -15ZM7794.0 101C7720.0 101 7669.0 153 7669.0 231C7669.0 309 7720.0 361 7794.0 361C7868.0 361 7919.0 309 7919.0 231C7919.0 153 7868.0 101 7794.0 101Z" />
      <path d="M8409.0 462H8314.0V647H8191.0V462H8106.0V359H8191.0V136C8191.0 43 8243.0 -1 8330.0 -1H8384.0V113H8363.0C8327.0 113 8314.0 128 8314.0 165V359H8409.0Z" />
      <path d="M8675.0 -15C8750.0 -15 8800.0 17 8829.0 65H8831.0V0H8953.0V462H8831.0V397H8829.0C8800.0 445 8750.0 477 8675.0 477C8554.0 477 8453.0 389 8453.0 231C8453.0 73 8554.0 -15 8675.0 -15ZM8706.0 101C8632.0 101 8581.0 153 8581.0 231C8581.0 309 8632.0 361 8706.0 361C8780.0 361 8831.0 309 8831.0 231C8831.0 153 8780.0 101 8706.0 101Z" />
      <path d="M9054.0 139V0H9192.0V139Z" />
    </g>
  </g>
  <g class="line-wrap line-wrap-2" clip-path="url(#clip2)">
    <g fill="currentColor" transform="translate(156.96 38.08) scale(0.026000 -0.026000)">
      <path d="M596.0 700 437.0 302H435.0L277.0 700H177.0L3.0 0H137.0L244.0 455H246.0L390.0 104H483.0L627.0 455H629.0L735.0 0H870.0L696.0 700Z" />
      <path d="M1121.0 -15C1196.0 -15 1246.0 17 1275.0 65H1277.0V0H1399.0V462H1277.0V397H1275.0C1246.0 445 1196.0 477 1121.0 477C1000.0 477 899.0 389 899.0 231C899.0 73 1000.0 -15 1121.0 -15ZM1152.0 101C1078.0 101 1027.0 153 1027.0 231C1027.0 309 1078.0 361 1152.0 361C1226.0 361 1277.0 309 1277.0 231C1277.0 153 1226.0 101 1152.0 101Z" />
      <path d="M1749.0 252 1938.0 462H1782.0L1630.0 271V700H1507.0V0H1630.0V221L1803.0 0H1963.0Z" />
      <path d="M2234.0 477C2089.0 477 1994.0 377 1994.0 230C1994.0 83 2092.0 -15 2243.0 -15C2340.0 -15 2402.0 30 2443.0 68L2381.0 157C2355.0 131 2309.0 94 2243.0 94C2172.0 94 2120.0 135 2113.0 206H2458.0V230C2458.0 388 2374.0 477 2234.0 477ZM2228.0 378C2288.0 378 2330.0 344 2334.0 285H2116.0C2126.0 349 2169.0 378 2228.0 378Z" />
      <path d="M2807.0 694V559H2947.0V694ZM2938.0 0V462H2815.0V0Z" />
      <path d="M3243.0 -15C3318.0 -15 3368.0 17 3397.0 65H3399.0V0H3521.0V700H3399.0V397H3397.0C3368.0 445 3318.0 477 3243.0 477C3122.0 477 3021.0 389 3021.0 231C3021.0 73 3122.0 -15 3243.0 -15ZM3274.0 101C3200.0 101 3149.0 153 3149.0 231C3149.0 309 3200.0 361 3274.0 361C3348.0 361 3399.0 309 3399.0 231C3399.0 153 3348.0 101 3274.0 101Z" />
      <path d="M3844.0 477C3699.0 477 3604.0 377 3604.0 230C3604.0 83 3702.0 -15 3853.0 -15C3950.0 -15 4012.0 30 4053.0 68L3991.0 157C3965.0 131 3919.0 94 3853.0 94C3782.0 94 3730.0 135 3723.0 206H4068.0V230C4068.0 388 3984.0 477 3844.0 477ZM3838.0 378C3898.0 378 3940.0 344 3944.0 285H3726.0C3736.0 349 3779.0 378 3838.0 378Z" />
      <path d="M4340.0 -15C4415.0 -15 4465.0 17 4494.0 65H4496.0V0H4618.0V462H4496.0V397H4494.0C4465.0 445 4415.0 477 4340.0 477C4219.0 477 4118.0 389 4118.0 231C4118.0 73 4219.0 -15 4340.0 -15ZM4371.0 101C4297.0 101 4246.0 153 4246.0 231C4246.0 309 4297.0 361 4371.0 361C4445.0 361 4496.0 309 4496.0 231C4496.0 153 4445.0 101 4371.0 101Z" />
      <path d="M4881.0 -15C4996.0 -15 5072.0 31 5072.0 133C5072.0 202 5035.0 241 4970.0 268L4887.0 304C4855.0 318 4843.0 328 4843.0 346C4843.0 363 4854.0 374 4890.0 374C4932.0 374 4978.0 360 5020.0 342L5061.0 445C5007.0 465 4950.0 477 4897.0 477C4781.0 477 4718.0 427 4718.0 337C4718.0 277 4749.0 231 4822.0 199L4905.0 163C4932.0 150 4945.0 141 4945.0 123C4945.0 100 4926.0 90 4888.0 90C4832.0 90 4779.0 111 4733.0 138L4683.0 34C4744.0 0 4817.0 -15 4881.0 -15Z" />
      <path d="M5681.0 462H5586.0V647H5463.0V462H5378.0V359H5463.0V136C5463.0 43 5515.0 -1 5602.0 -1H5656.0V113H5635.0C5599.0 113 5586.0 128 5586.0 165V359H5681.0Z" />
      <path d="M5947.0 -15C6022.0 -15 6072.0 17 6101.0 65H6103.0V0H6225.0V462H6103.0V397H6101.0C6072.0 445 6022.0 477 5947.0 477C5826.0 477 5725.0 389 5725.0 231C5725.0 73 5826.0 -15 5947.0 -15ZM5978.0 101C5904.0 101 5853.0 153 5853.0 231C5853.0 309 5904.0 361 5978.0 361C6052.0 361 6103.0 309 6103.0 231C6103.0 153 6052.0 101 5978.0 101Z" />
      <path d="M6605.0 477C6537.0 477 6485.0 445 6454.0 392H6452.0V462H6331.0V0H6453.0V226C6453.0 326 6498.0 363 6561.0 363C6621.0 363 6656.0 331 6656.0 256V0H6779.0V285C6779.0 421 6705.0 477 6605.0 477Z" />
      <path d="M7122.0 -215C7260.0 -215 7352.0 -164 7354.0 0V462H7232.0V397H7230.0C7201.0 445 7151.0 477 7076.0 477C6955.0 477 6854.0 389 6854.0 231C6854.0 75 6954.0 -12 7075.0 -12C7153.0 -12 7201.0 22 7230.0 65H7232.0V22C7232.0 -70 7199.0 -99 7117.0 -99C7078.0 -99 7023.0 -92 6956.0 -76L6934.0 -193C7001.0 -206 7070.0 -215 7122.0 -215ZM7107.0 101C7033.0 101 6982.0 153 6982.0 231C6982.0 309 7033.0 361 7107.0 361C7181.0 361 7232.0 309 7232.0 231C7232.0 153 7181.0 101 7107.0 101Z" />
      <path d="M7454.0 694V559H7594.0V694ZM7585.0 0V462H7462.0V0Z" />
      <path d="M7977.0 -15C8098.0 -15 8199.0 73 8199.0 231C8199.0 389 8098.0 477 7977.0 477C7902.0 477 7852.0 445 7823.0 397H7821.0V700H7698.0V0H7821.0V65H7823.0C7852.0 17 7902.0 -15 7977.0 -15ZM7946.0 101C7872.0 101 7821.0 153 7821.0 231C7821.0 309 7872.0 361 7946.0 361C8020.0 361 8071.0 309 8071.0 231C8071.0 153 8020.0 101 7946.0 101Z" />
      <path d="M8281.0 700V0H8404.0V700Z" />
      <path d="M8727.0 477C8582.0 477 8487.0 377 8487.0 230C8487.0 83 8585.0 -15 8736.0 -15C8833.0 -15 8895.0 30 8936.0 68L8874.0 157C8848.0 131 8802.0 94 8736.0 94C8665.0 94 8613.0 135 8606.0 206H8951.0V230C8951.0 388 8867.0 477 8727.0 477ZM8721.0 378C8781.0 378 8823.0 344 8827.0 285H8609.0C8619.0 349 8662.0 378 8721.0 378Z" />
      <path d="M9024.0 139V0H9080.0L9026.0 -153H9082.0L9162.0 0V139Z" />
      <path d="M9804.0 462H9709.0V647H9586.0V462H9501.0V359H9586.0V136C9586.0 43 9638.0 -1 9725.0 -1H9779.0V113H9758.0C9722.0 113 9709.0 128 9709.0 165V359H9804.0Z" />
      <path d="M10088.0 477C9943.0 477 9848.0 377 9848.0 230C9848.0 83 9946.0 -15 10097.0 -15C10194.0 -15 10256.0 30 10297.0 68L10235.0 157C10209.0 131 10163.0 94 10097.0 94C10026.0 94 9974.0 135 9967.0 206H10312.0V230C10312.0 388 10228.0 477 10088.0 477ZM10082.0 378C10142.0 378 10184.0 344 10188.0 285H9970.0C9980.0 349 10023.0 378 10082.0 378Z" />
      <path d="M10547.0 -15C10662.0 -15 10738.0 31 10738.0 133C10738.0 202 10701.0 241 10636.0 268L10553.0 304C10521.0 318 10509.0 328 10509.0 346C10509.0 363 10520.0 374 10556.0 374C10598.0 374 10644.0 360 10686.0 342L10727.0 445C10673.0 465 10616.0 477 10563.0 477C10447.0 477 10384.0 427 10384.0 337C10384.0 277 10415.0 231 10488.0 199L10571.0 163C10598.0 150 10611.0 141 10611.0 123C10611.0 100 10592.0 90 10554.0 90C10498.0 90 10445.0 111 10399.0 138L10349.0 34C10410.0 0 10483.0 -15 10547.0 -15Z" />
      <path d="M11070.0 462H10975.0V647H10852.0V462H10767.0V359H10852.0V136C10852.0 43 10904.0 -1 10991.0 -1H11045.0V113H11024.0C10988.0 113 10975.0 128 10975.0 165V359H11070.0Z" />
      <path d="M11336.0 -15C11411.0 -15 11461.0 17 11490.0 65H11492.0V0H11614.0V462H11492.0V397H11490.0C11461.0 445 11411.0 477 11336.0 477C11215.0 477 11114.0 389 11114.0 231C11114.0 73 11215.0 -15 11336.0 -15ZM11367.0 101C11293.0 101 11242.0 153 11242.0 231C11242.0 309 11293.0 361 11367.0 361C11441.0 361 11492.0 309 11492.0 231C11492.0 153 11441.0 101 11367.0 101Z" />
      <path d="M12001.0 -15C12122.0 -15 12223.0 73 12223.0 231C12223.0 389 12122.0 477 12001.0 477C11926.0 477 11876.0 445 11847.0 397H11845.0V700H11722.0V0H11845.0V65H11847.0C11876.0 17 11926.0 -15 12001.0 -15ZM11970.0 101C11896.0 101 11845.0 153 11845.0 231C11845.0 309 11896.0 361 11970.0 361C12044.0 361 12095.0 309 12095.0 231C12095.0 153 12044.0 101 11970.0 101Z" />
      <path d="M12305.0 700V0H12428.0V700Z" />
      <path d="M12751.0 477C12606.0 477 12511.0 377 12511.0 230C12511.0 83 12609.0 -15 12760.0 -15C12857.0 -15 12919.0 30 12960.0 68L12898.0 157C12872.0 131 12826.0 94 12760.0 94C12689.0 94 12637.0 135 12630.0 206H12975.0V230C12975.0 388 12891.0 477 12751.0 477ZM12745.0 378C12805.0 378 12847.0 344 12851.0 285H12633.0C12643.0 349 12686.0 378 12745.0 378Z" />
      <path d="M13048.0 139V0H13104.0L13050.0 -153H13106.0L13186.0 0V139Z" />
      <path d="M13760.0 -15C13835.0 -15 13885.0 17 13914.0 65H13916.0V0H14038.0V462H13916.0V397H13914.0C13885.0 445 13835.0 477 13760.0 477C13639.0 477 13538.0 389 13538.0 231C13538.0 73 13639.0 -15 13760.0 -15ZM13791.0 101C13717.0 101 13666.0 153 13666.0 231C13666.0 309 13717.0 361 13791.0 361C13865.0 361 13916.0 309 13916.0 231C13916.0 153 13865.0 101 13791.0 101Z" />
      <path d="M14418.0 477C14350.0 477 14298.0 445 14267.0 392H14265.0V462H14144.0V0H14266.0V226C14266.0 326 14311.0 363 14374.0 363C14434.0 363 14469.0 331 14469.0 256V0H14592.0V285C14592.0 421 14518.0 477 14418.0 477Z" />
      <path d="M14889.0 -15C14964.0 -15 15014.0 17 15043.0 65H15045.0V0H15167.0V700H15045.0V397H15043.0C15014.0 445 14964.0 477 14889.0 477C14768.0 477 14667.0 389 14667.0 231C14667.0 73 14768.0 -15 14889.0 -15ZM14920.0 101C14846.0 101 14795.0 153 14795.0 231C14795.0 309 14846.0 361 14920.0 361C14994.0 361 15045.0 309 15045.0 231C15045.0 153 14994.0 101 14920.0 101Z" />
      <path d="M15831.0 476C15755.0 476 15702.0 436 15678.0 364H15676.0V462H15555.0V0H15677.0V189C15677.0 302 15724.0 344 15822.0 344H15836.0V476Z" />
      <path d="M16112.0 477C15967.0 477 15872.0 377 15872.0 230C15872.0 83 15970.0 -15 16121.0 -15C16218.0 -15 16280.0 30 16321.0 68L16259.0 157C16233.0 131 16187.0 94 16121.0 94C16050.0 94 15998.0 135 15991.0 206H16336.0V230C16336.0 388 16252.0 477 16112.0 477ZM16106.0 378C16166.0 378 16208.0 344 16212.0 285H15994.0C16004.0 349 16047.0 378 16106.0 378Z" />
      <path d="M16580.0 -15C16652.0 -15 16696.0 21 16724.0 71H16726.0V0H16847.0V462H16724.0V240C16724.0 138 16683.0 98 16622.0 98C16569.0 98 16535.0 129 16535.0 201V462H16409.0V179C16409.0 42 16486.0 -15 16580.0 -15Z" />
      <path d="M17112.0 -15C17227.0 -15 17303.0 31 17303.0 133C17303.0 202 17266.0 241 17201.0 268L17118.0 304C17086.0 318 17074.0 328 17074.0 346C17074.0 363 17085.0 374 17121.0 374C17163.0 374 17209.0 360 17251.0 342L17292.0 445C17238.0 465 17181.0 477 17128.0 477C17012.0 477 16949.0 427 16949.0 337C16949.0 277 16980.0 231 17053.0 199L17136.0 163C17163.0 150 17176.0 141 17176.0 123C17176.0 100 17157.0 90 17119.0 90C17063.0 90 17010.0 111 16964.0 138L16914.0 34C16975.0 0 17048.0 -15 17112.0 -15Z" />
      <path d="M17567.0 -15C17642.0 -15 17692.0 17 17721.0 65H17723.0V0H17845.0V462H17723.0V397H17721.0C17692.0 445 17642.0 477 17567.0 477C17446.0 477 17345.0 389 17345.0 231C17345.0 73 17446.0 -15 17567.0 -15ZM17598.0 101C17524.0 101 17473.0 153 17473.0 231C17473.0 309 17524.0 361 17598.0 361C17672.0 361 17723.0 309 17723.0 231C17723.0 153 17672.0 101 17598.0 101Z" />
      <path d="M18232.0 -15C18353.0 -15 18454.0 73 18454.0 231C18454.0 389 18353.0 477 18232.0 477C18157.0 477 18107.0 445 18078.0 397H18076.0V700H17953.0V0H18076.0V65H18078.0C18107.0 17 18157.0 -15 18232.0 -15ZM18201.0 101C18127.0 101 18076.0 153 18076.0 231C18076.0 309 18127.0 361 18201.0 361C18275.0 361 18326.0 309 18326.0 231C18326.0 153 18275.0 101 18201.0 101Z" />
      <path d="M18536.0 700V0H18659.0V700Z" />
      <path d="M18982.0 477C18837.0 477 18742.0 377 18742.0 230C18742.0 83 18840.0 -15 18991.0 -15C19088.0 -15 19150.0 30 19191.0 68L19129.0 157C19103.0 131 19057.0 94 18991.0 94C18920.0 94 18868.0 135 18861.0 206H19206.0V230C19206.0 388 19122.0 477 18982.0 477ZM18976.0 378C19036.0 378 19078.0 344 19082.0 285H18864.0C18874.0 349 18917.0 378 18976.0 378Z" />
      <path d="M19279.0 139V0H19417.0V139Z" />
    </g>
  </g>
</svg>
