<svg xmlns="http://www.w3.org/2000/svg" width="820" height="44" viewBox="0 0 820 44" role="img" aria-labelledby="title">
  <title id="title">Build from real problems. Agent   Code   Data Make ideas tangible, testable, and reusable.</title>
  <desc>GT Eesti Text Book Italic typing intro.</desc>
  <defs>
    <style>
    svg { color: #000000; }
    @media (prefers-color-scheme: dark) {
      svg { color: #EDEDED; }
    }
    .clip-rect {
      animation-duration: 9s;
      animation-timing-function: steps(24, end);
      animation-iteration-count: infinite;
    }
    .clip-rect-0 { animation-name: type0; }
    .clip-rect-1 { animation-name: type1; }
    .clip-rect-2 { animation-name: type2; }
    .line-wrap {
      opacity: 0;
      animation-duration: 9s;
      animation-timing-function: linear;
      animation-iteration-count: infinite;
    }
    .line-wrap-0 { animation-name: show0; }
    .line-wrap-1 { animation-name: show1; }
    .line-wrap-2 { animation-name: show2; }
    @keyframes show0 {
      0%, 32.5%, 100% { opacity: 0; }
      1%, 30% { opacity: 0.5; }
    }
    @keyframes show1 {
      0%, 33%, 65.5%, 100% { opacity: 0; }
      34%, 63% { opacity: 0.5; }
    }
    @keyframes show2 {
      0%, 66%, 98.5%, 100% { opacity: 0; }
      67%, 96% { opacity: 0.5; }
    }
    @keyframes type0 {
      0% { width: 0; }
      15% { width: 308.9px; }
      30% { width: 308.9px; }
      32.5%, 100% { width: 0; }
    }
    @keyframes type1 {
      0%, 33% { width: 0; }
      48% { width: 249.4px; }
      63% { width: 249.4px; }
      65.5%, 100% { width: 0; }
    }
    @keyframes type2 {
      0%, 66% { width: 0; }
      81% { width: 536.0px; }
      96% { width: 536.0px; }
      98.5%, 100% { width: 0; }
    }
    </style>
    <clipPath id="clip0">
      <rect class="clip-rect clip-rect-0" x="255.55" y="0" width="0" height="44" />
    </clipPath>
    <clipPath id="clip1">
      <rect class="clip-rect clip-rect-1" x="285.29" y="0" width="0" height="44" />
    </clipPath>
    <clipPath id="clip2">
      <rect class="clip-rect clip-rect-2" x="141.98" y="0" width="0" height="44" />
    </clipPath>
  </defs>
  <g class="line-wrap line-wrap-0" clip-path="url(#clip0)">
    <g fill="currentColor" transform="translate(255.55 29.92) scale(0.028000 -0.028000)">
      <path d="M308.0 0C468.0 0 568.0 80 568.0 209C568.0 287 531.0 340 467.0 356C443.0 361 430.0 363 407.0 363L408.0 367C426.0 368 450.0 372 470.0 379C547.0 406 590.0 466 590.0 544C590.0 639 518.0 700 411.0 700H168.0L32.0 0ZM198.0 402C202.0 409 204.0 419 206.0 427L237.0 591C239.0 607 240.0 613 239.0 617L242.0 619C248.0 616 254.0 615 266.0 615H371.0C451.0 615 492.0 582 492.0 520C492.0 449 437.0 404 349.0 404H226.0C212.0 404 206.0 403 200.0 401ZM136.0 83C138.0 87 142.0 99 144.0 109L180.0 298C183.0 314 183.0 319 182.0 323L185.0 325C191.0 322 196.0 321 209.0 321H330.0C424.0 321 473.0 283 473.0 210C473.0 130 415.0 85 310.0 85H163.0C150.0 85 144.0 84 137.0 81Z" />
      <path d="M1050.0 462 1007.0 244C985.0 129 930.0 66 850.0 66C789.0 66 756.0 100 757.0 162C757.0 177 759.0 192 762.0 210L812.0 462H727.0L676.0 207C671.0 178 669.0 155 669.0 136C668.0 41 721.0 -15 814.0 -15C889.0 -15 941.0 22 987.0 108L991.0 107C980.0 82 969.0 46 960.0 0H1044.0L1134.0 462Z" />
      <path d="M1374.0 569 1399.0 700H1304.0L1278.0 569ZM1263.0 462 1173.0 0H1258.0L1348.0 462Z" />
      <path d="M1478.0 0 1617.0 715H1532.0L1393.0 0Z" />
      <path d="M1826.0 -15C1907.0 -15 1975.0 28 2008.0 98L2011.0 97C2003.0 72 1995.0 40 1987.0 0H2069.0L2208.0 715H2123.0L2074.0 462C2062.0 401 2059.0 378 2060.0 354L2056.0 353C2035.0 432 1970.0 477 1878.0 477C1733.0 477 1624.0 361 1624.0 206C1624.0 75 1706.0 -15 1826.0 -15ZM1853.0 65C1767.0 65 1712.0 119 1712.0 206C1712.0 319 1786.0 397 1894.0 397C1983.0 397 2037.0 344 2037.0 257C2037.0 148 1958.0 65 1853.0 65Z" />
      <path d="M2845.0 709C2744.0 709 2679.0 651 2658.0 542L2648.0 487C2646.0 475 2645.0 464 2646.0 457L2644.0 455C2637.0 460 2628.0 462 2606.0 462H2556.0L2541.0 382H2591.0C2612.0 382 2622.0 383 2632.0 389L2633.0 387C2628.0 375 2622.0 357 2619.0 339L2554.0 0H2639.0L2704.0 339C2706.0 350 2710.0 372 2709.0 387L2712.0 389C2718.0 383 2727.0 382 2749.0 382H2811.0L2827.0 462H2764.0C2743.0 462 2733.0 460 2725.0 455L2723.0 457C2728.0 465 2730.0 477 2733.0 488L2740.0 526C2754.0 597 2790.0 630 2853.0 630H2861.0L2875.0 709Z" />
      <path d="M2917.0 0 2955.0 197C2977.0 313 3041.0 380 3128.0 380C3141.0 380 3149.0 380 3166.0 378L3185.0 475C3178.0 476 3173.0 476 3164.0 476C3070.0 476 3015.0 433 2975.0 330L2970.0 331C2984.0 366 2999.0 422 3007.0 462H2922.0L2832.0 0Z" />
      <path d="M3412.0 -15C3570.0 -15 3687.0 102 3687.0 259C3687.0 393 3600.0 477 3461.0 477C3303.0 477 3185.0 360 3185.0 203C3185.0 69 3273.0 -15 3412.0 -15ZM3420.0 68C3328.0 68 3273.0 120 3273.0 207C3273.0 314 3349.0 394 3453.0 394C3544.0 394 3599.0 342 3599.0 255C3599.0 148 3523.0 68 3420.0 68Z" />
      <path d="M3827.0 0 3872.0 229C3893.0 341 3941.0 396 4014.0 396C4068.0 396 4098.0 365 4098.0 306C4098.0 291 4097.0 275 4093.0 259L4042.0 0H4125.0L4170.0 234C4192.0 345 4237.0 396 4310.0 396C4365.0 396 4395.0 365 4395.0 307C4395.0 296 4394.0 284 4390.0 259L4340.0 0H4424.0L4477.0 262C4482.0 285 4484.0 308 4484.0 331C4484.0 424 4436.0 477 4349.0 477C4276.0 477 4219.0 436 4187.0 360H4183.0C4176.0 436 4131.0 477 4055.0 477C3981.0 477 3929.0 438 3889.0 354L3886.0 356C3898.0 384 3909.0 423 3917.0 462H3832.0L3742.0 0Z" />
      <path d="M4941.0 0 4979.0 197C5001.0 313 5065.0 380 5152.0 380C5165.0 380 5173.0 380 5190.0 378L5209.0 475C5202.0 476 5197.0 476 5188.0 476C5094.0 476 5039.0 433 4999.0 330L4994.0 331C5008.0 366 5023.0 422 5031.0 462H4946.0L4856.0 0Z" />
      <path d="M5436.0 -15C5521.0 -15 5583.0 12 5655.0 79L5603.0 140C5546.0 87 5498.0 65 5436.0 65C5346.0 65 5294.0 113 5294.0 194V213L5293.0 221L5295.0 223C5304.0 218 5319.0 216 5349.0 216H5678.0C5685.0 247 5688.0 265 5688.0 288C5688.0 404 5609.0 477 5481.0 477C5324.0 477 5210.0 362 5210.0 202C5210.0 66 5295.0 -15 5436.0 -15ZM5303.0 273C5326.0 354 5390.0 403 5475.0 403C5558.0 403 5604.0 361 5604.0 286C5604.0 282 5603.0 278 5604.0 274L5602.0 273C5593.0 279 5582.0 281 5552.0 281H5350.0C5328.0 281 5314.0 278 5304.0 272Z" />
      <path d="M5902.0 -14C5969.0 -14 6018.0 14 6058.0 76L6062.0 74C6049.0 51 6043.0 35 6037.0 0H6122.0L6176.0 284C6180.0 305 6182.0 323 6182.0 338C6182.0 429 6123.0 476 6011.0 476C5965.0 476 5890.0 467 5837.0 456L5853.0 378C5907.0 391 5965.0 398 6001.0 398C6067.0 398 6101.0 373 6101.0 324C6101.0 312 6099.0 302 6095.0 275C6090.0 246 6088.0 225 6092.0 209L6089.0 208C6063.0 271 6004.0 310 5922.0 310C5807.0 310 5735.0 244 5735.0 141C5735.0 49 5803.0 -14 5902.0 -14ZM5931.0 56C5865.0 56 5825.0 89 5825.0 142C5825.0 202 5868.0 239 5939.0 239C6009.0 239 6062.0 201 6062.0 150C6062.0 98 6004.0 56 5931.0 56Z" />
      <path d="M6333.0 0 6472.0 715H6387.0L6248.0 0Z" />
      <path d="M6818.0 -200 6857.0 0C6866.0 46 6871.0 83 6871.0 107L6875.0 108C6897.0 30 6962.0 -15 7054.0 -15C7199.0 -15 7308.0 101 7308.0 256C7308.0 387 7226.0 477 7106.0 477C7027.0 477 6959.0 436 6925.0 368L6922.0 370C6931.0 392 6937.0 415 6947.0 462H6862.0L6733.0 -200ZM7038.0 65C6950.0 65 6895.0 118 6895.0 205C6895.0 315 6974.0 397 7079.0 397C7166.0 397 7220.0 343 7220.0 256C7220.0 146 7142.0 65 7038.0 65Z" />
      <path d="M7448.0 0 7486.0 197C7508.0 313 7572.0 380 7659.0 380C7672.0 380 7680.0 380 7697.0 378L7716.0 475C7709.0 476 7704.0 476 7695.0 476C7601.0 476 7546.0 433 7506.0 330L7501.0 331C7515.0 366 7530.0 422 7538.0 462H7453.0L7363.0 0Z" />
      <path d="M7943.0 -15C8101.0 -15 8218.0 102 8218.0 259C8218.0 393 8131.0 477 7992.0 477C7834.0 477 7716.0 360 7716.0 203C7716.0 69 7804.0 -15 7943.0 -15ZM7951.0 68C7859.0 68 7804.0 120 7804.0 207C7804.0 314 7880.0 394 7984.0 394C8075.0 394 8130.0 342 8130.0 255C8130.0 148 8054.0 68 7951.0 68Z" />
      <path d="M8554.0 -15C8700.0 -15 8809.0 101 8809.0 256C8809.0 387 8727.0 477 8607.0 477C8528.0 477 8460.0 436 8426.0 368L8423.0 369C8432.0 393 8441.0 426 8451.0 470L8498.0 715H8413.0L8274.0 0H8357.0C8368.0 55 8372.0 82 8372.0 107L8376.0 108C8398.0 30 8463.0 -15 8554.0 -15ZM8539.0 65C8451.0 65 8396.0 118 8396.0 205C8396.0 314 8475.0 397 8580.0 397C8667.0 397 8721.0 343 8721.0 256C8721.0 146 8643.0 65 8539.0 65Z" />
      <path d="M8950.0 0 9089.0 715H9004.0L8865.0 0Z" />
      <path d="M9322.0 -15C9407.0 -15 9469.0 12 9541.0 79L9489.0 140C9432.0 87 9384.0 65 9322.0 65C9232.0 65 9180.0 113 9180.0 194V213L9179.0 221L9181.0 223C9190.0 218 9205.0 216 9235.0 216H9564.0C9571.0 247 9574.0 265 9574.0 288C9574.0 404 9495.0 477 9367.0 477C9210.0 477 9096.0 362 9096.0 202C9096.0 66 9181.0 -15 9322.0 -15ZM9189.0 273C9212.0 354 9276.0 403 9361.0 403C9444.0 403 9490.0 361 9490.0 286C9490.0 282 9489.0 278 9490.0 274L9488.0 273C9479.0 279 9468.0 281 9438.0 281H9236.0C9214.0 281 9200.0 278 9190.0 272Z" />
      <path d="M9710.0 0 9755.0 229C9776.0 341 9824.0 396 9897.0 396C9951.0 396 9981.0 365 9981.0 306C9981.0 291 9980.0 275 9976.0 259L9925.0 0H10008.0L10053.0 234C10075.0 345 10120.0 396 10193.0 396C10248.0 396 10278.0 365 10278.0 307C10278.0 296 10277.0 284 10273.0 259L10223.0 0H10307.0L10360.0 262C10365.0 285 10367.0 308 10367.0 331C10367.0 424 10319.0 477 10232.0 477C10159.0 477 10102.0 436 10070.0 360H10066.0C10059.0 436 10014.0 477 9938.0 477C9864.0 477 9812.0 438 9772.0 354L9769.0 356C9781.0 384 9792.0 423 9800.0 462H9715.0L9625.0 0Z" />
      <path d="M10401.0 62C10456.0 12 10526.0 -15 10601.0 -15C10702.0 -15 10760.0 32 10760.0 117C10760.0 168 10737.0 204 10684.0 243L10628.0 281C10587.0 310 10577.0 324 10577.0 347C10577.0 379 10600.0 398 10640.0 398C10674.0 398 10711.0 384 10755.0 355L10798.0 424C10746.0 459 10690.0 477 10635.0 477C10546.0 477 10490.0 428 10490.0 349C10490.0 301 10515.0 260 10567.0 223L10629.0 179C10661.0 156 10672.0 140 10672.0 118C10672.0 85 10645.0 64 10600.0 64C10551.0 64 10501.0 85 10451.0 128Z" />
      <path d="M10931.0 0 10953.0 114H10846.0L10824.0 0Z" />
    </g>
  </g>
  <g class="line-wrap line-wrap-1" clip-path="url(#clip1)">
    <g fill="currentColor" transform="translate(285.29 29.92) scale(0.028000 -0.028000)">
      <path d="M76.0 0 198.0 196H488.0L538.0 0H631.0L442.0 715H433.0L-34.0 0ZM240.0 272C250.0 282 263.0 298 282.0 329L370.0 474C391.0 508 405.0 537 410.0 555H415.0C413.0 537 416.0 508 424.0 474L455.0 329C462.0 298 469.0 282 475.0 272V271C464.0 272 447.0 273 418.0 273H297.0C269.0 273 251.0 272 241.0 271Z" />
      <path d="M904.0 -215C1053.0 -215 1138.0 -145 1165.0 1L1254.0 462H1170.0C1158.0 404 1155.0 380 1157.0 355L1153.0 354C1130.0 433 1066.0 477 975.0 477C829.0 477 720.0 361 720.0 206C720.0 75 803.0 -15 922.0 -15C1003.0 -15 1071.0 27 1105.0 98L1107.0 97C1096.0 68 1093.0 56 1082.0 3C1063.0 -88 1005.0 -134 908.0 -134C845.0 -134 790.0 -115 734.0 -74L679.0 -147C736.0 -191 816.0 -215 904.0 -215ZM950.0 65C863.0 65 809.0 120 809.0 206C809.0 316 886.0 397 990.0 397C1080.0 397 1134.0 344 1134.0 257C1134.0 148 1054.0 65 950.0 65Z" />
      <path d="M1531.0 -15C1616.0 -15 1678.0 12 1750.0 79L1698.0 140C1641.0 87 1593.0 65 1531.0 65C1441.0 65 1389.0 113 1389.0 194V213L1388.0 221L1390.0 223C1399.0 218 1414.0 216 1444.0 216H1773.0C1780.0 247 1783.0 265 1783.0 288C1783.0 404 1704.0 477 1576.0 477C1419.0 477 1305.0 362 1305.0 202C1305.0 66 1390.0 -15 1531.0 -15ZM1398.0 273C1421.0 354 1485.0 403 1570.0 403C1653.0 403 1699.0 361 1699.0 286C1699.0 282 1698.0 278 1699.0 274L1697.0 273C1688.0 279 1677.0 281 1647.0 281H1445.0C1423.0 281 1409.0 278 1399.0 272Z" />
      <path d="M1919.0 0 1961.0 218C1985.0 338 2040.0 400 2124.0 400C2189.0 400 2224.0 365 2224.0 301C2224.0 283 2223.0 268 2218.0 251L2170.0 0H2254.0L2304.0 249C2311.0 286 2313.0 307 2313.0 328C2313.0 425 2262.0 477 2166.0 477C2081.0 477 2023.0 436 1981.0 345L1977.0 346C1991.0 377 2000.0 410 2006.0 447L2009.0 462H1924.0L1834.0 0Z" />
      <path d="M2642.0 709 2551.0 649 2523.0 504C2519.0 486 2518.0 472 2518.0 457L2516.0 455C2509.0 460 2500.0 462 2478.0 462H2430.0L2415.0 382H2463.0C2484.0 382 2494.0 383 2503.0 389L2505.0 387C2498.0 372 2495.0 358 2492.0 339L2426.0 0H2511.0L2577.0 339C2580.0 358 2582.0 372 2581.0 387L2585.0 389C2591.0 383 2600.0 382 2621.0 382H2674.0L2689.0 462H2636.0C2616.0 462 2606.0 460 2597.0 455L2595.0 457C2602.0 472 2604.0 486 2608.0 504L2648.0 709Z" />
      <path d="M3970.0 -15C4057.0 -15 4134.0 9 4211.0 60L4162.0 136C4097.0 94 4042.0 76 3977.0 76C3831.0 76 3740.0 166 3740.0 313C3740.0 491 3872.0 624 4048.0 624C4116.0 624 4181.0 602 4240.0 559L4296.0 635C4229.0 689 4151.0 715 4059.0 715C3817.0 715 3643.0 546 3643.0 310C3643.0 113 3771.0 -15 3970.0 -15Z" />
      <path d="M4532.0 -15C4690.0 -15 4807.0 102 4807.0 259C4807.0 393 4720.0 477 4581.0 477C4423.0 477 4305.0 360 4305.0 203C4305.0 69 4393.0 -15 4532.0 -15ZM4540.0 68C4448.0 68 4393.0 120 4393.0 207C4393.0 314 4469.0 394 4573.0 394C4664.0 394 4719.0 342 4719.0 255C4719.0 148 4643.0 68 4540.0 68Z" />
      <path d="M5075.0 -15C5156.0 -15 5224.0 28 5257.0 98L5260.0 97C5252.0 72 5244.0 40 5236.0 0H5318.0L5457.0 715H5372.0L5323.0 462C5311.0 401 5308.0 378 5309.0 354L5305.0 353C5284.0 432 5219.0 477 5127.0 477C4982.0 477 4873.0 361 4873.0 206C4873.0 75 4955.0 -15 5075.0 -15ZM5102.0 65C5016.0 65 4961.0 119 4961.0 206C4961.0 319 5035.0 397 5143.0 397C5232.0 397 5286.0 344 5286.0 257C5286.0 148 5207.0 65 5102.0 65Z" />
      <path d="M5690.0 -15C5775.0 -15 5837.0 12 5909.0 79L5857.0 140C5800.0 87 5752.0 65 5690.0 65C5600.0 65 5548.0 113 5548.0 194V213L5547.0 221L5549.0 223C5558.0 218 5573.0 216 5603.0 216H5932.0C5939.0 247 5942.0 265 5942.0 288C5942.0 404 5863.0 477 5735.0 477C5578.0 477 5464.0 362 5464.0 202C5464.0 66 5549.0 -15 5690.0 -15ZM5557.0 273C5580.0 354 5644.0 403 5729.0 403C5812.0 403 5858.0 361 5858.0 286C5858.0 282 5857.0 278 5858.0 274L5856.0 273C5847.0 279 5836.0 281 5806.0 281H5604.0C5582.0 281 5568.0 278 5558.0 272Z" />
      <path d="M7128.0 0C7395.0 0 7567.0 155 7567.0 395C7567.0 582 7449.0 700 7262.0 700H7051.0L6915.0 0ZM7019.0 83C7022.0 88 7024.0 95 7027.0 108L7120.0 592C7122.0 602 7123.0 610 7122.0 617L7125.0 619C7131.0 616 7137.0 615 7149.0 615H7254.0C7389.0 615 7471.0 532 7471.0 395C7471.0 213 7340.0 85 7152.0 85H7046.0C7032.0 85 7027.0 84 7020.0 81Z" />
      <path d="M7766.0 -14C7833.0 -14 7882.0 14 7922.0 76L7926.0 74C7913.0 51 7907.0 35 7901.0 0H7986.0L8040.0 284C8044.0 305 8046.0 323 8046.0 338C8046.0 429 7987.0 476 7875.0 476C7829.0 476 7754.0 467 7701.0 456L7717.0 378C7771.0 391 7829.0 398 7865.0 398C7931.0 398 7965.0 373 7965.0 324C7965.0 312 7963.0 302 7959.0 275C7954.0 246 7952.0 225 7956.0 209L7953.0 208C7927.0 271 7868.0 310 7786.0 310C7671.0 310 7599.0 244 7599.0 141C7599.0 49 7667.0 -14 7766.0 -14ZM7795.0 56C7729.0 56 7689.0 89 7689.0 142C7689.0 202 7732.0 239 7803.0 239C7873.0 239 7926.0 201 7926.0 150C7926.0 98 7868.0 56 7795.0 56Z" />
      <path d="M8372.0 709 8281.0 649 8253.0 504C8249.0 486 8248.0 472 8248.0 457L8246.0 455C8239.0 460 8230.0 462 8208.0 462H8160.0L8145.0 382H8193.0C8214.0 382 8224.0 383 8233.0 389L8235.0 387C8228.0 372 8225.0 358 8222.0 339L8156.0 0H8241.0L8307.0 339C8310.0 358 8312.0 372 8311.0 387L8315.0 389C8321.0 383 8330.0 382 8351.0 382H8404.0L8419.0 462H8366.0C8346.0 462 8336.0 460 8327.0 455L8325.0 457C8332.0 472 8334.0 486 8338.0 504L8378.0 709Z" />
      <path d="M8585.0 -14C8652.0 -14 8701.0 14 8741.0 76L8745.0 74C8732.0 51 8726.0 35 8720.0 0H8805.0L8859.0 284C8863.0 305 8865.0 323 8865.0 338C8865.0 429 8806.0 476 8694.0 476C8648.0 476 8573.0 467 8520.0 456L8536.0 378C8590.0 391 8648.0 398 8684.0 398C8750.0 398 8784.0 373 8784.0 324C8784.0 312 8782.0 302 8778.0 275C8773.0 246 8771.0 225 8775.0 209L8772.0 208C8746.0 271 8687.0 310 8605.0 310C8490.0 310 8418.0 244 8418.0 141C8418.0 49 8486.0 -14 8585.0 -14ZM8614.0 56C8548.0 56 8508.0 89 8508.0 142C8508.0 202 8551.0 239 8622.0 239C8692.0 239 8745.0 201 8745.0 150C8745.0 98 8687.0 56 8614.0 56Z" />
    </g>
  </g>
  <g class="line-wrap line-wrap-2" clip-path="url(#clip2)">
    <g fill="currentColor" transform="translate(141.98 29.92) scale(0.028000 -0.028000)">
      <path d="M402.0 -9 642.0 388C677.0 445 685.0 471 697.0 500H700.0C695.0 474 691.0 436 696.0 387L736.0 0H823.0L749.0 711H735.0L462.0 250C448.0 226 436.0 198 426.0 165H422.0C424.0 198 424.0 224 418.0 250L320.0 711H308.0L-34.0 0H68.0L251.0 387C274.0 433 283.0 475 290.0 500H293.0C293.0 471 291.0 445 304.0 388L393.0 -9Z" />
      <path d="M1064.0 -14C1131.0 -14 1180.0 14 1220.0 76L1224.0 74C1211.0 51 1205.0 35 1199.0 0H1284.0L1338.0 284C1342.0 305 1344.0 323 1344.0 338C1344.0 429 1285.0 476 1173.0 476C1127.0 476 1052.0 467 999.0 456L1015.0 378C1069.0 391 1127.0 398 1163.0 398C1229.0 398 1263.0 373 1263.0 324C1263.0 312 1261.0 302 1257.0 275C1252.0 246 1250.0 225 1254.0 209L1251.0 208C1225.0 271 1166.0 310 1084.0 310C969.0 310 897.0 244 897.0 141C897.0 49 965.0 -14 1064.0 -14ZM1093.0 56C1027.0 56 987.0 89 987.0 142C987.0 202 1030.0 239 1101.0 239C1171.0 239 1224.0 201 1224.0 150C1224.0 98 1166.0 56 1093.0 56Z" />
      <path d="M1549.0 715 1410.0 0H1495.0L1522.0 140C1530.0 183 1534.0 211 1533.0 235L1536.0 237L1703.0 0H1809.0L1658.0 204C1639.0 228 1628.0 235 1620.0 240V243C1631.0 248 1644.0 256 1674.0 282L1878.0 462H1760.0L1540.0 258L1537.0 259C1548.0 284 1556.0 314 1564.0 355L1634.0 715Z" />
      <path d="M2115.0 -15C2200.0 -15 2262.0 12 2334.0 79L2282.0 140C2225.0 87 2177.0 65 2115.0 65C2025.0 65 1973.0 113 1973.0 194V213L1972.0 221L1974.0 223C1983.0 218 1998.0 216 2028.0 216H2357.0C2364.0 247 2367.0 265 2367.0 288C2367.0 404 2288.0 477 2160.0 477C2003.0 477 1889.0 362 1889.0 202C1889.0 66 1974.0 -15 2115.0 -15ZM1982.0 273C2005.0 354 2069.0 403 2154.0 403C2237.0 403 2283.0 361 2283.0 286C2283.0 282 2282.0 278 2283.0 274L2281.0 273C2272.0 279 2261.0 281 2231.0 281H2029.0C2007.0 281 1993.0 278 1983.0 272Z" />
      <path d="M2923.0 569 2948.0 700H2853.0L2827.0 569ZM2812.0 462 2722.0 0H2807.0L2897.0 462Z" />
      <path d="M3154.0 -15C3235.0 -15 3303.0 28 3336.0 98L3339.0 97C3331.0 72 3323.0 40 3315.0 0H3397.0L3536.0 715H3451.0L3402.0 462C3390.0 401 3387.0 378 3388.0 354L3384.0 353C3363.0 432 3298.0 477 3206.0 477C3061.0 477 2952.0 361 2952.0 206C2952.0 75 3034.0 -15 3154.0 -15ZM3181.0 65C3095.0 65 3040.0 119 3040.0 206C3040.0 319 3114.0 397 3222.0 397C3311.0 397 3365.0 344 3365.0 257C3365.0 148 3286.0 65 3181.0 65Z" />
      <path d="M3769.0 -15C3854.0 -15 3916.0 12 3988.0 79L3936.0 140C3879.0 87 3831.0 65 3769.0 65C3679.0 65 3627.0 113 3627.0 194V213L3626.0 221L3628.0 223C3637.0 218 3652.0 216 3682.0 216H4011.0C4018.0 247 4021.0 265 4021.0 288C4021.0 404 3942.0 477 3814.0 477C3657.0 477 3543.0 362 3543.0 202C3543.0 66 3628.0 -15 3769.0 -15ZM3636.0 273C3659.0 354 3723.0 403 3808.0 403C3891.0 403 3937.0 361 3937.0 286C3937.0 282 3936.0 278 3937.0 274L3935.0 273C3926.0 279 3915.0 281 3885.0 281H3683.0C3661.0 281 3647.0 278 3637.0 272Z" />
      <path d="M4235.0 -14C4302.0 -14 4351.0 14 4391.0 76L4395.0 74C4382.0 51 4376.0 35 4370.0 0H4455.0L4509.0 284C4513.0 305 4515.0 323 4515.0 338C4515.0 429 4456.0 476 4344.0 476C4298.0 476 4223.0 467 4170.0 456L4186.0 378C4240.0 391 4298.0 398 4334.0 398C4400.0 398 4434.0 373 4434.0 324C4434.0 312 4432.0 302 4428.0 275C4423.0 246 4421.0 225 4425.0 209L4422.0 208C4396.0 271 4337.0 310 4255.0 310C4140.0 310 4068.0 244 4068.0 141C4068.0 49 4136.0 -14 4235.0 -14ZM4264.0 56C4198.0 56 4158.0 89 4158.0 142C4158.0 202 4201.0 239 4272.0 239C4342.0 239 4395.0 201 4395.0 150C4395.0 98 4337.0 56 4264.0 56Z" />
      <path d="M4546.0 62C4601.0 12 4671.0 -15 4746.0 -15C4847.0 -15 4905.0 32 4905.0 117C4905.0 168 4882.0 204 4829.0 243L4773.0 281C4732.0 310 4722.0 324 4722.0 347C4722.0 379 4745.0 398 4785.0 398C4819.0 398 4856.0 384 4900.0 355L4943.0 424C4891.0 459 4835.0 477 4780.0 477C4691.0 477 4635.0 428 4635.0 349C4635.0 301 4660.0 260 4712.0 223L4774.0 179C4806.0 156 4817.0 140 4817.0 118C4817.0 85 4790.0 64 4745.0 64C4696.0 64 4646.0 85 4596.0 128Z" />
      <path d="M5545.0 709 5454.0 649 5426.0 504C5422.0 486 5421.0 472 5421.0 457L5419.0 455C5412.0 460 5403.0 462 5381.0 462H5333.0L5318.0 382H5366.0C5387.0 382 5397.0 383 5406.0 389L5408.0 387C5401.0 372 5398.0 358 5395.0 339L5329.0 0H5414.0L5480.0 339C5483.0 358 5485.0 372 5484.0 387L5488.0 389C5494.0 383 5503.0 382 5524.0 382H5577.0L5592.0 462H5539.0C5519.0 462 5509.0 460 5500.0 455L5498.0 457C5505.0 472 5507.0 486 5511.0 504L5551.0 709Z" />
      <path d="M5758.0 -14C5825.0 -14 5874.0 14 5914.0 76L5918.0 74C5905.0 51 5899.0 35 5893.0 0H5978.0L6032.0 284C6036.0 305 6038.0 323 6038.0 338C6038.0 429 5979.0 476 5867.0 476C5821.0 476 5746.0 467 5693.0 456L5709.0 378C5763.0 391 5821.0 398 5857.0 398C5923.0 398 5957.0 373 5957.0 324C5957.0 312 5955.0 302 5951.0 275C5946.0 246 5944.0 225 5948.0 209L5945.0 208C5919.0 271 5860.0 310 5778.0 310C5663.0 310 5591.0 244 5591.0 141C5591.0 49 5659.0 -14 5758.0 -14ZM5787.0 56C5721.0 56 5681.0 89 5681.0 142C5681.0 202 5724.0 239 5795.0 239C5865.0 239 5918.0 201 5918.0 150C5918.0 98 5860.0 56 5787.0 56Z" />
      <path d="M6188.0 0 6230.0 218C6254.0 338 6309.0 400 6393.0 400C6458.0 400 6493.0 365 6493.0 301C6493.0 283 6492.0 268 6487.0 251L6439.0 0H6523.0L6573.0 249C6580.0 286 6582.0 307 6582.0 328C6582.0 425 6531.0 477 6435.0 477C6350.0 477 6292.0 436 6250.0 345L6246.0 346C6260.0 377 6269.0 410 6275.0 447L6278.0 462H6193.0L6103.0 0Z" />
      <path d="M6845.0 -215C6994.0 -215 7079.0 -145 7106.0 1L7195.0 462H7111.0C7099.0 404 7096.0 380 7098.0 355L7094.0 354C7071.0 433 7007.0 477 6916.0 477C6770.0 477 6661.0 361 6661.0 206C6661.0 75 6744.0 -15 6863.0 -15C6944.0 -15 7012.0 27 7046.0 98L7048.0 97C7037.0 68 7034.0 56 7023.0 3C7004.0 -88 6946.0 -134 6849.0 -134C6786.0 -134 6731.0 -115 6675.0 -74L6620.0 -147C6677.0 -191 6757.0 -215 6845.0 -215ZM6891.0 65C6804.0 65 6750.0 120 6750.0 206C6750.0 316 6827.0 397 6931.0 397C7021.0 397 7075.0 344 7075.0 257C7075.0 148 6995.0 65 6891.0 65Z" />
      <path d="M7436.0 569 7461.0 700H7366.0L7340.0 569ZM7325.0 462 7235.0 0H7320.0L7410.0 462Z" />
      <path d="M7735.0 -15C7881.0 -15 7990.0 101 7990.0 256C7990.0 387 7908.0 477 7788.0 477C7709.0 477 7641.0 436 7607.0 368L7604.0 369C7613.0 393 7622.0 426 7632.0 470L7679.0 715H7594.0L7455.0 0H7538.0C7549.0 55 7553.0 82 7553.0 107L7557.0 108C7579.0 30 7644.0 -15 7735.0 -15ZM7720.0 65C7632.0 65 7577.0 118 7577.0 205C7577.0 314 7656.0 397 7761.0 397C7848.0 397 7902.0 343 7902.0 256C7902.0 146 7824.0 65 7720.0 65Z" />
      <path d="M8131.0 0 8270.0 715H8185.0L8046.0 0Z" />
      <path d="M8503.0 -15C8588.0 -15 8650.0 12 8722.0 79L8670.0 140C8613.0 87 8565.0 65 8503.0 65C8413.0 65 8361.0 113 8361.0 194V213L8360.0 221L8362.0 223C8371.0 218 8386.0 216 8416.0 216H8745.0C8752.0 247 8755.0 265 8755.0 288C8755.0 404 8676.0 477 8548.0 477C8391.0 477 8277.0 362 8277.0 202C8277.0 66 8362.0 -15 8503.0 -15ZM8370.0 273C8393.0 354 8457.0 403 8542.0 403C8625.0 403 8671.0 361 8671.0 286C8671.0 282 8670.0 278 8671.0 274L8669.0 273C8660.0 279 8649.0 281 8619.0 281H8417.0C8395.0 281 8381.0 278 8371.0 272Z" />
      <path d="M8808.0 -167 8949.0 100H8848.0L8760.0 -167Z" />
      <path d="M9617.0 709 9526.0 649 9498.0 504C9494.0 486 9493.0 472 9493.0 457L9491.0 455C9484.0 460 9475.0 462 9453.0 462H9405.0L9390.0 382H9438.0C9459.0 382 9469.0 383 9478.0 389L9480.0 387C9473.0 372 9470.0 358 9467.0 339L9401.0 0H9486.0L9552.0 339C9555.0 358 9557.0 372 9556.0 387L9560.0 389C9566.0 383 9575.0 382 9596.0 382H9649.0L9664.0 462H9611.0C9591.0 462 9581.0 460 9572.0 455L9570.0 457C9577.0 472 9579.0 486 9583.0 504L9623.0 709Z" />
      <path d="M9904.0 -15C9989.0 -15 10051.0 12 10123.0 79L10071.0 140C10014.0 87 9966.0 65 9904.0 65C9814.0 65 9762.0 113 9762.0 194V213L9761.0 221L9763.0 223C9772.0 218 9787.0 216 9817.0 216H10146.0C10153.0 247 10156.0 265 10156.0 288C10156.0 404 10077.0 477 9949.0 477C9792.0 477 9678.0 362 9678.0 202C9678.0 66 9763.0 -15 9904.0 -15ZM9771.0 273C9794.0 354 9858.0 403 9943.0 403C10026.0 403 10072.0 361 10072.0 286C10072.0 282 10071.0 278 10072.0 274L10070.0 273C10061.0 279 10050.0 281 10020.0 281H9818.0C9796.0 281 9782.0 278 9772.0 272Z" />
      <path d="M10173.0 62C10228.0 12 10298.0 -15 10373.0 -15C10474.0 -15 10532.0 32 10532.0 117C10532.0 168 10509.0 204 10456.0 243L10400.0 281C10359.0 310 10349.0 324 10349.0 347C10349.0 379 10372.0 398 10412.0 398C10446.0 398 10483.0 384 10527.0 355L10570.0 424C10518.0 459 10462.0 477 10407.0 477C10318.0 477 10262.0 428 10262.0 349C10262.0 301 10287.0 260 10339.0 223L10401.0 179C10433.0 156 10444.0 140 10444.0 118C10444.0 85 10417.0 64 10372.0 64C10323.0 64 10273.0 85 10223.0 128Z" />
      <path d="M10868.0 709 10777.0 649 10749.0 504C10745.0 486 10744.0 472 10744.0 457L10742.0 455C10735.0 460 10726.0 462 10704.0 462H10656.0L10641.0 382H10689.0C10710.0 382 10720.0 383 10729.0 389L10731.0 387C10724.0 372 10721.0 358 10718.0 339L10652.0 0H10737.0L10803.0 339C10806.0 358 10808.0 372 10807.0 387L10811.0 389C10817.0 383 10826.0 382 10847.0 382H10900.0L10915.0 462H10862.0C10842.0 462 10832.0 460 10823.0 455L10821.0 457C10828.0 472 10830.0 486 10834.0 504L10874.0 709Z" />
      <path d="M11081.0 -14C11148.0 -14 11197.0 14 11237.0 76L11241.0 74C11228.0 51 11222.0 35 11216.0 0H11301.0L11355.0 284C11359.0 305 11361.0 323 11361.0 338C11361.0 429 11302.0 476 11190.0 476C11144.0 476 11069.0 467 11016.0 456L11032.0 378C11086.0 391 11144.0 398 11180.0 398C11246.0 398 11280.0 373 11280.0 324C11280.0 312 11278.0 302 11274.0 275C11269.0 246 11267.0 225 11271.0 209L11268.0 208C11242.0 271 11183.0 310 11101.0 310C10986.0 310 10914.0 244 10914.0 141C10914.0 49 10982.0 -14 11081.0 -14ZM11110.0 56C11044.0 56 11004.0 89 11004.0 142C11004.0 202 11047.0 239 11118.0 239C11188.0 239 11241.0 201 11241.0 150C11241.0 98 11183.0 56 11110.0 56Z" />
      <path d="M11707.0 -15C11853.0 -15 11962.0 101 11962.0 256C11962.0 387 11880.0 477 11760.0 477C11681.0 477 11613.0 436 11579.0 368L11576.0 369C11585.0 393 11594.0 426 11604.0 470L11651.0 715H11566.0L11427.0 0H11510.0C11521.0 55 11525.0 82 11525.0 107L11529.0 108C11551.0 30 11616.0 -15 11707.0 -15ZM11692.0 65C11604.0 65 11549.0 118 11549.0 205C11549.0 314 11628.0 397 11733.0 397C11820.0 397 11874.0 343 11874.0 256C11874.0 146 11796.0 65 11692.0 65Z" />
      <path d="M12103.0 0 12242.0 715H12157.0L12018.0 0Z" />
      <path d="M12475.0 -15C12560.0 -15 12622.0 12 12694.0 79L12642.0 140C12585.0 87 12537.0 65 12475.0 65C12385.0 65 12333.0 113 12333.0 194V213L12332.0 221L12334.0 223C12343.0 218 12358.0 216 12388.0 216H12717.0C12724.0 247 12727.0 265 12727.0 288C12727.0 404 12648.0 477 12520.0 477C12363.0 477 12249.0 362 12249.0 202C12249.0 66 12334.0 -15 12475.0 -15ZM12342.0 273C12365.0 354 12429.0 403 12514.0 403C12597.0 403 12643.0 361 12643.0 286C12643.0 282 12642.0 278 12643.0 274L12641.0 273C12632.0 279 12621.0 281 12591.0 281H12389.0C12367.0 281 12353.0 278 12343.0 272Z" />
      <path d="M12780.0 -167 12921.0 100H12820.0L12732.0 -167Z" />
      <path d="M13491.0 -14C13558.0 -14 13607.0 14 13647.0 76L13651.0 74C13638.0 51 13632.0 35 13626.0 0H13711.0L13765.0 284C13769.0 305 13771.0 323 13771.0 338C13771.0 429 13712.0 476 13600.0 476C13554.0 476 13479.0 467 13426.0 456L13442.0 378C13496.0 391 13554.0 398 13590.0 398C13656.0 398 13690.0 373 13690.0 324C13690.0 312 13688.0 302 13684.0 275C13679.0 246 13677.0 225 13681.0 209L13678.0 208C13652.0 271 13593.0 310 13511.0 310C13396.0 310 13324.0 244 13324.0 141C13324.0 49 13392.0 -14 13491.0 -14ZM13520.0 56C13454.0 56 13414.0 89 13414.0 142C13414.0 202 13457.0 239 13528.0 239C13598.0 239 13651.0 201 13651.0 150C13651.0 98 13593.0 56 13520.0 56Z" />
      <path d="M13921.0 0 13963.0 218C13987.0 338 14042.0 400 14126.0 400C14191.0 400 14226.0 365 14226.0 301C14226.0 283 14225.0 268 14220.0 251L14172.0 0H14256.0L14306.0 249C14313.0 286 14315.0 307 14315.0 328C14315.0 425 14264.0 477 14168.0 477C14083.0 477 14025.0 436 13983.0 345L13979.0 346C13993.0 377 14002.0 410 14008.0 447L14011.0 462H13926.0L13836.0 0Z" />
      <path d="M14596.0 -15C14677.0 -15 14745.0 28 14778.0 98L14781.0 97C14773.0 72 14765.0 40 14757.0 0H14839.0L14978.0 715H14893.0L14844.0 462C14832.0 401 14829.0 378 14830.0 354L14826.0 353C14805.0 432 14740.0 477 14648.0 477C14503.0 477 14394.0 361 14394.0 206C14394.0 75 14476.0 -15 14596.0 -15ZM14623.0 65C14537.0 65 14482.0 119 14482.0 206C14482.0 319 14556.0 397 14664.0 397C14753.0 397 14807.0 344 14807.0 257C14807.0 148 14728.0 65 14623.0 65Z" />
      <path d="M15363.0 0 15401.0 197C15423.0 313 15487.0 380 15574.0 380C15587.0 380 15595.0 380 15612.0 378L15631.0 475C15624.0 476 15619.0 476 15610.0 476C15516.0 476 15461.0 433 15421.0 330L15416.0 331C15430.0 366 15445.0 422 15453.0 462H15368.0L15278.0 0Z" />
      <path d="M15858.0 -15C15943.0 -15 16005.0 12 16077.0 79L16025.0 140C15968.0 87 15920.0 65 15858.0 65C15768.0 65 15716.0 113 15716.0 194V213L15715.0 221L15717.0 223C15726.0 218 15741.0 216 15771.0 216H16100.0C16107.0 247 16110.0 265 16110.0 288C16110.0 404 16031.0 477 15903.0 477C15746.0 477 15632.0 362 15632.0 202C15632.0 66 15717.0 -15 15858.0 -15ZM15725.0 273C15748.0 354 15812.0 403 15897.0 403C15980.0 403 16026.0 361 16026.0 286C16026.0 282 16025.0 278 16026.0 274L16024.0 273C16015.0 279 16004.0 281 15974.0 281H15772.0C15750.0 281 15736.0 278 15726.0 272Z" />
      <path d="M16564.0 462 16521.0 244C16499.0 129 16444.0 66 16364.0 66C16303.0 66 16270.0 100 16271.0 162C16271.0 177 16273.0 192 16276.0 210L16326.0 462H16241.0L16190.0 207C16185.0 178 16183.0 155 16183.0 136C16182.0 41 16235.0 -15 16328.0 -15C16403.0 -15 16455.0 22 16501.0 108L16505.0 107C16494.0 82 16483.0 46 16474.0 0H16558.0L16648.0 462Z" />
      <path d="M16653.0 62C16708.0 12 16778.0 -15 16853.0 -15C16954.0 -15 17012.0 32 17012.0 117C17012.0 168 16989.0 204 16936.0 243L16880.0 281C16839.0 310 16829.0 324 16829.0 347C16829.0 379 16852.0 398 16892.0 398C16926.0 398 16963.0 384 17007.0 355L17050.0 424C16998.0 459 16942.0 477 16887.0 477C16798.0 477 16742.0 428 16742.0 349C16742.0 301 16767.0 260 16819.0 223L16881.0 179C16913.0 156 16924.0 140 16924.0 118C16924.0 85 16897.0 64 16852.0 64C16803.0 64 16753.0 85 16703.0 128Z" />
      <path d="M17250.0 -14C17317.0 -14 17366.0 14 17406.0 76L17410.0 74C17397.0 51 17391.0 35 17385.0 0H17470.0L17524.0 284C17528.0 305 17530.0 323 17530.0 338C17530.0 429 17471.0 476 17359.0 476C17313.0 476 17238.0 467 17185.0 456L17201.0 378C17255.0 391 17313.0 398 17349.0 398C17415.0 398 17449.0 373 17449.0 324C17449.0 312 17447.0 302 17443.0 275C17438.0 246 17436.0 225 17440.0 209L17437.0 208C17411.0 271 17352.0 310 17270.0 310C17155.0 310 17083.0 244 17083.0 141C17083.0 49 17151.0 -14 17250.0 -14ZM17279.0 56C17213.0 56 17173.0 89 17173.0 142C17173.0 202 17216.0 239 17287.0 239C17357.0 239 17410.0 201 17410.0 150C17410.0 98 17352.0 56 17279.0 56Z" />
      <path d="M17876.0 -15C18022.0 -15 18131.0 101 18131.0 256C18131.0 387 18049.0 477 17929.0 477C17850.0 477 17782.0 436 17748.0 368L17745.0 369C17754.0 393 17763.0 426 17773.0 470L17820.0 715H17735.0L17596.0 0H17679.0C17690.0 55 17694.0 82 17694.0 107L17698.0 108C17720.0 30 17785.0 -15 17876.0 -15ZM17861.0 65C17773.0 65 17718.0 118 17718.0 205C17718.0 314 17797.0 397 17902.0 397C17989.0 397 18043.0 343 18043.0 256C18043.0 146 17965.0 65 17861.0 65Z" />
      <path d="M18272.0 0 18411.0 715H18326.0L18187.0 0Z" />
      <path d="M18644.0 -15C18729.0 -15 18791.0 12 18863.0 79L18811.0 140C18754.0 87 18706.0 65 18644.0 65C18554.0 65 18502.0 113 18502.0 194V213L18501.0 221L18503.0 223C18512.0 218 18527.0 216 18557.0 216H18886.0C18893.0 247 18896.0 265 18896.0 288C18896.0 404 18817.0 477 18689.0 477C18532.0 477 18418.0 362 18418.0 202C18418.0 66 18503.0 -15 18644.0 -15ZM18511.0 273C18534.0 354 18598.0 403 18683.0 403C18766.0 403 18812.0 361 18812.0 286C18812.0 282 18811.0 278 18812.0 274L18810.0 273C18801.0 279 18790.0 281 18760.0 281H18558.0C18536.0 281 18522.0 278 18512.0 272Z" />
      <path d="M19043.0 0 19065.0 114H18958.0L18936.0 0Z" />
    </g>
  </g>
</svg>
