<svg xmlns="http://www.w3.org/2000/svg" width="820" height="46" viewBox="0 0 820 46" role="img" aria-labelledby="title">
  <title id="title">Build from real problems. Agent   Code   Data Make ideas tangible, testable, and reusable.</title>
  <desc>GT Eesti Display Thin Italic typing intro.</desc>
  <defs>
    <style>
    svg { color: #000000; }
    @media (prefers-color-scheme: dark) {
      svg { color: #EDEDED; }
    }
    .clip-rect {
      animation-duration: 9s;
      animation-timing-function: steps(24, end);
      animation-iteration-count: infinite;
    }
    .clip-rect-0 { animation-name: type0; }
    .clip-rect-1 { animation-name: type1; }
    .clip-rect-2 { animation-name: type2; }
    .line-wrap {
      opacity: 0;
      animation-duration: 9s;
      animation-timing-function: linear;
      animation-iteration-count: infinite;
    }
    .line-wrap-0 { animation-name: show0; }
    .line-wrap-1 { animation-name: show1; }
    .line-wrap-2 { animation-name: show2; }
    @keyframes show0 {
      0%, 32.5%, 100% { opacity: 0; }
      1%, 30% { opacity: 1; }
    }
    @keyframes show1 {
      0%, 33%, 65.5%, 100% { opacity: 0; }
      34%, 63% { opacity: 1; }
    }
    @keyframes show2 {
      0%, 66%, 98.5%, 100% { opacity: 0; }
      67%, 96% { opacity: 1; }
    }
    @keyframes type0 {
      0% { width: 0; }
      15% { width: 326.6px; }
      30% { width: 326.6px; }
      32.5%, 100% { width: 0; }
    }
    @keyframes type1 {
      0%, 33% { width: 0; }
      48% { width: 270.7px; }
      63% { width: 270.7px; }
      65.5%, 100% { width: 0; }
    }
    @keyframes type2 {
      0%, 66% { width: 0; }
      81% { width: 578.3px; }
      96% { width: 578.3px; }
      98.5%, 100% { width: 0; }
    }
    </style>
    <clipPath id="clip0">
      <rect class="clip-rect clip-rect-0" x="246.68" y="0" width="0" height="46" />
    </clipPath>
    <clipPath id="clip1">
      <rect class="clip-rect clip-rect-1" x="274.65" y="0" width="0" height="46" />
    </clipPath>
    <clipPath id="clip2">
      <rect class="clip-rect clip-rect-2" x="120.85" y="0" width="0" height="46" />
    </clipPath>
  </defs>
  <g class="line-wrap line-wrap-0" clip-path="url(#clip0)">
    <g fill="currentColor" transform="translate(246.68 31.28) scale(0.030000 -0.030000)">
      <path d="M428.0 372C528.0 393 579.0 465 579.0 547C579.0 645 511.0 700 396.0 700H169.0L33.0 0H306.0C443.0 0 560.0 74 560.0 212C560.0 296 515.0 355 428.0 370ZM385.0 648C483.0 648 520.0 607 520.0 540C520.0 451 456.0 393 336.0 393H166.0L216.0 648ZM99.0 52 156.0 341H348.0C450.0 341 503.0 291 503.0 210C503.0 117 426.0 52 307.0 52Z" />
      <path d="M812.0 -15C904.0 -15 962.0 39 995.0 99H997.0L977.0 0H1029.0L1119.0 462H1066.0L1026.0 263C994.0 100 919.0 36 825.0 36C754.0 36 716.0 71 716.0 142C716.0 158 718.0 176 721.0 195L774.0 462H720.0L667.0 195C662.0 168 660.0 145 660.0 129C660.0 40 714.0 -15 812.0 -15Z" />
      <path d="M1282.0 690 1258.0 570H1326.0L1350.0 690ZM1210.0 0 1300.0 462H1248.0L1158.0 0Z" />
      <path d="M1400.0 0 1536.0 700H1484.0L1348.0 0Z" />
      <path d="M2011.0 352H2009.0C1982.0 431 1909.0 477 1815.0 477C1667.0 477 1555.0 359 1555.0 204C1555.0 72 1638.0 -15 1763.0 -15C1843.0 -15 1908.0 18 1957.0 84H1959.0L1942.0 0H1994.0L2129.0 700H2077.0ZM1780.0 35C1676.0 35 1610.0 100 1610.0 203C1610.0 329 1701.0 427 1819.0 427C1927.0 427 1995.0 361 1995.0 258C1995.0 131 1903.0 35 1780.0 35Z" />
      <path d="M2783.0 710C2691.0 710 2625.0 668 2602.0 550L2585.0 462H2491.0L2482.0 418H2576.0L2495.0 0H2547.0L2629.0 418H2741.0L2750.0 462H2638.0L2655.0 550C2671.0 633 2717.0 661 2776.0 661H2788.0L2798.0 710Z" />
      <path d="M2805.0 0 2849.0 227C2871.0 344 2934.0 417 3036.0 417C3043.0 417 3053.0 416 3058.0 415L3070.0 474C3063.0 475 3056.0 476 3047.0 476C2964.0 476 2905.0 427 2876.0 357H2874.0L2895.0 462H2843.0L2753.0 0Z" />
      <path d="M3309.0 -15C3472.0 -15 3586.0 109 3586.0 261C3586.0 400 3494.0 477 3360.0 477C3197.0 477 3083.0 353 3083.0 201C3083.0 62 3175.0 -15 3309.0 -15ZM3314.0 36C3205.0 36 3138.0 98 3138.0 201C3138.0 320 3226.0 426 3355.0 426C3464.0 426 3531.0 364 3531.0 261C3531.0 142 3443.0 36 3314.0 36Z" />
      <path d="M3695.0 0 3739.0 224C3765.0 361 3827.0 427 3916.0 427C3981.0 427 4013.0 392 4013.0 323C4013.0 305 4011.0 283 4006.0 259L3956.0 0H4008.0L4055.0 242C4079.0 368 4139.0 427 4231.0 427C4290.0 427 4328.0 398 4328.0 329C4328.0 313 4326.0 296 4322.0 275L4269.0 0H4321.0L4373.0 271C4379.0 300 4381.0 322 4381.0 341C4381.0 441 4318.0 477 4242.0 477C4165.0 477 4108.0 441 4069.0 363H4067.0C4057.0 439 4012.0 477 3935.0 477C3856.0 477 3804.0 436 3768.0 367H3766.0L3785.0 462H3733.0L3643.0 0Z" />
      <path d="M4805.0 0 4849.0 227C4871.0 344 4934.0 417 5036.0 417C5043.0 417 5053.0 416 5058.0 415L5070.0 474C5063.0 475 5056.0 476 5047.0 476C4964.0 476 4905.0 427 4876.0 357H4874.0L4895.0 462H4843.0L4753.0 0Z" />
      <path d="M5551.0 227C5556.0 251 5560.0 269 5560.0 292C5560.0 396 5493.0 477 5358.0 477C5194.0 477 5082.0 355 5082.0 195C5082.0 61 5162.0 -16 5297.0 -16C5403.0 -16 5466.0 32 5521.0 84L5486.0 123C5438.0 73 5384.0 35 5298.0 35C5194.0 35 5135.0 91 5135.0 198C5135.0 208 5136.0 217 5137.0 227ZM5355.0 429C5453.0 429 5507.0 374 5507.0 293C5507.0 283 5506.0 277 5504.0 269H5145.0C5171.0 361 5247.0 429 5355.0 429Z" />
      <path d="M5837.0 -15C5917.0 -15 5982.0 18 6031.0 84H6033.0L6016.0 0H6068.0L6158.0 462H6106.0L6085.0 352H6083.0C6056.0 431 5983.0 477 5889.0 477C5741.0 477 5629.0 359 5629.0 204C5629.0 72 5712.0 -15 5837.0 -15ZM5854.0 35C5750.0 35 5684.0 100 5684.0 203C5684.0 329 5775.0 427 5893.0 427C6001.0 427 6069.0 361 6069.0 258C6069.0 131 5977.0 35 5854.0 35Z" />
      <path d="M6257.0 0 6393.0 700H6341.0L6205.0 0Z" />
      <path d="M6711.0 -200 6770.0 102H6773.0C6794.0 37 6857.0 -15 6955.0 -15C7104.0 -15 7227.0 101 7227.0 270C7227.0 396 7145.0 477 7023.0 477C6940.0 477 6870.0 436 6825.0 375H6823.0L6840.0 462H6788.0L6659.0 -200ZM6952.0 35C6848.0 35 6787.0 99 6787.0 194C6787.0 326 6884.0 427 7013.0 427C7113.0 427 7172.0 363 7172.0 268C7172.0 136 7077.0 35 6952.0 35Z" />
      <path d="M7334.0 0 7378.0 227C7400.0 344 7463.0 417 7565.0 417C7572.0 417 7582.0 416 7587.0 415L7599.0 474C7592.0 475 7585.0 476 7576.0 476C7493.0 476 7434.0 427 7405.0 357H7403.0L7424.0 462H7372.0L7282.0 0Z" />
      <path d="M7838.0 -15C8001.0 -15 8115.0 109 8115.0 261C8115.0 400 8023.0 477 7889.0 477C7726.0 477 7612.0 353 7612.0 201C7612.0 62 7704.0 -15 7838.0 -15ZM7843.0 36C7734.0 36 7667.0 98 7667.0 201C7667.0 320 7755.0 426 7884.0 426C7993.0 426 8060.0 364 8060.0 261C8060.0 142 7972.0 36 7843.0 36Z" />
      <path d="M8443.0 -15C8603.0 -15 8710.0 113 8710.0 263C8710.0 397 8622.0 477 8505.0 477C8420.0 477 8350.0 435 8309.0 380H8307.0L8369.0 700H8317.0L8181.0 0H8233.0L8253.0 105H8256.0C8280.0 36 8343.0 -15 8443.0 -15ZM8437.0 35C8332.0 35 8270.0 99 8270.0 198C8270.0 320 8365.0 427 8494.0 427C8594.0 427 8655.0 362 8655.0 262C8655.0 148 8576.0 35 8437.0 35Z" />
      <path d="M8827.0 0 8963.0 700H8911.0L8775.0 0Z" />
      <path d="M9450.0 227C9455.0 251 9459.0 269 9459.0 292C9459.0 396 9392.0 477 9257.0 477C9093.0 477 8981.0 355 8981.0 195C8981.0 61 9061.0 -16 9196.0 -16C9302.0 -16 9365.0 32 9420.0 84L9385.0 123C9337.0 73 9283.0 35 9197.0 35C9093.0 35 9034.0 91 9034.0 198C9034.0 208 9035.0 217 9036.0 227ZM9254.0 429C9352.0 429 9406.0 374 9406.0 293C9406.0 283 9405.0 277 9403.0 269H9044.0C9070.0 361 9146.0 429 9254.0 429Z" />
      <path d="M9561.0 0 9605.0 224C9631.0 361 9693.0 427 9782.0 427C9847.0 427 9879.0 392 9879.0 323C9879.0 305 9877.0 283 9872.0 259L9822.0 0H9874.0L9921.0 242C9945.0 368 10005.0 427 10097.0 427C10156.0 427 10194.0 398 10194.0 329C10194.0 313 10192.0 296 10188.0 275L10135.0 0H10187.0L10239.0 271C10245.0 300 10247.0 322 10247.0 341C10247.0 441 10184.0 477 10108.0 477C10031.0 477 9974.0 441 9935.0 363H9933.0C9923.0 439 9878.0 477 9801.0 477C9722.0 477 9670.0 436 9634.0 367H9632.0L9651.0 462H9599.0L9509.0 0Z" />
      <path d="M10285.0 66C10335.0 20 10400.0 -15 10486.0 -15C10573.0 -15 10634.0 21 10634.0 107C10634.0 170 10598.0 203 10551.0 235L10496.0 272C10459.0 297 10432.0 318 10432.0 357C10432.0 400 10461.0 428 10516.0 428C10558.0 428 10597.0 413 10642.0 381L10671.0 426C10626.0 456 10575.0 477 10516.0 477C10430.0 477 10377.0 432 10377.0 359C10377.0 297 10417.0 261 10463.0 230L10520.0 192C10557.0 167 10579.0 142 10579.0 106C10579.0 65 10554.0 34 10486.0 34C10421.0 34 10368.0 63 10320.0 107Z" />
      <path d="M10788.0 0 10806.0 89H10717.0L10699.0 0Z" />
    </g>
  </g>
  <g class="line-wrap line-wrap-1" clip-path="url(#clip1)">
    <g fill="currentColor" transform="translate(274.65 31.28) scale(0.030000 -0.030000)">
      <path d="M589.0 0 438.0 700H378.0L-32.0 0H34.0L147.0 197H492.0L533.0 0ZM400.0 636 481.0 249H177.0Z" />
      <path d="M1141.0 352H1139.0C1112.0 431 1039.0 477 945.0 477C797.0 477 685.0 359 685.0 204C685.0 72 768.0 -15 893.0 -15C973.0 -15 1038.0 18 1087.0 84H1089.0L1072.0 0C1050.0 -115 994.0 -164 886.0 -164C829.0 -164 774.0 -150 709.0 -120L688.0 -169C758.0 -201 817.0 -214 884.0 -214C1026.0 -214 1095.0 -152 1124.0 0L1214.0 462H1162.0ZM910.0 35C806.0 35 740.0 100 740.0 203C740.0 329 831.0 427 949.0 427C1057.0 427 1125.0 361 1125.0 258C1125.0 131 1033.0 35 910.0 35Z" />
      <path d="M1739.0 227C1744.0 251 1748.0 269 1748.0 292C1748.0 396 1681.0 477 1546.0 477C1382.0 477 1270.0 355 1270.0 195C1270.0 61 1350.0 -16 1485.0 -16C1591.0 -16 1654.0 32 1709.0 84L1674.0 123C1626.0 73 1572.0 35 1486.0 35C1382.0 35 1323.0 91 1323.0 198C1323.0 208 1324.0 217 1325.0 227ZM1543.0 429C1641.0 429 1695.0 374 1695.0 293C1695.0 283 1694.0 277 1692.0 269H1333.0C1359.0 361 1435.0 429 1543.0 429Z" />
      <path d="M1850.0 0 1890.0 206C1923.0 376 2005.0 427 2097.0 427C2174.0 427 2213.0 393 2213.0 316C2213.0 298 2211.0 274 2206.0 252L2157.0 0H2209.0L2259.0 254C2263.0 277 2267.0 306 2267.0 330C2267.0 421 2213.0 477 2112.0 477C2027.0 477 1967.0 440 1920.0 357H1918.0L1940.0 462H1888.0L1798.0 0Z" />
      <path d="M2630.0 418 2639.0 462H2529.0L2565.0 647H2513.0L2477.0 462H2381.0L2372.0 418H2469.0L2412.0 125C2410.0 114 2408.0 99 2408.0 87C2408.0 32 2443.0 -2 2501.0 -2H2533.0L2542.0 48H2513.0C2478.0 48 2461.0 68 2461.0 95C2461.0 105 2462.0 115 2464.0 126L2521.0 418Z" />
      <path d="M3912.0 -15C4011.0 -15 4088.0 12 4164.0 63L4133.0 110C4071.0 70 4007.0 41 3919.0 41C3749.0 41 3650.0 141 3650.0 307C3650.0 500 3795.0 659 4004.0 659C4095.0 659 4163.0 628 4216.0 589L4251.0 635C4187.0 684 4108.0 715 4009.0 715C3761.0 715 3591.0 539 3591.0 305C3591.0 110 3710.0 -15 3912.0 -15Z" />
      <path d="M4493.0 -15C4656.0 -15 4770.0 109 4770.0 261C4770.0 400 4678.0 477 4544.0 477C4381.0 477 4267.0 353 4267.0 201C4267.0 62 4359.0 -15 4493.0 -15ZM4498.0 36C4389.0 36 4322.0 98 4322.0 201C4322.0 320 4410.0 426 4539.0 426C4648.0 426 4715.0 364 4715.0 261C4715.0 142 4627.0 36 4498.0 36Z" />
      <path d="M5302.0 352H5300.0C5273.0 431 5200.0 477 5106.0 477C4958.0 477 4846.0 359 4846.0 204C4846.0 72 4929.0 -15 5054.0 -15C5134.0 -15 5199.0 18 5248.0 84H5250.0L5233.0 0H5285.0L5420.0 700H5368.0ZM5071.0 35C4967.0 35 4901.0 100 4901.0 203C4901.0 329 4992.0 427 5110.0 427C5218.0 427 5286.0 361 5286.0 258C5286.0 131 5194.0 35 5071.0 35Z" />
      <path d="M5909.0 227C5914.0 251 5918.0 269 5918.0 292C5918.0 396 5851.0 477 5716.0 477C5552.0 477 5440.0 355 5440.0 195C5440.0 61 5520.0 -16 5655.0 -16C5761.0 -16 5824.0 32 5879.0 84L5844.0 123C5796.0 73 5742.0 35 5656.0 35C5552.0 35 5493.0 91 5493.0 198C5493.0 208 5494.0 217 5495.0 227ZM5713.0 429C5811.0 429 5865.0 374 5865.0 293C5865.0 283 5864.0 277 5862.0 269H5503.0C5529.0 361 5605.0 429 5713.0 429Z" />
      <path d="M7112.0 0C7353.0 0 7540.0 154 7540.0 401C7540.0 590 7420.0 700 7241.0 700H7033.0L6897.0 0ZM7080.0 648H7233.0C7381.0 648 7481.0 559 7481.0 398C7481.0 180 7313.0 52 7117.0 52H6963.0Z" />
      <path d="M7800.0 -15C7880.0 -15 7945.0 18 7994.0 84H7996.0L7979.0 0H8031.0L8121.0 462H8069.0L8048.0 352H8046.0C8019.0 431 7946.0 477 7852.0 477C7704.0 477 7592.0 359 7592.0 204C7592.0 72 7675.0 -15 7800.0 -15ZM7817.0 35C7713.0 35 7647.0 100 7647.0 203C7647.0 329 7738.0 427 7856.0 427C7964.0 427 8032.0 361 8032.0 258C8032.0 131 7940.0 35 7817.0 35Z" />
      <path d="M8453.0 418 8462.0 462H8352.0L8388.0 647H8336.0L8300.0 462H8204.0L8195.0 418H8292.0L8235.0 125C8233.0 114 8231.0 99 8231.0 87C8231.0 32 8266.0 -2 8324.0 -2H8356.0L8365.0 48H8336.0C8301.0 48 8284.0 68 8284.0 95C8284.0 105 8285.0 115 8287.0 126L8344.0 418Z" />
      <path d="M8683.0 -15C8763.0 -15 8828.0 18 8877.0 84H8879.0L8862.0 0H8914.0L9004.0 462H8952.0L8931.0 352H8929.0C8902.0 431 8829.0 477 8735.0 477C8587.0 477 8475.0 359 8475.0 204C8475.0 72 8558.0 -15 8683.0 -15ZM8700.0 35C8596.0 35 8530.0 100 8530.0 203C8530.0 329 8621.0 427 8739.0 427C8847.0 427 8915.0 361 8915.0 258C8915.0 131 8823.0 35 8700.0 35Z" />
    </g>
  </g>
  <g class="line-wrap line-wrap-2" clip-path="url(#clip2)">
    <g fill="currentColor" transform="translate(120.85 31.28) scale(0.030000 -0.030000)">
      <path d="M33.0 0 283.0 592H285.0L378.0 116H428.0L700.0 592H702.0L732.0 0H790.0L751.0 700H697.0L416.0 200H414.0L322.0 700H269.0L-32.0 0Z" />
      <path d="M1093.0 -15C1173.0 -15 1238.0 18 1287.0 84H1289.0L1272.0 0H1324.0L1414.0 462H1362.0L1341.0 352H1339.0C1312.0 431 1239.0 477 1145.0 477C997.0 477 885.0 359 885.0 204C885.0 72 968.0 -15 1093.0 -15ZM1110.0 35C1006.0 35 940.0 100 940.0 203C940.0 329 1031.0 427 1149.0 427C1257.0 427 1325.0 361 1325.0 258C1325.0 131 1233.0 35 1110.0 35Z" />
      <path d="M1807.0 462 1563.0 257 1649.0 700H1597.0L1461.0 0H1513.0L1559.0 239L1758.0 0H1828.0L1619.0 246L1888.0 462Z" />
      <path d="M2388.0 227C2393.0 251 2397.0 269 2397.0 292C2397.0 396 2330.0 477 2195.0 477C2031.0 477 1919.0 355 1919.0 195C1919.0 61 1999.0 -16 2134.0 -16C2240.0 -16 2303.0 32 2358.0 84L2323.0 123C2275.0 73 2221.0 35 2135.0 35C2031.0 35 1972.0 91 1972.0 198C1972.0 208 1973.0 217 1974.0 227ZM2192.0 429C2290.0 429 2344.0 374 2344.0 293C2344.0 283 2343.0 277 2341.0 269H1982.0C2008.0 361 2084.0 429 2192.0 429Z" />
      <path d="M2877.0 690 2853.0 570H2921.0L2945.0 690ZM2805.0 0 2895.0 462H2843.0L2753.0 0Z" />
      <path d="M3409.0 352H3407.0C3380.0 431 3307.0 477 3213.0 477C3065.0 477 2953.0 359 2953.0 204C2953.0 72 3036.0 -15 3161.0 -15C3241.0 -15 3306.0 18 3355.0 84H3357.0L3340.0 0H3392.0L3527.0 700H3475.0ZM3178.0 35C3074.0 35 3008.0 100 3008.0 203C3008.0 329 3099.0 427 3217.0 427C3325.0 427 3393.0 361 3393.0 258C3393.0 131 3301.0 35 3178.0 35Z" />
      <path d="M4016.0 227C4021.0 251 4025.0 269 4025.0 292C4025.0 396 3958.0 477 3823.0 477C3659.0 477 3547.0 355 3547.0 195C3547.0 61 3627.0 -16 3762.0 -16C3868.0 -16 3931.0 32 3986.0 84L3951.0 123C3903.0 73 3849.0 35 3763.0 35C3659.0 35 3600.0 91 3600.0 198C3600.0 208 3601.0 217 3602.0 227ZM3820.0 429C3918.0 429 3972.0 374 3972.0 293C3972.0 283 3971.0 277 3969.0 269H3610.0C3636.0 361 3712.0 429 3820.0 429Z" />
      <path d="M4302.0 -15C4382.0 -15 4447.0 18 4496.0 84H4498.0L4481.0 0H4533.0L4623.0 462H4571.0L4550.0 352H4548.0C4521.0 431 4448.0 477 4354.0 477C4206.0 477 4094.0 359 4094.0 204C4094.0 72 4177.0 -15 4302.0 -15ZM4319.0 35C4215.0 35 4149.0 100 4149.0 203C4149.0 329 4240.0 427 4358.0 427C4466.0 427 4534.0 361 4534.0 258C4534.0 131 4442.0 35 4319.0 35Z" />
      <path d="M4632.0 66C4682.0 20 4747.0 -15 4833.0 -15C4920.0 -15 4981.0 21 4981.0 107C4981.0 170 4945.0 203 4898.0 235L4843.0 272C4806.0 297 4779.0 318 4779.0 357C4779.0 400 4808.0 428 4863.0 428C4905.0 428 4944.0 413 4989.0 381L5018.0 426C4973.0 456 4922.0 477 4863.0 477C4777.0 477 4724.0 432 4724.0 359C4724.0 297 4764.0 261 4810.0 230L4867.0 192C4904.0 167 4926.0 142 4926.0 106C4926.0 65 4901.0 34 4833.0 34C4768.0 34 4715.0 63 4667.0 107Z" />
      <path d="M5654.0 418 5663.0 462H5553.0L5589.0 647H5537.0L5501.0 462H5405.0L5396.0 418H5493.0L5436.0 125C5434.0 114 5432.0 99 5432.0 87C5432.0 32 5467.0 -2 5525.0 -2H5557.0L5566.0 48H5537.0C5502.0 48 5485.0 68 5485.0 95C5485.0 105 5486.0 115 5488.0 126L5545.0 418Z" />
      <path d="M5884.0 -15C5964.0 -15 6029.0 18 6078.0 84H6080.0L6063.0 0H6115.0L6205.0 462H6153.0L6132.0 352H6130.0C6103.0 431 6030.0 477 5936.0 477C5788.0 477 5676.0 359 5676.0 204C5676.0 72 5759.0 -15 5884.0 -15ZM5901.0 35C5797.0 35 5731.0 100 5731.0 203C5731.0 329 5822.0 427 5940.0 427C6048.0 427 6116.0 361 6116.0 258C6116.0 131 6024.0 35 5901.0 35Z" />
      <path d="M6295.0 0 6335.0 206C6368.0 376 6450.0 427 6542.0 427C6619.0 427 6658.0 393 6658.0 316C6658.0 298 6656.0 274 6651.0 252L6602.0 0H6654.0L6704.0 254C6708.0 277 6712.0 306 6712.0 330C6712.0 421 6658.0 477 6557.0 477C6472.0 477 6412.0 440 6365.0 357H6363.0L6385.0 462H6333.0L6243.0 0Z" />
      <path d="M7256.0 352H7254.0C7227.0 431 7154.0 477 7060.0 477C6912.0 477 6800.0 359 6800.0 204C6800.0 72 6883.0 -15 7008.0 -15C7088.0 -15 7153.0 18 7202.0 84H7204.0L7187.0 0C7165.0 -115 7109.0 -164 7001.0 -164C6944.0 -164 6889.0 -150 6824.0 -120L6803.0 -169C6873.0 -201 6932.0 -214 6999.0 -214C7141.0 -214 7210.0 -152 7239.0 0L7329.0 462H7277.0ZM7025.0 35C6921.0 35 6855.0 100 6855.0 203C6855.0 329 6946.0 427 7064.0 427C7172.0 427 7240.0 361 7240.0 258C7240.0 131 7148.0 35 7025.0 35Z" />
      <path d="M7492.0 690 7468.0 570H7536.0L7560.0 690ZM7420.0 0 7510.0 462H7458.0L7368.0 0Z" />
      <path d="M7820.0 -15C7980.0 -15 8087.0 113 8087.0 263C8087.0 397 7999.0 477 7882.0 477C7797.0 477 7727.0 435 7686.0 380H7684.0L7746.0 700H7694.0L7558.0 0H7610.0L7630.0 105H7633.0C7657.0 36 7720.0 -15 7820.0 -15ZM7814.0 35C7709.0 35 7647.0 99 7647.0 198C7647.0 320 7742.0 427 7871.0 427C7971.0 427 8032.0 362 8032.0 262C8032.0 148 7953.0 35 7814.0 35Z" />
      <path d="M8204.0 0 8340.0 700H8288.0L8152.0 0Z" />
      <path d="M8827.0 227C8832.0 251 8836.0 269 8836.0 292C8836.0 396 8769.0 477 8634.0 477C8470.0 477 8358.0 355 8358.0 195C8358.0 61 8438.0 -16 8573.0 -16C8679.0 -16 8742.0 32 8797.0 84L8762.0 123C8714.0 73 8660.0 35 8574.0 35C8470.0 35 8411.0 91 8411.0 198C8411.0 208 8412.0 217 8413.0 227ZM8631.0 429C8729.0 429 8783.0 374 8783.0 293C8783.0 283 8782.0 277 8780.0 269H8421.0C8447.0 361 8523.0 429 8631.0 429Z" />
      <path d="M8884.0 -125 8979.0 0 8996.0 89H8907.0L8890.0 0H8933.0L8853.0 -125Z" />
      <path d="M9697.0 418 9706.0 462H9596.0L9632.0 647H9580.0L9544.0 462H9448.0L9439.0 418H9536.0L9479.0 125C9477.0 114 9475.0 99 9475.0 87C9475.0 32 9510.0 -2 9568.0 -2H9600.0L9609.0 48H9580.0C9545.0 48 9528.0 68 9528.0 95C9528.0 105 9529.0 115 9531.0 126L9588.0 418Z" />
      <path d="M10187.0 227C10192.0 251 10196.0 269 10196.0 292C10196.0 396 10129.0 477 9994.0 477C9830.0 477 9718.0 355 9718.0 195C9718.0 61 9798.0 -16 9933.0 -16C10039.0 -16 10102.0 32 10157.0 84L10122.0 123C10074.0 73 10020.0 35 9934.0 35C9830.0 35 9771.0 91 9771.0 198C9771.0 208 9772.0 217 9773.0 227ZM9991.0 429C10089.0 429 10143.0 374 10143.0 293C10143.0 283 10142.0 277 10140.0 269H9781.0C9807.0 361 9883.0 429 9991.0 429Z" />
      <path d="M10217.0 66C10267.0 20 10332.0 -15 10418.0 -15C10505.0 -15 10566.0 21 10566.0 107C10566.0 170 10530.0 203 10483.0 235L10428.0 272C10391.0 297 10364.0 318 10364.0 357C10364.0 400 10393.0 428 10448.0 428C10490.0 428 10529.0 413 10574.0 381L10603.0 426C10558.0 456 10507.0 477 10448.0 477C10362.0 477 10309.0 432 10309.0 359C10309.0 297 10349.0 261 10395.0 230L10452.0 192C10489.0 167 10511.0 142 10511.0 106C10511.0 65 10486.0 34 10418.0 34C10353.0 34 10300.0 63 10252.0 107Z" />
      <path d="M10934.0 418 10943.0 462H10833.0L10869.0 647H10817.0L10781.0 462H10685.0L10676.0 418H10773.0L10716.0 125C10714.0 114 10712.0 99 10712.0 87C10712.0 32 10747.0 -2 10805.0 -2H10837.0L10846.0 48H10817.0C10782.0 48 10765.0 68 10765.0 95C10765.0 105 10766.0 115 10768.0 126L10825.0 418Z" />
      <path d="M11164.0 -15C11244.0 -15 11309.0 18 11358.0 84H11360.0L11343.0 0H11395.0L11485.0 462H11433.0L11412.0 352H11410.0C11383.0 431 11310.0 477 11216.0 477C11068.0 477 10956.0 359 10956.0 204C10956.0 72 11039.0 -15 11164.0 -15ZM11181.0 35C11077.0 35 11011.0 100 11011.0 203C11011.0 329 11102.0 427 11220.0 427C11328.0 427 11396.0 361 11396.0 258C11396.0 131 11304.0 35 11181.0 35Z" />
      <path d="M11794.0 -15C11954.0 -15 12061.0 113 12061.0 263C12061.0 397 11973.0 477 11856.0 477C11771.0 477 11701.0 435 11660.0 380H11658.0L11720.0 700H11668.0L11532.0 0H11584.0L11604.0 105H11607.0C11631.0 36 11694.0 -15 11794.0 -15ZM11788.0 35C11683.0 35 11621.0 99 11621.0 198C11621.0 320 11716.0 427 11845.0 427C11945.0 427 12006.0 362 12006.0 262C12006.0 148 11927.0 35 11788.0 35Z" />
      <path d="M12178.0 0 12314.0 700H12262.0L12126.0 0Z" />
      <path d="M12801.0 227C12806.0 251 12810.0 269 12810.0 292C12810.0 396 12743.0 477 12608.0 477C12444.0 477 12332.0 355 12332.0 195C12332.0 61 12412.0 -16 12547.0 -16C12653.0 -16 12716.0 32 12771.0 84L12736.0 123C12688.0 73 12634.0 35 12548.0 35C12444.0 35 12385.0 91 12385.0 198C12385.0 208 12386.0 217 12387.0 227ZM12605.0 429C12703.0 429 12757.0 374 12757.0 293C12757.0 283 12756.0 277 12754.0 269H12395.0C12421.0 361 12497.0 429 12605.0 429Z" />
      <path d="M12858.0 -125 12953.0 0 12970.0 89H12881.0L12864.0 0H12907.0L12827.0 -125Z" />
      <path d="M13604.0 -15C13684.0 -15 13749.0 18 13798.0 84H13800.0L13783.0 0H13835.0L13925.0 462H13873.0L13852.0 352H13850.0C13823.0 431 13750.0 477 13656.0 477C13508.0 477 13396.0 359 13396.0 204C13396.0 72 13479.0 -15 13604.0 -15ZM13621.0 35C13517.0 35 13451.0 100 13451.0 203C13451.0 329 13542.0 427 13660.0 427C13768.0 427 13836.0 361 13836.0 258C13836.0 131 13744.0 35 13621.0 35Z" />
      <path d="M14015.0 0 14055.0 206C14088.0 376 14170.0 427 14262.0 427C14339.0 427 14378.0 393 14378.0 316C14378.0 298 14376.0 274 14371.0 252L14322.0 0H14374.0L14424.0 254C14428.0 277 14432.0 306 14432.0 330C14432.0 421 14378.0 477 14277.0 477C14192.0 477 14132.0 440 14085.0 357H14083.0L14105.0 462H14053.0L13963.0 0Z" />
      <path d="M14976.0 352H14974.0C14947.0 431 14874.0 477 14780.0 477C14632.0 477 14520.0 359 14520.0 204C14520.0 72 14603.0 -15 14728.0 -15C14808.0 -15 14873.0 18 14922.0 84H14924.0L14907.0 0H14959.0L15094.0 700H15042.0ZM14745.0 35C14641.0 35 14575.0 100 14575.0 203C14575.0 329 14666.0 427 14784.0 427C14892.0 427 14960.0 361 14960.0 258C14960.0 131 14868.0 35 14745.0 35Z" />
      <path d="M15453.0 0 15497.0 227C15519.0 344 15582.0 417 15684.0 417C15691.0 417 15701.0 416 15706.0 415L15718.0 474C15711.0 475 15704.0 476 15695.0 476C15612.0 476 15553.0 427 15524.0 357H15522.0L15543.0 462H15491.0L15401.0 0Z" />
      <path d="M16199.0 227C16204.0 251 16208.0 269 16208.0 292C16208.0 396 16141.0 477 16006.0 477C15842.0 477 15730.0 355 15730.0 195C15730.0 61 15810.0 -16 15945.0 -16C16051.0 -16 16114.0 32 16169.0 84L16134.0 123C16086.0 73 16032.0 35 15946.0 35C15842.0 35 15783.0 91 15783.0 198C15783.0 208 15784.0 217 15785.0 227ZM16003.0 429C16101.0 429 16155.0 374 16155.0 293C16155.0 283 16154.0 277 16152.0 269H15793.0C15819.0 361 15895.0 429 16003.0 429Z" />
      <path d="M16435.0 -15C16527.0 -15 16585.0 39 16618.0 99H16620.0L16600.0 0H16652.0L16742.0 462H16689.0L16649.0 263C16617.0 100 16542.0 36 16448.0 36C16377.0 36 16339.0 71 16339.0 142C16339.0 158 16341.0 176 16344.0 195L16397.0 462H16343.0L16290.0 195C16285.0 168 16283.0 145 16283.0 129C16283.0 40 16337.0 -15 16435.0 -15Z" />
      <path d="M16751.0 66C16801.0 20 16866.0 -15 16952.0 -15C17039.0 -15 17100.0 21 17100.0 107C17100.0 170 17064.0 203 17017.0 235L16962.0 272C16925.0 297 16898.0 318 16898.0 357C16898.0 400 16927.0 428 16982.0 428C17024.0 428 17063.0 413 17108.0 381L17137.0 426C17092.0 456 17041.0 477 16982.0 477C16896.0 477 16843.0 432 16843.0 359C16843.0 297 16883.0 261 16929.0 230L16986.0 192C17023.0 167 17045.0 142 17045.0 106C17045.0 65 17020.0 34 16952.0 34C16887.0 34 16834.0 63 16786.0 107Z" />
      <path d="M17401.0 -15C17481.0 -15 17546.0 18 17595.0 84H17597.0L17580.0 0H17632.0L17722.0 462H17670.0L17649.0 352H17647.0C17620.0 431 17547.0 477 17453.0 477C17305.0 477 17193.0 359 17193.0 204C17193.0 72 17276.0 -15 17401.0 -15ZM17418.0 35C17314.0 35 17248.0 100 17248.0 203C17248.0 329 17339.0 427 17457.0 427C17565.0 427 17633.0 361 17633.0 258C17633.0 131 17541.0 35 17418.0 35Z" />
      <path d="M18031.0 -15C18191.0 -15 18298.0 113 18298.0 263C18298.0 397 18210.0 477 18093.0 477C18008.0 477 17938.0 435 17897.0 380H17895.0L17957.0 700H17905.0L17769.0 0H17821.0L17841.0 105H17844.0C17868.0 36 17931.0 -15 18031.0 -15ZM18025.0 35C17920.0 35 17858.0 99 17858.0 198C17858.0 320 17953.0 427 18082.0 427C18182.0 427 18243.0 362 18243.0 262C18243.0 148 18164.0 35 18025.0 35Z" />
      <path d="M18415.0 0 18551.0 700H18499.0L18363.0 0Z" />
      <path d="M19038.0 227C19043.0 251 19047.0 269 19047.0 292C19047.0 396 18980.0 477 18845.0 477C18681.0 477 18569.0 355 18569.0 195C18569.0 61 18649.0 -16 18784.0 -16C18890.0 -16 18953.0 32 19008.0 84L18973.0 123C18925.0 73 18871.0 35 18785.0 35C18681.0 35 18622.0 91 18622.0 198C18622.0 208 18623.0 217 18624.0 227ZM18842.0 429C18940.0 429 18994.0 374 18994.0 293C18994.0 283 18993.0 277 18991.0 269H18632.0C18658.0 361 18734.0 429 18842.0 429Z" />
      <path d="M19177.0 0 19195.0 89H19106.0L19088.0 0Z" />
    </g>
  </g>
</svg>
