<svg xmlns="http://www.w3.org/2000/svg" width="820" height="44" viewBox="0 0 820 44" role="img" aria-labelledby="title">
  <title id="title">Build from real problems. Agent   Code   Data Make ideas tangible, testable, and reusable.</title>
  <desc>GT Eesti Text Regular Italic typing intro.</desc>
  <defs>
    <style>
    svg { color: #000000; }
    @media (prefers-color-scheme: dark) {
      svg { color: #EDEDED; }
    }
    .clip-rect {
      animation-duration: 9s;
      animation-timing-function: steps(24, end);
      animation-iteration-count: infinite;
    }
    .clip-rect-0 { animation-name: type0; }
    .clip-rect-1 { animation-name: type1; }
    .clip-rect-2 { animation-name: type2; }
    .line-wrap {
      opacity: 0;
      animation-duration: 9s;
      animation-timing-function: linear;
      animation-iteration-count: infinite;
    }
    .line-wrap-0 { animation-name: show0; }
    .line-wrap-1 { animation-name: show1; }
    .line-wrap-2 { animation-name: show2; }
    @keyframes show0 {
      0%, 32.5%, 100% { opacity: 0; }
      1%, 30% { opacity: 0.5; }
    }
    @keyframes show1 {
      0%, 33%, 65.5%, 100% { opacity: 0; }
      34%, 63% { opacity: 0.5; }
    }
    @keyframes show2 {
      0%, 66%, 98.5%, 100% { opacity: 0; }
      67%, 96% { opacity: 0.5; }
    }
    @keyframes type0 {
      0% { width: 0; }
      15% { width: 308.9px; }
      30% { width: 308.9px; }
      32.5%, 100% { width: 0; }
    }
    @keyframes type1 {
      0%, 33% { width: 0; }
      48% { width: 248.1px; }
      63% { width: 248.1px; }
      65.5%, 100% { width: 0; }
    }
    @keyframes type2 {
      0%, 66% { width: 0; }
      81% { width: 536.1px; }
      96% { width: 536.1px; }
      98.5%, 100% { width: 0; }
    }
    </style>
    <clipPath id="clip0">
      <rect class="clip-rect clip-rect-0" x="255.55" y="0" width="0" height="44" />
    </clipPath>
    <clipPath id="clip1">
      <rect class="clip-rect clip-rect-1" x="285.96" y="0" width="0" height="44" />
    </clipPath>
    <clipPath id="clip2">
      <rect class="clip-rect clip-rect-2" x="141.94" y="0" width="0" height="44" />
    </clipPath>
  </defs>
  <g class="line-wrap line-wrap-0" clip-path="url(#clip0)">
    <g fill="currentColor" transform="translate(255.55 29.92) scale(0.028000 -0.028000)">
      <path d="M312.0 0C471.0 0 570.0 80 570.0 209C570.0 287 533.0 341 470.0 355C445.0 360 432.0 362 412.0 362L413.0 366C427.0 366 454.0 371 473.0 377C549.0 403 592.0 464 592.0 543C592.0 637 520.0 700 415.0 700H166.0L30.0 0ZM210.0 407C214.0 414 216.0 423 218.0 432L246.0 578C248.0 595 249.0 601 248.0 604L251.0 606C257.0 603 263.0 602 275.0 602H366.0C441.0 602 480.0 571 480.0 513C480.0 450 431.0 409 356.0 409H238.0C226.0 409 219.0 408 212.0 405ZM150.0 96C152.0 99 156.0 111 158.0 122L190.0 290C193.0 308 193.0 312 192.0 315L195.0 317C201.0 314 207.0 313 219.0 313H327.0C415.0 313 461.0 277 461.0 209C461.0 137 410.0 98 315.0 98H177.0C165.0 98 159.0 97 151.0 94Z" />
      <path d="M1038.0 462 995.0 239C975.0 134 926.0 78 854.0 78C799.0 78 768.0 109 768.0 164C768.0 178 770.0 192 773.0 209L823.0 462H725.0L674.0 206C668.0 172 666.0 151 666.0 132C666.0 39 718.0 -15 808.0 -15C879.0 -15 928.0 18 974.0 97L978.0 96C966.0 71 956.0 39 948.0 0H1045.0L1135.0 462Z" />
      <path d="M1385.0 568 1411.0 700H1301.0L1275.0 568ZM1260.0 462 1170.0 0H1268.0L1358.0 462Z" />
      <path d="M1496.0 0 1635.0 715H1537.0L1398.0 0Z" />
      <path d="M1836.0 -15C1911.0 -15 1976.0 26 2007.0 92L2010.0 91C2002.0 65 1993.0 30 1987.0 0H2082.0L2221.0 715H2123.0L2074.0 462C2062.0 401 2059.0 381 2061.0 363L2057.0 362C2035.0 434 1972.0 477 1887.0 477C1745.0 477 1637.0 361 1637.0 207C1637.0 77 1719.0 -15 1836.0 -15ZM1869.0 77C1789.0 77 1739.0 127 1739.0 207C1739.0 314 1806.0 385 1907.0 385C1988.0 385 2037.0 336 2037.0 255C2037.0 153 1965.0 77 1869.0 77Z" />
      <path d="M2846.0 709C2746.0 709 2679.0 649 2658.0 542L2648.0 487C2646.0 475 2645.0 463 2646.0 456L2644.0 454C2637.0 460 2627.0 462 2603.0 462H2562.0L2544.0 368H2585.0C2609.0 368 2619.0 370 2629.0 376L2630.0 374C2625.0 361 2619.0 339 2616.0 320L2554.0 0H2652.0L2714.0 320C2716.0 332 2721.0 357 2720.0 374L2724.0 376C2729.0 370 2739.0 368 2763.0 368H2815.0L2833.0 462H2781.0C2758.0 462 2747.0 460 2739.0 454L2736.0 456C2741.0 465 2743.0 477 2746.0 489L2753.0 523C2766.0 588 2799.0 618 2858.0 618H2865.0L2882.0 709Z" />
      <path d="M2933.0 0 2972.0 203C2992.0 306 3052.0 364 3137.0 364C3150.0 364 3158.0 364 3175.0 362L3197.0 475C3192.0 476 3189.0 476 3181.0 476C3087.0 476 3032.0 436 2992.0 339L2987.0 340C3001.0 376 3015.0 425 3023.0 462H2925.0L2835.0 0Z" />
      <path d="M3422.0 -15C3580.0 -15 3697.0 101 3697.0 259C3697.0 392 3609.0 477 3470.0 477C3312.0 477 3195.0 361 3195.0 203C3195.0 70 3283.0 -15 3422.0 -15ZM3431.0 81C3347.0 81 3297.0 129 3297.0 209C3297.0 309 3365.0 381 3461.0 381C3545.0 381 3595.0 333 3595.0 253C3595.0 153 3527.0 81 3431.0 81Z" />
      <path d="M3845.0 0 3890.0 232C3910.0 335 3951.0 384 4017.0 384C4068.0 384 4097.0 354 4097.0 300C4097.0 286 4096.0 273 4093.0 260L4042.0 0H4137.0L4182.0 232C4203.0 338 4241.0 384 4308.0 384C4360.0 384 4388.0 355 4388.0 300C4388.0 291 4387.0 279 4383.0 257L4333.0 0H4431.0L4484.0 264C4489.0 285 4491.0 306 4491.0 330C4491.0 423 4442.0 477 4356.0 477C4286.0 477 4233.0 439 4200.0 366H4196.0C4187.0 438 4142.0 477 4068.0 477C3997.0 477 3947.0 441 3908.0 361L3905.0 363C3917.0 391 3928.0 427 3935.0 462H3837.0L3747.0 0Z" />
      <path d="M4951.0 0 4990.0 203C5010.0 306 5070.0 364 5155.0 364C5168.0 364 5176.0 364 5193.0 362L5215.0 475C5210.0 476 5207.0 476 5199.0 476C5105.0 476 5050.0 436 5010.0 339L5005.0 340C5019.0 376 5033.0 425 5041.0 462H4943.0L4853.0 0Z" />
      <path d="M5444.0 -15C5528.0 -15 5589.0 11 5660.0 77L5602.0 147C5547.0 97 5502.0 77 5443.0 77C5358.0 77 5310.0 120 5310.0 195V210L5308.0 218L5311.0 220C5320.0 214 5336.0 212 5370.0 212H5682.0C5689.0 245 5692.0 263 5692.0 286C5692.0 404 5613.0 477 5484.0 477C5327.0 477 5214.0 363 5214.0 203C5214.0 67 5301.0 -15 5444.0 -15ZM5320.0 278C5346.0 354 5399.0 393 5476.0 393C5554.0 393 5595.0 355 5595.0 284C5595.0 282 5595.0 281 5596.0 279L5593.0 277C5586.0 284 5575.0 286 5540.0 286H5370.0C5346.0 286 5331.0 283 5321.0 276Z" />
      <path d="M5900.0 -14C5962.0 -14 6006.0 12 6047.0 73L6052.0 70C6038.0 50 6032.0 34 6026.0 0H6124.0L6179.0 286C6182.0 304 6184.0 323 6184.0 337C6184.0 428 6125.0 476 6012.0 476C5968.0 476 5891.0 467 5837.0 456L5855.0 367C5908.0 379 5966.0 386 6000.0 386C6058.0 386 6091.0 363 6091.0 322C6091.0 313 6090.0 305 6086.0 284C6081.0 254 6080.0 231 6084.0 212L6081.0 211C6053.0 274 5995.0 309 5919.0 309C5806.0 309 5736.0 244 5736.0 141C5736.0 50 5803.0 -14 5900.0 -14ZM5936.0 65C5876.0 65 5839.0 95 5839.0 142C5839.0 196 5877.0 228 5940.0 228C6004.0 228 6053.0 193 6053.0 148C6053.0 102 6001.0 65 5936.0 65Z" />
      <path d="M6342.0 0 6481.0 715H6383.0L6244.0 0Z" />
      <path d="M6831.0 -200 6870.0 0C6878.0 42 6883.0 79 6883.0 99L6887.0 100C6909.0 28 6972.0 -15 7058.0 -15C7200.0 -15 7308.0 101 7308.0 255C7308.0 385 7226.0 477 7109.0 477C7036.0 477 6971.0 438 6939.0 376L6936.0 377C6945.0 399 6952.0 424 6960.0 462H6862.0L6733.0 -200ZM7038.0 77C6958.0 77 6908.0 127 6908.0 207C6908.0 309 6980.0 385 7076.0 385C7157.0 385 7206.0 336 7206.0 255C7206.0 153 7134.0 77 7038.0 77Z" />
      <path d="M7457.0 0 7496.0 203C7516.0 306 7576.0 364 7661.0 364C7674.0 364 7682.0 364 7699.0 362L7721.0 475C7716.0 476 7713.0 476 7705.0 476C7611.0 476 7556.0 436 7516.0 339L7511.0 340C7525.0 376 7539.0 425 7547.0 462H7449.0L7359.0 0Z" />
      <path d="M7946.0 -15C8104.0 -15 8221.0 101 8221.0 259C8221.0 392 8133.0 477 7994.0 477C7836.0 477 7719.0 361 7719.0 203C7719.0 70 7807.0 -15 7946.0 -15ZM7955.0 81C7871.0 81 7821.0 129 7821.0 209C7821.0 309 7889.0 381 7985.0 381C8069.0 381 8119.0 333 8119.0 253C8119.0 153 8051.0 81 7955.0 81Z" />
      <path d="M8556.0 -15C8698.0 -15 8806.0 101 8806.0 255C8806.0 385 8724.0 477 8607.0 477C8534.0 477 8469.0 438 8437.0 376L8434.0 377C8443.0 400 8453.0 435 8461.0 473L8508.0 715H8410.0L8271.0 0H8366.0C8377.0 56 8381.0 80 8381.0 99L8385.0 100C8407.0 28 8470.0 -15 8556.0 -15ZM8536.0 77C8456.0 77 8406.0 127 8406.0 207C8406.0 309 8478.0 385 8574.0 385C8655.0 385 8704.0 336 8704.0 255C8704.0 153 8632.0 77 8536.0 77Z" />
      <path d="M8955.0 0 9094.0 715H8996.0L8857.0 0Z" />
      <path d="M9326.0 -15C9410.0 -15 9471.0 11 9542.0 77L9484.0 147C9429.0 97 9384.0 77 9325.0 77C9240.0 77 9192.0 120 9192.0 195V210L9190.0 218L9193.0 220C9202.0 214 9218.0 212 9252.0 212H9564.0C9571.0 245 9574.0 263 9574.0 286C9574.0 404 9495.0 477 9366.0 477C9209.0 477 9096.0 363 9096.0 203C9096.0 67 9183.0 -15 9326.0 -15ZM9202.0 278C9228.0 354 9281.0 393 9358.0 393C9436.0 393 9477.0 355 9477.0 284C9477.0 282 9477.0 281 9478.0 279L9475.0 277C9468.0 284 9457.0 286 9422.0 286H9252.0C9228.0 286 9213.0 283 9203.0 276Z" />
      <path d="M9720.0 0 9765.0 232C9785.0 335 9826.0 384 9892.0 384C9943.0 384 9972.0 354 9972.0 300C9972.0 286 9971.0 273 9968.0 260L9917.0 0H10012.0L10057.0 232C10078.0 338 10116.0 384 10183.0 384C10235.0 384 10263.0 355 10263.0 300C10263.0 291 10262.0 279 10258.0 257L10208.0 0H10306.0L10359.0 264C10364.0 285 10366.0 306 10366.0 330C10366.0 423 10317.0 477 10231.0 477C10161.0 477 10108.0 439 10075.0 366H10071.0C10062.0 438 10017.0 477 9943.0 477C9872.0 477 9822.0 441 9783.0 361L9780.0 363C9792.0 391 9803.0 427 9810.0 462H9712.0L9622.0 0Z" />
      <path d="M10395.0 61C10447.0 13 10521.0 -15 10596.0 -15C10699.0 -15 10758.0 34 10758.0 121C10758.0 171 10735.0 209 10684.0 246L10628.0 285C10591.0 312 10582.0 323 10582.0 343C10582.0 370 10602.0 386 10637.0 386C10668.0 386 10705.0 372 10747.0 345L10796.0 424C10743.0 459 10686.0 477 10630.0 477C10539.0 477 10482.0 426 10482.0 345C10482.0 297 10507.0 255 10556.0 220L10620.0 174C10648.0 153 10657.0 140 10657.0 122C10657.0 94 10633.0 76 10595.0 76C10549.0 76 10499.0 97 10451.0 137Z" />
      <path d="M10932.0 0 10956.0 124H10842.0L10818.0 0Z" />
    </g>
  </g>
  <g class="line-wrap line-wrap-1" clip-path="url(#clip1)">
    <g fill="currentColor" transform="translate(285.96 29.92) scale(0.028000 -0.028000)">
      <path d="M92.0 0 207.0 184H486.0L534.0 0H641.0L447.0 715H437.0L-35.0 0ZM255.0 272C265.0 282 279.0 298 298.0 329L371.0 450C392.0 484 406.0 513 410.0 530H416.0C414.0 513 417.0 484 424.0 450L450.0 329C457.0 298 465.0 282 471.0 272L470.0 271C460.0 272 444.0 273 413.0 273H312.0C282.0 273 265.0 272 256.0 271Z" />
      <path d="M908.0 -215C1057.0 -215 1145.0 -143 1172.0 1L1261.0 462H1164.0C1152.0 401 1149.0 381 1151.0 363L1147.0 362C1125.0 435 1063.0 477 977.0 477C835.0 477 727.0 360 727.0 207C727.0 77 809.0 -15 925.0 -15C1001.0 -15 1066.0 25 1097.0 92L1100.0 91C1089.0 62 1085.0 47 1076.0 2C1060.0 -77 1002.0 -121 913.0 -121C854.0 -121 799.0 -102 747.0 -65L684.0 -149C738.0 -191 820.0 -215 908.0 -215ZM959.0 77C879.0 77 829.0 127 829.0 207C829.0 309 901.0 385 997.0 385C1078.0 385 1127.0 336 1127.0 255C1127.0 153 1055.0 77 959.0 77Z" />
      <path d="M1538.0 -15C1622.0 -15 1683.0 11 1754.0 77L1696.0 147C1641.0 97 1596.0 77 1537.0 77C1452.0 77 1404.0 120 1404.0 195V210L1402.0 218L1405.0 220C1414.0 214 1430.0 212 1464.0 212H1776.0C1783.0 245 1786.0 263 1786.0 286C1786.0 404 1707.0 477 1578.0 477C1421.0 477 1308.0 363 1308.0 203C1308.0 67 1395.0 -15 1538.0 -15ZM1414.0 278C1440.0 354 1493.0 393 1570.0 393C1648.0 393 1689.0 355 1689.0 284C1689.0 282 1689.0 281 1690.0 279L1687.0 277C1680.0 284 1669.0 286 1634.0 286H1464.0C1440.0 286 1425.0 283 1415.0 276Z" />
      <path d="M1932.0 0 1975.0 222C1997.0 334 2044.0 388 2121.0 388C2181.0 388 2214.0 356 2214.0 298C2214.0 283 2213.0 270 2209.0 253L2160.0 0H2258.0L2308.0 251C2316.0 290 2318.0 309 2318.0 330C2318.0 425 2267.0 477 2172.0 477C2092.0 477 2036.0 439 1995.0 355L1991.0 356C2007.0 389 2015.0 415 2020.0 451L2022.0 462H1924.0L1834.0 0Z" />
      <path d="M2649.0 709 2544.0 642 2518.0 509C2514.0 489 2512.0 474 2512.0 456L2509.0 454C2503.0 460 2493.0 462 2469.0 462H2429.0L2411.0 368H2451.0C2475.0 368 2485.0 370 2494.0 376L2496.0 374C2489.0 357 2486.0 342 2482.0 320L2420.0 0H2518.0L2580.0 320C2584.0 342 2587.0 357 2586.0 374L2590.0 376C2596.0 370 2605.0 368 2629.0 368H2675.0L2693.0 462H2647.0C2624.0 462 2614.0 460 2605.0 454L2602.0 456C2610.0 474 2612.0 489 2616.0 509L2655.0 709Z" />
      <path d="M3961.0 -15C4046.0 -15 4123.0 9 4198.0 59L4142.0 146C4082.0 107 4030.0 90 3969.0 90C3831.0 90 3745.0 177 3745.0 316C3745.0 485 3868.0 610 4034.0 610C4099.0 610 4161.0 589 4218.0 547L4283.0 635C4216.0 689 4139.0 715 4046.0 715C3805.0 715 3632.0 547 3632.0 312C3632.0 115 3762.0 -15 3961.0 -15Z" />
      <path d="M4513.0 -15C4671.0 -15 4788.0 101 4788.0 259C4788.0 392 4700.0 477 4561.0 477C4403.0 477 4286.0 361 4286.0 203C4286.0 70 4374.0 -15 4513.0 -15ZM4522.0 81C4438.0 81 4388.0 129 4388.0 209C4388.0 309 4456.0 381 4552.0 381C4636.0 381 4686.0 333 4686.0 253C4686.0 153 4618.0 81 4522.0 81Z" />
      <path d="M5048.0 -15C5123.0 -15 5188.0 26 5219.0 92L5222.0 91C5214.0 65 5205.0 30 5199.0 0H5294.0L5433.0 715H5335.0L5286.0 462C5274.0 401 5271.0 381 5273.0 363L5269.0 362C5247.0 434 5184.0 477 5099.0 477C4957.0 477 4849.0 361 4849.0 207C4849.0 77 4931.0 -15 5048.0 -15ZM5081.0 77C5001.0 77 4951.0 127 4951.0 207C4951.0 314 5018.0 385 5119.0 385C5200.0 385 5249.0 336 5249.0 255C5249.0 153 5177.0 77 5081.0 77Z" />
      <path d="M5665.0 -15C5749.0 -15 5810.0 11 5881.0 77L5823.0 147C5768.0 97 5723.0 77 5664.0 77C5579.0 77 5531.0 120 5531.0 195V210L5529.0 218L5532.0 220C5541.0 214 5557.0 212 5591.0 212H5903.0C5910.0 245 5913.0 263 5913.0 286C5913.0 404 5834.0 477 5705.0 477C5548.0 477 5435.0 363 5435.0 203C5435.0 67 5522.0 -15 5665.0 -15ZM5541.0 278C5567.0 354 5620.0 393 5697.0 393C5775.0 393 5816.0 355 5816.0 284C5816.0 282 5816.0 281 5817.0 279L5814.0 277C5807.0 284 5796.0 286 5761.0 286H5591.0C5567.0 286 5552.0 283 5542.0 276Z" />
      <path d="M7082.0 0C7354.0 0 7526.0 152 7526.0 392C7526.0 582 7408.0 700 7218.0 700H7007.0L6871.0 0ZM6991.0 96C6994.0 101 6996.0 107 6999.0 121L7087.0 579C7089.0 587 7090.0 596 7089.0 604L7092.0 606C7098.0 603 7104.0 602 7116.0 602H7210.0C7338.0 602 7415.0 524 7415.0 393C7415.0 219 7292.0 98 7114.0 98H7018.0C7006.0 98 7000.0 97 6992.0 94Z" />
      <path d="M7718.0 -14C7780.0 -14 7824.0 12 7865.0 73L7870.0 70C7856.0 50 7850.0 34 7844.0 0H7942.0L7997.0 286C8000.0 304 8002.0 323 8002.0 337C8002.0 428 7943.0 476 7830.0 476C7786.0 476 7709.0 467 7655.0 456L7673.0 367C7726.0 379 7784.0 386 7818.0 386C7876.0 386 7909.0 363 7909.0 322C7909.0 313 7908.0 305 7904.0 284C7899.0 254 7898.0 231 7902.0 212L7899.0 211C7871.0 274 7813.0 309 7737.0 309C7624.0 309 7554.0 244 7554.0 141C7554.0 50 7621.0 -14 7718.0 -14ZM7754.0 65C7694.0 65 7657.0 95 7657.0 142C7657.0 196 7695.0 228 7758.0 228C7822.0 228 7871.0 193 7871.0 148C7871.0 102 7819.0 65 7754.0 65Z" />
      <path d="M8332.0 709 8227.0 642 8201.0 509C8197.0 489 8195.0 474 8195.0 456L8192.0 454C8186.0 460 8176.0 462 8152.0 462H8112.0L8094.0 368H8134.0C8158.0 368 8168.0 370 8177.0 376L8179.0 374C8172.0 357 8169.0 342 8165.0 320L8103.0 0H8201.0L8263.0 320C8267.0 342 8270.0 357 8269.0 374L8273.0 376C8279.0 370 8288.0 368 8312.0 368H8358.0L8376.0 462H8330.0C8307.0 462 8297.0 460 8288.0 454L8285.0 456C8293.0 474 8295.0 489 8299.0 509L8338.0 709Z" />
      <path d="M8536.0 -14C8598.0 -14 8642.0 12 8683.0 73L8688.0 70C8674.0 50 8668.0 34 8662.0 0H8760.0L8815.0 286C8818.0 304 8820.0 323 8820.0 337C8820.0 428 8761.0 476 8648.0 476C8604.0 476 8527.0 467 8473.0 456L8491.0 367C8544.0 379 8602.0 386 8636.0 386C8694.0 386 8727.0 363 8727.0 322C8727.0 313 8726.0 305 8722.0 284C8717.0 254 8716.0 231 8720.0 212L8717.0 211C8689.0 274 8631.0 309 8555.0 309C8442.0 309 8372.0 244 8372.0 141C8372.0 50 8439.0 -14 8536.0 -14ZM8572.0 65C8512.0 65 8475.0 95 8475.0 142C8475.0 196 8513.0 228 8576.0 228C8640.0 228 8689.0 193 8689.0 148C8689.0 102 8637.0 65 8572.0 65Z" />
    </g>
  </g>
  <g class="line-wrap line-wrap-2" clip-path="url(#clip2)">
    <g fill="currentColor" transform="translate(141.94 29.92) scale(0.028000 -0.028000)">
      <path d="M409.0 -7 637.0 361C673.0 418 680.0 444 692.0 473H695.0C691.0 448 685.0 411 691.0 360L735.0 0H833.0L751.0 710H735.0L468.0 270C457.0 251 444.0 222 435.0 189H431.0C433.0 222 433.0 249 428.0 270L327.0 710H312.0L-35.0 0H83.0L256.0 360C279.0 407 287.0 450 293.0 473H296.0C296.0 444 294.0 418 308.0 361L398.0 -7Z" />
      <path d="M1068.0 -14C1130.0 -14 1174.0 12 1215.0 73L1220.0 70C1206.0 50 1200.0 34 1194.0 0H1292.0L1347.0 286C1350.0 304 1352.0 323 1352.0 337C1352.0 428 1293.0 476 1180.0 476C1136.0 476 1059.0 467 1005.0 456L1023.0 367C1076.0 379 1134.0 386 1168.0 386C1226.0 386 1259.0 363 1259.0 322C1259.0 313 1258.0 305 1254.0 284C1249.0 254 1248.0 231 1252.0 212L1249.0 211C1221.0 274 1163.0 309 1087.0 309C974.0 309 904.0 244 904.0 141C904.0 50 971.0 -14 1068.0 -14ZM1104.0 65C1044.0 65 1007.0 95 1007.0 142C1007.0 196 1045.0 228 1108.0 228C1172.0 228 1221.0 193 1221.0 148C1221.0 102 1169.0 65 1104.0 65Z" />
      <path d="M1551.0 715 1412.0 0H1510.0L1538.0 144C1545.0 182 1549.0 211 1547.0 233L1551.0 235L1705.0 0H1826.0L1682.0 204C1666.0 226 1656.0 233 1647.0 238L1648.0 241C1659.0 247 1671.0 254 1700.0 280L1900.0 462H1766.0L1555.0 258L1552.0 259C1563.0 282 1571.0 312 1578.0 350L1649.0 715Z" />
      <path d="M2132.0 -15C2216.0 -15 2277.0 11 2348.0 77L2290.0 147C2235.0 97 2190.0 77 2131.0 77C2046.0 77 1998.0 120 1998.0 195V210L1996.0 218L1999.0 220C2008.0 214 2024.0 212 2058.0 212H2370.0C2377.0 245 2380.0 263 2380.0 286C2380.0 404 2301.0 477 2172.0 477C2015.0 477 1902.0 363 1902.0 203C1902.0 67 1989.0 -15 2132.0 -15ZM2008.0 278C2034.0 354 2087.0 393 2164.0 393C2242.0 393 2283.0 355 2283.0 284C2283.0 282 2283.0 281 2284.0 279L2281.0 277C2274.0 284 2263.0 286 2228.0 286H2058.0C2034.0 286 2019.0 283 2009.0 276Z" />
      <path d="M2943.0 568 2969.0 700H2859.0L2833.0 568ZM2818.0 462 2728.0 0H2826.0L2916.0 462Z" />
      <path d="M3166.0 -15C3241.0 -15 3306.0 26 3337.0 92L3340.0 91C3332.0 65 3323.0 30 3317.0 0H3412.0L3551.0 715H3453.0L3404.0 462C3392.0 401 3389.0 381 3391.0 363L3387.0 362C3365.0 434 3302.0 477 3217.0 477C3075.0 477 2967.0 361 2967.0 207C2967.0 77 3049.0 -15 3166.0 -15ZM3199.0 77C3119.0 77 3069.0 127 3069.0 207C3069.0 314 3136.0 385 3237.0 385C3318.0 385 3367.0 336 3367.0 255C3367.0 153 3295.0 77 3199.0 77Z" />
      <path d="M3783.0 -15C3867.0 -15 3928.0 11 3999.0 77L3941.0 147C3886.0 97 3841.0 77 3782.0 77C3697.0 77 3649.0 120 3649.0 195V210L3647.0 218L3650.0 220C3659.0 214 3675.0 212 3709.0 212H4021.0C4028.0 245 4031.0 263 4031.0 286C4031.0 404 3952.0 477 3823.0 477C3666.0 477 3553.0 363 3553.0 203C3553.0 67 3640.0 -15 3783.0 -15ZM3659.0 278C3685.0 354 3738.0 393 3815.0 393C3893.0 393 3934.0 355 3934.0 284C3934.0 282 3934.0 281 3935.0 279L3932.0 277C3925.0 284 3914.0 286 3879.0 286H3709.0C3685.0 286 3670.0 283 3660.0 276Z" />
      <path d="M4239.0 -14C4301.0 -14 4345.0 12 4386.0 73L4391.0 70C4377.0 50 4371.0 34 4365.0 0H4463.0L4518.0 286C4521.0 304 4523.0 323 4523.0 337C4523.0 428 4464.0 476 4351.0 476C4307.0 476 4230.0 467 4176.0 456L4194.0 367C4247.0 379 4305.0 386 4339.0 386C4397.0 386 4430.0 363 4430.0 322C4430.0 313 4429.0 305 4425.0 284C4420.0 254 4419.0 231 4423.0 212L4420.0 211C4392.0 274 4334.0 309 4258.0 309C4145.0 309 4075.0 244 4075.0 141C4075.0 50 4142.0 -14 4239.0 -14ZM4275.0 65C4215.0 65 4178.0 95 4178.0 142C4178.0 196 4216.0 228 4279.0 228C4343.0 228 4392.0 193 4392.0 148C4392.0 102 4340.0 65 4275.0 65Z" />
      <path d="M4550.0 61C4602.0 13 4676.0 -15 4751.0 -15C4854.0 -15 4913.0 34 4913.0 121C4913.0 171 4890.0 209 4839.0 246L4783.0 285C4746.0 312 4737.0 323 4737.0 343C4737.0 370 4757.0 386 4792.0 386C4823.0 386 4860.0 372 4902.0 345L4951.0 424C4898.0 459 4841.0 477 4785.0 477C4694.0 477 4637.0 426 4637.0 345C4637.0 297 4662.0 255 4711.0 220L4775.0 174C4803.0 153 4812.0 140 4812.0 122C4812.0 94 4788.0 76 4750.0 76C4704.0 76 4654.0 97 4606.0 137Z" />
      <path d="M5553.0 709 5448.0 642 5422.0 509C5418.0 489 5416.0 474 5416.0 456L5413.0 454C5407.0 460 5397.0 462 5373.0 462H5333.0L5315.0 368H5355.0C5379.0 368 5389.0 370 5398.0 376L5400.0 374C5393.0 357 5390.0 342 5386.0 320L5324.0 0H5422.0L5484.0 320C5488.0 342 5491.0 357 5490.0 374L5494.0 376C5500.0 370 5509.0 368 5533.0 368H5579.0L5597.0 462H5551.0C5528.0 462 5518.0 460 5509.0 454L5506.0 456C5514.0 474 5516.0 489 5520.0 509L5559.0 709Z" />
      <path d="M5757.0 -14C5819.0 -14 5863.0 12 5904.0 73L5909.0 70C5895.0 50 5889.0 34 5883.0 0H5981.0L6036.0 286C6039.0 304 6041.0 323 6041.0 337C6041.0 428 5982.0 476 5869.0 476C5825.0 476 5748.0 467 5694.0 456L5712.0 367C5765.0 379 5823.0 386 5857.0 386C5915.0 386 5948.0 363 5948.0 322C5948.0 313 5947.0 305 5943.0 284C5938.0 254 5937.0 231 5941.0 212L5938.0 211C5910.0 274 5852.0 309 5776.0 309C5663.0 309 5593.0 244 5593.0 141C5593.0 50 5660.0 -14 5757.0 -14ZM5793.0 65C5733.0 65 5696.0 95 5696.0 142C5696.0 196 5734.0 228 5797.0 228C5861.0 228 5910.0 193 5910.0 148C5910.0 102 5858.0 65 5793.0 65Z" />
      <path d="M6199.0 0 6242.0 222C6264.0 334 6311.0 388 6388.0 388C6448.0 388 6481.0 356 6481.0 298C6481.0 283 6480.0 270 6476.0 253L6427.0 0H6525.0L6575.0 251C6583.0 290 6585.0 309 6585.0 330C6585.0 425 6534.0 477 6439.0 477C6359.0 477 6303.0 439 6262.0 355L6258.0 356C6274.0 389 6282.0 415 6287.0 451L6289.0 462H6191.0L6101.0 0Z" />
      <path d="M6838.0 -215C6987.0 -215 7075.0 -143 7102.0 1L7191.0 462H7094.0C7082.0 401 7079.0 381 7081.0 363L7077.0 362C7055.0 435 6993.0 477 6907.0 477C6765.0 477 6657.0 360 6657.0 207C6657.0 77 6739.0 -15 6855.0 -15C6931.0 -15 6996.0 25 7027.0 92L7030.0 91C7019.0 62 7015.0 47 7006.0 2C6990.0 -77 6932.0 -121 6843.0 -121C6784.0 -121 6729.0 -102 6677.0 -65L6614.0 -149C6668.0 -191 6750.0 -215 6838.0 -215ZM6889.0 77C6809.0 77 6759.0 127 6759.0 207C6759.0 309 6831.0 385 6927.0 385C7008.0 385 7057.0 336 7057.0 255C7057.0 153 6985.0 77 6889.0 77Z" />
      <path d="M7442.0 568 7468.0 700H7358.0L7332.0 568ZM7317.0 462 7227.0 0H7325.0L7415.0 462Z" />
      <path d="M7740.0 -15C7882.0 -15 7990.0 101 7990.0 255C7990.0 385 7908.0 477 7791.0 477C7718.0 477 7653.0 438 7621.0 376L7618.0 377C7627.0 400 7637.0 435 7645.0 473L7692.0 715H7594.0L7455.0 0H7550.0C7561.0 56 7565.0 80 7565.0 99L7569.0 100C7591.0 28 7654.0 -15 7740.0 -15ZM7720.0 77C7640.0 77 7590.0 127 7590.0 207C7590.0 309 7662.0 385 7758.0 385C7839.0 385 7888.0 336 7888.0 255C7888.0 153 7816.0 77 7720.0 77Z" />
      <path d="M8139.0 0 8278.0 715H8180.0L8041.0 0Z" />
      <path d="M8510.0 -15C8594.0 -15 8655.0 11 8726.0 77L8668.0 147C8613.0 97 8568.0 77 8509.0 77C8424.0 77 8376.0 120 8376.0 195V210L8374.0 218L8377.0 220C8386.0 214 8402.0 212 8436.0 212H8748.0C8755.0 245 8758.0 263 8758.0 286C8758.0 404 8679.0 477 8550.0 477C8393.0 477 8280.0 363 8280.0 203C8280.0 67 8367.0 -15 8510.0 -15ZM8386.0 278C8412.0 354 8465.0 393 8542.0 393C8620.0 393 8661.0 355 8661.0 284C8661.0 282 8661.0 281 8662.0 279L8659.0 277C8652.0 284 8641.0 286 8606.0 286H8436.0C8412.0 286 8397.0 283 8387.0 276Z" />
      <path d="M8818.0 -167 8963.0 103H8850.0L8764.0 -167Z" />
      <path d="M9633.0 709 9528.0 642 9502.0 509C9498.0 489 9496.0 474 9496.0 456L9493.0 454C9487.0 460 9477.0 462 9453.0 462H9413.0L9395.0 368H9435.0C9459.0 368 9469.0 370 9478.0 376L9480.0 374C9473.0 357 9470.0 342 9466.0 320L9404.0 0H9502.0L9564.0 320C9568.0 342 9571.0 357 9570.0 374L9574.0 376C9580.0 370 9589.0 368 9613.0 368H9659.0L9677.0 462H9631.0C9608.0 462 9598.0 460 9589.0 454L9586.0 456C9594.0 474 9596.0 489 9600.0 509L9639.0 709Z" />
      <path d="M9918.0 -15C10002.0 -15 10063.0 11 10134.0 77L10076.0 147C10021.0 97 9976.0 77 9917.0 77C9832.0 77 9784.0 120 9784.0 195V210L9782.0 218L9785.0 220C9794.0 214 9810.0 212 9844.0 212H10156.0C10163.0 245 10166.0 263 10166.0 286C10166.0 404 10087.0 477 9958.0 477C9801.0 477 9688.0 363 9688.0 203C9688.0 67 9775.0 -15 9918.0 -15ZM9794.0 278C9820.0 354 9873.0 393 9950.0 393C10028.0 393 10069.0 355 10069.0 284C10069.0 282 10069.0 281 10070.0 279L10067.0 277C10060.0 284 10049.0 286 10014.0 286H9844.0C9820.0 286 9805.0 283 9795.0 276Z" />
      <path d="M10181.0 61C10233.0 13 10307.0 -15 10382.0 -15C10485.0 -15 10544.0 34 10544.0 121C10544.0 171 10521.0 209 10470.0 246L10414.0 285C10377.0 312 10368.0 323 10368.0 343C10368.0 370 10388.0 386 10423.0 386C10454.0 386 10491.0 372 10533.0 345L10582.0 424C10529.0 459 10472.0 477 10416.0 477C10325.0 477 10268.0 426 10268.0 345C10268.0 297 10293.0 255 10342.0 220L10406.0 174C10434.0 153 10443.0 140 10443.0 122C10443.0 94 10419.0 76 10381.0 76C10335.0 76 10285.0 97 10237.0 137Z" />
      <path d="M10884.0 709 10779.0 642 10753.0 509C10749.0 489 10747.0 474 10747.0 456L10744.0 454C10738.0 460 10728.0 462 10704.0 462H10664.0L10646.0 368H10686.0C10710.0 368 10720.0 370 10729.0 376L10731.0 374C10724.0 357 10721.0 342 10717.0 320L10655.0 0H10753.0L10815.0 320C10819.0 342 10822.0 357 10821.0 374L10825.0 376C10831.0 370 10840.0 368 10864.0 368H10910.0L10928.0 462H10882.0C10859.0 462 10849.0 460 10840.0 454L10837.0 456C10845.0 474 10847.0 489 10851.0 509L10890.0 709Z" />
      <path d="M11088.0 -14C11150.0 -14 11194.0 12 11235.0 73L11240.0 70C11226.0 50 11220.0 34 11214.0 0H11312.0L11367.0 286C11370.0 304 11372.0 323 11372.0 337C11372.0 428 11313.0 476 11200.0 476C11156.0 476 11079.0 467 11025.0 456L11043.0 367C11096.0 379 11154.0 386 11188.0 386C11246.0 386 11279.0 363 11279.0 322C11279.0 313 11278.0 305 11274.0 284C11269.0 254 11268.0 231 11272.0 212L11269.0 211C11241.0 274 11183.0 309 11107.0 309C10994.0 309 10924.0 244 10924.0 141C10924.0 50 10991.0 -14 11088.0 -14ZM11124.0 65C11064.0 65 11027.0 95 11027.0 142C11027.0 196 11065.0 228 11128.0 228C11192.0 228 11241.0 193 11241.0 148C11241.0 102 11189.0 65 11124.0 65Z" />
      <path d="M11717.0 -15C11859.0 -15 11967.0 101 11967.0 255C11967.0 385 11885.0 477 11768.0 477C11695.0 477 11630.0 438 11598.0 376L11595.0 377C11604.0 400 11614.0 435 11622.0 473L11669.0 715H11571.0L11432.0 0H11527.0C11538.0 56 11542.0 80 11542.0 99L11546.0 100C11568.0 28 11631.0 -15 11717.0 -15ZM11697.0 77C11617.0 77 11567.0 127 11567.0 207C11567.0 309 11639.0 385 11735.0 385C11816.0 385 11865.0 336 11865.0 255C11865.0 153 11793.0 77 11697.0 77Z" />
      <path d="M12116.0 0 12255.0 715H12157.0L12018.0 0Z" />
      <path d="M12487.0 -15C12571.0 -15 12632.0 11 12703.0 77L12645.0 147C12590.0 97 12545.0 77 12486.0 77C12401.0 77 12353.0 120 12353.0 195V210L12351.0 218L12354.0 220C12363.0 214 12379.0 212 12413.0 212H12725.0C12732.0 245 12735.0 263 12735.0 286C12735.0 404 12656.0 477 12527.0 477C12370.0 477 12257.0 363 12257.0 203C12257.0 67 12344.0 -15 12487.0 -15ZM12363.0 278C12389.0 354 12442.0 393 12519.0 393C12597.0 393 12638.0 355 12638.0 284C12638.0 282 12638.0 281 12639.0 279L12636.0 277C12629.0 284 12618.0 286 12583.0 286H12413.0C12389.0 286 12374.0 283 12364.0 276Z" />
      <path d="M12795.0 -167 12940.0 103H12827.0L12741.0 -167Z" />
      <path d="M13500.0 -14C13562.0 -14 13606.0 12 13647.0 73L13652.0 70C13638.0 50 13632.0 34 13626.0 0H13724.0L13779.0 286C13782.0 304 13784.0 323 13784.0 337C13784.0 428 13725.0 476 13612.0 476C13568.0 476 13491.0 467 13437.0 456L13455.0 367C13508.0 379 13566.0 386 13600.0 386C13658.0 386 13691.0 363 13691.0 322C13691.0 313 13690.0 305 13686.0 284C13681.0 254 13680.0 231 13684.0 212L13681.0 211C13653.0 274 13595.0 309 13519.0 309C13406.0 309 13336.0 244 13336.0 141C13336.0 50 13403.0 -14 13500.0 -14ZM13536.0 65C13476.0 65 13439.0 95 13439.0 142C13439.0 196 13477.0 228 13540.0 228C13604.0 228 13653.0 193 13653.0 148C13653.0 102 13601.0 65 13536.0 65Z" />
      <path d="M13942.0 0 13985.0 222C14007.0 334 14054.0 388 14131.0 388C14191.0 388 14224.0 356 14224.0 298C14224.0 283 14223.0 270 14219.0 253L14170.0 0H14268.0L14318.0 251C14326.0 290 14328.0 309 14328.0 330C14328.0 425 14277.0 477 14182.0 477C14102.0 477 14046.0 439 14005.0 355L14001.0 356C14017.0 389 14025.0 415 14030.0 451L14032.0 462H13934.0L13844.0 0Z" />
      <path d="M14599.0 -15C14674.0 -15 14739.0 26 14770.0 92L14773.0 91C14765.0 65 14756.0 30 14750.0 0H14845.0L14984.0 715H14886.0L14837.0 462C14825.0 401 14822.0 381 14824.0 363L14820.0 362C14798.0 434 14735.0 477 14650.0 477C14508.0 477 14400.0 361 14400.0 207C14400.0 77 14482.0 -15 14599.0 -15ZM14632.0 77C14552.0 77 14502.0 127 14502.0 207C14502.0 314 14569.0 385 14670.0 385C14751.0 385 14800.0 336 14800.0 255C14800.0 153 14728.0 77 14632.0 77Z" />
      <path d="M15373.0 0 15412.0 203C15432.0 306 15492.0 364 15577.0 364C15590.0 364 15598.0 364 15615.0 362L15637.0 475C15632.0 476 15629.0 476 15621.0 476C15527.0 476 15472.0 436 15432.0 339L15427.0 340C15441.0 376 15455.0 425 15463.0 462H15365.0L15275.0 0Z" />
      <path d="M15866.0 -15C15950.0 -15 16011.0 11 16082.0 77L16024.0 147C15969.0 97 15924.0 77 15865.0 77C15780.0 77 15732.0 120 15732.0 195V210L15730.0 218L15733.0 220C15742.0 214 15758.0 212 15792.0 212H16104.0C16111.0 245 16114.0 263 16114.0 286C16114.0 404 16035.0 477 15906.0 477C15749.0 477 15636.0 363 15636.0 203C15636.0 67 15723.0 -15 15866.0 -15ZM15742.0 278C15768.0 354 15821.0 393 15898.0 393C15976.0 393 16017.0 355 16017.0 284C16017.0 282 16017.0 281 16018.0 279L16015.0 277C16008.0 284 15997.0 286 15962.0 286H15792.0C15768.0 286 15753.0 283 15743.0 276Z" />
      <path d="M16556.0 462 16513.0 239C16493.0 134 16444.0 78 16372.0 78C16317.0 78 16286.0 109 16286.0 164C16286.0 178 16288.0 192 16291.0 209L16341.0 462H16243.0L16192.0 206C16186.0 172 16184.0 151 16184.0 132C16184.0 39 16236.0 -15 16326.0 -15C16397.0 -15 16446.0 18 16492.0 97L16496.0 96C16484.0 71 16474.0 39 16466.0 0H16563.0L16653.0 462Z" />
      <path d="M16655.0 61C16707.0 13 16781.0 -15 16856.0 -15C16959.0 -15 17018.0 34 17018.0 121C17018.0 171 16995.0 209 16944.0 246L16888.0 285C16851.0 312 16842.0 323 16842.0 343C16842.0 370 16862.0 386 16897.0 386C16928.0 386 16965.0 372 17007.0 345L17056.0 424C17003.0 459 16946.0 477 16890.0 477C16799.0 477 16742.0 426 16742.0 345C16742.0 297 16767.0 255 16816.0 220L16880.0 174C16908.0 153 16917.0 140 16917.0 122C16917.0 94 16893.0 76 16855.0 76C16809.0 76 16759.0 97 16711.0 137Z" />
      <path d="M17248.0 -14C17310.0 -14 17354.0 12 17395.0 73L17400.0 70C17386.0 50 17380.0 34 17374.0 0H17472.0L17527.0 286C17530.0 304 17532.0 323 17532.0 337C17532.0 428 17473.0 476 17360.0 476C17316.0 476 17239.0 467 17185.0 456L17203.0 367C17256.0 379 17314.0 386 17348.0 386C17406.0 386 17439.0 363 17439.0 322C17439.0 313 17438.0 305 17434.0 284C17429.0 254 17428.0 231 17432.0 212L17429.0 211C17401.0 274 17343.0 309 17267.0 309C17154.0 309 17084.0 244 17084.0 141C17084.0 50 17151.0 -14 17248.0 -14ZM17284.0 65C17224.0 65 17187.0 95 17187.0 142C17187.0 196 17225.0 228 17288.0 228C17352.0 228 17401.0 193 17401.0 148C17401.0 102 17349.0 65 17284.0 65Z" />
      <path d="M17877.0 -15C18019.0 -15 18127.0 101 18127.0 255C18127.0 385 18045.0 477 17928.0 477C17855.0 477 17790.0 438 17758.0 376L17755.0 377C17764.0 400 17774.0 435 17782.0 473L17829.0 715H17731.0L17592.0 0H17687.0C17698.0 56 17702.0 80 17702.0 99L17706.0 100C17728.0 28 17791.0 -15 17877.0 -15ZM17857.0 77C17777.0 77 17727.0 127 17727.0 207C17727.0 309 17799.0 385 17895.0 385C17976.0 385 18025.0 336 18025.0 255C18025.0 153 17953.0 77 17857.0 77Z" />
      <path d="M18276.0 0 18415.0 715H18317.0L18178.0 0Z" />
      <path d="M18647.0 -15C18731.0 -15 18792.0 11 18863.0 77L18805.0 147C18750.0 97 18705.0 77 18646.0 77C18561.0 77 18513.0 120 18513.0 195V210L18511.0 218L18514.0 220C18523.0 214 18539.0 212 18573.0 212H18885.0C18892.0 245 18895.0 263 18895.0 286C18895.0 404 18816.0 477 18687.0 477C18530.0 477 18417.0 363 18417.0 203C18417.0 67 18504.0 -15 18647.0 -15ZM18523.0 278C18549.0 354 18602.0 393 18679.0 393C18757.0 393 18798.0 355 18798.0 284C18798.0 282 18798.0 281 18799.0 279L18796.0 277C18789.0 284 18778.0 286 18743.0 286H18573.0C18549.0 286 18534.0 283 18524.0 276Z" />
      <path d="M19047.0 0 19071.0 124H18957.0L18933.0 0Z" />
    </g>
  </g>
</svg>
