<svg xmlns="http://www.w3.org/2000/svg" width="820" height="48" viewBox="0 0 820 48" role="img" aria-labelledby="title">
  <title id="title">Build from real problems. Agent   Code   Data Make ideas tangible, testable, and reusable.</title>
  <desc>GT Alpina Standard Thin Italic typing intro.</desc>
  <defs>
    <style>
    svg { color: #000000; }
    @media (prefers-color-scheme: dark) {
      svg { color: #EDEDED; }
    }
    .clip-rect {
      animation-duration: 9s;
      animation-timing-function: steps(24, end);
      animation-iteration-count: infinite;
    }
    .clip-rect-0 { animation-name: type0; }
    .clip-rect-1 { animation-name: type1; }
    .clip-rect-2 { animation-name: type2; }
    .line-wrap {
      opacity: 0;
      animation-duration: 9s;
      animation-timing-function: linear;
      animation-iteration-count: infinite;
    }
    .line-wrap-0 { animation-name: show0; }
    .line-wrap-1 { animation-name: show1; }
    .line-wrap-2 { animation-name: show2; }
    @keyframes show0 {
      0%, 32.5%, 100% { opacity: 0; }
      1%, 30% { opacity: 1; }
    }
    @keyframes show1 {
      0%, 33%, 65.5%, 100% { opacity: 0; }
      34%, 63% { opacity: 1; }
    }
    @keyframes show2 {
      0%, 66%, 98.5%, 100% { opacity: 0; }
      67%, 96% { opacity: 1; }
    }
    @keyframes type0 {
      0% { width: 0; }
      15% { width: 309.7px; }
      30% { width: 309.7px; }
      32.5%, 100% { width: 0; }
    }
    @keyframes type1 {
      0%, 33% { width: 0; }
      48% { width: 234.6px; }
      63% { width: 234.6px; }
      65.5%, 100% { width: 0; }
    }
    @keyframes type2 {
      0%, 66% { width: 0; }
      81% { width: 530.1px; }
      96% { width: 530.1px; }
      98.5%, 100% { width: 0; }
    }
    </style>
    <clipPath id="clip0">
      <rect class="clip-rect clip-rect-0" x="255.16" y="0" width="0" height="48" />
    </clipPath>
    <clipPath id="clip1">
      <rect class="clip-rect clip-rect-1" x="292.69" y="0" width="0" height="48" />
    </clipPath>
    <clipPath id="clip2">
      <rect class="clip-rect clip-rect-2" x="144.97" y="0" width="0" height="48" />
    </clipPath>
  </defs>
  <g class="line-wrap line-wrap-0" clip-path="url(#clip0)">
    <g fill="currentColor" transform="translate(255.16 32.64) scale(0.030000 -0.030000)">
      <path d="M616.0 532C616.0 666 488.0 680 398.0 680H177.0L170.0 655C222.0 654 254.0 651 254.0 610C254.0 601 253.0 590 249.0 576L116.0 112C94.0 36 60.0 29 -11.0 26L-18.0 0H274.0C481.0 0 555.0 96 555.0 201C555.0 319 462.0 343 364.0 349V351C568.0 356 616.0 451 616.0 532ZM243.0 367 325.0 652H395.0C468.0 652 554.0 638 554.0 538C554.0 442 491.0 367 309.0 367ZM493.0 200C493.0 117 438.0 28 292.0 28C201.0 28 169.0 44 169.0 87C169.0 98 170.0 110 174.0 124L234.0 335H281.0C400.0 335 493.0 310 493.0 200Z" />
      <path d="M778.0 -14C854.0 -14 931.0 89 1026.0 280H1039.0C963.0 100 956.0 77 956.0 41C956.0 6 984.0 -12 1009.0 -12C1069.0 -12 1110.0 55 1141.0 124L1121.0 130C1077.0 58 1050.0 41 1034.0 41C1017.0 41 1012.0 48 1012.0 61C1012.0 75 1017.0 97 1025.0 126L1129.0 474H1082.0C1013.0 279 888.0 41 787.0 41C763.0 41 739.0 49 739.0 84C739.0 101 746.0 125 765.0 166L851.0 353C863.0 380 874.0 409 874.0 434C874.0 476 843.0 486 818.0 486C758.0 486 717.0 419 686.0 350L706.0 345C750.0 417 778.0 436 798.0 436C812.0 436 818.0 429 818.0 414C818.0 398 812.0 376 798.0 345L722.0 184C694.0 125 687.0 93 687.0 68C687.0 11 727.0 -14 778.0 -14Z" />
      <path d="M1444.0 583C1474.0 583 1497.0 606 1497.0 636C1497.0 666 1474.0 689 1444.0 689C1414.0 689 1391.0 666 1391.0 636C1391.0 606 1414.0 583 1444.0 583ZM1286.0 -9C1347.0 -9 1388.0 58 1420.0 129L1399.0 135C1355.0 60 1326.0 41 1306.0 41C1279.0 41 1279.0 72 1300.0 120L1395.0 334C1410.0 367 1424.0 406 1424.0 434C1424.0 476 1394.0 486 1369.0 486C1308.0 486 1267.0 419 1235.0 348L1256.0 342C1300.0 417 1329.0 436 1349.0 436C1376.0 436 1376.0 405 1355.0 357L1260.0 143C1245.0 110 1231.0 71 1231.0 43C1231.0 1 1261.0 -9 1286.0 -9Z" />
      <path d="M1571.0 -9C1619.0 -9 1667.0 29 1726.0 158L1704.0 164C1650.0 65 1616.0 41 1589.0 41C1576.0 41 1569.0 47 1569.0 64C1569.0 74 1572.0 87 1586.0 129L1782.0 710H1765.0L1625.0 684L1620.0 668L1658.0 665C1698.0 662 1708.0 640 1691.0 591L1535.0 129C1520.0 85 1514.0 64 1514.0 46C1514.0 10 1537.0 -9 1571.0 -9Z" />
      <path d="M2114.0 41C2086.0 41 2091.0 71 2106.0 116L2307.0 710H2294.0L2131.0 684L2126.0 666L2170.0 664C2223.0 662 2233.0 641 2215.0 588L2170.0 458C2154.0 468 2133.0 474 2109.0 474C1968.0 474 1779.0 226 1779.0 88C1779.0 21 1813.0 -14 1861.0 -14C1950.0 -14 2037.0 130 2124.0 280H2136.0C2070.0 147 2041.0 77 2041.0 44C2041.0 5 2066.0 -6 2091.0 -6C2143.0 -6 2190.0 60 2222.0 129L2202.0 135C2166.0 75 2133.0 41 2114.0 41ZM1878.0 41C1861.0 41 1833.0 49 1833.0 100C1833.0 248 2007.0 436 2076.0 440C2104.0 438 2140.0 425 2162.0 399C2042.0 172 1947.0 41 1878.0 41Z" />
      <path d="M2889.0 720C2791.0 720 2716.0 639 2671.0 474L2666.0 456H2554.0L2545.0 425H2658.0L2552.0 41C2510.0 -110 2472.0 -185 2405.0 -185C2385.0 -153 2405.0 -85 2345.0 -85C2313.0 -85 2299.0 -110 2299.0 -137C2299.0 -182 2344.0 -216 2396.0 -216C2508.0 -216 2567.0 -116 2616.0 67L2712.0 425H2822.0L2831.0 456H2721.0L2726.0 476C2771.0 644 2817.0 690 2886.0 690C2894.0 671 2892.0 653 2896.0 633C2900.0 613 2910.0 598 2935.0 598C2968.0 598 2984.0 625 2984.0 655C2984.0 691 2953.0 720 2889.0 720Z" />
      <path d="M2909.0 0C2977.0 194 3091.0 411 3146.0 431C3156.0 419 3157.0 402 3164.0 390C3169.0 383 3176.0 376 3192.0 376C3223.0 376 3242.0 399 3242.0 425C3242.0 470 3212.0 486 3181.0 486C3155.0 486 3133.0 470 3111.0 443C3074.0 398 3020.0 307 2965.0 194H2952.0C3018.0 361 3034.0 405 3034.0 435C3034.0 477 3006.0 486 2981.0 486C2921.0 486 2880.0 419 2849.0 350L2869.0 345C2913.0 417 2942.0 436 2961.0 436C2975.0 436 2981.0 429 2981.0 415C2981.0 402 2976.0 385 2966.0 351L2862.0 0Z" />
      <path d="M3375.0 -14C3438.0 -14 3503.0 28 3551.0 94C3601.0 162 3636.0 254 3636.0 334C3636.0 433 3590.0 486 3501.0 486C3438.0 486 3372.0 445 3324.0 378C3275.0 310 3239.0 218 3239.0 138C3239.0 38 3286.0 -14 3375.0 -14ZM3370.0 15C3331.0 15 3294.0 40 3294.0 105C3294.0 157 3317.0 249 3355.0 323C3392.0 397 3445.0 457 3505.0 457C3545.0 457 3582.0 432 3582.0 366C3582.0 315 3558.0 223 3521.0 149C3483.0 75 3431.0 15 3370.0 15Z" />
      <path d="M4225.0 -9C4282.0 -9 4323.0 58 4354.0 128L4334.0 133C4290.0 60 4264.0 41 4243.0 41C4230.0 41 4223.0 49 4223.0 64C4223.0 80 4228.0 101 4249.0 146L4336.0 336C4353.0 373 4362.0 404 4362.0 427C4362.0 467 4335.0 486 4295.0 486C4223.0 486 4157.0 389 4059.0 194H4046.0C4108.0 349 4124.0 393 4124.0 426C4124.0 470 4097.0 486 4062.0 486C3981.0 486 3930.0 388 3838.0 194H3825.0C3880.0 335 3905.0 402 3905.0 433C3905.0 475 3878.0 486 3855.0 486C3795.0 486 3754.0 419 3723.0 350L3743.0 345C3787.0 417 3816.0 436 3835.0 436C3849.0 436 3854.0 429 3854.0 416C3854.0 403 3850.0 387 3841.0 357L3736.0 0H3783.0C3879.0 267 3975.0 436 4050.0 436C4063.0 436 4077.0 430 4077.0 407C4077.0 396 4075.0 383 4061.0 340L3947.0 0H3994.0C4087.0 236 4209.0 436 4279.0 436C4297.0 436 4308.0 428 4308.0 410C4308.0 395 4301.0 375 4285.0 339L4189.0 121C4172.0 83 4168.0 64 4168.0 48C4168.0 8 4197.0 -9 4225.0 -9Z" />
      <path d="M4727.0 0C4795.0 194 4909.0 411 4964.0 431C4974.0 419 4975.0 402 4982.0 390C4987.0 383 4994.0 376 5010.0 376C5041.0 376 5060.0 399 5060.0 425C5060.0 470 5030.0 486 4999.0 486C4973.0 486 4951.0 470 4929.0 443C4892.0 398 4838.0 307 4783.0 194H4770.0C4836.0 361 4852.0 405 4852.0 435C4852.0 477 4824.0 486 4799.0 486C4739.0 486 4698.0 419 4667.0 350L4687.0 345C4731.0 417 4760.0 436 4779.0 436C4793.0 436 4799.0 429 4799.0 415C4799.0 402 4794.0 385 4784.0 351L4680.0 0Z" />
      <path d="M5422.0 411C5422.0 464 5383.0 486 5329.0 486C5183.0 486 5052.0 274 5052.0 119C5052.0 25 5105.0 -14 5177.0 -14C5272.0 -14 5314.0 58 5350.0 136L5327.0 143C5295.0 79 5246.0 40 5193.0 40C5142.0 40 5103.0 68 5103.0 141C5103.0 169 5108.0 199 5117.0 229C5319.0 237 5422.0 322 5422.0 411ZM5321.0 460C5353.0 460 5369.0 442 5369.0 414C5369.0 347 5285.0 267 5125.0 254C5164.0 360 5247.0 460 5321.0 460Z" />
      <path d="M5774.0 41C5746.0 41 5751.0 71 5767.0 117L5896.0 494H5844.0L5831.0 457C5815.0 468 5794.0 474 5769.0 474C5628.0 474 5439.0 226 5439.0 88C5439.0 21 5473.0 -14 5521.0 -14C5605.0 -14 5690.0 121 5784.0 280H5797.0C5733.0 148 5702.0 77 5702.0 43C5702.0 4 5727.0 -6 5752.0 -6C5804.0 -6 5850.0 60 5882.0 129L5862.0 135C5827.0 75 5793.0 41 5774.0 41ZM5538.0 41C5521.0 41 5493.0 49 5493.0 100C5493.0 248 5667.0 436 5736.0 440C5764.0 438 5800.0 425 5822.0 399C5702.0 172 5607.0 41 5538.0 41Z" />
      <path d="M6018.0 -9C6066.0 -9 6114.0 29 6173.0 158L6151.0 164C6097.0 65 6063.0 41 6036.0 41C6023.0 41 6016.0 47 6016.0 64C6016.0 74 6019.0 87 6033.0 129L6229.0 710H6212.0L6072.0 684L6067.0 668L6105.0 665C6145.0 662 6155.0 640 6138.0 591L5982.0 129C5967.0 85 5961.0 64 5961.0 46C5961.0 10 5984.0 -9 6018.0 -9Z" />
      <path d="M6539.0 1C6556.0 -4 6573.0 -5 6584.0 -5C6742.0 -5 6874.0 182 6874.0 353C6874.0 451 6824.0 486 6776.0 486C6740.0 486 6707.0 471 6679.0 444L6717.0 564L6664.0 559L6623.0 431L6492.0 386L6477.0 346L6613.0 399L6461.0 -80C6431.0 -171 6413.0 -178 6357.0 -185L6351.0 -206H6589.0L6596.0 -185C6503.0 -175 6487.0 -163 6507.0 -99ZM6748.0 446C6786.0 446 6818.0 418 6818.0 335C6818.0 205 6736.0 26 6583.0 26C6573.0 26 6562.0 27 6548.0 31L6673.0 425C6696.0 436 6722.0 446 6748.0 446Z" />
      <path d="M7012.0 0C7080.0 194 7194.0 411 7249.0 431C7259.0 419 7260.0 402 7267.0 390C7272.0 383 7279.0 376 7295.0 376C7326.0 376 7345.0 399 7345.0 425C7345.0 470 7315.0 486 7284.0 486C7258.0 486 7236.0 470 7214.0 443C7177.0 398 7123.0 307 7068.0 194H7055.0C7121.0 361 7137.0 405 7137.0 435C7137.0 477 7109.0 486 7084.0 486C7024.0 486 6983.0 419 6952.0 350L6972.0 345C7016.0 417 7045.0 436 7064.0 436C7078.0 436 7084.0 429 7084.0 415C7084.0 402 7079.0 385 7069.0 351L6965.0 0Z" />
      <path d="M7478.0 -14C7541.0 -14 7606.0 28 7654.0 94C7704.0 162 7739.0 254 7739.0 334C7739.0 433 7693.0 486 7604.0 486C7541.0 486 7475.0 445 7427.0 378C7378.0 310 7342.0 218 7342.0 138C7342.0 38 7389.0 -14 7478.0 -14ZM7473.0 15C7434.0 15 7397.0 40 7397.0 105C7397.0 157 7420.0 249 7458.0 323C7495.0 397 7548.0 457 7608.0 457C7648.0 457 7685.0 432 7685.0 366C7685.0 315 7661.0 223 7624.0 149C7586.0 75 7534.0 15 7473.0 15Z" />
      <path d="M7920.0 -14C8064.0 -14 8241.0 204 8241.0 375C8241.0 461 8195.0 486 8149.0 486C8062.0 486 7990.0 382 7889.0 194H7876.0C7913.0 271 7951.0 356 7977.0 434L8070.0 710H8053.0L7913.0 684L7908.0 668L7946.0 665C7986.0 662 7994.0 641 7979.0 591L7795.0 47C7814.0 17 7855.0 -14 7920.0 -14ZM7923.0 12C7890.0 12 7864.0 25 7846.0 54C7892.0 172 8032.0 436 8136.0 436C8161.0 436 8186.0 423 8186.0 367C8186.0 236 8055.0 12 7923.0 12Z" />
      <path d="M8353.0 -9C8401.0 -9 8449.0 29 8508.0 158L8486.0 164C8432.0 65 8398.0 41 8371.0 41C8358.0 41 8351.0 47 8351.0 64C8351.0 74 8354.0 87 8368.0 129L8564.0 710H8547.0L8407.0 684L8402.0 668L8440.0 665C8480.0 662 8490.0 640 8473.0 591L8317.0 129C8302.0 85 8296.0 64 8296.0 46C8296.0 10 8319.0 -9 8353.0 -9Z" />
      <path d="M8945.0 411C8945.0 464 8906.0 486 8852.0 486C8706.0 486 8575.0 274 8575.0 119C8575.0 25 8628.0 -14 8700.0 -14C8795.0 -14 8837.0 58 8873.0 136L8850.0 143C8818.0 79 8769.0 40 8716.0 40C8665.0 40 8626.0 68 8626.0 141C8626.0 169 8631.0 199 8640.0 229C8842.0 237 8945.0 322 8945.0 411ZM8844.0 460C8876.0 460 8892.0 442 8892.0 414C8892.0 347 8808.0 267 8648.0 254C8687.0 360 8770.0 460 8844.0 460Z" />
      <path d="M9501.0 -9C9558.0 -9 9599.0 58 9630.0 128L9610.0 133C9566.0 60 9540.0 41 9519.0 41C9506.0 41 9499.0 49 9499.0 64C9499.0 80 9504.0 101 9525.0 146L9612.0 336C9629.0 373 9638.0 404 9638.0 427C9638.0 467 9611.0 486 9571.0 486C9499.0 486 9433.0 389 9335.0 194H9322.0C9384.0 349 9400.0 393 9400.0 426C9400.0 470 9373.0 486 9338.0 486C9257.0 486 9206.0 388 9114.0 194H9101.0C9156.0 335 9181.0 402 9181.0 433C9181.0 475 9154.0 486 9131.0 486C9071.0 486 9030.0 419 8999.0 350L9019.0 345C9063.0 417 9092.0 436 9111.0 436C9125.0 436 9130.0 429 9130.0 416C9130.0 403 9126.0 387 9117.0 357L9012.0 0H9059.0C9155.0 267 9251.0 436 9326.0 436C9339.0 436 9353.0 430 9353.0 407C9353.0 396 9351.0 383 9337.0 340L9223.0 0H9270.0C9363.0 236 9485.0 436 9555.0 436C9573.0 436 9584.0 428 9584.0 410C9584.0 395 9577.0 375 9561.0 339L9465.0 121C9448.0 83 9444.0 64 9444.0 48C9444.0 8 9473.0 -9 9501.0 -9Z" />
      <path d="M9787.0 -14C9870.0 -14 9939.0 36 9939.0 114C9939.0 150 9926.0 176 9893.0 229L9857.0 288C9825.0 340 9817.0 357 9817.0 384C9817.0 427 9849.0 462 9914.0 467C9930.0 447 9933.0 426 9941.0 409C9949.0 391 9958.0 377 9981.0 377C10011.0 377 10024.0 398 10024.0 424C10024.0 464 9983.0 486 9924.0 486C9841.0 486 9771.0 436 9771.0 358C9771.0 322 9785.0 296 9818.0 243L9854.0 184C9886.0 132 9893.0 115 9893.0 88C9893.0 45 9862.0 10 9796.0 5C9780.0 25 9777.0 46 9769.0 63C9762.0 81 9753.0 95 9729.0 95C9700.0 95 9686.0 74 9686.0 48C9686.0 8 9728.0 -14 9787.0 -14Z" />
      <path d="M10121.0 -9C10151.0 -9 10176.0 13 10176.0 46C10176.0 78 10151.0 99 10121.0 99C10092.0 99 10067.0 78 10067.0 46C10067.0 13 10092.0 -9 10121.0 -9Z" />
    </g>
  </g>
  <g class="line-wrap line-wrap-1" clip-path="url(#clip1)">
    <g fill="currentColor" transform="translate(292.69 32.64) scale(0.030000 -0.030000)">
      <path d="M472.0 689H420.0L427.0 625L84.0 135C16.0 38 0.0 28 -41.0 26L-48.0 0H161.0L170.0 26C120.0 27 92.0 34 92.0 59C92.0 73 101.0 92 120.0 120L200.0 236H471.0L483.0 129C493.0 37 459.0 28 382.0 26L374.0 0H590.0L598.0 26C560.0 28 546.0 38 534.0 141ZM433.0 574 467.0 268H222.0Z" />
      <path d="M1011.0 456C992.0 476 963.0 486 930.0 486C882.0 486 850.0 466 820.0 433C781.0 389 756.0 327 756.0 269C756.0 216 778.0 182 812.0 165C777.0 150 755.0 130 755.0 100C755.0 79 767.0 57 811.0 30C656.0 15 615.0 -35 615.0 -88C615.0 -165 722.0 -216 851.0 -216C975.0 -216 1037.0 -170 1037.0 -103C1037.0 -59 1015.0 -24 925.0 25L881.0 49C813.0 86 802.0 99 802.0 116C802.0 132 807.0 143 830.0 159C842.0 156 854.0 154 867.0 154C914.0 154 947.0 174 977.0 207C1015.0 251 1041.0 313 1041.0 371C1041.0 392 1038.0 410 1031.0 425H1131.0L1140.0 456ZM936.0 231C914.0 202 889.0 180 855.0 180C828.0 180 801.0 194 801.0 243C801.0 286 823.0 359 861.0 409C883.0 438 908.0 460 941.0 460C968.0 460 995.0 446 995.0 397C995.0 354 973.0 281 936.0 231ZM882.0 -8C962.0 -50 982.0 -80 982.0 -110C982.0 -154 942.0 -192 850.0 -192C770.0 -192 670.0 -158 670.0 -87C670.0 -36 717.0 -3 829.0 19L836.0 16Z" />
      <path d="M1518.0 411C1518.0 464 1479.0 486 1425.0 486C1279.0 486 1148.0 274 1148.0 119C1148.0 25 1201.0 -14 1273.0 -14C1368.0 -14 1410.0 58 1446.0 136L1423.0 143C1391.0 79 1342.0 40 1289.0 40C1238.0 40 1199.0 68 1199.0 141C1199.0 169 1204.0 199 1213.0 229C1415.0 237 1518.0 322 1518.0 411ZM1417.0 460C1449.0 460 1465.0 442 1465.0 414C1465.0 347 1381.0 267 1221.0 254C1260.0 360 1343.0 460 1417.0 460Z" />
      <path d="M1905.0 -9C1962.0 -9 2003.0 58 2034.0 128L2014.0 133C1970.0 60 1944.0 41 1923.0 41C1910.0 41 1903.0 49 1903.0 64C1903.0 80 1910.0 101 1929.0 146L1996.0 302C2017.0 350 2024.0 382 2024.0 407C2024.0 464 1987.0 486 1939.0 486C1859.0 486 1787.0 393 1688.0 194H1675.0C1729.0 335 1754.0 402 1754.0 433C1754.0 476 1728.0 486 1704.0 486C1644.0 486 1603.0 419 1572.0 350L1592.0 345C1636.0 417 1665.0 436 1684.0 436C1698.0 436 1703.0 429 1703.0 416C1703.0 404 1698.0 385 1691.0 360L1585.0 0H1633.0C1702.0 197 1822.0 436 1923.0 436C1951.0 436 1972.0 426 1972.0 391C1972.0 375 1967.0 354 1951.0 316L1862.0 106C1852.0 83 1848.0 64 1848.0 48C1848.0 8 1877.0 -9 1905.0 -9Z" />
      <path d="M2431.0 425 2439.0 456H2320.0L2365.0 559L2305.0 553L2271.0 456H2168.0L2159.0 425H2262.0L2133.0 103C2126.0 85 2121.0 65 2121.0 51C2121.0 6 2150.0 -9 2179.0 -9C2245.0 -9 2299.0 65 2336.0 139L2315.0 144C2251.0 51 2221.0 44 2200.0 44C2186.0 44 2179.0 53 2179.0 68C2179.0 77 2182.0 89 2186.0 101L2306.0 425Z" />
      <path d="M3437.0 -14C3513.0 -14 3584.0 7 3642.0 39L3699.0 238H3669.0C3600.0 72 3529.0 20 3435.0 20C3321.0 20 3206.0 87 3206.0 275C3206.0 453 3303.0 660 3534.0 660C3635.0 660 3713.0 627 3713.0 513C3713.0 499 3712.0 484 3710.0 468H3740.0L3802.0 685H3772.0C3763.0 666 3754.0 653 3741.0 653C3720.0 653 3672.0 694 3534.0 694C3281.0 694 3138.0 497 3138.0 277C3138.0 79 3274.0 -14 3437.0 -14Z" />
      <path d="M3924.0 -14C3987.0 -14 4052.0 28 4100.0 94C4150.0 162 4185.0 254 4185.0 334C4185.0 433 4139.0 486 4050.0 486C3987.0 486 3921.0 445 3873.0 378C3824.0 310 3788.0 218 3788.0 138C3788.0 38 3835.0 -14 3924.0 -14ZM3919.0 15C3880.0 15 3843.0 40 3843.0 105C3843.0 157 3866.0 249 3904.0 323C3941.0 397 3994.0 457 4054.0 457C4094.0 457 4131.0 432 4131.0 366C4131.0 315 4107.0 223 4070.0 149C4032.0 75 3980.0 15 3919.0 15Z" />
      <path d="M4570.0 41C4542.0 41 4547.0 71 4562.0 116L4763.0 710H4750.0L4587.0 684L4582.0 666L4626.0 664C4679.0 662 4689.0 641 4671.0 588L4626.0 458C4610.0 468 4589.0 474 4565.0 474C4424.0 474 4235.0 226 4235.0 88C4235.0 21 4269.0 -14 4317.0 -14C4406.0 -14 4493.0 130 4580.0 280H4592.0C4526.0 147 4497.0 77 4497.0 44C4497.0 5 4522.0 -6 4547.0 -6C4599.0 -6 4646.0 60 4678.0 129L4658.0 135C4622.0 75 4589.0 41 4570.0 41ZM4334.0 41C4317.0 41 4289.0 49 4289.0 100C4289.0 248 4463.0 436 4532.0 440C4560.0 438 4596.0 425 4618.0 399C4498.0 172 4403.0 41 4334.0 41Z" />
      <path d="M5118.0 411C5118.0 464 5079.0 486 5025.0 486C4879.0 486 4748.0 274 4748.0 119C4748.0 25 4801.0 -14 4873.0 -14C4968.0 -14 5010.0 58 5046.0 136L5023.0 143C4991.0 79 4942.0 40 4889.0 40C4838.0 40 4799.0 68 4799.0 141C4799.0 169 4804.0 199 4813.0 229C5015.0 237 5118.0 322 5118.0 411ZM5017.0 460C5049.0 460 5065.0 442 5065.0 414C5065.0 347 4981.0 267 4821.0 254C4860.0 360 4943.0 460 5017.0 460Z" />
      <path d="M6013.0 0C6367.0 0 6472.0 238 6472.0 406C6472.0 625 6285.0 680 6146.0 680H5942.0L5935.0 655C5987.0 654 6019.0 651 6019.0 610C6019.0 601 6018.0 590 6014.0 576L5881.0 112C5859.0 36 5825.0 29 5754.0 26L5747.0 0ZM6036.0 29C5970.0 29 5938.0 51 5938.0 100C5938.0 115 5941.0 132 5947.0 153L6090.0 652H6156.0C6265.0 652 6404.0 599 6404.0 411C6404.0 218 6270.0 29 6036.0 29Z" />
      <path d="M6846.0 41C6818.0 41 6823.0 71 6839.0 117L6968.0 494H6916.0L6903.0 457C6887.0 468 6866.0 474 6841.0 474C6700.0 474 6511.0 226 6511.0 88C6511.0 21 6545.0 -14 6593.0 -14C6677.0 -14 6762.0 121 6856.0 280H6869.0C6805.0 148 6774.0 77 6774.0 43C6774.0 4 6799.0 -6 6824.0 -6C6876.0 -6 6922.0 60 6954.0 129L6934.0 135C6899.0 75 6865.0 41 6846.0 41ZM6610.0 41C6593.0 41 6565.0 49 6565.0 100C6565.0 248 6739.0 436 6808.0 440C6836.0 438 6872.0 425 6894.0 399C6774.0 172 6679.0 41 6610.0 41Z" />
      <path d="M7346.0 425 7354.0 456H7235.0L7280.0 559L7220.0 553L7186.0 456H7083.0L7074.0 425H7177.0L7048.0 103C7041.0 85 7036.0 65 7036.0 51C7036.0 6 7065.0 -9 7094.0 -9C7160.0 -9 7214.0 65 7251.0 139L7230.0 144C7166.0 51 7136.0 44 7115.0 44C7101.0 44 7094.0 53 7094.0 68C7094.0 77 7097.0 89 7101.0 101L7221.0 425Z" />
      <path d="M7672.0 41C7644.0 41 7649.0 71 7665.0 117L7794.0 494H7742.0L7729.0 457C7713.0 468 7692.0 474 7667.0 474C7526.0 474 7337.0 226 7337.0 88C7337.0 21 7371.0 -14 7419.0 -14C7503.0 -14 7588.0 121 7682.0 280H7695.0C7631.0 148 7600.0 77 7600.0 43C7600.0 4 7625.0 -6 7650.0 -6C7702.0 -6 7748.0 60 7780.0 129L7760.0 135C7725.0 75 7691.0 41 7672.0 41ZM7436.0 41C7419.0 41 7391.0 49 7391.0 100C7391.0 248 7565.0 436 7634.0 440C7662.0 438 7698.0 425 7720.0 399C7600.0 172 7505.0 41 7436.0 41Z" />
    </g>
  </g>
  <g class="line-wrap line-wrap-2" clip-path="url(#clip2)">
    <g fill="currentColor" transform="translate(144.97 32.64) scale(0.030000 -0.030000)">
      <path d="M400.0 62 347.0 680H204.0L197.0 654C285.0 652 279.0 633 250.0 555L94.0 130C61.0 39 42.0 29 -21.0 26L-28.0 0H210.0L217.0 26C103.0 28 102.0 49 132.0 130L302.0 591L355.0 -2H403.0L768.0 588L707.0 133C695.0 41 666.0 29 574.0 26L567.0 0H817.0L824.0 26C749.0 28 749.0 50 759.0 128L815.0 555C827.0 643 846.0 651 906.0 654L913.0 680H782.0Z" />
      <path d="M1275.0 41C1247.0 41 1252.0 71 1268.0 117L1397.0 494H1345.0L1332.0 457C1316.0 468 1295.0 474 1270.0 474C1129.0 474 940.0 226 940.0 88C940.0 21 974.0 -14 1022.0 -14C1106.0 -14 1191.0 121 1285.0 280H1298.0C1234.0 148 1203.0 77 1203.0 43C1203.0 4 1228.0 -6 1253.0 -6C1305.0 -6 1351.0 60 1383.0 129L1363.0 135C1328.0 75 1294.0 41 1275.0 41ZM1039.0 41C1022.0 41 994.0 49 994.0 100C994.0 248 1168.0 436 1237.0 440C1265.0 438 1301.0 425 1323.0 399C1203.0 172 1108.0 41 1039.0 41Z" />
      <path d="M1846.0 106C1826.0 106 1816.0 94 1810.0 81C1802.0 63 1801.0 39 1784.0 9C1745.0 19 1664.0 120 1635.0 228C1822.0 236 1906.0 302 1906.0 394C1906.0 464 1854.0 486 1807.0 486C1705.0 486 1641.0 383 1539.0 194H1526.0C1564.0 272 1602.0 356 1628.0 434L1720.0 710H1703.0L1563.0 684L1558.0 668L1596.0 665C1636.0 662 1645.0 640 1629.0 591L1429.0 0H1478.0C1513.0 94 1548.0 171 1581.0 233C1624.0 85 1722.0 -7 1789.0 -7C1832.0 -7 1882.0 20 1882.0 67C1882.0 88 1872.0 106 1846.0 106ZM1793.0 444C1830.0 444 1853.0 423 1853.0 383C1853.0 296 1761.0 248 1586.0 242C1664.0 384 1734.0 444 1793.0 444Z" />
      <path d="M2342.0 411C2342.0 464 2303.0 486 2249.0 486C2103.0 486 1972.0 274 1972.0 119C1972.0 25 2025.0 -14 2097.0 -14C2192.0 -14 2234.0 58 2270.0 136L2247.0 143C2215.0 79 2166.0 40 2113.0 40C2062.0 40 2023.0 68 2023.0 141C2023.0 169 2028.0 199 2037.0 229C2239.0 237 2342.0 322 2342.0 411ZM2241.0 460C2273.0 460 2289.0 442 2289.0 414C2289.0 347 2205.0 267 2045.0 254C2084.0 360 2167.0 460 2241.0 460Z" />
      <path d="M2825.0 583C2855.0 583 2878.0 606 2878.0 636C2878.0 666 2855.0 689 2825.0 689C2795.0 689 2772.0 666 2772.0 636C2772.0 606 2795.0 583 2825.0 583ZM2667.0 -9C2728.0 -9 2769.0 58 2801.0 129L2780.0 135C2736.0 60 2707.0 41 2687.0 41C2660.0 41 2660.0 72 2681.0 120L2776.0 334C2791.0 367 2805.0 406 2805.0 434C2805.0 476 2775.0 486 2750.0 486C2689.0 486 2648.0 419 2616.0 348L2637.0 342C2681.0 417 2710.0 436 2730.0 436C2757.0 436 2757.0 405 2736.0 357L2641.0 143C2626.0 110 2612.0 71 2612.0 43C2612.0 1 2642.0 -9 2667.0 -9Z" />
      <path d="M3207.0 41C3179.0 41 3184.0 71 3199.0 116L3400.0 710H3387.0L3224.0 684L3219.0 666L3263.0 664C3316.0 662 3326.0 641 3308.0 588L3263.0 458C3247.0 468 3226.0 474 3202.0 474C3061.0 474 2872.0 226 2872.0 88C2872.0 21 2906.0 -14 2954.0 -14C3043.0 -14 3130.0 130 3217.0 280H3229.0C3163.0 147 3134.0 77 3134.0 44C3134.0 5 3159.0 -6 3184.0 -6C3236.0 -6 3283.0 60 3315.0 129L3295.0 135C3259.0 75 3226.0 41 3207.0 41ZM2971.0 41C2954.0 41 2926.0 49 2926.0 100C2926.0 248 3100.0 436 3169.0 440C3197.0 438 3233.0 425 3255.0 399C3135.0 172 3040.0 41 2971.0 41Z" />
      <path d="M3755.0 411C3755.0 464 3716.0 486 3662.0 486C3516.0 486 3385.0 274 3385.0 119C3385.0 25 3438.0 -14 3510.0 -14C3605.0 -14 3647.0 58 3683.0 136L3660.0 143C3628.0 79 3579.0 40 3526.0 40C3475.0 40 3436.0 68 3436.0 141C3436.0 169 3441.0 199 3450.0 229C3652.0 237 3755.0 322 3755.0 411ZM3654.0 460C3686.0 460 3702.0 442 3702.0 414C3702.0 347 3618.0 267 3458.0 254C3497.0 360 3580.0 460 3654.0 460Z" />
      <path d="M4107.0 41C4079.0 41 4084.0 71 4100.0 117L4229.0 494H4177.0L4164.0 457C4148.0 468 4127.0 474 4102.0 474C3961.0 474 3772.0 226 3772.0 88C3772.0 21 3806.0 -14 3854.0 -14C3938.0 -14 4023.0 121 4117.0 280H4130.0C4066.0 148 4035.0 77 4035.0 43C4035.0 4 4060.0 -6 4085.0 -6C4137.0 -6 4183.0 60 4215.0 129L4195.0 135C4160.0 75 4126.0 41 4107.0 41ZM3871.0 41C3854.0 41 3826.0 49 3826.0 100C3826.0 248 4000.0 436 4069.0 440C4097.0 438 4133.0 425 4155.0 399C4035.0 172 3940.0 41 3871.0 41Z" />
      <path d="M4367.0 -14C4450.0 -14 4519.0 36 4519.0 114C4519.0 150 4506.0 176 4473.0 229L4437.0 288C4405.0 340 4397.0 357 4397.0 384C4397.0 427 4429.0 462 4494.0 467C4510.0 447 4513.0 426 4521.0 409C4529.0 391 4538.0 377 4561.0 377C4591.0 377 4604.0 398 4604.0 424C4604.0 464 4563.0 486 4504.0 486C4421.0 486 4351.0 436 4351.0 358C4351.0 322 4365.0 296 4398.0 243L4434.0 184C4466.0 132 4473.0 115 4473.0 88C4473.0 45 4442.0 10 4376.0 5C4360.0 25 4357.0 46 4349.0 63C4342.0 81 4333.0 95 4309.0 95C4280.0 95 4266.0 74 4266.0 48C4266.0 8 4308.0 -14 4367.0 -14Z" />
      <path d="M5175.0 425 5183.0 456H5064.0L5109.0 559L5049.0 553L5015.0 456H4912.0L4903.0 425H5006.0L4877.0 103C4870.0 85 4865.0 65 4865.0 51C4865.0 6 4894.0 -9 4923.0 -9C4989.0 -9 5043.0 65 5080.0 139L5059.0 144C4995.0 51 4965.0 44 4944.0 44C4930.0 44 4923.0 53 4923.0 68C4923.0 77 4926.0 89 4930.0 101L5050.0 425Z" />
      <path d="M5501.0 41C5473.0 41 5478.0 71 5494.0 117L5623.0 494H5571.0L5558.0 457C5542.0 468 5521.0 474 5496.0 474C5355.0 474 5166.0 226 5166.0 88C5166.0 21 5200.0 -14 5248.0 -14C5332.0 -14 5417.0 121 5511.0 280H5524.0C5460.0 148 5429.0 77 5429.0 43C5429.0 4 5454.0 -6 5479.0 -6C5531.0 -6 5577.0 60 5609.0 129L5589.0 135C5554.0 75 5520.0 41 5501.0 41ZM5265.0 41C5248.0 41 5220.0 49 5220.0 100C5220.0 248 5394.0 436 5463.0 440C5491.0 438 5527.0 425 5549.0 399C5429.0 172 5334.0 41 5265.0 41Z" />
      <path d="M6035.0 -9C6092.0 -9 6133.0 58 6164.0 128L6144.0 133C6100.0 60 6074.0 41 6053.0 41C6040.0 41 6033.0 49 6033.0 64C6033.0 80 6040.0 101 6059.0 146L6126.0 302C6147.0 350 6154.0 382 6154.0 407C6154.0 464 6117.0 486 6069.0 486C5989.0 486 5917.0 393 5818.0 194H5805.0C5859.0 335 5884.0 402 5884.0 433C5884.0 476 5858.0 486 5834.0 486C5774.0 486 5733.0 419 5702.0 350L5722.0 345C5766.0 417 5795.0 436 5814.0 436C5828.0 436 5833.0 429 5833.0 416C5833.0 404 5828.0 385 5821.0 360L5715.0 0H5763.0C5832.0 197 5952.0 436 6053.0 436C6081.0 436 6102.0 426 6102.0 391C6102.0 375 6097.0 354 6081.0 316L5992.0 106C5982.0 83 5978.0 64 5978.0 48C5978.0 8 6007.0 -9 6035.0 -9Z" />
      <path d="M6542.0 456C6523.0 476 6494.0 486 6461.0 486C6413.0 486 6381.0 466 6351.0 433C6312.0 389 6287.0 327 6287.0 269C6287.0 216 6309.0 182 6343.0 165C6308.0 150 6286.0 130 6286.0 100C6286.0 79 6298.0 57 6342.0 30C6187.0 15 6146.0 -35 6146.0 -88C6146.0 -165 6253.0 -216 6382.0 -216C6506.0 -216 6568.0 -170 6568.0 -103C6568.0 -59 6546.0 -24 6456.0 25L6412.0 49C6344.0 86 6333.0 99 6333.0 116C6333.0 132 6338.0 143 6361.0 159C6373.0 156 6385.0 154 6398.0 154C6445.0 154 6478.0 174 6508.0 207C6546.0 251 6572.0 313 6572.0 371C6572.0 392 6569.0 410 6562.0 425H6662.0L6671.0 456ZM6467.0 231C6445.0 202 6420.0 180 6386.0 180C6359.0 180 6332.0 194 6332.0 243C6332.0 286 6354.0 359 6392.0 409C6414.0 438 6439.0 460 6472.0 460C6499.0 460 6526.0 446 6526.0 397C6526.0 354 6504.0 281 6467.0 231ZM6413.0 -8C6493.0 -50 6513.0 -80 6513.0 -110C6513.0 -154 6473.0 -192 6381.0 -192C6301.0 -192 6201.0 -158 6201.0 -87C6201.0 -36 6248.0 -3 6360.0 19L6367.0 16Z" />
      <path d="M6916.0 583C6946.0 583 6969.0 606 6969.0 636C6969.0 666 6946.0 689 6916.0 689C6886.0 689 6863.0 666 6863.0 636C6863.0 606 6886.0 583 6916.0 583ZM6758.0 -9C6819.0 -9 6860.0 58 6892.0 129L6871.0 135C6827.0 60 6798.0 41 6778.0 41C6751.0 41 6751.0 72 6772.0 120L6867.0 334C6882.0 367 6896.0 406 6896.0 434C6896.0 476 6866.0 486 6841.0 486C6780.0 486 6739.0 419 6707.0 348L6728.0 342C6772.0 417 6801.0 436 6821.0 436C6848.0 436 6848.0 405 6827.0 357L6732.0 143C6717.0 110 6703.0 71 6703.0 43C6703.0 1 6733.0 -9 6758.0 -9Z" />
      <path d="M7094.0 -14C7238.0 -14 7415.0 204 7415.0 375C7415.0 461 7369.0 486 7323.0 486C7236.0 486 7164.0 382 7063.0 194H7050.0C7087.0 271 7125.0 356 7151.0 434L7244.0 710H7227.0L7087.0 684L7082.0 668L7120.0 665C7160.0 662 7168.0 641 7153.0 591L6969.0 47C6988.0 17 7029.0 -14 7094.0 -14ZM7097.0 12C7064.0 12 7038.0 25 7020.0 54C7066.0 172 7206.0 436 7310.0 436C7335.0 436 7360.0 423 7360.0 367C7360.0 236 7229.0 12 7097.0 12Z" />
      <path d="M7527.0 -9C7575.0 -9 7623.0 29 7682.0 158L7660.0 164C7606.0 65 7572.0 41 7545.0 41C7532.0 41 7525.0 47 7525.0 64C7525.0 74 7528.0 87 7542.0 129L7738.0 710H7721.0L7581.0 684L7576.0 668L7614.0 665C7654.0 662 7664.0 640 7647.0 591L7491.0 129C7476.0 85 7470.0 64 7470.0 46C7470.0 10 7493.0 -9 7527.0 -9Z" />
      <path d="M8119.0 411C8119.0 464 8080.0 486 8026.0 486C7880.0 486 7749.0 274 7749.0 119C7749.0 25 7802.0 -14 7874.0 -14C7969.0 -14 8011.0 58 8047.0 136L8024.0 143C7992.0 79 7943.0 40 7890.0 40C7839.0 40 7800.0 68 7800.0 141C7800.0 169 7805.0 199 7814.0 229C8016.0 237 8119.0 322 8119.0 411ZM8018.0 460C8050.0 460 8066.0 442 8066.0 414C8066.0 347 7982.0 267 7822.0 254C7861.0 360 7944.0 460 8018.0 460Z" />
      <path d="M8106.0 -130C8220.0 -130 8272.0 -67 8272.0 19C8272.0 72 8245.0 93 8211.0 93C8182.0 93 8158.0 72 8158.0 42C8158.0 9 8181.0 -7 8204.0 -7C8217.0 -7 8232.0 -3 8243.0 7C8243.0 -52 8202.0 -104 8113.0 -104Z" />
      <path d="M8981.0 425 8989.0 456H8870.0L8915.0 559L8855.0 553L8821.0 456H8718.0L8709.0 425H8812.0L8683.0 103C8676.0 85 8671.0 65 8671.0 51C8671.0 6 8700.0 -9 8729.0 -9C8795.0 -9 8849.0 65 8886.0 139L8865.0 144C8801.0 51 8771.0 44 8750.0 44C8736.0 44 8729.0 53 8729.0 68C8729.0 77 8732.0 89 8736.0 101L8856.0 425Z" />
      <path d="M9356.0 411C9356.0 464 9317.0 486 9263.0 486C9117.0 486 8986.0 274 8986.0 119C8986.0 25 9039.0 -14 9111.0 -14C9206.0 -14 9248.0 58 9284.0 136L9261.0 143C9229.0 79 9180.0 40 9127.0 40C9076.0 40 9037.0 68 9037.0 141C9037.0 169 9042.0 199 9051.0 229C9253.0 237 9356.0 322 9356.0 411ZM9255.0 460C9287.0 460 9303.0 442 9303.0 414C9303.0 347 9219.0 267 9059.0 254C9098.0 360 9181.0 460 9255.0 460Z" />
      <path d="M9469.0 -14C9552.0 -14 9621.0 36 9621.0 114C9621.0 150 9608.0 176 9575.0 229L9539.0 288C9507.0 340 9499.0 357 9499.0 384C9499.0 427 9531.0 462 9596.0 467C9612.0 447 9615.0 426 9623.0 409C9631.0 391 9640.0 377 9663.0 377C9693.0 377 9706.0 398 9706.0 424C9706.0 464 9665.0 486 9606.0 486C9523.0 486 9453.0 436 9453.0 358C9453.0 322 9467.0 296 9500.0 243L9536.0 184C9568.0 132 9575.0 115 9575.0 88C9575.0 45 9544.0 10 9478.0 5C9462.0 25 9459.0 46 9451.0 63C9444.0 81 9435.0 95 9411.0 95C9382.0 95 9368.0 74 9368.0 48C9368.0 8 9410.0 -14 9469.0 -14Z" />
      <path d="M10062.0 425 10070.0 456H9951.0L9996.0 559L9936.0 553L9902.0 456H9799.0L9790.0 425H9893.0L9764.0 103C9757.0 85 9752.0 65 9752.0 51C9752.0 6 9781.0 -9 9810.0 -9C9876.0 -9 9930.0 65 9967.0 139L9946.0 144C9882.0 51 9852.0 44 9831.0 44C9817.0 44 9810.0 53 9810.0 68C9810.0 77 9813.0 89 9817.0 101L9937.0 425Z" />
      <path d="M10388.0 41C10360.0 41 10365.0 71 10381.0 117L10510.0 494H10458.0L10445.0 457C10429.0 468 10408.0 474 10383.0 474C10242.0 474 10053.0 226 10053.0 88C10053.0 21 10087.0 -14 10135.0 -14C10219.0 -14 10304.0 121 10398.0 280H10411.0C10347.0 148 10316.0 77 10316.0 43C10316.0 4 10341.0 -6 10366.0 -6C10418.0 -6 10464.0 60 10496.0 129L10476.0 135C10441.0 75 10407.0 41 10388.0 41ZM10152.0 41C10135.0 41 10107.0 49 10107.0 100C10107.0 248 10281.0 436 10350.0 440C10378.0 438 10414.0 425 10436.0 399C10316.0 172 10221.0 41 10152.0 41Z" />
      <path d="M10683.0 -14C10827.0 -14 11004.0 204 11004.0 375C11004.0 461 10958.0 486 10912.0 486C10825.0 486 10753.0 382 10652.0 194H10639.0C10676.0 271 10714.0 356 10740.0 434L10833.0 710H10816.0L10676.0 684L10671.0 668L10709.0 665C10749.0 662 10757.0 641 10742.0 591L10558.0 47C10577.0 17 10618.0 -14 10683.0 -14ZM10686.0 12C10653.0 12 10627.0 25 10609.0 54C10655.0 172 10795.0 436 10899.0 436C10924.0 436 10949.0 423 10949.0 367C10949.0 236 10818.0 12 10686.0 12Z" />
      <path d="M11116.0 -9C11164.0 -9 11212.0 29 11271.0 158L11249.0 164C11195.0 65 11161.0 41 11134.0 41C11121.0 41 11114.0 47 11114.0 64C11114.0 74 11117.0 87 11131.0 129L11327.0 710H11310.0L11170.0 684L11165.0 668L11203.0 665C11243.0 662 11253.0 640 11236.0 591L11080.0 129C11065.0 85 11059.0 64 11059.0 46C11059.0 10 11082.0 -9 11116.0 -9Z" />
      <path d="M11708.0 411C11708.0 464 11669.0 486 11615.0 486C11469.0 486 11338.0 274 11338.0 119C11338.0 25 11391.0 -14 11463.0 -14C11558.0 -14 11600.0 58 11636.0 136L11613.0 143C11581.0 79 11532.0 40 11479.0 40C11428.0 40 11389.0 68 11389.0 141C11389.0 169 11394.0 199 11403.0 229C11605.0 237 11708.0 322 11708.0 411ZM11607.0 460C11639.0 460 11655.0 442 11655.0 414C11655.0 347 11571.0 267 11411.0 254C11450.0 360 11533.0 460 11607.0 460Z" />
      <path d="M11695.0 -130C11809.0 -130 11861.0 -67 11861.0 19C11861.0 72 11834.0 93 11800.0 93C11771.0 93 11747.0 72 11747.0 42C11747.0 9 11770.0 -7 11793.0 -7C11806.0 -7 11821.0 -3 11832.0 7C11832.0 -52 11791.0 -104 11702.0 -104Z" />
      <path d="M12569.0 41C12541.0 41 12546.0 71 12562.0 117L12691.0 494H12639.0L12626.0 457C12610.0 468 12589.0 474 12564.0 474C12423.0 474 12234.0 226 12234.0 88C12234.0 21 12268.0 -14 12316.0 -14C12400.0 -14 12485.0 121 12579.0 280H12592.0C12528.0 148 12497.0 77 12497.0 43C12497.0 4 12522.0 -6 12547.0 -6C12599.0 -6 12645.0 60 12677.0 129L12657.0 135C12622.0 75 12588.0 41 12569.0 41ZM12333.0 41C12316.0 41 12288.0 49 12288.0 100C12288.0 248 12462.0 436 12531.0 440C12559.0 438 12595.0 425 12617.0 399C12497.0 172 12402.0 41 12333.0 41Z" />
      <path d="M13103.0 -9C13160.0 -9 13201.0 58 13232.0 128L13212.0 133C13168.0 60 13142.0 41 13121.0 41C13108.0 41 13101.0 49 13101.0 64C13101.0 80 13108.0 101 13127.0 146L13194.0 302C13215.0 350 13222.0 382 13222.0 407C13222.0 464 13185.0 486 13137.0 486C13057.0 486 12985.0 393 12886.0 194H12873.0C12927.0 335 12952.0 402 12952.0 433C12952.0 476 12926.0 486 12902.0 486C12842.0 486 12801.0 419 12770.0 350L12790.0 345C12834.0 417 12863.0 436 12882.0 436C12896.0 436 12901.0 429 12901.0 416C12901.0 404 12896.0 385 12889.0 360L12783.0 0H12831.0C12900.0 197 13020.0 436 13121.0 436C13149.0 436 13170.0 426 13170.0 391C13170.0 375 13165.0 354 13149.0 316L13060.0 106C13050.0 83 13046.0 64 13046.0 48C13046.0 8 13075.0 -9 13103.0 -9Z" />
      <path d="M13628.0 41C13600.0 41 13605.0 71 13620.0 116L13821.0 710H13808.0L13645.0 684L13640.0 666L13684.0 664C13737.0 662 13747.0 641 13729.0 588L13684.0 458C13668.0 468 13647.0 474 13623.0 474C13482.0 474 13293.0 226 13293.0 88C13293.0 21 13327.0 -14 13375.0 -14C13464.0 -14 13551.0 130 13638.0 280H13650.0C13584.0 147 13555.0 77 13555.0 44C13555.0 5 13580.0 -6 13605.0 -6C13657.0 -6 13704.0 60 13736.0 129L13716.0 135C13680.0 75 13647.0 41 13628.0 41ZM13392.0 41C13375.0 41 13347.0 49 13347.0 100C13347.0 248 13521.0 436 13590.0 440C13618.0 438 13654.0 425 13676.0 399C13556.0 172 13461.0 41 13392.0 41Z" />
      <path d="M14104.0 0C14172.0 194 14286.0 411 14341.0 431C14351.0 419 14352.0 402 14359.0 390C14364.0 383 14371.0 376 14387.0 376C14418.0 376 14437.0 399 14437.0 425C14437.0 470 14407.0 486 14376.0 486C14350.0 486 14328.0 470 14306.0 443C14269.0 398 14215.0 307 14160.0 194H14147.0C14213.0 361 14229.0 405 14229.0 435C14229.0 477 14201.0 486 14176.0 486C14116.0 486 14075.0 419 14044.0 350L14064.0 345C14108.0 417 14137.0 436 14156.0 436C14170.0 436 14176.0 429 14176.0 415C14176.0 402 14171.0 385 14161.0 351L14057.0 0Z" />
      <path d="M14799.0 411C14799.0 464 14760.0 486 14706.0 486C14560.0 486 14429.0 274 14429.0 119C14429.0 25 14482.0 -14 14554.0 -14C14649.0 -14 14691.0 58 14727.0 136L14704.0 143C14672.0 79 14623.0 40 14570.0 40C14519.0 40 14480.0 68 14480.0 141C14480.0 169 14485.0 199 14494.0 229C14696.0 237 14799.0 322 14799.0 411ZM14698.0 460C14730.0 460 14746.0 442 14746.0 414C14746.0 347 14662.0 267 14502.0 254C14541.0 360 14624.0 460 14698.0 460Z" />
      <path d="M14950.0 -14C15026.0 -14 15103.0 89 15198.0 280H15211.0C15135.0 100 15128.0 77 15128.0 41C15128.0 6 15156.0 -12 15181.0 -12C15241.0 -12 15282.0 55 15313.0 124L15293.0 130C15249.0 58 15222.0 41 15206.0 41C15189.0 41 15184.0 48 15184.0 61C15184.0 75 15189.0 97 15197.0 126L15301.0 474H15254.0C15185.0 279 15060.0 41 14959.0 41C14935.0 41 14911.0 49 14911.0 84C14911.0 101 14918.0 125 14937.0 166L15023.0 353C15035.0 380 15046.0 409 15046.0 434C15046.0 476 15015.0 486 14990.0 486C14930.0 486 14889.0 419 14858.0 350L14878.0 345C14922.0 417 14950.0 436 14970.0 436C14984.0 436 14990.0 429 14990.0 414C14990.0 398 14984.0 376 14970.0 345L14894.0 184C14866.0 125 14859.0 93 14859.0 68C14859.0 11 14899.0 -14 14950.0 -14Z" />
      <path d="M15461.0 -14C15544.0 -14 15613.0 36 15613.0 114C15613.0 150 15600.0 176 15567.0 229L15531.0 288C15499.0 340 15491.0 357 15491.0 384C15491.0 427 15523.0 462 15588.0 467C15604.0 447 15607.0 426 15615.0 409C15623.0 391 15632.0 377 15655.0 377C15685.0 377 15698.0 398 15698.0 424C15698.0 464 15657.0 486 15598.0 486C15515.0 486 15445.0 436 15445.0 358C15445.0 322 15459.0 296 15492.0 243L15528.0 184C15560.0 132 15567.0 115 15567.0 88C15567.0 45 15536.0 10 15470.0 5C15454.0 25 15451.0 46 15443.0 63C15436.0 81 15427.0 95 15403.0 95C15374.0 95 15360.0 74 15360.0 48C15360.0 8 15402.0 -14 15461.0 -14Z" />
      <path d="M16053.0 41C16025.0 41 16030.0 71 16046.0 117L16175.0 494H16123.0L16110.0 457C16094.0 468 16073.0 474 16048.0 474C15907.0 474 15718.0 226 15718.0 88C15718.0 21 15752.0 -14 15800.0 -14C15884.0 -14 15969.0 121 16063.0 280H16076.0C16012.0 148 15981.0 77 15981.0 43C15981.0 4 16006.0 -6 16031.0 -6C16083.0 -6 16129.0 60 16161.0 129L16141.0 135C16106.0 75 16072.0 41 16053.0 41ZM15817.0 41C15800.0 41 15772.0 49 15772.0 100C15772.0 248 15946.0 436 16015.0 440C16043.0 438 16079.0 425 16101.0 399C15981.0 172 15886.0 41 15817.0 41Z" />
      <path d="M16348.0 -14C16492.0 -14 16669.0 204 16669.0 375C16669.0 461 16623.0 486 16577.0 486C16490.0 486 16418.0 382 16317.0 194H16304.0C16341.0 271 16379.0 356 16405.0 434L16498.0 710H16481.0L16341.0 684L16336.0 668L16374.0 665C16414.0 662 16422.0 641 16407.0 591L16223.0 47C16242.0 17 16283.0 -14 16348.0 -14ZM16351.0 12C16318.0 12 16292.0 25 16274.0 54C16320.0 172 16460.0 436 16564.0 436C16589.0 436 16614.0 423 16614.0 367C16614.0 236 16483.0 12 16351.0 12Z" />
      <path d="M16781.0 -9C16829.0 -9 16877.0 29 16936.0 158L16914.0 164C16860.0 65 16826.0 41 16799.0 41C16786.0 41 16779.0 47 16779.0 64C16779.0 74 16782.0 87 16796.0 129L16992.0 710H16975.0L16835.0 684L16830.0 668L16868.0 665C16908.0 662 16918.0 640 16901.0 591L16745.0 129C16730.0 85 16724.0 64 16724.0 46C16724.0 10 16747.0 -9 16781.0 -9Z" />
      <path d="M17373.0 411C17373.0 464 17334.0 486 17280.0 486C17134.0 486 17003.0 274 17003.0 119C17003.0 25 17056.0 -14 17128.0 -14C17223.0 -14 17265.0 58 17301.0 136L17278.0 143C17246.0 79 17197.0 40 17144.0 40C17093.0 40 17054.0 68 17054.0 141C17054.0 169 17059.0 199 17068.0 229C17270.0 237 17373.0 322 17373.0 411ZM17272.0 460C17304.0 460 17320.0 442 17320.0 414C17320.0 347 17236.0 267 17076.0 254C17115.0 360 17198.0 460 17272.0 460Z" />
      <path d="M17467.0 -9C17497.0 -9 17522.0 13 17522.0 46C17522.0 78 17497.0 99 17467.0 99C17438.0 99 17413.0 78 17413.0 46C17413.0 13 17438.0 -9 17467.0 -9Z" />
    </g>
  </g>
</svg>
