<svg xmlns="http://www.w3.org/2000/svg" width="820" height="56" viewBox="0 0 820 56" role="img" aria-labelledby="title">
  <title id="title">Build from real problems. Agent · Code · Data. Make ideas tangible, testable, and reusable.</title>
  <desc>Animated introduction lines in Georgia Italic, slower typing cycle.</desc>
  <defs>
    <style>

    svg { color: #000000; }
    @media (prefers-color-scheme: dark) {
      svg { color: #EDEDED; }
    }
    .clip-rect {
      animation-duration: 18s;
      animation-timing-function: steps(28, end);
      animation-iteration-count: infinite;
    }
    .clip-rect-0 { animation-name: type0; }
    .clip-rect-1 { animation-name: type1; }
    .clip-rect-2 { animation-name: type2; }
    .line-wrap {
      opacity: 0;
      animation-duration: 18s;
      animation-timing-function: linear;
      animation-iteration-count: infinite;
    }
    .line-wrap-0 { animation-name: show0; }
    .line-wrap-1 { animation-name: show1; }
    .line-wrap-2 { animation-name: show2; }
    @keyframes show0 {
      0%, 31%, 100% { opacity: 0; }
      1%, 29% { opacity: 1; }
    }
    @keyframes show1 {
      0%, 33%, 64%, 100% { opacity: 0; }
      34%, 62% { opacity: 1; }
    }
    @keyframes show2 {
      0%, 66%, 97%, 100% { opacity: 0; }
      67%, 95% { opacity: 1; }
    }
    @keyframes type0 {
      0% { width: 0; }
      14% { width: 317.3px; }
      28% { width: 317.3px; }
      31%, 100% { width: 0; }
    }
    @keyframes type1 {
      0%, 33% { width: 0; }
      47% { width: 246.1px; }
      61% { width: 246.1px; }
      64%, 100% { width: 0; }
    }
    @keyframes type2 {
      0%, 66% { width: 0; }
      80% { width: 531.5px; }
      94% { width: 531.5px; }
      97%, 100% { width: 0; }
    }

    </style>
    <clipPath id="clip0">
      <rect class="clip-rect clip-rect-0" x="255.37" y="0" width="0" height="56" />
    </clipPath>
    <clipPath id="clip1">
      <rect class="clip-rect clip-rect-1" x="290.93" y="0" width="0" height="56" />
    </clipPath>
    <clipPath id="clip2">
      <rect class="clip-rect clip-rect-2" x="148.25" y="0" width="0" height="56" />
    </clipPath>
  </defs>
  <g class="line-wrap line-wrap-0" clip-path="url(#clip0)">
    <g fill="currentColor" transform="translate(255.37 38.08) scale(0.013046 -0.013046)">
      <path d="M1181.0 1363Q1236.0 1333 1267.0 1283.5Q1298.0 1234 1298.0 1168Q1298.0 1077 1262.0 1008.0Q1226.0 939 1168.0 892Q1109.0 844 1034.5 812.5Q960.0 781 884.0 766V757Q942.0 750 1004.0 729.5Q1066.0 709 1116.0 675Q1169.0 640 1202.5 584.5Q1236.0 529 1236.0 453Q1236.0 340 1183.5 253.5Q1131.0 167 1051.0 113Q965.0 55 866.5 27.5Q768.0 0 664.0 0H-29.0L-13.0 66Q11.0 68 59.0 74.5Q107.0 81 128.0 90Q163.0 104 181.5 128.5Q200.0 153 208.0 188L445.0 1218Q447.0 1228 448.5 1237.5Q450.0 1247 450.0 1257Q450.0 1278 441.5 1293.5Q433.0 1309 412.0 1320Q383.0 1336 350.5 1343.5Q318.0 1351 290.0 1353L306.0 1419H932.0Q1003.0 1419 1064.5 1406.5Q1126.0 1394 1181.0 1363ZM969.0 902Q1016.0 957 1036.5 1018.5Q1057.0 1080 1057.0 1158Q1057.0 1211 1038.0 1248.0Q1019.0 1285 986.0 1307Q953.0 1328 913.0 1336.5Q873.0 1345 829.0 1345Q796.0 1345 755.5 1343.5Q715.0 1342 687.0 1341L560.0 789H685.0Q783.0 789 854.5 820.0Q926.0 851 969.0 902ZM904.0 216Q947.0 275 969.0 345.0Q991.0 415 991.0 483Q991.0 590 919.0 651.0Q847.0 712 717.0 712Q654.0 712 609.0 710.5Q564.0 709 541.0 708L428.0 219Q425.0 205 423.5 193.0Q422.0 181 422.0 170Q422.0 118 475.0 95.0Q528.0 72 610.0 72Q711.0 72 785.5 113.5Q860.0 155 904.0 216Z" />
      <path d="M2046.0 140H2040.0Q1994.0 103 1952.0 72.0Q1910.0 41 1869.0 20Q1821.0 -4 1782.0 -14.5Q1743.0 -25 1680.0 -25Q1584.0 -25 1531.0 30.5Q1478.0 86 1478.0 176Q1478.0 200 1482.0 233.0Q1486.0 266 1501.0 331L1579.0 648Q1589.0 692 1595.5 726.0Q1602.0 760 1602.0 791Q1602.0 847 1583.5 865.5Q1565.0 884 1508.0 884Q1486.0 884 1452.0 876.0Q1418.0 868 1399.0 863L1414.0 927Q1492.0 962 1551.5 980.0Q1611.0 998 1647.0 998Q1727.0 998 1764.5 960.5Q1802.0 923 1802.0 854Q1802.0 836 1798.0 805.0Q1794.0 774 1786.0 743L1697.0 373Q1687.0 331 1680.5 294.5Q1674.0 258 1674.0 239Q1674.0 172 1703.0 133.0Q1732.0 94 1795.0 94Q1859.0 94 1926.5 127.5Q1994.0 161 2062.0 229L2237.0 982L2411.0 994L2423.0 979L2274.0 335Q2264.0 294 2256.0 252.5Q2248.0 211 2248.0 194Q2248.0 137 2272.5 116.5Q2297.0 96 2354.0 96Q2373.0 96 2408.0 102.0Q2443.0 108 2462.0 115L2447.0 51Q2364.0 17 2308.5 0.0Q2253.0 -17 2206.0 -17Q2125.0 -17 2085.5 30.0Q2046.0 77 2046.0 140Z" />
      <path d="M3068.0 109 3053.0 45Q2961.0 8 2906.0 -6.5Q2851.0 -21 2812.0 -21Q2732.0 -21 2692.0 20.5Q2652.0 62 2652.0 123Q2652.0 146 2656.0 171.0Q2660.0 196 2669.0 234L2775.0 659Q2783.0 694 2790.5 734.0Q2798.0 774 2798.0 802Q2798.0 858 2779.5 876.5Q2761.0 895 2704.0 895Q2682.0 895 2645.5 888.0Q2609.0 881 2590.0 876L2605.0 940Q2683.0 975 2745.0 992.0Q2807.0 1009 2843.0 1009Q2925.0 1009 2962.0 970.0Q2999.0 931 2999.0 865Q2999.0 847 2995.0 816.0Q2991.0 785 2983.0 754L2876.0 329Q2866.0 290 2858.5 252.5Q2851.0 215 2851.0 191Q2851.0 134 2876.5 113.0Q2902.0 92 2959.0 92Q2978.0 92 3013.5 97.0Q3049.0 102 3068.0 109ZM3139.0 1387Q3139.0 1330 3102.0 1287.5Q3065.0 1245 3010.0 1245Q2959.0 1245 2922.0 1285.5Q2885.0 1326 2885.0 1378Q2885.0 1433 2922.0 1474.0Q2959.0 1515 3010.0 1515Q3067.0 1515 3103.0 1476.5Q3139.0 1438 3139.0 1387Z" />
      <path d="M3726.0 1533 3447.0 329Q3438.0 291 3430.0 253.0Q3422.0 215 3422.0 191Q3422.0 134 3447.5 113.0Q3473.0 92 3530.0 92Q3550.0 92 3589.5 97.0Q3629.0 102 3649.0 109L3634.0 45Q3544.0 9 3495.5 -6.0Q3447.0 -21 3386.0 -21Q3306.0 -21 3264.5 20.5Q3223.0 62 3223.0 123Q3223.0 146 3227.5 171.0Q3232.0 196 3240.0 234L3483.0 1287Q3490.0 1318 3492.5 1330.0Q3495.0 1342 3495.0 1360Q3495.0 1396 3483.0 1415.5Q3471.0 1435 3449.0 1445Q3428.0 1454 3396.0 1457.0Q3364.0 1460 3331.0 1464L3345.0 1525L3716.0 1548Z" />
      <path d="M4415.0 137H4408.0Q4386.0 118 4351.0 87.5Q4316.0 57 4278.0 34Q4230.0 4 4189.5 -12.0Q4149.0 -28 4090.0 -28Q3945.0 -28 3862.5 76.5Q3780.0 181 3780.0 361Q3780.0 487 3824.5 604.0Q3869.0 721 3946.0 812Q4021.0 900 4126.5 954.5Q4232.0 1009 4347.0 1009Q4416.0 1009 4484.0 991.0Q4552.0 973 4596.0 947L4674.0 1287Q4680.0 1314 4682.5 1329.0Q4685.0 1344 4685.0 1362Q4685.0 1398 4670.5 1417.0Q4656.0 1436 4630.0 1445Q4606.0 1454 4564.0 1457.0Q4522.0 1460 4488.0 1464L4502.0 1525L4907.0 1548L4917.0 1533L4640.0 334Q4632.0 301 4623.5 258.5Q4615.0 216 4615.0 194Q4615.0 137 4639.0 116.5Q4663.0 96 4720.0 96Q4739.0 96 4774.0 102.0Q4809.0 108 4828.0 115L4813.0 51Q4729.0 13 4674.0 -2.0Q4619.0 -17 4572.0 -17Q4500.0 -17 4457.5 20.5Q4415.0 58 4415.0 137ZM4556.0 774Q4554.0 803 4541.0 830.5Q4528.0 858 4508.0 880Q4485.0 905 4448.5 921.5Q4412.0 938 4362.0 938Q4285.0 938 4216.5 890.0Q4148.0 842 4096.0 762Q4046.0 685 4016.0 576.5Q3986.0 468 3986.0 359Q3986.0 298 3993.0 251.0Q4000.0 204 4020.0 164Q4039.0 127 4074.0 105.5Q4109.0 84 4167.0 84Q4222.0 84 4286.5 117.0Q4351.0 150 4430.0 232Z" />
      <path d="M5877.0 886 5701.0 60Q5654.0 -162 5503.0 -303.0Q5352.0 -444 5192.0 -444Q5104.0 -444 5062.5 -410.5Q5021.0 -377 5021.0 -326Q5021.0 -283 5047.0 -250.0Q5073.0 -217 5122.0 -217Q5153.0 -217 5176.5 -231.0Q5200.0 -245 5218.0 -266Q5232.0 -283 5249.5 -312.0Q5267.0 -341 5280.0 -362Q5357.0 -356 5411.5 -258.0Q5466.0 -160 5506.0 22L5690.0 886H5495.0L5516.0 977H5709.0L5723.0 1045Q5747.0 1161 5799.0 1254.0Q5851.0 1347 5917.0 1412Q5982.0 1476 6064.5 1512.5Q6147.0 1549 6223.0 1549Q6311.0 1549 6352.5 1515.5Q6394.0 1482 6394.0 1431Q6394.0 1388 6369.5 1355.0Q6345.0 1322 6293.0 1322Q6262.0 1322 6239.0 1335.5Q6216.0 1349 6198.0 1371Q6178.0 1396 6166.0 1418.0Q6154.0 1440 6136.0 1467Q6067.0 1464 6014.0 1376.0Q5961.0 1288 5918.0 1083L5896.0 977H6147.0L6126.0 886Z" />
      <path d="M7009.0 846Q7009.0 818 7001.0 784.5Q6993.0 751 6978.0 729Q6960.0 702 6938.5 687.5Q6917.0 673 6877.0 673Q6823.0 673 6796.0 700.0Q6769.0 727 6769.0 760Q6769.0 791 6784.0 829.5Q6799.0 868 6815.0 906Q6803.0 906 6775.5 899.5Q6748.0 893 6709.0 874Q6670.0 855 6620.5 817.0Q6571.0 779 6515.0 716L6354.0 0H6168.0L6314.0 648Q6319.0 672 6328.5 720.0Q6338.0 768 6338.0 791Q6338.0 847 6319.0 866.0Q6300.0 885 6243.0 885Q6221.0 885 6187.0 877.5Q6153.0 870 6134.0 865L6149.0 929Q6227.0 964 6287.0 981.0Q6347.0 998 6390.0 998Q6470.0 998 6504.0 954.5Q6538.0 911 6538.0 824H6544.0Q6663.0 927 6724.5 968.0Q6786.0 1009 6853.0 1009Q6885.0 1009 6915.0 1001.0Q6945.0 993 6966.0 974Q6988.0 953 6998.5 925.5Q7009.0 898 7009.0 846Z" />
      <path d="M8033.0 616Q8033.0 498 7993.0 380.0Q7953.0 262 7877.0 173Q7800.0 81 7691.5 25.5Q7583.0 -30 7440.0 -30Q7274.0 -30 7170.5 77.0Q7067.0 184 7067.0 365Q7067.0 498 7111.0 613.0Q7155.0 728 7229.0 815Q7304.0 902 7414.5 955.5Q7525.0 1009 7654.0 1009Q7832.0 1009 7932.5 900.5Q8033.0 792 8033.0 616ZM7829.0 654Q7829.0 796 7778.5 867.0Q7728.0 938 7633.0 938Q7550.0 938 7476.5 887.0Q7403.0 836 7350.0 721Q7309.0 634 7290.0 527.5Q7271.0 421 7271.0 331Q7271.0 188 7320.5 114.5Q7370.0 41 7470.0 41Q7559.0 41 7628.0 97.0Q7697.0 153 7740.0 239Q7783.0 323 7806.0 431.5Q7829.0 540 7829.0 654Z" />
      <path d="M9843.0 113 9828.0 49Q9736.0 12 9681.0 -2.5Q9626.0 -17 9587.0 -17Q9507.0 -17 9467.0 24.5Q9427.0 66 9427.0 127Q9427.0 149 9431.0 175.5Q9435.0 202 9444.0 238L9542.0 611Q9553.0 654 9559.5 689.0Q9566.0 724 9566.0 745Q9566.0 812 9537.0 851.0Q9508.0 890 9445.0 890Q9378.0 890 9313.5 858.5Q9249.0 827 9168.0 741L8994.0 0H8808.0L8965.0 668Q8970.0 690 8974.5 714.5Q8979.0 739 8979.0 751Q8979.0 816 8946.5 853.0Q8914.0 890 8851.0 890Q8794.0 890 8725.0 861.5Q8656.0 833 8565.0 734L8396.0 0H8210.0L8359.0 648Q8367.0 683 8374.5 723.0Q8382.0 763 8382.0 791Q8382.0 849 8363.0 867.5Q8344.0 886 8289.0 886Q8267.0 886 8232.5 878.0Q8198.0 870 8179.0 865L8194.0 929Q8272.0 964 8332.0 981.0Q8392.0 998 8435.0 998Q8515.0 998 8548.5 954.5Q8582.0 911 8584.0 836H8590.0Q8708.0 929 8784.0 969.0Q8860.0 1009 8965.0 1009Q9054.0 1009 9109.5 957.5Q9165.0 906 9172.0 828H9176.0Q9283.0 917 9366.5 963.0Q9450.0 1009 9561.0 1009Q9657.0 1009 9708.5 953.5Q9760.0 898 9760.0 808Q9760.0 790 9754.5 744.0Q9749.0 698 9737.0 653L9653.0 332Q9644.0 300 9636.0 258.5Q9628.0 217 9628.0 194Q9628.0 137 9652.0 116.5Q9676.0 96 9733.0 96Q9752.0 96 9788.0 101.0Q9824.0 106 9843.0 113Z" />
      <path d="M11349.0 846Q11349.0 818 11341.0 784.5Q11333.0 751 11318.0 729Q11300.0 702 11278.5 687.5Q11257.0 673 11217.0 673Q11163.0 673 11136.0 700.0Q11109.0 727 11109.0 760Q11109.0 791 11124.0 829.5Q11139.0 868 11155.0 906Q11143.0 906 11115.5 899.5Q11088.0 893 11049.0 874Q11010.0 855 10960.5 817.0Q10911.0 779 10855.0 716L10694.0 0H10508.0L10654.0 648Q10659.0 672 10668.5 720.0Q10678.0 768 10678.0 791Q10678.0 847 10659.0 866.0Q10640.0 885 10583.0 885Q10561.0 885 10527.0 877.5Q10493.0 870 10474.0 865L10489.0 929Q10567.0 964 10627.0 981.0Q10687.0 998 10730.0 998Q10810.0 998 10844.0 954.5Q10878.0 911 10878.0 824H10884.0Q11003.0 927 11064.5 968.0Q11126.0 1009 11193.0 1009Q11225.0 1009 11255.0 1001.0Q11285.0 993 11306.0 974Q11328.0 953 11338.5 925.5Q11349.0 898 11349.0 846Z" />
      <path d="M12266.0 801Q12266.0 695 12199.5 619.0Q12133.0 543 12006.0 498Q11913.0 464 11818.0 443.0Q11723.0 422 11608.0 408Q11608.0 250 11666.5 166.5Q11725.0 83 11838.0 83Q11938.0 83 12014.5 133.0Q12091.0 183 12165.0 282L12222.0 240Q12142.0 118 12022.0 45.0Q11902.0 -28 11773.0 -28Q11596.0 -28 11502.5 71.0Q11409.0 170 11409.0 352Q11409.0 478 11448.5 592.5Q11488.0 707 11564.0 802Q11638.0 895 11745.5 952.0Q11853.0 1009 11983.0 1009Q12127.0 1009 12196.5 950.5Q12266.0 892 12266.0 801ZM12082.0 826Q12082.0 865 12071.0 887.5Q12060.0 910 12043.0 921Q12025.0 933 12005.0 936.0Q11985.0 939 11964.0 939Q11844.0 939 11742.5 807.0Q11641.0 675 11614.0 478Q11684.0 488 11772.0 506.5Q11860.0 525 11918.0 555Q12001.0 598 12041.5 665.5Q12082.0 733 12082.0 826Z" />
      <path d="M13002.0 132H12995.0Q12973.0 114 12942.5 86.5Q12912.0 59 12871.0 34Q12832.0 9 12786.0 -9.5Q12740.0 -28 12686.0 -28Q12541.0 -28 12458.5 76.0Q12376.0 180 12376.0 360Q12376.0 484 12422.0 601.0Q12468.0 718 12549.0 811Q12626.0 900 12732.0 954.5Q12838.0 1009 12950.0 1009Q13021.0 1009 13085.5 990.0Q13150.0 971 13187.0 947L13370.0 994L13382.0 979L13230.0 334Q13222.0 303 13213.5 258.5Q13205.0 214 13205.0 193Q13205.0 136 13229.0 116.0Q13253.0 96 13310.0 96Q13329.0 96 13364.0 102.0Q13399.0 108 13418.0 115L13403.0 51Q13313.0 15 13269.0 -1.0Q13225.0 -17 13162.0 -17Q13090.0 -17 13048.0 25.0Q13006.0 67 13002.0 132ZM13145.0 764Q13145.0 797 13138.0 827.0Q13131.0 857 13109.0 883Q13089.0 908 13054.0 923.0Q13019.0 938 12966.0 938Q12893.0 938 12824.0 890.0Q12755.0 842 12700.0 761Q12648.0 685 12615.0 577.0Q12582.0 469 12582.0 358Q12582.0 297 12589.0 250.0Q12596.0 203 12616.0 164Q12635.0 126 12671.0 105.0Q12707.0 84 12762.0 84Q12818.0 84 12879.5 115.5Q12941.0 147 13018.0 226Z" />
      <path d="M14079.0 1533 13800.0 329Q13791.0 291 13783.0 253.0Q13775.0 215 13775.0 191Q13775.0 134 13800.5 113.0Q13826.0 92 13883.0 92Q13903.0 92 13942.5 97.0Q13982.0 102 14002.0 109L13987.0 45Q13897.0 9 13848.5 -6.0Q13800.0 -21 13739.0 -21Q13659.0 -21 13617.5 20.5Q13576.0 62 13576.0 123Q13576.0 146 13580.5 171.0Q13585.0 196 13593.0 234L13836.0 1287Q13843.0 1318 13845.5 1330.0Q13848.0 1342 13848.0 1360Q13848.0 1396 13836.0 1415.5Q13824.0 1435 13802.0 1445Q13781.0 1454 13749.0 1457.0Q13717.0 1460 13684.0 1464L13698.0 1525L14069.0 1548Z" />
      <path d="M15671.0 627Q15671.0 493 15624.0 373.0Q15577.0 253 15499.0 165Q15412.0 68 15310.5 21.0Q15209.0 -26 15102.0 -26Q15016.0 -26 14961.0 -5.0Q14906.0 16 14863.0 47L14805.0 -215Q14799.0 -240 14795.5 -262.0Q14792.0 -284 14792.0 -297Q14792.0 -324 14811.5 -340.0Q14831.0 -356 14856.0 -363Q14881.0 -371 14912.0 -375.0Q14943.0 -379 14968.0 -381L14954.0 -444H14403.0L14417.0 -381Q14449.0 -379 14477.0 -376.0Q14505.0 -373 14530.0 -366Q14561.0 -357 14579.5 -332.5Q14598.0 -308 14606.0 -272L14815.0 648Q14823.0 686 14830.0 724.5Q14837.0 763 14837.0 791Q14837.0 847 14819.5 866.0Q14802.0 885 14744.0 885Q14722.0 885 14688.0 876.5Q14654.0 868 14635.0 863L14650.0 927Q14726.0 961 14787.0 979.5Q14848.0 998 14891.0 998Q14961.0 998 14997.0 962.5Q15033.0 927 15042.0 864H15050.0Q15118.0 927 15195.5 968.0Q15273.0 1009 15350.0 1009Q15502.0 1009 15586.5 905.5Q15671.0 802 15671.0 627ZM15359.0 214Q15410.0 296 15437.5 400.5Q15465.0 505 15465.0 622Q15465.0 675 15455.5 728.5Q15446.0 782 15425.0 817Q15403.0 856 15365.0 877.5Q15327.0 899 15265.0 899Q15219.0 899 15163.5 871.0Q15108.0 843 15028.0 766L14900.0 199Q14907.0 142 14961.5 92.5Q15016.0 43 15093.0 43Q15172.0 43 15241.0 89.0Q15310.0 135 15359.0 214Z" />
      <path d="M16695.0 846Q16695.0 818 16687.0 784.5Q16679.0 751 16664.0 729Q16646.0 702 16624.5 687.5Q16603.0 673 16563.0 673Q16509.0 673 16482.0 700.0Q16455.0 727 16455.0 760Q16455.0 791 16470.0 829.5Q16485.0 868 16501.0 906Q16489.0 906 16461.5 899.5Q16434.0 893 16395.0 874Q16356.0 855 16306.5 817.0Q16257.0 779 16201.0 716L16040.0 0H15854.0L16000.0 648Q16005.0 672 16014.5 720.0Q16024.0 768 16024.0 791Q16024.0 847 16005.0 866.0Q15986.0 885 15929.0 885Q15907.0 885 15873.0 877.5Q15839.0 870 15820.0 865L15835.0 929Q15913.0 964 15973.0 981.0Q16033.0 998 16076.0 998Q16156.0 998 16190.0 954.5Q16224.0 911 16224.0 824H16230.0Q16349.0 927 16410.5 968.0Q16472.0 1009 16539.0 1009Q16571.0 1009 16601.0 1001.0Q16631.0 993 16652.0 974Q16674.0 953 16684.5 925.5Q16695.0 898 16695.0 846Z" />
      <path d="M17719.0 616Q17719.0 498 17679.0 380.0Q17639.0 262 17563.0 173Q17486.0 81 17377.5 25.5Q17269.0 -30 17126.0 -30Q16960.0 -30 16856.5 77.0Q16753.0 184 16753.0 365Q16753.0 498 16797.0 613.0Q16841.0 728 16915.0 815Q16990.0 902 17100.5 955.5Q17211.0 1009 17340.0 1009Q17518.0 1009 17618.5 900.5Q17719.0 792 17719.0 616ZM17515.0 654Q17515.0 796 17464.5 867.0Q17414.0 938 17319.0 938Q17236.0 938 17162.5 887.0Q17089.0 836 17036.0 721Q16995.0 634 16976.0 527.5Q16957.0 421 16957.0 331Q16957.0 188 17006.5 114.5Q17056.0 41 17156.0 41Q17245.0 41 17314.0 97.0Q17383.0 153 17426.0 239Q17469.0 323 17492.0 431.5Q17515.0 540 17515.0 654Z" />
      <path d="M18850.0 627Q18850.0 494 18802.0 372.5Q18754.0 251 18675.0 163Q18594.0 73 18492.0 21.5Q18390.0 -30 18276.0 -30Q18190.0 -30 18124.5 -15.5Q18059.0 -1 18013.0 24Q17966.0 50 17935.0 82.5Q17904.0 115 17879.0 155L18137.0 1287Q18142.0 1310 18145.5 1326.5Q18149.0 1343 18149.0 1360Q18149.0 1396 18137.0 1415.5Q18125.0 1435 18103.0 1445Q18082.0 1454 18050.0 1457.0Q18018.0 1460 17985.0 1464L17999.0 1525L18370.0 1548L18380.0 1533L18228.0 868H18232.0Q18322.0 948 18390.5 978.5Q18459.0 1009 18524.0 1009Q18676.0 1009 18763.0 905.5Q18850.0 802 18850.0 627ZM18644.0 622Q18644.0 675 18634.5 728.5Q18625.0 782 18603.0 818Q18580.0 856 18540.0 878.0Q18500.0 900 18441.0 900Q18406.0 900 18375.0 888.0Q18344.0 876 18311.0 856Q18282.0 838 18254.5 812.5Q18227.0 787 18204.0 767L18071.0 174Q18074.0 154 18089.0 130.0Q18104.0 106 18127.0 88Q18155.0 65 18190.0 53.0Q18225.0 41 18267.0 41Q18346.0 41 18415.5 87.5Q18485.0 134 18535.0 213Q18590.0 299 18617.0 405.0Q18644.0 511 18644.0 622Z" />
      <path d="M19520.0 1533 19241.0 329Q19232.0 291 19224.0 253.0Q19216.0 215 19216.0 191Q19216.0 134 19241.5 113.0Q19267.0 92 19324.0 92Q19344.0 92 19383.5 97.0Q19423.0 102 19443.0 109L19428.0 45Q19338.0 9 19289.5 -6.0Q19241.0 -21 19180.0 -21Q19100.0 -21 19058.5 20.5Q19017.0 62 19017.0 123Q19017.0 146 19021.5 171.0Q19026.0 196 19034.0 234L19277.0 1287Q19284.0 1318 19286.5 1330.0Q19289.0 1342 19289.0 1360Q19289.0 1396 19277.0 1415.5Q19265.0 1435 19243.0 1445Q19222.0 1454 19190.0 1457.0Q19158.0 1460 19125.0 1464L19139.0 1525L19510.0 1548Z" />
      <path d="M20430.0 801Q20430.0 695 20363.5 619.0Q20297.0 543 20170.0 498Q20077.0 464 19982.0 443.0Q19887.0 422 19772.0 408Q19772.0 250 19830.5 166.5Q19889.0 83 20002.0 83Q20102.0 83 20178.5 133.0Q20255.0 183 20329.0 282L20386.0 240Q20306.0 118 20186.0 45.0Q20066.0 -28 19937.0 -28Q19760.0 -28 19666.5 71.0Q19573.0 170 19573.0 352Q19573.0 478 19612.5 592.5Q19652.0 707 19728.0 802Q19802.0 895 19909.5 952.0Q20017.0 1009 20147.0 1009Q20291.0 1009 20360.5 950.5Q20430.0 892 20430.0 801ZM20246.0 826Q20246.0 865 20235.0 887.5Q20224.0 910 20207.0 921Q20189.0 933 20169.0 936.0Q20149.0 939 20128.0 939Q20008.0 939 19906.5 807.0Q19805.0 675 19778.0 478Q19848.0 488 19936.0 506.5Q20024.0 525 20082.0 555Q20165.0 598 20205.5 665.5Q20246.0 733 20246.0 826Z" />
      <path d="M22213.0 113 22198.0 49Q22106.0 12 22051.0 -2.5Q21996.0 -17 21957.0 -17Q21877.0 -17 21837.0 24.5Q21797.0 66 21797.0 127Q21797.0 149 21801.0 175.5Q21805.0 202 21814.0 238L21912.0 611Q21923.0 654 21929.5 689.0Q21936.0 724 21936.0 745Q21936.0 812 21907.0 851.0Q21878.0 890 21815.0 890Q21748.0 890 21683.5 858.5Q21619.0 827 21538.0 741L21364.0 0H21178.0L21335.0 668Q21340.0 690 21344.5 714.5Q21349.0 739 21349.0 751Q21349.0 816 21316.5 853.0Q21284.0 890 21221.0 890Q21164.0 890 21095.0 861.5Q21026.0 833 20935.0 734L20766.0 0H20580.0L20729.0 648Q20737.0 683 20744.5 723.0Q20752.0 763 20752.0 791Q20752.0 849 20733.0 867.5Q20714.0 886 20659.0 886Q20637.0 886 20602.5 878.0Q20568.0 870 20549.0 865L20564.0 929Q20642.0 964 20702.0 981.0Q20762.0 998 20805.0 998Q20885.0 998 20918.5 954.5Q20952.0 911 20954.0 836H20960.0Q21078.0 929 21154.0 969.0Q21230.0 1009 21335.0 1009Q21424.0 1009 21479.5 957.5Q21535.0 906 21542.0 828H21546.0Q21653.0 917 21736.5 963.0Q21820.0 1009 21931.0 1009Q22027.0 1009 22078.5 953.5Q22130.0 898 22130.0 808Q22130.0 790 22124.5 744.0Q22119.0 698 22107.0 653L22023.0 332Q22014.0 300 22006.0 258.5Q21998.0 217 21998.0 194Q21998.0 137 22022.0 116.5Q22046.0 96 22103.0 96Q22122.0 96 22158.0 101.0Q22194.0 106 22213.0 113Z" />
      <path d="M22633.0 -29Q22485.0 -29 22386.5 23.5Q22288.0 76 22288.0 161Q22288.0 201 22317.0 236.0Q22346.0 271 22388.0 271Q22428.0 271 22452.5 252.5Q22477.0 234 22491.0 209Q22506.0 183 22517.5 147.0Q22529.0 111 22537.0 88Q22552.0 71 22578.5 56.5Q22605.0 42 22655.0 42Q22763.0 42 22818.5 96.0Q22874.0 150 22874.0 242Q22874.0 310 22822.0 350.5Q22770.0 391 22667.0 425Q22630.0 437 22580.0 461.5Q22530.0 486 22500.0 514Q22464.0 546 22442.0 590.0Q22420.0 634 22420.0 694Q22420.0 822 22534.5 915.5Q22649.0 1009 22816.0 1009Q22855.0 1009 22900.0 1005.0Q22945.0 1001 22999.0 983Q23046.0 967 23079.0 935.5Q23112.0 904 23112.0 854Q23112.0 813 23084.5 779.5Q23057.0 746 23012.0 746Q22975.0 746 22951.0 762.0Q22927.0 778 22911.0 805Q22895.0 832 22885.0 863.0Q22875.0 894 22863.0 924Q22844.0 932 22829.0 935.0Q22814.0 938 22789.0 938Q22691.0 938 22640.5 885.5Q22590.0 833 22590.0 761Q22590.0 691 22635.5 655.5Q22681.0 620 22786.0 582Q22922.0 533 22983.5 470.0Q23045.0 407 23045.0 314Q23045.0 162 22928.0 66.5Q22811.0 -29 22633.0 -29Z" />
      <path d="M23554.0 115Q23554.0 59 23513.5 19.5Q23473.0 -20 23417.0 -20Q23361.0 -20 23320.5 19.5Q23280.0 59 23280.0 115Q23280.0 171 23320.5 211.5Q23361.0 252 23417.0 252Q23473.0 252 23513.5 211.5Q23554.0 171 23554.0 115Z" />
    </g>
  </g>
  <g class="line-wrap line-wrap-1" clip-path="url(#clip1)">
    <g fill="currentColor" transform="translate(290.93 38.08) scale(0.013046 -0.013046)">
      <path d="M875.0 576 786.0 1130 446.0 576ZM722.0 0 737.0 66Q768.0 69 809.5 74.5Q851.0 80 874.0 87Q905.0 97 920.5 108.0Q936.0 119 936.0 142Q936.0 150 924.0 240.0Q912.0 330 890.0 493H392.0Q359.0 441 322.0 372.5Q285.0 304 265.0 268Q247.0 236 230.5 196.5Q214.0 157 214.0 144Q214.0 111 267.0 91.0Q320.0 71 400.0 66L385.0 0H-160.0L-145.0 66Q-119.0 68 -77.5 77.5Q-36.0 87 -8.0 103Q27.0 123 59.5 152.5Q92.0 182 129.0 241Q302.0 515 508.5 851.0Q715.0 1187 872.0 1439H952.0L1141.0 210Q1147.0 173 1161.0 147.5Q1175.0 122 1203.0 100Q1223.0 86 1257.0 76.5Q1291.0 67 1317.0 66L1302.0 0Z" />
      <path d="M2083.0 135 2076.0 137Q2056.0 121 2019.5 92.0Q1983.0 63 1943.0 41Q1897.0 14 1850.0 -3.0Q1803.0 -20 1746.0 -20Q1601.0 -20 1522.5 82.5Q1444.0 185 1444.0 365Q1444.0 489 1489.5 606.0Q1535.0 723 1614.0 814Q1690.0 902 1796.0 955.5Q1902.0 1009 2018.0 1009Q2090.0 1009 2154.0 990.5Q2218.0 972 2257.0 947L2440.0 994L2452.0 979L2284.0 191Q2246.0 12 2186.5 -111.5Q2127.0 -235 2049.0 -307Q1969.0 -381 1872.5 -412.5Q1776.0 -444 1654.0 -444Q1571.0 -444 1518.5 -431.0Q1466.0 -418 1436.0 -397Q1406.0 -376 1395.5 -349.5Q1385.0 -323 1385.0 -299Q1385.0 -254 1412.0 -223.5Q1439.0 -193 1486.0 -193Q1523.0 -193 1549.0 -214.5Q1575.0 -236 1591.0 -261Q1608.0 -287 1624.0 -323.0Q1640.0 -359 1648.0 -377H1678.0Q1733.0 -377 1796.0 -352.0Q1859.0 -327 1911.0 -271Q1964.0 -213 2010.0 -115.5Q2056.0 -18 2083.0 135ZM2217.0 774Q2217.0 802 2208.5 831.5Q2200.0 861 2177.0 886Q2155.0 910 2121.0 924.0Q2087.0 938 2034.0 938Q1957.0 938 1888.5 891.5Q1820.0 845 1765.0 764Q1714.0 688 1682.0 580.0Q1650.0 472 1650.0 363Q1650.0 304 1658.5 254.5Q1667.0 205 1688.0 168Q1709.0 131 1743.5 110.5Q1778.0 90 1833.0 90Q1903.0 90 1972.0 130.5Q2041.0 171 2103.0 234Z" />
      <path d="M3473.0 801Q3473.0 695 3406.5 619.0Q3340.0 543 3213.0 498Q3120.0 464 3025.0 443.0Q2930.0 422 2815.0 408Q2815.0 250 2873.5 166.5Q2932.0 83 3045.0 83Q3145.0 83 3221.5 133.0Q3298.0 183 3372.0 282L3429.0 240Q3349.0 118 3229.0 45.0Q3109.0 -28 2980.0 -28Q2803.0 -28 2709.5 71.0Q2616.0 170 2616.0 352Q2616.0 478 2655.5 592.5Q2695.0 707 2771.0 802Q2845.0 895 2952.5 952.0Q3060.0 1009 3190.0 1009Q3334.0 1009 3403.5 950.5Q3473.0 892 3473.0 801ZM3289.0 826Q3289.0 865 3278.0 887.5Q3267.0 910 3250.0 921Q3232.0 933 3212.0 936.0Q3192.0 939 3171.0 939Q3051.0 939 2949.5 807.0Q2848.0 675 2821.0 478Q2891.0 488 2979.0 506.5Q3067.0 525 3125.0 555Q3208.0 598 3248.5 665.5Q3289.0 733 3289.0 826Z" />
      <path d="M4662.0 116 4647.0 52Q4557.0 16 4507.0 -0.5Q4457.0 -17 4406.0 -17Q4326.0 -17 4286.0 24.5Q4246.0 66 4246.0 127Q4246.0 149 4250.0 175.5Q4254.0 202 4263.0 238L4361.0 611Q4372.0 654 4378.5 689.0Q4385.0 724 4385.0 745Q4385.0 812 4353.0 851.0Q4321.0 890 4258.0 890Q4197.0 890 4121.0 850.0Q4045.0 810 3978.0 734L3809.0 0H3623.0L3772.0 648Q3777.0 672 3786.5 717.5Q3796.0 763 3796.0 791Q3796.0 847 3777.0 866.0Q3758.0 885 3701.0 885Q3679.0 885 3645.0 877.5Q3611.0 870 3592.0 865L3607.0 929Q3685.0 964 3745.0 981.0Q3805.0 998 3848.0 998Q3927.0 998 3961.0 955.0Q3995.0 912 3997.0 836H4003.0Q4113.0 924 4193.0 966.5Q4273.0 1009 4375.0 1009Q4471.0 1009 4525.0 953.5Q4579.0 898 4579.0 808Q4579.0 790 4573.5 744.0Q4568.0 698 4556.0 653L4472.0 332Q4463.0 300 4454.5 258.5Q4446.0 217 4446.0 194Q4446.0 137 4471.0 116.5Q4496.0 96 4553.0 96Q4572.0 96 4607.5 102.5Q4643.0 109 4662.0 116Z" />
      <path d="M5024.0 -21Q4929.0 -21 4885.0 17.5Q4841.0 56 4841.0 128Q4841.0 151 4844.0 171.5Q4847.0 192 4852.0 218L5007.0 886H4829.0L4850.0 977H5032.0L5102.0 1270H5282.0L5214.0 977H5493.0L5472.0 886H5195.0L5067.0 335Q5058.0 297 5052.0 261.5Q5046.0 226 5046.0 201Q5046.0 146 5073.5 120.5Q5101.0 95 5173.0 95Q5199.0 95 5246.0 101.5Q5293.0 108 5319.0 118L5302.0 45Q5232.0 18 5170.0 -1.5Q5108.0 -21 5024.0 -21Z" />
      <path d="M6359.0 559Q6359.0 503 6318.5 463.5Q6278.0 424 6222.0 424Q6166.0 424 6125.5 463.5Q6085.0 503 6085.0 559Q6085.0 615 6125.5 655.5Q6166.0 696 6222.0 696Q6278.0 696 6318.5 655.5Q6359.0 615 6359.0 559Z" />
      <path d="M7623.0 -33Q7514.0 -33 7417.0 5.0Q7320.0 43 7248.0 116Q7175.0 190 7133.5 295.0Q7092.0 400 7092.0 532Q7092.0 721 7156.0 885.0Q7220.0 1049 7332.0 1178Q7440.0 1302 7591.5 1377.0Q7743.0 1452 7908.0 1452Q8033.0 1452 8127.5 1423.0Q8222.0 1394 8283.0 1351L8339.0 1419H8419.0L8311.0 913H8229.0V953Q8229.0 1035 8216.0 1109.5Q8203.0 1184 8166.0 1244Q8130.0 1302 8067.5 1336.5Q8005.0 1371 7908.0 1371Q7785.0 1371 7679.5 1305.5Q7574.0 1240 7497.0 1131Q7421.0 1025 7375.0 870.0Q7329.0 715 7329.0 554Q7329.0 341 7433.5 208.5Q7538.0 76 7714.0 76Q7861.0 76 7984.5 163.0Q8108.0 250 8186.0 396L8258.0 358Q8132.0 143 7977.0 55.0Q7822.0 -33 7623.0 -33Z" />
      <path d="M9340.0 616Q9340.0 498 9300.0 380.0Q9260.0 262 9184.0 173Q9107.0 81 8998.5 25.5Q8890.0 -30 8747.0 -30Q8581.0 -30 8477.5 77.0Q8374.0 184 8374.0 365Q8374.0 498 8418.0 613.0Q8462.0 728 8536.0 815Q8611.0 902 8721.5 955.5Q8832.0 1009 8961.0 1009Q9139.0 1009 9239.5 900.5Q9340.0 792 9340.0 616ZM9136.0 654Q9136.0 796 9085.5 867.0Q9035.0 938 8940.0 938Q8857.0 938 8783.5 887.0Q8710.0 836 8657.0 721Q8616.0 634 8597.0 527.5Q8578.0 421 8578.0 331Q8578.0 188 8627.5 114.5Q8677.0 41 8777.0 41Q8866.0 41 8935.0 97.0Q9004.0 153 9047.0 239Q9090.0 323 9113.0 431.5Q9136.0 540 9136.0 654Z" />
      <path d="M10112.0 137H10105.0Q10083.0 118 10048.0 87.5Q10013.0 57 9975.0 34Q9927.0 4 9886.5 -12.0Q9846.0 -28 9787.0 -28Q9642.0 -28 9559.5 76.5Q9477.0 181 9477.0 361Q9477.0 487 9521.5 604.0Q9566.0 721 9643.0 812Q9718.0 900 9823.5 954.5Q9929.0 1009 10044.0 1009Q10113.0 1009 10181.0 991.0Q10249.0 973 10293.0 947L10371.0 1287Q10377.0 1314 10379.5 1329.0Q10382.0 1344 10382.0 1362Q10382.0 1398 10367.5 1417.0Q10353.0 1436 10327.0 1445Q10303.0 1454 10261.0 1457.0Q10219.0 1460 10185.0 1464L10199.0 1525L10604.0 1548L10614.0 1533L10337.0 334Q10329.0 301 10320.5 258.5Q10312.0 216 10312.0 194Q10312.0 137 10336.0 116.5Q10360.0 96 10417.0 96Q10436.0 96 10471.0 102.0Q10506.0 108 10525.0 115L10510.0 51Q10426.0 13 10371.0 -2.0Q10316.0 -17 10269.0 -17Q10197.0 -17 10154.5 20.5Q10112.0 58 10112.0 137ZM10253.0 774Q10251.0 803 10238.0 830.5Q10225.0 858 10205.0 880Q10182.0 905 10145.5 921.5Q10109.0 938 10059.0 938Q9982.0 938 9913.5 890.0Q9845.0 842 9793.0 762Q9743.0 685 9713.0 576.5Q9683.0 468 9683.0 359Q9683.0 298 9690.0 251.0Q9697.0 204 9717.0 164Q9736.0 127 9771.0 105.5Q9806.0 84 9864.0 84Q9919.0 84 9983.5 117.0Q10048.0 150 10127.0 232Z" />
      <path d="M11511.0 801Q11511.0 695 11444.5 619.0Q11378.0 543 11251.0 498Q11158.0 464 11063.0 443.0Q10968.0 422 10853.0 408Q10853.0 250 10911.5 166.5Q10970.0 83 11083.0 83Q11183.0 83 11259.5 133.0Q11336.0 183 11410.0 282L11467.0 240Q11387.0 118 11267.0 45.0Q11147.0 -28 11018.0 -28Q10841.0 -28 10747.5 71.0Q10654.0 170 10654.0 352Q10654.0 478 10693.5 592.5Q10733.0 707 10809.0 802Q10883.0 895 10990.5 952.0Q11098.0 1009 11228.0 1009Q11372.0 1009 11441.5 950.5Q11511.0 892 11511.0 801ZM11327.0 826Q11327.0 865 11316.0 887.5Q11305.0 910 11288.0 921Q11270.0 933 11250.0 936.0Q11230.0 939 11209.0 939Q11089.0 939 10987.5 807.0Q10886.0 675 10859.0 478Q10929.0 488 11017.0 506.5Q11105.0 525 11163.0 555Q11246.0 598 11286.5 665.5Q11327.0 733 11327.0 826Z" />
      <path d="M12478.0 559Q12478.0 503 12437.5 463.5Q12397.0 424 12341.0 424Q12285.0 424 12244.5 463.5Q12204.0 503 12204.0 559Q12204.0 615 12244.5 655.5Q12285.0 696 12341.0 696Q12397.0 696 12437.5 655.5Q12478.0 615 12478.0 559Z" />
      <path d="M14626.0 872Q14626.0 669 14547.0 503.5Q14468.0 338 14340.0 229Q14207.0 116 14043.5 58.0Q13880.0 0 13701.0 0H13082.0L13097.0 66Q13123.0 66 13170.5 71.0Q13218.0 76 13238.0 84Q13274.0 98 13292.5 123.5Q13311.0 149 13318.0 184L13554.0 1205Q13557.0 1217 13559.5 1231.5Q13562.0 1246 13562.0 1255Q13562.0 1277 13554.5 1293.5Q13547.0 1310 13524.0 1321Q13498.0 1333 13460.0 1341.5Q13422.0 1350 13402.0 1353L13417.0 1419H14018.0Q14108.0 1419 14214.0 1393.5Q14320.0 1368 14412.0 1306Q14509.0 1241 14567.5 1132.5Q14626.0 1024 14626.0 872ZM14391.0 871Q14391.0 1095 14271.0 1219.0Q14151.0 1343 13952.0 1343Q13911.0 1343 13867.0 1341.5Q13823.0 1340 13798.0 1339L13544.0 238Q13541.0 224 13539.0 211.0Q13537.0 198 13537.0 186Q13537.0 126 13587.0 101.5Q13637.0 77 13751.0 77Q13900.0 77 14022.5 145.0Q14145.0 213 14226.0 326Q14309.0 443 14350.0 581.0Q14391.0 719 14391.0 871Z" />
      <path d="M15341.0 132H15334.0Q15312.0 114 15281.5 86.5Q15251.0 59 15210.0 34Q15171.0 9 15125.0 -9.5Q15079.0 -28 15025.0 -28Q14880.0 -28 14797.5 76.0Q14715.0 180 14715.0 360Q14715.0 484 14761.0 601.0Q14807.0 718 14888.0 811Q14965.0 900 15071.0 954.5Q15177.0 1009 15289.0 1009Q15360.0 1009 15424.5 990.0Q15489.0 971 15526.0 947L15709.0 994L15721.0 979L15569.0 334Q15561.0 303 15552.5 258.5Q15544.0 214 15544.0 193Q15544.0 136 15568.0 116.0Q15592.0 96 15649.0 96Q15668.0 96 15703.0 102.0Q15738.0 108 15757.0 115L15742.0 51Q15652.0 15 15608.0 -1.0Q15564.0 -17 15501.0 -17Q15429.0 -17 15387.0 25.0Q15345.0 67 15341.0 132ZM15484.0 764Q15484.0 797 15477.0 827.0Q15470.0 857 15448.0 883Q15428.0 908 15393.0 923.0Q15358.0 938 15305.0 938Q15232.0 938 15163.0 890.0Q15094.0 842 15039.0 761Q14987.0 685 14954.0 577.0Q14921.0 469 14921.0 358Q14921.0 297 14928.0 250.0Q14935.0 203 14955.0 164Q14974.0 126 15010.0 105.0Q15046.0 84 15101.0 84Q15157.0 84 15218.5 115.5Q15280.0 147 15357.0 226Z" />
      <path d="M16121.0 -21Q16026.0 -21 15982.0 17.5Q15938.0 56 15938.0 128Q15938.0 151 15941.0 171.5Q15944.0 192 15949.0 218L16104.0 886H15926.0L15947.0 977H16129.0L16199.0 1270H16379.0L16311.0 977H16590.0L16569.0 886H16292.0L16164.0 335Q16155.0 297 16149.0 261.5Q16143.0 226 16143.0 201Q16143.0 146 16170.5 120.5Q16198.0 95 16270.0 95Q16296.0 95 16343.0 101.5Q16390.0 108 16416.0 118L16399.0 45Q16329.0 18 16267.0 -1.5Q16205.0 -21 16121.0 -21Z" />
      <path d="M17225.0 132H17218.0Q17196.0 114 17165.5 86.5Q17135.0 59 17094.0 34Q17055.0 9 17009.0 -9.5Q16963.0 -28 16909.0 -28Q16764.0 -28 16681.5 76.0Q16599.0 180 16599.0 360Q16599.0 484 16645.0 601.0Q16691.0 718 16772.0 811Q16849.0 900 16955.0 954.5Q17061.0 1009 17173.0 1009Q17244.0 1009 17308.5 990.0Q17373.0 971 17410.0 947L17593.0 994L17605.0 979L17453.0 334Q17445.0 303 17436.5 258.5Q17428.0 214 17428.0 193Q17428.0 136 17452.0 116.0Q17476.0 96 17533.0 96Q17552.0 96 17587.0 102.0Q17622.0 108 17641.0 115L17626.0 51Q17536.0 15 17492.0 -1.0Q17448.0 -17 17385.0 -17Q17313.0 -17 17271.0 25.0Q17229.0 67 17225.0 132ZM17368.0 764Q17368.0 797 17361.0 827.0Q17354.0 857 17332.0 883Q17312.0 908 17277.0 923.0Q17242.0 938 17189.0 938Q17116.0 938 17047.0 890.0Q16978.0 842 16923.0 761Q16871.0 685 16838.0 577.0Q16805.0 469 16805.0 358Q16805.0 297 16812.0 250.0Q16819.0 203 16839.0 164Q16858.0 126 16894.0 105.0Q16930.0 84 16985.0 84Q17041.0 84 17102.5 115.5Q17164.0 147 17241.0 226Z" />
      <path d="M18102.0 115Q18102.0 59 18061.5 19.5Q18021.0 -20 17965.0 -20Q17909.0 -20 17868.5 19.5Q17828.0 59 17828.0 115Q17828.0 171 17868.5 211.5Q17909.0 252 17965.0 252Q18021.0 252 18061.5 211.5Q18102.0 171 18102.0 115Z" />
    </g>
  </g>
  <g class="line-wrap line-wrap-2" clip-path="url(#clip2)">
    <g fill="currentColor" transform="translate(148.25 38.08) scale(0.013046 -0.013046)">
      <path d="M2008.0 1419 1993.0 1353Q1964.0 1352 1919.0 1344.0Q1874.0 1336 1852.0 1329Q1813.0 1316 1796.0 1288.0Q1779.0 1260 1771.0 1228L1532.0 195Q1530.0 187 1529.0 177.0Q1528.0 167 1528.0 161Q1528.0 140 1537.0 123.5Q1546.0 107 1567.0 94Q1581.0 85 1626.5 76.0Q1672.0 67 1698.0 66L1682.0 0H1057.0L1073.0 66Q1109.0 68 1163.0 73.5Q1217.0 79 1239.0 90Q1274.0 109 1295.5 134.0Q1317.0 159 1324.0 195L1569.0 1252H1558.0L783.0 23H736.0L558.0 1277H548.0L347.0 405Q335.0 352 327.0 302.0Q319.0 252 319.0 221Q319.0 188 326.0 164.5Q333.0 141 346.0 126Q364.0 105 422.0 88.0Q480.0 71 513.0 66L497.0 0H-76.0L-60.0 66Q-13.0 71 34.0 80.0Q81.0 89 121.0 114Q161.0 141 189.0 202.0Q217.0 263 246.0 394L416.0 1130Q421.0 1153 423.5 1171.5Q426.0 1190 426.0 1208Q426.0 1240 418.0 1261.5Q410.0 1283 397.0 1298Q371.0 1327 326.5 1339.0Q282.0 1351 245.0 1353L260.0 1419H738.0L893.0 352L1445.0 1245Q1476.0 1296 1502.0 1350.0Q1528.0 1404 1532.0 1419Z" />
      <path d="M2595.0 132H2588.0Q2566.0 114 2535.5 86.5Q2505.0 59 2464.0 34Q2425.0 9 2379.0 -9.5Q2333.0 -28 2279.0 -28Q2134.0 -28 2051.5 76.0Q1969.0 180 1969.0 360Q1969.0 484 2015.0 601.0Q2061.0 718 2142.0 811Q2219.0 900 2325.0 954.5Q2431.0 1009 2543.0 1009Q2614.0 1009 2678.5 990.0Q2743.0 971 2780.0 947L2963.0 994L2975.0 979L2823.0 334Q2815.0 303 2806.5 258.5Q2798.0 214 2798.0 193Q2798.0 136 2822.0 116.0Q2846.0 96 2903.0 96Q2922.0 96 2957.0 102.0Q2992.0 108 3011.0 115L2996.0 51Q2906.0 15 2862.0 -1.0Q2818.0 -17 2755.0 -17Q2683.0 -17 2641.0 25.0Q2599.0 67 2595.0 132ZM2738.0 764Q2738.0 797 2731.0 827.0Q2724.0 857 2702.0 883Q2682.0 908 2647.0 923.0Q2612.0 938 2559.0 938Q2486.0 938 2417.0 890.0Q2348.0 842 2293.0 761Q2241.0 685 2208.0 577.0Q2175.0 469 2175.0 358Q2175.0 297 2182.0 250.0Q2189.0 203 2209.0 164Q2228.0 126 2264.0 105.0Q2300.0 84 2355.0 84Q2411.0 84 2472.5 115.5Q2534.0 147 2611.0 226Z" />
      <path d="M4143.0 895Q4143.0 851 4108.5 813.5Q4074.0 776 4023.0 776Q3990.0 776 3958.0 785.0Q3926.0 794 3888.0 812Q3833.0 781 3774.5 735.5Q3716.0 690 3647.0 625Q3704.0 477 3743.5 382.5Q3783.0 288 3811.0 228Q3847.0 153 3890.5 121.5Q3934.0 90 3986.0 90Q4010.0 90 4052.0 97.5Q4094.0 105 4117.0 113L4102.0 47Q4009.0 9 3956.0 -4.0Q3903.0 -17 3849.0 -17Q3785.0 -17 3739.5 18.5Q3694.0 54 3652.0 147Q3611.0 236 3579.0 322.5Q3547.0 409 3516.0 486L3399.0 386L3313.0 0H3127.0L3424.0 1287Q3431.0 1318 3433.5 1330.0Q3436.0 1342 3436.0 1360Q3436.0 1396 3424.0 1415.5Q3412.0 1435 3390.0 1445Q3369.0 1454 3337.0 1457.0Q3305.0 1460 3272.0 1464L3286.0 1525L3657.0 1548L3667.0 1533L3423.0 492H3427.0Q3540.0 614 3632.5 703.5Q3725.0 793 3826.0 886Q3898.0 952 3940.0 976.5Q3982.0 1001 4030.0 1001Q4081.0 1001 4112.0 972.5Q4143.0 944 4143.0 895Z" />
      <path d="M5079.0 801Q5079.0 695 5012.5 619.0Q4946.0 543 4819.0 498Q4726.0 464 4631.0 443.0Q4536.0 422 4421.0 408Q4421.0 250 4479.5 166.5Q4538.0 83 4651.0 83Q4751.0 83 4827.5 133.0Q4904.0 183 4978.0 282L5035.0 240Q4955.0 118 4835.0 45.0Q4715.0 -28 4586.0 -28Q4409.0 -28 4315.5 71.0Q4222.0 170 4222.0 352Q4222.0 478 4261.5 592.5Q4301.0 707 4377.0 802Q4451.0 895 4558.5 952.0Q4666.0 1009 4796.0 1009Q4940.0 1009 5009.5 950.5Q5079.0 892 5079.0 801ZM4895.0 826Q4895.0 865 4884.0 887.5Q4873.0 910 4856.0 921Q4838.0 933 4818.0 936.0Q4798.0 939 4777.0 939Q4657.0 939 4555.5 807.0Q4454.0 675 4427.0 478Q4497.0 488 4585.0 506.5Q4673.0 525 4731.0 555Q4814.0 598 4854.5 665.5Q4895.0 733 4895.0 826Z" />
      <path d="M6164.0 109 6149.0 45Q6057.0 8 6002.0 -6.5Q5947.0 -21 5908.0 -21Q5828.0 -21 5788.0 20.5Q5748.0 62 5748.0 123Q5748.0 146 5752.0 171.0Q5756.0 196 5765.0 234L5871.0 659Q5879.0 694 5886.5 734.0Q5894.0 774 5894.0 802Q5894.0 858 5875.5 876.5Q5857.0 895 5800.0 895Q5778.0 895 5741.5 888.0Q5705.0 881 5686.0 876L5701.0 940Q5779.0 975 5841.0 992.0Q5903.0 1009 5939.0 1009Q6021.0 1009 6058.0 970.0Q6095.0 931 6095.0 865Q6095.0 847 6091.0 816.0Q6087.0 785 6079.0 754L5972.0 329Q5962.0 290 5954.5 252.5Q5947.0 215 5947.0 191Q5947.0 134 5972.5 113.0Q5998.0 92 6055.0 92Q6074.0 92 6109.5 97.0Q6145.0 102 6164.0 109ZM6235.0 1387Q6235.0 1330 6198.0 1287.5Q6161.0 1245 6106.0 1245Q6055.0 1245 6018.0 1285.5Q5981.0 1326 5981.0 1378Q5981.0 1433 6018.0 1474.0Q6055.0 1515 6106.0 1515Q6163.0 1515 6199.0 1476.5Q6235.0 1438 6235.0 1387Z" />
      <path d="M6927.0 137H6920.0Q6898.0 118 6863.0 87.5Q6828.0 57 6790.0 34Q6742.0 4 6701.5 -12.0Q6661.0 -28 6602.0 -28Q6457.0 -28 6374.5 76.5Q6292.0 181 6292.0 361Q6292.0 487 6336.5 604.0Q6381.0 721 6458.0 812Q6533.0 900 6638.5 954.5Q6744.0 1009 6859.0 1009Q6928.0 1009 6996.0 991.0Q7064.0 973 7108.0 947L7186.0 1287Q7192.0 1314 7194.5 1329.0Q7197.0 1344 7197.0 1362Q7197.0 1398 7182.5 1417.0Q7168.0 1436 7142.0 1445Q7118.0 1454 7076.0 1457.0Q7034.0 1460 7000.0 1464L7014.0 1525L7419.0 1548L7429.0 1533L7152.0 334Q7144.0 301 7135.5 258.5Q7127.0 216 7127.0 194Q7127.0 137 7151.0 116.5Q7175.0 96 7232.0 96Q7251.0 96 7286.0 102.0Q7321.0 108 7340.0 115L7325.0 51Q7241.0 13 7186.0 -2.0Q7131.0 -17 7084.0 -17Q7012.0 -17 6969.5 20.5Q6927.0 58 6927.0 137ZM7068.0 774Q7066.0 803 7053.0 830.5Q7040.0 858 7020.0 880Q6997.0 905 6960.5 921.5Q6924.0 938 6874.0 938Q6797.0 938 6728.5 890.0Q6660.0 842 6608.0 762Q6558.0 685 6528.0 576.5Q6498.0 468 6498.0 359Q6498.0 298 6505.0 251.0Q6512.0 204 6532.0 164Q6551.0 127 6586.0 105.5Q6621.0 84 6679.0 84Q6734.0 84 6798.5 117.0Q6863.0 150 6942.0 232Z" />
      <path d="M8326.0 801Q8326.0 695 8259.5 619.0Q8193.0 543 8066.0 498Q7973.0 464 7878.0 443.0Q7783.0 422 7668.0 408Q7668.0 250 7726.5 166.5Q7785.0 83 7898.0 83Q7998.0 83 8074.5 133.0Q8151.0 183 8225.0 282L8282.0 240Q8202.0 118 8082.0 45.0Q7962.0 -28 7833.0 -28Q7656.0 -28 7562.5 71.0Q7469.0 170 7469.0 352Q7469.0 478 7508.5 592.5Q7548.0 707 7624.0 802Q7698.0 895 7805.5 952.0Q7913.0 1009 8043.0 1009Q8187.0 1009 8256.5 950.5Q8326.0 892 8326.0 801ZM8142.0 826Q8142.0 865 8131.0 887.5Q8120.0 910 8103.0 921Q8085.0 933 8065.0 936.0Q8045.0 939 8024.0 939Q7904.0 939 7802.5 807.0Q7701.0 675 7674.0 478Q7744.0 488 7832.0 506.5Q7920.0 525 7978.0 555Q8061.0 598 8101.5 665.5Q8142.0 733 8142.0 826Z" />
      <path d="M9062.0 132H9055.0Q9033.0 114 9002.5 86.5Q8972.0 59 8931.0 34Q8892.0 9 8846.0 -9.5Q8800.0 -28 8746.0 -28Q8601.0 -28 8518.5 76.0Q8436.0 180 8436.0 360Q8436.0 484 8482.0 601.0Q8528.0 718 8609.0 811Q8686.0 900 8792.0 954.5Q8898.0 1009 9010.0 1009Q9081.0 1009 9145.5 990.0Q9210.0 971 9247.0 947L9430.0 994L9442.0 979L9290.0 334Q9282.0 303 9273.5 258.5Q9265.0 214 9265.0 193Q9265.0 136 9289.0 116.0Q9313.0 96 9370.0 96Q9389.0 96 9424.0 102.0Q9459.0 108 9478.0 115L9463.0 51Q9373.0 15 9329.0 -1.0Q9285.0 -17 9222.0 -17Q9150.0 -17 9108.0 25.0Q9066.0 67 9062.0 132ZM9205.0 764Q9205.0 797 9198.0 827.0Q9191.0 857 9169.0 883Q9149.0 908 9114.0 923.0Q9079.0 938 9026.0 938Q8953.0 938 8884.0 890.0Q8815.0 842 8760.0 761Q8708.0 685 8675.0 577.0Q8642.0 469 8642.0 358Q8642.0 297 8649.0 250.0Q8656.0 203 8676.0 164Q8695.0 126 8731.0 105.0Q8767.0 84 8822.0 84Q8878.0 84 8939.5 115.5Q9001.0 147 9078.0 226Z" />
      <path d="M9901.0 -29Q9753.0 -29 9654.5 23.5Q9556.0 76 9556.0 161Q9556.0 201 9585.0 236.0Q9614.0 271 9656.0 271Q9696.0 271 9720.5 252.5Q9745.0 234 9759.0 209Q9774.0 183 9785.5 147.0Q9797.0 111 9805.0 88Q9820.0 71 9846.5 56.5Q9873.0 42 9923.0 42Q10031.0 42 10086.5 96.0Q10142.0 150 10142.0 242Q10142.0 310 10090.0 350.5Q10038.0 391 9935.0 425Q9898.0 437 9848.0 461.5Q9798.0 486 9768.0 514Q9732.0 546 9710.0 590.0Q9688.0 634 9688.0 694Q9688.0 822 9802.5 915.5Q9917.0 1009 10084.0 1009Q10123.0 1009 10168.0 1005.0Q10213.0 1001 10267.0 983Q10314.0 967 10347.0 935.5Q10380.0 904 10380.0 854Q10380.0 813 10352.5 779.5Q10325.0 746 10280.0 746Q10243.0 746 10219.0 762.0Q10195.0 778 10179.0 805Q10163.0 832 10153.0 863.0Q10143.0 894 10131.0 924Q10112.0 932 10097.0 935.0Q10082.0 938 10057.0 938Q9959.0 938 9908.5 885.5Q9858.0 833 9858.0 761Q9858.0 691 9903.5 655.5Q9949.0 620 10054.0 582Q10190.0 533 10251.5 470.0Q10313.0 407 10313.0 314Q10313.0 162 10196.0 66.5Q10079.0 -29 9901.0 -29Z" />
      <path d="M11219.0 -21Q11124.0 -21 11080.0 17.5Q11036.0 56 11036.0 128Q11036.0 151 11039.0 171.5Q11042.0 192 11047.0 218L11202.0 886H11024.0L11045.0 977H11227.0L11297.0 1270H11477.0L11409.0 977H11688.0L11667.0 886H11390.0L11262.0 335Q11253.0 297 11247.0 261.5Q11241.0 226 11241.0 201Q11241.0 146 11268.5 120.5Q11296.0 95 11368.0 95Q11394.0 95 11441.0 101.5Q11488.0 108 11514.0 118L11497.0 45Q11427.0 18 11365.0 -1.5Q11303.0 -21 11219.0 -21Z" />
      <path d="M12323.0 132H12316.0Q12294.0 114 12263.5 86.5Q12233.0 59 12192.0 34Q12153.0 9 12107.0 -9.5Q12061.0 -28 12007.0 -28Q11862.0 -28 11779.5 76.0Q11697.0 180 11697.0 360Q11697.0 484 11743.0 601.0Q11789.0 718 11870.0 811Q11947.0 900 12053.0 954.5Q12159.0 1009 12271.0 1009Q12342.0 1009 12406.5 990.0Q12471.0 971 12508.0 947L12691.0 994L12703.0 979L12551.0 334Q12543.0 303 12534.5 258.5Q12526.0 214 12526.0 193Q12526.0 136 12550.0 116.0Q12574.0 96 12631.0 96Q12650.0 96 12685.0 102.0Q12720.0 108 12739.0 115L12724.0 51Q12634.0 15 12590.0 -1.0Q12546.0 -17 12483.0 -17Q12411.0 -17 12369.0 25.0Q12327.0 67 12323.0 132ZM12466.0 764Q12466.0 797 12459.0 827.0Q12452.0 857 12430.0 883Q12410.0 908 12375.0 923.0Q12340.0 938 12287.0 938Q12214.0 938 12145.0 890.0Q12076.0 842 12021.0 761Q11969.0 685 11936.0 577.0Q11903.0 469 11903.0 358Q11903.0 297 11910.0 250.0Q11917.0 203 11937.0 164Q11956.0 126 11992.0 105.0Q12028.0 84 12083.0 84Q12139.0 84 12200.5 115.5Q12262.0 147 12339.0 226Z" />
      <path d="M13949.0 116 13934.0 52Q13844.0 16 13794.0 -0.5Q13744.0 -17 13693.0 -17Q13613.0 -17 13573.0 24.5Q13533.0 66 13533.0 127Q13533.0 149 13537.0 175.5Q13541.0 202 13550.0 238L13648.0 611Q13659.0 654 13665.5 689.0Q13672.0 724 13672.0 745Q13672.0 812 13640.0 851.0Q13608.0 890 13545.0 890Q13484.0 890 13408.0 850.0Q13332.0 810 13265.0 734L13096.0 0H12910.0L13059.0 648Q13064.0 672 13073.5 717.5Q13083.0 763 13083.0 791Q13083.0 847 13064.0 866.0Q13045.0 885 12988.0 885Q12966.0 885 12932.0 877.5Q12898.0 870 12879.0 865L12894.0 929Q12972.0 964 13032.0 981.0Q13092.0 998 13135.0 998Q13214.0 998 13248.0 955.0Q13282.0 912 13284.0 836H13290.0Q13400.0 924 13480.0 966.5Q13560.0 1009 13662.0 1009Q13758.0 1009 13812.0 953.5Q13866.0 898 13866.0 808Q13866.0 790 13860.5 744.0Q13855.0 698 13843.0 653L13759.0 332Q13750.0 300 13741.5 258.5Q13733.0 217 13733.0 194Q13733.0 137 13758.0 116.5Q13783.0 96 13840.0 96Q13859.0 96 13894.5 102.5Q13930.0 109 13949.0 116Z" />
      <path d="M14717.0 135 14710.0 137Q14690.0 121 14653.5 92.0Q14617.0 63 14577.0 41Q14531.0 14 14484.0 -3.0Q14437.0 -20 14380.0 -20Q14235.0 -20 14156.5 82.5Q14078.0 185 14078.0 365Q14078.0 489 14123.5 606.0Q14169.0 723 14248.0 814Q14324.0 902 14430.0 955.5Q14536.0 1009 14652.0 1009Q14724.0 1009 14788.0 990.5Q14852.0 972 14891.0 947L15074.0 994L15086.0 979L14918.0 191Q14880.0 12 14820.5 -111.5Q14761.0 -235 14683.0 -307Q14603.0 -381 14506.5 -412.5Q14410.0 -444 14288.0 -444Q14205.0 -444 14152.5 -431.0Q14100.0 -418 14070.0 -397Q14040.0 -376 14029.5 -349.5Q14019.0 -323 14019.0 -299Q14019.0 -254 14046.0 -223.5Q14073.0 -193 14120.0 -193Q14157.0 -193 14183.0 -214.5Q14209.0 -236 14225.0 -261Q14242.0 -287 14258.0 -323.0Q14274.0 -359 14282.0 -377H14312.0Q14367.0 -377 14430.0 -352.0Q14493.0 -327 14545.0 -271Q14598.0 -213 14644.0 -115.5Q14690.0 -18 14717.0 135ZM14851.0 774Q14851.0 802 14842.5 831.5Q14834.0 861 14811.0 886Q14789.0 910 14755.0 924.0Q14721.0 938 14668.0 938Q14591.0 938 14522.5 891.5Q14454.0 845 14399.0 764Q14348.0 688 14316.0 580.0Q14284.0 472 14284.0 363Q14284.0 304 14292.5 254.5Q14301.0 205 14322.0 168Q14343.0 131 14377.5 110.5Q14412.0 90 14467.0 90Q14537.0 90 14606.0 130.5Q14675.0 171 14737.0 234Z" />
      <path d="M15732.0 109 15717.0 45Q15625.0 8 15570.0 -6.5Q15515.0 -21 15476.0 -21Q15396.0 -21 15356.0 20.5Q15316.0 62 15316.0 123Q15316.0 146 15320.0 171.0Q15324.0 196 15333.0 234L15439.0 659Q15447.0 694 15454.5 734.0Q15462.0 774 15462.0 802Q15462.0 858 15443.5 876.5Q15425.0 895 15368.0 895Q15346.0 895 15309.5 888.0Q15273.0 881 15254.0 876L15269.0 940Q15347.0 975 15409.0 992.0Q15471.0 1009 15507.0 1009Q15589.0 1009 15626.0 970.0Q15663.0 931 15663.0 865Q15663.0 847 15659.0 816.0Q15655.0 785 15647.0 754L15540.0 329Q15530.0 290 15522.5 252.5Q15515.0 215 15515.0 191Q15515.0 134 15540.5 113.0Q15566.0 92 15623.0 92Q15642.0 92 15677.5 97.0Q15713.0 102 15732.0 109ZM15803.0 1387Q15803.0 1330 15766.0 1287.5Q15729.0 1245 15674.0 1245Q15623.0 1245 15586.0 1285.5Q15549.0 1326 15549.0 1378Q15549.0 1433 15586.0 1474.0Q15623.0 1515 15674.0 1515Q15731.0 1515 15767.0 1476.5Q15803.0 1438 15803.0 1387Z" />
      <path d="M16854.0 627Q16854.0 494 16806.0 372.5Q16758.0 251 16679.0 163Q16598.0 73 16496.0 21.5Q16394.0 -30 16280.0 -30Q16194.0 -30 16128.5 -15.5Q16063.0 -1 16017.0 24Q15970.0 50 15939.0 82.5Q15908.0 115 15883.0 155L16141.0 1287Q16146.0 1310 16149.5 1326.5Q16153.0 1343 16153.0 1360Q16153.0 1396 16141.0 1415.5Q16129.0 1435 16107.0 1445Q16086.0 1454 16054.0 1457.0Q16022.0 1460 15989.0 1464L16003.0 1525L16374.0 1548L16384.0 1533L16232.0 868H16236.0Q16326.0 948 16394.5 978.5Q16463.0 1009 16528.0 1009Q16680.0 1009 16767.0 905.5Q16854.0 802 16854.0 627ZM16648.0 622Q16648.0 675 16638.5 728.5Q16629.0 782 16607.0 818Q16584.0 856 16544.0 878.0Q16504.0 900 16445.0 900Q16410.0 900 16379.0 888.0Q16348.0 876 16315.0 856Q16286.0 838 16258.5 812.5Q16231.0 787 16208.0 767L16075.0 174Q16078.0 154 16093.0 130.0Q16108.0 106 16131.0 88Q16159.0 65 16194.0 53.0Q16229.0 41 16271.0 41Q16350.0 41 16419.5 87.5Q16489.0 134 16539.0 213Q16594.0 299 16621.0 405.0Q16648.0 511 16648.0 622Z" />
      <path d="M17524.0 1533 17245.0 329Q17236.0 291 17228.0 253.0Q17220.0 215 17220.0 191Q17220.0 134 17245.5 113.0Q17271.0 92 17328.0 92Q17348.0 92 17387.5 97.0Q17427.0 102 17447.0 109L17432.0 45Q17342.0 9 17293.5 -6.0Q17245.0 -21 17184.0 -21Q17104.0 -21 17062.5 20.5Q17021.0 62 17021.0 123Q17021.0 146 17025.5 171.0Q17030.0 196 17038.0 234L17281.0 1287Q17288.0 1318 17290.5 1330.0Q17293.0 1342 17293.0 1360Q17293.0 1396 17281.0 1415.5Q17269.0 1435 17247.0 1445Q17226.0 1454 17194.0 1457.0Q17162.0 1460 17129.0 1464L17143.0 1525L17514.0 1548Z" />
      <path d="M18434.0 801Q18434.0 695 18367.5 619.0Q18301.0 543 18174.0 498Q18081.0 464 17986.0 443.0Q17891.0 422 17776.0 408Q17776.0 250 17834.5 166.5Q17893.0 83 18006.0 83Q18106.0 83 18182.5 133.0Q18259.0 183 18333.0 282L18390.0 240Q18310.0 118 18190.0 45.0Q18070.0 -28 17941.0 -28Q17764.0 -28 17670.5 71.0Q17577.0 170 17577.0 352Q17577.0 478 17616.5 592.5Q17656.0 707 17732.0 802Q17806.0 895 17913.5 952.0Q18021.0 1009 18151.0 1009Q18295.0 1009 18364.5 950.5Q18434.0 892 18434.0 801ZM18250.0 826Q18250.0 865 18239.0 887.5Q18228.0 910 18211.0 921Q18193.0 933 18173.0 936.0Q18153.0 939 18132.0 939Q18012.0 939 17910.5 807.0Q17809.0 675 17782.0 478Q17852.0 488 17940.0 506.5Q18028.0 525 18086.0 555Q18169.0 598 18209.5 665.5Q18250.0 733 18250.0 826Z" />
      <path d="M18887.0 98Q18887.0 13 18848.0 -60.5Q18809.0 -134 18748.0 -193Q18690.0 -250 18628.0 -290.5Q18566.0 -331 18518.0 -354L18486.0 -287Q18532.0 -262 18579.0 -230.5Q18626.0 -199 18658.0 -167Q18698.0 -128 18725.5 -90.0Q18753.0 -52 18769.0 2H18722.0Q18661.0 2 18630.5 32.5Q18600.0 63 18600.0 112Q18600.0 164 18640.0 208.0Q18680.0 252 18748.0 252Q18821.0 252 18854.0 209.5Q18887.0 167 18887.0 98Z" />
      <path d="M19823.0 -21Q19728.0 -21 19684.0 17.5Q19640.0 56 19640.0 128Q19640.0 151 19643.0 171.5Q19646.0 192 19651.0 218L19806.0 886H19628.0L19649.0 977H19831.0L19901.0 1270H20081.0L20013.0 977H20292.0L20271.0 886H19994.0L19866.0 335Q19857.0 297 19851.0 261.5Q19845.0 226 19845.0 201Q19845.0 146 19872.5 120.5Q19900.0 95 19972.0 95Q19998.0 95 20045.0 101.5Q20092.0 108 20118.0 118L20101.0 45Q20031.0 18 19969.0 -1.5Q19907.0 -21 19823.0 -21Z" />
      <path d="M21157.0 801Q21157.0 695 21090.5 619.0Q21024.0 543 20897.0 498Q20804.0 464 20709.0 443.0Q20614.0 422 20499.0 408Q20499.0 250 20557.5 166.5Q20616.0 83 20729.0 83Q20829.0 83 20905.5 133.0Q20982.0 183 21056.0 282L21113.0 240Q21033.0 118 20913.0 45.0Q20793.0 -28 20664.0 -28Q20487.0 -28 20393.5 71.0Q20300.0 170 20300.0 352Q20300.0 478 20339.5 592.5Q20379.0 707 20455.0 802Q20529.0 895 20636.5 952.0Q20744.0 1009 20874.0 1009Q21018.0 1009 21087.5 950.5Q21157.0 892 21157.0 801ZM20973.0 826Q20973.0 865 20962.0 887.5Q20951.0 910 20934.0 921Q20916.0 933 20896.0 936.0Q20876.0 939 20855.0 939Q20735.0 939 20633.5 807.0Q20532.0 675 20505.0 478Q20575.0 488 20663.0 506.5Q20751.0 525 20809.0 555Q20892.0 598 20932.5 665.5Q20973.0 733 20973.0 826Z" />
      <path d="M21559.0 -29Q21411.0 -29 21312.5 23.5Q21214.0 76 21214.0 161Q21214.0 201 21243.0 236.0Q21272.0 271 21314.0 271Q21354.0 271 21378.5 252.5Q21403.0 234 21417.0 209Q21432.0 183 21443.5 147.0Q21455.0 111 21463.0 88Q21478.0 71 21504.5 56.5Q21531.0 42 21581.0 42Q21689.0 42 21744.5 96.0Q21800.0 150 21800.0 242Q21800.0 310 21748.0 350.5Q21696.0 391 21593.0 425Q21556.0 437 21506.0 461.5Q21456.0 486 21426.0 514Q21390.0 546 21368.0 590.0Q21346.0 634 21346.0 694Q21346.0 822 21460.5 915.5Q21575.0 1009 21742.0 1009Q21781.0 1009 21826.0 1005.0Q21871.0 1001 21925.0 983Q21972.0 967 22005.0 935.5Q22038.0 904 22038.0 854Q22038.0 813 22010.5 779.5Q21983.0 746 21938.0 746Q21901.0 746 21877.0 762.0Q21853.0 778 21837.0 805Q21821.0 832 21811.0 863.0Q21801.0 894 21789.0 924Q21770.0 932 21755.0 935.0Q21740.0 938 21715.0 938Q21617.0 938 21566.5 885.5Q21516.0 833 21516.0 761Q21516.0 691 21561.5 655.5Q21607.0 620 21712.0 582Q21848.0 533 21909.5 470.0Q21971.0 407 21971.0 314Q21971.0 162 21854.0 66.5Q21737.0 -29 21559.0 -29Z" />
      <path d="M22383.0 -21Q22288.0 -21 22244.0 17.5Q22200.0 56 22200.0 128Q22200.0 151 22203.0 171.5Q22206.0 192 22211.0 218L22366.0 886H22188.0L22209.0 977H22391.0L22461.0 1270H22641.0L22573.0 977H22852.0L22831.0 886H22554.0L22426.0 335Q22417.0 297 22411.0 261.5Q22405.0 226 22405.0 201Q22405.0 146 22432.5 120.5Q22460.0 95 22532.0 95Q22558.0 95 22605.0 101.5Q22652.0 108 22678.0 118L22661.0 45Q22591.0 18 22529.0 -1.5Q22467.0 -21 22383.0 -21Z" />
      <path d="M23487.0 132H23480.0Q23458.0 114 23427.5 86.5Q23397.0 59 23356.0 34Q23317.0 9 23271.0 -9.5Q23225.0 -28 23171.0 -28Q23026.0 -28 22943.5 76.0Q22861.0 180 22861.0 360Q22861.0 484 22907.0 601.0Q22953.0 718 23034.0 811Q23111.0 900 23217.0 954.5Q23323.0 1009 23435.0 1009Q23506.0 1009 23570.5 990.0Q23635.0 971 23672.0 947L23855.0 994L23867.0 979L23715.0 334Q23707.0 303 23698.5 258.5Q23690.0 214 23690.0 193Q23690.0 136 23714.0 116.0Q23738.0 96 23795.0 96Q23814.0 96 23849.0 102.0Q23884.0 108 23903.0 115L23888.0 51Q23798.0 15 23754.0 -1.0Q23710.0 -17 23647.0 -17Q23575.0 -17 23533.0 25.0Q23491.0 67 23487.0 132ZM23630.0 764Q23630.0 797 23623.0 827.0Q23616.0 857 23594.0 883Q23574.0 908 23539.0 923.0Q23504.0 938 23451.0 938Q23378.0 938 23309.0 890.0Q23240.0 842 23185.0 761Q23133.0 685 23100.0 577.0Q23067.0 469 23067.0 358Q23067.0 297 23074.0 250.0Q23081.0 203 23101.0 164Q23120.0 126 23156.0 105.0Q23192.0 84 23247.0 84Q23303.0 84 23364.5 115.5Q23426.0 147 23503.0 226Z" />
      <path d="M25028.0 627Q25028.0 494 24980.0 372.5Q24932.0 251 24853.0 163Q24772.0 73 24670.0 21.5Q24568.0 -30 24454.0 -30Q24368.0 -30 24302.5 -15.5Q24237.0 -1 24191.0 24Q24144.0 50 24113.0 82.5Q24082.0 115 24057.0 155L24315.0 1287Q24320.0 1310 24323.5 1326.5Q24327.0 1343 24327.0 1360Q24327.0 1396 24315.0 1415.5Q24303.0 1435 24281.0 1445Q24260.0 1454 24228.0 1457.0Q24196.0 1460 24163.0 1464L24177.0 1525L24548.0 1548L24558.0 1533L24406.0 868H24410.0Q24500.0 948 24568.5 978.5Q24637.0 1009 24702.0 1009Q24854.0 1009 24941.0 905.5Q25028.0 802 25028.0 627ZM24822.0 622Q24822.0 675 24812.5 728.5Q24803.0 782 24781.0 818Q24758.0 856 24718.0 878.0Q24678.0 900 24619.0 900Q24584.0 900 24553.0 888.0Q24522.0 876 24489.0 856Q24460.0 838 24432.5 812.5Q24405.0 787 24382.0 767L24249.0 174Q24252.0 154 24267.0 130.0Q24282.0 106 24305.0 88Q24333.0 65 24368.0 53.0Q24403.0 41 24445.0 41Q24524.0 41 24593.5 87.5Q24663.0 134 24713.0 213Q24768.0 299 24795.0 405.0Q24822.0 511 24822.0 622Z" />
      <path d="M25698.0 1533 25419.0 329Q25410.0 291 25402.0 253.0Q25394.0 215 25394.0 191Q25394.0 134 25419.5 113.0Q25445.0 92 25502.0 92Q25522.0 92 25561.5 97.0Q25601.0 102 25621.0 109L25606.0 45Q25516.0 9 25467.5 -6.0Q25419.0 -21 25358.0 -21Q25278.0 -21 25236.5 20.5Q25195.0 62 25195.0 123Q25195.0 146 25199.5 171.0Q25204.0 196 25212.0 234L25455.0 1287Q25462.0 1318 25464.5 1330.0Q25467.0 1342 25467.0 1360Q25467.0 1396 25455.0 1415.5Q25443.0 1435 25421.0 1445Q25400.0 1454 25368.0 1457.0Q25336.0 1460 25303.0 1464L25317.0 1525L25688.0 1548Z" />
      <path d="M26608.0 801Q26608.0 695 26541.5 619.0Q26475.0 543 26348.0 498Q26255.0 464 26160.0 443.0Q26065.0 422 25950.0 408Q25950.0 250 26008.5 166.5Q26067.0 83 26180.0 83Q26280.0 83 26356.5 133.0Q26433.0 183 26507.0 282L26564.0 240Q26484.0 118 26364.0 45.0Q26244.0 -28 26115.0 -28Q25938.0 -28 25844.5 71.0Q25751.0 170 25751.0 352Q25751.0 478 25790.5 592.5Q25830.0 707 25906.0 802Q25980.0 895 26087.5 952.0Q26195.0 1009 26325.0 1009Q26469.0 1009 26538.5 950.5Q26608.0 892 26608.0 801ZM26424.0 826Q26424.0 865 26413.0 887.5Q26402.0 910 26385.0 921Q26367.0 933 26347.0 936.0Q26327.0 939 26306.0 939Q26186.0 939 26084.5 807.0Q25983.0 675 25956.0 478Q26026.0 488 26114.0 506.5Q26202.0 525 26260.0 555Q26343.0 598 26383.5 665.5Q26424.0 733 26424.0 826Z" />
      <path d="M27061.0 98Q27061.0 13 27022.0 -60.5Q26983.0 -134 26922.0 -193Q26864.0 -250 26802.0 -290.5Q26740.0 -331 26692.0 -354L26660.0 -287Q26706.0 -262 26753.0 -230.5Q26800.0 -199 26832.0 -167Q26872.0 -128 26899.5 -90.0Q26927.0 -52 26943.0 2H26896.0Q26835.0 2 26804.5 32.5Q26774.0 63 26774.0 112Q26774.0 164 26814.0 208.0Q26854.0 252 26922.0 252Q26995.0 252 27028.0 209.5Q27061.0 167 27061.0 98Z" />
      <path d="M28390.0 132H28383.0Q28361.0 114 28330.5 86.5Q28300.0 59 28259.0 34Q28220.0 9 28174.0 -9.5Q28128.0 -28 28074.0 -28Q27929.0 -28 27846.5 76.0Q27764.0 180 27764.0 360Q27764.0 484 27810.0 601.0Q27856.0 718 27937.0 811Q28014.0 900 28120.0 954.5Q28226.0 1009 28338.0 1009Q28409.0 1009 28473.5 990.0Q28538.0 971 28575.0 947L28758.0 994L28770.0 979L28618.0 334Q28610.0 303 28601.5 258.5Q28593.0 214 28593.0 193Q28593.0 136 28617.0 116.0Q28641.0 96 28698.0 96Q28717.0 96 28752.0 102.0Q28787.0 108 28806.0 115L28791.0 51Q28701.0 15 28657.0 -1.0Q28613.0 -17 28550.0 -17Q28478.0 -17 28436.0 25.0Q28394.0 67 28390.0 132ZM28533.0 764Q28533.0 797 28526.0 827.0Q28519.0 857 28497.0 883Q28477.0 908 28442.0 923.0Q28407.0 938 28354.0 938Q28281.0 938 28212.0 890.0Q28143.0 842 28088.0 761Q28036.0 685 28003.0 577.0Q27970.0 469 27970.0 358Q27970.0 297 27977.0 250.0Q27984.0 203 28004.0 164Q28023.0 126 28059.0 105.0Q28095.0 84 28150.0 84Q28206.0 84 28267.5 115.5Q28329.0 147 28406.0 226Z" />
      <path d="M30016.0 116 30001.0 52Q29911.0 16 29861.0 -0.5Q29811.0 -17 29760.0 -17Q29680.0 -17 29640.0 24.5Q29600.0 66 29600.0 127Q29600.0 149 29604.0 175.5Q29608.0 202 29617.0 238L29715.0 611Q29726.0 654 29732.5 689.0Q29739.0 724 29739.0 745Q29739.0 812 29707.0 851.0Q29675.0 890 29612.0 890Q29551.0 890 29475.0 850.0Q29399.0 810 29332.0 734L29163.0 0H28977.0L29126.0 648Q29131.0 672 29140.5 717.5Q29150.0 763 29150.0 791Q29150.0 847 29131.0 866.0Q29112.0 885 29055.0 885Q29033.0 885 28999.0 877.5Q28965.0 870 28946.0 865L28961.0 929Q29039.0 964 29099.0 981.0Q29159.0 998 29202.0 998Q29281.0 998 29315.0 955.0Q29349.0 912 29351.0 836H29357.0Q29467.0 924 29547.0 966.5Q29627.0 1009 29729.0 1009Q29825.0 1009 29879.0 953.5Q29933.0 898 29933.0 808Q29933.0 790 29927.5 744.0Q29922.0 698 29910.0 653L29826.0 332Q29817.0 300 29808.5 258.5Q29800.0 217 29800.0 194Q29800.0 137 29825.0 116.5Q29850.0 96 29907.0 96Q29926.0 96 29961.5 102.5Q29997.0 109 30016.0 116Z" />
      <path d="M30780.0 137H30773.0Q30751.0 118 30716.0 87.5Q30681.0 57 30643.0 34Q30595.0 4 30554.5 -12.0Q30514.0 -28 30455.0 -28Q30310.0 -28 30227.5 76.5Q30145.0 181 30145.0 361Q30145.0 487 30189.5 604.0Q30234.0 721 30311.0 812Q30386.0 900 30491.5 954.5Q30597.0 1009 30712.0 1009Q30781.0 1009 30849.0 991.0Q30917.0 973 30961.0 947L31039.0 1287Q31045.0 1314 31047.5 1329.0Q31050.0 1344 31050.0 1362Q31050.0 1398 31035.5 1417.0Q31021.0 1436 30995.0 1445Q30971.0 1454 30929.0 1457.0Q30887.0 1460 30853.0 1464L30867.0 1525L31272.0 1548L31282.0 1533L31005.0 334Q30997.0 301 30988.5 258.5Q30980.0 216 30980.0 194Q30980.0 137 31004.0 116.5Q31028.0 96 31085.0 96Q31104.0 96 31139.0 102.0Q31174.0 108 31193.0 115L31178.0 51Q31094.0 13 31039.0 -2.0Q30984.0 -17 30937.0 -17Q30865.0 -17 30822.5 20.5Q30780.0 58 30780.0 137ZM30921.0 774Q30919.0 803 30906.0 830.5Q30893.0 858 30873.0 880Q30850.0 905 30813.5 921.5Q30777.0 938 30727.0 938Q30650.0 938 30581.5 890.0Q30513.0 842 30461.0 762Q30411.0 685 30381.0 576.5Q30351.0 468 30351.0 359Q30351.0 298 30358.0 251.0Q30365.0 204 30385.0 164Q30404.0 127 30439.0 105.5Q30474.0 84 30532.0 84Q30587.0 84 30651.5 117.0Q30716.0 150 30795.0 232Z" />
      <path d="M32701.0 846Q32701.0 818 32693.0 784.5Q32685.0 751 32670.0 729Q32652.0 702 32630.5 687.5Q32609.0 673 32569.0 673Q32515.0 673 32488.0 700.0Q32461.0 727 32461.0 760Q32461.0 791 32476.0 829.5Q32491.0 868 32507.0 906Q32495.0 906 32467.5 899.5Q32440.0 893 32401.0 874Q32362.0 855 32312.5 817.0Q32263.0 779 32207.0 716L32046.0 0H31860.0L32006.0 648Q32011.0 672 32020.5 720.0Q32030.0 768 32030.0 791Q32030.0 847 32011.0 866.0Q31992.0 885 31935.0 885Q31913.0 885 31879.0 877.5Q31845.0 870 31826.0 865L31841.0 929Q31919.0 964 31979.0 981.0Q32039.0 998 32082.0 998Q32162.0 998 32196.0 954.5Q32230.0 911 32230.0 824H32236.0Q32355.0 927 32416.5 968.0Q32478.0 1009 32545.0 1009Q32577.0 1009 32607.0 1001.0Q32637.0 993 32658.0 974Q32680.0 953 32690.5 925.5Q32701.0 898 32701.0 846Z" />
      <path d="M33618.0 801Q33618.0 695 33551.5 619.0Q33485.0 543 33358.0 498Q33265.0 464 33170.0 443.0Q33075.0 422 32960.0 408Q32960.0 250 33018.5 166.5Q33077.0 83 33190.0 83Q33290.0 83 33366.5 133.0Q33443.0 183 33517.0 282L33574.0 240Q33494.0 118 33374.0 45.0Q33254.0 -28 33125.0 -28Q32948.0 -28 32854.5 71.0Q32761.0 170 32761.0 352Q32761.0 478 32800.5 592.5Q32840.0 707 32916.0 802Q32990.0 895 33097.5 952.0Q33205.0 1009 33335.0 1009Q33479.0 1009 33548.5 950.5Q33618.0 892 33618.0 801ZM33434.0 826Q33434.0 865 33423.0 887.5Q33412.0 910 33395.0 921Q33377.0 933 33357.0 936.0Q33337.0 939 33316.0 939Q33196.0 939 33094.5 807.0Q32993.0 675 32966.0 478Q33036.0 488 33124.0 506.5Q33212.0 525 33270.0 555Q33353.0 598 33393.5 665.5Q33434.0 733 33434.0 826Z" />
      <path d="M34365.0 140H34359.0Q34313.0 103 34271.0 72.0Q34229.0 41 34188.0 20Q34140.0 -4 34101.0 -14.5Q34062.0 -25 33999.0 -25Q33903.0 -25 33850.0 30.5Q33797.0 86 33797.0 176Q33797.0 200 33801.0 233.0Q33805.0 266 33820.0 331L33898.0 648Q33908.0 692 33914.5 726.0Q33921.0 760 33921.0 791Q33921.0 847 33902.5 865.5Q33884.0 884 33827.0 884Q33805.0 884 33771.0 876.0Q33737.0 868 33718.0 863L33733.0 927Q33811.0 962 33870.5 980.0Q33930.0 998 33966.0 998Q34046.0 998 34083.5 960.5Q34121.0 923 34121.0 854Q34121.0 836 34117.0 805.0Q34113.0 774 34105.0 743L34016.0 373Q34006.0 331 33999.5 294.5Q33993.0 258 33993.0 239Q33993.0 172 34022.0 133.0Q34051.0 94 34114.0 94Q34178.0 94 34245.5 127.5Q34313.0 161 34381.0 229L34556.0 982L34730.0 994L34742.0 979L34593.0 335Q34583.0 294 34575.0 252.5Q34567.0 211 34567.0 194Q34567.0 137 34591.5 116.5Q34616.0 96 34673.0 96Q34692.0 96 34727.0 102.0Q34762.0 108 34781.0 115L34766.0 51Q34683.0 17 34627.5 0.0Q34572.0 -17 34525.0 -17Q34444.0 -17 34404.5 30.0Q34365.0 77 34365.0 140Z" />
      <path d="M35198.0 -29Q35050.0 -29 34951.5 23.5Q34853.0 76 34853.0 161Q34853.0 201 34882.0 236.0Q34911.0 271 34953.0 271Q34993.0 271 35017.5 252.5Q35042.0 234 35056.0 209Q35071.0 183 35082.5 147.0Q35094.0 111 35102.0 88Q35117.0 71 35143.5 56.5Q35170.0 42 35220.0 42Q35328.0 42 35383.5 96.0Q35439.0 150 35439.0 242Q35439.0 310 35387.0 350.5Q35335.0 391 35232.0 425Q35195.0 437 35145.0 461.5Q35095.0 486 35065.0 514Q35029.0 546 35007.0 590.0Q34985.0 634 34985.0 694Q34985.0 822 35099.5 915.5Q35214.0 1009 35381.0 1009Q35420.0 1009 35465.0 1005.0Q35510.0 1001 35564.0 983Q35611.0 967 35644.0 935.5Q35677.0 904 35677.0 854Q35677.0 813 35649.5 779.5Q35622.0 746 35577.0 746Q35540.0 746 35516.0 762.0Q35492.0 778 35476.0 805Q35460.0 832 35450.0 863.0Q35440.0 894 35428.0 924Q35409.0 932 35394.0 935.0Q35379.0 938 35354.0 938Q35256.0 938 35205.5 885.5Q35155.0 833 35155.0 761Q35155.0 691 35200.5 655.5Q35246.0 620 35351.0 582Q35487.0 533 35548.5 470.0Q35610.0 407 35610.0 314Q35610.0 162 35493.0 66.5Q35376.0 -29 35198.0 -29Z" />
      <path d="M36415.0 132H36408.0Q36386.0 114 36355.5 86.5Q36325.0 59 36284.0 34Q36245.0 9 36199.0 -9.5Q36153.0 -28 36099.0 -28Q35954.0 -28 35871.5 76.0Q35789.0 180 35789.0 360Q35789.0 484 35835.0 601.0Q35881.0 718 35962.0 811Q36039.0 900 36145.0 954.5Q36251.0 1009 36363.0 1009Q36434.0 1009 36498.5 990.0Q36563.0 971 36600.0 947L36783.0 994L36795.0 979L36643.0 334Q36635.0 303 36626.5 258.5Q36618.0 214 36618.0 193Q36618.0 136 36642.0 116.0Q36666.0 96 36723.0 96Q36742.0 96 36777.0 102.0Q36812.0 108 36831.0 115L36816.0 51Q36726.0 15 36682.0 -1.0Q36638.0 -17 36575.0 -17Q36503.0 -17 36461.0 25.0Q36419.0 67 36415.0 132ZM36558.0 764Q36558.0 797 36551.0 827.0Q36544.0 857 36522.0 883Q36502.0 908 36467.0 923.0Q36432.0 938 36379.0 938Q36306.0 938 36237.0 890.0Q36168.0 842 36113.0 761Q36061.0 685 36028.0 577.0Q35995.0 469 35995.0 358Q35995.0 297 36002.0 250.0Q36009.0 203 36029.0 164Q36048.0 126 36084.0 105.0Q36120.0 84 36175.0 84Q36231.0 84 36292.5 115.5Q36354.0 147 36431.0 226Z" />
      <path d="M37956.0 627Q37956.0 494 37908.0 372.5Q37860.0 251 37781.0 163Q37700.0 73 37598.0 21.5Q37496.0 -30 37382.0 -30Q37296.0 -30 37230.5 -15.5Q37165.0 -1 37119.0 24Q37072.0 50 37041.0 82.5Q37010.0 115 36985.0 155L37243.0 1287Q37248.0 1310 37251.5 1326.5Q37255.0 1343 37255.0 1360Q37255.0 1396 37243.0 1415.5Q37231.0 1435 37209.0 1445Q37188.0 1454 37156.0 1457.0Q37124.0 1460 37091.0 1464L37105.0 1525L37476.0 1548L37486.0 1533L37334.0 868H37338.0Q37428.0 948 37496.5 978.5Q37565.0 1009 37630.0 1009Q37782.0 1009 37869.0 905.5Q37956.0 802 37956.0 627ZM37750.0 622Q37750.0 675 37740.5 728.5Q37731.0 782 37709.0 818Q37686.0 856 37646.0 878.0Q37606.0 900 37547.0 900Q37512.0 900 37481.0 888.0Q37450.0 876 37417.0 856Q37388.0 838 37360.5 812.5Q37333.0 787 37310.0 767L37177.0 174Q37180.0 154 37195.0 130.0Q37210.0 106 37233.0 88Q37261.0 65 37296.0 53.0Q37331.0 41 37373.0 41Q37452.0 41 37521.5 87.5Q37591.0 134 37641.0 213Q37696.0 299 37723.0 405.0Q37750.0 511 37750.0 622Z" />
      <path d="M38626.0 1533 38347.0 329Q38338.0 291 38330.0 253.0Q38322.0 215 38322.0 191Q38322.0 134 38347.5 113.0Q38373.0 92 38430.0 92Q38450.0 92 38489.5 97.0Q38529.0 102 38549.0 109L38534.0 45Q38444.0 9 38395.5 -6.0Q38347.0 -21 38286.0 -21Q38206.0 -21 38164.5 20.5Q38123.0 62 38123.0 123Q38123.0 146 38127.5 171.0Q38132.0 196 38140.0 234L38383.0 1287Q38390.0 1318 38392.5 1330.0Q38395.0 1342 38395.0 1360Q38395.0 1396 38383.0 1415.5Q38371.0 1435 38349.0 1445Q38328.0 1454 38296.0 1457.0Q38264.0 1460 38231.0 1464L38245.0 1525L38616.0 1548Z" />
      <path d="M39536.0 801Q39536.0 695 39469.5 619.0Q39403.0 543 39276.0 498Q39183.0 464 39088.0 443.0Q38993.0 422 38878.0 408Q38878.0 250 38936.5 166.5Q38995.0 83 39108.0 83Q39208.0 83 39284.5 133.0Q39361.0 183 39435.0 282L39492.0 240Q39412.0 118 39292.0 45.0Q39172.0 -28 39043.0 -28Q38866.0 -28 38772.5 71.0Q38679.0 170 38679.0 352Q38679.0 478 38718.5 592.5Q38758.0 707 38834.0 802Q38908.0 895 39015.5 952.0Q39123.0 1009 39253.0 1009Q39397.0 1009 39466.5 950.5Q39536.0 892 39536.0 801ZM39352.0 826Q39352.0 865 39341.0 887.5Q39330.0 910 39313.0 921Q39295.0 933 39275.0 936.0Q39255.0 939 39234.0 939Q39114.0 939 39012.5 807.0Q38911.0 675 38884.0 478Q38954.0 488 39042.0 506.5Q39130.0 525 39188.0 555Q39271.0 598 39311.5 665.5Q39352.0 733 39352.0 826Z" />
      <path d="M39976.0 115Q39976.0 59 39935.5 19.5Q39895.0 -20 39839.0 -20Q39783.0 -20 39742.5 19.5Q39702.0 59 39702.0 115Q39702.0 171 39742.5 211.5Q39783.0 252 39839.0 252Q39895.0 252 39935.5 211.5Q39976.0 171 39976.0 115Z" />
    </g>
  </g>
</svg>
