<svg xmlns="http://www.w3.org/2000/svg" viewBox="0 0 1000 240" role="img" aria-labelledby="sc-title sc-desc" preserveAspectRatio="xMidYMid meet">
  <title id="sc-title">SleepClaw — Coming soon...</title>
  <desc id="sc-desc">SleepClaw. Coming soon... An animated red owl floats, sways its ears, flaps both wings, and blinks.</desc>
  <defs>
    <radialGradient id="sc-bodyGradient" gradientUnits="userSpaceOnUse" cx="420" cy="220" r="940" fx="385" fy="175">
      <stop offset="0" stop-color="#f1514b" />
      <stop offset="0.34" stop-color="#df4a44" />
      <stop offset="0.72" stop-color="#c93d39" />
      <stop offset="1" stop-color="#bf3634" />
    </radialGradient>
    <linearGradient id="sc-bodyDepth" gradientUnits="userSpaceOnUse" x1="627" y1="150" x2="627" y2="1080">
      <stop offset="0" stop-color="#ff8b79" stop-opacity="0.05" />
      <stop offset="0.5" stop-color="#8f1518" stop-opacity="0.02" />
      <stop offset="1" stop-color="#761416" stop-opacity="0.08" />
    </linearGradient>
    <linearGradient id="sc-rightShade" gradientUnits="userSpaceOnUse" x1="300" y1="500" x2="1030" y2="630">
      <stop offset="0.45" stop-color="#681013" stop-opacity="0" />
      <stop offset="1" stop-color="#681013" stop-opacity="0.08" />
    </linearGradient>
    <radialGradient id="sc-leftWingGradient" gradientUnits="userSpaceOnUse" cx="205" cy="535" r="410" fx="205" fy="510">
      <stop offset="0" stop-color="#f34b46" />
      <stop offset="0.35" stop-color="#df4742" />
      <stop offset="0.68" stop-color="#d13c39" />
      <stop offset="1" stop-color="#c43132" />
    </radialGradient>
    <radialGradient id="sc-rightWingGradient" gradientUnits="userSpaceOnUse" cx="954" cy="526" r="430" fx="984" fy="508">
      <stop offset="0" stop-color="#f24a45" />
      <stop offset="0.32" stop-color="#d1413b" />
      <stop offset="0.75" stop-color="#c33433" />
      <stop offset="1" stop-color="#b72e30" />
    </radialGradient>
    <radialGradient id="sc-eyeGradient" cx="35%" cy="30%" r="78%">
      <stop offset="0" stop-color="#091b29" />
      <stop offset="0.62" stop-color="#020b15" />
      <stop offset="1" stop-color="#00050c" />
    </radialGradient>
    <radialGradient id="sc-pupilGradient" cx="35%" cy="28%" r="75%">
      <stop offset="0" stop-color="#02ead3" />
      <stop offset="0.58" stop-color="#00dfca" />
      <stop offset="1" stop-color="#00cbbd" />
    </radialGradient>
    <linearGradient id="sc-beakGradient" gradientUnits="userSpaceOnUse" x1="627" y1="490" x2="627" y2="580">
      <stop offset="0" stop-color="#ff735e" />
      <stop offset="0.42" stop-color="#fb6653" />
      <stop offset="1" stop-color="#ef4d42" />
    </linearGradient>
    <radialGradient id="sc-leftFootGradient" gradientUnits="userSpaceOnUse" cx="480" cy="1030" r="115">
      <stop offset="0" stop-color="#ec4743" />
      <stop offset="0.6" stop-color="#dc3d3b" />
      <stop offset="1" stop-color="#c62f31" />
    </radialGradient>
    <radialGradient id="sc-rightFootGradient" gradientUnits="userSpaceOnUse" cx="730" cy="1030" r="125">
      <stop offset="0" stop-color="#e84642" />
      <stop offset="0.6" stop-color="#d83b39" />
      <stop offset="1" stop-color="#c12e30" />
    </radialGradient>
    <filter id="sc-wingShadowBlur" x="-30%" y="-25%" width="160%" height="150%" color-interpolation-filters="sRGB">
      <feGaussianBlur stdDeviation="9" />
    </filter>
    <filter id="sc-eyeShadow" x="-30%" y="-30%" width="160%" height="170%" color-interpolation-filters="sRGB">
      <feDropShadow dx="0" dy="3" stdDeviation="3" flood-color="#681215" flood-opacity="0.25" />
    </filter>
    <clipPath id="sc-bodyClip">
      <path d="M321 293 C348 245 389 214 439 203 C492 171 559 155 620 153 C686 151 760 171 815 202 C865 214 906 246 933 293 C995 362 1032 451 1046 542 C1056 607 1054 680 1040 744 C1019 840 972 928 899 989 C830 1046 744 1073 628 1073 C511 1073 426 1047 355 989 C282 930 234 842 213 749 C199 687 198 613 209 547 C224 451 260 363 321 293 Z" />
    </clipPath>
    <clipPath id="sc-leftEarClip">
      <path d="M439 203 C405 192 378 174 350 151 C339 142 329 137 319 142 C299 154 300 206 309 247 C316 282 321 315 342 338 C369 368 411 376 452 365 C495 354 526 334 536 307 C545 282 532 262 510 245 C488 227 463 213 439 203 Z" />
    </clipPath>
    <clipPath id="sc-rightEarClip">
      <path d="M815 203 C849 192 876 174 904 151 C915 142 925 137 935 142 C955 154 954 206 945 247 C938 282 933 315 912 338 C885 368 843 376 802 365 C759 354 728 334 718 307 C709 282 722 262 744 245 C766 227 791 213 815 203 Z" />
    </clipPath>
    <style>
      svg { overflow: visible; }
      .sc-owl-icon { animation: sc-owl-float 4s ease-in-out infinite; transform-box: fill-box; transform-origin: center; }
      .sc-owl-art { filter: drop-shadow(0 0 20px rgba(255,77,77,.4)); transform-box: fill-box; transform-origin: center; transform: scale(1); transition: transform .3s ease, filter .3s ease; }
      .sc-owl-icon:hover, svg:hover .sc-owl-icon { animation-play-state: paused; }
      .sc-owl-icon:hover .sc-owl-art, svg:hover .sc-owl-art { filter: drop-shadow(0 0 30px rgba(0,229,204,.6)); transform: scale(1.1); }
      .sc-ear-left, .sc-ear-right { animation-duration: 2s; animation-timing-function: ease-in-out; animation-iteration-count: infinite; transform-box: view-box; }
      .sc-ear-left { animation-name: sc-owl-ear-left; transform-origin: 405px 260px; }
      .sc-ear-right { animation-name: sc-owl-ear-right; transform-origin: 849px 260px; }
      #sc-left-wing, #sc-right-wing { animation-duration: 4s; animation-timing-function: ease-in-out; animation-iteration-count: infinite; transform-box: view-box; }
      #sc-left-wing { animation-name: sc-owl-wing-left; transform-origin: 337px 582px; }
      #sc-right-wing { animation-name: sc-owl-wing-right; transform-origin: 917px 582px; }
      .sc-pupil-glow { animation: sc-owl-blink 3s ease-in-out infinite; }
      @keyframes sc-owl-float { 0%, 100% { transform: translateY(0); } 50% { transform: translateY(-3%); } }
      @keyframes sc-owl-ear-left { 0%, 100% { transform: rotate(0); } 25% { transform: rotate(-3deg); } 75% { transform: rotate(3deg); } }
      @keyframes sc-owl-ear-right { 0%, 100% { transform: rotate(0); } 25% { transform: rotate(3deg); } 75% { transform: rotate(-3deg); } }
      @keyframes sc-owl-wing-left { 0%, 74%, 86%, 96%, 100% { transform: rotate(0); } 80%, 91% { transform: rotate(30deg); } }
      @keyframes sc-owl-wing-right { 0%, 74%, 86%, 96%, 100% { transform: rotate(0); } 80%, 91% { transform: rotate(-30deg); } }
      @keyframes sc-owl-blink { 0%, 86%, 94%, 100% { opacity: 1; } 90% { opacity: .3; } }
      @media (prefers-reduced-motion: reduce) {
        .sc-owl-icon, .sc-ear-left, .sc-ear-right, #sc-left-wing, #sc-right-wing, .sc-pupil-glow { animation: none !important; }
        .sc-owl-art { transform: none; transition: none; }
        .sc-owl-icon:hover .sc-owl-art, svg:hover .sc-owl-art { transform: none; filter: drop-shadow(0 0 30px rgba(0,229,204,.6)); }
      }

      .sc-wordmark-title { fill: #17171A; }
      .sc-wordmark-subtitle { fill: #D84A31; }
      @media (prefers-color-scheme: dark) {
        .sc-wordmark-title { fill: #EDEDED; }
      }
    </style>
  </defs>
  <g id="sc-mascot" transform="translate(2 -3) scale(0.2)">
    <g class="sc-owl-icon">
      <g class="sc-owl-art">
        <g class="sc-ear-left">
          <path class="sc-ear-shape" d="M439 203 C405 192 378 174 350 151 C339 142 329 137 319 142 C299 154 300 206 309 247 C316 282 321 315 342 338 C369 368 411 376 452 365 C495 354 526 334 536 307 C545 282 532 262 510 245 C488 227 463 213 439 203 Z" fill="url(#sc-bodyGradient)" vector-effect="non-scaling-stroke" />
          <rect x="236" y="130" width="360" height="300" fill="url(#sc-bodyDepth)" clip-path="url(#sc-leftEarClip)" />
          <rect x="236" y="130" width="360" height="300" fill="url(#sc-rightShade)" clip-path="url(#sc-leftEarClip)" />
        </g>
        <g class="sc-ear-right">
          <path class="sc-ear-shape" d="M815 203 C849 192 876 174 904 151 C915 142 925 137 935 142 C955 154 954 206 945 247 C938 282 933 315 912 338 C885 368 843 376 802 365 C759 354 728 334 718 307 C709 282 722 262 744 245 C766 227 791 213 815 203 Z" fill="url(#sc-bodyGradient)" vector-effect="non-scaling-stroke" />
          <rect x="658" y="130" width="360" height="300" fill="url(#sc-bodyDepth)" clip-path="url(#sc-rightEarClip)" />
          <rect x="658" y="130" width="360" height="300" fill="url(#sc-rightShade)" clip-path="url(#sc-rightEarClip)" />
        </g>
        <g id="sc-body">
          <path d="M321 293 C348 245 389 214 439 203 C492 171 559 155 620 153 C686 151 760 171 815 202 C865 214 906 246 933 293 C995 362 1032 451 1046 542 C1056 607 1054 680 1040 744 C1019 840 972 928 899 989 C830 1046 744 1073 628 1073 C511 1073 426 1047 355 989 C282 930 234 842 213 749 C199 687 198 613 209 547 C224 451 260 363 321 293 Z" fill="url(#sc-bodyGradient)" vector-effect="non-scaling-stroke" />
          <rect x="198" y="140" width="860" height="935" fill="url(#sc-bodyDepth)" clip-path="url(#sc-bodyClip)" />
          <rect x="198" y="140" width="860" height="935" fill="url(#sc-rightShade)" clip-path="url(#sc-bodyClip)" />
        </g>
        <g id="sc-wings">
          <g id="sc-left-wing">
            <path d="M255 494       C225 491 201 519 184 560       C169 600 165 649 169 699       C173 767 193 841 230 884       C241 897 253 899 264 891       C298 864 327 817 344 767       C366 702 359 638 337 582       C318 534 283 495 255 494 Z" fill="#771416" fill-opacity="0.2" transform="translate(8 7)" filter="url(#sc-wingShadowBlur)" clip-path="url(#sc-bodyClip)" />
            <path d="M255 494       C225 491 201 519 184 560       C169 600 165 649 169 699       C173 767 193 841 230 884       C241 897 253 899 264 891       C298 864 327 817 344 767       C366 702 359 638 337 582       C318 534 283 495 255 494 Z" fill="url(#sc-leftWingGradient)" vector-effect="non-scaling-stroke" />
          </g>
          <g id="sc-right-wing">
            <path d="M1000 494       C1029 491 1053 519 1070 560       C1084 600 1088 649 1084 699       C1081 767 1061 841 1024 884       C1013 897 1001 899 990 891       C956 864 927 817 910 767       C888 702 895 638 917 582       C936 534 971 495 1000 494 Z" fill="#771416" fill-opacity="0.2" transform="translate(-8 7)" filter="url(#sc-wingShadowBlur)" clip-path="url(#sc-bodyClip)" />
            <path d="M1000 494       C1029 491 1053 519 1070 560       C1084 600 1088 649 1084 699       C1081 767 1061 841 1024 884       C1013 897 1001 899 990 891       C956 864 927 817 910 767       C888 702 895 638 917 582       C936 534 971 495 1000 494 Z" fill="url(#sc-rightWingGradient)" vector-effect="non-scaling-stroke" />
          </g>
        </g>
        <g id="sc-eyes" filter="url(#sc-eyeShadow)">
          <circle cx="489" cy="420" r="55" fill="url(#sc-eyeGradient)" />
          <circle cx="767" cy="420" r="55" fill="url(#sc-eyeGradient)" />
          <circle class="sc-pupil-glow" cx="499" cy="411" r="19" fill="url(#sc-pupilGradient)" />
          <circle class="sc-pupil-glow" cx="776" cy="411" r="19" fill="url(#sc-pupilGradient)" />
        </g>
        <path id="sc-beak" d="M595 491            C588 491 584 494 583 499            C582 503 584 509 587 515            L617 572            C620 578 624 580 628 579            C632 579 635 575 638 570            L669 511            C672 505 672 500 669 496            C666 492 662 491 655 491 Z" fill="url(#sc-beakGradient)" />
        <g id="sc-feet">
          <path id="sc-left-foot" d="M505 1019              C472 1019 443 1044 441 1076              C440 1090 447 1100 458 1102              C469 1103 479 1095 484 1084              C489 1096 496 1101 506 1101              C517 1101 525 1095 529 1084              C535 1095 543 1101 553 1101              C563 1101 569 1093 567 1081              C565 1047 539 1019 505 1019 Z" fill="url(#sc-leftFootGradient)" vector-effect="non-scaling-stroke" />
          <path id="sc-right-foot" d="M749 1019              C716 1019 689 1046 687 1080              C686 1092 692 1101 702 1102              C712 1102 720 1096 725 1084              C730 1096 738 1101 748 1101              C759 1101 767 1095 772 1084              C777 1095 786 1102 796 1102              C807 1101 814 1092 812 1079              C810 1046 783 1019 749 1019 Z" fill="url(#sc-rightFootGradient)" vector-effect="non-scaling-stroke" />
        </g>
      </g>
    </g>
  </g>
  <g class="sc-wordmark sc-wordmark-title" fill="#17171A" aria-hidden="true" transform="translate(285 158) scale(0.06456145 -0.06456145)" data-source-style="site-brand:font-family:Inter;font-weight:700;letter-spacing:.02em" data-outline-width="707.250">
    <path d="M681.0 -22Q412.0 -22 251.5 101.5Q91.0 225 85.0 462H382.0Q390.0 349 472.5 292.5Q555.0 236 678.0 236Q800.0 236 874.5 288.5Q949.0 341 949.0 426Q949.0 503 881.5 544.0Q814.0 585 692.0 615L528.0 656Q339.0 702 232.0 800.5Q125.0 899 125.0 1061Q125.0 1196 197.5 1297.0Q270.0 1398 396.5 1454.0Q523.0 1510 685.0 1510Q850.0 1510 973.0 1453.5Q1096.0 1397 1165.0 1296.5Q1234.0 1196 1236.0 1065H941.0Q933.0 1155 864.5 1204.0Q796.0 1253 682.0 1253Q565.0 1253 501.5 1204.5Q438.0 1156 438.0 1081Q438.0 998 509.5 957.0Q581.0 916 676.0 893L811.0 860Q936.0 831 1037.0 776.5Q1138.0 722 1197.0 635.5Q1256.0 549 1256.0 424Q1256.0 221 1104.5 99.5Q953.0 -22 681.0 -22Z" />
    <path d="M1809.96 1490V0H1509.96V1490Z" />
    <path d="M2610.92 -22Q2439.92 -22 2315.92 48.0Q2191.92 118 2125.42 247.0Q2058.92 376 2058.92 553Q2058.92 726 2125.42 856.0Q2191.92 986 2312.42 1059.0Q2432.92 1132 2595.92 1132Q2741.92 1132 2860.92 1070.0Q2979.92 1008 3050.42 882.0Q3120.92 756 3120.92 565V481H2355.92Q2360.92 344 2431.92 274.0Q2502.92 204 2615.92 204Q2694.92 204 2751.42 237.5Q2807.92 271 2831.92 336L3103.92 285Q3062.92 146 2934.42 62.0Q2805.92 -22 2610.92 -22ZM2357.92 669H2831.92Q2820.92 778 2761.92 842.0Q2702.92 906 2598.92 906Q2490.92 906 2428.92 839.5Q2366.92 773 2357.92 669Z" />
    <path d="M3871.88 -22Q3700.88 -22 3576.88 48.0Q3452.88 118 3386.38 247.0Q3319.88 376 3319.88 553Q3319.88 726 3386.38 856.0Q3452.88 986 3573.38 1059.0Q3693.88 1132 3856.88 1132Q4002.88 1132 4121.88 1070.0Q4240.88 1008 4311.38 882.0Q4381.88 756 4381.88 565V481H3616.88Q3621.88 344 3692.88 274.0Q3763.88 204 3876.88 204Q3955.88 204 4012.38 237.5Q4068.88 271 4092.88 336L4364.88 285Q4323.88 146 4195.38 62.0Q4066.88 -22 3871.88 -22ZM3618.88 669H4092.88Q4081.88 778 4022.88 842.0Q3963.88 906 3859.88 906Q3751.88 906 3689.88 839.5Q3627.88 773 3618.88 669Z" />
    <path d="M4627.84 -418V1118H4922.84V930H4936.84Q4956.84 974 4995.34 1021.0Q5033.84 1068 5097.34 1100.0Q5160.84 1132 5255.84 1132Q5379.84 1132 5482.84 1068.0Q5585.84 1004 5647.34 876.0Q5708.84 748 5708.84 557Q5708.84 371 5648.84 242.5Q5588.84 114 5485.84 47.5Q5382.84 -19 5253.84 -19Q5162.84 -19 5099.84 12.0Q5036.84 43 4997.34 88.5Q4957.84 134 4936.84 179H4927.84V-418ZM5161.84 222Q5278.84 222 5340.34 316.0Q5401.84 410 5401.84 558Q5401.84 705 5340.84 798.5Q5279.84 892 5161.84 892Q5045.84 892 4983.34 801.0Q4920.84 710 4920.84 558Q4920.84 406 4983.84 314.0Q5046.84 222 5161.84 222Z" />
    <path d="M6617.8 -20Q6418.8 -20 6262.8 70.0Q6106.8 160 6016.3 331.0Q5925.8 502 5925.8 744Q5925.8 987 6016.8 1158.5Q6107.8 1330 6264.8 1420.0Q6421.8 1510 6617.8 1510Q6786.8 1510 6923.8 1447.5Q7060.8 1385 7148.8 1266.5Q7236.8 1148 7258.8 981H6949.8Q6928.8 1102 6840.3 1170.5Q6751.8 1239 6623.8 1239Q6449.8 1239 6342.8 1110.0Q6235.8 981 6235.8 744Q6235.8 502 6343.3 376.5Q6450.8 251 6622.8 251Q6749.8 251 6839.3 319.5Q6928.8 388 6950.8 510H7259.8Q7242.8 371 7161.8 250.5Q7080.8 130 6943.3 55.0Q6805.8 -20 6617.8 -20Z" />
    <path d="M7815.76 1490V0H7515.76V1490Z" />
    <path d="M8423.720000000001 -22Q8263.720000000001 -22 8157.720000000001 62.5Q8051.72 147 8051.72 313Q8051.72 438 8111.72 509.0Q8171.72 580 8267.720000000001 613.0Q8363.720000000001 646 8473.720000000001 656Q8617.720000000001 670 8681.220000000001 685.5Q8744.720000000001 701 8744.720000000001 756V761Q8744.720000000001 832 8699.220000000001 871.0Q8653.720000000001 910 8569.720000000001 910Q8482.720000000001 910 8429.720000000001 872.5Q8376.720000000001 835 8358.720000000001 781L8083.72 827Q8126.72 972 8255.220000000001 1052.0Q8383.720000000001 1132 8570.720000000001 1132Q8690.720000000001 1132 8799.220000000001 1094.0Q8907.720000000001 1056 8976.220000000001 972.5Q9044.720000000001 889 9044.720000000001 753V0H8760.720000000001V155H8750.720000000001Q8709.720000000001 77 8628.720000000001 27.5Q8547.720000000001 -22 8423.720000000001 -22ZM8508.720000000001 189Q8613.720000000001 189 8680.220000000001 250.0Q8746.720000000001 311 8746.720000000001 400V521Q8728.720000000001 508 8688.220000000001 498.5Q8647.720000000001 489 8602.720000000001 481.5Q8557.720000000001 474 8524.720000000001 470Q8441.720000000001 458 8390.720000000001 423.0Q8339.720000000001 388 8339.720000000001 321Q8339.720000000001 256 8387.220000000001 222.5Q8434.720000000001 189 8508.720000000001 189Z" />
    <path d="M9574.68 0 9244.68 1118H9559.68L9656.68 705Q9676.68 612 9700.68 505.0Q9724.68 398 9747.68 273Q9770.68 395 9796.18 502.5Q9821.68 610 9844.68 705L9946.68 1118H10222.68L10322.68 705Q10343.68 610 10369.18 503.0Q10394.68 396 10418.68 272Q10439.68 396 10462.68 503.0Q10485.68 610 10507.68 705L10604.68 1118H10923.68L10591.68 0H10286.68L10162.68 431Q10141.68 503 10122.18 593.0Q10102.68 683 10082.68 771Q10063.68 683 10043.68 592.5Q10023.68 502 10003.68 431L9879.68 0Z" />
  </g>
  <g class="sc-wordmark sc-wordmark-subtitle" fill="#17171A" aria-hidden="true" transform="translate(292 228) scale(0.02201343 -0.02201343)" data-source-style="hero-accent:font-family:Georgia;font-style:italic;font-weight:400;letter-spacing:-0.015em" data-outline-width="291.626">
    <path d="M631.0 -33Q522.0 -33 425.0 5.0Q328.0 43 256.0 116Q183.0 190 141.5 295.0Q100.0 400 100.0 532Q100.0 721 164.0 885.0Q228.0 1049 340.0 1178Q448.0 1302 599.5 1377.0Q751.0 1452 916.0 1452Q1041.0 1452 1135.5 1423.0Q1230.0 1394 1291.0 1351L1347.0 1419H1427.0L1319.0 913H1237.0V953Q1237.0 1035 1224.0 1109.5Q1211.0 1184 1174.0 1244Q1138.0 1302 1075.5 1336.5Q1013.0 1371 916.0 1371Q793.0 1371 687.5 1305.5Q582.0 1240 505.0 1131Q429.0 1025 383.0 870.0Q337.0 715 337.0 554Q337.0 341 441.5 208.5Q546.0 76 722.0 76Q869.0 76 992.5 163.0Q1116.0 250 1194.0 396L1266.0 358Q1140.0 143 985.0 55.0Q830.0 -33 631.0 -33Z" />
    <path d="M2317.2799999999997 616Q2317.2799999999997 498 2277.2799999999997 380.0Q2237.2799999999997 262 2161.2799999999997 173Q2084.2799999999997 81 1975.7799999999997 25.5Q1867.28 -30 1724.28 -30Q1558.28 -30 1454.78 77.0Q1351.28 184 1351.28 365Q1351.28 498 1395.28 613.0Q1439.28 728 1513.28 815Q1588.28 902 1698.78 955.5Q1809.28 1009 1938.28 1009Q2116.2799999999997 1009 2216.7799999999997 900.5Q2317.2799999999997 792 2317.2799999999997 616ZM2113.2799999999997 654Q2113.2799999999997 796 2062.7799999999997 867.0Q2012.28 938 1917.28 938Q1834.28 938 1760.78 887.0Q1687.28 836 1634.28 721Q1593.28 634 1574.28 527.5Q1555.28 421 1555.28 331Q1555.28 188 1604.78 114.5Q1654.28 41 1754.28 41Q1843.28 41 1912.28 97.0Q1981.28 153 2024.28 239Q2067.2799999999997 323 2090.2799999999997 431.5Q2113.2799999999997 540 2113.2799999999997 654Z" />
    <path d="M4096.5599999999995 113 4081.56 49Q3989.56 12 3934.56 -2.5Q3879.56 -17 3840.56 -17Q3760.56 -17 3720.56 24.5Q3680.56 66 3680.56 127Q3680.56 149 3684.56 175.5Q3688.56 202 3697.56 238L3795.56 611Q3806.56 654 3813.06 689.0Q3819.56 724 3819.56 745Q3819.56 812 3790.56 851.0Q3761.56 890 3698.56 890Q3631.56 890 3567.06 858.5Q3502.56 827 3421.56 741L3247.56 0H3061.56L3218.56 668Q3223.56 690 3228.06 714.5Q3232.56 739 3232.56 751Q3232.56 816 3200.06 853.0Q3167.56 890 3104.56 890Q3047.56 890 2978.56 861.5Q2909.56 833 2818.56 734L2649.56 0H2463.56L2612.56 648Q2620.56 683 2628.06 723.0Q2635.56 763 2635.56 791Q2635.56 849 2616.56 867.5Q2597.56 886 2542.56 886Q2520.56 886 2486.06 878.0Q2451.56 870 2432.56 865L2447.56 929Q2525.56 964 2585.56 981.0Q2645.56 998 2688.56 998Q2768.56 998 2802.06 954.5Q2835.56 911 2837.56 836H2843.56Q2961.56 929 3037.56 969.0Q3113.56 1009 3218.56 1009Q3307.56 1009 3363.06 957.5Q3418.56 906 3425.56 828H3429.56Q3536.56 917 3620.06 963.0Q3703.56 1009 3814.56 1009Q3910.56 1009 3962.06 953.5Q4013.56 898 4013.56 808Q4013.56 790 4008.06 744.0Q4002.56 698 3990.56 653L3906.56 332Q3897.56 300 3889.56 258.5Q3881.56 217 3881.56 194Q3881.56 137 3905.56 116.5Q3929.56 96 3986.56 96Q4005.56 96 4041.56 101.0Q4077.56 106 4096.5599999999995 113Z" />
    <path d="M4674.84 109 4659.84 45Q4567.84 8 4512.84 -6.5Q4457.84 -21 4418.84 -21Q4338.84 -21 4298.84 20.5Q4258.84 62 4258.84 123Q4258.84 146 4262.84 171.0Q4266.84 196 4275.84 234L4381.84 659Q4389.84 694 4397.34 734.0Q4404.84 774 4404.84 802Q4404.84 858 4386.34 876.5Q4367.84 895 4310.84 895Q4288.84 895 4252.34 888.0Q4215.84 881 4196.84 876L4211.84 940Q4289.84 975 4351.84 992.0Q4413.84 1009 4449.84 1009Q4531.84 1009 4568.84 970.0Q4605.84 931 4605.84 865Q4605.84 847 4601.84 816.0Q4597.84 785 4589.84 754L4482.84 329Q4472.84 290 4465.34 252.5Q4457.84 215 4457.84 191Q4457.84 134 4483.34 113.0Q4508.84 92 4565.84 92Q4584.84 92 4620.34 97.0Q4655.84 102 4674.84 109ZM4745.84 1387Q4745.84 1330 4708.84 1287.5Q4671.84 1245 4616.84 1245Q4565.84 1245 4528.84 1285.5Q4491.84 1326 4491.84 1378Q4491.84 1433 4528.84 1474.0Q4565.84 1515 4616.84 1515Q4673.84 1515 4709.84 1476.5Q4745.84 1438 4745.84 1387Z" />
    <path d="M5851.12 116 5836.12 52Q5746.12 16 5696.12 -0.5Q5646.12 -17 5595.12 -17Q5515.12 -17 5475.12 24.5Q5435.12 66 5435.12 127Q5435.12 149 5439.12 175.5Q5443.12 202 5452.12 238L5550.12 611Q5561.12 654 5567.62 689.0Q5574.12 724 5574.12 745Q5574.12 812 5542.12 851.0Q5510.12 890 5447.12 890Q5386.12 890 5310.12 850.0Q5234.12 810 5167.12 734L4998.12 0H4812.12L4961.12 648Q4966.12 672 4975.62 717.5Q4985.12 763 4985.12 791Q4985.12 847 4966.12 866.0Q4947.12 885 4890.12 885Q4868.12 885 4834.12 877.5Q4800.12 870 4781.12 865L4796.12 929Q4874.12 964 4934.12 981.0Q4994.12 998 5037.12 998Q5116.12 998 5150.12 955.0Q5184.12 912 5186.12 836H5192.12Q5302.12 924 5382.12 966.5Q5462.12 1009 5564.12 1009Q5660.12 1009 5714.12 953.5Q5768.12 898 5768.12 808Q5768.12 790 5762.62 744.0Q5757.12 698 5745.12 653L5661.12 332Q5652.12 300 5643.62 258.5Q5635.12 217 5635.12 194Q5635.12 137 5660.12 116.5Q5685.12 96 5742.12 96Q5761.12 96 5796.62 102.5Q5832.12 109 5851.12 116Z" />
    <path d="M6588.4 135 6581.4 137Q6561.4 121 6524.9 92.0Q6488.4 63 6448.4 41Q6402.4 14 6355.4 -3.0Q6308.4 -20 6251.4 -20Q6106.4 -20 6027.9 82.5Q5949.4 185 5949.4 365Q5949.4 489 5994.9 606.0Q6040.4 723 6119.4 814Q6195.4 902 6301.4 955.5Q6407.4 1009 6523.4 1009Q6595.4 1009 6659.4 990.5Q6723.4 972 6762.4 947L6945.4 994L6957.4 979L6789.4 191Q6751.4 12 6691.9 -111.5Q6632.4 -235 6554.4 -307Q6474.4 -381 6377.9 -412.5Q6281.4 -444 6159.4 -444Q6076.4 -444 6023.9 -431.0Q5971.4 -418 5941.4 -397Q5911.4 -376 5900.9 -349.5Q5890.4 -323 5890.4 -299Q5890.4 -254 5917.4 -223.5Q5944.4 -193 5991.4 -193Q6028.4 -193 6054.4 -214.5Q6080.4 -236 6096.4 -261Q6113.4 -287 6129.4 -323.0Q6145.4 -359 6153.4 -377H6183.4Q6238.4 -377 6301.4 -352.0Q6364.4 -327 6416.4 -271Q6469.4 -213 6515.4 -115.5Q6561.4 -18 6588.4 135ZM6722.4 774Q6722.4 802 6713.9 831.5Q6705.4 861 6682.4 886Q6660.4 910 6626.4 924.0Q6592.4 938 6539.4 938Q6462.4 938 6393.9 891.5Q6325.4 845 6270.4 764Q6219.4 688 6187.4 580.0Q6155.4 472 6155.4 363Q6155.4 304 6163.9 254.5Q6172.4 205 6193.4 168Q6214.4 131 6248.9 110.5Q6283.4 90 6338.4 90Q6408.4 90 6477.4 130.5Q6546.4 171 6608.4 234Z" />
    <path d="M7846.959999999999 -29Q7698.959999999999 -29 7600.459999999999 23.5Q7501.959999999999 76 7501.959999999999 161Q7501.959999999999 201 7530.959999999999 236.0Q7559.959999999999 271 7601.959999999999 271Q7641.959999999999 271 7666.459999999999 252.5Q7690.959999999999 234 7704.959999999999 209Q7719.959999999999 183 7731.459999999999 147.0Q7742.959999999999 111 7750.959999999999 88Q7765.959999999999 71 7792.459999999999 56.5Q7818.959999999999 42 7868.959999999999 42Q7976.959999999999 42 8032.459999999999 96.0Q8087.959999999999 150 8087.959999999999 242Q8087.959999999999 310 8035.959999999999 350.5Q7983.959999999999 391 7880.959999999999 425Q7843.959999999999 437 7793.959999999999 461.5Q7743.959999999999 486 7713.959999999999 514Q7677.959999999999 546 7655.959999999999 590.0Q7633.959999999999 634 7633.959999999999 694Q7633.959999999999 822 7748.459999999999 915.5Q7862.959999999999 1009 8029.959999999999 1009Q8068.959999999999 1009 8113.959999999999 1005.0Q8158.959999999999 1001 8212.96 983Q8259.96 967 8292.96 935.5Q8325.96 904 8325.96 854Q8325.96 813 8298.46 779.5Q8270.96 746 8225.96 746Q8188.959999999999 746 8164.959999999999 762.0Q8140.959999999999 778 8124.959999999999 805Q8108.959999999999 832 8098.959999999999 863.0Q8088.959999999999 894 8076.959999999999 924Q8057.959999999999 932 8042.959999999999 935.0Q8027.959999999999 938 8002.959999999999 938Q7904.959999999999 938 7854.459999999999 885.5Q7803.959999999999 833 7803.959999999999 761Q7803.959999999999 691 7849.459999999999 655.5Q7894.959999999999 620 7999.959999999999 582Q8135.959999999999 533 8197.46 470.0Q8258.96 407 8258.96 314Q8258.96 162 8141.959999999999 66.5Q8024.959999999999 -29 7846.959999999999 -29Z" />
    <path d="M9370.24 616Q9370.24 498 9330.24 380.0Q9290.24 262 9214.24 173Q9137.24 81 9028.74 25.5Q8920.24 -30 8777.24 -30Q8611.24 -30 8507.74 77.0Q8404.24 184 8404.24 365Q8404.24 498 8448.24 613.0Q8492.24 728 8566.24 815Q8641.24 902 8751.74 955.5Q8862.24 1009 8991.24 1009Q9169.24 1009 9269.74 900.5Q9370.24 792 9370.24 616ZM9166.24 654Q9166.24 796 9115.74 867.0Q9065.24 938 8970.24 938Q8887.24 938 8813.74 887.0Q8740.24 836 8687.24 721Q8646.24 634 8627.24 527.5Q8608.24 421 8608.24 331Q8608.24 188 8657.74 114.5Q8707.24 41 8807.24 41Q8896.24 41 8965.24 97.0Q9034.24 153 9077.24 239Q9120.24 323 9143.24 431.5Q9166.24 540 9166.24 654Z" />
    <path d="M10439.52 616Q10439.52 498 10399.52 380.0Q10359.52 262 10283.52 173Q10206.52 81 10098.02 25.5Q9989.52 -30 9846.52 -30Q9680.52 -30 9577.02 77.0Q9473.52 184 9473.52 365Q9473.52 498 9517.52 613.0Q9561.52 728 9635.52 815Q9710.52 902 9821.02 955.5Q9931.52 1009 10060.52 1009Q10238.52 1009 10339.02 900.5Q10439.52 792 10439.52 616ZM10235.52 654Q10235.52 796 10185.02 867.0Q10134.52 938 10039.52 938Q9956.52 938 9883.02 887.0Q9809.52 836 9756.52 721Q9715.52 634 9696.52 527.5Q9677.52 421 9677.52 331Q9677.52 188 9727.02 114.5Q9776.52 41 9876.52 41Q9965.52 41 10034.52 97.0Q10103.52 153 10146.52 239Q10189.52 323 10212.52 431.5Q10235.52 540 10235.52 654Z" />
    <path d="M11624.800000000001 116 11609.800000000001 52Q11519.800000000001 16 11469.800000000001 -0.5Q11419.800000000001 -17 11368.800000000001 -17Q11288.800000000001 -17 11248.800000000001 24.5Q11208.800000000001 66 11208.800000000001 127Q11208.800000000001 149 11212.800000000001 175.5Q11216.800000000001 202 11225.800000000001 238L11323.800000000001 611Q11334.800000000001 654 11341.300000000001 689.0Q11347.800000000001 724 11347.800000000001 745Q11347.800000000001 812 11315.800000000001 851.0Q11283.800000000001 890 11220.800000000001 890Q11159.800000000001 890 11083.800000000001 850.0Q11007.800000000001 810 10940.800000000001 734L10771.800000000001 0H10585.800000000001L10734.800000000001 648Q10739.800000000001 672 10749.300000000001 717.5Q10758.800000000001 763 10758.800000000001 791Q10758.800000000001 847 10739.800000000001 866.0Q10720.800000000001 885 10663.800000000001 885Q10641.800000000001 885 10607.800000000001 877.5Q10573.800000000001 870 10554.800000000001 865L10569.800000000001 929Q10647.800000000001 964 10707.800000000001 981.0Q10767.800000000001 998 10810.800000000001 998Q10889.800000000001 998 10923.800000000001 955.0Q10957.800000000001 912 10959.800000000001 836H10965.800000000001Q11075.800000000001 924 11155.800000000001 966.5Q11235.800000000001 1009 11337.800000000001 1009Q11433.800000000001 1009 11487.800000000001 953.5Q11541.800000000001 898 11541.800000000001 808Q11541.800000000001 790 11536.300000000001 744.0Q11530.800000000001 698 11518.800000000001 653L11434.800000000001 332Q11425.800000000001 300 11417.300000000001 258.5Q11408.800000000001 217 11408.800000000001 194Q11408.800000000001 137 11433.800000000001 116.5Q11458.800000000001 96 11515.800000000001 96Q11534.800000000001 96 11570.300000000001 102.5Q11605.800000000001 109 11624.800000000001 116Z" />
    <path d="M12053.080000000002 115Q12053.080000000002 59 12012.580000000002 19.5Q11972.080000000002 -20 11916.080000000002 -20Q11860.080000000002 -20 11819.580000000002 19.5Q11779.080000000002 59 11779.080000000002 115Q11779.080000000002 171 11819.580000000002 211.5Q11860.080000000002 252 11916.080000000002 252Q11972.080000000002 252 12012.580000000002 211.5Q12053.080000000002 171 12053.080000000002 115Z" />
    <path d="M12574.360000000002 115Q12574.360000000002 59 12533.860000000002 19.5Q12493.360000000002 -20 12437.360000000002 -20Q12381.360000000002 -20 12340.860000000002 19.5Q12300.360000000002 59 12300.360000000002 115Q12300.360000000002 171 12340.860000000002 211.5Q12381.360000000002 252 12437.360000000002 252Q12493.360000000002 252 12533.860000000002 211.5Q12574.360000000002 171 12574.360000000002 115Z" />
    <path d="M13095.640000000003 115Q13095.640000000003 59 13055.140000000003 19.5Q13014.640000000003 -20 12958.640000000003 -20Q12902.640000000003 -20 12862.140000000003 19.5Q12821.640000000003 59 12821.640000000003 115Q12821.640000000003 171 12862.140000000003 211.5Q12902.640000000003 252 12958.640000000003 252Q13014.640000000003 252 13055.140000000003 211.5Q13095.640000000003 171 13095.640000000003 115Z" />
  </g>
</svg>
