<svg xmlns="http://www.w3.org/2000/svg" viewBox="0 0 1000 240" role="img" aria-labelledby="sc-title sc-desc" preserveAspectRatio="xMidYMid meet">
  <title id="sc-title">SleepClaw — Coming soon...</title>
  <desc id="sc-desc">SleepClaw. Coming soon... An animated red owl floats, sways its ears, flaps both wings, and blinks.</desc>
  <defs>
    <radialGradient id="sc-bodyGradient" gradientUnits="userSpaceOnUse" cx="420" cy="220" r="940" fx="385" fy="175">
      <stop offset="0" stop-color="#f1514b" />
      <stop offset="0.34" stop-color="#df4a44" />
      <stop offset="0.72" stop-color="#c93d39" />
      <stop offset="1" stop-color="#bf3634" />
    </radialGradient>
    <linearGradient id="sc-bodyDepth" gradientUnits="userSpaceOnUse" x1="627" y1="150" x2="627" y2="1080">
      <stop offset="0" stop-color="#ff8b79" stop-opacity="0.05" />
      <stop offset="0.5" stop-color="#8f1518" stop-opacity="0.02" />
      <stop offset="1" stop-color="#761416" stop-opacity="0.08" />
    </linearGradient>
    <linearGradient id="sc-rightShade" gradientUnits="userSpaceOnUse" x1="300" y1="500" x2="1030" y2="630">
      <stop offset="0.45" stop-color="#681013" stop-opacity="0" />
      <stop offset="1" stop-color="#681013" stop-opacity="0.08" />
    </linearGradient>
    <radialGradient id="sc-leftWingGradient" gradientUnits="userSpaceOnUse" cx="205" cy="535" r="410" fx="205" fy="510">
      <stop offset="0" stop-color="#f34b46" />
      <stop offset="0.35" stop-color="#df4742" />
      <stop offset="0.68" stop-color="#d13c39" />
      <stop offset="1" stop-color="#c43132" />
    </radialGradient>
    <radialGradient id="sc-rightWingGradient" gradientUnits="userSpaceOnUse" cx="954" cy="526" r="430" fx="984" fy="508">
      <stop offset="0" stop-color="#f24a45" />
      <stop offset="0.32" stop-color="#d1413b" />
      <stop offset="0.75" stop-color="#c33433" />
      <stop offset="1" stop-color="#b72e30" />
    </radialGradient>
    <radialGradient id="sc-eyeGradient" cx="35%" cy="30%" r="78%">
      <stop offset="0" stop-color="#091b29" />
      <stop offset="0.62" stop-color="#020b15" />
      <stop offset="1" stop-color="#00050c" />
    </radialGradient>
    <radialGradient id="sc-pupilGradient" cx="35%" cy="28%" r="75%">
      <stop offset="0" stop-color="#02ead3" />
      <stop offset="0.58" stop-color="#00dfca" />
      <stop offset="1" stop-color="#00cbbd" />
    </radialGradient>
    <linearGradient id="sc-beakGradient" gradientUnits="userSpaceOnUse" x1="627" y1="490" x2="627" y2="580">
      <stop offset="0" stop-color="#ff735e" />
      <stop offset="0.42" stop-color="#fb6653" />
      <stop offset="1" stop-color="#ef4d42" />
    </linearGradient>
    <radialGradient id="sc-leftFootGradient" gradientUnits="userSpaceOnUse" cx="480" cy="1030" r="115">
      <stop offset="0" stop-color="#ec4743" />
      <stop offset="0.6" stop-color="#dc3d3b" />
      <stop offset="1" stop-color="#c62f31" />
    </radialGradient>
    <radialGradient id="sc-rightFootGradient" gradientUnits="userSpaceOnUse" cx="730" cy="1030" r="125">
      <stop offset="0" stop-color="#e84642" />
      <stop offset="0.6" stop-color="#d83b39" />
      <stop offset="1" stop-color="#c12e30" />
    </radialGradient>
    <filter id="sc-wingShadowBlur" x="-30%" y="-25%" width="160%" height="150%" color-interpolation-filters="sRGB">
      <feGaussianBlur stdDeviation="9" />
    </filter>
    <filter id="sc-eyeShadow" x="-30%" y="-30%" width="160%" height="170%" color-interpolation-filters="sRGB">
      <feDropShadow dx="0" dy="3" stdDeviation="3" flood-color="#681215" flood-opacity="0.25" />
    </filter>
    <clipPath id="sc-bodyClip">
      <path d="M321 293 C348 245 389 214 439 203 C492 171 559 155 620 153 C686 151 760 171 815 202 C865 214 906 246 933 293 C995 362 1032 451 1046 542 C1056 607 1054 680 1040 744 C1019 840 972 928 899 989 C830 1046 744 1073 628 1073 C511 1073 426 1047 355 989 C282 930 234 842 213 749 C199 687 198 613 209 547 C224 451 260 363 321 293 Z" />
    </clipPath>
    <clipPath id="sc-leftEarClip">
      <path d="M439 203 C405 192 378 174 350 151 C339 142 329 137 319 142 C299 154 300 206 309 247 C316 282 321 315 342 338 C369 368 411 376 452 365 C495 354 526 334 536 307 C545 282 532 262 510 245 C488 227 463 213 439 203 Z" />
    </clipPath>
    <clipPath id="sc-rightEarClip">
      <path d="M815 203 C849 192 876 174 904 151 C915 142 925 137 935 142 C955 154 954 206 945 247 C938 282 933 315 912 338 C885 368 843 376 802 365 C759 354 728 334 718 307 C709 282 722 262 744 245 C766 227 791 213 815 203 Z" />
    </clipPath>
    <style>
      svg { overflow: visible; }
      .sc-owl-icon { animation: sc-owl-float 4s ease-in-out infinite; transform-box: fill-box; transform-origin: center; }
      .sc-owl-art { filter: drop-shadow(0 0 20px rgba(255,77,77,.4)); transform-box: fill-box; transform-origin: center; transform: scale(1); transition: transform .3s ease, filter .3s ease; }
      .sc-owl-icon:hover, svg:hover .sc-owl-icon { animation-play-state: paused; }
      .sc-owl-icon:hover .sc-owl-art, svg:hover .sc-owl-art { filter: drop-shadow(0 0 30px rgba(0,229,204,.6)); transform: scale(1.1); }
      .sc-ear-left, .sc-ear-right { animation-duration: 2s; animation-timing-function: ease-in-out; animation-iteration-count: infinite; transform-box: view-box; }
      .sc-ear-left { animation-name: sc-owl-ear-left; transform-origin: 405px 260px; }
      .sc-ear-right { animation-name: sc-owl-ear-right; transform-origin: 849px 260px; }
      #sc-left-wing, #sc-right-wing { animation-duration: 4s; animation-timing-function: ease-in-out; animation-iteration-count: infinite; transform-box: view-box; }
      #sc-left-wing { animation-name: sc-owl-wing-left; transform-origin: 337px 582px; }
      #sc-right-wing { animation-name: sc-owl-wing-right; transform-origin: 917px 582px; }
      .sc-pupil-glow { animation: sc-owl-blink 3s ease-in-out infinite; }
      @keyframes sc-owl-float { 0%, 100% { transform: translateY(0); } 50% { transform: translateY(-3%); } }
      @keyframes sc-owl-ear-left { 0%, 100% { transform: rotate(0); } 25% { transform: rotate(-3deg); } 75% { transform: rotate(3deg); } }
      @keyframes sc-owl-ear-right { 0%, 100% { transform: rotate(0); } 25% { transform: rotate(3deg); } 75% { transform: rotate(-3deg); } }
      @keyframes sc-owl-wing-left { 0%, 74%, 86%, 96%, 100% { transform: rotate(0); } 80%, 91% { transform: rotate(30deg); } }
      @keyframes sc-owl-wing-right { 0%, 74%, 86%, 96%, 100% { transform: rotate(0); } 80%, 91% { transform: rotate(-30deg); } }
      @keyframes sc-owl-blink { 0%, 86%, 94%, 100% { opacity: 1; } 90% { opacity: .3; } }
      @media (prefers-reduced-motion: reduce) {
        .sc-owl-icon, .sc-ear-left, .sc-ear-right, #sc-left-wing, #sc-right-wing, .sc-pupil-glow { animation: none !important; }
        .sc-owl-art { transform: none; transition: none; }
        .sc-owl-icon:hover .sc-owl-art, svg:hover .sc-owl-art { transform: none; filter: drop-shadow(0 0 30px rgba(0,229,204,.6)); }
      }

      .sc-wordmark-title { fill: #17171A; }
      .sc-wordmark-subtitle { fill: #D84A31; }
      @media (prefers-color-scheme: dark) {
        .sc-wordmark-title { fill: #EDEDED; }
      }
    </style>
  </defs>
  <g id="sc-mascot" transform="translate(2 -3) scale(0.2)">
    <g class="sc-owl-icon">
      <g class="sc-owl-art">
        <g class="sc-ear-left">
          <path class="sc-ear-shape" d="M439 203 C405 192 378 174 350 151 C339 142 329 137 319 142 C299 154 300 206 309 247 C316 282 321 315 342 338 C369 368 411 376 452 365 C495 354 526 334 536 307 C545 282 532 262 510 245 C488 227 463 213 439 203 Z" fill="url(#sc-bodyGradient)" vector-effect="non-scaling-stroke" />
          <rect x="236" y="130" width="360" height="300" fill="url(#sc-bodyDepth)" clip-path="url(#sc-leftEarClip)" />
          <rect x="236" y="130" width="360" height="300" fill="url(#sc-rightShade)" clip-path="url(#sc-leftEarClip)" />
        </g>
        <g class="sc-ear-right">
          <path class="sc-ear-shape" d="M815 203 C849 192 876 174 904 151 C915 142 925 137 935 142 C955 154 954 206 945 247 C938 282 933 315 912 338 C885 368 843 376 802 365 C759 354 728 334 718 307 C709 282 722 262 744 245 C766 227 791 213 815 203 Z" fill="url(#sc-bodyGradient)" vector-effect="non-scaling-stroke" />
          <rect x="658" y="130" width="360" height="300" fill="url(#sc-bodyDepth)" clip-path="url(#sc-rightEarClip)" />
          <rect x="658" y="130" width="360" height="300" fill="url(#sc-rightShade)" clip-path="url(#sc-rightEarClip)" />
        </g>
        <g id="sc-body">
          <path d="M321 293 C348 245 389 214 439 203 C492 171 559 155 620 153 C686 151 760 171 815 202 C865 214 906 246 933 293 C995 362 1032 451 1046 542 C1056 607 1054 680 1040 744 C1019 840 972 928 899 989 C830 1046 744 1073 628 1073 C511 1073 426 1047 355 989 C282 930 234 842 213 749 C199 687 198 613 209 547 C224 451 260 363 321 293 Z" fill="url(#sc-bodyGradient)" vector-effect="non-scaling-stroke" />
          <rect x="198" y="140" width="860" height="935" fill="url(#sc-bodyDepth)" clip-path="url(#sc-bodyClip)" />
          <rect x="198" y="140" width="860" height="935" fill="url(#sc-rightShade)" clip-path="url(#sc-bodyClip)" />
        </g>
        <g id="sc-wings">
          <g id="sc-left-wing">
            <path d="M255 494       C225 491 201 519 184 560       C169 600 165 649 169 699       C173 767 193 841 230 884       C241 897 253 899 264 891       C298 864 327 817 344 767       C366 702 359 638 337 582       C318 534 283 495 255 494 Z" fill="#771416" fill-opacity="0.2" transform="translate(8 7)" filter="url(#sc-wingShadowBlur)" clip-path="url(#sc-bodyClip)" />
            <path d="M255 494       C225 491 201 519 184 560       C169 600 165 649 169 699       C173 767 193 841 230 884       C241 897 253 899 264 891       C298 864 327 817 344 767       C366 702 359 638 337 582       C318 534 283 495 255 494 Z" fill="url(#sc-leftWingGradient)" vector-effect="non-scaling-stroke" />
          </g>
          <g id="sc-right-wing">
            <path d="M1000 494       C1029 491 1053 519 1070 560       C1084 600 1088 649 1084 699       C1081 767 1061 841 1024 884       C1013 897 1001 899 990 891       C956 864 927 817 910 767       C888 702 895 638 917 582       C936 534 971 495 1000 494 Z" fill="#771416" fill-opacity="0.2" transform="translate(-8 7)" filter="url(#sc-wingShadowBlur)" clip-path="url(#sc-bodyClip)" />
            <path d="M1000 494       C1029 491 1053 519 1070 560       C1084 600 1088 649 1084 699       C1081 767 1061 841 1024 884       C1013 897 1001 899 990 891       C956 864 927 817 910 767       C888 702 895 638 917 582       C936 534 971 495 1000 494 Z" fill="url(#sc-rightWingGradient)" vector-effect="non-scaling-stroke" />
          </g>
        </g>
        <g id="sc-eyes" filter="url(#sc-eyeShadow)">
          <circle cx="489" cy="420" r="55" fill="url(#sc-eyeGradient)" />
          <circle cx="767" cy="420" r="55" fill="url(#sc-eyeGradient)" />
          <circle class="sc-pupil-glow" cx="499" cy="411" r="19" fill="url(#sc-pupilGradient)" />
          <circle class="sc-pupil-glow" cx="776" cy="411" r="19" fill="url(#sc-pupilGradient)" />
        </g>
        <path id="sc-beak" d="M595 491            C588 491 584 494 583 499            C582 503 584 509 587 515            L617 572            C620 578 624 580 628 579            C632 579 635 575 638 570            L669 511            C672 505 672 500 669 496            C666 492 662 491 655 491 Z" fill="url(#sc-beakGradient)" />
        <g id="sc-feet">
          <path id="sc-left-foot" d="M505 1019              C472 1019 443 1044 441 1076              C440 1090 447 1100 458 1102              C469 1103 479 1095 484 1084              C489 1096 496 1101 506 1101              C517 1101 525 1095 529 1084              C535 1095 543 1101 553 1101              C563 1101 569 1093 567 1081              C565 1047 539 1019 505 1019 Z" fill="url(#sc-leftFootGradient)" vector-effect="non-scaling-stroke" />
          <path id="sc-right-foot" d="M749 1019              C716 1019 689 1046 687 1080              C686 1092 692 1101 702 1102              C712 1102 720 1096 725 1084              C730 1096 738 1101 748 1101              C759 1101 767 1095 772 1084              C777 1095 786 1102 796 1102              C807 1101 814 1092 812 1079              C810 1046 783 1019 749 1019 Z" fill="url(#sc-rightFootGradient)" vector-effect="non-scaling-stroke" />
        </g>
      </g>
    </g>
  </g>
  <g class="sc-wordmark sc-wordmark-title" fill="#17171A" aria-hidden="true" transform="translate(252 121) scale(0.10500000 -0.10500000)" data-outline-width="540.120">
    <path d="M181 509Q181 478 198.5 459.5Q216 441 245.0 430.5Q274 420 310.0 412.5Q346 405 384.5 397.5Q423 390 459.0 377.0Q495 364 524.5 342.5Q554 321 571.0 286.5Q588 252 588 200Q588 132 553.5 83.5Q519 35 459.0 10.0Q399 -15 322 -15Q244 -15 183.5 9.0Q123 33 83.5 82.0Q44 131 31 205H172Q185 151 223.5 122.0Q262 93 323 93Q386 93 418.0 117.5Q450 142 450 183Q450 216 433.0 236.0Q416 256 387.0 267.5Q358 279 322.0 287.0Q286 295 247.5 303.5Q209 312 172.5 324.5Q136 337 107.0 358.0Q78 379 61.0 412.5Q44 446 44 497Q44 551 73.0 596.0Q102 641 158.0 668.0Q214 695 294 695Q363 695 421.5 672.0Q480 649 519.5 601.0Q559 553 569 476H426Q414 534 379.5 560.5Q345 587 290 587Q239 587 210.0 565.5Q181 544 181 509Z" />
    <path d="M59 0V720H187V0Z" transform="translate(639 0)" />
    <path d="M488 322 414 270Q414 355 382.0 400.5Q350 446 290 446Q229 446 197.0 400.0Q165 354 165 267Q165 182 198.5 136.0Q232 90 295 90Q340 90 370.5 111.0Q401 132 413 175H548Q526 82 458.5 33.5Q391 -15 295 -15Q215 -15 156.0 19.0Q97 53 65.5 116.5Q34 180 34 267Q34 358 65.5 421.5Q97 485 155.0 518.0Q213 551 290 551Q368 551 425.0 517.0Q482 483 513.0 421.0Q544 359 544 272V242H87V322Z" transform="translate(904 0)" />
    <path d="M488 322 414 270Q414 355 382.0 400.5Q350 446 290 446Q229 446 197.0 400.0Q165 354 165 267Q165 182 198.5 136.0Q232 90 295 90Q340 90 370.5 111.0Q401 132 413 175H548Q526 82 458.5 33.5Q391 -15 295 -15Q215 -15 156.0 19.0Q97 53 65.5 116.5Q34 180 34 267Q34 358 65.5 421.5Q97 485 155.0 518.0Q213 551 290 551Q368 551 425.0 517.0Q482 483 513.0 421.0Q544 359 544 272V242H87V322Z" transform="translate(1505 0)" />
    <path d="M328 551Q398 551 448.5 517.0Q499 483 526.5 420.0Q554 357 554 269Q554 132 492.5 58.5Q431 -15 328 -15Q239 -15 187.0 58.0Q135 131 135 269Q135 356 159.0 419.5Q183 483 226.5 517.0Q270 551 328 551ZM305 445Q248 445 217.5 400.0Q187 355 187 269Q187 183 218.0 137.0Q249 91 305 91Q363 91 392.5 137.0Q422 183 422 269Q422 354 392.0 399.5Q362 445 305 445ZM187 -220H59V536H187Z" transform="translate(2106 0)" />
    <path d="M657 470H516Q500 525 459.5 554.0Q419 583 362 583Q306 583 265.5 553.5Q225 524 203.5 469.5Q182 415 182 339Q182 263 203.0 209.0Q224 155 264.5 126.0Q305 97 362 97Q416 97 456.5 124.5Q497 152 514 205H656Q638 134 595.5 85.0Q553 36 493.5 10.5Q434 -15 364 -15Q265 -15 193.0 28.0Q121 71 82.5 150.0Q44 229 44 339Q44 449 83.0 528.5Q122 608 194.0 651.5Q266 695 366 695Q437 695 497.0 669.5Q557 644 599.5 594.0Q642 544 657 470Z" transform="translate(2714 0)" />
    <path d="M59 0V720H187V0Z" transform="translate(3425 0)" />
    <path d="M183 360H54Q63 420 93.5 462.5Q124 505 174.5 528.0Q225 551 293 551Q367 551 417.5 524.0Q468 497 493.0 449.0Q518 401 518 339V131Q518 82 522.5 51.5Q527 21 534 0H401Q393 20 391.0 50.5Q389 81 389 112V339Q389 391 363.5 418.0Q338 445 285 445Q239 445 214.0 421.5Q189 398 183 360ZM406 326V247Q332 247 285.0 239.5Q238 232 212.0 218.0Q186 204 175.5 186.0Q165 168 165 147Q165 116 188.0 98.0Q211 80 249 80Q288 80 320.0 99.0Q352 118 370.5 151.0Q389 184 389 224H438Q434 160 413.5 114.5Q393 69 361.5 40.5Q330 12 292.0 -1.5Q254 -15 216 -15Q163 -15 122.5 2.5Q82 20 59.0 54.5Q36 89 36 140Q36 195 66.5 234.5Q97 274 159 295Q215 315 273.5 320.5Q332 326 406 326Z" transform="translate(3690 0)" />
    <path d="M533 0 436 359 423 439H429L414 359L318 0H159L10 536H147L233 158L249 77H242L261 158L364 536H497L600 158L617 77H610L625 158L712 536H843L693 0Z" transform="translate(4291 0)" />
  </g>
  <g class="sc-wordmark sc-wordmark-subtitle" fill="#17171A" aria-hidden="true" transform="translate(257 181) scale(0.04300000 -0.04300000)" data-outline-width="291.712">
    <path d="M358 -10Q265 -10 197.5 25.5Q130 61 93.0 126.0Q56 191 56 278Q56 368 85.5 444.0Q115 520 168.5 576.5Q222 633 294.5 664.0Q367 695 452 695Q509 695 566.0 682.5Q623 670 675 646L667 482H640Q639 492 631.0 509.0Q623 526 614.0 542.0Q605 558 599 566Q573 601 534.5 621.0Q496 641 445 641Q388 641 337.5 613.0Q287 585 249.0 535.5Q211 486 189.5 421.0Q168 356 168 282Q168 212 193.0 159.0Q218 106 263.5 76.5Q309 47 370 47Q446 47 507.5 88.0Q569 129 612 207H640L596 56Q570 37 530.5 22.0Q491 7 446.5 -1.5Q402 -10 358 -10Z" />
    <path d="M246 -10Q154 -10 100.5 50.0Q47 110 47 212Q47 276 67.5 330.5Q88 385 125.5 426.0Q163 467 213.0 489.5Q263 512 321 512Q413 512 466.5 452.0Q520 392 520 290Q520 226 499.0 171.5Q478 117 441.0 76.0Q404 35 354.0 12.5Q304 -10 246 -10ZM251 34Q297 38 333.0 73.5Q369 109 390.0 166.0Q411 223 411 292Q411 362 385.0 410.5Q359 459 315 466Q270 462 233.5 427.0Q197 392 176.0 335.5Q155 279 155 209Q155 139 181.5 90.5Q208 42 251 34Z" transform="translate(687 0)" />
    <path d="M733 -11Q714 -11 704.5 -0.5Q695 10 695 27Q695 34 696.0 44.0Q697 54 701 78L742 308Q745 326 747.0 344.0Q749 362 749 374Q749 400 738.5 414.0Q728 428 708 428Q675 428 642.5 398.0Q610 368 580.5 312.0Q551 256 527.0 177.5Q503 99 486 3L386 -11L440 308Q443 326 445.0 344.0Q447 362 447 374Q447 400 436.5 414.0Q426 428 405 428Q373 428 340.5 398.0Q308 368 278.5 312.0Q249 256 224.5 177.5Q200 99 183 3L83 -11L144 423L139 427L38 373L29 398Q71 439 103.0 464.0Q135 489 160.0 500.5Q185 512 205 512Q225 512 234.0 500.5Q243 489 243 473Q243 467 242.0 457.5Q241 448 238.0 428.5Q235 409 229.5 375.0Q224 341 215 287L223 282Q271 401 325.0 456.5Q379 512 450 512Q494 512 517.5 485.0Q541 458 541 414Q541 396 536.5 366.5Q532 337 519 287L527 282Q575 401 628.0 456.5Q681 512 752 512Q799 512 824.0 483.0Q849 454 849 403Q849 387 847.0 362.5Q845 338 840 314L800 80L805 75L904 128L914 103Q851 43 808.5 16.0Q766 -11 733 -11Z" transform="translate(1238 0)" />
    <path d="M123 -10Q104 -10 95.5 1.0Q87 12 87 28Q87 36 88.5 49.5Q90 63 94 91L147 423L143 427L42 373L32 397Q75 438 108.0 463.0Q141 488 167.0 500.0Q193 512 214 512Q233 512 242.0 500.5Q251 489 251 473Q251 466 249.5 452.5Q248 439 243 411L190 79L194 75L295 129L305 104Q241 43 198.0 16.5Q155 -10 123 -10ZM213 600Q187 600 170.5 617.0Q154 634 154 659Q154 682 165.0 699.5Q176 717 194.0 727.0Q212 737 233 737Q258 737 275.5 720.5Q293 704 293 678Q293 645 270.0 622.5Q247 600 213 600Z" transform="translate(2163 0)" />
    <path d="M183 3 83 -11 144 423 139 427 38 373 29 398Q71 439 103.0 464.0Q135 489 160.0 500.5Q185 512 205 512Q225 512 234.0 500.5Q243 489 243 473Q243 467 242.0 457.5Q241 448 238.0 428.5Q235 409 229.5 375.0Q224 341 215 287L223 282Q271 401 324.5 456.5Q378 512 449 512Q496 512 523.5 483.0Q551 454 551 403Q551 387 548.5 362.5Q546 338 541 314L501 80L507 75L605 128L615 103Q552 43 509.5 16.0Q467 -11 434 -11Q415 -11 405.5 -0.5Q396 10 396 27Q396 34 397.0 44.0Q398 54 402 78L443 308Q446 326 448.0 344.0Q450 362 450 374Q450 400 437.5 414.0Q425 428 404 428Q372 428 339.5 398.0Q307 368 277.5 312.0Q248 256 224.0 177.5Q200 99 183 3Z" transform="translate(2483 0)" />
    <path d="M167 -250Q79 -250 27.5 -218.5Q-24 -187 -24 -133Q-24 -105 -4.5 -83.5Q15 -62 59.5 -42.0Q104 -22 179 -1Q113 1 76.5 46.5Q40 92 40 174Q40 244 65.0 305.5Q90 367 134.5 413.5Q179 460 236.5 486.0Q294 512 360 512Q382 512 408.0 507.5Q434 503 468 493L510 515L528 501L464 53Q442 -104 367.0 -177.0Q292 -250 167 -250ZM178 -206Q252 -206 300.5 -146.5Q349 -87 368 32L398 215L390 219Q369 164 344.0 123.5Q319 83 293 51Q270 23 245.5 3.0Q221 -17 188 -35Q148 -57 125.5 -71.5Q103 -86 94.5 -99.0Q86 -112 86 -130Q86 -164 111.5 -185.0Q137 -206 178 -206ZM215 68Q242 68 272.5 98.5Q303 129 332.5 181.5Q362 234 386.0 301.0Q410 368 423 441Q402 452 384.0 458.5Q366 465 349 469Q309 462 272.5 437.0Q236 412 207.5 372.5Q179 333 163.0 283.5Q147 234 147 178Q147 126 165.5 97.0Q184 68 215 68Z" transform="translate(3109 0)" />
    <path d="M194 -10Q149 -10 103.0 3.0Q57 16 25 39L53 126H75L146 46Q157 42 170.5 39.5Q184 37 196 37Q224 37 247.0 48.0Q270 59 284.0 77.0Q298 95 298 116Q298 133 289.5 149.0Q281 165 258.0 184.0Q235 203 190 229Q129 264 102.0 298.5Q75 333 75 377Q75 439 125.0 475.5Q175 512 257 512Q299 512 340.0 500.0Q381 488 412 466L385 384H364L298 459Q288 462 277.5 463.5Q267 465 256 465Q218 465 193.0 448.5Q168 432 168 405Q168 386 177.0 369.5Q186 353 208.5 335.5Q231 318 271 293Q318 266 344.0 242.0Q370 218 381.0 194.0Q392 170 392 141Q392 97 367.0 63.0Q342 29 297.5 9.5Q253 -10 194 -10Z" transform="translate(3909 0)" />
    <path d="M246 -10Q154 -10 100.5 50.0Q47 110 47 212Q47 276 67.5 330.5Q88 385 125.5 426.0Q163 467 213.0 489.5Q263 512 321 512Q413 512 466.5 452.0Q520 392 520 290Q520 226 499.0 171.5Q478 117 441.0 76.0Q404 35 354.0 12.5Q304 -10 246 -10ZM251 34Q297 38 333.0 73.5Q369 109 390.0 166.0Q411 223 411 292Q411 362 385.0 410.5Q359 459 315 466Q270 462 233.5 427.0Q197 392 176.0 335.5Q155 279 155 209Q155 139 181.5 90.5Q208 42 251 34Z" transform="translate(4345 0)" />
    <path d="M246 -10Q154 -10 100.5 50.0Q47 110 47 212Q47 276 67.5 330.5Q88 385 125.5 426.0Q163 467 213.0 489.5Q263 512 321 512Q413 512 466.5 452.0Q520 392 520 290Q520 226 499.0 171.5Q478 117 441.0 76.0Q404 35 354.0 12.5Q304 -10 246 -10ZM251 34Q297 38 333.0 73.5Q369 109 390.0 166.0Q411 223 411 292Q411 362 385.0 410.5Q359 459 315 466Q270 462 233.5 427.0Q197 392 176.0 335.5Q155 279 155 209Q155 139 181.5 90.5Q208 42 251 34Z" transform="translate(4896 0)" />
    <path d="M183 3 83 -11 144 423 139 427 38 373 29 398Q71 439 103.0 464.0Q135 489 160.0 500.5Q185 512 205 512Q225 512 234.0 500.5Q243 489 243 473Q243 467 242.0 457.5Q241 448 238.0 428.5Q235 409 229.5 375.0Q224 341 215 287L223 282Q271 401 324.5 456.5Q378 512 449 512Q496 512 523.5 483.0Q551 454 551 403Q551 387 548.5 362.5Q546 338 541 314L501 80L507 75L605 128L615 103Q552 43 509.5 16.0Q467 -11 434 -11Q415 -11 405.5 -0.5Q396 10 396 27Q396 34 397.0 44.0Q398 54 402 78L443 308Q446 326 448.0 344.0Q450 362 450 374Q450 400 437.5 414.0Q425 428 404 428Q372 428 339.5 398.0Q307 368 277.5 312.0Q248 256 224.0 177.5Q200 99 183 3Z" transform="translate(5447 0)" />
    <path d="M86 -10Q59 -10 42.0 7.5Q25 25 25 52Q25 85 48.5 107.5Q72 130 106 130Q132 130 150.0 112.5Q168 95 168 69Q168 36 144.5 13.0Q121 -10 86 -10Z" transform="translate(6073 0)" />
    <path d="M86 -10Q59 -10 42.0 7.5Q25 25 25 52Q25 85 48.5 107.5Q72 130 106 130Q132 130 150.0 112.5Q168 95 168 69Q168 36 144.5 13.0Q121 -10 86 -10Z" transform="translate(6305 0)" />
    <path d="M86 -10Q59 -10 42.0 7.5Q25 25 25 52Q25 85 48.5 107.5Q72 130 106 130Q132 130 150.0 112.5Q168 95 168 69Q168 36 144.5 13.0Q121 -10 86 -10Z" transform="translate(6537 0)" />
  </g>
</svg>
