<svg xmlns="http://www.w3.org/2000/svg" viewBox="0 0 1000 240" role="img" aria-labelledby="sc-title sc-desc" preserveAspectRatio="xMidYMid meet">
  <title id="sc-title">SleepClaw — Coming soon...</title>
  <desc id="sc-desc">SleepClaw. Coming soon... An animated red owl floats, sways its ears, flaps both wings, and blinks.</desc>
  <defs>
    <radialGradient id="sc-bodyGradient" gradientUnits="userSpaceOnUse" cx="420" cy="220" r="940" fx="385" fy="175">
      <stop offset="0" stop-color="#f1514b" />
      <stop offset="0.34" stop-color="#df4a44" />
      <stop offset="0.72" stop-color="#c93d39" />
      <stop offset="1" stop-color="#bf3634" />
    </radialGradient>
    <linearGradient id="sc-bodyDepth" gradientUnits="userSpaceOnUse" x1="627" y1="150" x2="627" y2="1080">
      <stop offset="0" stop-color="#ff8b79" stop-opacity="0.05" />
      <stop offset="0.5" stop-color="#8f1518" stop-opacity="0.02" />
      <stop offset="1" stop-color="#761416" stop-opacity="0.08" />
    </linearGradient>
    <linearGradient id="sc-rightShade" gradientUnits="userSpaceOnUse" x1="300" y1="500" x2="1030" y2="630">
      <stop offset="0.45" stop-color="#681013" stop-opacity="0" />
      <stop offset="1" stop-color="#681013" stop-opacity="0.08" />
    </linearGradient>
    <radialGradient id="sc-leftWingGradient" gradientUnits="userSpaceOnUse" cx="205" cy="535" r="410" fx="205" fy="510">
      <stop offset="0" stop-color="#f34b46" />
      <stop offset="0.35" stop-color="#df4742" />
      <stop offset="0.68" stop-color="#d13c39" />
      <stop offset="1" stop-color="#c43132" />
    </radialGradient>
    <radialGradient id="sc-rightWingGradient" gradientUnits="userSpaceOnUse" cx="954" cy="526" r="430" fx="984" fy="508">
      <stop offset="0" stop-color="#f24a45" />
      <stop offset="0.32" stop-color="#d1413b" />
      <stop offset="0.75" stop-color="#c33433" />
      <stop offset="1" stop-color="#b72e30" />
    </radialGradient>
    <radialGradient id="sc-eyeGradient" cx="35%" cy="30%" r="78%">
      <stop offset="0" stop-color="#091b29" />
      <stop offset="0.62" stop-color="#020b15" />
      <stop offset="1" stop-color="#00050c" />
    </radialGradient>
    <radialGradient id="sc-pupilGradient" cx="35%" cy="28%" r="75%">
      <stop offset="0" stop-color="#02ead3" />
      <stop offset="0.58" stop-color="#00dfca" />
      <stop offset="1" stop-color="#00cbbd" />
    </radialGradient>
    <linearGradient id="sc-beakGradient" gradientUnits="userSpaceOnUse" x1="627" y1="490" x2="627" y2="580">
      <stop offset="0" stop-color="#ff735e" />
      <stop offset="0.42" stop-color="#fb6653" />
      <stop offset="1" stop-color="#ef4d42" />
    </linearGradient>
    <radialGradient id="sc-leftFootGradient" gradientUnits="userSpaceOnUse" cx="480" cy="1030" r="115">
      <stop offset="0" stop-color="#ec4743" />
      <stop offset="0.6" stop-color="#dc3d3b" />
      <stop offset="1" stop-color="#c62f31" />
    </radialGradient>
    <radialGradient id="sc-rightFootGradient" gradientUnits="userSpaceOnUse" cx="730" cy="1030" r="125">
      <stop offset="0" stop-color="#e84642" />
      <stop offset="0.6" stop-color="#d83b39" />
      <stop offset="1" stop-color="#c12e30" />
    </radialGradient>
    <filter id="sc-wingShadowBlur" x="-30%" y="-25%" width="160%" height="150%" color-interpolation-filters="sRGB">
      <feGaussianBlur stdDeviation="9" />
    </filter>
    <filter id="sc-eyeShadow" x="-30%" y="-30%" width="160%" height="170%" color-interpolation-filters="sRGB">
      <feDropShadow dx="0" dy="3" stdDeviation="3" flood-color="#681215" flood-opacity="0.25" />
    </filter>
    <clipPath id="sc-bodyClip">
      <path d="M321 293 C348 245 389 214 439 203 C492 171 559 155 620 153 C686 151 760 171 815 202 C865 214 906 246 933 293 C995 362 1032 451 1046 542 C1056 607 1054 680 1040 744 C1019 840 972 928 899 989 C830 1046 744 1073 628 1073 C511 1073 426 1047 355 989 C282 930 234 842 213 749 C199 687 198 613 209 547 C224 451 260 363 321 293 Z" />
    </clipPath>
    <clipPath id="sc-leftEarClip">
      <path d="M439 203 C405 192 378 174 350 151 C339 142 329 137 319 142 C299 154 300 206 309 247 C316 282 321 315 342 338 C369 368 411 376 452 365 C495 354 526 334 536 307 C545 282 532 262 510 245 C488 227 463 213 439 203 Z" />
    </clipPath>
    <clipPath id="sc-rightEarClip">
      <path d="M815 203 C849 192 876 174 904 151 C915 142 925 137 935 142 C955 154 954 206 945 247 C938 282 933 315 912 338 C885 368 843 376 802 365 C759 354 728 334 718 307 C709 282 722 262 744 245 C766 227 791 213 815 203 Z" />
    </clipPath>
    <style>
      svg { overflow: visible; }
      .sc-owl-icon { animation: sc-owl-float 4s ease-in-out infinite; transform-box: fill-box; transform-origin: center; }
      .sc-owl-art { filter: drop-shadow(0 0 20px rgba(255,77,77,.4)); transform-box: fill-box; transform-origin: center; transform: scale(1); transition: transform .3s ease, filter .3s ease; }
      .sc-owl-icon:hover, svg:hover .sc-owl-icon { animation-play-state: paused; }
      .sc-owl-icon:hover .sc-owl-art, svg:hover .sc-owl-art { filter: drop-shadow(0 0 30px rgba(0,229,204,.6)); transform: scale(1.1); }
      .sc-ear-left, .sc-ear-right { animation-duration: 2s; animation-timing-function: ease-in-out; animation-iteration-count: infinite; transform-box: view-box; }
      .sc-ear-left { animation-name: sc-owl-ear-left; transform-origin: 405px 260px; }
      .sc-ear-right { animation-name: sc-owl-ear-right; transform-origin: 849px 260px; }
      #sc-left-wing, #sc-right-wing { animation-duration: 4s; animation-timing-function: ease-in-out; animation-iteration-count: infinite; transform-box: view-box; }
      #sc-left-wing { animation-name: sc-owl-wing-left; transform-origin: 337px 582px; }
      #sc-right-wing { animation-name: sc-owl-wing-right; transform-origin: 917px 582px; }
      .sc-pupil-glow { animation: sc-owl-blink 3s ease-in-out infinite; }
      @keyframes sc-owl-float { 0%, 100% { transform: translateY(0); } 50% { transform: translateY(-3%); } }
      @keyframes sc-owl-ear-left { 0%, 100% { transform: rotate(0); } 25% { transform: rotate(-3deg); } 75% { transform: rotate(3deg); } }
      @keyframes sc-owl-ear-right { 0%, 100% { transform: rotate(0); } 25% { transform: rotate(3deg); } 75% { transform: rotate(-3deg); } }
      @keyframes sc-owl-wing-left { 0%, 74%, 86%, 96%, 100% { transform: rotate(0); } 80%, 91% { transform: rotate(30deg); } }
      @keyframes sc-owl-wing-right { 0%, 74%, 86%, 96%, 100% { transform: rotate(0); } 80%, 91% { transform: rotate(-30deg); } }
      @keyframes sc-owl-blink { 0%, 86%, 94%, 100% { opacity: 1; } 90% { opacity: .3; } }
      @media (prefers-reduced-motion: reduce) {
        .sc-owl-icon, .sc-ear-left, .sc-ear-right, #sc-left-wing, #sc-right-wing, .sc-pupil-glow { animation: none !important; }
        .sc-owl-art { transform: none; transition: none; }
        .sc-owl-icon:hover .sc-owl-art, svg:hover .sc-owl-art { transform: none; filter: drop-shadow(0 0 30px rgba(0,229,204,.6)); }
      }

      .sc-wordmark-title { fill: #17171A; }
      .sc-wordmark-subtitle { fill: #D84A31; }
      @media (prefers-color-scheme: dark) {
        .sc-wordmark-title { fill: #EDEDED; }
      }
    </style>
  </defs>
  <g id="sc-mascot" transform="translate(2 -3) scale(0.2)">
    <g class="sc-owl-icon">
      <g class="sc-owl-art">
        <g class="sc-ear-left">
          <path class="sc-ear-shape" d="M439 203 C405 192 378 174 350 151 C339 142 329 137 319 142 C299 154 300 206 309 247 C316 282 321 315 342 338 C369 368 411 376 452 365 C495 354 526 334 536 307 C545 282 532 262 510 245 C488 227 463 213 439 203 Z" fill="url(#sc-bodyGradient)" vector-effect="non-scaling-stroke" />
          <rect x="236" y="130" width="360" height="300" fill="url(#sc-bodyDepth)" clip-path="url(#sc-leftEarClip)" />
          <rect x="236" y="130" width="360" height="300" fill="url(#sc-rightShade)" clip-path="url(#sc-leftEarClip)" />
        </g>
        <g class="sc-ear-right">
          <path class="sc-ear-shape" d="M815 203 C849 192 876 174 904 151 C915 142 925 137 935 142 C955 154 954 206 945 247 C938 282 933 315 912 338 C885 368 843 376 802 365 C759 354 728 334 718 307 C709 282 722 262 744 245 C766 227 791 213 815 203 Z" fill="url(#sc-bodyGradient)" vector-effect="non-scaling-stroke" />
          <rect x="658" y="130" width="360" height="300" fill="url(#sc-bodyDepth)" clip-path="url(#sc-rightEarClip)" />
          <rect x="658" y="130" width="360" height="300" fill="url(#sc-rightShade)" clip-path="url(#sc-rightEarClip)" />
        </g>
        <g id="sc-body">
          <path d="M321 293 C348 245 389 214 439 203 C492 171 559 155 620 153 C686 151 760 171 815 202 C865 214 906 246 933 293 C995 362 1032 451 1046 542 C1056 607 1054 680 1040 744 C1019 840 972 928 899 989 C830 1046 744 1073 628 1073 C511 1073 426 1047 355 989 C282 930 234 842 213 749 C199 687 198 613 209 547 C224 451 260 363 321 293 Z" fill="url(#sc-bodyGradient)" vector-effect="non-scaling-stroke" />
          <rect x="198" y="140" width="860" height="935" fill="url(#sc-bodyDepth)" clip-path="url(#sc-bodyClip)" />
          <rect x="198" y="140" width="860" height="935" fill="url(#sc-rightShade)" clip-path="url(#sc-bodyClip)" />
        </g>
        <g id="sc-wings">
          <g id="sc-left-wing">
            <path d="M255 494       C225 491 201 519 184 560       C169 600 165 649 169 699       C173 767 193 841 230 884       C241 897 253 899 264 891       C298 864 327 817 344 767       C366 702 359 638 337 582       C318 534 283 495 255 494 Z" fill="#771416" fill-opacity="0.2" transform="translate(8 7)" filter="url(#sc-wingShadowBlur)" clip-path="url(#sc-bodyClip)" />
            <path d="M255 494       C225 491 201 519 184 560       C169 600 165 649 169 699       C173 767 193 841 230 884       C241 897 253 899 264 891       C298 864 327 817 344 767       C366 702 359 638 337 582       C318 534 283 495 255 494 Z" fill="url(#sc-leftWingGradient)" vector-effect="non-scaling-stroke" />
          </g>
          <g id="sc-right-wing">
            <path d="M1000 494       C1029 491 1053 519 1070 560       C1084 600 1088 649 1084 699       C1081 767 1061 841 1024 884       C1013 897 1001 899 990 891       C956 864 927 817 910 767       C888 702 895 638 917 582       C936 534 971 495 1000 494 Z" fill="#771416" fill-opacity="0.2" transform="translate(-8 7)" filter="url(#sc-wingShadowBlur)" clip-path="url(#sc-bodyClip)" />
            <path d="M1000 494       C1029 491 1053 519 1070 560       C1084 600 1088 649 1084 699       C1081 767 1061 841 1024 884       C1013 897 1001 899 990 891       C956 864 927 817 910 767       C888 702 895 638 917 582       C936 534 971 495 1000 494 Z" fill="url(#sc-rightWingGradient)" vector-effect="non-scaling-stroke" />
          </g>
        </g>
        <g id="sc-eyes" filter="url(#sc-eyeShadow)">
          <circle cx="489" cy="420" r="55" fill="url(#sc-eyeGradient)" />
          <circle cx="767" cy="420" r="55" fill="url(#sc-eyeGradient)" />
          <circle class="sc-pupil-glow" cx="499" cy="411" r="19" fill="url(#sc-pupilGradient)" />
          <circle class="sc-pupil-glow" cx="776" cy="411" r="19" fill="url(#sc-pupilGradient)" />
        </g>
        <path id="sc-beak" d="M595 491            C588 491 584 494 583 499            C582 503 584 509 587 515            L617 572            C620 578 624 580 628 579            C632 579 635 575 638 570            L669 511            C672 505 672 500 669 496            C666 492 662 491 655 491 Z" fill="url(#sc-beakGradient)" />
        <g id="sc-feet">
          <path id="sc-left-foot" d="M505 1019              C472 1019 443 1044 441 1076              C440 1090 447 1100 458 1102              C469 1103 479 1095 484 1084              C489 1096 496 1101 506 1101              C517 1101 525 1095 529 1084              C535 1095 543 1101 553 1101              C563 1101 569 1093 567 1081              C565 1047 539 1019 505 1019 Z" fill="url(#sc-leftFootGradient)" vector-effect="non-scaling-stroke" />
          <path id="sc-right-foot" d="M749 1019              C716 1019 689 1046 687 1080              C686 1092 692 1101 702 1102              C712 1102 720 1096 725 1084              C730 1096 738 1101 748 1101              C759 1101 767 1095 772 1084              C777 1095 786 1102 796 1102              C807 1101 814 1092 812 1079              C810 1046 783 1019 749 1019 Z" fill="url(#sc-rightFootGradient)" vector-effect="non-scaling-stroke" />
        </g>
      </g>
    </g>
  </g>
  <g class="sc-wordmark sc-wordmark-title" fill="#17171A" aria-hidden="true" transform="translate(285 158) scale(0.07410663 -0.07410663)" data-source-style="site-brand:font-family:Segoe UI;font-size:.95rem;font-weight:400;letter-spacing:.02em;gap:10px;icon:22px" data-outline-width="707.250">
    <path d="M121.0 58V256Q155.0 226 202.5 202.0Q250.0 178 302.5 161.5Q355.0 145 408.0 136.0Q461.0 127 506.0 127Q661.0 127 737.5 184.5Q814.0 242 814.0 350Q814.0 408 788.5 451.0Q763.0 494 718.0 529.5Q673.0 565 611.5 597.5Q550.0 630 479.0 666Q404.0 704 339.0 743.0Q274.0 782 226.0 829.0Q178.0 876 150.5 935.5Q123.0 995 123.0 1075Q123.0 1173 166.0 1245.5Q209.0 1318 279.0 1365.0Q349.0 1412 438.5 1435.0Q528.0 1458 621.0 1458Q833.0 1458 930.0 1407V1218Q803.0 1306 604.0 1306Q549.0 1306 494.0 1294.5Q439.0 1283 396.0 1257.0Q353.0 1231 326.0 1190.0Q299.0 1149 299.0 1090Q299.0 1035 319.5 995.0Q340.0 955 380.0 922.0Q420.0 889 477.5 858.0Q535.0 827 610.0 790Q687.0 752 756.0 710.0Q825.0 668 877.0 617.0Q929.0 566 959.5 504.0Q990.0 442 990.0 362Q990.0 256 948.5 182.5Q907.0 109 836.5 63.0Q766.0 17 674.0 -3.5Q582.0 -24 480.0 -24Q446.0 -24 396.0 -18.5Q346.0 -13 294.0 -2.5Q242.0 8 195.5 23.5Q149.0 39 121.0 58Z" />
    <path d="M1458.96 0H1294.96V1516H1458.96Z" />
    <path d="M2654.92 471H1931.92Q1935.92 300 2023.92 207.0Q2111.92 114 2265.92 114Q2438.92 114 2583.92 228V74Q2448.92 -24 2226.92 -24Q2009.92 -24 1885.92 115.5Q1761.92 255 1761.92 508Q1761.92 747 1897.42 897.5Q2032.92 1048 2233.92 1048Q2434.92 1048 2544.92 918.0Q2654.92 788 2654.92 557ZM2486.92 610Q2485.92 752 2418.42 831.0Q2350.92 910 2230.92 910Q2114.92 910 2033.92 827.0Q1952.92 744 1933.92 610Z" />
    <path d="M3766.88 471H3043.88Q3047.88 300 3135.88 207.0Q3223.88 114 3377.88 114Q3550.88 114 3695.88 228V74Q3560.88 -24 3338.88 -24Q3121.88 -24 2997.88 115.5Q2873.88 255 2873.88 508Q2873.88 747 3009.38 897.5Q3144.88 1048 3345.88 1048Q3546.88 1048 3656.88 918.0Q3766.88 788 3766.88 557ZM3598.88 610Q3597.88 752 3530.38 831.0Q3462.88 910 3342.88 910Q3226.88 910 3145.88 827.0Q3064.88 744 3045.88 610Z" />
    <path d="M4223.84 148H4219.84V-471H4055.84V1024H4219.84V844H4223.84Q4344.84 1048 4577.84 1048Q4775.84 1048 4886.84 910.5Q4997.84 773 4997.84 542Q4997.84 285 4872.84 130.5Q4747.84 -24 4530.84 -24Q4331.84 -24 4223.84 148ZM4219.84 561V418Q4219.84 291 4302.34 202.5Q4384.84 114 4511.84 114Q4660.84 114 4745.34 228.0Q4829.84 342 4829.84 545Q4829.84 716 4750.84 813.0Q4671.84 910 4536.84 910Q4393.84 910 4306.84 810.5Q4219.84 711 4219.84 561Z" />
    <path d="M6298.8 60Q6139.8 -24 5902.8 -24Q5596.8 -24 5412.8 173.0Q5228.8 370 5228.8 690Q5228.8 1034 5435.8 1246.0Q5642.8 1458 5960.8 1458Q6164.8 1458 6298.8 1399V1220Q6144.8 1306 5958.8 1306Q5711.8 1306 5558.3 1141.0Q5404.8 976 5404.8 700Q5404.8 438 5548.3 282.5Q5691.8 127 5924.8 127Q6140.8 127 6298.8 223Z" />
    <path d="M6773.76 0H6609.76V1516H6773.76Z" />
    <path d="M7879.72 0H7715.72V160H7711.72Q7604.72 -24 7396.72 -24Q7243.72 -24 7157.22 57.0Q7070.72 138 7070.72 272Q7070.72 559 7408.72 606L7715.72 649Q7715.72 910 7504.72 910Q7319.72 910 7170.72 784V952Q7321.72 1048 7518.72 1048Q7879.72 1048 7879.72 666ZM7715.72 518 7468.72 484Q7354.72 468 7296.72 427.5Q7238.72 387 7238.72 284Q7238.72 209 7292.22 161.5Q7345.72 114 7434.72 114Q7556.72 114 7636.22 199.5Q7715.72 285 7715.72 416Z" />
    <path d="M9519.68 1024 9212.68 0H9042.68L8831.68 733Q8819.68 775 8815.68 828H8811.68Q8808.68 792 8790.68 735L8561.68 0H8397.68L8087.68 1024H8259.68L8471.68 254Q8481.68 219 8485.68 162H8493.68Q8496.68 206 8511.68 256L8747.68 1024H8897.68L9109.68 252Q9119.68 215 9124.68 160H9132.68Q9134.68 199 9149.68 252L9357.68 1024Z" />
  </g>
  <g class="sc-wordmark sc-wordmark-subtitle" fill="#17171A" aria-hidden="true" transform="translate(292 228) scale(0.02313273 -0.02313273)" data-source-style="hero-accent:font-family:Segoe UI;font-style:italic;font-weight:400;letter-spacing:-0.015em" data-outline-width="291.626">
    <path d="M1325.0 1196Q1296.0 1215 1258.5 1235.0Q1221.0 1255 1176.0 1271.0Q1131.0 1287 1077.5 1297.0Q1024.0 1307 963.0 1307Q813.0 1307 692.5 1254.0Q572.0 1201 488.0 1108.0Q404.0 1015 358.5 889.5Q313.0 764 313.0 618Q313.0 499 346.0 407.5Q379.0 316 440.0 253.5Q501.0 191 586.0 159.0Q671.0 127 774.0 127Q840.0 127 894.0 134.5Q948.0 142 994.0 155.5Q1040.0 169 1080.5 187.5Q1121.0 206 1159.0 227L1120.0 51Q1039.0 14 946.5 -5.5Q854.0 -25 739.0 -25Q603.0 -25 491.5 20.0Q380.0 65 301.5 147.5Q223.0 230 180.0 346.0Q137.0 462 137.0 604Q137.0 792 196.5 949.0Q256.0 1106 365.5 1219.0Q475.0 1332 628.5 1395.0Q782.0 1458 969.0 1458Q1097.0 1458 1195.5 1430.5Q1294.0 1403 1362.0 1368Z" />
    <path d="M2296.2799999999997 645Q2296.2799999999997 509 2257.7799999999997 387.0Q2219.2799999999997 265 2146.7799999999997 173.5Q2074.2799999999997 82 1970.7799999999997 28.5Q1867.28 -25 1737.28 -25Q1649.28 -25 1578.78 3.0Q1508.28 31 1458.78 83.5Q1409.28 136 1382.78 210.5Q1356.28 285 1356.28 379Q1356.28 520 1396.78 642.5Q1437.28 765 1510.78 855.5Q1584.28 946 1686.78 997.5Q1789.28 1049 1913.28 1049Q2000.28 1049 2070.7799999999997 1021.0Q2141.2799999999997 993 2191.2799999999997 940.5Q2241.2799999999997 888 2268.7799999999997 813.5Q2296.2799999999997 739 2296.2799999999997 645ZM2128.2799999999997 637Q2128.2799999999997 702 2112.2799999999997 752.5Q2096.2799999999997 803 2067.2799999999997 837.5Q2038.28 872 1997.28 890.5Q1956.28 909 1905.28 909Q1817.28 909 1746.28 864.0Q1675.28 819 1626.28 745.5Q1577.28 672 1550.78 578.5Q1524.28 485 1524.28 387Q1524.28 325 1539.78 274.5Q1555.28 224 1583.78 188.5Q1612.28 153 1653.78 134.0Q1695.28 115 1747.28 115Q1836.28 115 1907.28 159.5Q1978.28 204 2027.2799999999997 277.5Q2076.2799999999997 351 2102.2799999999997 445.0Q2128.2799999999997 539 2128.2799999999997 637Z" />
    <path d="M3996.56 766Q3996.56 753 3993.06 726.5Q3989.56 700 3984.06 670.0Q3978.56 640 3973.06 610.5Q3967.56 581 3963.56 561L3842.56 0H3678.56L3803.56 600Q3807.56 617 3811.56 638.0Q3815.56 659 3819.06 679.5Q3822.56 700 3824.56 717.5Q3826.56 735 3826.56 745Q3826.56 824 3792.56 866.5Q3758.56 909 3686.56 909Q3648.56 909 3608.06 891.5Q3567.56 874 3529.06 844.0Q3490.56 814 3455.06 774.0Q3419.56 734 3390.06 688.5Q3360.56 643 3339.56 595.5Q3318.56 548 3308.56 502L3201.56 0H3035.56L3162.56 600Q3166.56 617 3170.56 638.0Q3174.56 659 3178.06 679.5Q3181.56 700 3183.56 717.5Q3185.56 735 3185.56 745Q3185.56 824 3150.56 866.5Q3115.56 909 3045.56 909Q3006.56 909 2965.56 891.5Q2924.56 874 2885.56 843.5Q2846.56 813 2811.06 772.5Q2775.56 732 2746.06 686.5Q2716.56 641 2696.06 593.5Q2675.56 546 2665.56 500L2558.56 0H2392.56L2550.56 731Q2558.56 770 2566.56 812.5Q2574.56 855 2581.56 894.5Q2588.56 934 2593.56 968.0Q2598.56 1002 2601.56 1024H2761.56Q2756.56 985 2749.56 942.5Q2742.56 900 2737.56 864Q2731.56 822 2724.56 782H2728.56Q2764.56 840 2806.56 889.0Q2848.56 938 2895.56 973.5Q2942.56 1009 2993.56 1029.0Q3044.56 1049 3099.56 1049Q3163.56 1049 3209.56 1030.0Q3255.56 1011 3286.06 976.5Q3316.56 942 3332.56 893.0Q3348.56 844 3351.56 784Q3388.56 840 3431.06 888.5Q3473.56 937 3522.06 972.5Q3570.56 1008 3625.06 1028.5Q3679.56 1049 3740.56 1049Q3868.56 1049 3932.56 974.5Q3996.56 900 3996.56 766Z" />
    <path d="M4485.84 4Q4460.84 -4 4429.34 -9.0Q4397.84 -14 4366.84 -14Q4265.84 -14 4215.84 36.5Q4165.84 87 4165.84 172Q4165.84 197 4170.84 231.0Q4175.84 265 4186.84 315L4335.84 1024H4501.84L4351.84 311Q4342.84 269 4339.34 246.0Q4335.84 223 4335.84 207Q4335.84 166 4358.34 144.5Q4380.84 123 4429.84 123Q4455.84 123 4475.34 126.0Q4494.84 129 4511.84 135ZM4602.84 1389Q4602.84 1344 4572.34 1312.0Q4541.84 1280 4496.84 1280Q4452.84 1280 4420.34 1311.5Q4387.84 1343 4387.84 1389Q4387.84 1435 4420.34 1464.0Q4452.84 1493 4496.84 1493Q4540.84 1493 4571.84 1463.5Q4602.84 1434 4602.84 1389Z" />
    <path d="M5615.12 768Q5615.12 753 5611.62 727.0Q5608.12 701 5602.62 671.0Q5597.12 641 5591.62 611.5Q5586.12 582 5581.12 561L5462.12 0H5296.12L5421.12 600Q5425.12 616 5429.12 637.0Q5433.12 658 5436.12 679.0Q5439.12 700 5441.12 717.5Q5443.12 735 5443.12 745Q5443.12 821 5406.62 865.0Q5370.12 909 5298.12 909Q5232.12 909 5167.12 870.0Q5102.12 831 5047.12 771.0Q4992.12 711 4952.62 639.0Q4913.12 567 4899.12 500L4792.12 0H4626.12L4784.12 731Q4792.12 770 4800.12 812.5Q4808.12 855 4815.12 894.5Q4822.12 934 4827.12 968.0Q4832.12 1002 4835.12 1024H4995.12Q4990.12 985 4983.12 942.5Q4976.12 900 4971.12 864Q4965.12 822 4958.12 782H4962.12Q4997.12 837 5039.62 885.5Q5082.12 934 5131.62 970.5Q5181.12 1007 5236.62 1028.0Q5292.12 1049 5353.12 1049Q5421.12 1049 5470.12 1028.5Q5519.12 1008 5551.62 971.0Q5584.12 934 5599.62 882.0Q5615.12 830 5615.12 768Z" />
    <path d="M6539.4 74Q6514.4 -46 6473.4 -147.5Q6432.4 -249 6364.9 -323.5Q6297.4 -398 6198.4 -439.5Q6099.4 -481 5957.4 -481Q5859.4 -481 5786.9 -458.0Q5714.4 -435 5654.4 -403L5685.4 -250Q5748.4 -288 5819.4 -314.0Q5890.4 -340 5972.4 -340Q6061.4 -340 6126.9 -314.0Q6192.4 -288 6239.9 -237.5Q6287.4 -187 6318.9 -114.0Q6350.4 -41 6371.4 53L6406.4 213H6402.4Q6364.4 152 6327.9 107.5Q6291.4 63 6251.4 33.5Q6211.4 4 6167.4 -10.5Q6123.4 -25 6070.4 -25Q6001.4 -25 5945.4 -0.5Q5889.4 24 5849.9 72.0Q5810.4 120 5788.9 192.0Q5767.4 264 5767.4 358Q5767.4 447 5786.9 533.0Q5806.4 619 5843.4 696.0Q5880.4 773 5933.9 837.5Q5987.4 902 6055.4 949.0Q6123.4 996 6204.9 1022.5Q6286.4 1049 6379.4 1049Q6472.4 1049 6565.4 1037.0Q6658.4 1025 6736.4 1010ZM6547.4 889Q6513.4 897 6464.9 903.0Q6416.4 909 6361.4 909Q6267.4 909 6189.4 865.5Q6111.4 822 6054.9 747.5Q5998.4 673 5966.9 574.0Q5935.4 475 5935.4 365Q5935.4 311 5944.9 265.0Q5954.4 219 5974.9 186.0Q5995.4 153 6027.9 134.0Q6060.4 115 6107.4 115Q6162.4 115 6208.9 138.0Q6255.4 161 6294.4 199.0Q6333.4 237 6363.9 285.5Q6394.4 334 6417.9 385.0Q6441.4 436 6457.4 485.5Q6473.4 535 6482.4 575Z" />
    <path d="M8025.959999999999 844Q7980.959999999999 873 7924.959999999999 891.0Q7868.959999999999 909 7812.959999999999 909Q7718.959999999999 909 7667.459999999999 866.0Q7615.959999999999 823 7615.959999999999 752Q7615.959999999999 723 7625.459999999999 699.0Q7634.959999999999 675 7653.459999999999 653.5Q7671.959999999999 632 7700.459999999999 612.0Q7728.959999999999 592 7765.959999999999 569Q7877.959999999999 504 7927.459999999999 435.5Q7976.959999999999 367 7976.959999999999 281Q7976.959999999999 223 7955.459999999999 167.5Q7933.959999999999 112 7886.959999999999 69.5Q7839.959999999999 27 7765.459999999999 1.0Q7690.959999999999 -25 7583.959999999999 -25Q7553.959999999999 -25 7517.959999999999 -21.0Q7481.959999999999 -17 7445.459999999999 -9.0Q7408.959999999999 -1 7375.459999999999 10.5Q7341.959999999999 22 7316.959999999999 37L7349.959999999999 193Q7369.959999999999 179 7399.459999999999 165.0Q7428.959999999999 151 7463.459999999999 140.0Q7497.959999999999 129 7535.459999999999 122.0Q7572.959999999999 115 7609.959999999999 115Q7709.959999999999 115 7759.459999999999 155.0Q7808.959999999999 195 7808.959999999999 266Q7808.959999999999 292 7801.459999999999 314.0Q7793.959999999999 336 7774.959999999999 358.0Q7755.959999999999 380 7724.959999999999 402.5Q7693.959999999999 425 7646.959999999999 453Q7544.959999999999 515 7496.459999999999 582.5Q7447.959999999999 650 7447.959999999999 735Q7447.959999999999 797 7470.959999999999 853.5Q7493.959999999999 910 7539.459999999999 953.5Q7584.959999999999 997 7653.959999999999 1023.0Q7722.959999999999 1049 7814.959999999999 1049Q7886.959999999999 1049 7951.459999999999 1035.0Q8015.959999999999 1021 8060.959999999999 999Z" />
    <path d="M9097.239999999998 645Q9097.239999999998 509 9058.739999999998 387.0Q9020.239999999998 265 8947.739999999998 173.5Q8875.239999999998 82 8771.739999999998 28.5Q8668.239999999998 -25 8538.239999999998 -25Q8450.239999999998 -25 8379.739999999998 3.0Q8309.239999999998 31 8259.739999999998 83.5Q8210.239999999998 136 8183.739999999998 210.5Q8157.239999999999 285 8157.239999999999 379Q8157.239999999999 520 8197.739999999998 642.5Q8238.239999999998 765 8311.739999999998 855.5Q8385.239999999998 946 8487.739999999998 997.5Q8590.239999999998 1049 8714.239999999998 1049Q8801.239999999998 1049 8871.739999999998 1021.0Q8942.239999999998 993 8992.239999999998 940.5Q9042.239999999998 888 9069.739999999998 813.5Q9097.239999999998 739 9097.239999999998 645ZM8929.239999999998 637Q8929.239999999998 702 8913.239999999998 752.5Q8897.239999999998 803 8868.239999999998 837.5Q8839.239999999998 872 8798.239999999998 890.5Q8757.239999999998 909 8706.239999999998 909Q8618.239999999998 909 8547.239999999998 864.0Q8476.239999999998 819 8427.239999999998 745.5Q8378.239999999998 672 8351.739999999998 578.5Q8325.239999999998 485 8325.239999999998 387Q8325.239999999998 325 8340.739999999998 274.5Q8356.239999999998 224 8384.739999999998 188.5Q8413.239999999998 153 8454.739999999998 134.0Q8496.239999999998 115 8548.239999999998 115Q8637.239999999998 115 8708.239999999998 159.5Q8779.239999999998 204 8828.239999999998 277.5Q8877.239999999998 351 8903.239999999998 445.0Q8929.239999999998 539 8929.239999999998 637Z" />
    <path d="M10162.519999999999 645Q10162.519999999999 509 10124.019999999999 387.0Q10085.519999999999 265 10013.019999999999 173.5Q9940.519999999999 82 9837.019999999999 28.5Q9733.519999999999 -25 9603.519999999999 -25Q9515.519999999999 -25 9445.019999999999 3.0Q9374.519999999999 31 9325.019999999999 83.5Q9275.519999999999 136 9249.019999999999 210.5Q9222.519999999999 285 9222.519999999999 379Q9222.519999999999 520 9263.019999999999 642.5Q9303.519999999999 765 9377.019999999999 855.5Q9450.519999999999 946 9553.019999999999 997.5Q9655.519999999999 1049 9779.519999999999 1049Q9866.519999999999 1049 9937.019999999999 1021.0Q10007.519999999999 993 10057.519999999999 940.5Q10107.519999999999 888 10135.019999999999 813.5Q10162.519999999999 739 10162.519999999999 645ZM9994.519999999999 637Q9994.519999999999 702 9978.519999999999 752.5Q9962.519999999999 803 9933.519999999999 837.5Q9904.519999999999 872 9863.519999999999 890.5Q9822.519999999999 909 9771.519999999999 909Q9683.519999999999 909 9612.519999999999 864.0Q9541.519999999999 819 9492.519999999999 745.5Q9443.519999999999 672 9417.019999999999 578.5Q9390.519999999999 485 9390.519999999999 387Q9390.519999999999 325 9406.019999999999 274.5Q9421.519999999999 224 9450.019999999999 188.5Q9478.519999999999 153 9520.019999999999 134.0Q9561.519999999999 115 9613.519999999999 115Q9702.519999999999 115 9773.519999999999 159.5Q9844.519999999999 204 9893.519999999999 277.5Q9942.519999999999 351 9968.519999999999 445.0Q9994.519999999999 539 9994.519999999999 637Z" />
    <path d="M11255.8 768Q11255.8 753 11252.3 727.0Q11248.8 701 11243.3 671.0Q11237.8 641 11232.3 611.5Q11226.8 582 11221.8 561L11102.8 0H10936.8L11061.8 600Q11065.8 616 11069.8 637.0Q11073.8 658 11076.8 679.0Q11079.8 700 11081.8 717.5Q11083.8 735 11083.8 745Q11083.8 821 11047.3 865.0Q11010.8 909 10938.8 909Q10872.8 909 10807.8 870.0Q10742.8 831 10687.8 771.0Q10632.8 711 10593.3 639.0Q10553.8 567 10539.8 500L10432.8 0H10266.8L10424.8 731Q10432.8 770 10440.8 812.5Q10448.8 855 10455.8 894.5Q10462.8 934 10467.8 968.0Q10472.8 1002 10475.8 1024H10635.8Q10630.8 985 10623.8 942.5Q10616.8 900 10611.8 864Q10605.8 822 10598.8 782H10602.8Q10637.8 837 10680.3 885.5Q10722.8 934 10772.3 970.5Q10821.8 1007 10877.3 1028.0Q10932.8 1049 10993.8 1049Q11061.8 1049 11110.8 1028.5Q11159.8 1008 11192.3 971.0Q11224.8 934 11240.3 882.0Q11255.8 830 11255.8 768Z" />
    <path d="M11574.08 88Q11574.08 65 11565.58 45.0Q11557.08 25 11542.08 10.0Q11527.08 -5 11506.58 -14.0Q11486.08 -23 11463.08 -23Q11440.08 -23 11420.08 -14.0Q11400.08 -5 11385.08 10.0Q11370.08 25 11361.58 45.0Q11353.08 65 11353.08 88Q11353.08 111 11361.58 131.5Q11370.08 152 11385.08 167.0Q11400.08 182 11420.08 190.5Q11440.08 199 11463.08 199Q11486.08 199 11506.58 190.5Q11527.08 182 11542.08 167.0Q11557.08 152 11565.58 131.5Q11574.08 111 11574.08 88Z" />
    <path d="M11989.36 88Q11989.36 65 11980.86 45.0Q11972.36 25 11957.36 10.0Q11942.36 -5 11921.86 -14.0Q11901.36 -23 11878.36 -23Q11855.36 -23 11835.36 -14.0Q11815.36 -5 11800.36 10.0Q11785.36 25 11776.86 45.0Q11768.36 65 11768.36 88Q11768.36 111 11776.86 131.5Q11785.36 152 11800.36 167.0Q11815.36 182 11835.36 190.5Q11855.36 199 11878.36 199Q11901.36 199 11921.86 190.5Q11942.36 182 11957.36 167.0Q11972.36 152 11980.86 131.5Q11989.36 111 11989.36 88Z" />
    <path d="M12404.640000000001 88Q12404.640000000001 65 12396.140000000001 45.0Q12387.640000000001 25 12372.640000000001 10.0Q12357.640000000001 -5 12337.140000000001 -14.0Q12316.640000000001 -23 12293.640000000001 -23Q12270.640000000001 -23 12250.640000000001 -14.0Q12230.640000000001 -5 12215.640000000001 10.0Q12200.640000000001 25 12192.140000000001 45.0Q12183.640000000001 65 12183.640000000001 88Q12183.640000000001 111 12192.140000000001 131.5Q12200.640000000001 152 12215.640000000001 167.0Q12230.640000000001 182 12250.640000000001 190.5Q12270.640000000001 199 12293.640000000001 199Q12316.640000000001 199 12337.140000000001 190.5Q12357.640000000001 182 12372.640000000001 167.0Q12387.640000000001 152 12396.140000000001 131.5Q12404.640000000001 111 12404.640000000001 88Z" />
  </g>
</svg>
