<svg xmlns="http://www.w3.org/2000/svg" width="108.9" height="22" viewBox="0 0 108.9 22" role="img" aria-label="Skill grill-powers">
  <title>Skill grill-powers</title>
  <desc>Skill badge + project name as one unit (GT Eesti Display paths, blue underline) so the label does not wrap apart.</desc>
  <style>
    .pill { fill: #0969da; }
    .pill-fg { fill: #ffffff; }
    .n { fill: #0969da; }
    .u { stroke: #0969da; stroke-width: 1; fill: none; }
    @media (prefers-color-scheme: dark) {
      .pill { fill: #1f6feb; }
      .n { fill: #4493f8; }
      .u { stroke: #4493f8; }
    }
  </style>
  <g transform="translate(1.0 2.5)">
    <rect class="pill" width="29.5" height="16" rx="8.0" ry="8.0"/>
    <g class="pill-fg" transform="translate(6.50 11.20) scale(0.011500 -0.011500)">
      <path d="M258.0 715.0 C124.0 715.0 50.0 646.0 50.0 537.0 C50.0 462.0 87.0 404.0 161.0 353.0 L274.0 272.0 C319.0 240.0 345.0 216.0 345.0 180.0 C345.0 138.0 312.0 109.0 246.0 109.0 C179.0 109.0 113.0 137.0 57.0 170.0 L0.0 53.0 C66.0 12.0 151.0 -15.0 242.0 -15.0 C389.0 -15.0 481.0 55.0 481.0 187.0 C481.0 275.0 439.0 331.0 361.0 384.0 L240.0 469.0 C202.0 496.0 186.0 514.0 186.0 541.0 C186.0 572.0 206.0 592.0 259.0 592.0 C305.0 592.0 355.0 576.0 408.0 549.0 L463.0 666.0 C398.0 696.0 328.0 715.0 258.0 715.0 Z" />
      <path d="M751.0 252.0 940.0 462.0 H784.0 L632.0 271.0 V700 H509.0 V0 H632.0 V221 L805.0 0.0 H965.0 Z" />
      <path d="M993.0 694.0 V559 H1133.0 V694 ZM1124.0 0.0 V462 H1001.0 V0 Z" />
      <path d="M1161.0 700.0 V0 H1284.0 V700 Z" />
      <path d="M1312.0 700.0 V0 H1435.0 V700 Z" />
    </g>
  </g>
  <g class="n" transform="translate(36.50 14.50) scale(0.015000 -0.015000)">
    <path d="M264.0 -215.0 C380.0 -215.0 475.0 -180.0 478.0 0.0 V462 H406.0 V380 H404.0 C372.0 438.0 313.0 477.0 229.0 477.0 C102.0 477.0 0.0 384.0 0.0 231.0 C0.0 78.0 102.0 -15.0 229.0 -15.0 C313.0 -15.0 372.0 24.0 404.0 82.0 H406.0 V5 C406.0 -103.0 363.0 -145.0 264.0 -145.0 C218.0 -145.0 159.0 -137.0 100.0 -124.0 L86.0 -194.0 C142.0 -206.0 208.0 -215.0 264.0 -215.0 ZM243.0 56.0 C142.0 56.0 76.0 129.0 76.0 231.0 C76.0 333.0 142.0 406.0 243.0 406.0 C344.0 406.0 410.0 333.0 410.0 231.0 C410.0 129.0 344.0 56.0 243.0 56.0 Z" />
    <path d="M790.0 476.0 C714.0 476.0 661.0 436.0 637.0 364.0 H635.0 V462 H514.0 V0 H636.0 V189 C636.0 302.0 683.0 344.0 781.0 344.0 H795.0 V476 Z" />
    <path d="M831.0 694.0 V559 H971.0 V694 ZM962.0 0.0 V462 H839.0 V0 Z" />
    <path d="M1007.0 700.0 V0 H1130.0 V700 Z" />
    <path d="M1166.0 700.0 V0 H1289.0 V700 Z" />
    <path d="M1325.0 220.0 H1605.0 V300.0 H1325.0 Z" />
    <path d="M1763.0 -200.0 V65 H1765.0 C1794.0 17.0 1844.0 -15.0 1919.0 -15.0 C2040.0 -15.0 2141.0 73.0 2141.0 231.0 C2141.0 389.0 2040.0 477.0 1919.0 477.0 C1844.0 477.0 1794.0 445.0 1765.0 397.0 H1763.0 V462 H1641.0 V-200 ZM1888.0 101.0 C1814.0 101.0 1763.0 153.0 1763.0 231.0 C1763.0 309.0 1814.0 361.0 1888.0 361.0 C1962.0 361.0 2013.0 309.0 2013.0 231.0 C2013.0 153.0 1962.0 101.0 1888.0 101.0 Z" />
    <path d="M2433.0 477.0 C2286.0 477.0 2177.0 376.0 2177.0 231.0 C2177.0 86.0 2286.0 -15.0 2433.0 -15.0 C2580.0 -15.0 2689.0 86.0 2689.0 231.0 C2689.0 376.0 2580.0 477.0 2433.0 477.0 ZM2433.0 361.0 C2508.0 361.0 2562.0 310.0 2562.0 231.0 C2562.0 152.0 2508.0 101.0 2433.0 101.0 C2358.0 101.0 2303.0 152.0 2303.0 231.0 C2303.0 310.0 2358.0 361.0 2433.0 361.0 Z" />
    <path d="M3260.0 157.0 3159.0 462.0 H3043.0 L2942.0 159.0 L2853.0 462.0 H2725.0 L2886.0 0.0 H2995.0 L3101.0 302.0 L3207.0 0.0 H3316.0 L3477.0 462.0 H3349.0 Z" />
    <path d="M3753.0 477.0 C3608.0 477.0 3513.0 377.0 3513.0 230.0 C3513.0 83.0 3611.0 -15.0 3762.0 -15.0 C3859.0 -15.0 3921.0 30.0 3962.0 68.0 L3900.0 157.0 C3874.0 131.0 3828.0 94.0 3762.0 94.0 C3691.0 94.0 3639.0 135.0 3632.0 206.0 H3977.0 V230 C3977.0 388.0 3893.0 477.0 3753.0 477.0 ZM3747.0 378.0 C3807.0 378.0 3849.0 344.0 3853.0 285.0 H3635.0 C3645.0 349.0 3688.0 378.0 3747.0 378.0 Z" />
    <path d="M4289.0 476.0 C4213.0 476.0 4160.0 436.0 4136.0 364.0 H4134.0 V462 H4013.0 V0 H4135.0 V189 C4135.0 302.0 4182.0 344.0 4280.0 344.0 H4294.0 V476 Z" />
    <path d="M4521.0 -15.0 C4625.0 -15.0 4693.0 29.0 4693.0 117.0 C4693.0 183.0 4653.0 219.0 4594.0 247.0 L4510.0 286.0 C4465.0 307.0 4444.0 325.0 4444.0 356.0 C4444.0 391.0 4472.0 409.0 4524.0 409.0 C4570.0 409.0 4613.0 395.0 4651.0 377.0 L4682.0 441.0 C4634.0 463.0 4580.0 477.0 4526.0 477.0 C4430.0 477.0 4367.0 434.0 4367.0 353.0 C4367.0 297.0 4400.0 255.0 4467.0 224.0 L4553.0 183.0 C4595.0 164.0 4616.0 144.0 4616.0 114.0 C4616.0 78.0 4587.0 53.0 4524.0 53.0 C4466.0 53.0 4411.0 73.0 4365.0 103.0 L4330.0 39.0 C4382.0 6.0 4451.0 -15.0 4521.0 -15.0 Z" />
  </g>
  <line class="u" x1="1.0" y1="17.5" x2="106.9" y2="17.5" />
</svg>
