<svg xmlns="http://www.w3.org/2000/svg" width="150.7" height="22" viewBox="0 0 150.7 22" role="img" aria-label="Skill desktop-organizer">
  <title>Skill desktop-organizer</title>
  <desc>Skill badge + project name as one unit (GT Eesti Display paths, blue underline) so the label does not wrap apart.</desc>
  <style>
    .pill { fill: #0969da; }
    .pill-fg { fill: #ffffff; }
    .n { fill: #0969da; }
    .u { stroke: #0969da; stroke-width: 1; fill: none; }
    @media (prefers-color-scheme: dark) {
      .pill { fill: #1f6feb; }
      .n { fill: #4493f8; }
      .u { stroke: #4493f8; }
    }
  </style>
  <g transform="translate(1.0 2.5)">
    <rect class="pill" width="29.5" height="16" rx="8.0" ry="8.0"/>
    <g class="pill-fg" transform="translate(6.50 11.20) scale(0.011500 -0.011500)">
      <path d="M258.0 715.0 C124.0 715.0 50.0 646.0 50.0 537.0 C50.0 462.0 87.0 404.0 161.0 353.0 L274.0 272.0 C319.0 240.0 345.0 216.0 345.0 180.0 C345.0 138.0 312.0 109.0 246.0 109.0 C179.0 109.0 113.0 137.0 57.0 170.0 L0.0 53.0 C66.0 12.0 151.0 -15.0 242.0 -15.0 C389.0 -15.0 481.0 55.0 481.0 187.0 C481.0 275.0 439.0 331.0 361.0 384.0 L240.0 469.0 C202.0 496.0 186.0 514.0 186.0 541.0 C186.0 572.0 206.0 592.0 259.0 592.0 C305.0 592.0 355.0 576.0 408.0 549.0 L463.0 666.0 C398.0 696.0 328.0 715.0 258.0 715.0 Z" />
      <path d="M751.0 252.0 940.0 462.0 H784.0 L632.0 271.0 V700 H509.0 V0 H632.0 V221 L805.0 0.0 H965.0 Z" />
      <path d="M993.0 694.0 V559 H1133.0 V694 ZM1124.0 0.0 V462 H1001.0 V0 Z" />
      <path d="M1161.0 700.0 V0 H1284.0 V700 Z" />
      <path d="M1312.0 700.0 V0 H1435.0 V700 Z" />
    </g>
  </g>
  <g class="n" transform="translate(36.50 14.50) scale(0.015000 -0.015000)">
    <path d="M222.0 -15.0 C297.0 -15.0 347.0 17.0 376.0 65.0 H378.0 V0 H500.0 V700 H378.0 V397 H376.0 C347.0 445.0 297.0 477.0 222.0 477.0 C101.0 477.0 0.0 389.0 0.0 231.0 C0.0 73.0 101.0 -15.0 222.0 -15.0 ZM253.0 101.0 C179.0 101.0 128.0 153.0 128.0 231.0 C128.0 309.0 179.0 361.0 253.0 361.0 C327.0 361.0 378.0 309.0 378.0 231.0 C378.0 153.0 327.0 101.0 253.0 101.0 Z" />
    <path d="M776.0 477.0 C631.0 477.0 536.0 377.0 536.0 230.0 C536.0 83.0 634.0 -15.0 785.0 -15.0 C882.0 -15.0 944.0 30.0 985.0 68.0 L923.0 157.0 C897.0 131.0 851.0 94.0 785.0 94.0 C714.0 94.0 662.0 135.0 655.0 206.0 H1000.0 V230 C1000.0 388.0 916.0 477.0 776.0 477.0 ZM770.0 378.0 C830.0 378.0 872.0 344.0 876.0 285.0 H658.0 C668.0 349.0 711.0 378.0 770.0 378.0 Z" />
    <path d="M1227.0 -15.0 C1331.0 -15.0 1399.0 29.0 1399.0 117.0 C1399.0 183.0 1359.0 219.0 1300.0 247.0 L1216.0 286.0 C1171.0 307.0 1150.0 325.0 1150.0 356.0 C1150.0 391.0 1178.0 409.0 1230.0 409.0 C1276.0 409.0 1319.0 395.0 1357.0 377.0 L1388.0 441.0 C1340.0 463.0 1286.0 477.0 1232.0 477.0 C1136.0 477.0 1073.0 434.0 1073.0 353.0 C1073.0 297.0 1106.0 255.0 1173.0 224.0 L1259.0 183.0 C1301.0 164.0 1322.0 144.0 1322.0 114.0 C1322.0 78.0 1293.0 53.0 1230.0 53.0 C1172.0 53.0 1117.0 73.0 1071.0 103.0 L1036.0 39.0 C1088.0 6.0 1157.0 -15.0 1227.0 -15.0 Z" />
    <path d="M1677.0 252.0 1866.0 462.0 H1710.0 L1558.0 271.0 V700 H1435.0 V0 H1558.0 V221 L1731.0 0.0 H1891.0 Z" />
    <path d="M2230.0 462.0 H2135.0 V647 H2012.0 V462 H1927.0 V359 H2012.0 V136 C2012.0 43.0 2064.0 -1.0 2151.0 -1.0 H2205.0 V113 H2184.0 C2148.0 113.0 2135.0 128.0 2135.0 165.0 V359 H2230.0 Z" />
    <path d="M2522.0 477.0 C2375.0 477.0 2266.0 376.0 2266.0 231.0 C2266.0 86.0 2375.0 -15.0 2522.0 -15.0 C2669.0 -15.0 2778.0 86.0 2778.0 231.0 C2778.0 376.0 2669.0 477.0 2522.0 477.0 ZM2522.0 361.0 C2597.0 361.0 2651.0 310.0 2651.0 231.0 C2651.0 152.0 2597.0 101.0 2522.0 101.0 C2447.0 101.0 2392.0 152.0 2392.0 231.0 C2392.0 310.0 2447.0 361.0 2522.0 361.0 Z" />
    <path d="M2936.0 -200.0 V65 H2938.0 C2967.0 17.0 3017.0 -15.0 3092.0 -15.0 C3213.0 -15.0 3314.0 73.0 3314.0 231.0 C3314.0 389.0 3213.0 477.0 3092.0 477.0 C3017.0 477.0 2967.0 445.0 2938.0 397.0 H2936.0 V462 H2814.0 V-200 ZM3061.0 101.0 C2987.0 101.0 2936.0 153.0 2936.0 231.0 C2936.0 309.0 2987.0 361.0 3061.0 361.0 C3135.0 361.0 3186.0 309.0 3186.0 231.0 C3186.0 153.0 3135.0 101.0 3061.0 101.0 Z" />
    <path d="M3350.0 220.0 H3630.0 V300.0 H3350.0 Z" />
    <path d="M3922.0 477.0 C3775.0 477.0 3666.0 376.0 3666.0 231.0 C3666.0 86.0 3775.0 -15.0 3922.0 -15.0 C4069.0 -15.0 4178.0 86.0 4178.0 231.0 C4178.0 376.0 4069.0 477.0 3922.0 477.0 ZM3922.0 361.0 C3997.0 361.0 4051.0 310.0 4051.0 231.0 C4051.0 152.0 3997.0 101.0 3922.0 101.0 C3847.0 101.0 3792.0 152.0 3792.0 231.0 C3792.0 310.0 3847.0 361.0 3922.0 361.0 Z" />
    <path d="M4490.0 476.0 C4414.0 476.0 4361.0 436.0 4337.0 364.0 H4335.0 V462 H4214.0 V0 H4336.0 V189 C4336.0 302.0 4383.0 344.0 4481.0 344.0 H4495.0 V476 Z" />
    <path d="M4795.0 -215.0 C4911.0 -215.0 5006.0 -180.0 5009.0 0.0 V462 H4937.0 V380 H4935.0 C4903.0 438.0 4844.0 477.0 4760.0 477.0 C4633.0 477.0 4531.0 384.0 4531.0 231.0 C4531.0 78.0 4633.0 -15.0 4760.0 -15.0 C4844.0 -15.0 4903.0 24.0 4935.0 82.0 H4937.0 V5 C4937.0 -103.0 4894.0 -145.0 4795.0 -145.0 C4749.0 -145.0 4690.0 -137.0 4631.0 -124.0 L4617.0 -194.0 C4673.0 -206.0 4739.0 -215.0 4795.0 -215.0 ZM4774.0 56.0 C4673.0 56.0 4607.0 129.0 4607.0 231.0 C4607.0 333.0 4673.0 406.0 4774.0 406.0 C4875.0 406.0 4941.0 333.0 4941.0 231.0 C4941.0 129.0 4875.0 56.0 4774.0 56.0 Z" />
    <path d="M5267.0 -15.0 C5342.0 -15.0 5392.0 17.0 5421.0 65.0 H5423.0 V0 H5545.0 V462 H5423.0 V397 H5421.0 C5392.0 445.0 5342.0 477.0 5267.0 477.0 C5146.0 477.0 5045.0 389.0 5045.0 231.0 C5045.0 73.0 5146.0 -15.0 5267.0 -15.0 ZM5298.0 101.0 C5224.0 101.0 5173.0 153.0 5173.0 231.0 C5173.0 309.0 5224.0 361.0 5298.0 361.0 C5372.0 361.0 5423.0 309.0 5423.0 231.0 C5423.0 153.0 5372.0 101.0 5298.0 101.0 Z" />
    <path d="M5855.0 477.0 C5787.0 477.0 5735.0 445.0 5704.0 392.0 H5702.0 V462 H5581.0 V0 H5703.0 V226 C5703.0 326.0 5748.0 363.0 5811.0 363.0 C5871.0 363.0 5906.0 331.0 5906.0 256.0 V0 H6029.0 V285 C6029.0 421.0 5955.0 477.0 5855.0 477.0 Z" />
    <path d="M6065.0 694.0 V559 H6205.0 V694 ZM6196.0 0.0 V462 H6073.0 V0 Z" />
    <path d="M6241.0 700.0 H6661.0 V600 H6381.0 L6661.0 100.0 V0 H6241.0 V100 H6521.0 L6241.0 600.0 Z" />
    <path d="M6937.0 477.0 C6792.0 477.0 6697.0 377.0 6697.0 230.0 C6697.0 83.0 6795.0 -15.0 6946.0 -15.0 C7043.0 -15.0 7105.0 30.0 7146.0 68.0 L7084.0 157.0 C7058.0 131.0 7012.0 94.0 6946.0 94.0 C6875.0 94.0 6823.0 135.0 6816.0 206.0 H7161.0 V230 C7161.0 388.0 7077.0 477.0 6937.0 477.0 ZM6931.0 378.0 C6991.0 378.0 7033.0 344.0 7037.0 285.0 H6819.0 C6829.0 349.0 6872.0 378.0 6931.0 378.0 Z" />
    <path d="M7473.0 476.0 C7397.0 476.0 7344.0 436.0 7320.0 364.0 H7318.0 V462 H7197.0 V0 H7319.0 V189 C7319.0 302.0 7366.0 344.0 7464.0 344.0 H7478.0 V476 Z" />
  </g>
  <line class="u" x1="1.0" y1="17.5" x2="148.7" y2="17.5" />
</svg>
