<svg xmlns="http://www.w3.org/2000/svg" width="40" height="20" viewBox="0 0 40 20" role="img" aria-label="Data">
  <style>
    .n { fill: #57606a; }
    @media (prefers-color-scheme: dark) {
      .n { fill: #8b949e; }
    }

  </style>
  <g class="n" transform="translate(2.00 14.48) scale(0.016000 -0.016000)">
    <path d="M66.0 700V0H290.0C501.0 0 654.0 132 654.0 350C654.0 568 501.0 700 290.0 700ZM296.0 582C422.0 582 516.0 501 516.0 350C516.0 199 422.0 118 296.0 118H194.0V582Z" />
    <path d="M931.0 -15C1006.0 -15 1056.0 17 1085.0 65H1087.0V0H1209.0V462H1087.0V397H1085.0C1056.0 445 1006.0 477 931.0 477C810.0 477 709.0 389 709.0 231C709.0 73 810.0 -15 931.0 -15ZM962.0 101C888.0 101 837.0 153 837.0 231C837.0 309 888.0 361 962.0 361C1036.0 361 1087.0 309 1087.0 231C1087.0 153 1036.0 101 962.0 101Z" />
    <path d="M1577.0 462H1482.0V647H1359.0V462H1274.0V359H1359.0V136C1359.0 43 1411.0 -1 1498.0 -1H1552.0V113H1531.0C1495.0 113 1482.0 128 1482.0 165V359H1577.0Z" />
    <path d="M1843.0 -15C1918.0 -15 1968.0 17 1997.0 65H1999.0V0H2121.0V462H1999.0V397H1997.0C1968.0 445 1918.0 477 1843.0 477C1722.0 477 1621.0 389 1621.0 231C1621.0 73 1722.0 -15 1843.0 -15ZM1874.0 101C1800.0 101 1749.0 153 1749.0 231C1749.0 309 1800.0 361 1874.0 361C1948.0 361 1999.0 309 1999.0 231C1999.0 153 1948.0 101 1874.0 101Z" />
  </g>
</svg>
