<svg xmlns="http://www.w3.org/2000/svg" width="66" height="25" viewBox="0 0 66 25" role="img" aria-label="About">
  <title>About</title>
  <style>
    .n { fill: #0969da; }
    .u { stroke: #0969da; stroke-width: 1; fill: none; }
    @media (prefers-color-scheme: dark) {
      .n { fill: #4493f8; }
      .u { stroke: #4493f8; }
    }
  </style>
  <g transform="translate(1.00 2.00) scale(0.50000)" aria-hidden="true">
    <!-- soft shadow -->
    <ellipse cx="16.5" cy="28.5" rx="9" ry="2.2" fill="#000000" opacity="0.08"/>
    <!-- palm -->
    <path fill="#FFCA28" d="
      M9.5 28
      C7.2 28 5.5 26.2 5.5 23.8
      V16.5
      C5.5 15.1 6.6 14 8 14
      C8.6 14 9.1 14.2 9.5 14.5
      V15.2
      C10.2 14.5 11.1 14 12.2 14
      H20.5
      C23.5 14 25.8 16.2 25.8 19.2
      V23.5
      C25.8 26.3 23.5 28 20.8 28
      H9.5
      Z
    "/>
    <!-- palm highlight -->
    <path fill="#FFD54F" opacity="0.55" d="
      M9.8 16.2
      H20.2
      C22.2 16.2 23.8 17.7 23.8 19.6
      V22.8
      C23.8 24.5 22.3 25.8 20.5 25.8
      H10.5
      C9.3 25.8 8.3 24.9 8.3 23.7
      V17.6
      C8.3 16.8 9 16.2 9.8 16.2
      Z
    "/>
    <!-- thumb -->
    <path fill="#FFCA28" d="
      M5.8 20.5
      C4.2 19.2 4.1 16.8 5.5 15.4
      C6.8 14.1 8.9 14.2 10.1 15.5
      C10.7 16.1 11 16.9 11 17.8
      V22.2
      C9.2 22.8 7.2 21.7 5.8 20.5
      Z
    "/>
    <path fill="#FFD54F" opacity="0.5" d="
      M6.6 16.6
      C7.4 15.8 8.7 15.9 9.4 16.7
      C9.8 17.1 10 17.6 10 18.2
      V20.8
      C8.9 21.1 7.6 20.5 6.8 19.7
      C6.2 19 6.1 17.4 6.6 16.6
      Z
    "/>
    <!-- fingers: index, middle, ring, pinky as rounded rects -->
    <rect x="11.2" y="5.8" width="3.1" height="10.2" rx="1.55" fill="#FFCA28"/>
    <rect x="14.8" y="4.2" width="3.1" height="11.8" rx="1.55" fill="#FFCA28"/>
    <rect x="18.4" y="5.2" width="3.1" height="10.8" rx="1.55" fill="#FFCA28"/>
    <rect x="22.0" y="6.8" width="3.0" height="9.2" rx="1.5" fill="#FFCA28"/>
    <!-- finger highlights -->
    <rect x="11.7" y="6.4" width="1.1" height="7.5" rx="0.55" fill="#FFE082" opacity="0.7"/>
    <rect x="15.3" y="4.9" width="1.1" height="8.8" rx="0.55" fill="#FFE082" opacity="0.7"/>
    <rect x="18.9" y="5.9" width="1.1" height="7.8" rx="0.55" fill="#FFE082" opacity="0.7"/>
    <rect x="22.5" y="7.4" width="1.0" height="6.5" rx="0.5" fill="#FFE082" opacity="0.7"/>
    <!-- subtle finger separators on palm -->
    <path stroke="#F9A825" stroke-width="0.7" stroke-linecap="round" opacity="0.45" fill="none"
          d="M14.4 15.5v4.5 M18 15.5v4.5 M21.6 16v4"/>
  </g>
  <g class="n" transform="translate(21.00 14.48) scale(0.016000 -0.016000)">
    <path d="M651.0 0 366.0 700H293.0L7.0 0H91.0L165.0 187H494.0L568.0 0ZM330.0 602 466.0 258H193.0Z" />
    <path d="M975.0 -15C1102.0 -15 1204.0 78 1204.0 231C1204.0 384 1102.0 477 975.0 477C891.0 477 832.0 438 800.0 380H798.0V700H726.0V0H798.0V82H800.0C832.0 24 891.0 -15 975.0 -15ZM961.0 56C860.0 56 794.0 129 794.0 231C794.0 333 860.0 406 961.0 406C1062.0 406 1128.0 333 1128.0 231C1128.0 129 1062.0 56 961.0 56Z" />
    <path d="M1518.0 477C1374.0 477 1268.0 374 1268.0 231C1268.0 88 1374.0 -15 1518.0 -15C1663.0 -15 1768.0 88 1768.0 231C1768.0 374 1663.0 477 1518.0 477ZM1518.0 406C1618.0 406 1692.0 337 1692.0 231C1692.0 125 1618.0 56 1518.0 56C1418.0 56 1344.0 125 1344.0 231C1344.0 337 1418.0 406 1518.0 406Z" />
    <path d="M2031.0 -15C2118.0 -15 2165.0 33 2188.0 86H2190.0V0H2262.0V462H2190.0V253C2190.0 105 2127.0 55 2049.0 55C1981.0 55 1932.0 94 1932.0 187V462H1859.0V183C1859.0 41 1936.0 -15 2031.0 -15Z" />
    <path d="M2608.0 462H2506.0V647H2434.0V462H2345.0V400H2434.0V113C2434.0 38 2478.0 -1 2551.0 -1H2589.0V66H2564.0C2526.0 66 2506.0 86 2506.0 127V400H2608.0Z" />
  </g>
  <line class="u" x1="1.00" y1="17.48" x2="63.11" y2="17.48" />
</svg>
