<svg xmlns="http://www.w3.org/2000/svg" width="72" height="25" viewBox="0 0 72 25" role="img" aria-label="Agents">
  <title>Agents</title>
  <desc>Nav with vector icon + GT Eesti Display Light, blue underline.</desc>
  <style>
    .n { fill: #0969da; }
    .u { stroke: #0969da; stroke-width: 1; fill: none; }
    @media (prefers-color-scheme: dark) {
      .n { fill: #4493f8; }
      .u { stroke: #4493f8; }
    }

  </style>
  <g transform="translate(1.00 2.00) scale(0.50000)" aria-hidden="true">
    <!-- antenna -->
    <circle cx="16" cy="5" r="2" fill="#EF5350"/>
    <rect x="15.2" y="6.5" width="1.6" height="3" fill="#90A4AE"/>
    <!-- head -->
    <rect x="6" y="9" width="20" height="16" rx="4" fill="#90A4AE"/>
    <rect x="8" y="11" width="16" height="12" rx="3" fill="#CFD8DC"/>
    <!-- eyes -->
    <circle cx="12" cy="16" r="2.2" fill="#42A5F5"/>
    <circle cx="20" cy="16" r="2.2" fill="#42A5F5"/>
    <circle cx="12.5" cy="15.5" r="0.7" fill="#E3F2FD"/>
    <circle cx="20.5" cy="15.5" r="0.7" fill="#E3F2FD"/>
    <!-- mouth -->
    <rect x="12" y="20" width="8" height="1.6" rx="0.8" fill="#78909C"/>
    <!-- ears -->
    <rect x="3.5" y="14" width="2.5" height="5" rx="1" fill="#78909C"/>
    <rect x="26" y="14" width="2.5" height="5" rx="1" fill="#78909C"/>
  </g>
  <g class="n" transform="translate(21.00 14.48) scale(0.016000 -0.016000)">
    <path d="M651.0 0 366.0 700H293.0L7.0 0H91.0L165.0 187H494.0L568.0 0ZM330.0 602 466.0 258H193.0Z" />
    <path d="M955.0 -215C1071.0 -215 1166.0 -180 1169.0 0V462H1097.0V380H1095.0C1063.0 438 1004.0 477 920.0 477C793.0 477 691.0 384 691.0 231C691.0 78 793.0 -15 920.0 -15C1004.0 -15 1063.0 24 1095.0 82H1097.0V5C1097.0 -103 1054.0 -145 955.0 -145C909.0 -145 850.0 -137 791.0 -124L777.0 -194C833.0 -206 899.0 -215 955.0 -215ZM934.0 56C833.0 56 767.0 129 767.0 231C767.0 333 833.0 406 934.0 406C1035.0 406 1101.0 333 1101.0 231C1101.0 129 1035.0 56 934.0 56Z" />
    <path d="M1498.0 477C1357.0 477 1263.0 378 1263.0 230C1263.0 84 1357.0 -15 1503.0 -15C1619.0 -15 1678.0 48 1712.0 96L1660.0 143C1632.0 106 1588.0 55 1502.0 55C1405.0 55 1338.0 119 1336.0 221H1720.0V234C1720.0 371 1649.0 477 1498.0 477ZM1494.0 410C1583.0 410 1635.0 360 1642.0 276H1339.0C1350.0 364 1414.0 410 1494.0 410Z" />
    <path d="M2055.0 477C1976.0 477 1920.0 440 1890.0 373H1888.0V462H1816.0V0H1888.0V213C1888.0 357 1957.0 405 2036.0 405C2110.0 405 2160.0 365 2160.0 271V0H2232.0V281C2232.0 420 2158.0 477 2055.0 477Z" />
    <path d="M2573.0 462H2471.0V647H2399.0V462H2310.0V400H2399.0V113C2399.0 38 2443.0 -1 2516.0 -1H2554.0V66H2529.0C2491.0 66 2471.0 86 2471.0 127V400H2573.0Z" />
    <path d="M2807.0 -15C2911.0 -15 2979.0 29 2979.0 117C2979.0 183 2939.0 219 2880.0 247L2796.0 286C2751.0 307 2730.0 325 2730.0 356C2730.0 391 2758.0 409 2810.0 409C2856.0 409 2899.0 395 2937.0 377L2968.0 441C2920.0 463 2866.0 477 2812.0 477C2716.0 477 2653.0 434 2653.0 353C2653.0 297 2686.0 255 2753.0 224L2839.0 183C2881.0 164 2902.0 144 2902.0 114C2902.0 78 2873.0 53 2810.0 53C2752.0 53 2697.0 73 2651.0 103L2616.0 39C2668.0 6 2737.0 -15 2807.0 -15Z" />
  </g>
  <line class="u" x1="1.00" y1="17.48" x2="69.05" y2="17.48" />
</svg>
