<svg xmlns="http://www.w3.org/2000/svg" width="66" height="25" viewBox="0 0 66 25" role="img" aria-label="About">
  <title>About</title>
  <style>
    .n { fill: #0969da; }
    .u { stroke: #0969da; stroke-width: 1; fill: none; }
    @media (prefers-color-scheme: dark) {
      .n { fill: #4493f8; }
      .u { stroke: #4493f8; }
    }

  </style>
  <g transform="translate(1.00 2.00) scale(0.50000)" aria-hidden="true">
    <!-- palm + fingers (open wave) -->
    <path fill="#FFC107" stroke="#F9A825" stroke-width="0.4" stroke-linejoin="round" d="
      M11.5 29
      C8.2 29 6 26.6 6 23.2
      V15.2
      C6 13.7 7.2 12.5 8.7 12.5
      C9.3 12.5 9.9 12.7 10.3 13.1
      V10.8
      C10.3 9.3 11.5 8.1 13 8.1
      C13.6 8.1 14.1 8.3 14.5 8.6
      V9.2
      C14.5 7.7 15.7 6.5 17.2 6.5
      C18.7 6.5 19.9 7.7 19.9 9.2
      V10.5
      C19.9 9 21.1 7.8 22.6 7.8
      C24.1 7.8 25.3 9 25.3 10.5
      V14.8
      C25.3 13.6 26.3 12.7 27.5 12.7
      C28.8 12.7 29.8 13.7 29.8 15
      V21.5
      C29.8 26.2 26.2 29 21.5 29
      H11.5
      Z
    "/>
    <!-- finger gaps / highlight -->
    <path fill="#FFD54F" d="
      M12.2 13.5
      C12.2 12.2 13.1 11.2 14.3 11.2
      C15.4 11.2 16.2 12 16.2 13.1
      V18.5
      H14.8
      V13.5
      H12.2
      Z
    " opacity="0.55"/>
    <!-- thumb highlight -->
    <path fill="#FFB300" d="
      M8.2 15.5
      C8.2 14.3 9.1 13.4 10.2 13.4
      C11.1 13.4 11.8 14.1 11.8 15
      V20.2
      H10
      V15.5
      H8.2
      Z
    " opacity="0.45"/>
    <!-- palm shadow -->
    <ellipse cx="17.5" cy="22.5" rx="6.5" ry="4.2" fill="#FFA000" opacity="0.28"/>
    <!-- wrist cuff -->
    <path fill="#42A5F5" d="M10.5 27.2h12.2c1.1 0 2 .7 2 1.6v.7H8.5v-.7c0-.9.9-1.6 2-1.6z"/>
    <path fill="#1E88E5" d="M8.5 28.8h16.2v1.2c0 .4-.4.7-.9.7H9.4c-.5 0-.9-.3-.9-.7v-1.2z"/>
  </g>
  <g class="n" transform="translate(21.00 14.48) scale(0.016000 -0.016000)">
    <path d="M651.0 0 366.0 700H293.0L7.0 0H91.0L165.0 187H494.0L568.0 0ZM330.0 602 466.0 258H193.0Z" />
    <path d="M975.0 -15C1102.0 -15 1204.0 78 1204.0 231C1204.0 384 1102.0 477 975.0 477C891.0 477 832.0 438 800.0 380H798.0V700H726.0V0H798.0V82H800.0C832.0 24 891.0 -15 975.0 -15ZM961.0 56C860.0 56 794.0 129 794.0 231C794.0 333 860.0 406 961.0 406C1062.0 406 1128.0 333 1128.0 231C1128.0 129 1062.0 56 961.0 56Z" />
    <path d="M1518.0 477C1374.0 477 1268.0 374 1268.0 231C1268.0 88 1374.0 -15 1518.0 -15C1663.0 -15 1768.0 88 1768.0 231C1768.0 374 1663.0 477 1518.0 477ZM1518.0 406C1618.0 406 1692.0 337 1692.0 231C1692.0 125 1618.0 56 1518.0 56C1418.0 56 1344.0 125 1344.0 231C1344.0 337 1418.0 406 1518.0 406Z" />
    <path d="M2031.0 -15C2118.0 -15 2165.0 33 2188.0 86H2190.0V0H2262.0V462H2190.0V253C2190.0 105 2127.0 55 2049.0 55C1981.0 55 1932.0 94 1932.0 187V462H1859.0V183C1859.0 41 1936.0 -15 2031.0 -15Z" />
    <path d="M2608.0 462H2506.0V647H2434.0V462H2345.0V400H2434.0V113C2434.0 38 2478.0 -1 2551.0 -1H2589.0V66H2564.0C2526.0 66 2506.0 86 2506.0 127V400H2608.0Z" />
  </g>
  <line class="u" x1="1.00" y1="17.48" x2="63.11" y2="17.48" />
</svg>
