<svg xmlns="http://www.w3.org/2000/svg" width="49" height="20" viewBox="0 0 49 20" role="img" aria-label="About">
  <style>
    .n { fill: #57606a; }
    @media (prefers-color-scheme: dark) {
      .n { fill: #8b949e; }
    }

  </style>
  <g class="n" transform="translate(2.00 14.48) scale(0.016000 -0.016000)">
    <path d="M693.0 0 412.0 700H284.0L3.0 0H145.0L204.0 159H492.0L551.0 0ZM348.0 550 450.0 275H246.0Z" />
    <path d="M1031.0 -15C1152.0 -15 1253.0 73 1253.0 231C1253.0 389 1152.0 477 1031.0 477C956.0 477 906.0 445 877.0 397H875.0V700H752.0V0H875.0V65H877.0C906.0 17 956.0 -15 1031.0 -15ZM1000.0 101C926.0 101 875.0 153 875.0 231C875.0 309 926.0 361 1000.0 361C1074.0 361 1125.0 309 1125.0 231C1125.0 153 1074.0 101 1000.0 101Z" />
    <path d="M1561.0 477C1414.0 477 1305.0 376 1305.0 231C1305.0 86 1414.0 -15 1561.0 -15C1708.0 -15 1817.0 86 1817.0 231C1817.0 376 1708.0 477 1561.0 477ZM1561.0 361C1636.0 361 1690.0 310 1690.0 231C1690.0 152 1636.0 101 1561.0 101C1486.0 101 1431.0 152 1431.0 231C1431.0 310 1486.0 361 1561.0 361Z" />
    <path d="M2062.0 -15C2134.0 -15 2178.0 21 2206.0 71H2208.0V0H2329.0V462H2206.0V240C2206.0 138 2165.0 98 2104.0 98C2051.0 98 2017.0 129 2017.0 201V462H1891.0V179C1891.0 42 1968.0 -15 2062.0 -15Z" />
    <path d="M2699.0 462H2604.0V647H2481.0V462H2396.0V359H2481.0V136C2481.0 43 2533.0 -1 2620.0 -1H2674.0V113H2653.0C2617.0 113 2604.0 128 2604.0 165V359H2699.0Z" />
  </g>
</svg>
