<svg xmlns="http://www.w3.org/2000/svg" width="44" height="20" viewBox="0 0 44 20" role="img" aria-label="Stack">
  <style>
    .n { fill: #57606a; }
    @media (prefers-color-scheme: dark) {
      .n { fill: #8b949e; }
    }

  </style>
  <g class="n" transform="translate(2.00 14.48) scale(0.016000 -0.016000)">
    <path d="M269.0 715C135.0 715 61.0 646 61.0 537C61.0 462 98.0 404 172.0 353L285.0 272C330.0 240 356.0 216 356.0 180C356.0 138 323.0 109 257.0 109C190.0 109 124.0 137 68.0 170L11.0 53C77.0 12 162.0 -15 253.0 -15C400.0 -15 492.0 55 492.0 187C492.0 275 450.0 331 372.0 384L251.0 469C213.0 496 197.0 514 197.0 541C197.0 572 217.0 592 270.0 592C316.0 592 366.0 576 419.0 549L474.0 666C409.0 696 339.0 715 269.0 715Z" />
    <path d="M837.0 462H742.0V647H619.0V462H534.0V359H619.0V136C619.0 43 671.0 -1 758.0 -1H812.0V113H791.0C755.0 113 742.0 128 742.0 165V359H837.0Z" />
    <path d="M1103.0 -15C1178.0 -15 1228.0 17 1257.0 65H1259.0V0H1381.0V462H1259.0V397H1257.0C1228.0 445 1178.0 477 1103.0 477C982.0 477 881.0 389 881.0 231C881.0 73 982.0 -15 1103.0 -15ZM1134.0 101C1060.0 101 1009.0 153 1009.0 231C1009.0 309 1060.0 361 1134.0 361C1208.0 361 1259.0 309 1259.0 231C1259.0 153 1208.0 101 1134.0 101Z" />
    <path d="M1714.0 -15C1777.0 -15 1828.0 1 1876.0 31L1823.0 132C1793.0 113 1758.0 100 1716.0 100C1640.0 100 1585.0 153 1585.0 231C1585.0 309 1640.0 362 1716.0 362C1758.0 362 1793.0 349 1823.0 330L1876.0 431C1828.0 461 1777.0 477 1714.0 477C1565.0 477 1459.0 379 1459.0 231C1459.0 83 1565.0 -15 1714.0 -15Z" />
    <path d="M2188.0 252 2377.0 462H2221.0L2069.0 271V700H1946.0V0H2069.0V221L2242.0 0H2402.0Z" />
  </g>
</svg>
