<svg xmlns="http://www.w3.org/2000/svg" width="66" height="25" viewBox="0 0 66 25" role="img" aria-label="About">
  <title>About</title>
  <style>
    .n { fill: #0969da; }
    .u { stroke: #0969da; stroke-width: 1; fill: none; }
    @media (prefers-color-scheme: dark) {
      .n { fill: #4493f8; }
      .u { stroke: #4493f8; }
    }
  </style>
  <g transform="translate(1.00 2.00) scale(0.44444)" aria-hidden="true">
    <path fill="#EF9645" d="M4.861 9.147c.94-.657 2.357-.531 3.201.166l-.968-1.407c-.779-1.111-.5-2.313.612-3.093c1.112-.777 4.263 1.312 4.263 1.312c-.786-1.122-.639-2.544.483-3.331a2.483 2.483 0 0 1 3.456.611l10.42 14.72L25 31l-11.083-4.042L4.25 12.625a2.495 2.495 0 0 1 .611-3.478"/>
    <path fill="#FFDC5D" d="M2.695 17.336s-1.132-1.65.519-2.781c1.649-1.131 2.78.518 2.78.518l5.251 7.658c.181-.302.379-.6.6-.894L4.557 11.21s-1.131-1.649.519-2.78c1.649-1.131 2.78.518 2.78.518l6.855 9.997c.255-.208.516-.417.785-.622L7.549 6.732s-1.131-1.649.519-2.78c1.649-1.131 2.78.518 2.78.518l7.947 11.589c.292-.179.581-.334.871-.498L12.238 4.729s-1.131-1.649.518-2.78c1.649-1.131 2.78.518 2.78.518l7.854 11.454l1.194 1.742c-4.948 3.394-5.419 9.779-2.592 13.902c.565.825 1.39.26 1.39.26c-3.393-4.949-2.357-10.51 2.592-13.903L24.515 8.62s-.545-1.924 1.378-2.47c1.924-.545 2.47 1.379 2.47 1.379l1.685 5.004c.668 1.984 1.379 3.961 2.32 5.831c2.657 5.28 1.07 11.842-3.94 15.279c-5.465 3.747-12.936 2.354-16.684-3.11z"/>
    <g fill="#5DADEC">
      <path d="M12 32.042C8 32.042 3.958 28 3.958 24c0-.553-.405-1-.958-1s-1.042.447-1.042 1C1.958 30 6 34.042 12 34.042c.553 0 1-.489 1-1.042s-.447-.958-1-.958"/>
      <path d="M7 34c-3 0-5-2-5-5a1 1 0 1 0-2 0c0 4 3 7 7 7a1 1 0 1 0 0-2M24 2a1 1 0 0 0 0 2c4 0 8 3.589 8 8a1 1 0 0 0 2 0c0-5.514-4-10-10-10"/>
      <path d="M29 .042c-.552 0-1 .406-1 .958s.448 1.042 1 1.042c3 0 4.958 2.225 4.958 4.958c0 .552.489 1 1.042 1s.958-.448.958-1C35.958 3.163 33 .042 29 .042"/>
    </g>

  </g>
  <g class="n" transform="translate(21.00 14.48) scale(0.016000 -0.016000)">
    <path d="M651.0 0 366.0 700H293.0L7.0 0H91.0L165.0 187H494.0L568.0 0ZM330.0 602 466.0 258H193.0Z" />
    <path d="M975.0 -15C1102.0 -15 1204.0 78 1204.0 231C1204.0 384 1102.0 477 975.0 477C891.0 477 832.0 438 800.0 380H798.0V700H726.0V0H798.0V82H800.0C832.0 24 891.0 -15 975.0 -15ZM961.0 56C860.0 56 794.0 129 794.0 231C794.0 333 860.0 406 961.0 406C1062.0 406 1128.0 333 1128.0 231C1128.0 129 1062.0 56 961.0 56Z" />
    <path d="M1518.0 477C1374.0 477 1268.0 374 1268.0 231C1268.0 88 1374.0 -15 1518.0 -15C1663.0 -15 1768.0 88 1768.0 231C1768.0 374 1663.0 477 1518.0 477ZM1518.0 406C1618.0 406 1692.0 337 1692.0 231C1692.0 125 1618.0 56 1518.0 56C1418.0 56 1344.0 125 1344.0 231C1344.0 337 1418.0 406 1518.0 406Z" />
    <path d="M2031.0 -15C2118.0 -15 2165.0 33 2188.0 86H2190.0V0H2262.0V462H2190.0V253C2190.0 105 2127.0 55 2049.0 55C1981.0 55 1932.0 94 1932.0 187V462H1859.0V183C1859.0 41 1936.0 -15 2031.0 -15Z" />
    <path d="M2608.0 462H2506.0V647H2434.0V462H2345.0V400H2434.0V113C2434.0 38 2478.0 -1 2551.0 -1H2589.0V66H2564.0C2526.0 66 2506.0 86 2506.0 127V400H2608.0Z" />
  </g>
  <line class="u" x1="1.00" y1="17.48" x2="63.11" y2="17.48" />
</svg>
