<svg xmlns="http://www.w3.org/2000/svg" width="69" height="20" viewBox="0 0 69 20" role="img" aria-label="Software">
  <style>
    .n { fill: #57606a; }
    @media (prefers-color-scheme: dark) {
      .n { fill: #8b949e; }
    }

  </style>
  <g class="n" transform="translate(2.00 14.48) scale(0.016000 -0.016000)">
    <path d="M269.0 715C135.0 715 61.0 646 61.0 537C61.0 462 98.0 404 172.0 353L285.0 272C330.0 240 356.0 216 356.0 180C356.0 138 323.0 109 257.0 109C190.0 109 124.0 137 68.0 170L11.0 53C77.0 12 162.0 -15 253.0 -15C400.0 -15 492.0 55 492.0 187C492.0 275 450.0 331 372.0 384L251.0 469C213.0 496 197.0 514 197.0 541C197.0 572 217.0 592 270.0 592C316.0 592 366.0 576 419.0 549L474.0 666C409.0 696 339.0 715 269.0 715Z" />
    <path d="M803.0 477C656.0 477 547.0 376 547.0 231C547.0 86 656.0 -15 803.0 -15C950.0 -15 1059.0 86 1059.0 231C1059.0 376 950.0 477 803.0 477ZM803.0 361C878.0 361 932.0 310 932.0 231C932.0 152 878.0 101 803.0 101C728.0 101 673.0 152 673.0 231C673.0 310 728.0 361 803.0 361Z" />
    <path d="M1400.0 596V710H1375.0C1245.0 710 1177.0 641 1177.0 508V462H1100.0V359H1177.0V0H1299.0V359H1394.0V462H1299.0V508C1299.0 575 1330.0 596 1386.0 596Z" />
    <path d="M1726.0 462H1631.0V647H1508.0V462H1423.0V359H1508.0V136C1508.0 43 1560.0 -1 1647.0 -1H1701.0V113H1680.0C1644.0 113 1631.0 128 1631.0 165V359H1726.0Z" />
    <path d="M2284.0 157 2183.0 462H2067.0L1966.0 159L1877.0 462H1749.0L1910.0 0H2019.0L2125.0 302L2231.0 0H2340.0L2501.0 462H2373.0Z" />
    <path d="M2754.0 -15C2829.0 -15 2879.0 17 2908.0 65H2910.0V0H3032.0V462H2910.0V397H2908.0C2879.0 445 2829.0 477 2754.0 477C2633.0 477 2532.0 389 2532.0 231C2532.0 73 2633.0 -15 2754.0 -15ZM2785.0 101C2711.0 101 2660.0 153 2660.0 231C2660.0 309 2711.0 361 2785.0 361C2859.0 361 2910.0 309 2910.0 231C2910.0 153 2859.0 101 2785.0 101Z" />
    <path d="M3414.0 476C3338.0 476 3285.0 436 3261.0 364H3259.0V462H3138.0V0H3260.0V189C3260.0 302 3307.0 344 3405.0 344H3419.0V476Z" />
    <path d="M3695.0 477C3550.0 477 3455.0 377 3455.0 230C3455.0 83 3553.0 -15 3704.0 -15C3801.0 -15 3863.0 30 3904.0 68L3842.0 157C3816.0 131 3770.0 94 3704.0 94C3633.0 94 3581.0 135 3574.0 206H3919.0V230C3919.0 388 3835.0 477 3695.0 477ZM3689.0 378C3749.0 378 3791.0 344 3795.0 285H3577.0C3587.0 349 3630.0 378 3689.0 378Z" />
  </g>
</svg>
