<svg xmlns="http://www.w3.org/2000/svg" width="62" height="29" viewBox="0 0 62 29" role="img" aria-label="📊 Data">
  <title>📊 Data</title>
  <desc>Nav link with icon, GT Eesti Display Light, blue thin underline.</desc>
  <style>
    .n { fill: #0969da; }
    .u { stroke: #0969da; stroke-width: 1; fill: none; }
    .emoji { font-size: 15px; dominant-baseline: middle; }
    @media (prefers-color-scheme: dark) {
      .n { fill: #4493f8; }
      .u { stroke: #4493f8; }
    }

  </style>
  <text class="emoji" x="1.0" y="11.0">📊</text>
  <g class="n" transform="translate(25.00 14.48) scale(0.016000 -0.016000)">
    <path d="M74.0 700V0H293.0C496.0 0 645.0 132 645.0 350C645.0 568 496.0 700 293.0 700ZM293.0 627C445.0 627 562.0 530 562.0 350C562.0 169 445.0 72 293.0 72H151.0V627Z" />
    <path d="M944.0 -15C1028.0 -15 1087.0 24 1119.0 82H1121.0V0H1193.0V462H1121.0V380H1119.0C1087.0 438 1028.0 477 944.0 477C817.0 477 715.0 384 715.0 231C715.0 78 817.0 -15 944.0 -15ZM958.0 56C857.0 56 791.0 129 791.0 231C791.0 333 857.0 406 958.0 406C1059.0 406 1125.0 333 1125.0 231C1125.0 129 1059.0 56 958.0 56Z" />
    <path d="M1537.0 462H1435.0V647H1363.0V462H1274.0V400H1363.0V113C1363.0 38 1407.0 -1 1480.0 -1H1518.0V66H1493.0C1455.0 66 1435.0 86 1435.0 127V400H1537.0Z" />
    <path d="M1822.0 -15C1906.0 -15 1965.0 24 1997.0 82H1999.0V0H2071.0V462H1999.0V380H1997.0C1965.0 438 1906.0 477 1822.0 477C1695.0 477 1593.0 384 1593.0 231C1593.0 78 1695.0 -15 1822.0 -15ZM1836.0 56C1735.0 56 1669.0 129 1669.0 231C1669.0 333 1735.0 406 1836.0 406C1937.0 406 2003.0 333 2003.0 231C2003.0 129 1937.0 56 1836.0 56Z" />
  </g>
  <line class="u" x1="1.00" y1="17.48" x2="59.13" y2="17.48" />
</svg>
