<svg xmlns="http://www.w3.org/2000/svg" width="88" height="29" viewBox="0 0 88 29" role="img" aria-label="💻 Software">
  <title>💻 Software</title>
  <desc>Nav link with icon, GT Eesti Display Light, blue thin underline.</desc>
  <style>
    .n { fill: #0969da; }
    .u { stroke: #0969da; stroke-width: 1; fill: none; }
    .emoji { font-size: 15px; dominant-baseline: middle; }
    @media (prefers-color-scheme: dark) {
      .n { fill: #4493f8; }
      .u { stroke: #4493f8; }
    }

  </style>
  <text class="emoji" x="1.0" y="11.0">💻</text>
  <g class="n" transform="translate(25.00 14.48) scale(0.016000 -0.016000)">
    <path d="M256.0 715C135.0 715 67.0 652 67.0 554C67.0 477 110.0 429 170.0 384L284.0 298C347.0 251 375.0 216 375.0 168C375.0 111 333.0 63 240.0 63C173.0 63 108.0 89 56.0 121L19.0 49C78.0 11 159.0 -15 240.0 -15C368.0 -15 457.0 49 457.0 173C457.0 257 414.0 311 340.0 365L225.0 450C181.0 482 150.0 510 150.0 557C150.0 605 184.0 637 255.0 637C303.0 637 351.0 623 398.0 597L434.0 671C382.0 696 323.0 715 256.0 715Z" />
    <path d="M779.0 477C635.0 477 529.0 374 529.0 231C529.0 88 635.0 -15 779.0 -15C924.0 -15 1029.0 88 1029.0 231C1029.0 374 924.0 477 779.0 477ZM779.0 406C879.0 406 953.0 337 953.0 231C953.0 125 879.0 56 779.0 56C679.0 56 605.0 125 605.0 231C605.0 337 679.0 406 779.0 406Z" />
    <path d="M1350.0 642V710H1334.0C1233.0 710 1170.0 654 1170.0 539V462H1085.0V400H1170.0V0H1241.0V400H1346.0V462H1241.0V540C1241.0 617 1282.0 642 1337.0 642Z" />
    <path d="M1651.0 462H1549.0V647H1477.0V462H1388.0V400H1477.0V113C1477.0 38 1521.0 -1 1594.0 -1H1632.0V66H1607.0C1569.0 66 1549.0 86 1549.0 127V400H1651.0Z" />
    <path d="M2196.0 92 2071.0 462H1998.0L1873.0 92L1761.0 462H1682.0L1838.0 0H1906.0L2034.0 368L2162.0 0H2231.0L2387.0 462H2307.0Z" />
    <path d="M2655.0 -15C2739.0 -15 2798.0 24 2830.0 82H2832.0V0H2904.0V462H2832.0V380H2830.0C2798.0 438 2739.0 477 2655.0 477C2528.0 477 2426.0 384 2426.0 231C2426.0 78 2528.0 -15 2655.0 -15ZM2669.0 56C2568.0 56 2502.0 129 2502.0 231C2502.0 333 2568.0 406 2669.0 406C2770.0 406 2836.0 333 2836.0 231C2836.0 129 2770.0 56 2669.0 56Z" />
    <path d="M3257.0 476C3179.0 476 3123.0 427 3104.0 358H3102.0V462H3030.0V0H3102.0V217C3102.0 331 3157.0 393 3255.0 393H3269.0V476Z" />
    <path d="M3550.0 477C3409.0 477 3315.0 378 3315.0 230C3315.0 84 3409.0 -15 3555.0 -15C3671.0 -15 3730.0 48 3764.0 96L3712.0 143C3684.0 106 3640.0 55 3554.0 55C3457.0 55 3390.0 119 3388.0 221H3772.0V234C3772.0 371 3701.0 477 3550.0 477ZM3546.0 410C3635.0 410 3687.0 360 3694.0 276H3391.0C3402.0 364 3466.0 410 3546.0 410Z" />
  </g>
  <line class="u" x1="1.00" y1="17.48" x2="85.86" y2="17.48" />
</svg>
