<svg xmlns="http://www.w3.org/2000/svg" width="60" height="25" viewBox="0 0 60 25" role="img" aria-label="Stack">
  <title>Stack</title>
  <style>
    .n { fill: #0969da; }
    .u { stroke: #0969da; stroke-width: 1; fill: none; }
    @media (prefers-color-scheme: dark) {
      .n { fill: #4493f8; }
      .u { stroke: #4493f8; }
    }

  </style>
  <g transform="translate(1.00 2.00) scale(0.50000)" aria-hidden="true">
    <!-- gear body -->
    <path fill="#90A4AE" d="
      M13 3h6l1 3.2 3.1-1.2 3 3-1.2 3.1L28 13v6l-3.1 1 1.2 3.1-3 3-3.1-1.2L19 29h-6l-1-3.2-3.1 1.2-3-3 1.2-3.1L4 19v-6l3.1-1L5.9 8.9l3-3 3.1 1.2L13 3z
    "/>
    <path fill="#B0BEC5" d="
      M14.2 5h3.6l.7 2.5 2.5-.9 1.8 1.8-.9 2.5 2.5.7v3.6l-2.5.7.9 2.5-1.8 1.8-2.5-.9L17.8 27h-3.6l-.7-2.5-2.5.9-1.8-1.8.9-2.5L8 17.8v-3.6l2.5-.7-.9-2.5 1.8-1.8 2.5.9L14.2 5z
    " opacity=".55"/>
    <circle cx="16" cy="16" r="6.2" fill="#78909C"/>
    <circle cx="16" cy="16" r="4.2" fill="#ECEFF1"/>
    <circle cx="16" cy="16" r="2.2" fill="#546E7A"/>
    <!-- accent tooth highlight -->
    <path fill="#CFD8DC" d="M14.5 4.2h3l.4 1.8h-3.8z" opacity=".8"/>
  </g>
  <g class="n" transform="translate(21.00 14.48) scale(0.016000 -0.016000)">
    <path d="M256.0 715C135.0 715 67.0 652 67.0 554C67.0 477 110.0 429 170.0 384L284.0 298C347.0 251 375.0 216 375.0 168C375.0 111 333.0 63 240.0 63C173.0 63 108.0 89 56.0 121L19.0 49C78.0 11 159.0 -15 240.0 -15C368.0 -15 457.0 49 457.0 173C457.0 257 414.0 311 340.0 365L225.0 450C181.0 482 150.0 510 150.0 557C150.0 605 184.0 637 255.0 637C303.0 637 351.0 623 398.0 597L434.0 671C382.0 696 323.0 715 256.0 715Z" />
    <path d="M779.0 462H677.0V647H605.0V462H516.0V400H605.0V113C605.0 38 649.0 -1 722.0 -1H760.0V66H735.0C697.0 66 677.0 86 677.0 127V400H779.0Z" />
    <path d="M1064.0 -15C1148.0 -15 1207.0 24 1239.0 82H1241.0V0H1313.0V462H1241.0V380H1239.0C1207.0 438 1148.0 477 1064.0 477C937.0 477 835.0 384 835.0 231C835.0 78 937.0 -15 1064.0 -15ZM1078.0 56C977.0 56 911.0 129 911.0 231C911.0 333 977.0 406 1078.0 406C1179.0 406 1245.0 333 1245.0 231C1245.0 129 1179.0 56 1078.0 56Z" />
    <path d="M1658.0 -15C1717.0 -15 1767.0 1 1816.0 31L1781.0 93C1742.0 70 1702.0 55 1656.0 55C1551.0 55 1483.0 133 1483.0 231C1483.0 329 1551.0 407 1656.0 407C1702.0 407 1742.0 392 1781.0 369L1816.0 431C1767.0 461 1717.0 477 1658.0 477C1510.0 477 1407.0 378 1407.0 231C1407.0 84 1510.0 -15 1658.0 -15Z" />
    <path d="M2057.0 251 2270.0 462H2171.0L1979.0 260V700H1907.0V0H1979.0V234L2192.0 0H2291.0Z" />
  </g>
  <line class="u" x1="1.00" y1="17.48" x2="57.78" y2="17.48" />
</svg>
