<svg xmlns="http://www.w3.org/2000/svg" width="46" height="25" viewBox="0 0 46 25" role="img" aria-label="About">
  <title>About</title>
  <desc>Nav link in GT Eesti Display Light, blue with thin underline.</desc>
  <style>
    .n { fill: #0969da; }
    .u { stroke: #0969da; stroke-width: 1; fill: none; }
    @media (prefers-color-scheme: dark) {
      .n { fill: #4493f8; }
      .u { stroke: #4493f8; }
    }

  </style>
  <g class="n" transform="translate(1.00 14.48) scale(0.016000 -0.016000)">
    <path d="M651.0 0 366.0 700H293.0L7.0 0H91.0L165.0 187H494.0L568.0 0ZM330.0 602 466.0 258H193.0Z" />
    <path d="M975.0 -15C1102.0 -15 1204.0 78 1204.0 231C1204.0 384 1102.0 477 975.0 477C891.0 477 832.0 438 800.0 380H798.0V700H726.0V0H798.0V82H800.0C832.0 24 891.0 -15 975.0 -15ZM961.0 56C860.0 56 794.0 129 794.0 231C794.0 333 860.0 406 961.0 406C1062.0 406 1128.0 333 1128.0 231C1128.0 129 1062.0 56 961.0 56Z" />
    <path d="M1518.0 477C1374.0 477 1268.0 374 1268.0 231C1268.0 88 1374.0 -15 1518.0 -15C1663.0 -15 1768.0 88 1768.0 231C1768.0 374 1663.0 477 1518.0 477ZM1518.0 406C1618.0 406 1692.0 337 1692.0 231C1692.0 125 1618.0 56 1518.0 56C1418.0 56 1344.0 125 1344.0 231C1344.0 337 1418.0 406 1518.0 406Z" />
    <path d="M2031.0 -15C2118.0 -15 2165.0 33 2188.0 86H2190.0V0H2262.0V462H2190.0V253C2190.0 105 2127.0 55 2049.0 55C1981.0 55 1932.0 94 1932.0 187V462H1859.0V183C1859.0 41 1936.0 -15 2031.0 -15Z" />
    <path d="M2608.0 462H2506.0V647H2434.0V462H2345.0V400H2434.0V113C2434.0 38 2478.0 -1 2551.0 -1H2589.0V66H2564.0C2526.0 66 2506.0 86 2506.0 127V400H2608.0Z" />
  </g>
  <line class="u" x1="1.00" y1="17.48" x2="43.11" y2="17.48" />
</svg>
