<svg xmlns="http://www.w3.org/2000/svg" width="58" height="25" viewBox="0 0 58 25" role="img" aria-label="Data">
  <title>Data</title>
  <desc>Nav with vector icon + GT Eesti Display Light, blue underline.</desc>
  <style>
    .n { fill: #0969da; }
    .u { stroke: #0969da; stroke-width: 1; fill: none; }
    @media (prefers-color-scheme: dark) {
      .n { fill: #4493f8; }
      .u { stroke: #4493f8; }
    }

  </style>
  <g transform="translate(1.00 2.00) scale(0.50000)" aria-hidden="true">
    <rect x="4" y="4" width="24" height="24" rx="3" fill="#FFF8E1"/>
    <rect x="4" y="4" width="24" height="24" rx="3" fill="none" stroke="#FFB300" stroke-width="1.5"/>
    <!-- bars -->
    <rect x="8" y="16" width="4" height="8" rx="0.8" fill="#42A5F5"/>
    <rect x="14" y="11" width="4" height="13" rx="0.8" fill="#66BB6A"/>
    <rect x="20" y="8" width="4" height="16" rx="0.8" fill="#FFA726"/>
    <path stroke="#BDBDBD" stroke-width="1" d="M7 24.5h18"/>
  </g>
  <g class="n" transform="translate(21.00 14.48) scale(0.016000 -0.016000)">
    <path d="M74.0 700V0H293.0C496.0 0 645.0 132 645.0 350C645.0 568 496.0 700 293.0 700ZM293.0 627C445.0 627 562.0 530 562.0 350C562.0 169 445.0 72 293.0 72H151.0V627Z" />
    <path d="M944.0 -15C1028.0 -15 1087.0 24 1119.0 82H1121.0V0H1193.0V462H1121.0V380H1119.0C1087.0 438 1028.0 477 944.0 477C817.0 477 715.0 384 715.0 231C715.0 78 817.0 -15 944.0 -15ZM958.0 56C857.0 56 791.0 129 791.0 231C791.0 333 857.0 406 958.0 406C1059.0 406 1125.0 333 1125.0 231C1125.0 129 1059.0 56 958.0 56Z" />
    <path d="M1537.0 462H1435.0V647H1363.0V462H1274.0V400H1363.0V113C1363.0 38 1407.0 -1 1480.0 -1H1518.0V66H1493.0C1455.0 66 1435.0 86 1435.0 127V400H1537.0Z" />
    <path d="M1822.0 -15C1906.0 -15 1965.0 24 1997.0 82H1999.0V0H2071.0V462H1999.0V380H1997.0C1965.0 438 1906.0 477 1822.0 477C1695.0 477 1593.0 384 1593.0 231C1593.0 78 1695.0 -15 1822.0 -15ZM1836.0 56C1735.0 56 1669.0 129 1669.0 231C1669.0 333 1735.0 406 1836.0 406C1937.0 406 2003.0 333 2003.0 231C2003.0 129 1937.0 56 1836.0 56Z" />
  </g>
  <line class="u" x1="1.00" y1="17.48" x2="55.13" y2="17.48" />
</svg>
