<svg xmlns="http://www.w3.org/2000/svg" width="32" height="32" viewBox="0 0 32 32" role="img" aria-label="Gear">
  <g transform="translate(0.00 0.00) scale(1.00000)" aria-hidden="true">
    <!-- gear body -->
    <path fill="#90A4AE" d="
      M13 3h6l1 3.2 3.1-1.2 3 3-1.2 3.1L28 13v6l-3.1 1 1.2 3.1-3 3-3.1-1.2L19 29h-6l-1-3.2-3.1 1.2-3-3 1.2-3.1L4 19v-6l3.1-1L5.9 8.9l3-3 3.1 1.2L13 3z
    "/>
    <path fill="#B0BEC5" d="
      M14.2 5h3.6l.7 2.5 2.5-.9 1.8 1.8-.9 2.5 2.5.7v3.6l-2.5.7.9 2.5-1.8 1.8-2.5-.9L17.8 27h-3.6l-.7-2.5-2.5.9-1.8-1.8.9-2.5L8 17.8v-3.6l2.5-.7-.9-2.5 1.8-1.8 2.5.9L14.2 5z
    " opacity=".55"/>
    <circle cx="16" cy="16" r="6.2" fill="#78909C"/>
    <circle cx="16" cy="16" r="4.2" fill="#ECEFF1"/>
    <circle cx="16" cy="16" r="2.2" fill="#546E7A"/>
    <!-- accent tooth highlight -->
    <path fill="#CFD8DC" d="M14.5 4.2h3l.4 1.8h-3.8z" opacity=".8"/>
  </g>
</svg>
