<svg xmlns="http://www.w3.org/2000/svg" width="32" height="32" viewBox="0 0 32 32" role="img" aria-label="Hammer and wrench">
  <g aria-hidden="true">
    <g transform="translate(16 16) rotate(-35) translate(-16 -16)">
      <path fill="#90A4AE" d="M10 6c0-2.2 1.8-4 4-4 1.1 0 2.1.5 2.8 1.2l-2.1 2.1c-.2.2-.3.4-.3.7v1h1c.3 0 .5-.1.7-.3l2.1-2.1C19.5 5.9 20 6.9 20 8c0 2.2-1.8 4-4 4h-1v3.2l6.6 6.6c.8.8.8 2 0 2.8-.8.8-2 .8-2.8 0L11.2 17H8c-.6 0-1-.4-1-1v-3C7 9.7 8.3 7.4 10 6z"/>
      <circle cx="14" cy="8" r="1.3" fill="#CFD8DC"/>
    </g>
    <g transform="translate(16 16) rotate(40) translate(-16 -16)">
      <rect x="14.2" y="12" width="3.6" height="14" rx="1.2" fill="#8D6E63"/>
      <path fill="#FFC107" d="M8 7.5h16c.8 0 1.5.7 1.5 1.5v3c0 .8-.7 1.5-1.5 1.5H8c-.8 0-1.5-.7-1.5-1.5v-3c0-.8.7-1.5 1.5-1.5z"/>
      <path fill="#FFD54F" d="M8 7.5h16c.8 0 1.5.7 1.5 1.5v1.2H6.5V9c0-.8.7-1.5 1.5-1.5z"/>
    </g>
  </g>
</svg>
