<svg xmlns="http://www.w3.org/2000/svg" width="234" height="40" viewBox="0 0 234 40" role="img" aria-labelledby="title">
  <title id="title">📊 Data analytics</title>
  <desc>Section heading in GT Eesti Display Bold from cht-me.</desc>
  <style>
    .h { fill: #0d1117; }
    .emoji { font-size: 26px; dominant-baseline: middle; }
    @media (prefers-color-scheme: dark) {
      .h { fill: #e6edf3; }
    }
  </style>
  <text class="emoji" x="2.0" y="20.0">📊</text>
  <g class="h" transform="translate(46.00 27.84) scale(0.028000 -0.028000)">
    <path d="M61.0 700V0H284.0C505.0 0 662.0 132 662.0 350C662.0 568 505.0 700 284.0 700ZM297.0 559C410.0 559 495.0 485 495.0 350C495.0 215 410.0 141 297.0 141H216.0V559Z" />
    <path d="M923.0 -15C998.0 -15 1045.0 16 1074.0 63H1076.0V0H1227.0V462H1076.0V399H1074.0C1045.0 446 998.0 477 923.0 477C803.0 477 704.0 393 704.0 231C704.0 69 803.0 -15 923.0 -15ZM965.0 123C905.0 123 859.0 165 859.0 231C859.0 297 905.0 339 965.0 339C1026.0 339 1072.0 297 1072.0 231C1072.0 165 1026.0 123 965.0 123Z" />
    <path d="M1615.0 462H1520.0V647H1369.0V462H1279.0V336H1369.0V156C1369.0 45 1430.0 0 1524.0 0H1587.0V140H1570.0C1531.0 140 1520.0 154 1520.0 197V336H1615.0Z" />
    <path d="M1871.0 -15C1946.0 -15 1993.0 16 2022.0 63H2024.0V0H2175.0V462H2024.0V399H2022.0C1993.0 446 1946.0 477 1871.0 477C1751.0 477 1652.0 393 1652.0 231C1652.0 69 1751.0 -15 1871.0 -15ZM1913.0 123C1853.0 123 1807.0 165 1807.0 231C1807.0 297 1853.0 339 1913.0 339C1974.0 339 2020.0 297 2020.0 231C2020.0 165 1974.0 123 1913.0 123Z" />
    <path d="M2720.0 -15C2795.0 -15 2842.0 16 2871.0 63H2873.0V0H3024.0V462H2873.0V399H2871.0C2842.0 446 2795.0 477 2720.0 477C2600.0 477 2501.0 393 2501.0 231C2501.0 69 2600.0 -15 2720.0 -15ZM2762.0 123C2702.0 123 2656.0 165 2656.0 231C2656.0 297 2702.0 339 2762.0 339C2823.0 339 2869.0 297 2869.0 231C2869.0 165 2823.0 123 2762.0 123Z" />
    <path d="M3413.0 477C3348.0 477 3294.0 446 3262.0 392H3260.0V462H3112.0V0H3263.0V232C3263.0 314 3301.0 344 3352.0 344C3408.0 344 3437.0 313 3437.0 244V0H3587.0V286C3587.0 418 3515.0 477 3413.0 477Z" />
    <path d="M3869.0 -15C3944.0 -15 3991.0 16 4020.0 63H4022.0V0H4173.0V462H4022.0V399H4020.0C3991.0 446 3944.0 477 3869.0 477C3749.0 477 3650.0 393 3650.0 231C3650.0 69 3749.0 -15 3869.0 -15ZM3911.0 123C3851.0 123 3805.0 165 3805.0 231C3805.0 297 3851.0 339 3911.0 339C3972.0 339 4018.0 297 4018.0 231C4018.0 165 3972.0 123 3911.0 123Z" />
    <path d="M4262.0 700V0H4413.0V700Z" />
    <path d="M4746.0 207 4638.0 462H4464.0L4671.0 44L4555.0 -200H4707.0L5014.0 462H4861.0Z" />
    <path d="M5365.0 462H5270.0V647H5119.0V462H5029.0V336H5119.0V156C5119.0 45 5180.0 0 5274.0 0H5337.0V140H5320.0C5281.0 140 5270.0 154 5270.0 197V336H5365.0Z" />
    <path d="M5422.0 699V547H5584.0V699ZM5579.0 0V462H5428.0V0Z" />
    <path d="M5903.0 -15C5968.0 -15 6020.0 1 6070.0 30L6008.0 151C5980.0 133 5951.0 123 5910.0 123C5850.0 123 5797.0 162 5797.0 231C5797.0 300 5850.0 339 5910.0 339C5951.0 339 5980.0 329 6008.0 311L6070.0 432C6020.0 461 5968.0 477 5903.0 477C5755.0 477 5646.0 380 5646.0 231C5646.0 82 5755.0 -15 5903.0 -15Z" />
    <path d="M6295.0 -15C6418.0 -15 6499.0 31 6499.0 141C6499.0 219 6457.0 256 6387.0 282L6307.0 312C6284.0 321 6272.0 327 6272.0 341C6272.0 353 6279.0 361 6309.0 361C6346.0 361 6397.0 347 6446.0 327L6488.0 449C6429.0 468 6373.0 477 6321.0 477C6188.0 477 6123.0 422 6123.0 327C6123.0 258 6160.0 213 6236.0 184L6317.0 152C6331.0 146 6349.0 143 6349.0 125C6349.0 110 6334.0 104 6307.0 104C6250.0 104 6193.0 128 6143.0 157L6086.0 33C6156.0 -2 6234.0 -15 6295.0 -15Z" />
  </g>
</svg>
