<svg xmlns="http://www.w3.org/2000/svg" width="180" height="38" viewBox="0 0 180 38" role="img" aria-labelledby="title">
  <title id="title">Tech Stack</title>
  <desc>Section heading with vector hammer-and-wrench icon and GT Eesti Display Bold.</desc>
  <style>
    .h { fill: #0d1117; }
    @media (prefers-color-scheme: dark) {
      .h { fill: #e6edf3; }
    }
  </style>
  <g transform="translate(2.00 4.00) scale(0.93750)" aria-hidden="true">
    <!-- wrench (back, angled) -->
    <g transform="translate(16 16) rotate(-35) translate(-16 -16)">
      <path fill="#90A4AE" d="M10 6c0-2.2 1.8-4 4-4 1.1 0 2.1.5 2.8 1.2l-2.1 2.1c-.2.2-.3.4-.3.7v1h1c.3 0 .5-.1.7-.3l2.1-2.1C19.5 5.9 20 6.9 20 8c0 2.2-1.8 4-4 4h-1v3.2l6.6 6.6c.8.8.8 2 0 2.8-.8.8-2 .8-2.8 0L11.2 17H8c-.6 0-1-.4-1-1v-3C7 9.7 8.3 7.4 10 6z"/>
      <path fill="#607D8B" d="M14 4c1 0 1.9.4 2.5 1.1l-1.8 1.8c-.3.3-.5.8-.5 1.2v.4h.4c.4 0 .9-.2 1.2-.5l1.8-1.8c.7.6 1.1 1.5 1.1 2.5 0 1.1-.5 2-1.3 2.6L8.8 16.4 8 15.6V13c0-2.5 1.2-4.6 3-5.7.9-.5 1.9-.8 3-.8z" opacity=".35"/>
      <circle cx="14" cy="8" r="1.3" fill="#CFD8DC"/>
    </g>
    <!-- hammer (front, angled opposite) -->
    <g transform="translate(16 16) rotate(40) translate(-16 -16)">
      <!-- handle -->
      <rect x="14.2" y="12" width="3.6" height="14" rx="1.2" fill="#8D6E63"/>
      <rect x="14.8" y="13" width="1.2" height="12" rx="0.5" fill="#A1887F" opacity=".7"/>
      <!-- head -->
      <path fill="#FFC107" d="M8 7.5h16c.8 0 1.5.7 1.5 1.5v3c0 .8-.7 1.5-1.5 1.5H8c-.8 0-1.5-.7-1.5-1.5v-3c0-.8.7-1.5 1.5-1.5z"/>
      <path fill="#FFD54F" d="M8 7.5h16c.8 0 1.5.7 1.5 1.5v1.2H6.5V9c0-.8.7-1.5 1.5-1.5z"/>
      <path fill="#FFA000" d="M6.5 11.2h19V12c0 .8-.7 1.5-1.5 1.5H8c-.8 0-1.5-.7-1.5-1.5v-.8z" opacity=".85"/>
      <!-- claw side detail -->
      <path fill="#FFB300" d="M6.5 8.2c0-.4.3-.7.7-.7h2.2v5.5H7.2c-.4 0-.7-.3-.7-.7V8.2z"/>
    </g>
  </g>
  <g class="h" transform="translate(40.00 26.84) scale(0.028000 -0.028000)">
    <path d="M5.0 700V555H190.0V0H345.0V555H529.0V700Z" />
    <path d="M799.0 476C657.0 476 555.0 385 555.0 229C555.0 82 658.0 -15 813.0 -15C892.0 -15 955.0 9 1004.0 39L949.0 153C920.0 134 871.0 111 815.0 111C753.0 111 707.0 137 697.0 195H1028.0V229C1028.0 396 938.0 476 799.0 476ZM794.0 369C843.0 369 880.0 338 882.0 284H698.0C705.0 344 743.0 369 794.0 369Z" />
    <path d="M1323.0 -15C1388.0 -15 1440.0 1 1490.0 30L1428.0 151C1400.0 133 1371.0 123 1330.0 123C1270.0 123 1217.0 162 1217.0 231C1217.0 300 1270.0 339 1330.0 339C1371.0 339 1400.0 329 1428.0 311L1490.0 432C1440.0 461 1388.0 477 1323.0 477C1175.0 477 1066.0 380 1066.0 231C1066.0 82 1175.0 -15 1323.0 -15Z" />
    <path d="M1543.0 700V0H1694.0V232C1694.0 314 1732.0 344 1783.0 344C1838.0 344 1867.0 313 1867.0 244V0H2018.0V286C2018.0 418 1946.0 477 1844.0 477C1778.0 477 1728.0 450 1696.0 401H1694.0V700Z" />
    <path d="M2602.0 715C2454.0 715 2379.0 642 2379.0 528C2379.0 449 2417.0 382 2508.0 328L2615.0 261C2654.0 237 2681.0 218 2681.0 186C2681.0 149 2651.0 130 2595.0 130C2531.0 130 2465.0 153 2398.0 194L2328.0 55C2407.0 9 2495.0 -15 2589.0 -15C2752.0 -15 2844.0 58 2844.0 193C2844.0 291 2795.0 347 2711.0 398L2595.0 471C2555.0 495 2542.0 509 2542.0 530C2542.0 554 2557.0 571 2606.0 571C2652.0 571 2700.0 557 2764.0 527L2829.0 664C2746.0 700 2669.0 715 2602.0 715Z" />
    <path d="M3212.0 462H3117.0V647H2966.0V462H2876.0V336H2966.0V156C2966.0 45 3027.0 0 3121.0 0H3184.0V140H3167.0C3128.0 140 3117.0 154 3117.0 197V336H3212.0Z" />
    <path d="M3468.0 -15C3543.0 -15 3590.0 16 3619.0 63H3621.0V0H3772.0V462H3621.0V399H3619.0C3590.0 446 3543.0 477 3468.0 477C3348.0 477 3249.0 393 3249.0 231C3249.0 69 3348.0 -15 3468.0 -15ZM3510.0 123C3450.0 123 3404.0 165 3404.0 231C3404.0 297 3450.0 339 3510.0 339C3571.0 339 3617.0 297 3617.0 231C3617.0 165 3571.0 123 3510.0 123Z" />
    <path d="M4092.0 -15C4157.0 -15 4209.0 1 4259.0 30L4197.0 151C4169.0 133 4140.0 123 4099.0 123C4039.0 123 3986.0 162 3986.0 231C3986.0 300 4039.0 339 4099.0 339C4140.0 339 4169.0 329 4197.0 311L4259.0 432C4209.0 461 4157.0 477 4092.0 477C3944.0 477 3835.0 380 3835.0 231C3835.0 82 3944.0 -15 4092.0 -15Z" />
    <path d="M4602.0 252 4785.0 462H4598.0L4463.0 280V700H4312.0V0H4463.0V212L4620.0 0H4815.0Z" />
  </g>
</svg>
