<svg xmlns="http://www.w3.org/2000/svg" width="169" height="38" viewBox="0 0 169 38" role="img" aria-labelledby="title">
  <title id="title">About me</title>
  <desc>About me with kaiyi.cool-style Twemoji wave hand vector.</desc>
  <style>
    .h { fill: #0d1117; }
    @media (prefers-color-scheme: dark) { .h { fill: #e6edf3; } }
  </style>
  <g transform="translate(2.00 4.00) scale(0.83333)" aria-hidden="true">
    <path fill="#EF9645" d="M4.861 9.147c.94-.657 2.357-.531 3.201.166l-.968-1.407c-.779-1.111-.5-2.313.612-3.093c1.112-.777 4.263 1.312 4.263 1.312c-.786-1.122-.639-2.544.483-3.331a2.483 2.483 0 0 1 3.456.611l10.42 14.72L25 31l-11.083-4.042L4.25 12.625a2.495 2.495 0 0 1 .611-3.478"/>
    <path fill="#FFDC5D" d="M2.695 17.336s-1.132-1.65.519-2.781c1.649-1.131 2.78.518 2.78.518l5.251 7.658c.181-.302.379-.6.6-.894L4.557 11.21s-1.131-1.649.519-2.78c1.649-1.131 2.78.518 2.78.518l6.855 9.997c.255-.208.516-.417.785-.622L7.549 6.732s-1.131-1.649.519-2.78c1.649-1.131 2.78.518 2.78.518l7.947 11.589c.292-.179.581-.334.871-.498L12.238 4.729s-1.131-1.649.518-2.78c1.649-1.131 2.78.518 2.78.518l7.854 11.454l1.194 1.742c-4.948 3.394-5.419 9.779-2.592 13.902c.565.825 1.39.26 1.39.26c-3.393-4.949-2.357-10.51 2.592-13.903L24.515 8.62s-.545-1.924 1.378-2.47c1.924-.545 2.47 1.379 2.47 1.379l1.685 5.004c.668 1.984 1.379 3.961 2.32 5.831c2.657 5.28 1.07 11.842-3.94 15.279c-5.465 3.747-12.936 2.354-16.684-3.11z"/>
    <g fill="#5DADEC">
      <path d="M12 32.042C8 32.042 3.958 28 3.958 24c0-.553-.405-1-.958-1s-1.042.447-1.042 1C1.958 30 6 34.042 12 34.042c.553 0 1-.489 1-1.042s-.447-.958-1-.958"/>
      <path d="M7 34c-3 0-5-2-5-5a1 1 0 1 0-2 0c0 4 3 7 7 7a1 1 0 1 0 0-2M24 2a1 1 0 0 0 0 2c4 0 8 3.589 8 8a1 1 0 0 0 2 0c0-5.514-4-10-10-10"/>
      <path d="M29 .042c-.552 0-1 .406-1 .958s.448 1.042 1 1.042c3 0 4.958 2.225 4.958 4.958c0 .552.489 1 1.042 1s.958-.448.958-1C35.958 3.163 33 .042 29 .042"/>
    </g>

  </g>
  <g class="h" transform="translate(40.00 26.84) scale(0.028000 -0.028000)">
    <path d="M716.0 0 440.0 700H276.0L0.0 0H174.0L224.0 142H493.0L543.0 0ZM358.0 528 445.0 280H272.0Z" />
    <path d="M1066.0 -15C1186.0 -15 1286.0 69 1286.0 231C1286.0 393 1186.0 477 1066.0 477C992.0 477 945.0 446 916.0 399H914.0V700H763.0V0H914.0V63H916.0C945.0 16 992.0 -15 1066.0 -15ZM1024.0 123C964.0 123 918.0 165 918.0 231C918.0 297 964.0 339 1024.0 339C1085.0 339 1131.0 297 1131.0 231C1131.0 165 1085.0 123 1024.0 123Z" />
    <path d="M1587.0 477C1438.0 477 1328.0 379 1328.0 231C1328.0 83 1438.0 -15 1587.0 -15C1737.0 -15 1847.0 83 1847.0 231C1847.0 379 1737.0 477 1587.0 477ZM1587.0 339C1648.0 339 1695.0 297 1695.0 231C1695.0 165 1648.0 123 1587.0 123C1527.0 123 1479.0 165 1479.0 231C1479.0 297 1527.0 339 1587.0 339Z" />
    <path d="M2084.0 -15C2152.0 -15 2196.0 19 2229.0 72H2231.0V0H2379.0V462H2228.0V239C2228.0 154 2194.0 117 2141.0 117C2096.0 117 2065.0 143 2065.0 210V462H1909.0V177C1909.0 45 1986.0 -15 2084.0 -15Z" />
    <path d="M2771.0 462H2676.0V647H2525.0V462H2435.0V336H2525.0V156C2525.0 45 2586.0 0 2680.0 0H2743.0V140H2726.0C2687.0 140 2676.0 154 2676.0 197V336H2771.0Z" />
    <path d="M3247.0 0V229C3247.0 316 3283.0 344 3329.0 344C3382.0 344 3404.0 309 3404.0 251V0H3549.0V229C3549.0 316 3585.0 344 3631.0 344C3684.0 344 3706.0 309 3706.0 251V0H3857.0V301C3857.0 413 3788.0 477 3692.0 477C3624.0 477 3569.0 444 3537.0 387H3535.0C3511.0 443 3461.0 477 3390.0 477C3322.0 477 3272.0 445 3246.0 394H3244.0V462H3096.0V0Z" />
    <path d="M4163.0 476C4021.0 476 3919.0 385 3919.0 229C3919.0 82 4022.0 -15 4177.0 -15C4256.0 -15 4319.0 9 4368.0 39L4313.0 153C4284.0 134 4235.0 111 4179.0 111C4117.0 111 4071.0 137 4061.0 195H4392.0V229C4392.0 396 4302.0 476 4163.0 476ZM4158.0 369C4207.0 369 4244.0 338 4246.0 284H4062.0C4069.0 344 4107.0 369 4158.0 369Z" />
  </g>
</svg>
