<svg xmlns="http://www.w3.org/2000/svg" width="331" height="38" viewBox="0 0 331 38" role="img" aria-labelledby="title">
  <title id="title">Software development</title>
  <desc>Section heading with vector icon + GT Eesti Display Bold.</desc>
  <style>
    .h { fill: #0d1117; }
    @media (prefers-color-scheme: dark) { .h { fill: #e6edf3; } }
  </style>
  <g transform="translate(2.00 4.00) scale(0.93750)" aria-hidden="true">
    <rect x="5" y="7" width="22" height="15" rx="2" fill="#42A5F5"/>
    <rect x="7" y="9" width="18" height="11" rx="1" fill="#E3F2FD"/>
    <rect x="8" y="10" width="7" height="2" rx="0.5" fill="#90CAF9"/>
    <rect x="8" y="13" width="11" height="2" rx="0.5" fill="#90CAF9"/>
    <rect x="8" y="16" width="5" height="2" rx="0.5" fill="#64B5F6"/>
    <path fill="#1E88E5" d="M3 23h26l-2 3H5l-2-3z"/>
    <rect x="13" y="24.2" width="6" height="1.2" rx="0.4" fill="#BBDEFB"/>
  </g>
  <g class="h" transform="translate(40.00 26.84) scale(0.028000 -0.028000)">
    <path d="M280.0 715C132.0 715 57.0 642 57.0 528C57.0 449 95.0 382 186.0 328L293.0 261C332.0 237 359.0 218 359.0 186C359.0 149 329.0 130 273.0 130C209.0 130 143.0 153 76.0 194L6.0 55C85.0 9 173.0 -15 267.0 -15C430.0 -15 522.0 58 522.0 193C522.0 291 473.0 347 389.0 398L273.0 471C233.0 495 220.0 509 220.0 530C220.0 554 235.0 571 284.0 571C330.0 571 378.0 557 442.0 527L507.0 664C424.0 700 347.0 715 280.0 715Z" />
    <path d="M824.0 477C675.0 477 565.0 379 565.0 231C565.0 83 675.0 -15 824.0 -15C974.0 -15 1084.0 83 1084.0 231C1084.0 379 974.0 477 824.0 477ZM824.0 339C885.0 339 932.0 297 932.0 231C932.0 165 885.0 123 824.0 123C764.0 123 716.0 165 716.0 231C716.0 297 764.0 339 824.0 339Z" />
    <path d="M1450.0 570V710H1419.0C1270.0 710 1197.0 642 1197.0 489V462H1116.0V336H1197.0V0H1348.0V336H1446.0V462H1348.0V484C1348.0 552 1371.0 570 1437.0 570Z" />
    <path d="M1806.0 462H1711.0V647H1560.0V462H1470.0V336H1560.0V156C1560.0 45 1621.0 0 1715.0 0H1778.0V140H1761.0C1722.0 140 1711.0 154 1711.0 197V336H1806.0Z" />
    <path d="M2389.0 191 2296.0 462H2157.0L2063.0 191L1977.0 462H1827.0L1996.0 0H2125.0L2226.0 270L2328.0 0H2457.0L2625.0 462H2476.0Z" />
    <path d="M2870.0 -15C2945.0 -15 2992.0 16 3021.0 63H3023.0V0H3174.0V462H3023.0V399H3021.0C2992.0 446 2945.0 477 2870.0 477C2750.0 477 2651.0 393 2651.0 231C2651.0 69 2750.0 -15 2870.0 -15ZM2912.0 123C2852.0 123 2806.0 165 2806.0 231C2806.0 297 2852.0 339 2912.0 339C2973.0 339 3019.0 297 3019.0 231C3019.0 165 2973.0 123 2912.0 123Z" />
    <path d="M3565.0 476C3492.0 476 3439.0 444 3412.0 368H3410.0V462H3262.0V0H3413.0V170C3413.0 288 3454.0 325 3555.0 325H3568.0V476Z" />
    <path d="M3843.0 476C3701.0 476 3599.0 385 3599.0 229C3599.0 82 3702.0 -15 3857.0 -15C3936.0 -15 3999.0 9 4048.0 39L3993.0 153C3964.0 134 3915.0 111 3859.0 111C3797.0 111 3751.0 137 3741.0 195H4072.0V229C4072.0 396 3982.0 476 3843.0 476ZM3838.0 369C3887.0 369 3924.0 338 3926.0 284H3742.0C3749.0 344 3787.0 369 3838.0 369Z" />
    <path d="M4592.0 -15C4667.0 -15 4714.0 16 4743.0 63H4745.0V0H4896.0V700H4745.0V399H4743.0C4714.0 446 4667.0 477 4592.0 477C4472.0 477 4373.0 393 4373.0 231C4373.0 69 4472.0 -15 4592.0 -15ZM4634.0 123C4574.0 123 4528.0 165 4528.0 231C4528.0 297 4574.0 339 4634.0 339C4695.0 339 4741.0 297 4741.0 231C4741.0 165 4695.0 123 4634.0 123Z" />
    <path d="M5208.0 476C5066.0 476 4964.0 385 4964.0 229C4964.0 82 5067.0 -15 5222.0 -15C5301.0 -15 5364.0 9 5413.0 39L5358.0 153C5329.0 134 5280.0 111 5224.0 111C5162.0 111 5116.0 137 5106.0 195H5437.0V229C5437.0 396 5347.0 476 5208.0 476ZM5203.0 369C5252.0 369 5289.0 338 5291.0 284H5107.0C5114.0 344 5152.0 369 5203.0 369Z" />
    <path d="M5726.0 170 5626.0 462H5459.0L5651.0 0H5802.0L5994.0 462H5827.0Z" />
    <path d="M6264.0 476C6122.0 476 6020.0 385 6020.0 229C6020.0 82 6123.0 -15 6278.0 -15C6357.0 -15 6420.0 9 6469.0 39L6414.0 153C6385.0 134 6336.0 111 6280.0 111C6218.0 111 6172.0 137 6162.0 195H6493.0V229C6493.0 396 6403.0 476 6264.0 476ZM6259.0 369C6308.0 369 6345.0 338 6347.0 284H6163.0C6170.0 344 6208.0 369 6259.0 369Z" />
    <path d="M6557.0 700V0H6708.0V700Z" />
    <path d="M7034.0 477C6885.0 477 6775.0 379 6775.0 231C6775.0 83 6885.0 -15 7034.0 -15C7184.0 -15 7294.0 83 7294.0 231C7294.0 379 7184.0 477 7034.0 477ZM7034.0 339C7095.0 339 7142.0 297 7142.0 231C7142.0 165 7095.0 123 7034.0 123C6974.0 123 6926.0 165 6926.0 231C6926.0 297 6974.0 339 7034.0 339Z" />
    <path d="M7512.0 -200V63H7514.0C7543.0 16 7591.0 -15 7665.0 -15C7785.0 -15 7884.0 69 7884.0 231C7884.0 393 7785.0 477 7665.0 477C7591.0 477 7543.0 446 7514.0 399H7512.0V462H7361.0V-200ZM7623.0 123C7562.0 123 7516.0 165 7516.0 231C7516.0 297 7562.0 339 7623.0 339C7683.0 339 7729.0 297 7729.0 231C7729.0 165 7683.0 123 7623.0 123Z" />
    <path d="M8102.0 0V229C8102.0 316 8138.0 344 8184.0 344C8237.0 344 8259.0 309 8259.0 251V0H8404.0V229C8404.0 316 8440.0 344 8486.0 344C8539.0 344 8561.0 309 8561.0 251V0H8712.0V301C8712.0 413 8643.0 477 8547.0 477C8479.0 477 8424.0 444 8392.0 387H8390.0C8366.0 443 8316.0 477 8245.0 477C8177.0 477 8127.0 445 8101.0 394H8099.0V462H7951.0V0Z" />
    <path d="M9018.0 476C8876.0 476 8774.0 385 8774.0 229C8774.0 82 8877.0 -15 9032.0 -15C9111.0 -15 9174.0 9 9223.0 39L9168.0 153C9139.0 134 9090.0 111 9034.0 111C8972.0 111 8926.0 137 8916.0 195H9247.0V229C9247.0 396 9157.0 476 9018.0 476ZM9013.0 369C9062.0 369 9099.0 338 9101.0 284H8917.0C8924.0 344 8962.0 369 9013.0 369Z" />
    <path d="M9611.0 477C9546.0 477 9492.0 446 9460.0 392H9458.0V462H9310.0V0H9461.0V232C9461.0 314 9499.0 344 9550.0 344C9606.0 344 9635.0 313 9635.0 244V0H9785.0V286C9785.0 418 9713.0 477 9611.0 477Z" />
    <path d="M10173.0 462H10078.0V647H9927.0V462H9837.0V336H9927.0V156C9927.0 45 9988.0 0 10082.0 0H10145.0V140H10128.0C10089.0 140 10078.0 154 10078.0 197V336H10173.0Z" />
  </g>
</svg>
