<svg xmlns="http://www.w3.org/2000/svg" width="175" height="40" viewBox="0 0 175 40" role="img" aria-labelledby="title">
  <title id="title">👋 About me</title>
  <desc>Section heading in GT Eesti Display Bold from cht-me.</desc>
  <style>
    .h { fill: #0d1117; }
    .emoji { font-size: 26px; dominant-baseline: middle; }
    @media (prefers-color-scheme: dark) {
      .h { fill: #e6edf3; }
    }
  </style>
  <text class="emoji" x="2.0" y="20.0">👋</text>
  <g class="h" transform="translate(46.00 27.84) scale(0.028000 -0.028000)">
    <path d="M716.0 0 440.0 700H276.0L0.0 0H174.0L224.0 142H493.0L543.0 0ZM358.0 528 445.0 280H272.0Z" />
    <path d="M1066.0 -15C1186.0 -15 1286.0 69 1286.0 231C1286.0 393 1186.0 477 1066.0 477C992.0 477 945.0 446 916.0 399H914.0V700H763.0V0H914.0V63H916.0C945.0 16 992.0 -15 1066.0 -15ZM1024.0 123C964.0 123 918.0 165 918.0 231C918.0 297 964.0 339 1024.0 339C1085.0 339 1131.0 297 1131.0 231C1131.0 165 1085.0 123 1024.0 123Z" />
    <path d="M1587.0 477C1438.0 477 1328.0 379 1328.0 231C1328.0 83 1438.0 -15 1587.0 -15C1737.0 -15 1847.0 83 1847.0 231C1847.0 379 1737.0 477 1587.0 477ZM1587.0 339C1648.0 339 1695.0 297 1695.0 231C1695.0 165 1648.0 123 1587.0 123C1527.0 123 1479.0 165 1479.0 231C1479.0 297 1527.0 339 1587.0 339Z" />
    <path d="M2084.0 -15C2152.0 -15 2196.0 19 2229.0 72H2231.0V0H2379.0V462H2228.0V239C2228.0 154 2194.0 117 2141.0 117C2096.0 117 2065.0 143 2065.0 210V462H1909.0V177C1909.0 45 1986.0 -15 2084.0 -15Z" />
    <path d="M2771.0 462H2676.0V647H2525.0V462H2435.0V336H2525.0V156C2525.0 45 2586.0 0 2680.0 0H2743.0V140H2726.0C2687.0 140 2676.0 154 2676.0 197V336H2771.0Z" />
    <path d="M3247.0 0V229C3247.0 316 3283.0 344 3329.0 344C3382.0 344 3404.0 309 3404.0 251V0H3549.0V229C3549.0 316 3585.0 344 3631.0 344C3684.0 344 3706.0 309 3706.0 251V0H3857.0V301C3857.0 413 3788.0 477 3692.0 477C3624.0 477 3569.0 444 3537.0 387H3535.0C3511.0 443 3461.0 477 3390.0 477C3322.0 477 3272.0 445 3246.0 394H3244.0V462H3096.0V0Z" />
    <path d="M4163.0 476C4021.0 476 3919.0 385 3919.0 229C3919.0 82 4022.0 -15 4177.0 -15C4256.0 -15 4319.0 9 4368.0 39L4313.0 153C4284.0 134 4235.0 111 4179.0 111C4117.0 111 4071.0 137 4061.0 195H4392.0V229C4392.0 396 4302.0 476 4163.0 476ZM4158.0 369C4207.0 369 4244.0 338 4246.0 284H4062.0C4069.0 344 4107.0 369 4158.0 369Z" />
  </g>
</svg>
